M48
; DRILL file {KiCad (7.0.0)} date Mon May  8 09:15:33 2023
; FORMAT={-:-/ absolute / inch / decimal}
; #@! TF.CreationDate,2023-05-08T09:15:33-04:00
; #@! TF.GenerationSoftware,Kicad,Pcbnew,(7.0.0)
; #@! TF.FileFunction,Plated,1,4,PTH
FMAT,2
INCH
; #@! TA.AperFunction,Plated,PTH,ComponentDrill
T1C0.0079
; #@! TA.AperFunction,Plated,PTH,ViaDrill
T2C0.0157
; #@! TA.AperFunction,Plated,PTH,ComponentDrill
T3C0.0236
; #@! TA.AperFunction,Plated,PTH,ComponentDrill
T4C0.0394
%
G90
G05
T1
X6.6417Y-4.8858
X6.6417Y-4.961
X6.6929Y-4.8858
X6.6929Y-4.961
X6.7441Y-4.8858
X6.7441Y-4.961
T2
X3.6969Y-4.5669
X3.7402Y-4.5669
X3.811Y-4.2047
X3.8268Y-4.4409
X3.8268Y-4.6929
X3.8583Y-4.1693
X3.8622Y-4.3701
X3.8622Y-4.4055
X3.8622Y-4.4409
X3.8622Y-4.6929
X3.8622Y-4.7283
X3.8622Y-4.7638
X4.1339Y-5.0591
X4.1614Y-4.9961
X4.2087Y-4.9961
X4.216Y-4.8813
X4.2204Y-4.8071
X4.2638Y-5.0354
X4.2913Y-5.0669
X4.2982Y-4.626
X4.2982Y-4.6614
X4.2982Y-4.6969
X4.2982Y-4.9213
X4.3031Y-4.878
X4.311Y-5.0039
X4.3297Y-4.9291
X4.3701Y-4.878
X4.3701Y-4.9213
X4.3701Y-5.0157
X4.377Y-4.626
X4.377Y-4.6614
X4.377Y-4.6969
X4.4291Y-5.0197
X4.4567Y-4.8228
X4.4567Y-4.9055
X4.4685Y-5.1614
X4.5039Y-4.937
X4.5276Y-4.6457
X4.6063Y-4.6457
X4.6142Y-5.0167
X4.6457Y-4.6063
X4.6614Y-5.0236
X4.6614Y-5.1299
X4.6654Y-4.0748
X4.6654Y-4.1339
X4.6654Y-4.1929
X4.685Y-4.1043
X4.685Y-4.1634
X4.685Y-4.6457
X4.685Y-4.9409
X4.7047Y-4.0748
X4.7047Y-4.1339
X4.7047Y-4.1929
X4.7244Y-4.1043
X4.7244Y-4.1634
X4.7244Y-4.6063
X4.7244Y-4.9409
X4.7559Y-5.0
X4.7638Y-4.6457
X4.7638Y-4.9409
X4.8031Y-4.9409
X4.8346Y-4.4567
X4.8346Y-4.4921
X4.8346Y-4.5276
X4.8346Y-4.563
X4.8661Y-4.4724
X4.8661Y-4.5079
X4.8661Y-4.5433
X4.8661Y-4.5787
X5.1575Y-4.252
X5.1614Y-5.0512
X5.2047Y-4.378
X5.252Y-4.3819
X5.7283Y-4.7244
X5.748Y-4.685
X5.7677Y-4.7244
X5.7874Y-4.685
X5.8071Y-4.7244
X5.8268Y-4.685
X5.8465Y-4.7244
X5.8661Y-4.685
X5.8661Y-4.7638
X5.8858Y-4.7244
X5.8858Y-4.8031
X5.9055Y-4.685
X5.9055Y-4.7638
X5.9055Y-4.8425
X5.9252Y-4.7244
X5.9252Y-4.8031
X6.1563Y-4.6138
X6.3386Y-4.2638
X6.3465Y-5.0512
X6.3484Y-4.5866
X6.3484Y-4.6358
X6.6575Y-4.6614
X6.6575Y-4.7008
X6.6575Y-4.7402
X6.685Y-4.6811
X6.685Y-4.7205
X6.685Y-4.7598
X6.9409Y-5.0354
X6.9646Y-5.0709
X6.9843Y-5.0354
X7.0079Y-5.0709
X7.0276Y-5.0394
X7.0512Y-5.0709
X7.0709Y-5.0394
X7.2047Y-4.6614
X7.4016Y-4.5197
X7.4252Y-4.626
X7.4803Y-4.2598
X7.4803Y-5.0394
X7.5079Y-4.689
X7.5591Y-4.4882
X7.5622Y-4.6921
X7.622Y-4.4961
X7.622Y-4.5433
X7.8071Y-4.3858
X7.8386Y-4.7362
X7.8425Y-4.2126
X7.9016Y-4.0512
X7.9134Y-4.3937
X7.9134Y-4.4488
X7.9134Y-4.4961
X7.9134Y-4.5433
X7.9134Y-4.5906
X7.9134Y-4.6378
X7.9134Y-4.685
X7.9528Y-4.2126
X7.9882Y-4.7362
X8.2047Y-4.1417
X8.2434Y-4.3785
X8.2834Y-4.3779
X8.315Y-4.5354
X8.315Y-4.5906
X8.3425Y-4.0748
X8.3484Y-4.3799
X8.3494Y-5.0817
X8.3701Y-4.5354
X8.3701Y-4.5906
X8.3878Y-4.3799
X8.4252Y-4.1417
X8.4252Y-4.1772
X8.4252Y-4.2126
X8.4252Y-4.248
X8.4271Y-4.3799
X8.4449Y-4.2756
X8.4488Y-4.437
X8.4606Y-4.5315
X8.4646Y-4.248
X8.4664Y-4.3778
X8.4764Y-5.0
X8.4921Y-4.7244
X8.4961Y-4.4173
X8.5394Y-4.4016
X8.5394Y-4.7362
X8.5551Y-4.1614
X8.5551Y-4.1969
X8.5551Y-4.2323
X8.5551Y-4.2677
X8.5866Y-4.1457
X8.5866Y-4.1811
X8.5866Y-4.2165
X8.5866Y-4.252
T4
X6.6268Y-4.5669
X6.7268Y-4.5669
X6.8268Y-4.5669
X6.9268Y-4.5669
X7.0268Y-4.5669
X7.1268Y-4.5669
T3
G00X3.6417Y-4.3969
M15
G01X3.5906Y-4.3969
M16
G05
G00X3.6417Y-4.737
M15
G01X3.5906Y-4.737
M16
G05
G00X3.7864Y-4.3969
M15
G01X3.747Y-4.3969
M16
G05
G00X3.7864Y-4.737
M15
G01X3.747Y-4.737
M16
G05
T0
M30
