%TF.GenerationSoftware,KiCad,Pcbnew,(7.0.0)*%
%TF.CreationDate,2023-05-08T09:15:32-04:00*%
%TF.ProjectId,AutoTiller,4175746f-5469-46c6-9c65-722e6b696361,rev?*%
%TF.SameCoordinates,Original*%
%TF.FileFunction,Drillmap*%
%TF.FilePolarity,Positive*%
%FSLAX45Y45*%
G04 Gerber Fmt 4.5, Leading zero omitted, Abs format (unit mm)*
G04 Created by KiCad (PCBNEW (7.0.0)) date 2023-05-08 09:15:32*
%MOMM*%
%LPD*%
G01*
G04 APERTURE LIST*
%ADD10C,0.100000*%
%ADD11C,0.200000*%
%ADD12C,0.020000*%
%ADD13C,0.040000*%
%ADD14C,0.060000*%
G04 APERTURE END LIST*
D10*
X9400000Y-13200000D02*
X22100000Y-13200000D01*
X13650000Y-10700000D02*
X15050000Y-10700000D01*
X15050000Y-10700000D02*
X15050000Y-10000000D01*
X9000000Y-10400000D02*
X9000000Y-12800000D01*
X22500000Y-12800000D02*
X22500000Y-10400000D01*
X13650000Y-10000000D02*
X13650000Y-10700000D01*
X9400000Y-10000000D02*
G75*
G03*
X9000000Y-10400000I0J-400000D01*
G01*
X22100000Y-10000000D02*
X15050000Y-10000000D01*
X13650000Y-10000000D02*
X9400000Y-10000000D01*
X22500000Y-10400000D02*
G75*
G03*
X22100000Y-10000000I-400000J0D01*
G01*
X9000000Y-12800000D02*
G75*
G03*
X9400000Y-13200000I400000J0D01*
G01*
X22100000Y-13200000D02*
G75*
G03*
X22500000Y-12800000I0J400000D01*
G01*
D11*
D12*
X16860000Y-12400000D02*
X16880000Y-12420000D01*
X16880000Y-12400000D02*
X16860000Y-12420000D01*
X16860000Y-12591000D02*
X16880000Y-12611000D01*
X16880000Y-12591000D02*
X16860000Y-12611000D01*
X16990000Y-12400000D02*
X17010000Y-12420000D01*
X17010000Y-12400000D02*
X16990000Y-12420000D01*
X16990000Y-12591000D02*
X17010000Y-12611000D01*
X17010000Y-12591000D02*
X16990000Y-12611000D01*
X17120000Y-12400000D02*
X17140000Y-12420000D01*
X17140000Y-12400000D02*
X17120000Y-12420000D01*
X17120000Y-12591000D02*
X17140000Y-12611000D01*
X17140000Y-12591000D02*
X17120000Y-12611000D01*
D13*
X9410000Y-11600000D02*
G75*
G03*
X9410000Y-11600000I-20000J0D01*
G01*
X9520000Y-11600000D02*
G75*
G03*
X9520000Y-11600000I-20000J0D01*
G01*
X9700000Y-10680000D02*
G75*
G03*
X9700000Y-10680000I-20000J0D01*
G01*
X9740000Y-11280000D02*
G75*
G03*
X9740000Y-11280000I-20000J0D01*
G01*
X9740000Y-11920000D02*
G75*
G03*
X9740000Y-11920000I-20000J0D01*
G01*
X9820000Y-10590000D02*
G75*
G03*
X9820000Y-10590000I-20000J0D01*
G01*
X9830000Y-11100000D02*
G75*
G03*
X9830000Y-11100000I-20000J0D01*
G01*
X9830000Y-11190000D02*
G75*
G03*
X9830000Y-11190000I-20000J0D01*
G01*
X9830000Y-11280000D02*
G75*
G03*
X9830000Y-11280000I-20000J0D01*
G01*
X9830000Y-11920000D02*
G75*
G03*
X9830000Y-11920000I-20000J0D01*
G01*
X9830000Y-12010000D02*
G75*
G03*
X9830000Y-12010000I-20000J0D01*
G01*
X9830000Y-12100000D02*
G75*
G03*
X9830000Y-12100000I-20000J0D01*
G01*
X10520000Y-12850050D02*
G75*
G03*
X10520000Y-12850050I-20000J0D01*
G01*
X10590000Y-12690000D02*
G75*
G03*
X10590000Y-12690000I-20000J0D01*
G01*
X10710000Y-12690000D02*
G75*
G03*
X10710000Y-12690000I-20000J0D01*
G01*
X10728577Y-12398577D02*
G75*
G03*
X10728577Y-12398577I-20000J0D01*
G01*
X10739936Y-12210064D02*
G75*
G03*
X10739936Y-12210064I-20000J0D01*
G01*
X10850000Y-12790000D02*
G75*
G03*
X10850000Y-12790000I-20000J0D01*
G01*
X10920000Y-12870000D02*
G75*
G03*
X10920000Y-12870000I-20000J0D01*
G01*
X10937500Y-11750000D02*
G75*
G03*
X10937500Y-11750000I-20000J0D01*
G01*
X10937500Y-11840000D02*
G75*
G03*
X10937500Y-11840000I-20000J0D01*
G01*
X10937500Y-11930000D02*
G75*
G03*
X10937500Y-11930000I-20000J0D01*
G01*
X10937500Y-12500000D02*
G75*
G03*
X10937500Y-12500000I-20000J0D01*
G01*
X10950000Y-12390000D02*
G75*
G03*
X10950000Y-12390000I-20000J0D01*
G01*
X10970000Y-12710000D02*
G75*
G03*
X10970000Y-12710000I-20000J0D01*
G01*
X11017500Y-12520000D02*
G75*
G03*
X11017500Y-12520000I-20000J0D01*
G01*
X11120000Y-12390000D02*
G75*
G03*
X11120000Y-12390000I-20000J0D01*
G01*
X11120000Y-12500000D02*
G75*
G03*
X11120000Y-12500000I-20000J0D01*
G01*
X11120000Y-12740000D02*
G75*
G03*
X11120000Y-12740000I-20000J0D01*
G01*
X11137500Y-11750000D02*
G75*
G03*
X11137500Y-11750000I-20000J0D01*
G01*
X11137500Y-11840000D02*
G75*
G03*
X11137500Y-11840000I-20000J0D01*
G01*
X11137500Y-11930000D02*
G75*
G03*
X11137500Y-11930000I-20000J0D01*
G01*
X11270000Y-12750000D02*
G75*
G03*
X11270000Y-12750000I-20000J0D01*
G01*
X11340000Y-12250000D02*
G75*
G03*
X11340000Y-12250000I-20000J0D01*
G01*
X11340000Y-12460000D02*
G75*
G03*
X11340000Y-12460000I-20000J0D01*
G01*
X11370000Y-13110000D02*
G75*
G03*
X11370000Y-13110000I-20000J0D01*
G01*
X11460000Y-12540000D02*
G75*
G03*
X11460000Y-12540000I-20000J0D01*
G01*
X11520000Y-11800000D02*
G75*
G03*
X11520000Y-11800000I-20000J0D01*
G01*
X11720000Y-11800000D02*
G75*
G03*
X11720000Y-11800000I-20000J0D01*
G01*
X11740000Y-12742450D02*
G75*
G03*
X11740000Y-12742450I-20000J0D01*
G01*
X11820000Y-11700000D02*
G75*
G03*
X11820000Y-11700000I-20000J0D01*
G01*
X11860000Y-12760000D02*
G75*
G03*
X11860000Y-12760000I-20000J0D01*
G01*
X11860000Y-13030000D02*
G75*
G03*
X11860000Y-13030000I-20000J0D01*
G01*
X11870000Y-10350000D02*
G75*
G03*
X11870000Y-10350000I-20000J0D01*
G01*
X11870000Y-10500000D02*
G75*
G03*
X11870000Y-10500000I-20000J0D01*
G01*
X11870000Y-10650000D02*
G75*
G03*
X11870000Y-10650000I-20000J0D01*
G01*
X11920000Y-10425000D02*
G75*
G03*
X11920000Y-10425000I-20000J0D01*
G01*
X11920000Y-10575000D02*
G75*
G03*
X11920000Y-10575000I-20000J0D01*
G01*
X11920000Y-11800000D02*
G75*
G03*
X11920000Y-11800000I-20000J0D01*
G01*
X11920000Y-12550000D02*
G75*
G03*
X11920000Y-12550000I-20000J0D01*
G01*
X11970000Y-10350000D02*
G75*
G03*
X11970000Y-10350000I-20000J0D01*
G01*
X11970000Y-10500000D02*
G75*
G03*
X11970000Y-10500000I-20000J0D01*
G01*
X11970000Y-10650000D02*
G75*
G03*
X11970000Y-10650000I-20000J0D01*
G01*
X12020000Y-10425000D02*
G75*
G03*
X12020000Y-10425000I-20000J0D01*
G01*
X12020000Y-10575000D02*
G75*
G03*
X12020000Y-10575000I-20000J0D01*
G01*
X12020000Y-11700000D02*
G75*
G03*
X12020000Y-11700000I-20000J0D01*
G01*
X12020000Y-12550000D02*
G75*
G03*
X12020000Y-12550000I-20000J0D01*
G01*
X12100000Y-12700000D02*
G75*
G03*
X12100000Y-12700000I-20000J0D01*
G01*
X12120000Y-11800000D02*
G75*
G03*
X12120000Y-11800000I-20000J0D01*
G01*
X12120000Y-12550000D02*
G75*
G03*
X12120000Y-12550000I-20000J0D01*
G01*
X12220000Y-12550000D02*
G75*
G03*
X12220000Y-12550000I-20000J0D01*
G01*
X12300000Y-11320000D02*
G75*
G03*
X12300000Y-11320000I-20000J0D01*
G01*
X12300000Y-11410000D02*
G75*
G03*
X12300000Y-11410000I-20000J0D01*
G01*
X12300000Y-11500000D02*
G75*
G03*
X12300000Y-11500000I-20000J0D01*
G01*
X12300000Y-11590000D02*
G75*
G03*
X12300000Y-11590000I-20000J0D01*
G01*
X12380000Y-11360000D02*
G75*
G03*
X12380000Y-11360000I-20000J0D01*
G01*
X12380000Y-11450000D02*
G75*
G03*
X12380000Y-11450000I-20000J0D01*
G01*
X12380000Y-11540000D02*
G75*
G03*
X12380000Y-11540000I-20000J0D01*
G01*
X12380000Y-11630000D02*
G75*
G03*
X12380000Y-11630000I-20000J0D01*
G01*
X13120000Y-10800000D02*
G75*
G03*
X13120000Y-10800000I-20000J0D01*
G01*
X13130000Y-12830000D02*
G75*
G03*
X13130000Y-12830000I-20000J0D01*
G01*
X13240000Y-11120000D02*
G75*
G03*
X13240000Y-11120000I-20000J0D01*
G01*
X13360000Y-11130000D02*
G75*
G03*
X13360000Y-11130000I-20000J0D01*
G01*
X14570000Y-12000000D02*
G75*
G03*
X14570000Y-12000000I-20000J0D01*
G01*
X14620000Y-11900000D02*
G75*
G03*
X14620000Y-11900000I-20000J0D01*
G01*
X14670000Y-12000000D02*
G75*
G03*
X14670000Y-12000000I-20000J0D01*
G01*
X14720000Y-11900000D02*
G75*
G03*
X14720000Y-11900000I-20000J0D01*
G01*
X14770000Y-12000000D02*
G75*
G03*
X14770000Y-12000000I-20000J0D01*
G01*
X14820000Y-11900000D02*
G75*
G03*
X14820000Y-11900000I-20000J0D01*
G01*
X14870000Y-12000000D02*
G75*
G03*
X14870000Y-12000000I-20000J0D01*
G01*
X14920000Y-11900000D02*
G75*
G03*
X14920000Y-11900000I-20000J0D01*
G01*
X14920000Y-12100000D02*
G75*
G03*
X14920000Y-12100000I-20000J0D01*
G01*
X14970000Y-12000000D02*
G75*
G03*
X14970000Y-12000000I-20000J0D01*
G01*
X14970000Y-12200000D02*
G75*
G03*
X14970000Y-12200000I-20000J0D01*
G01*
X15020000Y-11900000D02*
G75*
G03*
X15020000Y-11900000I-20000J0D01*
G01*
X15020000Y-12100000D02*
G75*
G03*
X15020000Y-12100000I-20000J0D01*
G01*
X15020000Y-12300000D02*
G75*
G03*
X15020000Y-12300000I-20000J0D01*
G01*
X15070000Y-12000000D02*
G75*
G03*
X15070000Y-12000000I-20000J0D01*
G01*
X15070000Y-12200000D02*
G75*
G03*
X15070000Y-12200000I-20000J0D01*
G01*
X15657000Y-11719000D02*
G75*
G03*
X15657000Y-11719000I-20000J0D01*
G01*
X16120000Y-10830000D02*
G75*
G03*
X16120000Y-10830000I-20000J0D01*
G01*
X16140000Y-12830000D02*
G75*
G03*
X16140000Y-12830000I-20000J0D01*
G01*
X16145000Y-11650000D02*
G75*
G03*
X16145000Y-11650000I-20000J0D01*
G01*
X16145000Y-11775000D02*
G75*
G03*
X16145000Y-11775000I-20000J0D01*
G01*
X16930000Y-11840000D02*
G75*
G03*
X16930000Y-11840000I-20000J0D01*
G01*
X16930000Y-11940000D02*
G75*
G03*
X16930000Y-11940000I-20000J0D01*
G01*
X16930000Y-12040000D02*
G75*
G03*
X16930000Y-12040000I-20000J0D01*
G01*
X17000000Y-11890000D02*
G75*
G03*
X17000000Y-11890000I-20000J0D01*
G01*
X17000000Y-11990000D02*
G75*
G03*
X17000000Y-11990000I-20000J0D01*
G01*
X17000000Y-12090000D02*
G75*
G03*
X17000000Y-12090000I-20000J0D01*
G01*
X17650000Y-12790000D02*
G75*
G03*
X17650000Y-12790000I-20000J0D01*
G01*
X17710000Y-12880000D02*
G75*
G03*
X17710000Y-12880000I-20000J0D01*
G01*
X17760000Y-12790000D02*
G75*
G03*
X17760000Y-12790000I-20000J0D01*
G01*
X17820000Y-12880000D02*
G75*
G03*
X17820000Y-12880000I-20000J0D01*
G01*
X17870000Y-12800000D02*
G75*
G03*
X17870000Y-12800000I-20000J0D01*
G01*
X17930000Y-12880000D02*
G75*
G03*
X17930000Y-12880000I-20000J0D01*
G01*
X17980000Y-12800000D02*
G75*
G03*
X17980000Y-12800000I-20000J0D01*
G01*
X18320000Y-11840000D02*
G75*
G03*
X18320000Y-11840000I-20000J0D01*
G01*
X18820000Y-11480000D02*
G75*
G03*
X18820000Y-11480000I-20000J0D01*
G01*
X18879950Y-11750000D02*
G75*
G03*
X18879950Y-11750000I-20000J0D01*
G01*
X19020000Y-10820000D02*
G75*
G03*
X19020000Y-10820000I-20000J0D01*
G01*
X19020000Y-12800000D02*
G75*
G03*
X19020000Y-12800000I-20000J0D01*
G01*
X19090000Y-11910000D02*
G75*
G03*
X19090000Y-11910000I-20000J0D01*
G01*
X19220000Y-11400000D02*
G75*
G03*
X19220000Y-11400000I-20000J0D01*
G01*
X19228000Y-11918000D02*
G75*
G03*
X19228000Y-11918000I-20000J0D01*
G01*
X19380000Y-11420000D02*
G75*
G03*
X19380000Y-11420000I-20000J0D01*
G01*
X19380000Y-11540000D02*
G75*
G03*
X19380000Y-11540000I-20000J0D01*
G01*
X19850000Y-11140000D02*
G75*
G03*
X19850000Y-11140000I-20000J0D01*
G01*
X19930000Y-12030000D02*
G75*
G03*
X19930000Y-12030000I-20000J0D01*
G01*
X19940000Y-10700000D02*
G75*
G03*
X19940000Y-10700000I-20000J0D01*
G01*
X20090000Y-10290000D02*
G75*
G03*
X20090000Y-10290000I-20000J0D01*
G01*
X20120000Y-11160000D02*
G75*
G03*
X20120000Y-11160000I-20000J0D01*
G01*
X20120000Y-11300000D02*
G75*
G03*
X20120000Y-11300000I-20000J0D01*
G01*
X20120000Y-11420000D02*
G75*
G03*
X20120000Y-11420000I-20000J0D01*
G01*
X20120000Y-11540000D02*
G75*
G03*
X20120000Y-11540000I-20000J0D01*
G01*
X20120000Y-11660000D02*
G75*
G03*
X20120000Y-11660000I-20000J0D01*
G01*
X20120000Y-11780000D02*
G75*
G03*
X20120000Y-11780000I-20000J0D01*
G01*
X20120000Y-11900000D02*
G75*
G03*
X20120000Y-11900000I-20000J0D01*
G01*
X20220000Y-10700000D02*
G75*
G03*
X20220000Y-10700000I-20000J0D01*
G01*
X20310000Y-12030000D02*
G75*
G03*
X20310000Y-12030000I-20000J0D01*
G01*
X20860000Y-10520000D02*
G75*
G03*
X20860000Y-10520000I-20000J0D01*
G01*
X20958309Y-11121349D02*
G75*
G03*
X20958309Y-11121349I-20000J0D01*
G01*
X21059950Y-11119957D02*
G75*
G03*
X21059950Y-11119957I-20000J0D01*
G01*
X21140000Y-11520000D02*
G75*
G03*
X21140000Y-11520000I-20000J0D01*
G01*
X21140000Y-11660000D02*
G75*
G03*
X21140000Y-11660000I-20000J0D01*
G01*
X21210000Y-10350000D02*
G75*
G03*
X21210000Y-10350000I-20000J0D01*
G01*
X21225000Y-11125000D02*
G75*
G03*
X21225000Y-11125000I-20000J0D01*
G01*
X21227500Y-12907500D02*
G75*
G03*
X21227500Y-12907500I-20000J0D01*
G01*
X21280000Y-11520000D02*
G75*
G03*
X21280000Y-11520000I-20000J0D01*
G01*
X21280000Y-11660000D02*
G75*
G03*
X21280000Y-11660000I-20000J0D01*
G01*
X21325000Y-11125000D02*
G75*
G03*
X21325000Y-11125000I-20000J0D01*
G01*
X21420000Y-10520000D02*
G75*
G03*
X21420000Y-10520000I-20000J0D01*
G01*
X21420000Y-10610000D02*
G75*
G03*
X21420000Y-10610000I-20000J0D01*
G01*
X21420000Y-10700000D02*
G75*
G03*
X21420000Y-10700000I-20000J0D01*
G01*
X21420000Y-10790000D02*
G75*
G03*
X21420000Y-10790000I-20000J0D01*
G01*
X21424950Y-11125000D02*
G75*
G03*
X21424950Y-11125000I-20000J0D01*
G01*
X21470000Y-10860000D02*
G75*
G03*
X21470000Y-10860000I-20000J0D01*
G01*
X21480000Y-11270000D02*
G75*
G03*
X21480000Y-11270000I-20000J0D01*
G01*
X21510000Y-11510000D02*
G75*
G03*
X21510000Y-11510000I-20000J0D01*
G01*
X21520000Y-10790000D02*
G75*
G03*
X21520000Y-10790000I-20000J0D01*
G01*
X21524760Y-11119691D02*
G75*
G03*
X21524760Y-11119691I-20000J0D01*
G01*
X21550000Y-12700000D02*
G75*
G03*
X21550000Y-12700000I-20000J0D01*
G01*
X21590000Y-12000000D02*
G75*
G03*
X21590000Y-12000000I-20000J0D01*
G01*
X21600000Y-11220000D02*
G75*
G03*
X21600000Y-11220000I-20000J0D01*
G01*
X21710000Y-11180000D02*
G75*
G03*
X21710000Y-11180000I-20000J0D01*
G01*
X21710000Y-12030000D02*
G75*
G03*
X21710000Y-12030000I-20000J0D01*
G01*
X21750000Y-10570000D02*
G75*
G03*
X21750000Y-10570000I-20000J0D01*
G01*
X21750000Y-10660000D02*
G75*
G03*
X21750000Y-10660000I-20000J0D01*
G01*
X21750000Y-10750000D02*
G75*
G03*
X21750000Y-10750000I-20000J0D01*
G01*
X21750000Y-10840000D02*
G75*
G03*
X21750000Y-10840000I-20000J0D01*
G01*
X21830000Y-10530000D02*
G75*
G03*
X21830000Y-10530000I-20000J0D01*
G01*
X21830000Y-10620000D02*
G75*
G03*
X21830000Y-10620000I-20000J0D01*
G01*
X21830000Y-10710000D02*
G75*
G03*
X21830000Y-10710000I-20000J0D01*
G01*
X21830000Y-10800000D02*
G75*
G03*
X21830000Y-10800000I-20000J0D01*
G01*
D14*
X9185000Y-11138000D02*
X9185000Y-11198000D01*
X9155000Y-11168000D02*
X9215000Y-11168000D01*
D11*
X9250000Y-11138000D02*
X9120000Y-11138000D01*
X9120000Y-11138000D02*
G75*
G03*
X9120000Y-11198000I0J-30000D01*
G01*
X9120000Y-11198000D02*
X9250000Y-11198000D01*
X9250000Y-11198000D02*
G75*
G03*
X9250000Y-11138000I0J30000D01*
G01*
D14*
X9185000Y-12002000D02*
X9185000Y-12062000D01*
X9155000Y-12032000D02*
X9215000Y-12032000D01*
D11*
X9250000Y-12002000D02*
X9120000Y-12002000D01*
X9120000Y-12002000D02*
G75*
G03*
X9120000Y-12062000I0J-30000D01*
G01*
X9120000Y-12062000D02*
X9250000Y-12062000D01*
X9250000Y-12062000D02*
G75*
G03*
X9250000Y-12002000I0J30000D01*
G01*
D14*
X9567500Y-11138000D02*
X9567500Y-11198000D01*
X9537500Y-11168000D02*
X9597500Y-11168000D01*
D11*
X9617500Y-11138000D02*
X9517500Y-11138000D01*
X9517500Y-11138000D02*
G75*
G03*
X9517500Y-11198000I0J-30000D01*
G01*
X9517500Y-11198000D02*
X9617500Y-11198000D01*
X9617500Y-11198000D02*
G75*
G03*
X9617500Y-11138000I0J30000D01*
G01*
D14*
X9567500Y-12002000D02*
X9567500Y-12062000D01*
X9537500Y-12032000D02*
X9597500Y-12032000D01*
D11*
X9617500Y-12002000D02*
X9517500Y-12002000D01*
X9517500Y-12002000D02*
G75*
G03*
X9517500Y-12062000I0J-30000D01*
G01*
X9517500Y-12062000D02*
X9617500Y-12062000D01*
X9617500Y-12062000D02*
G75*
G03*
X9617500Y-12002000I0J30000D01*
G01*
D10*
X16867356Y-11635356D02*
X16867356Y-11564644D01*
X16796644Y-11564644D01*
X16796644Y-11635356D01*
X16867356Y-11635356D01*
X17121356Y-11635356D02*
X17121356Y-11564644D01*
X17050644Y-11564644D01*
X17050644Y-11635356D01*
X17121356Y-11635356D01*
X17375356Y-11635356D02*
X17375356Y-11564644D01*
X17304644Y-11564644D01*
X17304644Y-11635356D01*
X17375356Y-11635356D01*
X17629356Y-11635356D02*
X17629356Y-11564644D01*
X17558644Y-11564644D01*
X17558644Y-11635356D01*
X17629356Y-11635356D01*
X17883356Y-11635356D02*
X17883356Y-11564644D01*
X17812644Y-11564644D01*
X17812644Y-11635356D01*
X17883356Y-11635356D01*
X18137356Y-11635356D02*
X18137356Y-11564644D01*
X18066644Y-11564644D01*
X18066644Y-11635356D01*
X18137356Y-11635356D01*
D11*
X9242619Y-13498476D02*
X9242619Y-13298476D01*
X9242619Y-13298476D02*
X9290238Y-13298476D01*
X9290238Y-13298476D02*
X9318810Y-13308000D01*
X9318810Y-13308000D02*
X9337857Y-13327048D01*
X9337857Y-13327048D02*
X9347381Y-13346095D01*
X9347381Y-13346095D02*
X9356905Y-13384190D01*
X9356905Y-13384190D02*
X9356905Y-13412762D01*
X9356905Y-13412762D02*
X9347381Y-13450857D01*
X9347381Y-13450857D02*
X9337857Y-13469905D01*
X9337857Y-13469905D02*
X9318810Y-13488952D01*
X9318810Y-13488952D02*
X9290238Y-13498476D01*
X9290238Y-13498476D02*
X9242619Y-13498476D01*
X9442619Y-13498476D02*
X9442619Y-13365143D01*
X9442619Y-13403238D02*
X9452143Y-13384190D01*
X9452143Y-13384190D02*
X9461667Y-13374667D01*
X9461667Y-13374667D02*
X9480714Y-13365143D01*
X9480714Y-13365143D02*
X9499762Y-13365143D01*
X9566429Y-13498476D02*
X9566429Y-13365143D01*
X9566429Y-13298476D02*
X9556905Y-13308000D01*
X9556905Y-13308000D02*
X9566429Y-13317524D01*
X9566429Y-13317524D02*
X9575952Y-13308000D01*
X9575952Y-13308000D02*
X9566429Y-13298476D01*
X9566429Y-13298476D02*
X9566429Y-13317524D01*
X9690238Y-13498476D02*
X9671190Y-13488952D01*
X9671190Y-13488952D02*
X9661667Y-13469905D01*
X9661667Y-13469905D02*
X9661667Y-13298476D01*
X9795000Y-13498476D02*
X9775952Y-13488952D01*
X9775952Y-13488952D02*
X9766429Y-13469905D01*
X9766429Y-13469905D02*
X9766429Y-13298476D01*
X9991190Y-13498476D02*
X9991190Y-13298476D01*
X9991190Y-13298476D02*
X10057857Y-13441333D01*
X10057857Y-13441333D02*
X10124524Y-13298476D01*
X10124524Y-13298476D02*
X10124524Y-13498476D01*
X10305476Y-13498476D02*
X10305476Y-13393714D01*
X10305476Y-13393714D02*
X10295952Y-13374667D01*
X10295952Y-13374667D02*
X10276905Y-13365143D01*
X10276905Y-13365143D02*
X10238809Y-13365143D01*
X10238809Y-13365143D02*
X10219762Y-13374667D01*
X10305476Y-13488952D02*
X10286429Y-13498476D01*
X10286429Y-13498476D02*
X10238809Y-13498476D01*
X10238809Y-13498476D02*
X10219762Y-13488952D01*
X10219762Y-13488952D02*
X10210238Y-13469905D01*
X10210238Y-13469905D02*
X10210238Y-13450857D01*
X10210238Y-13450857D02*
X10219762Y-13431809D01*
X10219762Y-13431809D02*
X10238809Y-13422286D01*
X10238809Y-13422286D02*
X10286429Y-13422286D01*
X10286429Y-13422286D02*
X10305476Y-13412762D01*
X10400714Y-13365143D02*
X10400714Y-13565143D01*
X10400714Y-13374667D02*
X10419762Y-13365143D01*
X10419762Y-13365143D02*
X10457857Y-13365143D01*
X10457857Y-13365143D02*
X10476905Y-13374667D01*
X10476905Y-13374667D02*
X10486429Y-13384190D01*
X10486429Y-13384190D02*
X10495952Y-13403238D01*
X10495952Y-13403238D02*
X10495952Y-13460381D01*
X10495952Y-13460381D02*
X10486429Y-13479428D01*
X10486429Y-13479428D02*
X10476905Y-13488952D01*
X10476905Y-13488952D02*
X10457857Y-13498476D01*
X10457857Y-13498476D02*
X10419762Y-13498476D01*
X10419762Y-13498476D02*
X10400714Y-13488952D01*
X10581667Y-13479428D02*
X10591190Y-13488952D01*
X10591190Y-13488952D02*
X10581667Y-13498476D01*
X10581667Y-13498476D02*
X10572143Y-13488952D01*
X10572143Y-13488952D02*
X10581667Y-13479428D01*
X10581667Y-13479428D02*
X10581667Y-13498476D01*
X10581667Y-13374667D02*
X10591190Y-13384190D01*
X10591190Y-13384190D02*
X10581667Y-13393714D01*
X10581667Y-13393714D02*
X10572143Y-13384190D01*
X10572143Y-13384190D02*
X10581667Y-13374667D01*
X10581667Y-13374667D02*
X10581667Y-13393714D01*
D12*
X8975000Y-13835000D02*
X8995000Y-13855000D01*
X8995000Y-13835000D02*
X8975000Y-13855000D01*
D11*
X9280714Y-13718476D02*
X9299762Y-13718476D01*
X9299762Y-13718476D02*
X9318810Y-13728000D01*
X9318810Y-13728000D02*
X9328333Y-13737524D01*
X9328333Y-13737524D02*
X9337857Y-13756571D01*
X9337857Y-13756571D02*
X9347381Y-13794667D01*
X9347381Y-13794667D02*
X9347381Y-13842286D01*
X9347381Y-13842286D02*
X9337857Y-13880381D01*
X9337857Y-13880381D02*
X9328333Y-13899428D01*
X9328333Y-13899428D02*
X9318810Y-13908952D01*
X9318810Y-13908952D02*
X9299762Y-13918476D01*
X9299762Y-13918476D02*
X9280714Y-13918476D01*
X9280714Y-13918476D02*
X9261667Y-13908952D01*
X9261667Y-13908952D02*
X9252143Y-13899428D01*
X9252143Y-13899428D02*
X9242619Y-13880381D01*
X9242619Y-13880381D02*
X9233095Y-13842286D01*
X9233095Y-13842286D02*
X9233095Y-13794667D01*
X9233095Y-13794667D02*
X9242619Y-13756571D01*
X9242619Y-13756571D02*
X9252143Y-13737524D01*
X9252143Y-13737524D02*
X9261667Y-13728000D01*
X9261667Y-13728000D02*
X9280714Y-13718476D01*
X9433095Y-13899428D02*
X9442619Y-13908952D01*
X9442619Y-13908952D02*
X9433095Y-13918476D01*
X9433095Y-13918476D02*
X9423571Y-13908952D01*
X9423571Y-13908952D02*
X9433095Y-13899428D01*
X9433095Y-13899428D02*
X9433095Y-13918476D01*
X9518810Y-13737524D02*
X9528333Y-13728000D01*
X9528333Y-13728000D02*
X9547381Y-13718476D01*
X9547381Y-13718476D02*
X9595000Y-13718476D01*
X9595000Y-13718476D02*
X9614048Y-13728000D01*
X9614048Y-13728000D02*
X9623571Y-13737524D01*
X9623571Y-13737524D02*
X9633095Y-13756571D01*
X9633095Y-13756571D02*
X9633095Y-13775619D01*
X9633095Y-13775619D02*
X9623571Y-13804190D01*
X9623571Y-13804190D02*
X9509286Y-13918476D01*
X9509286Y-13918476D02*
X9633095Y-13918476D01*
X9756905Y-13718476D02*
X9775952Y-13718476D01*
X9775952Y-13718476D02*
X9795000Y-13728000D01*
X9795000Y-13728000D02*
X9804524Y-13737524D01*
X9804524Y-13737524D02*
X9814048Y-13756571D01*
X9814048Y-13756571D02*
X9823571Y-13794667D01*
X9823571Y-13794667D02*
X9823571Y-13842286D01*
X9823571Y-13842286D02*
X9814048Y-13880381D01*
X9814048Y-13880381D02*
X9804524Y-13899428D01*
X9804524Y-13899428D02*
X9795000Y-13908952D01*
X9795000Y-13908952D02*
X9775952Y-13918476D01*
X9775952Y-13918476D02*
X9756905Y-13918476D01*
X9756905Y-13918476D02*
X9737857Y-13908952D01*
X9737857Y-13908952D02*
X9728333Y-13899428D01*
X9728333Y-13899428D02*
X9718810Y-13880381D01*
X9718810Y-13880381D02*
X9709286Y-13842286D01*
X9709286Y-13842286D02*
X9709286Y-13794667D01*
X9709286Y-13794667D02*
X9718810Y-13756571D01*
X9718810Y-13756571D02*
X9728333Y-13737524D01*
X9728333Y-13737524D02*
X9737857Y-13728000D01*
X9737857Y-13728000D02*
X9756905Y-13718476D01*
X9947381Y-13718476D02*
X9966429Y-13718476D01*
X9966429Y-13718476D02*
X9985476Y-13728000D01*
X9985476Y-13728000D02*
X9995000Y-13737524D01*
X9995000Y-13737524D02*
X10004524Y-13756571D01*
X10004524Y-13756571D02*
X10014048Y-13794667D01*
X10014048Y-13794667D02*
X10014048Y-13842286D01*
X10014048Y-13842286D02*
X10004524Y-13880381D01*
X10004524Y-13880381D02*
X9995000Y-13899428D01*
X9995000Y-13899428D02*
X9985476Y-13908952D01*
X9985476Y-13908952D02*
X9966429Y-13918476D01*
X9966429Y-13918476D02*
X9947381Y-13918476D01*
X9947381Y-13918476D02*
X9928333Y-13908952D01*
X9928333Y-13908952D02*
X9918810Y-13899428D01*
X9918810Y-13899428D02*
X9909286Y-13880381D01*
X9909286Y-13880381D02*
X9899762Y-13842286D01*
X9899762Y-13842286D02*
X9899762Y-13794667D01*
X9899762Y-13794667D02*
X9909286Y-13756571D01*
X9909286Y-13756571D02*
X9918810Y-13737524D01*
X9918810Y-13737524D02*
X9928333Y-13728000D01*
X9928333Y-13728000D02*
X9947381Y-13718476D01*
X10099762Y-13918476D02*
X10099762Y-13785143D01*
X10099762Y-13804190D02*
X10109286Y-13794667D01*
X10109286Y-13794667D02*
X10128333Y-13785143D01*
X10128333Y-13785143D02*
X10156905Y-13785143D01*
X10156905Y-13785143D02*
X10175952Y-13794667D01*
X10175952Y-13794667D02*
X10185476Y-13813714D01*
X10185476Y-13813714D02*
X10185476Y-13918476D01*
X10185476Y-13813714D02*
X10195000Y-13794667D01*
X10195000Y-13794667D02*
X10214048Y-13785143D01*
X10214048Y-13785143D02*
X10242619Y-13785143D01*
X10242619Y-13785143D02*
X10261667Y-13794667D01*
X10261667Y-13794667D02*
X10271191Y-13813714D01*
X10271191Y-13813714D02*
X10271191Y-13918476D01*
X10366429Y-13918476D02*
X10366429Y-13785143D01*
X10366429Y-13804190D02*
X10375952Y-13794667D01*
X10375952Y-13794667D02*
X10395000Y-13785143D01*
X10395000Y-13785143D02*
X10423572Y-13785143D01*
X10423572Y-13785143D02*
X10442619Y-13794667D01*
X10442619Y-13794667D02*
X10452143Y-13813714D01*
X10452143Y-13813714D02*
X10452143Y-13918476D01*
X10452143Y-13813714D02*
X10461667Y-13794667D01*
X10461667Y-13794667D02*
X10480714Y-13785143D01*
X10480714Y-13785143D02*
X10509286Y-13785143D01*
X10509286Y-13785143D02*
X10528333Y-13794667D01*
X10528333Y-13794667D02*
X10537857Y-13813714D01*
X10537857Y-13813714D02*
X10537857Y-13918476D01*
X10895952Y-13708952D02*
X10724524Y-13966095D01*
X11120714Y-13718476D02*
X11139762Y-13718476D01*
X11139762Y-13718476D02*
X11158810Y-13728000D01*
X11158810Y-13728000D02*
X11168333Y-13737524D01*
X11168333Y-13737524D02*
X11177857Y-13756571D01*
X11177857Y-13756571D02*
X11187381Y-13794667D01*
X11187381Y-13794667D02*
X11187381Y-13842286D01*
X11187381Y-13842286D02*
X11177857Y-13880381D01*
X11177857Y-13880381D02*
X11168333Y-13899428D01*
X11168333Y-13899428D02*
X11158810Y-13908952D01*
X11158810Y-13908952D02*
X11139762Y-13918476D01*
X11139762Y-13918476D02*
X11120714Y-13918476D01*
X11120714Y-13918476D02*
X11101667Y-13908952D01*
X11101667Y-13908952D02*
X11092143Y-13899428D01*
X11092143Y-13899428D02*
X11082619Y-13880381D01*
X11082619Y-13880381D02*
X11073095Y-13842286D01*
X11073095Y-13842286D02*
X11073095Y-13794667D01*
X11073095Y-13794667D02*
X11082619Y-13756571D01*
X11082619Y-13756571D02*
X11092143Y-13737524D01*
X11092143Y-13737524D02*
X11101667Y-13728000D01*
X11101667Y-13728000D02*
X11120714Y-13718476D01*
X11273095Y-13899428D02*
X11282619Y-13908952D01*
X11282619Y-13908952D02*
X11273095Y-13918476D01*
X11273095Y-13918476D02*
X11263571Y-13908952D01*
X11263571Y-13908952D02*
X11273095Y-13899428D01*
X11273095Y-13899428D02*
X11273095Y-13918476D01*
X11406429Y-13718476D02*
X11425476Y-13718476D01*
X11425476Y-13718476D02*
X11444524Y-13728000D01*
X11444524Y-13728000D02*
X11454048Y-13737524D01*
X11454048Y-13737524D02*
X11463571Y-13756571D01*
X11463571Y-13756571D02*
X11473095Y-13794667D01*
X11473095Y-13794667D02*
X11473095Y-13842286D01*
X11473095Y-13842286D02*
X11463571Y-13880381D01*
X11463571Y-13880381D02*
X11454048Y-13899428D01*
X11454048Y-13899428D02*
X11444524Y-13908952D01*
X11444524Y-13908952D02*
X11425476Y-13918476D01*
X11425476Y-13918476D02*
X11406429Y-13918476D01*
X11406429Y-13918476D02*
X11387381Y-13908952D01*
X11387381Y-13908952D02*
X11377857Y-13899428D01*
X11377857Y-13899428D02*
X11368333Y-13880381D01*
X11368333Y-13880381D02*
X11358810Y-13842286D01*
X11358810Y-13842286D02*
X11358810Y-13794667D01*
X11358810Y-13794667D02*
X11368333Y-13756571D01*
X11368333Y-13756571D02*
X11377857Y-13737524D01*
X11377857Y-13737524D02*
X11387381Y-13728000D01*
X11387381Y-13728000D02*
X11406429Y-13718476D01*
X11596905Y-13718476D02*
X11615952Y-13718476D01*
X11615952Y-13718476D02*
X11635000Y-13728000D01*
X11635000Y-13728000D02*
X11644524Y-13737524D01*
X11644524Y-13737524D02*
X11654048Y-13756571D01*
X11654048Y-13756571D02*
X11663571Y-13794667D01*
X11663571Y-13794667D02*
X11663571Y-13842286D01*
X11663571Y-13842286D02*
X11654048Y-13880381D01*
X11654048Y-13880381D02*
X11644524Y-13899428D01*
X11644524Y-13899428D02*
X11635000Y-13908952D01*
X11635000Y-13908952D02*
X11615952Y-13918476D01*
X11615952Y-13918476D02*
X11596905Y-13918476D01*
X11596905Y-13918476D02*
X11577857Y-13908952D01*
X11577857Y-13908952D02*
X11568333Y-13899428D01*
X11568333Y-13899428D02*
X11558810Y-13880381D01*
X11558810Y-13880381D02*
X11549286Y-13842286D01*
X11549286Y-13842286D02*
X11549286Y-13794667D01*
X11549286Y-13794667D02*
X11558810Y-13756571D01*
X11558810Y-13756571D02*
X11568333Y-13737524D01*
X11568333Y-13737524D02*
X11577857Y-13728000D01*
X11577857Y-13728000D02*
X11596905Y-13718476D01*
X11730238Y-13718476D02*
X11863571Y-13718476D01*
X11863571Y-13718476D02*
X11777857Y-13918476D01*
X11949286Y-13918476D02*
X11987381Y-13918476D01*
X11987381Y-13918476D02*
X12006429Y-13908952D01*
X12006429Y-13908952D02*
X12015952Y-13899428D01*
X12015952Y-13899428D02*
X12035000Y-13870857D01*
X12035000Y-13870857D02*
X12044524Y-13832762D01*
X12044524Y-13832762D02*
X12044524Y-13756571D01*
X12044524Y-13756571D02*
X12035000Y-13737524D01*
X12035000Y-13737524D02*
X12025476Y-13728000D01*
X12025476Y-13728000D02*
X12006429Y-13718476D01*
X12006429Y-13718476D02*
X11968333Y-13718476D01*
X11968333Y-13718476D02*
X11949286Y-13728000D01*
X11949286Y-13728000D02*
X11939762Y-13737524D01*
X11939762Y-13737524D02*
X11930238Y-13756571D01*
X11930238Y-13756571D02*
X11930238Y-13804190D01*
X11930238Y-13804190D02*
X11939762Y-13823238D01*
X11939762Y-13823238D02*
X11949286Y-13832762D01*
X11949286Y-13832762D02*
X11968333Y-13842286D01*
X11968333Y-13842286D02*
X12006429Y-13842286D01*
X12006429Y-13842286D02*
X12025476Y-13832762D01*
X12025476Y-13832762D02*
X12035000Y-13823238D01*
X12035000Y-13823238D02*
X12044524Y-13804190D01*
X12120714Y-13718476D02*
X12120714Y-13756571D01*
X12196905Y-13718476D02*
X12196905Y-13756571D01*
X12459762Y-13994667D02*
X12450238Y-13985143D01*
X12450238Y-13985143D02*
X12431191Y-13956571D01*
X12431191Y-13956571D02*
X12421667Y-13937524D01*
X12421667Y-13937524D02*
X12412143Y-13908952D01*
X12412143Y-13908952D02*
X12402619Y-13861333D01*
X12402619Y-13861333D02*
X12402619Y-13823238D01*
X12402619Y-13823238D02*
X12412143Y-13775619D01*
X12412143Y-13775619D02*
X12421667Y-13747048D01*
X12421667Y-13747048D02*
X12431191Y-13728000D01*
X12431191Y-13728000D02*
X12450238Y-13699428D01*
X12450238Y-13699428D02*
X12459762Y-13689905D01*
X12621667Y-13718476D02*
X12583571Y-13718476D01*
X12583571Y-13718476D02*
X12564524Y-13728000D01*
X12564524Y-13728000D02*
X12555000Y-13737524D01*
X12555000Y-13737524D02*
X12535952Y-13766095D01*
X12535952Y-13766095D02*
X12526429Y-13804190D01*
X12526429Y-13804190D02*
X12526429Y-13880381D01*
X12526429Y-13880381D02*
X12535952Y-13899428D01*
X12535952Y-13899428D02*
X12545476Y-13908952D01*
X12545476Y-13908952D02*
X12564524Y-13918476D01*
X12564524Y-13918476D02*
X12602619Y-13918476D01*
X12602619Y-13918476D02*
X12621667Y-13908952D01*
X12621667Y-13908952D02*
X12631191Y-13899428D01*
X12631191Y-13899428D02*
X12640714Y-13880381D01*
X12640714Y-13880381D02*
X12640714Y-13832762D01*
X12640714Y-13832762D02*
X12631191Y-13813714D01*
X12631191Y-13813714D02*
X12621667Y-13804190D01*
X12621667Y-13804190D02*
X12602619Y-13794667D01*
X12602619Y-13794667D02*
X12564524Y-13794667D01*
X12564524Y-13794667D02*
X12545476Y-13804190D01*
X12545476Y-13804190D02*
X12535952Y-13813714D01*
X12535952Y-13813714D02*
X12526429Y-13832762D01*
X12846429Y-13918476D02*
X12846429Y-13718476D01*
X12932143Y-13918476D02*
X12932143Y-13813714D01*
X12932143Y-13813714D02*
X12922619Y-13794667D01*
X12922619Y-13794667D02*
X12903572Y-13785143D01*
X12903572Y-13785143D02*
X12875000Y-13785143D01*
X12875000Y-13785143D02*
X12855952Y-13794667D01*
X12855952Y-13794667D02*
X12846429Y-13804190D01*
X13055952Y-13918476D02*
X13036905Y-13908952D01*
X13036905Y-13908952D02*
X13027381Y-13899428D01*
X13027381Y-13899428D02*
X13017857Y-13880381D01*
X13017857Y-13880381D02*
X13017857Y-13823238D01*
X13017857Y-13823238D02*
X13027381Y-13804190D01*
X13027381Y-13804190D02*
X13036905Y-13794667D01*
X13036905Y-13794667D02*
X13055952Y-13785143D01*
X13055952Y-13785143D02*
X13084524Y-13785143D01*
X13084524Y-13785143D02*
X13103572Y-13794667D01*
X13103572Y-13794667D02*
X13113095Y-13804190D01*
X13113095Y-13804190D02*
X13122619Y-13823238D01*
X13122619Y-13823238D02*
X13122619Y-13880381D01*
X13122619Y-13880381D02*
X13113095Y-13899428D01*
X13113095Y-13899428D02*
X13103572Y-13908952D01*
X13103572Y-13908952D02*
X13084524Y-13918476D01*
X13084524Y-13918476D02*
X13055952Y-13918476D01*
X13236905Y-13918476D02*
X13217857Y-13908952D01*
X13217857Y-13908952D02*
X13208333Y-13889905D01*
X13208333Y-13889905D02*
X13208333Y-13718476D01*
X13389286Y-13908952D02*
X13370238Y-13918476D01*
X13370238Y-13918476D02*
X13332143Y-13918476D01*
X13332143Y-13918476D02*
X13313095Y-13908952D01*
X13313095Y-13908952D02*
X13303572Y-13889905D01*
X13303572Y-13889905D02*
X13303572Y-13813714D01*
X13303572Y-13813714D02*
X13313095Y-13794667D01*
X13313095Y-13794667D02*
X13332143Y-13785143D01*
X13332143Y-13785143D02*
X13370238Y-13785143D01*
X13370238Y-13785143D02*
X13389286Y-13794667D01*
X13389286Y-13794667D02*
X13398810Y-13813714D01*
X13398810Y-13813714D02*
X13398810Y-13832762D01*
X13398810Y-13832762D02*
X13303572Y-13851809D01*
X13475000Y-13908952D02*
X13494048Y-13918476D01*
X13494048Y-13918476D02*
X13532143Y-13918476D01*
X13532143Y-13918476D02*
X13551191Y-13908952D01*
X13551191Y-13908952D02*
X13560714Y-13889905D01*
X13560714Y-13889905D02*
X13560714Y-13880381D01*
X13560714Y-13880381D02*
X13551191Y-13861333D01*
X13551191Y-13861333D02*
X13532143Y-13851809D01*
X13532143Y-13851809D02*
X13503572Y-13851809D01*
X13503572Y-13851809D02*
X13484524Y-13842286D01*
X13484524Y-13842286D02*
X13475000Y-13823238D01*
X13475000Y-13823238D02*
X13475000Y-13813714D01*
X13475000Y-13813714D02*
X13484524Y-13794667D01*
X13484524Y-13794667D02*
X13503572Y-13785143D01*
X13503572Y-13785143D02*
X13532143Y-13785143D01*
X13532143Y-13785143D02*
X13551191Y-13794667D01*
X13627381Y-13994667D02*
X13636905Y-13985143D01*
X13636905Y-13985143D02*
X13655953Y-13956571D01*
X13655953Y-13956571D02*
X13665476Y-13937524D01*
X13665476Y-13937524D02*
X13675000Y-13908952D01*
X13675000Y-13908952D02*
X13684524Y-13861333D01*
X13684524Y-13861333D02*
X13684524Y-13823238D01*
X13684524Y-13823238D02*
X13675000Y-13775619D01*
X13675000Y-13775619D02*
X13665476Y-13747048D01*
X13665476Y-13747048D02*
X13655953Y-13728000D01*
X13655953Y-13728000D02*
X13636905Y-13699428D01*
X13636905Y-13699428D02*
X13627381Y-13689905D01*
D13*
X8995000Y-14109000D02*
G75*
G03*
X8995000Y-14109000I-20000J0D01*
G01*
D11*
X9280714Y-13982476D02*
X9299762Y-13982476D01*
X9299762Y-13982476D02*
X9318810Y-13992000D01*
X9318810Y-13992000D02*
X9328333Y-14001524D01*
X9328333Y-14001524D02*
X9337857Y-14020571D01*
X9337857Y-14020571D02*
X9347381Y-14058667D01*
X9347381Y-14058667D02*
X9347381Y-14106286D01*
X9347381Y-14106286D02*
X9337857Y-14144381D01*
X9337857Y-14144381D02*
X9328333Y-14163428D01*
X9328333Y-14163428D02*
X9318810Y-14172952D01*
X9318810Y-14172952D02*
X9299762Y-14182476D01*
X9299762Y-14182476D02*
X9280714Y-14182476D01*
X9280714Y-14182476D02*
X9261667Y-14172952D01*
X9261667Y-14172952D02*
X9252143Y-14163428D01*
X9252143Y-14163428D02*
X9242619Y-14144381D01*
X9242619Y-14144381D02*
X9233095Y-14106286D01*
X9233095Y-14106286D02*
X9233095Y-14058667D01*
X9233095Y-14058667D02*
X9242619Y-14020571D01*
X9242619Y-14020571D02*
X9252143Y-14001524D01*
X9252143Y-14001524D02*
X9261667Y-13992000D01*
X9261667Y-13992000D02*
X9280714Y-13982476D01*
X9433095Y-14163428D02*
X9442619Y-14172952D01*
X9442619Y-14172952D02*
X9433095Y-14182476D01*
X9433095Y-14182476D02*
X9423571Y-14172952D01*
X9423571Y-14172952D02*
X9433095Y-14163428D01*
X9433095Y-14163428D02*
X9433095Y-14182476D01*
X9614048Y-14049143D02*
X9614048Y-14182476D01*
X9566429Y-13972952D02*
X9518810Y-14115809D01*
X9518810Y-14115809D02*
X9642619Y-14115809D01*
X9756905Y-13982476D02*
X9775952Y-13982476D01*
X9775952Y-13982476D02*
X9795000Y-13992000D01*
X9795000Y-13992000D02*
X9804524Y-14001524D01*
X9804524Y-14001524D02*
X9814048Y-14020571D01*
X9814048Y-14020571D02*
X9823571Y-14058667D01*
X9823571Y-14058667D02*
X9823571Y-14106286D01*
X9823571Y-14106286D02*
X9814048Y-14144381D01*
X9814048Y-14144381D02*
X9804524Y-14163428D01*
X9804524Y-14163428D02*
X9795000Y-14172952D01*
X9795000Y-14172952D02*
X9775952Y-14182476D01*
X9775952Y-14182476D02*
X9756905Y-14182476D01*
X9756905Y-14182476D02*
X9737857Y-14172952D01*
X9737857Y-14172952D02*
X9728333Y-14163428D01*
X9728333Y-14163428D02*
X9718810Y-14144381D01*
X9718810Y-14144381D02*
X9709286Y-14106286D01*
X9709286Y-14106286D02*
X9709286Y-14058667D01*
X9709286Y-14058667D02*
X9718810Y-14020571D01*
X9718810Y-14020571D02*
X9728333Y-14001524D01*
X9728333Y-14001524D02*
X9737857Y-13992000D01*
X9737857Y-13992000D02*
X9756905Y-13982476D01*
X9947381Y-13982476D02*
X9966429Y-13982476D01*
X9966429Y-13982476D02*
X9985476Y-13992000D01*
X9985476Y-13992000D02*
X9995000Y-14001524D01*
X9995000Y-14001524D02*
X10004524Y-14020571D01*
X10004524Y-14020571D02*
X10014048Y-14058667D01*
X10014048Y-14058667D02*
X10014048Y-14106286D01*
X10014048Y-14106286D02*
X10004524Y-14144381D01*
X10004524Y-14144381D02*
X9995000Y-14163428D01*
X9995000Y-14163428D02*
X9985476Y-14172952D01*
X9985476Y-14172952D02*
X9966429Y-14182476D01*
X9966429Y-14182476D02*
X9947381Y-14182476D01*
X9947381Y-14182476D02*
X9928333Y-14172952D01*
X9928333Y-14172952D02*
X9918810Y-14163428D01*
X9918810Y-14163428D02*
X9909286Y-14144381D01*
X9909286Y-14144381D02*
X9899762Y-14106286D01*
X9899762Y-14106286D02*
X9899762Y-14058667D01*
X9899762Y-14058667D02*
X9909286Y-14020571D01*
X9909286Y-14020571D02*
X9918810Y-14001524D01*
X9918810Y-14001524D02*
X9928333Y-13992000D01*
X9928333Y-13992000D02*
X9947381Y-13982476D01*
X10099762Y-14182476D02*
X10099762Y-14049143D01*
X10099762Y-14068190D02*
X10109286Y-14058667D01*
X10109286Y-14058667D02*
X10128333Y-14049143D01*
X10128333Y-14049143D02*
X10156905Y-14049143D01*
X10156905Y-14049143D02*
X10175952Y-14058667D01*
X10175952Y-14058667D02*
X10185476Y-14077714D01*
X10185476Y-14077714D02*
X10185476Y-14182476D01*
X10185476Y-14077714D02*
X10195000Y-14058667D01*
X10195000Y-14058667D02*
X10214048Y-14049143D01*
X10214048Y-14049143D02*
X10242619Y-14049143D01*
X10242619Y-14049143D02*
X10261667Y-14058667D01*
X10261667Y-14058667D02*
X10271191Y-14077714D01*
X10271191Y-14077714D02*
X10271191Y-14182476D01*
X10366429Y-14182476D02*
X10366429Y-14049143D01*
X10366429Y-14068190D02*
X10375952Y-14058667D01*
X10375952Y-14058667D02*
X10395000Y-14049143D01*
X10395000Y-14049143D02*
X10423572Y-14049143D01*
X10423572Y-14049143D02*
X10442619Y-14058667D01*
X10442619Y-14058667D02*
X10452143Y-14077714D01*
X10452143Y-14077714D02*
X10452143Y-14182476D01*
X10452143Y-14077714D02*
X10461667Y-14058667D01*
X10461667Y-14058667D02*
X10480714Y-14049143D01*
X10480714Y-14049143D02*
X10509286Y-14049143D01*
X10509286Y-14049143D02*
X10528333Y-14058667D01*
X10528333Y-14058667D02*
X10537857Y-14077714D01*
X10537857Y-14077714D02*
X10537857Y-14182476D01*
X10895952Y-13972952D02*
X10724524Y-14230095D01*
X11120714Y-13982476D02*
X11139762Y-13982476D01*
X11139762Y-13982476D02*
X11158810Y-13992000D01*
X11158810Y-13992000D02*
X11168333Y-14001524D01*
X11168333Y-14001524D02*
X11177857Y-14020571D01*
X11177857Y-14020571D02*
X11187381Y-14058667D01*
X11187381Y-14058667D02*
X11187381Y-14106286D01*
X11187381Y-14106286D02*
X11177857Y-14144381D01*
X11177857Y-14144381D02*
X11168333Y-14163428D01*
X11168333Y-14163428D02*
X11158810Y-14172952D01*
X11158810Y-14172952D02*
X11139762Y-14182476D01*
X11139762Y-14182476D02*
X11120714Y-14182476D01*
X11120714Y-14182476D02*
X11101667Y-14172952D01*
X11101667Y-14172952D02*
X11092143Y-14163428D01*
X11092143Y-14163428D02*
X11082619Y-14144381D01*
X11082619Y-14144381D02*
X11073095Y-14106286D01*
X11073095Y-14106286D02*
X11073095Y-14058667D01*
X11073095Y-14058667D02*
X11082619Y-14020571D01*
X11082619Y-14020571D02*
X11092143Y-14001524D01*
X11092143Y-14001524D02*
X11101667Y-13992000D01*
X11101667Y-13992000D02*
X11120714Y-13982476D01*
X11273095Y-14163428D02*
X11282619Y-14172952D01*
X11282619Y-14172952D02*
X11273095Y-14182476D01*
X11273095Y-14182476D02*
X11263571Y-14172952D01*
X11263571Y-14172952D02*
X11273095Y-14163428D01*
X11273095Y-14163428D02*
X11273095Y-14182476D01*
X11406429Y-13982476D02*
X11425476Y-13982476D01*
X11425476Y-13982476D02*
X11444524Y-13992000D01*
X11444524Y-13992000D02*
X11454048Y-14001524D01*
X11454048Y-14001524D02*
X11463571Y-14020571D01*
X11463571Y-14020571D02*
X11473095Y-14058667D01*
X11473095Y-14058667D02*
X11473095Y-14106286D01*
X11473095Y-14106286D02*
X11463571Y-14144381D01*
X11463571Y-14144381D02*
X11454048Y-14163428D01*
X11454048Y-14163428D02*
X11444524Y-14172952D01*
X11444524Y-14172952D02*
X11425476Y-14182476D01*
X11425476Y-14182476D02*
X11406429Y-14182476D01*
X11406429Y-14182476D02*
X11387381Y-14172952D01*
X11387381Y-14172952D02*
X11377857Y-14163428D01*
X11377857Y-14163428D02*
X11368333Y-14144381D01*
X11368333Y-14144381D02*
X11358810Y-14106286D01*
X11358810Y-14106286D02*
X11358810Y-14058667D01*
X11358810Y-14058667D02*
X11368333Y-14020571D01*
X11368333Y-14020571D02*
X11377857Y-14001524D01*
X11377857Y-14001524D02*
X11387381Y-13992000D01*
X11387381Y-13992000D02*
X11406429Y-13982476D01*
X11663571Y-14182476D02*
X11549286Y-14182476D01*
X11606429Y-14182476D02*
X11606429Y-13982476D01*
X11606429Y-13982476D02*
X11587381Y-14011048D01*
X11587381Y-14011048D02*
X11568333Y-14030095D01*
X11568333Y-14030095D02*
X11549286Y-14039619D01*
X11844524Y-13982476D02*
X11749286Y-13982476D01*
X11749286Y-13982476D02*
X11739762Y-14077714D01*
X11739762Y-14077714D02*
X11749286Y-14068190D01*
X11749286Y-14068190D02*
X11768333Y-14058667D01*
X11768333Y-14058667D02*
X11815952Y-14058667D01*
X11815952Y-14058667D02*
X11835000Y-14068190D01*
X11835000Y-14068190D02*
X11844524Y-14077714D01*
X11844524Y-14077714D02*
X11854048Y-14096762D01*
X11854048Y-14096762D02*
X11854048Y-14144381D01*
X11854048Y-14144381D02*
X11844524Y-14163428D01*
X11844524Y-14163428D02*
X11835000Y-14172952D01*
X11835000Y-14172952D02*
X11815952Y-14182476D01*
X11815952Y-14182476D02*
X11768333Y-14182476D01*
X11768333Y-14182476D02*
X11749286Y-14172952D01*
X11749286Y-14172952D02*
X11739762Y-14163428D01*
X11920714Y-13982476D02*
X12054048Y-13982476D01*
X12054048Y-13982476D02*
X11968333Y-14182476D01*
X12120714Y-13982476D02*
X12120714Y-14020571D01*
X12196905Y-13982476D02*
X12196905Y-14020571D01*
X12459762Y-14258667D02*
X12450238Y-14249143D01*
X12450238Y-14249143D02*
X12431191Y-14220571D01*
X12431191Y-14220571D02*
X12421667Y-14201524D01*
X12421667Y-14201524D02*
X12412143Y-14172952D01*
X12412143Y-14172952D02*
X12402619Y-14125333D01*
X12402619Y-14125333D02*
X12402619Y-14087238D01*
X12402619Y-14087238D02*
X12412143Y-14039619D01*
X12412143Y-14039619D02*
X12421667Y-14011048D01*
X12421667Y-14011048D02*
X12431191Y-13992000D01*
X12431191Y-13992000D02*
X12450238Y-13963428D01*
X12450238Y-13963428D02*
X12459762Y-13953905D01*
X12640714Y-14182476D02*
X12526429Y-14182476D01*
X12583571Y-14182476D02*
X12583571Y-13982476D01*
X12583571Y-13982476D02*
X12564524Y-14011048D01*
X12564524Y-14011048D02*
X12545476Y-14030095D01*
X12545476Y-14030095D02*
X12526429Y-14039619D01*
X12812143Y-13982476D02*
X12774048Y-13982476D01*
X12774048Y-13982476D02*
X12755000Y-13992000D01*
X12755000Y-13992000D02*
X12745476Y-14001524D01*
X12745476Y-14001524D02*
X12726429Y-14030095D01*
X12726429Y-14030095D02*
X12716905Y-14068190D01*
X12716905Y-14068190D02*
X12716905Y-14144381D01*
X12716905Y-14144381D02*
X12726429Y-14163428D01*
X12726429Y-14163428D02*
X12735952Y-14172952D01*
X12735952Y-14172952D02*
X12755000Y-14182476D01*
X12755000Y-14182476D02*
X12793095Y-14182476D01*
X12793095Y-14182476D02*
X12812143Y-14172952D01*
X12812143Y-14172952D02*
X12821667Y-14163428D01*
X12821667Y-14163428D02*
X12831191Y-14144381D01*
X12831191Y-14144381D02*
X12831191Y-14096762D01*
X12831191Y-14096762D02*
X12821667Y-14077714D01*
X12821667Y-14077714D02*
X12812143Y-14068190D01*
X12812143Y-14068190D02*
X12793095Y-14058667D01*
X12793095Y-14058667D02*
X12755000Y-14058667D01*
X12755000Y-14058667D02*
X12735952Y-14068190D01*
X12735952Y-14068190D02*
X12726429Y-14077714D01*
X12726429Y-14077714D02*
X12716905Y-14096762D01*
X13002619Y-14049143D02*
X13002619Y-14182476D01*
X12955000Y-13972952D02*
X12907381Y-14115809D01*
X12907381Y-14115809D02*
X13031191Y-14115809D01*
X13227381Y-14182476D02*
X13227381Y-13982476D01*
X13313095Y-14182476D02*
X13313095Y-14077714D01*
X13313095Y-14077714D02*
X13303572Y-14058667D01*
X13303572Y-14058667D02*
X13284524Y-14049143D01*
X13284524Y-14049143D02*
X13255952Y-14049143D01*
X13255952Y-14049143D02*
X13236905Y-14058667D01*
X13236905Y-14058667D02*
X13227381Y-14068190D01*
X13436905Y-14182476D02*
X13417857Y-14172952D01*
X13417857Y-14172952D02*
X13408333Y-14163428D01*
X13408333Y-14163428D02*
X13398810Y-14144381D01*
X13398810Y-14144381D02*
X13398810Y-14087238D01*
X13398810Y-14087238D02*
X13408333Y-14068190D01*
X13408333Y-14068190D02*
X13417857Y-14058667D01*
X13417857Y-14058667D02*
X13436905Y-14049143D01*
X13436905Y-14049143D02*
X13465476Y-14049143D01*
X13465476Y-14049143D02*
X13484524Y-14058667D01*
X13484524Y-14058667D02*
X13494048Y-14068190D01*
X13494048Y-14068190D02*
X13503572Y-14087238D01*
X13503572Y-14087238D02*
X13503572Y-14144381D01*
X13503572Y-14144381D02*
X13494048Y-14163428D01*
X13494048Y-14163428D02*
X13484524Y-14172952D01*
X13484524Y-14172952D02*
X13465476Y-14182476D01*
X13465476Y-14182476D02*
X13436905Y-14182476D01*
X13617857Y-14182476D02*
X13598810Y-14172952D01*
X13598810Y-14172952D02*
X13589286Y-14153905D01*
X13589286Y-14153905D02*
X13589286Y-13982476D01*
X13770238Y-14172952D02*
X13751191Y-14182476D01*
X13751191Y-14182476D02*
X13713095Y-14182476D01*
X13713095Y-14182476D02*
X13694048Y-14172952D01*
X13694048Y-14172952D02*
X13684524Y-14153905D01*
X13684524Y-14153905D02*
X13684524Y-14077714D01*
X13684524Y-14077714D02*
X13694048Y-14058667D01*
X13694048Y-14058667D02*
X13713095Y-14049143D01*
X13713095Y-14049143D02*
X13751191Y-14049143D01*
X13751191Y-14049143D02*
X13770238Y-14058667D01*
X13770238Y-14058667D02*
X13779762Y-14077714D01*
X13779762Y-14077714D02*
X13779762Y-14096762D01*
X13779762Y-14096762D02*
X13684524Y-14115809D01*
X13855953Y-14172952D02*
X13875000Y-14182476D01*
X13875000Y-14182476D02*
X13913095Y-14182476D01*
X13913095Y-14182476D02*
X13932143Y-14172952D01*
X13932143Y-14172952D02*
X13941667Y-14153905D01*
X13941667Y-14153905D02*
X13941667Y-14144381D01*
X13941667Y-14144381D02*
X13932143Y-14125333D01*
X13932143Y-14125333D02*
X13913095Y-14115809D01*
X13913095Y-14115809D02*
X13884524Y-14115809D01*
X13884524Y-14115809D02*
X13865476Y-14106286D01*
X13865476Y-14106286D02*
X13855953Y-14087238D01*
X13855953Y-14087238D02*
X13855953Y-14077714D01*
X13855953Y-14077714D02*
X13865476Y-14058667D01*
X13865476Y-14058667D02*
X13884524Y-14049143D01*
X13884524Y-14049143D02*
X13913095Y-14049143D01*
X13913095Y-14049143D02*
X13932143Y-14058667D01*
X14008334Y-14258667D02*
X14017857Y-14249143D01*
X14017857Y-14249143D02*
X14036905Y-14220571D01*
X14036905Y-14220571D02*
X14046429Y-14201524D01*
X14046429Y-14201524D02*
X14055953Y-14172952D01*
X14055953Y-14172952D02*
X14065476Y-14125333D01*
X14065476Y-14125333D02*
X14065476Y-14087238D01*
X14065476Y-14087238D02*
X14055953Y-14039619D01*
X14055953Y-14039619D02*
X14046429Y-14011048D01*
X14046429Y-14011048D02*
X14036905Y-13992000D01*
X14036905Y-13992000D02*
X14017857Y-13963428D01*
X14017857Y-13963428D02*
X14008334Y-13953905D01*
D14*
X8965000Y-14343000D02*
X8965000Y-14403000D01*
X8935000Y-14373000D02*
X8995000Y-14373000D01*
D11*
X9280714Y-14246476D02*
X9299762Y-14246476D01*
X9299762Y-14246476D02*
X9318810Y-14256000D01*
X9318810Y-14256000D02*
X9328333Y-14265524D01*
X9328333Y-14265524D02*
X9337857Y-14284571D01*
X9337857Y-14284571D02*
X9347381Y-14322667D01*
X9347381Y-14322667D02*
X9347381Y-14370286D01*
X9347381Y-14370286D02*
X9337857Y-14408381D01*
X9337857Y-14408381D02*
X9328333Y-14427428D01*
X9328333Y-14427428D02*
X9318810Y-14436952D01*
X9318810Y-14436952D02*
X9299762Y-14446476D01*
X9299762Y-14446476D02*
X9280714Y-14446476D01*
X9280714Y-14446476D02*
X9261667Y-14436952D01*
X9261667Y-14436952D02*
X9252143Y-14427428D01*
X9252143Y-14427428D02*
X9242619Y-14408381D01*
X9242619Y-14408381D02*
X9233095Y-14370286D01*
X9233095Y-14370286D02*
X9233095Y-14322667D01*
X9233095Y-14322667D02*
X9242619Y-14284571D01*
X9242619Y-14284571D02*
X9252143Y-14265524D01*
X9252143Y-14265524D02*
X9261667Y-14256000D01*
X9261667Y-14256000D02*
X9280714Y-14246476D01*
X9433095Y-14427428D02*
X9442619Y-14436952D01*
X9442619Y-14436952D02*
X9433095Y-14446476D01*
X9433095Y-14446476D02*
X9423571Y-14436952D01*
X9423571Y-14436952D02*
X9433095Y-14427428D01*
X9433095Y-14427428D02*
X9433095Y-14446476D01*
X9614048Y-14246476D02*
X9575952Y-14246476D01*
X9575952Y-14246476D02*
X9556905Y-14256000D01*
X9556905Y-14256000D02*
X9547381Y-14265524D01*
X9547381Y-14265524D02*
X9528333Y-14294095D01*
X9528333Y-14294095D02*
X9518810Y-14332190D01*
X9518810Y-14332190D02*
X9518810Y-14408381D01*
X9518810Y-14408381D02*
X9528333Y-14427428D01*
X9528333Y-14427428D02*
X9537857Y-14436952D01*
X9537857Y-14436952D02*
X9556905Y-14446476D01*
X9556905Y-14446476D02*
X9595000Y-14446476D01*
X9595000Y-14446476D02*
X9614048Y-14436952D01*
X9614048Y-14436952D02*
X9623571Y-14427428D01*
X9623571Y-14427428D02*
X9633095Y-14408381D01*
X9633095Y-14408381D02*
X9633095Y-14360762D01*
X9633095Y-14360762D02*
X9623571Y-14341714D01*
X9623571Y-14341714D02*
X9614048Y-14332190D01*
X9614048Y-14332190D02*
X9595000Y-14322667D01*
X9595000Y-14322667D02*
X9556905Y-14322667D01*
X9556905Y-14322667D02*
X9537857Y-14332190D01*
X9537857Y-14332190D02*
X9528333Y-14341714D01*
X9528333Y-14341714D02*
X9518810Y-14360762D01*
X9756905Y-14246476D02*
X9775952Y-14246476D01*
X9775952Y-14246476D02*
X9795000Y-14256000D01*
X9795000Y-14256000D02*
X9804524Y-14265524D01*
X9804524Y-14265524D02*
X9814048Y-14284571D01*
X9814048Y-14284571D02*
X9823571Y-14322667D01*
X9823571Y-14322667D02*
X9823571Y-14370286D01*
X9823571Y-14370286D02*
X9814048Y-14408381D01*
X9814048Y-14408381D02*
X9804524Y-14427428D01*
X9804524Y-14427428D02*
X9795000Y-14436952D01*
X9795000Y-14436952D02*
X9775952Y-14446476D01*
X9775952Y-14446476D02*
X9756905Y-14446476D01*
X9756905Y-14446476D02*
X9737857Y-14436952D01*
X9737857Y-14436952D02*
X9728333Y-14427428D01*
X9728333Y-14427428D02*
X9718810Y-14408381D01*
X9718810Y-14408381D02*
X9709286Y-14370286D01*
X9709286Y-14370286D02*
X9709286Y-14322667D01*
X9709286Y-14322667D02*
X9718810Y-14284571D01*
X9718810Y-14284571D02*
X9728333Y-14265524D01*
X9728333Y-14265524D02*
X9737857Y-14256000D01*
X9737857Y-14256000D02*
X9756905Y-14246476D01*
X9947381Y-14246476D02*
X9966429Y-14246476D01*
X9966429Y-14246476D02*
X9985476Y-14256000D01*
X9985476Y-14256000D02*
X9995000Y-14265524D01*
X9995000Y-14265524D02*
X10004524Y-14284571D01*
X10004524Y-14284571D02*
X10014048Y-14322667D01*
X10014048Y-14322667D02*
X10014048Y-14370286D01*
X10014048Y-14370286D02*
X10004524Y-14408381D01*
X10004524Y-14408381D02*
X9995000Y-14427428D01*
X9995000Y-14427428D02*
X9985476Y-14436952D01*
X9985476Y-14436952D02*
X9966429Y-14446476D01*
X9966429Y-14446476D02*
X9947381Y-14446476D01*
X9947381Y-14446476D02*
X9928333Y-14436952D01*
X9928333Y-14436952D02*
X9918810Y-14427428D01*
X9918810Y-14427428D02*
X9909286Y-14408381D01*
X9909286Y-14408381D02*
X9899762Y-14370286D01*
X9899762Y-14370286D02*
X9899762Y-14322667D01*
X9899762Y-14322667D02*
X9909286Y-14284571D01*
X9909286Y-14284571D02*
X9918810Y-14265524D01*
X9918810Y-14265524D02*
X9928333Y-14256000D01*
X9928333Y-14256000D02*
X9947381Y-14246476D01*
X10099762Y-14446476D02*
X10099762Y-14313143D01*
X10099762Y-14332190D02*
X10109286Y-14322667D01*
X10109286Y-14322667D02*
X10128333Y-14313143D01*
X10128333Y-14313143D02*
X10156905Y-14313143D01*
X10156905Y-14313143D02*
X10175952Y-14322667D01*
X10175952Y-14322667D02*
X10185476Y-14341714D01*
X10185476Y-14341714D02*
X10185476Y-14446476D01*
X10185476Y-14341714D02*
X10195000Y-14322667D01*
X10195000Y-14322667D02*
X10214048Y-14313143D01*
X10214048Y-14313143D02*
X10242619Y-14313143D01*
X10242619Y-14313143D02*
X10261667Y-14322667D01*
X10261667Y-14322667D02*
X10271191Y-14341714D01*
X10271191Y-14341714D02*
X10271191Y-14446476D01*
X10366429Y-14446476D02*
X10366429Y-14313143D01*
X10366429Y-14332190D02*
X10375952Y-14322667D01*
X10375952Y-14322667D02*
X10395000Y-14313143D01*
X10395000Y-14313143D02*
X10423572Y-14313143D01*
X10423572Y-14313143D02*
X10442619Y-14322667D01*
X10442619Y-14322667D02*
X10452143Y-14341714D01*
X10452143Y-14341714D02*
X10452143Y-14446476D01*
X10452143Y-14341714D02*
X10461667Y-14322667D01*
X10461667Y-14322667D02*
X10480714Y-14313143D01*
X10480714Y-14313143D02*
X10509286Y-14313143D01*
X10509286Y-14313143D02*
X10528333Y-14322667D01*
X10528333Y-14322667D02*
X10537857Y-14341714D01*
X10537857Y-14341714D02*
X10537857Y-14446476D01*
X10895952Y-14236952D02*
X10724524Y-14494095D01*
X11120714Y-14246476D02*
X11139762Y-14246476D01*
X11139762Y-14246476D02*
X11158810Y-14256000D01*
X11158810Y-14256000D02*
X11168333Y-14265524D01*
X11168333Y-14265524D02*
X11177857Y-14284571D01*
X11177857Y-14284571D02*
X11187381Y-14322667D01*
X11187381Y-14322667D02*
X11187381Y-14370286D01*
X11187381Y-14370286D02*
X11177857Y-14408381D01*
X11177857Y-14408381D02*
X11168333Y-14427428D01*
X11168333Y-14427428D02*
X11158810Y-14436952D01*
X11158810Y-14436952D02*
X11139762Y-14446476D01*
X11139762Y-14446476D02*
X11120714Y-14446476D01*
X11120714Y-14446476D02*
X11101667Y-14436952D01*
X11101667Y-14436952D02*
X11092143Y-14427428D01*
X11092143Y-14427428D02*
X11082619Y-14408381D01*
X11082619Y-14408381D02*
X11073095Y-14370286D01*
X11073095Y-14370286D02*
X11073095Y-14322667D01*
X11073095Y-14322667D02*
X11082619Y-14284571D01*
X11082619Y-14284571D02*
X11092143Y-14265524D01*
X11092143Y-14265524D02*
X11101667Y-14256000D01*
X11101667Y-14256000D02*
X11120714Y-14246476D01*
X11273095Y-14427428D02*
X11282619Y-14436952D01*
X11282619Y-14436952D02*
X11273095Y-14446476D01*
X11273095Y-14446476D02*
X11263571Y-14436952D01*
X11263571Y-14436952D02*
X11273095Y-14427428D01*
X11273095Y-14427428D02*
X11273095Y-14446476D01*
X11406429Y-14246476D02*
X11425476Y-14246476D01*
X11425476Y-14246476D02*
X11444524Y-14256000D01*
X11444524Y-14256000D02*
X11454048Y-14265524D01*
X11454048Y-14265524D02*
X11463571Y-14284571D01*
X11463571Y-14284571D02*
X11473095Y-14322667D01*
X11473095Y-14322667D02*
X11473095Y-14370286D01*
X11473095Y-14370286D02*
X11463571Y-14408381D01*
X11463571Y-14408381D02*
X11454048Y-14427428D01*
X11454048Y-14427428D02*
X11444524Y-14436952D01*
X11444524Y-14436952D02*
X11425476Y-14446476D01*
X11425476Y-14446476D02*
X11406429Y-14446476D01*
X11406429Y-14446476D02*
X11387381Y-14436952D01*
X11387381Y-14436952D02*
X11377857Y-14427428D01*
X11377857Y-14427428D02*
X11368333Y-14408381D01*
X11368333Y-14408381D02*
X11358810Y-14370286D01*
X11358810Y-14370286D02*
X11358810Y-14322667D01*
X11358810Y-14322667D02*
X11368333Y-14284571D01*
X11368333Y-14284571D02*
X11377857Y-14265524D01*
X11377857Y-14265524D02*
X11387381Y-14256000D01*
X11387381Y-14256000D02*
X11406429Y-14246476D01*
X11549286Y-14265524D02*
X11558810Y-14256000D01*
X11558810Y-14256000D02*
X11577857Y-14246476D01*
X11577857Y-14246476D02*
X11625476Y-14246476D01*
X11625476Y-14246476D02*
X11644524Y-14256000D01*
X11644524Y-14256000D02*
X11654048Y-14265524D01*
X11654048Y-14265524D02*
X11663571Y-14284571D01*
X11663571Y-14284571D02*
X11663571Y-14303619D01*
X11663571Y-14303619D02*
X11654048Y-14332190D01*
X11654048Y-14332190D02*
X11539762Y-14446476D01*
X11539762Y-14446476D02*
X11663571Y-14446476D01*
X11730238Y-14246476D02*
X11854048Y-14246476D01*
X11854048Y-14246476D02*
X11787381Y-14322667D01*
X11787381Y-14322667D02*
X11815952Y-14322667D01*
X11815952Y-14322667D02*
X11835000Y-14332190D01*
X11835000Y-14332190D02*
X11844524Y-14341714D01*
X11844524Y-14341714D02*
X11854048Y-14360762D01*
X11854048Y-14360762D02*
X11854048Y-14408381D01*
X11854048Y-14408381D02*
X11844524Y-14427428D01*
X11844524Y-14427428D02*
X11835000Y-14436952D01*
X11835000Y-14436952D02*
X11815952Y-14446476D01*
X11815952Y-14446476D02*
X11758810Y-14446476D01*
X11758810Y-14446476D02*
X11739762Y-14436952D01*
X11739762Y-14436952D02*
X11730238Y-14427428D01*
X12025476Y-14246476D02*
X11987381Y-14246476D01*
X11987381Y-14246476D02*
X11968333Y-14256000D01*
X11968333Y-14256000D02*
X11958810Y-14265524D01*
X11958810Y-14265524D02*
X11939762Y-14294095D01*
X11939762Y-14294095D02*
X11930238Y-14332190D01*
X11930238Y-14332190D02*
X11930238Y-14408381D01*
X11930238Y-14408381D02*
X11939762Y-14427428D01*
X11939762Y-14427428D02*
X11949286Y-14436952D01*
X11949286Y-14436952D02*
X11968333Y-14446476D01*
X11968333Y-14446476D02*
X12006429Y-14446476D01*
X12006429Y-14446476D02*
X12025476Y-14436952D01*
X12025476Y-14436952D02*
X12035000Y-14427428D01*
X12035000Y-14427428D02*
X12044524Y-14408381D01*
X12044524Y-14408381D02*
X12044524Y-14360762D01*
X12044524Y-14360762D02*
X12035000Y-14341714D01*
X12035000Y-14341714D02*
X12025476Y-14332190D01*
X12025476Y-14332190D02*
X12006429Y-14322667D01*
X12006429Y-14322667D02*
X11968333Y-14322667D01*
X11968333Y-14322667D02*
X11949286Y-14332190D01*
X11949286Y-14332190D02*
X11939762Y-14341714D01*
X11939762Y-14341714D02*
X11930238Y-14360762D01*
X12120714Y-14246476D02*
X12120714Y-14284571D01*
X12196905Y-14246476D02*
X12196905Y-14284571D01*
X12459762Y-14522667D02*
X12450238Y-14513143D01*
X12450238Y-14513143D02*
X12431191Y-14484571D01*
X12431191Y-14484571D02*
X12421667Y-14465524D01*
X12421667Y-14465524D02*
X12412143Y-14436952D01*
X12412143Y-14436952D02*
X12402619Y-14389333D01*
X12402619Y-14389333D02*
X12402619Y-14351238D01*
X12402619Y-14351238D02*
X12412143Y-14303619D01*
X12412143Y-14303619D02*
X12421667Y-14275048D01*
X12421667Y-14275048D02*
X12431191Y-14256000D01*
X12431191Y-14256000D02*
X12450238Y-14227428D01*
X12450238Y-14227428D02*
X12459762Y-14217905D01*
X12574048Y-14246476D02*
X12593095Y-14246476D01*
X12593095Y-14246476D02*
X12612143Y-14256000D01*
X12612143Y-14256000D02*
X12621667Y-14265524D01*
X12621667Y-14265524D02*
X12631191Y-14284571D01*
X12631191Y-14284571D02*
X12640714Y-14322667D01*
X12640714Y-14322667D02*
X12640714Y-14370286D01*
X12640714Y-14370286D02*
X12631191Y-14408381D01*
X12631191Y-14408381D02*
X12621667Y-14427428D01*
X12621667Y-14427428D02*
X12612143Y-14436952D01*
X12612143Y-14436952D02*
X12593095Y-14446476D01*
X12593095Y-14446476D02*
X12574048Y-14446476D01*
X12574048Y-14446476D02*
X12555000Y-14436952D01*
X12555000Y-14436952D02*
X12545476Y-14427428D01*
X12545476Y-14427428D02*
X12535952Y-14408381D01*
X12535952Y-14408381D02*
X12526429Y-14370286D01*
X12526429Y-14370286D02*
X12526429Y-14322667D01*
X12526429Y-14322667D02*
X12535952Y-14284571D01*
X12535952Y-14284571D02*
X12545476Y-14265524D01*
X12545476Y-14265524D02*
X12555000Y-14256000D01*
X12555000Y-14256000D02*
X12574048Y-14246476D01*
X12846429Y-14446476D02*
X12846429Y-14246476D01*
X12932143Y-14446476D02*
X12932143Y-14341714D01*
X12932143Y-14341714D02*
X12922619Y-14322667D01*
X12922619Y-14322667D02*
X12903572Y-14313143D01*
X12903572Y-14313143D02*
X12875000Y-14313143D01*
X12875000Y-14313143D02*
X12855952Y-14322667D01*
X12855952Y-14322667D02*
X12846429Y-14332190D01*
X13055952Y-14446476D02*
X13036905Y-14436952D01*
X13036905Y-14436952D02*
X13027381Y-14427428D01*
X13027381Y-14427428D02*
X13017857Y-14408381D01*
X13017857Y-14408381D02*
X13017857Y-14351238D01*
X13017857Y-14351238D02*
X13027381Y-14332190D01*
X13027381Y-14332190D02*
X13036905Y-14322667D01*
X13036905Y-14322667D02*
X13055952Y-14313143D01*
X13055952Y-14313143D02*
X13084524Y-14313143D01*
X13084524Y-14313143D02*
X13103572Y-14322667D01*
X13103572Y-14322667D02*
X13113095Y-14332190D01*
X13113095Y-14332190D02*
X13122619Y-14351238D01*
X13122619Y-14351238D02*
X13122619Y-14408381D01*
X13122619Y-14408381D02*
X13113095Y-14427428D01*
X13113095Y-14427428D02*
X13103572Y-14436952D01*
X13103572Y-14436952D02*
X13084524Y-14446476D01*
X13084524Y-14446476D02*
X13055952Y-14446476D01*
X13236905Y-14446476D02*
X13217857Y-14436952D01*
X13217857Y-14436952D02*
X13208333Y-14417905D01*
X13208333Y-14417905D02*
X13208333Y-14246476D01*
X13389286Y-14436952D02*
X13370238Y-14446476D01*
X13370238Y-14446476D02*
X13332143Y-14446476D01*
X13332143Y-14446476D02*
X13313095Y-14436952D01*
X13313095Y-14436952D02*
X13303572Y-14417905D01*
X13303572Y-14417905D02*
X13303572Y-14341714D01*
X13303572Y-14341714D02*
X13313095Y-14322667D01*
X13313095Y-14322667D02*
X13332143Y-14313143D01*
X13332143Y-14313143D02*
X13370238Y-14313143D01*
X13370238Y-14313143D02*
X13389286Y-14322667D01*
X13389286Y-14322667D02*
X13398810Y-14341714D01*
X13398810Y-14341714D02*
X13398810Y-14360762D01*
X13398810Y-14360762D02*
X13303572Y-14379809D01*
X13475000Y-14436952D02*
X13494048Y-14446476D01*
X13494048Y-14446476D02*
X13532143Y-14446476D01*
X13532143Y-14446476D02*
X13551191Y-14436952D01*
X13551191Y-14436952D02*
X13560714Y-14417905D01*
X13560714Y-14417905D02*
X13560714Y-14408381D01*
X13560714Y-14408381D02*
X13551191Y-14389333D01*
X13551191Y-14389333D02*
X13532143Y-14379809D01*
X13532143Y-14379809D02*
X13503572Y-14379809D01*
X13503572Y-14379809D02*
X13484524Y-14370286D01*
X13484524Y-14370286D02*
X13475000Y-14351238D01*
X13475000Y-14351238D02*
X13475000Y-14341714D01*
X13475000Y-14341714D02*
X13484524Y-14322667D01*
X13484524Y-14322667D02*
X13503572Y-14313143D01*
X13503572Y-14313143D02*
X13532143Y-14313143D01*
X13532143Y-14313143D02*
X13551191Y-14322667D01*
X13766429Y-14370286D02*
X13918810Y-14370286D01*
X13842619Y-14446476D02*
X13842619Y-14294095D01*
X14219762Y-14313143D02*
X14219762Y-14446476D01*
X14172143Y-14236952D02*
X14124524Y-14379809D01*
X14124524Y-14379809D02*
X14248333Y-14379809D01*
X14435000Y-14436952D02*
X14454048Y-14446476D01*
X14454048Y-14446476D02*
X14492143Y-14446476D01*
X14492143Y-14446476D02*
X14511191Y-14436952D01*
X14511191Y-14436952D02*
X14520714Y-14417905D01*
X14520714Y-14417905D02*
X14520714Y-14408381D01*
X14520714Y-14408381D02*
X14511191Y-14389333D01*
X14511191Y-14389333D02*
X14492143Y-14379809D01*
X14492143Y-14379809D02*
X14463572Y-14379809D01*
X14463572Y-14379809D02*
X14444524Y-14370286D01*
X14444524Y-14370286D02*
X14435000Y-14351238D01*
X14435000Y-14351238D02*
X14435000Y-14341714D01*
X14435000Y-14341714D02*
X14444524Y-14322667D01*
X14444524Y-14322667D02*
X14463572Y-14313143D01*
X14463572Y-14313143D02*
X14492143Y-14313143D01*
X14492143Y-14313143D02*
X14511191Y-14322667D01*
X14635000Y-14446476D02*
X14615953Y-14436952D01*
X14615953Y-14436952D02*
X14606429Y-14417905D01*
X14606429Y-14417905D02*
X14606429Y-14246476D01*
X14739762Y-14446476D02*
X14720714Y-14436952D01*
X14720714Y-14436952D02*
X14711191Y-14427428D01*
X14711191Y-14427428D02*
X14701667Y-14408381D01*
X14701667Y-14408381D02*
X14701667Y-14351238D01*
X14701667Y-14351238D02*
X14711191Y-14332190D01*
X14711191Y-14332190D02*
X14720714Y-14322667D01*
X14720714Y-14322667D02*
X14739762Y-14313143D01*
X14739762Y-14313143D02*
X14768334Y-14313143D01*
X14768334Y-14313143D02*
X14787381Y-14322667D01*
X14787381Y-14322667D02*
X14796905Y-14332190D01*
X14796905Y-14332190D02*
X14806429Y-14351238D01*
X14806429Y-14351238D02*
X14806429Y-14408381D01*
X14806429Y-14408381D02*
X14796905Y-14427428D01*
X14796905Y-14427428D02*
X14787381Y-14436952D01*
X14787381Y-14436952D02*
X14768334Y-14446476D01*
X14768334Y-14446476D02*
X14739762Y-14446476D01*
X14863572Y-14313143D02*
X14939762Y-14313143D01*
X14892143Y-14246476D02*
X14892143Y-14417905D01*
X14892143Y-14417905D02*
X14901667Y-14436952D01*
X14901667Y-14436952D02*
X14920714Y-14446476D01*
X14920714Y-14446476D02*
X14939762Y-14446476D01*
X14996905Y-14436952D02*
X15015953Y-14446476D01*
X15015953Y-14446476D02*
X15054048Y-14446476D01*
X15054048Y-14446476D02*
X15073095Y-14436952D01*
X15073095Y-14436952D02*
X15082619Y-14417905D01*
X15082619Y-14417905D02*
X15082619Y-14408381D01*
X15082619Y-14408381D02*
X15073095Y-14389333D01*
X15073095Y-14389333D02*
X15054048Y-14379809D01*
X15054048Y-14379809D02*
X15025476Y-14379809D01*
X15025476Y-14379809D02*
X15006429Y-14370286D01*
X15006429Y-14370286D02*
X14996905Y-14351238D01*
X14996905Y-14351238D02*
X14996905Y-14341714D01*
X14996905Y-14341714D02*
X15006429Y-14322667D01*
X15006429Y-14322667D02*
X15025476Y-14313143D01*
X15025476Y-14313143D02*
X15054048Y-14313143D01*
X15054048Y-14313143D02*
X15073095Y-14322667D01*
X15149286Y-14522667D02*
X15158810Y-14513143D01*
X15158810Y-14513143D02*
X15177857Y-14484571D01*
X15177857Y-14484571D02*
X15187381Y-14465524D01*
X15187381Y-14465524D02*
X15196905Y-14436952D01*
X15196905Y-14436952D02*
X15206429Y-14389333D01*
X15206429Y-14389333D02*
X15206429Y-14351238D01*
X15206429Y-14351238D02*
X15196905Y-14303619D01*
X15196905Y-14303619D02*
X15187381Y-14275048D01*
X15187381Y-14275048D02*
X15177857Y-14256000D01*
X15177857Y-14256000D02*
X15158810Y-14227428D01*
X15158810Y-14227428D02*
X15149286Y-14217905D01*
D10*
X8980356Y-14672356D02*
X8980356Y-14601644D01*
X8909644Y-14601644D01*
X8909644Y-14672356D01*
X8980356Y-14672356D01*
D11*
X9347381Y-14710476D02*
X9233095Y-14710476D01*
X9290238Y-14710476D02*
X9290238Y-14510476D01*
X9290238Y-14510476D02*
X9271190Y-14539048D01*
X9271190Y-14539048D02*
X9252143Y-14558095D01*
X9252143Y-14558095D02*
X9233095Y-14567619D01*
X9433095Y-14691428D02*
X9442619Y-14700952D01*
X9442619Y-14700952D02*
X9433095Y-14710476D01*
X9433095Y-14710476D02*
X9423571Y-14700952D01*
X9423571Y-14700952D02*
X9433095Y-14691428D01*
X9433095Y-14691428D02*
X9433095Y-14710476D01*
X9566429Y-14510476D02*
X9585476Y-14510476D01*
X9585476Y-14510476D02*
X9604524Y-14520000D01*
X9604524Y-14520000D02*
X9614048Y-14529524D01*
X9614048Y-14529524D02*
X9623571Y-14548571D01*
X9623571Y-14548571D02*
X9633095Y-14586667D01*
X9633095Y-14586667D02*
X9633095Y-14634286D01*
X9633095Y-14634286D02*
X9623571Y-14672381D01*
X9623571Y-14672381D02*
X9614048Y-14691428D01*
X9614048Y-14691428D02*
X9604524Y-14700952D01*
X9604524Y-14700952D02*
X9585476Y-14710476D01*
X9585476Y-14710476D02*
X9566429Y-14710476D01*
X9566429Y-14710476D02*
X9547381Y-14700952D01*
X9547381Y-14700952D02*
X9537857Y-14691428D01*
X9537857Y-14691428D02*
X9528333Y-14672381D01*
X9528333Y-14672381D02*
X9518810Y-14634286D01*
X9518810Y-14634286D02*
X9518810Y-14586667D01*
X9518810Y-14586667D02*
X9528333Y-14548571D01*
X9528333Y-14548571D02*
X9537857Y-14529524D01*
X9537857Y-14529524D02*
X9547381Y-14520000D01*
X9547381Y-14520000D02*
X9566429Y-14510476D01*
X9756905Y-14510476D02*
X9775952Y-14510476D01*
X9775952Y-14510476D02*
X9795000Y-14520000D01*
X9795000Y-14520000D02*
X9804524Y-14529524D01*
X9804524Y-14529524D02*
X9814048Y-14548571D01*
X9814048Y-14548571D02*
X9823571Y-14586667D01*
X9823571Y-14586667D02*
X9823571Y-14634286D01*
X9823571Y-14634286D02*
X9814048Y-14672381D01*
X9814048Y-14672381D02*
X9804524Y-14691428D01*
X9804524Y-14691428D02*
X9795000Y-14700952D01*
X9795000Y-14700952D02*
X9775952Y-14710476D01*
X9775952Y-14710476D02*
X9756905Y-14710476D01*
X9756905Y-14710476D02*
X9737857Y-14700952D01*
X9737857Y-14700952D02*
X9728333Y-14691428D01*
X9728333Y-14691428D02*
X9718810Y-14672381D01*
X9718810Y-14672381D02*
X9709286Y-14634286D01*
X9709286Y-14634286D02*
X9709286Y-14586667D01*
X9709286Y-14586667D02*
X9718810Y-14548571D01*
X9718810Y-14548571D02*
X9728333Y-14529524D01*
X9728333Y-14529524D02*
X9737857Y-14520000D01*
X9737857Y-14520000D02*
X9756905Y-14510476D01*
X9947381Y-14510476D02*
X9966429Y-14510476D01*
X9966429Y-14510476D02*
X9985476Y-14520000D01*
X9985476Y-14520000D02*
X9995000Y-14529524D01*
X9995000Y-14529524D02*
X10004524Y-14548571D01*
X10004524Y-14548571D02*
X10014048Y-14586667D01*
X10014048Y-14586667D02*
X10014048Y-14634286D01*
X10014048Y-14634286D02*
X10004524Y-14672381D01*
X10004524Y-14672381D02*
X9995000Y-14691428D01*
X9995000Y-14691428D02*
X9985476Y-14700952D01*
X9985476Y-14700952D02*
X9966429Y-14710476D01*
X9966429Y-14710476D02*
X9947381Y-14710476D01*
X9947381Y-14710476D02*
X9928333Y-14700952D01*
X9928333Y-14700952D02*
X9918810Y-14691428D01*
X9918810Y-14691428D02*
X9909286Y-14672381D01*
X9909286Y-14672381D02*
X9899762Y-14634286D01*
X9899762Y-14634286D02*
X9899762Y-14586667D01*
X9899762Y-14586667D02*
X9909286Y-14548571D01*
X9909286Y-14548571D02*
X9918810Y-14529524D01*
X9918810Y-14529524D02*
X9928333Y-14520000D01*
X9928333Y-14520000D02*
X9947381Y-14510476D01*
X10099762Y-14710476D02*
X10099762Y-14577143D01*
X10099762Y-14596190D02*
X10109286Y-14586667D01*
X10109286Y-14586667D02*
X10128333Y-14577143D01*
X10128333Y-14577143D02*
X10156905Y-14577143D01*
X10156905Y-14577143D02*
X10175952Y-14586667D01*
X10175952Y-14586667D02*
X10185476Y-14605714D01*
X10185476Y-14605714D02*
X10185476Y-14710476D01*
X10185476Y-14605714D02*
X10195000Y-14586667D01*
X10195000Y-14586667D02*
X10214048Y-14577143D01*
X10214048Y-14577143D02*
X10242619Y-14577143D01*
X10242619Y-14577143D02*
X10261667Y-14586667D01*
X10261667Y-14586667D02*
X10271191Y-14605714D01*
X10271191Y-14605714D02*
X10271191Y-14710476D01*
X10366429Y-14710476D02*
X10366429Y-14577143D01*
X10366429Y-14596190D02*
X10375952Y-14586667D01*
X10375952Y-14586667D02*
X10395000Y-14577143D01*
X10395000Y-14577143D02*
X10423572Y-14577143D01*
X10423572Y-14577143D02*
X10442619Y-14586667D01*
X10442619Y-14586667D02*
X10452143Y-14605714D01*
X10452143Y-14605714D02*
X10452143Y-14710476D01*
X10452143Y-14605714D02*
X10461667Y-14586667D01*
X10461667Y-14586667D02*
X10480714Y-14577143D01*
X10480714Y-14577143D02*
X10509286Y-14577143D01*
X10509286Y-14577143D02*
X10528333Y-14586667D01*
X10528333Y-14586667D02*
X10537857Y-14605714D01*
X10537857Y-14605714D02*
X10537857Y-14710476D01*
X10895952Y-14500952D02*
X10724524Y-14758095D01*
X11120714Y-14510476D02*
X11139762Y-14510476D01*
X11139762Y-14510476D02*
X11158810Y-14520000D01*
X11158810Y-14520000D02*
X11168333Y-14529524D01*
X11168333Y-14529524D02*
X11177857Y-14548571D01*
X11177857Y-14548571D02*
X11187381Y-14586667D01*
X11187381Y-14586667D02*
X11187381Y-14634286D01*
X11187381Y-14634286D02*
X11177857Y-14672381D01*
X11177857Y-14672381D02*
X11168333Y-14691428D01*
X11168333Y-14691428D02*
X11158810Y-14700952D01*
X11158810Y-14700952D02*
X11139762Y-14710476D01*
X11139762Y-14710476D02*
X11120714Y-14710476D01*
X11120714Y-14710476D02*
X11101667Y-14700952D01*
X11101667Y-14700952D02*
X11092143Y-14691428D01*
X11092143Y-14691428D02*
X11082619Y-14672381D01*
X11082619Y-14672381D02*
X11073095Y-14634286D01*
X11073095Y-14634286D02*
X11073095Y-14586667D01*
X11073095Y-14586667D02*
X11082619Y-14548571D01*
X11082619Y-14548571D02*
X11092143Y-14529524D01*
X11092143Y-14529524D02*
X11101667Y-14520000D01*
X11101667Y-14520000D02*
X11120714Y-14510476D01*
X11273095Y-14691428D02*
X11282619Y-14700952D01*
X11282619Y-14700952D02*
X11273095Y-14710476D01*
X11273095Y-14710476D02*
X11263571Y-14700952D01*
X11263571Y-14700952D02*
X11273095Y-14691428D01*
X11273095Y-14691428D02*
X11273095Y-14710476D01*
X11406429Y-14510476D02*
X11425476Y-14510476D01*
X11425476Y-14510476D02*
X11444524Y-14520000D01*
X11444524Y-14520000D02*
X11454048Y-14529524D01*
X11454048Y-14529524D02*
X11463571Y-14548571D01*
X11463571Y-14548571D02*
X11473095Y-14586667D01*
X11473095Y-14586667D02*
X11473095Y-14634286D01*
X11473095Y-14634286D02*
X11463571Y-14672381D01*
X11463571Y-14672381D02*
X11454048Y-14691428D01*
X11454048Y-14691428D02*
X11444524Y-14700952D01*
X11444524Y-14700952D02*
X11425476Y-14710476D01*
X11425476Y-14710476D02*
X11406429Y-14710476D01*
X11406429Y-14710476D02*
X11387381Y-14700952D01*
X11387381Y-14700952D02*
X11377857Y-14691428D01*
X11377857Y-14691428D02*
X11368333Y-14672381D01*
X11368333Y-14672381D02*
X11358810Y-14634286D01*
X11358810Y-14634286D02*
X11358810Y-14586667D01*
X11358810Y-14586667D02*
X11368333Y-14548571D01*
X11368333Y-14548571D02*
X11377857Y-14529524D01*
X11377857Y-14529524D02*
X11387381Y-14520000D01*
X11387381Y-14520000D02*
X11406429Y-14510476D01*
X11539762Y-14510476D02*
X11663571Y-14510476D01*
X11663571Y-14510476D02*
X11596905Y-14586667D01*
X11596905Y-14586667D02*
X11625476Y-14586667D01*
X11625476Y-14586667D02*
X11644524Y-14596190D01*
X11644524Y-14596190D02*
X11654048Y-14605714D01*
X11654048Y-14605714D02*
X11663571Y-14624762D01*
X11663571Y-14624762D02*
X11663571Y-14672381D01*
X11663571Y-14672381D02*
X11654048Y-14691428D01*
X11654048Y-14691428D02*
X11644524Y-14700952D01*
X11644524Y-14700952D02*
X11625476Y-14710476D01*
X11625476Y-14710476D02*
X11568333Y-14710476D01*
X11568333Y-14710476D02*
X11549286Y-14700952D01*
X11549286Y-14700952D02*
X11539762Y-14691428D01*
X11758810Y-14710476D02*
X11796905Y-14710476D01*
X11796905Y-14710476D02*
X11815952Y-14700952D01*
X11815952Y-14700952D02*
X11825476Y-14691428D01*
X11825476Y-14691428D02*
X11844524Y-14662857D01*
X11844524Y-14662857D02*
X11854048Y-14624762D01*
X11854048Y-14624762D02*
X11854048Y-14548571D01*
X11854048Y-14548571D02*
X11844524Y-14529524D01*
X11844524Y-14529524D02*
X11835000Y-14520000D01*
X11835000Y-14520000D02*
X11815952Y-14510476D01*
X11815952Y-14510476D02*
X11777857Y-14510476D01*
X11777857Y-14510476D02*
X11758810Y-14520000D01*
X11758810Y-14520000D02*
X11749286Y-14529524D01*
X11749286Y-14529524D02*
X11739762Y-14548571D01*
X11739762Y-14548571D02*
X11739762Y-14596190D01*
X11739762Y-14596190D02*
X11749286Y-14615238D01*
X11749286Y-14615238D02*
X11758810Y-14624762D01*
X11758810Y-14624762D02*
X11777857Y-14634286D01*
X11777857Y-14634286D02*
X11815952Y-14634286D01*
X11815952Y-14634286D02*
X11835000Y-14624762D01*
X11835000Y-14624762D02*
X11844524Y-14615238D01*
X11844524Y-14615238D02*
X11854048Y-14596190D01*
X12025476Y-14577143D02*
X12025476Y-14710476D01*
X11977857Y-14500952D02*
X11930238Y-14643809D01*
X11930238Y-14643809D02*
X12054048Y-14643809D01*
X12120714Y-14510476D02*
X12120714Y-14548571D01*
X12196905Y-14510476D02*
X12196905Y-14548571D01*
X12459762Y-14786667D02*
X12450238Y-14777143D01*
X12450238Y-14777143D02*
X12431191Y-14748571D01*
X12431191Y-14748571D02*
X12421667Y-14729524D01*
X12421667Y-14729524D02*
X12412143Y-14700952D01*
X12412143Y-14700952D02*
X12402619Y-14653333D01*
X12402619Y-14653333D02*
X12402619Y-14615238D01*
X12402619Y-14615238D02*
X12412143Y-14567619D01*
X12412143Y-14567619D02*
X12421667Y-14539048D01*
X12421667Y-14539048D02*
X12431191Y-14520000D01*
X12431191Y-14520000D02*
X12450238Y-14491428D01*
X12450238Y-14491428D02*
X12459762Y-14481905D01*
X12621667Y-14510476D02*
X12583571Y-14510476D01*
X12583571Y-14510476D02*
X12564524Y-14520000D01*
X12564524Y-14520000D02*
X12555000Y-14529524D01*
X12555000Y-14529524D02*
X12535952Y-14558095D01*
X12535952Y-14558095D02*
X12526429Y-14596190D01*
X12526429Y-14596190D02*
X12526429Y-14672381D01*
X12526429Y-14672381D02*
X12535952Y-14691428D01*
X12535952Y-14691428D02*
X12545476Y-14700952D01*
X12545476Y-14700952D02*
X12564524Y-14710476D01*
X12564524Y-14710476D02*
X12602619Y-14710476D01*
X12602619Y-14710476D02*
X12621667Y-14700952D01*
X12621667Y-14700952D02*
X12631191Y-14691428D01*
X12631191Y-14691428D02*
X12640714Y-14672381D01*
X12640714Y-14672381D02*
X12640714Y-14624762D01*
X12640714Y-14624762D02*
X12631191Y-14605714D01*
X12631191Y-14605714D02*
X12621667Y-14596190D01*
X12621667Y-14596190D02*
X12602619Y-14586667D01*
X12602619Y-14586667D02*
X12564524Y-14586667D01*
X12564524Y-14586667D02*
X12545476Y-14596190D01*
X12545476Y-14596190D02*
X12535952Y-14605714D01*
X12535952Y-14605714D02*
X12526429Y-14624762D01*
X12846429Y-14710476D02*
X12846429Y-14510476D01*
X12932143Y-14710476D02*
X12932143Y-14605714D01*
X12932143Y-14605714D02*
X12922619Y-14586667D01*
X12922619Y-14586667D02*
X12903572Y-14577143D01*
X12903572Y-14577143D02*
X12875000Y-14577143D01*
X12875000Y-14577143D02*
X12855952Y-14586667D01*
X12855952Y-14586667D02*
X12846429Y-14596190D01*
X13055952Y-14710476D02*
X13036905Y-14700952D01*
X13036905Y-14700952D02*
X13027381Y-14691428D01*
X13027381Y-14691428D02*
X13017857Y-14672381D01*
X13017857Y-14672381D02*
X13017857Y-14615238D01*
X13017857Y-14615238D02*
X13027381Y-14596190D01*
X13027381Y-14596190D02*
X13036905Y-14586667D01*
X13036905Y-14586667D02*
X13055952Y-14577143D01*
X13055952Y-14577143D02*
X13084524Y-14577143D01*
X13084524Y-14577143D02*
X13103572Y-14586667D01*
X13103572Y-14586667D02*
X13113095Y-14596190D01*
X13113095Y-14596190D02*
X13122619Y-14615238D01*
X13122619Y-14615238D02*
X13122619Y-14672381D01*
X13122619Y-14672381D02*
X13113095Y-14691428D01*
X13113095Y-14691428D02*
X13103572Y-14700952D01*
X13103572Y-14700952D02*
X13084524Y-14710476D01*
X13084524Y-14710476D02*
X13055952Y-14710476D01*
X13236905Y-14710476D02*
X13217857Y-14700952D01*
X13217857Y-14700952D02*
X13208333Y-14681905D01*
X13208333Y-14681905D02*
X13208333Y-14510476D01*
X13389286Y-14700952D02*
X13370238Y-14710476D01*
X13370238Y-14710476D02*
X13332143Y-14710476D01*
X13332143Y-14710476D02*
X13313095Y-14700952D01*
X13313095Y-14700952D02*
X13303572Y-14681905D01*
X13303572Y-14681905D02*
X13303572Y-14605714D01*
X13303572Y-14605714D02*
X13313095Y-14586667D01*
X13313095Y-14586667D02*
X13332143Y-14577143D01*
X13332143Y-14577143D02*
X13370238Y-14577143D01*
X13370238Y-14577143D02*
X13389286Y-14586667D01*
X13389286Y-14586667D02*
X13398810Y-14605714D01*
X13398810Y-14605714D02*
X13398810Y-14624762D01*
X13398810Y-14624762D02*
X13303572Y-14643809D01*
X13475000Y-14700952D02*
X13494048Y-14710476D01*
X13494048Y-14710476D02*
X13532143Y-14710476D01*
X13532143Y-14710476D02*
X13551191Y-14700952D01*
X13551191Y-14700952D02*
X13560714Y-14681905D01*
X13560714Y-14681905D02*
X13560714Y-14672381D01*
X13560714Y-14672381D02*
X13551191Y-14653333D01*
X13551191Y-14653333D02*
X13532143Y-14643809D01*
X13532143Y-14643809D02*
X13503572Y-14643809D01*
X13503572Y-14643809D02*
X13484524Y-14634286D01*
X13484524Y-14634286D02*
X13475000Y-14615238D01*
X13475000Y-14615238D02*
X13475000Y-14605714D01*
X13475000Y-14605714D02*
X13484524Y-14586667D01*
X13484524Y-14586667D02*
X13503572Y-14577143D01*
X13503572Y-14577143D02*
X13532143Y-14577143D01*
X13532143Y-14577143D02*
X13551191Y-14586667D01*
X13627381Y-14786667D02*
X13636905Y-14777143D01*
X13636905Y-14777143D02*
X13655953Y-14748571D01*
X13655953Y-14748571D02*
X13665476Y-14729524D01*
X13665476Y-14729524D02*
X13675000Y-14700952D01*
X13675000Y-14700952D02*
X13684524Y-14653333D01*
X13684524Y-14653333D02*
X13684524Y-14615238D01*
X13684524Y-14615238D02*
X13675000Y-14567619D01*
X13675000Y-14567619D02*
X13665476Y-14539048D01*
X13665476Y-14539048D02*
X13655953Y-14520000D01*
X13655953Y-14520000D02*
X13636905Y-14491428D01*
X13636905Y-14491428D02*
X13627381Y-14481905D01*
M02*
