%TF.GenerationSoftware,KiCad,Pcbnew,(7.0.0)*%
%TF.CreationDate,2023-05-08T09:15:41-04:00*%
%TF.ProjectId,AutoTiller,4175746f-5469-46c6-9c65-722e6b696361,rev?*%
%TF.SameCoordinates,Original*%
%TF.FileFunction,Soldermask,Top*%
%TF.FilePolarity,Negative*%
%FSLAX46Y46*%
G04 Gerber Fmt 4.6, Leading zero omitted, Abs format (unit mm)*
G04 Created by KiCad (PCBNEW (7.0.0)) date 2023-05-08 09:15:41*
%MOMM*%
%LPD*%
G01*
G04 APERTURE LIST*
G04 Aperture macros list*
%AMRoundRect*
0 Rectangle with rounded corners*
0 $1 Rounding radius*
0 $2 $3 $4 $5 $6 $7 $8 $9 X,Y pos of 4 corners*
0 Add a 4 corners polygon primitive as box body*
4,1,4,$2,$3,$4,$5,$6,$7,$8,$9,$2,$3,0*
0 Add four circle primitives for the rounded corners*
1,1,$1+$1,$2,$3*
1,1,$1+$1,$4,$5*
1,1,$1+$1,$6,$7*
1,1,$1+$1,$8,$9*
0 Add four rect primitives between the rounded corners*
20,1,$1+$1,$2,$3,$4,$5,0*
20,1,$1+$1,$4,$5,$6,$7,0*
20,1,$1+$1,$6,$7,$8,$9,0*
20,1,$1+$1,$8,$9,$2,$3,0*%
G04 Aperture macros list end*
%ADD10C,2.200000*%
%ADD11RoundRect,0.225000X-0.250000X0.225000X-0.250000X-0.225000X0.250000X-0.225000X0.250000X0.225000X0*%
%ADD12RoundRect,0.140000X0.140000X0.170000X-0.140000X0.170000X-0.140000X-0.170000X0.140000X-0.170000X0*%
%ADD13RoundRect,0.135000X-0.185000X0.135000X-0.185000X-0.135000X0.185000X-0.135000X0.185000X0.135000X0*%
%ADD14RoundRect,0.087500X-0.225000X-0.087500X0.225000X-0.087500X0.225000X0.087500X-0.225000X0.087500X0*%
%ADD15RoundRect,0.087500X-0.087500X-0.225000X0.087500X-0.225000X0.087500X0.225000X-0.087500X0.225000X0*%
%ADD16RoundRect,0.135000X0.135000X0.185000X-0.135000X0.185000X-0.135000X-0.185000X0.135000X-0.185000X0*%
%ADD17RoundRect,0.750000X-1.250000X0.750000X-1.250000X-0.750000X1.250000X-0.750000X1.250000X0.750000X0*%
%ADD18RoundRect,0.135000X-0.135000X-0.185000X0.135000X-0.185000X0.135000X0.185000X-0.135000X0.185000X0*%
%ADD19RoundRect,0.135000X0.185000X-0.135000X0.185000X0.135000X-0.185000X0.135000X-0.185000X-0.135000X0*%
%ADD20RoundRect,0.140000X-0.140000X-0.170000X0.140000X-0.170000X0.140000X0.170000X-0.140000X0.170000X0*%
%ADD21RoundRect,0.225000X0.250000X-0.225000X0.250000X0.225000X-0.250000X0.225000X-0.250000X-0.225000X0*%
%ADD22RoundRect,0.140000X0.170000X-0.140000X0.170000X0.140000X-0.170000X0.140000X-0.170000X-0.140000X0*%
%ADD23R,1.700000X1.700000*%
%ADD24O,1.700000X1.700000*%
%ADD25RoundRect,0.140000X-0.170000X0.140000X-0.170000X-0.140000X0.170000X-0.140000X0.170000X0.140000X0*%
%ADD26RoundRect,0.150000X0.150000X-0.650000X0.150000X0.650000X-0.150000X0.650000X-0.150000X-0.650000X0*%
%ADD27R,3.100000X2.410000*%
%ADD28RoundRect,0.250000X-0.250000X-0.475000X0.250000X-0.475000X0.250000X0.475000X-0.250000X0.475000X0*%
%ADD29RoundRect,0.500000X-0.500000X-2.000000X0.500000X-2.000000X0.500000X2.000000X-0.500000X2.000000X0*%
%ADD30RoundRect,0.175000X0.325000X0.175000X-0.325000X0.175000X-0.325000X-0.175000X0.325000X-0.175000X0*%
%ADD31R,0.400000X0.800000*%
%ADD32R,0.800000X0.400000*%
%ADD33R,4.000000X4.000000*%
%ADD34R,2.950000X3.500000*%
%ADD35RoundRect,0.150000X-0.512500X-0.150000X0.512500X-0.150000X0.512500X0.150000X-0.512500X0.150000X0*%
%ADD36RoundRect,0.250000X-0.475000X0.250000X-0.475000X-0.250000X0.475000X-0.250000X0.475000X0.250000X0*%
%ADD37RoundRect,0.050000X-0.425000X-0.050000X0.425000X-0.050000X0.425000X0.050000X-0.425000X0.050000X0*%
%ADD38RoundRect,0.050000X-0.050000X-0.300000X0.050000X-0.300000X0.050000X0.300000X-0.050000X0.300000X0*%
%ADD39RoundRect,0.050000X-0.250000X-0.050000X0.250000X-0.050000X0.250000X0.050000X-0.250000X0.050000X0*%
%ADD40RoundRect,0.050000X-0.400000X-0.050000X0.400000X-0.050000X0.400000X0.050000X-0.400000X0.050000X0*%
%ADD41RoundRect,0.050000X-0.050000X-0.250000X0.050000X-0.250000X0.050000X0.250000X-0.050000X0.250000X0*%
%ADD42RoundRect,0.050000X0.050000X-0.300000X0.050000X0.300000X-0.050000X0.300000X-0.050000X-0.300000X0*%
%ADD43RoundRect,0.050000X-0.300000X-0.050000X0.300000X-0.050000X0.300000X0.050000X-0.300000X0.050000X0*%
%ADD44RoundRect,0.050000X-0.275000X-0.050000X0.275000X-0.050000X0.275000X0.050000X-0.275000X0.050000X0*%
%ADD45RoundRect,0.050000X-0.290000X-0.050000X0.290000X-0.050000X0.290000X0.050000X-0.290000X0.050000X0*%
%ADD46RoundRect,0.050000X-0.050000X-0.450000X0.050000X-0.450000X0.050000X0.450000X-0.050000X0.450000X0*%
%ADD47RoundRect,0.250000X0.550000X-1.500000X0.550000X1.500000X-0.550000X1.500000X-0.550000X-1.500000X0*%
%ADD48C,0.600000*%
%ADD49R,2.000000X1.000000*%
%ADD50O,0.600000X0.850000*%
%ADD51R,1.000000X0.520000*%
%ADD52R,1.000000X0.270000*%
%ADD53O,2.300000X1.300000*%
%ADD54O,2.600000X1.300000*%
G04 APERTURE END LIST*
D10*
%TO.C,H4*%
X221200000Y-128000000D03*
%TD*%
%TO.C,H1*%
X94000000Y-104000000D03*
%TD*%
D11*
%TO.C,C13*%
X120800000Y-108225000D03*
X120800000Y-109775000D03*
%TD*%
D12*
%TO.C,C20*%
X200080000Y-115400000D03*
X199120000Y-115400000D03*
%TD*%
D13*
%TO.C,R22*%
X119700000Y-128390000D03*
X119700000Y-129410000D03*
%TD*%
D14*
%TO.C,LSM6DSMTR1*%
X189287500Y-115312500D03*
X189287500Y-115812500D03*
X189287500Y-116312500D03*
X189287500Y-116812500D03*
D15*
X189950000Y-116975000D03*
X190450000Y-116975000D03*
X190950000Y-116975000D03*
D14*
X191612500Y-116812500D03*
X191612500Y-116312500D03*
X191612500Y-115812500D03*
X191612500Y-115312500D03*
D15*
X190950000Y-115150000D03*
X190450000Y-115150000D03*
X189950000Y-115150000D03*
%TD*%
D16*
%TO.C,R24*%
X202900000Y-111800000D03*
X201880000Y-111800000D03*
%TD*%
D12*
%TO.C,C16*%
X200070000Y-119000000D03*
X199110000Y-119000000D03*
%TD*%
D16*
%TO.C,R10*%
X202910000Y-119000000D03*
X201890000Y-119000000D03*
%TD*%
D10*
%TO.C,H2*%
X94000000Y-128000000D03*
%TD*%
D17*
%TO.C,BT1*%
X147000000Y-116700000D03*
X147000000Y-122700000D03*
%TD*%
D16*
%TO.C,R25*%
X200100000Y-111800000D03*
X199080000Y-111800000D03*
%TD*%
D18*
%TO.C,R2*%
X165490000Y-127700000D03*
X166510000Y-127700000D03*
%TD*%
D19*
%TO.C,R17*%
X113600000Y-129410000D03*
X113600000Y-128390000D03*
%TD*%
D20*
%TO.C,C7*%
X215220000Y-107200000D03*
X216180000Y-107200000D03*
%TD*%
D21*
%TO.C,C29*%
X114675000Y-121075000D03*
X114675000Y-119525000D03*
%TD*%
D22*
%TO.C,C37*%
X105175000Y-125280000D03*
X105175000Y-124320000D03*
%TD*%
D23*
%TO.C,U2*%
X168319999Y-115999999D03*
D24*
X170859999Y-115999999D03*
X173399999Y-115999999D03*
X175939999Y-115999999D03*
X178479999Y-115999999D03*
X181019999Y-115999999D03*
%TD*%
D25*
%TO.C,C23*%
X106175000Y-123320000D03*
X106175000Y-124280000D03*
%TD*%
D16*
%TO.C,R12*%
X202910000Y-117800000D03*
X201890000Y-117800000D03*
%TD*%
D12*
%TO.C,C17*%
X200080000Y-114200000D03*
X199120000Y-114200000D03*
%TD*%
D11*
%TO.C,C25*%
X100812500Y-123025000D03*
X100812500Y-124575000D03*
%TD*%
D26*
%TO.C,DRV8251ADDAR1*%
X168095000Y-127705000D03*
X169365000Y-127705000D03*
X170635000Y-127705000D03*
X171905000Y-127705000D03*
X171905000Y-122405000D03*
X170635000Y-122405000D03*
X169365000Y-122405000D03*
X168095000Y-122405000D03*
D27*
X169999999Y-125054999D03*
%TD*%
D12*
%TO.C,C15*%
X200090000Y-113000000D03*
X199130000Y-113000000D03*
%TD*%
D22*
%TO.C,C10*%
X130100000Y-110180000D03*
X130100000Y-109220000D03*
%TD*%
D16*
%TO.C,R13*%
X202910000Y-116600000D03*
X201890000Y-116600000D03*
%TD*%
D28*
%TO.C,D3*%
X91450000Y-108500000D03*
X93350000Y-108500000D03*
%TD*%
D21*
%TO.C,C30*%
X118675000Y-121075000D03*
X118675000Y-119525000D03*
%TD*%
D16*
%TO.C,R9*%
X202920000Y-113000000D03*
X201900000Y-113000000D03*
%TD*%
D19*
%TO.C,R21*%
X97300000Y-109010000D03*
X97300000Y-107990000D03*
%TD*%
D29*
%TO.C,SW1*%
X138700000Y-110612500D03*
X143450000Y-110562500D03*
X148300000Y-110612500D03*
%TD*%
D11*
%TO.C,C26*%
X102675000Y-123025000D03*
X102675000Y-124575000D03*
%TD*%
D30*
%TO.C,SW8*%
X214250000Y-129075000D03*
X209750000Y-129075000D03*
X214250000Y-126925000D03*
X209750000Y-126925000D03*
%TD*%
D13*
%TO.C,R15*%
X114800000Y-128390000D03*
X114800000Y-129410000D03*
%TD*%
D31*
%TO.C,IC1*%
X216899999Y-110099999D03*
X216099999Y-110099999D03*
X215299999Y-110099999D03*
X214499999Y-110099999D03*
X213699999Y-110099999D03*
X212899999Y-110099999D03*
X212099999Y-110099999D03*
X211299999Y-110099999D03*
X210499999Y-110099999D03*
X209699999Y-110099999D03*
X208899999Y-110099999D03*
X208099999Y-110099999D03*
X207299999Y-110099999D03*
D32*
X206049999Y-110799999D03*
X206049999Y-111599999D03*
X206049999Y-112399999D03*
X206049999Y-113199999D03*
X206049999Y-113999999D03*
X206049999Y-114799999D03*
X206049999Y-115599999D03*
X206049999Y-116399999D03*
X206049999Y-117199999D03*
X206049999Y-117999999D03*
X206049999Y-118799999D03*
X206049999Y-119599999D03*
X206049999Y-120399999D03*
X206049999Y-121199999D03*
D31*
X207299999Y-121899999D03*
X208099999Y-121899999D03*
X208899999Y-121899999D03*
X209699999Y-121899999D03*
X210499999Y-121899999D03*
X211299999Y-121899999D03*
X212099999Y-121899999D03*
X212899999Y-121899999D03*
X213699999Y-121899999D03*
X214499999Y-121899999D03*
X215299999Y-121899999D03*
X216099999Y-121899999D03*
X216899999Y-121899999D03*
D32*
X218149999Y-121199999D03*
X218149999Y-120399999D03*
X218149999Y-119599999D03*
X218149999Y-118799999D03*
X218149999Y-117999999D03*
X218149999Y-117199999D03*
X218149999Y-116399999D03*
X218149999Y-115599999D03*
X218149999Y-114799999D03*
X218149999Y-113999999D03*
X218149999Y-113199999D03*
X218149999Y-112399999D03*
X218149999Y-111599999D03*
X218149999Y-110799999D03*
D33*
X212099999Y-115999999D03*
%TD*%
D34*
%TO.C,L3*%
X112899999Y-113299999D03*
X107449999Y-113299999D03*
%TD*%
D25*
%TO.C,C38*%
X215900000Y-127520000D03*
X215900000Y-128480000D03*
%TD*%
D13*
%TO.C,R6*%
X207800000Y-106390000D03*
X207800000Y-107410000D03*
%TD*%
D35*
%TO.C,U3*%
X126287500Y-110550000D03*
X126287500Y-111500000D03*
X126287500Y-112450000D03*
X128562500Y-112450000D03*
X128562500Y-111500000D03*
X128562500Y-110550000D03*
%TD*%
D12*
%TO.C,C27*%
X111580000Y-121300000D03*
X110620000Y-121300000D03*
%TD*%
D21*
%TO.C,C31*%
X120675000Y-121075000D03*
X120675000Y-119525000D03*
%TD*%
%TO.C,C41*%
X105675000Y-121075000D03*
X105675000Y-119525000D03*
%TD*%
%TO.C,C42*%
X103675000Y-121075000D03*
X103675000Y-119525000D03*
%TD*%
D25*
%TO.C,C24*%
X104175000Y-123320000D03*
X104175000Y-124280000D03*
%TD*%
D16*
%TO.C,R14*%
X202910000Y-115400000D03*
X201890000Y-115400000D03*
%TD*%
D13*
%TO.C,R8*%
X129425000Y-113990000D03*
X129425000Y-115010000D03*
%TD*%
D12*
%TO.C,C21*%
X192180000Y-118300000D03*
X191220000Y-118300000D03*
%TD*%
D19*
%TO.C,R27*%
X110100000Y-129410000D03*
X110100000Y-128390000D03*
%TD*%
%TO.C,R28*%
X121000000Y-129410000D03*
X121000000Y-128390000D03*
%TD*%
D20*
%TO.C,C22*%
X189220000Y-118300000D03*
X190180000Y-118300000D03*
%TD*%
D13*
%TO.C,R18*%
X111325000Y-128390000D03*
X111325000Y-129410000D03*
%TD*%
D16*
%TO.C,R7*%
X131510000Y-113100000D03*
X130490000Y-113100000D03*
%TD*%
D11*
%TO.C,C36*%
X115925000Y-124025000D03*
X115925000Y-125575000D03*
%TD*%
%TO.C,C35*%
X117675000Y-124025000D03*
X117675000Y-125575000D03*
%TD*%
%TO.C,C12*%
X119100000Y-108225000D03*
X119100000Y-109775000D03*
%TD*%
D10*
%TO.C,H3*%
X221200000Y-104000000D03*
%TD*%
D25*
%TO.C,C5*%
X173600000Y-123220000D03*
X173600000Y-124180000D03*
%TD*%
D13*
%TO.C,R5*%
X208900000Y-106400000D03*
X208900000Y-107420000D03*
%TD*%
D36*
%TO.C,D2*%
X199190000Y-102850000D03*
X199190000Y-104750000D03*
%TD*%
D20*
%TO.C,C8*%
X215220000Y-106000000D03*
X216180000Y-106000000D03*
%TD*%
D13*
%TO.C,R16*%
X116000000Y-128390000D03*
X116000000Y-129410000D03*
%TD*%
D21*
%TO.C,C28*%
X116675000Y-121075000D03*
X116675000Y-119525000D03*
%TD*%
D34*
%TO.C,L2*%
X128024999Y-104999999D03*
X122574999Y-104999999D03*
%TD*%
D21*
%TO.C,C11*%
X121425000Y-113275000D03*
X121425000Y-111725000D03*
%TD*%
D19*
%TO.C,R26*%
X94800000Y-109010000D03*
X94800000Y-107990000D03*
%TD*%
D16*
%TO.C,R11*%
X202910000Y-114200000D03*
X201890000Y-114200000D03*
%TD*%
D21*
%TO.C,C43*%
X101675000Y-121075000D03*
X101675000Y-119525000D03*
%TD*%
D25*
%TO.C,C39*%
X117200000Y-128420000D03*
X117200000Y-129380000D03*
%TD*%
D20*
%TO.C,C40*%
X108640000Y-121300000D03*
X109600000Y-121300000D03*
%TD*%
D13*
%TO.C,R19*%
X112500000Y-128390000D03*
X112500000Y-129410000D03*
%TD*%
D12*
%TO.C,C18*%
X200080000Y-117800000D03*
X199120000Y-117800000D03*
%TD*%
D37*
%TO.C,BQ25792RQMR1*%
X108450000Y-122700000D03*
D38*
X108825000Y-122450000D03*
D39*
X108275000Y-123100000D03*
X108275000Y-123500000D03*
X108275000Y-123900000D03*
X108275000Y-124300000D03*
X108275000Y-124700000D03*
X108275000Y-125100000D03*
X108275000Y-125500000D03*
D40*
X108425000Y-125900000D03*
D38*
X108775000Y-126150000D03*
D41*
X109175000Y-126200000D03*
X109575000Y-126200000D03*
X109975000Y-126200000D03*
X110375000Y-126200000D03*
X110775000Y-126200000D03*
X111175000Y-126200000D03*
D42*
X111575000Y-126150000D03*
D40*
X111925000Y-125900000D03*
D43*
X112025000Y-125500000D03*
D44*
X112050000Y-125100000D03*
D45*
X112037500Y-124700000D03*
D39*
X112075000Y-124300000D03*
X112075000Y-123900000D03*
X112075000Y-123500000D03*
X112075000Y-123100000D03*
D38*
X111525000Y-122450000D03*
D37*
X111900000Y-122700000D03*
D46*
X110975000Y-122700000D03*
X110575000Y-122700000D03*
X110175000Y-122700000D03*
X109775000Y-122700000D03*
X109375000Y-122700000D03*
%TD*%
D36*
%TO.C,D1*%
X202200000Y-102850000D03*
X202200000Y-104750000D03*
%TD*%
D12*
%TO.C,C19*%
X200080000Y-116600000D03*
X199120000Y-116600000D03*
%TD*%
D21*
%TO.C,C32*%
X122675000Y-121075000D03*
X122675000Y-119525000D03*
%TD*%
D19*
%TO.C,R20*%
X96100000Y-109020000D03*
X96100000Y-108000000D03*
%TD*%
D16*
%TO.C,R4*%
X212310000Y-105900000D03*
X211290000Y-105900000D03*
%TD*%
D20*
%TO.C,C9*%
X211320000Y-104800000D03*
X212280000Y-104800000D03*
%TD*%
D13*
%TO.C,R23*%
X118400000Y-128390000D03*
X118400000Y-129410000D03*
%TD*%
D47*
%TO.C,C6*%
X178800000Y-125500000D03*
X178800000Y-119900000D03*
%TD*%
D48*
%TO.C,J1*%
X94950000Y-113000000D03*
D49*
X91849999Y-114599999D03*
X91849999Y-117399999D03*
D50*
X94949999Y-118999999D03*
D51*
X96049999Y-112899999D03*
X96049999Y-113649999D03*
D52*
X96049999Y-114249999D03*
X96049999Y-115749999D03*
X96049999Y-116749999D03*
X96049999Y-117749999D03*
D51*
X96049999Y-118349999D03*
X96049999Y-119099999D03*
X96049999Y-119099999D03*
X96049999Y-118349999D03*
D52*
X96049999Y-117249999D03*
X96049999Y-116249999D03*
X96049999Y-115249999D03*
X96049999Y-114749999D03*
D51*
X96049999Y-113649999D03*
X96049999Y-112899999D03*
D53*
X95674999Y-111679999D03*
D54*
X91849999Y-111679999D03*
D53*
X95674999Y-120319999D03*
D54*
X91849999Y-120319999D03*
%TD*%
M02*
