%TF.GenerationSoftware,KiCad,Pcbnew,(7.0.0)*%
%TF.CreationDate,2023-05-08T11:18:25-04:00*%
%TF.ProjectId,AutoTiller,4175746f-5469-46c6-9c65-722e6b696361,rev?*%
%TF.SameCoordinates,Original*%
%TF.FileFunction,Soldermask,Bot*%
%TF.FilePolarity,Negative*%
%FSLAX46Y46*%
G04 Gerber Fmt 4.6, Leading zero omitted, Abs format (unit mm)*
G04 Created by KiCad (PCBNEW (7.0.0)) date 2023-05-08 11:18:25*
%MOMM*%
%LPD*%
G01*
G04 APERTURE LIST*
G04 Aperture macros list*
%AMRoundRect*
0 Rectangle with rounded corners*
0 $1 Rounding radius*
0 $2 $3 $4 $5 $6 $7 $8 $9 X,Y pos of 4 corners*
0 Add a 4 corners polygon primitive as box body*
4,1,4,$2,$3,$4,$5,$6,$7,$8,$9,$2,$3,0*
0 Add four circle primitives for the rounded corners*
1,1,$1+$1,$2,$3*
1,1,$1+$1,$4,$5*
1,1,$1+$1,$6,$7*
1,1,$1+$1,$8,$9*
0 Add four rect primitives between the rounded corners*
20,1,$1+$1,$2,$3,$4,$5,0*
20,1,$1+$1,$4,$5,$6,$7,0*
20,1,$1+$1,$6,$7,$8,$9,0*
20,1,$1+$1,$8,$9,$2,$3,0*%
G04 Aperture macros list end*
%ADD10C,2.200000*%
%ADD11R,1.700000X1.700000*%
%ADD12O,1.700000X1.700000*%
%ADD13C,0.600000*%
%ADD14O,0.600000X0.850000*%
%ADD15O,2.300000X1.300000*%
%ADD16O,2.600000X1.300000*%
%ADD17RoundRect,0.175000X-0.325000X-0.175000X0.325000X-0.175000X0.325000X0.175000X-0.325000X0.175000X0*%
%ADD18R,0.740000X2.400000*%
%ADD19RoundRect,0.140000X0.170000X-0.140000X0.170000X0.140000X-0.170000X0.140000X-0.170000X-0.140000X0*%
%ADD20RoundRect,0.140000X-0.170000X0.140000X-0.170000X-0.140000X0.170000X-0.140000X0.170000X0.140000X0*%
%ADD21C,0.250000*%
G04 APERTURE END LIST*
D10*
%TO.C,H4*%
X221200000Y-128000000D03*
%TD*%
%TO.C,H1*%
X94000000Y-104000000D03*
%TD*%
%TO.C,H2*%
X94000000Y-128000000D03*
%TD*%
D11*
%TO.C,U2*%
X168319999Y-115999999D03*
D12*
X170859999Y-115999999D03*
X173399999Y-115999999D03*
X175939999Y-115999999D03*
X178479999Y-115999999D03*
X181019999Y-115999999D03*
%TD*%
D10*
%TO.C,H3*%
X221200000Y-104000000D03*
%TD*%
D13*
%TO.C,J1*%
X94950000Y-113000000D03*
D14*
X94949999Y-118999999D03*
D15*
X95674999Y-111679999D03*
D16*
X91849999Y-111679999D03*
D15*
X95674999Y-120319999D03*
D16*
X91849999Y-120319999D03*
%TD*%
D17*
%TO.C,SW6*%
X128750000Y-127075000D03*
X133250000Y-127075000D03*
X128750000Y-124925000D03*
X133250000Y-124925000D03*
%TD*%
D18*
%TO.C,J2*%
X218469999Y-118149999D03*
X218469999Y-114249999D03*
X217199999Y-118149999D03*
X217199999Y-114249999D03*
X215929999Y-118149999D03*
X215929999Y-114249999D03*
%TD*%
D19*
%TO.C,C33*%
X108200000Y-123780000D03*
X108200000Y-122820000D03*
%TD*%
D17*
%TO.C,SW7*%
X128750000Y-107075000D03*
X133250000Y-107075000D03*
X128750000Y-104925000D03*
X133250000Y-104925000D03*
%TD*%
%TO.C,SW4*%
X158750000Y-107075000D03*
X163250000Y-107075000D03*
X158750000Y-104925000D03*
X163250000Y-104925000D03*
%TD*%
%TO.C,SW2*%
X187750000Y-107075000D03*
X192250000Y-107075000D03*
X187750000Y-104925000D03*
X192250000Y-104925000D03*
%TD*%
D20*
%TO.C,C34*%
X112200000Y-122820000D03*
X112200000Y-123780000D03*
%TD*%
D21*
%TO.C,MMC5603NJ1*%
X158200000Y-117000000D03*
X157800000Y-117000000D03*
X158200000Y-117400000D03*
X157800000Y-117400000D03*
%TD*%
D17*
%TO.C,SW5*%
X158750000Y-127075000D03*
X163250000Y-127075000D03*
X158750000Y-124925000D03*
X163250000Y-124925000D03*
%TD*%
%TO.C,SW3*%
X187750000Y-127075000D03*
X192250000Y-127075000D03*
X187750000Y-124925000D03*
X192250000Y-124925000D03*
%TD*%
D19*
%TO.C,C14*%
X160000000Y-117680000D03*
X160000000Y-116720000D03*
%TD*%
M02*
