%TF.GenerationSoftware,KiCad,Pcbnew,7.0.2*%
%TF.CreationDate,2023-05-28T21:21:49-04:00*%
%TF.ProjectId,AutoTiller,4175746f-5469-46c6-9c65-722e6b696361,rev?*%
%TF.SameCoordinates,Original*%
%TF.FileFunction,Paste,Top*%
%TF.FilePolarity,Positive*%
%FSLAX46Y46*%
G04 Gerber Fmt 4.6, Leading zero omitted, Abs format (unit mm)*
G04 Created by KiCad (PCBNEW 7.0.2) date 2023-05-28 21:21:49*
%MOMM*%
%LPD*%
G01*
G04 APERTURE LIST*
G04 Aperture macros list*
%AMRoundRect*
0 Rectangle with rounded corners*
0 $1 Rounding radius*
0 $2 $3 $4 $5 $6 $7 $8 $9 X,Y pos of 4 corners*
0 Add a 4 corners polygon primitive as box body*
4,1,4,$2,$3,$4,$5,$6,$7,$8,$9,$2,$3,0*
0 Add four circle primitives for the rounded corners*
1,1,$1+$1,$2,$3*
1,1,$1+$1,$4,$5*
1,1,$1+$1,$6,$7*
1,1,$1+$1,$8,$9*
0 Add four rect primitives between the rounded corners*
20,1,$1+$1,$2,$3,$4,$5,0*
20,1,$1+$1,$4,$5,$6,$7,0*
20,1,$1+$1,$6,$7,$8,$9,0*
20,1,$1+$1,$8,$9,$2,$3,0*%
G04 Aperture macros list end*
%ADD10RoundRect,0.140000X-0.170000X0.140000X-0.170000X-0.140000X0.170000X-0.140000X0.170000X0.140000X0*%
%ADD11RoundRect,0.140000X-0.140000X-0.170000X0.140000X-0.170000X0.140000X0.170000X-0.140000X0.170000X0*%
%ADD12RoundRect,0.135000X0.185000X-0.135000X0.185000X0.135000X-0.185000X0.135000X-0.185000X-0.135000X0*%
%ADD13RoundRect,0.135000X-0.185000X0.135000X-0.185000X-0.135000X0.185000X-0.135000X0.185000X0.135000X0*%
%ADD14R,2.000000X1.000000*%
%ADD15R,1.000000X0.520000*%
%ADD16R,1.000000X0.270000*%
%ADD17R,2.350000X3.500000*%
%ADD18RoundRect,0.140000X0.170000X-0.140000X0.170000X0.140000X-0.170000X0.140000X-0.170000X-0.140000X0*%
%ADD19RoundRect,0.225000X0.250000X-0.225000X0.250000X0.225000X-0.250000X0.225000X-0.250000X-0.225000X0*%
%ADD20RoundRect,0.150000X-0.512500X-0.150000X0.512500X-0.150000X0.512500X0.150000X-0.512500X0.150000X0*%
%ADD21RoundRect,0.500000X2.000000X-0.500000X2.000000X0.500000X-2.000000X0.500000X-2.000000X-0.500000X0*%
%ADD22RoundRect,0.050000X-0.425000X-0.050000X0.425000X-0.050000X0.425000X0.050000X-0.425000X0.050000X0*%
%ADD23RoundRect,0.050000X-0.050000X-0.300000X0.050000X-0.300000X0.050000X0.300000X-0.050000X0.300000X0*%
%ADD24RoundRect,0.050000X-0.250000X-0.050000X0.250000X-0.050000X0.250000X0.050000X-0.250000X0.050000X0*%
%ADD25RoundRect,0.050000X-0.400000X-0.050000X0.400000X-0.050000X0.400000X0.050000X-0.400000X0.050000X0*%
%ADD26RoundRect,0.050000X-0.050000X-0.250000X0.050000X-0.250000X0.050000X0.250000X-0.050000X0.250000X0*%
%ADD27RoundRect,0.050000X0.050000X-0.300000X0.050000X0.300000X-0.050000X0.300000X-0.050000X-0.300000X0*%
%ADD28RoundRect,0.050000X-0.300000X-0.050000X0.300000X-0.050000X0.300000X0.050000X-0.300000X0.050000X0*%
%ADD29RoundRect,0.050000X-0.275000X-0.050000X0.275000X-0.050000X0.275000X0.050000X-0.275000X0.050000X0*%
%ADD30RoundRect,0.050000X-0.290000X-0.050000X0.290000X-0.050000X0.290000X0.050000X-0.290000X0.050000X0*%
%ADD31RoundRect,0.050000X-0.050000X-0.450000X0.050000X-0.450000X0.050000X0.450000X-0.050000X0.450000X0*%
%ADD32RoundRect,0.250000X-0.250000X-0.475000X0.250000X-0.475000X0.250000X0.475000X-0.250000X0.475000X0*%
%ADD33RoundRect,0.087500X-0.225000X-0.087500X0.225000X-0.087500X0.225000X0.087500X-0.225000X0.087500X0*%
%ADD34RoundRect,0.087500X-0.087500X-0.225000X0.087500X-0.225000X0.087500X0.225000X-0.087500X0.225000X0*%
%ADD35RoundRect,0.225000X-0.250000X0.225000X-0.250000X-0.225000X0.250000X-0.225000X0.250000X0.225000X0*%
%ADD36R,1.500000X2.500000*%
%ADD37RoundRect,0.250000X0.550000X-1.500000X0.550000X1.500000X-0.550000X1.500000X-0.550000X-1.500000X0*%
%ADD38RoundRect,0.135000X0.135000X0.185000X-0.135000X0.185000X-0.135000X-0.185000X0.135000X-0.185000X0*%
%ADD39RoundRect,0.242500X-0.382500X0.242500X-0.382500X-0.242500X0.382500X-0.242500X0.382500X0.242500X0*%
%ADD40RoundRect,0.150000X-0.150000X0.650000X-0.150000X-0.650000X0.150000X-0.650000X0.150000X0.650000X0*%
%ADD41RoundRect,0.175000X0.325000X0.175000X-0.325000X0.175000X-0.325000X-0.175000X0.325000X-0.175000X0*%
%ADD42RoundRect,0.140000X0.140000X0.170000X-0.140000X0.170000X-0.140000X-0.170000X0.140000X-0.170000X0*%
%ADD43R,0.400000X0.800000*%
%ADD44R,0.800000X0.400000*%
%ADD45R,4.000000X4.000000*%
G04 APERTURE END LIST*
D10*
%TO.C,C3*%
X137200000Y-119920000D03*
X137200000Y-120880000D03*
%TD*%
D11*
%TO.C,C13*%
X139340000Y-116900000D03*
X140300000Y-116900000D03*
%TD*%
D12*
%TO.C,R1*%
X183600000Y-110790000D03*
X183600000Y-109770000D03*
%TD*%
D13*
%TO.C,R26*%
X171600000Y-127790000D03*
X171600000Y-128810000D03*
%TD*%
%TO.C,R19*%
X131600000Y-128490000D03*
X131600000Y-129510000D03*
%TD*%
D14*
%TO.C,J1*%
X122850000Y-118600000D03*
X122850000Y-121400000D03*
D15*
X127050000Y-116900000D03*
X127050000Y-117650000D03*
D16*
X127050000Y-118250000D03*
X127050000Y-119750000D03*
X127050000Y-120750000D03*
X127050000Y-121750000D03*
D15*
X127050000Y-122350000D03*
X127050000Y-123100000D03*
X127050000Y-123100000D03*
X127050000Y-122350000D03*
D16*
X127050000Y-121250000D03*
X127050000Y-120250000D03*
X127050000Y-119250000D03*
X127050000Y-118750000D03*
D15*
X127050000Y-117650000D03*
X127050000Y-116900000D03*
%TD*%
D17*
%TO.C,L2*%
X165425000Y-108000000D03*
X159375000Y-108000000D03*
%TD*%
D18*
%TO.C,C9*%
X182400000Y-107500000D03*
X182400000Y-106540000D03*
%TD*%
D19*
%TO.C,C24*%
X145700000Y-116675000D03*
X145700000Y-115125000D03*
%TD*%
D13*
%TO.C,R16*%
X144200000Y-128490000D03*
X144200000Y-129510000D03*
%TD*%
D11*
%TO.C,C29*%
X190120000Y-111800000D03*
X191080000Y-111800000D03*
%TD*%
D12*
%TO.C,R15*%
X186000000Y-110790000D03*
X186000000Y-109770000D03*
%TD*%
D20*
%TO.C,U1*%
X160862500Y-113050000D03*
X160862500Y-114000000D03*
X160862500Y-114950000D03*
X163137500Y-114950000D03*
X163137500Y-114000000D03*
X163137500Y-113050000D03*
%TD*%
D12*
%TO.C,R17*%
X137200000Y-129510000D03*
X137200000Y-128490000D03*
%TD*%
D21*
%TO.C,SW5*%
X130512500Y-111475000D03*
X130462500Y-106725000D03*
X130512500Y-101875000D03*
%TD*%
D22*
%TO.C,BQ25792RQMR1*%
X139475000Y-118800000D03*
D23*
X139850000Y-118550000D03*
D24*
X139300000Y-119200000D03*
X139300000Y-119600000D03*
X139300000Y-120000000D03*
X139300000Y-120400000D03*
X139300000Y-120800000D03*
X139300000Y-121200000D03*
X139300000Y-121600000D03*
D25*
X139450000Y-122000000D03*
D23*
X139800000Y-122250000D03*
D26*
X140200000Y-122300000D03*
X140600000Y-122300000D03*
X141000000Y-122300000D03*
X141400000Y-122300000D03*
X141800000Y-122300000D03*
X142200000Y-122300000D03*
D27*
X142600000Y-122250000D03*
D25*
X142950000Y-122000000D03*
D28*
X143050000Y-121600000D03*
D29*
X143075000Y-121200000D03*
D30*
X143062500Y-120800000D03*
D24*
X143100000Y-120400000D03*
X143100000Y-120000000D03*
X143100000Y-119600000D03*
X143100000Y-119200000D03*
D23*
X142550000Y-118550000D03*
D22*
X142925000Y-118800000D03*
D31*
X142000000Y-118800000D03*
X141600000Y-118800000D03*
X141200000Y-118800000D03*
X140800000Y-118800000D03*
X140400000Y-118800000D03*
%TD*%
D32*
%TO.C,D1*%
X123550000Y-132400000D03*
X125450000Y-132400000D03*
%TD*%
D12*
%TO.C,R13*%
X135800000Y-129510000D03*
X135800000Y-128490000D03*
%TD*%
%TO.C,R4*%
X182400000Y-110810000D03*
X182400000Y-109790000D03*
%TD*%
D33*
%TO.C,LSM6DSMTR1*%
X185787500Y-132287500D03*
X185787500Y-132787500D03*
X185787500Y-133287500D03*
X185787500Y-133787500D03*
D34*
X186450000Y-133950000D03*
X186950000Y-133950000D03*
X187450000Y-133950000D03*
D33*
X188112500Y-133787500D03*
X188112500Y-133287500D03*
X188112500Y-132787500D03*
X188112500Y-132287500D03*
D34*
X187450000Y-132125000D03*
X186950000Y-132125000D03*
X186450000Y-132125000D03*
%TD*%
D35*
%TO.C,C28*%
X148400000Y-119325000D03*
X148400000Y-120875000D03*
%TD*%
D12*
%TO.C,R25*%
X177800000Y-107310000D03*
X177800000Y-106290000D03*
%TD*%
%TO.C,R10*%
X145400000Y-120710000D03*
X145400000Y-119690000D03*
%TD*%
D19*
%TO.C,C16*%
X132700000Y-116675000D03*
X132700000Y-115125000D03*
%TD*%
%TO.C,C30*%
X151700000Y-116675000D03*
X151700000Y-115125000D03*
%TD*%
D18*
%TO.C,C38*%
X164675000Y-133380000D03*
X164675000Y-132420000D03*
%TD*%
%TO.C,C2*%
X183600000Y-107470000D03*
X183600000Y-106510000D03*
%TD*%
D19*
%TO.C,C33*%
X150200000Y-116675000D03*
X150200000Y-115125000D03*
%TD*%
D35*
%TO.C,C8*%
X132200000Y-119625000D03*
X132200000Y-121175000D03*
%TD*%
D32*
%TO.C,D3*%
X123600000Y-138410000D03*
X125500000Y-138410000D03*
%TD*%
D11*
%TO.C,C32*%
X187320000Y-109200000D03*
X188280000Y-109200000D03*
%TD*%
%TO.C,C34*%
X187320000Y-107800000D03*
X188280000Y-107800000D03*
%TD*%
D18*
%TO.C,C17*%
X135800000Y-121880000D03*
X135800000Y-120920000D03*
%TD*%
D36*
%TO.C,L1*%
X143050000Y-113400000D03*
X139350000Y-113400000D03*
%TD*%
D13*
%TO.C,R22*%
X130200000Y-128490000D03*
X130200000Y-129510000D03*
%TD*%
%TO.C,R21*%
X134400000Y-128490000D03*
X134400000Y-129510000D03*
%TD*%
%TO.C,R20*%
X133000000Y-128490000D03*
X133000000Y-129510000D03*
%TD*%
D19*
%TO.C,C19*%
X136700000Y-116675000D03*
X136700000Y-115125000D03*
%TD*%
D10*
%TO.C,C1*%
X134200000Y-119920000D03*
X134200000Y-120880000D03*
%TD*%
D13*
%TO.C,R23*%
X128800000Y-128490000D03*
X128800000Y-129510000D03*
%TD*%
D37*
%TO.C,C40*%
X160200000Y-134690000D03*
X160200000Y-129090000D03*
%TD*%
D18*
%TO.C,C15*%
X180000000Y-107480000D03*
X180000000Y-106520000D03*
%TD*%
D38*
%TO.C,R18*%
X188310000Y-110600000D03*
X187290000Y-110600000D03*
%TD*%
D12*
%TO.C,R5*%
X184800000Y-110790000D03*
X184800000Y-109770000D03*
%TD*%
D18*
%TO.C,C20*%
X186000000Y-107480000D03*
X186000000Y-106520000D03*
%TD*%
D35*
%TO.C,C25*%
X146800000Y-119325000D03*
X146800000Y-120875000D03*
%TD*%
D19*
%TO.C,C4*%
X157200000Y-115975000D03*
X157200000Y-114425000D03*
%TD*%
%TO.C,C27*%
X148700000Y-116675000D03*
X148700000Y-115125000D03*
%TD*%
D10*
%TO.C,C31*%
X145600000Y-128520000D03*
X145600000Y-129480000D03*
%TD*%
D32*
%TO.C,D2*%
X123550000Y-135410000D03*
X125450000Y-135410000D03*
%TD*%
D19*
%TO.C,C22*%
X134700000Y-116675000D03*
X134700000Y-115125000D03*
%TD*%
D35*
%TO.C,C18*%
X157400000Y-111325000D03*
X157400000Y-112875000D03*
%TD*%
D12*
%TO.C,R3*%
X147200000Y-129510000D03*
X147200000Y-128490000D03*
%TD*%
%TO.C,R2*%
X138600000Y-129510000D03*
X138600000Y-128490000D03*
%TD*%
D39*
%TO.C,DRV8251ADDAR1*%
X168875000Y-130845000D03*
X167325000Y-130845000D03*
X168875000Y-132045000D03*
X167325000Y-132045000D03*
D40*
X170005000Y-128795000D03*
X168735000Y-128795000D03*
X167465000Y-128795000D03*
X166195000Y-128795000D03*
X166195000Y-134095000D03*
X167465000Y-134095000D03*
X168735000Y-134095000D03*
X170005000Y-134095000D03*
%TD*%
D13*
%TO.C,R8*%
X164912500Y-116490000D03*
X164912500Y-117510000D03*
%TD*%
D41*
%TO.C,SW8*%
X195050000Y-108075000D03*
X190550000Y-108075000D03*
X195050000Y-105925000D03*
X190550000Y-105925000D03*
%TD*%
D13*
%TO.C,R24*%
X177800000Y-109890000D03*
X177800000Y-110910000D03*
%TD*%
D12*
%TO.C,R11*%
X142800000Y-129510000D03*
X142800000Y-128490000D03*
%TD*%
D42*
%TO.C,C35*%
X188430000Y-135437500D03*
X187470000Y-135437500D03*
%TD*%
D43*
%TO.C,IC1*%
X191800000Y-114100000D03*
X191000000Y-114100000D03*
X190200000Y-114100000D03*
X189400000Y-114100000D03*
X188600000Y-114100000D03*
X187800000Y-114100000D03*
X187000000Y-114100000D03*
X186200000Y-114100000D03*
X185400000Y-114100000D03*
X184600000Y-114100000D03*
X183800000Y-114100000D03*
X183000000Y-114100000D03*
X182200000Y-114100000D03*
D44*
X180950000Y-114800000D03*
X180950000Y-115600000D03*
X180950000Y-116400000D03*
X180950000Y-117200000D03*
X180950000Y-118000000D03*
X180950000Y-118800000D03*
X180950000Y-119600000D03*
X180950000Y-120400000D03*
X180950000Y-121200000D03*
X180950000Y-122000000D03*
X180950000Y-122800000D03*
X180950000Y-123600000D03*
X180950000Y-124400000D03*
X180950000Y-125200000D03*
D43*
X182200000Y-125900000D03*
X183000000Y-125900000D03*
X183800000Y-125900000D03*
X184600000Y-125900000D03*
X185400000Y-125900000D03*
X186200000Y-125900000D03*
X187000000Y-125900000D03*
X187800000Y-125900000D03*
X188600000Y-125900000D03*
X189400000Y-125900000D03*
X190200000Y-125900000D03*
X191000000Y-125900000D03*
X191800000Y-125900000D03*
D44*
X193050000Y-125200000D03*
X193050000Y-124400000D03*
X193050000Y-123600000D03*
X193050000Y-122800000D03*
X193050000Y-122000000D03*
X193050000Y-121200000D03*
X193050000Y-120400000D03*
X193050000Y-119600000D03*
X193050000Y-118800000D03*
X193050000Y-118000000D03*
X193050000Y-117200000D03*
X193050000Y-116400000D03*
X193050000Y-115600000D03*
X193050000Y-114800000D03*
D45*
X187000000Y-120000000D03*
%TD*%
D11*
%TO.C,C26*%
X190120000Y-110400000D03*
X191080000Y-110400000D03*
%TD*%
D18*
%TO.C,C10*%
X184800000Y-107480000D03*
X184800000Y-106520000D03*
%TD*%
D19*
%TO.C,C23*%
X147200000Y-116675000D03*
X147200000Y-115125000D03*
%TD*%
D18*
%TO.C,C12*%
X181200000Y-107480000D03*
X181200000Y-106520000D03*
%TD*%
D12*
%TO.C,R9*%
X180000000Y-110790000D03*
X180000000Y-109770000D03*
%TD*%
D38*
%TO.C,R7*%
X166522500Y-115350000D03*
X165502500Y-115350000D03*
%TD*%
D42*
%TO.C,C21*%
X143080000Y-116900000D03*
X142120000Y-116900000D03*
%TD*%
D11*
%TO.C,C42*%
X185470000Y-135437500D03*
X186430000Y-135437500D03*
%TD*%
D35*
%TO.C,C5*%
X130200000Y-119625000D03*
X130200000Y-121175000D03*
%TD*%
%TO.C,C14*%
X155712500Y-111225000D03*
X155712500Y-112775000D03*
%TD*%
D18*
%TO.C,C11*%
X167312500Y-112960000D03*
X167312500Y-112000000D03*
%TD*%
D13*
%TO.C,R14*%
X141400000Y-128490000D03*
X141400000Y-129510000D03*
%TD*%
D12*
%TO.C,R6*%
X181200000Y-110790000D03*
X181200000Y-109770000D03*
%TD*%
D13*
%TO.C,R12*%
X140000000Y-128490000D03*
X140000000Y-129510000D03*
%TD*%
M02*
