%TF.GenerationSoftware,KiCad,Pcbnew,7.0.2*%
%TF.CreationDate,2023-05-28T21:21:46-04:00*%
%TF.ProjectId,AutoTiller,4175746f-5469-46c6-9c65-722e6b696361,rev?*%
%TF.SameCoordinates,Original*%
%TF.FileFunction,Drillmap*%
%TF.FilePolarity,Positive*%
%FSLAX45Y45*%
G04 Gerber Fmt 4.5, Leading zero omitted, Abs format (unit mm)*
G04 Created by KiCad (PCBNEW 7.0.2) date 2023-05-28 21:21:46*
%MOMM*%
%LPD*%
G01*
G04 APERTURE LIST*
%ADD10C,0.150000*%
%ADD11C,0.200000*%
%ADD12C,0.060000*%
%ADD13C,0.220000*%
G04 APERTURE END LIST*
D10*
X20000000Y-8400000D02*
X20000000Y-15600000D01*
X20000000Y-8400000D02*
G75*
G03*
X19600000Y-8000000I-400000J0D01*
G01*
X12700000Y-10035000D02*
X12000000Y-10035000D01*
X19600000Y-16000000D02*
G75*
G03*
X20000000Y-15600000I0J400000D01*
G01*
X12000000Y-15600000D02*
G75*
G03*
X12400000Y-16000000I400000J0D01*
G01*
X12000000Y-15600000D02*
X12000000Y-11300000D01*
X12400000Y-8000000D02*
G75*
G03*
X12000000Y-8400000I0J-400000D01*
G01*
X19600000Y-16000000D02*
X12400000Y-16000000D01*
X12000000Y-8400000D02*
X12000000Y-10035000D01*
X12700000Y-11300000D02*
X12700000Y-10035000D01*
X12000000Y-11300000D02*
X12700000Y-11300000D01*
X12400000Y-8000000D02*
X19600000Y-8000000D01*
D11*
D12*
X12565000Y-11670000D02*
X12625000Y-11730000D01*
X12625000Y-11670000D02*
X12565000Y-11730000D01*
X12565000Y-12270000D02*
X12625000Y-12330000D01*
X12625000Y-12270000D02*
X12565000Y-12330000D01*
D11*
X12565000Y-12287500D02*
X12565000Y-12312500D01*
X12565000Y-12312500D02*
G75*
G03*
X12625000Y-12312500I30000J0D01*
G01*
X12625000Y-12312500D02*
X12625000Y-12287500D01*
X12625000Y-12287500D02*
G75*
G03*
X12565000Y-12287500I-30000J0D01*
G01*
D13*
X12510000Y-8400000D02*
G75*
G03*
X12510000Y-8400000I-110000J0D01*
G01*
X12510000Y-15600000D02*
G75*
G03*
X12510000Y-15600000I-110000J0D01*
G01*
X19710000Y-8400000D02*
G75*
G03*
X19710000Y-8400000I-110000J0D01*
G01*
X19710000Y-15600000D02*
G75*
G03*
X19710000Y-15600000I-110000J0D01*
G01*
D11*
X12240119Y-16320024D02*
X12240119Y-16120024D01*
X12240119Y-16120024D02*
X12287738Y-16120024D01*
X12287738Y-16120024D02*
X12316309Y-16129548D01*
X12316309Y-16129548D02*
X12335357Y-16148595D01*
X12335357Y-16148595D02*
X12344881Y-16167643D01*
X12344881Y-16167643D02*
X12354405Y-16205738D01*
X12354405Y-16205738D02*
X12354405Y-16234309D01*
X12354405Y-16234309D02*
X12344881Y-16272405D01*
X12344881Y-16272405D02*
X12335357Y-16291452D01*
X12335357Y-16291452D02*
X12316309Y-16310500D01*
X12316309Y-16310500D02*
X12287738Y-16320024D01*
X12287738Y-16320024D02*
X12240119Y-16320024D01*
X12440119Y-16320024D02*
X12440119Y-16186690D01*
X12440119Y-16224786D02*
X12449643Y-16205738D01*
X12449643Y-16205738D02*
X12459167Y-16196214D01*
X12459167Y-16196214D02*
X12478214Y-16186690D01*
X12478214Y-16186690D02*
X12497262Y-16186690D01*
X12563928Y-16320024D02*
X12563928Y-16186690D01*
X12563928Y-16120024D02*
X12554405Y-16129548D01*
X12554405Y-16129548D02*
X12563928Y-16139071D01*
X12563928Y-16139071D02*
X12573452Y-16129548D01*
X12573452Y-16129548D02*
X12563928Y-16120024D01*
X12563928Y-16120024D02*
X12563928Y-16139071D01*
X12687738Y-16320024D02*
X12668690Y-16310500D01*
X12668690Y-16310500D02*
X12659167Y-16291452D01*
X12659167Y-16291452D02*
X12659167Y-16120024D01*
X12792500Y-16320024D02*
X12773452Y-16310500D01*
X12773452Y-16310500D02*
X12763928Y-16291452D01*
X12763928Y-16291452D02*
X12763928Y-16120024D01*
X13021071Y-16320024D02*
X13021071Y-16120024D01*
X13021071Y-16120024D02*
X13087738Y-16262881D01*
X13087738Y-16262881D02*
X13154405Y-16120024D01*
X13154405Y-16120024D02*
X13154405Y-16320024D01*
X13335357Y-16320024D02*
X13335357Y-16215262D01*
X13335357Y-16215262D02*
X13325833Y-16196214D01*
X13325833Y-16196214D02*
X13306786Y-16186690D01*
X13306786Y-16186690D02*
X13268690Y-16186690D01*
X13268690Y-16186690D02*
X13249643Y-16196214D01*
X13335357Y-16310500D02*
X13316309Y-16320024D01*
X13316309Y-16320024D02*
X13268690Y-16320024D01*
X13268690Y-16320024D02*
X13249643Y-16310500D01*
X13249643Y-16310500D02*
X13240119Y-16291452D01*
X13240119Y-16291452D02*
X13240119Y-16272405D01*
X13240119Y-16272405D02*
X13249643Y-16253357D01*
X13249643Y-16253357D02*
X13268690Y-16243833D01*
X13268690Y-16243833D02*
X13316309Y-16243833D01*
X13316309Y-16243833D02*
X13335357Y-16234309D01*
X13430595Y-16186690D02*
X13430595Y-16386690D01*
X13430595Y-16196214D02*
X13449643Y-16186690D01*
X13449643Y-16186690D02*
X13487738Y-16186690D01*
X13487738Y-16186690D02*
X13506786Y-16196214D01*
X13506786Y-16196214D02*
X13516309Y-16205738D01*
X13516309Y-16205738D02*
X13525833Y-16224786D01*
X13525833Y-16224786D02*
X13525833Y-16281928D01*
X13525833Y-16281928D02*
X13516309Y-16300976D01*
X13516309Y-16300976D02*
X13506786Y-16310500D01*
X13506786Y-16310500D02*
X13487738Y-16320024D01*
X13487738Y-16320024D02*
X13449643Y-16320024D01*
X13449643Y-16320024D02*
X13430595Y-16310500D01*
X13611548Y-16300976D02*
X13621071Y-16310500D01*
X13621071Y-16310500D02*
X13611548Y-16320024D01*
X13611548Y-16320024D02*
X13602024Y-16310500D01*
X13602024Y-16310500D02*
X13611548Y-16300976D01*
X13611548Y-16300976D02*
X13611548Y-16320024D01*
X13611548Y-16196214D02*
X13621071Y-16205738D01*
X13621071Y-16205738D02*
X13611548Y-16215262D01*
X13611548Y-16215262D02*
X13602024Y-16205738D01*
X13602024Y-16205738D02*
X13611548Y-16196214D01*
X13611548Y-16196214D02*
X13611548Y-16215262D01*
D12*
X11932500Y-16617500D02*
X11992500Y-16677500D01*
X11992500Y-16617500D02*
X11932500Y-16677500D01*
D11*
X12278214Y-16540024D02*
X12297262Y-16540024D01*
X12297262Y-16540024D02*
X12316309Y-16549548D01*
X12316309Y-16549548D02*
X12325833Y-16559071D01*
X12325833Y-16559071D02*
X12335357Y-16578119D01*
X12335357Y-16578119D02*
X12344881Y-16616214D01*
X12344881Y-16616214D02*
X12344881Y-16663833D01*
X12344881Y-16663833D02*
X12335357Y-16701928D01*
X12335357Y-16701928D02*
X12325833Y-16720976D01*
X12325833Y-16720976D02*
X12316309Y-16730500D01*
X12316309Y-16730500D02*
X12297262Y-16740024D01*
X12297262Y-16740024D02*
X12278214Y-16740024D01*
X12278214Y-16740024D02*
X12259167Y-16730500D01*
X12259167Y-16730500D02*
X12249643Y-16720976D01*
X12249643Y-16720976D02*
X12240119Y-16701928D01*
X12240119Y-16701928D02*
X12230595Y-16663833D01*
X12230595Y-16663833D02*
X12230595Y-16616214D01*
X12230595Y-16616214D02*
X12240119Y-16578119D01*
X12240119Y-16578119D02*
X12249643Y-16559071D01*
X12249643Y-16559071D02*
X12259167Y-16549548D01*
X12259167Y-16549548D02*
X12278214Y-16540024D01*
X12430595Y-16720976D02*
X12440119Y-16730500D01*
X12440119Y-16730500D02*
X12430595Y-16740024D01*
X12430595Y-16740024D02*
X12421071Y-16730500D01*
X12421071Y-16730500D02*
X12430595Y-16720976D01*
X12430595Y-16720976D02*
X12430595Y-16740024D01*
X12611548Y-16540024D02*
X12573452Y-16540024D01*
X12573452Y-16540024D02*
X12554405Y-16549548D01*
X12554405Y-16549548D02*
X12544881Y-16559071D01*
X12544881Y-16559071D02*
X12525833Y-16587643D01*
X12525833Y-16587643D02*
X12516309Y-16625738D01*
X12516309Y-16625738D02*
X12516309Y-16701928D01*
X12516309Y-16701928D02*
X12525833Y-16720976D01*
X12525833Y-16720976D02*
X12535357Y-16730500D01*
X12535357Y-16730500D02*
X12554405Y-16740024D01*
X12554405Y-16740024D02*
X12592500Y-16740024D01*
X12592500Y-16740024D02*
X12611548Y-16730500D01*
X12611548Y-16730500D02*
X12621071Y-16720976D01*
X12621071Y-16720976D02*
X12630595Y-16701928D01*
X12630595Y-16701928D02*
X12630595Y-16654309D01*
X12630595Y-16654309D02*
X12621071Y-16635262D01*
X12621071Y-16635262D02*
X12611548Y-16625738D01*
X12611548Y-16625738D02*
X12592500Y-16616214D01*
X12592500Y-16616214D02*
X12554405Y-16616214D01*
X12554405Y-16616214D02*
X12535357Y-16625738D01*
X12535357Y-16625738D02*
X12525833Y-16635262D01*
X12525833Y-16635262D02*
X12516309Y-16654309D01*
X12754405Y-16540024D02*
X12773452Y-16540024D01*
X12773452Y-16540024D02*
X12792500Y-16549548D01*
X12792500Y-16549548D02*
X12802024Y-16559071D01*
X12802024Y-16559071D02*
X12811548Y-16578119D01*
X12811548Y-16578119D02*
X12821071Y-16616214D01*
X12821071Y-16616214D02*
X12821071Y-16663833D01*
X12821071Y-16663833D02*
X12811548Y-16701928D01*
X12811548Y-16701928D02*
X12802024Y-16720976D01*
X12802024Y-16720976D02*
X12792500Y-16730500D01*
X12792500Y-16730500D02*
X12773452Y-16740024D01*
X12773452Y-16740024D02*
X12754405Y-16740024D01*
X12754405Y-16740024D02*
X12735357Y-16730500D01*
X12735357Y-16730500D02*
X12725833Y-16720976D01*
X12725833Y-16720976D02*
X12716309Y-16701928D01*
X12716309Y-16701928D02*
X12706786Y-16663833D01*
X12706786Y-16663833D02*
X12706786Y-16616214D01*
X12706786Y-16616214D02*
X12716309Y-16578119D01*
X12716309Y-16578119D02*
X12725833Y-16559071D01*
X12725833Y-16559071D02*
X12735357Y-16549548D01*
X12735357Y-16549548D02*
X12754405Y-16540024D01*
X12944881Y-16540024D02*
X12963929Y-16540024D01*
X12963929Y-16540024D02*
X12982976Y-16549548D01*
X12982976Y-16549548D02*
X12992500Y-16559071D01*
X12992500Y-16559071D02*
X13002024Y-16578119D01*
X13002024Y-16578119D02*
X13011548Y-16616214D01*
X13011548Y-16616214D02*
X13011548Y-16663833D01*
X13011548Y-16663833D02*
X13002024Y-16701928D01*
X13002024Y-16701928D02*
X12992500Y-16720976D01*
X12992500Y-16720976D02*
X12982976Y-16730500D01*
X12982976Y-16730500D02*
X12963929Y-16740024D01*
X12963929Y-16740024D02*
X12944881Y-16740024D01*
X12944881Y-16740024D02*
X12925833Y-16730500D01*
X12925833Y-16730500D02*
X12916309Y-16720976D01*
X12916309Y-16720976D02*
X12906786Y-16701928D01*
X12906786Y-16701928D02*
X12897262Y-16663833D01*
X12897262Y-16663833D02*
X12897262Y-16616214D01*
X12897262Y-16616214D02*
X12906786Y-16578119D01*
X12906786Y-16578119D02*
X12916309Y-16559071D01*
X12916309Y-16559071D02*
X12925833Y-16549548D01*
X12925833Y-16549548D02*
X12944881Y-16540024D01*
X13097262Y-16740024D02*
X13097262Y-16606690D01*
X13097262Y-16625738D02*
X13106786Y-16616214D01*
X13106786Y-16616214D02*
X13125833Y-16606690D01*
X13125833Y-16606690D02*
X13154405Y-16606690D01*
X13154405Y-16606690D02*
X13173452Y-16616214D01*
X13173452Y-16616214D02*
X13182976Y-16635262D01*
X13182976Y-16635262D02*
X13182976Y-16740024D01*
X13182976Y-16635262D02*
X13192500Y-16616214D01*
X13192500Y-16616214D02*
X13211548Y-16606690D01*
X13211548Y-16606690D02*
X13240119Y-16606690D01*
X13240119Y-16606690D02*
X13259167Y-16616214D01*
X13259167Y-16616214D02*
X13268690Y-16635262D01*
X13268690Y-16635262D02*
X13268690Y-16740024D01*
X13363929Y-16740024D02*
X13363929Y-16606690D01*
X13363929Y-16625738D02*
X13373452Y-16616214D01*
X13373452Y-16616214D02*
X13392500Y-16606690D01*
X13392500Y-16606690D02*
X13421071Y-16606690D01*
X13421071Y-16606690D02*
X13440119Y-16616214D01*
X13440119Y-16616214D02*
X13449643Y-16635262D01*
X13449643Y-16635262D02*
X13449643Y-16740024D01*
X13449643Y-16635262D02*
X13459167Y-16616214D01*
X13459167Y-16616214D02*
X13478214Y-16606690D01*
X13478214Y-16606690D02*
X13506786Y-16606690D01*
X13506786Y-16606690D02*
X13525833Y-16616214D01*
X13525833Y-16616214D02*
X13535357Y-16635262D01*
X13535357Y-16635262D02*
X13535357Y-16740024D01*
X13925833Y-16530500D02*
X13754405Y-16787643D01*
X14182976Y-16540024D02*
X14202024Y-16540024D01*
X14202024Y-16540024D02*
X14221072Y-16549548D01*
X14221072Y-16549548D02*
X14230595Y-16559071D01*
X14230595Y-16559071D02*
X14240119Y-16578119D01*
X14240119Y-16578119D02*
X14249643Y-16616214D01*
X14249643Y-16616214D02*
X14249643Y-16663833D01*
X14249643Y-16663833D02*
X14240119Y-16701928D01*
X14240119Y-16701928D02*
X14230595Y-16720976D01*
X14230595Y-16720976D02*
X14221072Y-16730500D01*
X14221072Y-16730500D02*
X14202024Y-16740024D01*
X14202024Y-16740024D02*
X14182976Y-16740024D01*
X14182976Y-16740024D02*
X14163929Y-16730500D01*
X14163929Y-16730500D02*
X14154405Y-16720976D01*
X14154405Y-16720976D02*
X14144881Y-16701928D01*
X14144881Y-16701928D02*
X14135357Y-16663833D01*
X14135357Y-16663833D02*
X14135357Y-16616214D01*
X14135357Y-16616214D02*
X14144881Y-16578119D01*
X14144881Y-16578119D02*
X14154405Y-16559071D01*
X14154405Y-16559071D02*
X14163929Y-16549548D01*
X14163929Y-16549548D02*
X14182976Y-16540024D01*
X14335357Y-16720976D02*
X14344881Y-16730500D01*
X14344881Y-16730500D02*
X14335357Y-16740024D01*
X14335357Y-16740024D02*
X14325833Y-16730500D01*
X14325833Y-16730500D02*
X14335357Y-16720976D01*
X14335357Y-16720976D02*
X14335357Y-16740024D01*
X14468691Y-16540024D02*
X14487738Y-16540024D01*
X14487738Y-16540024D02*
X14506786Y-16549548D01*
X14506786Y-16549548D02*
X14516310Y-16559071D01*
X14516310Y-16559071D02*
X14525833Y-16578119D01*
X14525833Y-16578119D02*
X14535357Y-16616214D01*
X14535357Y-16616214D02*
X14535357Y-16663833D01*
X14535357Y-16663833D02*
X14525833Y-16701928D01*
X14525833Y-16701928D02*
X14516310Y-16720976D01*
X14516310Y-16720976D02*
X14506786Y-16730500D01*
X14506786Y-16730500D02*
X14487738Y-16740024D01*
X14487738Y-16740024D02*
X14468691Y-16740024D01*
X14468691Y-16740024D02*
X14449643Y-16730500D01*
X14449643Y-16730500D02*
X14440119Y-16720976D01*
X14440119Y-16720976D02*
X14430595Y-16701928D01*
X14430595Y-16701928D02*
X14421072Y-16663833D01*
X14421072Y-16663833D02*
X14421072Y-16616214D01*
X14421072Y-16616214D02*
X14430595Y-16578119D01*
X14430595Y-16578119D02*
X14440119Y-16559071D01*
X14440119Y-16559071D02*
X14449643Y-16549548D01*
X14449643Y-16549548D02*
X14468691Y-16540024D01*
X14611548Y-16559071D02*
X14621072Y-16549548D01*
X14621072Y-16549548D02*
X14640119Y-16540024D01*
X14640119Y-16540024D02*
X14687738Y-16540024D01*
X14687738Y-16540024D02*
X14706786Y-16549548D01*
X14706786Y-16549548D02*
X14716310Y-16559071D01*
X14716310Y-16559071D02*
X14725833Y-16578119D01*
X14725833Y-16578119D02*
X14725833Y-16597167D01*
X14725833Y-16597167D02*
X14716310Y-16625738D01*
X14716310Y-16625738D02*
X14602024Y-16740024D01*
X14602024Y-16740024D02*
X14725833Y-16740024D01*
X14792500Y-16540024D02*
X14916310Y-16540024D01*
X14916310Y-16540024D02*
X14849643Y-16616214D01*
X14849643Y-16616214D02*
X14878214Y-16616214D01*
X14878214Y-16616214D02*
X14897262Y-16625738D01*
X14897262Y-16625738D02*
X14906786Y-16635262D01*
X14906786Y-16635262D02*
X14916310Y-16654309D01*
X14916310Y-16654309D02*
X14916310Y-16701928D01*
X14916310Y-16701928D02*
X14906786Y-16720976D01*
X14906786Y-16720976D02*
X14897262Y-16730500D01*
X14897262Y-16730500D02*
X14878214Y-16740024D01*
X14878214Y-16740024D02*
X14821072Y-16740024D01*
X14821072Y-16740024D02*
X14802024Y-16730500D01*
X14802024Y-16730500D02*
X14792500Y-16720976D01*
X15087738Y-16540024D02*
X15049643Y-16540024D01*
X15049643Y-16540024D02*
X15030595Y-16549548D01*
X15030595Y-16549548D02*
X15021072Y-16559071D01*
X15021072Y-16559071D02*
X15002024Y-16587643D01*
X15002024Y-16587643D02*
X14992500Y-16625738D01*
X14992500Y-16625738D02*
X14992500Y-16701928D01*
X14992500Y-16701928D02*
X15002024Y-16720976D01*
X15002024Y-16720976D02*
X15011548Y-16730500D01*
X15011548Y-16730500D02*
X15030595Y-16740024D01*
X15030595Y-16740024D02*
X15068691Y-16740024D01*
X15068691Y-16740024D02*
X15087738Y-16730500D01*
X15087738Y-16730500D02*
X15097262Y-16720976D01*
X15097262Y-16720976D02*
X15106786Y-16701928D01*
X15106786Y-16701928D02*
X15106786Y-16654309D01*
X15106786Y-16654309D02*
X15097262Y-16635262D01*
X15097262Y-16635262D02*
X15087738Y-16625738D01*
X15087738Y-16625738D02*
X15068691Y-16616214D01*
X15068691Y-16616214D02*
X15030595Y-16616214D01*
X15030595Y-16616214D02*
X15011548Y-16625738D01*
X15011548Y-16625738D02*
X15002024Y-16635262D01*
X15002024Y-16635262D02*
X14992500Y-16654309D01*
X15182976Y-16540024D02*
X15182976Y-16578119D01*
X15259167Y-16540024D02*
X15259167Y-16578119D01*
X15554405Y-16816214D02*
X15544881Y-16806690D01*
X15544881Y-16806690D02*
X15525834Y-16778119D01*
X15525834Y-16778119D02*
X15516310Y-16759071D01*
X15516310Y-16759071D02*
X15506786Y-16730500D01*
X15506786Y-16730500D02*
X15497262Y-16682881D01*
X15497262Y-16682881D02*
X15497262Y-16644786D01*
X15497262Y-16644786D02*
X15506786Y-16597167D01*
X15506786Y-16597167D02*
X15516310Y-16568595D01*
X15516310Y-16568595D02*
X15525834Y-16549548D01*
X15525834Y-16549548D02*
X15544881Y-16520976D01*
X15544881Y-16520976D02*
X15554405Y-16511452D01*
X15735357Y-16740024D02*
X15621072Y-16740024D01*
X15678214Y-16740024D02*
X15678214Y-16540024D01*
X15678214Y-16540024D02*
X15659167Y-16568595D01*
X15659167Y-16568595D02*
X15640119Y-16587643D01*
X15640119Y-16587643D02*
X15621072Y-16597167D01*
X15973453Y-16740024D02*
X15973453Y-16540024D01*
X16059167Y-16740024D02*
X16059167Y-16635262D01*
X16059167Y-16635262D02*
X16049643Y-16616214D01*
X16049643Y-16616214D02*
X16030596Y-16606690D01*
X16030596Y-16606690D02*
X16002024Y-16606690D01*
X16002024Y-16606690D02*
X15982976Y-16616214D01*
X15982976Y-16616214D02*
X15973453Y-16625738D01*
X16182976Y-16740024D02*
X16163929Y-16730500D01*
X16163929Y-16730500D02*
X16154405Y-16720976D01*
X16154405Y-16720976D02*
X16144881Y-16701928D01*
X16144881Y-16701928D02*
X16144881Y-16644786D01*
X16144881Y-16644786D02*
X16154405Y-16625738D01*
X16154405Y-16625738D02*
X16163929Y-16616214D01*
X16163929Y-16616214D02*
X16182976Y-16606690D01*
X16182976Y-16606690D02*
X16211548Y-16606690D01*
X16211548Y-16606690D02*
X16230596Y-16616214D01*
X16230596Y-16616214D02*
X16240119Y-16625738D01*
X16240119Y-16625738D02*
X16249643Y-16644786D01*
X16249643Y-16644786D02*
X16249643Y-16701928D01*
X16249643Y-16701928D02*
X16240119Y-16720976D01*
X16240119Y-16720976D02*
X16230596Y-16730500D01*
X16230596Y-16730500D02*
X16211548Y-16740024D01*
X16211548Y-16740024D02*
X16182976Y-16740024D01*
X16363929Y-16740024D02*
X16344881Y-16730500D01*
X16344881Y-16730500D02*
X16335357Y-16711452D01*
X16335357Y-16711452D02*
X16335357Y-16540024D01*
X16516310Y-16730500D02*
X16497262Y-16740024D01*
X16497262Y-16740024D02*
X16459167Y-16740024D01*
X16459167Y-16740024D02*
X16440119Y-16730500D01*
X16440119Y-16730500D02*
X16430596Y-16711452D01*
X16430596Y-16711452D02*
X16430596Y-16635262D01*
X16430596Y-16635262D02*
X16440119Y-16616214D01*
X16440119Y-16616214D02*
X16459167Y-16606690D01*
X16459167Y-16606690D02*
X16497262Y-16606690D01*
X16497262Y-16606690D02*
X16516310Y-16616214D01*
X16516310Y-16616214D02*
X16525834Y-16635262D01*
X16525834Y-16635262D02*
X16525834Y-16654309D01*
X16525834Y-16654309D02*
X16430596Y-16673357D01*
X16602024Y-16730500D02*
X16621072Y-16740024D01*
X16621072Y-16740024D02*
X16659167Y-16740024D01*
X16659167Y-16740024D02*
X16678215Y-16730500D01*
X16678215Y-16730500D02*
X16687738Y-16711452D01*
X16687738Y-16711452D02*
X16687738Y-16701928D01*
X16687738Y-16701928D02*
X16678215Y-16682881D01*
X16678215Y-16682881D02*
X16659167Y-16673357D01*
X16659167Y-16673357D02*
X16630596Y-16673357D01*
X16630596Y-16673357D02*
X16611548Y-16663833D01*
X16611548Y-16663833D02*
X16602024Y-16644786D01*
X16602024Y-16644786D02*
X16602024Y-16635262D01*
X16602024Y-16635262D02*
X16611548Y-16616214D01*
X16611548Y-16616214D02*
X16630596Y-16606690D01*
X16630596Y-16606690D02*
X16659167Y-16606690D01*
X16659167Y-16606690D02*
X16678215Y-16616214D01*
X16925834Y-16663833D02*
X17078215Y-16663833D01*
X17002024Y-16740024D02*
X17002024Y-16587643D01*
X17430596Y-16740024D02*
X17316310Y-16740024D01*
X17373453Y-16740024D02*
X17373453Y-16540024D01*
X17373453Y-16540024D02*
X17354405Y-16568595D01*
X17354405Y-16568595D02*
X17335358Y-16587643D01*
X17335358Y-16587643D02*
X17316310Y-16597167D01*
X17659167Y-16730500D02*
X17678215Y-16740024D01*
X17678215Y-16740024D02*
X17716310Y-16740024D01*
X17716310Y-16740024D02*
X17735358Y-16730500D01*
X17735358Y-16730500D02*
X17744882Y-16711452D01*
X17744882Y-16711452D02*
X17744882Y-16701928D01*
X17744882Y-16701928D02*
X17735358Y-16682881D01*
X17735358Y-16682881D02*
X17716310Y-16673357D01*
X17716310Y-16673357D02*
X17687739Y-16673357D01*
X17687739Y-16673357D02*
X17668691Y-16663833D01*
X17668691Y-16663833D02*
X17659167Y-16644786D01*
X17659167Y-16644786D02*
X17659167Y-16635262D01*
X17659167Y-16635262D02*
X17668691Y-16616214D01*
X17668691Y-16616214D02*
X17687739Y-16606690D01*
X17687739Y-16606690D02*
X17716310Y-16606690D01*
X17716310Y-16606690D02*
X17735358Y-16616214D01*
X17859167Y-16740024D02*
X17840120Y-16730500D01*
X17840120Y-16730500D02*
X17830596Y-16711452D01*
X17830596Y-16711452D02*
X17830596Y-16540024D01*
X17963929Y-16740024D02*
X17944882Y-16730500D01*
X17944882Y-16730500D02*
X17935358Y-16720976D01*
X17935358Y-16720976D02*
X17925834Y-16701928D01*
X17925834Y-16701928D02*
X17925834Y-16644786D01*
X17925834Y-16644786D02*
X17935358Y-16625738D01*
X17935358Y-16625738D02*
X17944882Y-16616214D01*
X17944882Y-16616214D02*
X17963929Y-16606690D01*
X17963929Y-16606690D02*
X17992501Y-16606690D01*
X17992501Y-16606690D02*
X18011548Y-16616214D01*
X18011548Y-16616214D02*
X18021072Y-16625738D01*
X18021072Y-16625738D02*
X18030596Y-16644786D01*
X18030596Y-16644786D02*
X18030596Y-16701928D01*
X18030596Y-16701928D02*
X18021072Y-16720976D01*
X18021072Y-16720976D02*
X18011548Y-16730500D01*
X18011548Y-16730500D02*
X17992501Y-16740024D01*
X17992501Y-16740024D02*
X17963929Y-16740024D01*
X18087739Y-16606690D02*
X18163929Y-16606690D01*
X18116310Y-16540024D02*
X18116310Y-16711452D01*
X18116310Y-16711452D02*
X18125834Y-16730500D01*
X18125834Y-16730500D02*
X18144882Y-16740024D01*
X18144882Y-16740024D02*
X18163929Y-16740024D01*
X18211548Y-16816214D02*
X18221072Y-16806690D01*
X18221072Y-16806690D02*
X18240120Y-16778119D01*
X18240120Y-16778119D02*
X18249643Y-16759071D01*
X18249643Y-16759071D02*
X18259167Y-16730500D01*
X18259167Y-16730500D02*
X18268691Y-16682881D01*
X18268691Y-16682881D02*
X18268691Y-16644786D01*
X18268691Y-16644786D02*
X18259167Y-16597167D01*
X18259167Y-16597167D02*
X18249643Y-16568595D01*
X18249643Y-16568595D02*
X18240120Y-16549548D01*
X18240120Y-16549548D02*
X18221072Y-16520976D01*
X18221072Y-16520976D02*
X18211548Y-16511452D01*
X18573453Y-16816214D02*
X18563929Y-16806690D01*
X18563929Y-16806690D02*
X18544882Y-16778119D01*
X18544882Y-16778119D02*
X18535358Y-16759071D01*
X18535358Y-16759071D02*
X18525834Y-16730500D01*
X18525834Y-16730500D02*
X18516310Y-16682881D01*
X18516310Y-16682881D02*
X18516310Y-16644786D01*
X18516310Y-16644786D02*
X18525834Y-16597167D01*
X18525834Y-16597167D02*
X18535358Y-16568595D01*
X18535358Y-16568595D02*
X18544882Y-16549548D01*
X18544882Y-16549548D02*
X18563929Y-16520976D01*
X18563929Y-16520976D02*
X18573453Y-16511452D01*
X18649643Y-16606690D02*
X18649643Y-16740024D01*
X18649643Y-16625738D02*
X18659167Y-16616214D01*
X18659167Y-16616214D02*
X18678215Y-16606690D01*
X18678215Y-16606690D02*
X18706786Y-16606690D01*
X18706786Y-16606690D02*
X18725834Y-16616214D01*
X18725834Y-16616214D02*
X18735358Y-16635262D01*
X18735358Y-16635262D02*
X18735358Y-16740024D01*
X18859167Y-16740024D02*
X18840120Y-16730500D01*
X18840120Y-16730500D02*
X18830596Y-16720976D01*
X18830596Y-16720976D02*
X18821072Y-16701928D01*
X18821072Y-16701928D02*
X18821072Y-16644786D01*
X18821072Y-16644786D02*
X18830596Y-16625738D01*
X18830596Y-16625738D02*
X18840120Y-16616214D01*
X18840120Y-16616214D02*
X18859167Y-16606690D01*
X18859167Y-16606690D02*
X18887739Y-16606690D01*
X18887739Y-16606690D02*
X18906786Y-16616214D01*
X18906786Y-16616214D02*
X18916310Y-16625738D01*
X18916310Y-16625738D02*
X18925834Y-16644786D01*
X18925834Y-16644786D02*
X18925834Y-16701928D01*
X18925834Y-16701928D02*
X18916310Y-16720976D01*
X18916310Y-16720976D02*
X18906786Y-16730500D01*
X18906786Y-16730500D02*
X18887739Y-16740024D01*
X18887739Y-16740024D02*
X18859167Y-16740024D01*
X18982977Y-16606690D02*
X19059167Y-16606690D01*
X19011548Y-16540024D02*
X19011548Y-16711452D01*
X19011548Y-16711452D02*
X19021072Y-16730500D01*
X19021072Y-16730500D02*
X19040120Y-16740024D01*
X19040120Y-16740024D02*
X19059167Y-16740024D01*
X19278215Y-16606690D02*
X19278215Y-16806690D01*
X19278215Y-16616214D02*
X19297263Y-16606690D01*
X19297263Y-16606690D02*
X19335358Y-16606690D01*
X19335358Y-16606690D02*
X19354405Y-16616214D01*
X19354405Y-16616214D02*
X19363929Y-16625738D01*
X19363929Y-16625738D02*
X19373453Y-16644786D01*
X19373453Y-16644786D02*
X19373453Y-16701928D01*
X19373453Y-16701928D02*
X19363929Y-16720976D01*
X19363929Y-16720976D02*
X19354405Y-16730500D01*
X19354405Y-16730500D02*
X19335358Y-16740024D01*
X19335358Y-16740024D02*
X19297263Y-16740024D01*
X19297263Y-16740024D02*
X19278215Y-16730500D01*
X19487739Y-16740024D02*
X19468691Y-16730500D01*
X19468691Y-16730500D02*
X19459167Y-16711452D01*
X19459167Y-16711452D02*
X19459167Y-16540024D01*
X19649644Y-16740024D02*
X19649644Y-16635262D01*
X19649644Y-16635262D02*
X19640120Y-16616214D01*
X19640120Y-16616214D02*
X19621072Y-16606690D01*
X19621072Y-16606690D02*
X19582977Y-16606690D01*
X19582977Y-16606690D02*
X19563929Y-16616214D01*
X19649644Y-16730500D02*
X19630596Y-16740024D01*
X19630596Y-16740024D02*
X19582977Y-16740024D01*
X19582977Y-16740024D02*
X19563929Y-16730500D01*
X19563929Y-16730500D02*
X19554405Y-16711452D01*
X19554405Y-16711452D02*
X19554405Y-16692405D01*
X19554405Y-16692405D02*
X19563929Y-16673357D01*
X19563929Y-16673357D02*
X19582977Y-16663833D01*
X19582977Y-16663833D02*
X19630596Y-16663833D01*
X19630596Y-16663833D02*
X19649644Y-16654309D01*
X19716310Y-16606690D02*
X19792501Y-16606690D01*
X19744882Y-16540024D02*
X19744882Y-16711452D01*
X19744882Y-16711452D02*
X19754405Y-16730500D01*
X19754405Y-16730500D02*
X19773453Y-16740024D01*
X19773453Y-16740024D02*
X19792501Y-16740024D01*
X19935358Y-16730500D02*
X19916310Y-16740024D01*
X19916310Y-16740024D02*
X19878215Y-16740024D01*
X19878215Y-16740024D02*
X19859167Y-16730500D01*
X19859167Y-16730500D02*
X19849644Y-16711452D01*
X19849644Y-16711452D02*
X19849644Y-16635262D01*
X19849644Y-16635262D02*
X19859167Y-16616214D01*
X19859167Y-16616214D02*
X19878215Y-16606690D01*
X19878215Y-16606690D02*
X19916310Y-16606690D01*
X19916310Y-16606690D02*
X19935358Y-16616214D01*
X19935358Y-16616214D02*
X19944882Y-16635262D01*
X19944882Y-16635262D02*
X19944882Y-16654309D01*
X19944882Y-16654309D02*
X19849644Y-16673357D01*
X20116310Y-16740024D02*
X20116310Y-16540024D01*
X20116310Y-16730500D02*
X20097263Y-16740024D01*
X20097263Y-16740024D02*
X20059167Y-16740024D01*
X20059167Y-16740024D02*
X20040120Y-16730500D01*
X20040120Y-16730500D02*
X20030596Y-16720976D01*
X20030596Y-16720976D02*
X20021072Y-16701928D01*
X20021072Y-16701928D02*
X20021072Y-16644786D01*
X20021072Y-16644786D02*
X20030596Y-16625738D01*
X20030596Y-16625738D02*
X20040120Y-16616214D01*
X20040120Y-16616214D02*
X20059167Y-16606690D01*
X20059167Y-16606690D02*
X20097263Y-16606690D01*
X20097263Y-16606690D02*
X20116310Y-16616214D01*
X20192501Y-16816214D02*
X20202025Y-16806690D01*
X20202025Y-16806690D02*
X20221072Y-16778119D01*
X20221072Y-16778119D02*
X20230596Y-16759071D01*
X20230596Y-16759071D02*
X20240120Y-16730500D01*
X20240120Y-16730500D02*
X20249644Y-16682881D01*
X20249644Y-16682881D02*
X20249644Y-16644786D01*
X20249644Y-16644786D02*
X20240120Y-16597167D01*
X20240120Y-16597167D02*
X20230596Y-16568595D01*
X20230596Y-16568595D02*
X20221072Y-16549548D01*
X20221072Y-16549548D02*
X20202025Y-16520976D01*
X20202025Y-16520976D02*
X20192501Y-16511452D01*
X11992500Y-16911500D02*
G75*
G03*
X11992500Y-16911500I-100000J0D01*
G01*
X12230595Y-16823071D02*
X12240119Y-16813548D01*
X12240119Y-16813548D02*
X12259167Y-16804024D01*
X12259167Y-16804024D02*
X12306786Y-16804024D01*
X12306786Y-16804024D02*
X12325833Y-16813548D01*
X12325833Y-16813548D02*
X12335357Y-16823071D01*
X12335357Y-16823071D02*
X12344881Y-16842119D01*
X12344881Y-16842119D02*
X12344881Y-16861167D01*
X12344881Y-16861167D02*
X12335357Y-16889738D01*
X12335357Y-16889738D02*
X12221071Y-17004024D01*
X12221071Y-17004024D02*
X12344881Y-17004024D01*
X12430595Y-16984976D02*
X12440119Y-16994500D01*
X12440119Y-16994500D02*
X12430595Y-17004024D01*
X12430595Y-17004024D02*
X12421071Y-16994500D01*
X12421071Y-16994500D02*
X12430595Y-16984976D01*
X12430595Y-16984976D02*
X12430595Y-17004024D01*
X12516309Y-16823071D02*
X12525833Y-16813548D01*
X12525833Y-16813548D02*
X12544881Y-16804024D01*
X12544881Y-16804024D02*
X12592500Y-16804024D01*
X12592500Y-16804024D02*
X12611548Y-16813548D01*
X12611548Y-16813548D02*
X12621071Y-16823071D01*
X12621071Y-16823071D02*
X12630595Y-16842119D01*
X12630595Y-16842119D02*
X12630595Y-16861167D01*
X12630595Y-16861167D02*
X12621071Y-16889738D01*
X12621071Y-16889738D02*
X12506786Y-17004024D01*
X12506786Y-17004024D02*
X12630595Y-17004024D01*
X12754405Y-16804024D02*
X12773452Y-16804024D01*
X12773452Y-16804024D02*
X12792500Y-16813548D01*
X12792500Y-16813548D02*
X12802024Y-16823071D01*
X12802024Y-16823071D02*
X12811548Y-16842119D01*
X12811548Y-16842119D02*
X12821071Y-16880214D01*
X12821071Y-16880214D02*
X12821071Y-16927833D01*
X12821071Y-16927833D02*
X12811548Y-16965929D01*
X12811548Y-16965929D02*
X12802024Y-16984976D01*
X12802024Y-16984976D02*
X12792500Y-16994500D01*
X12792500Y-16994500D02*
X12773452Y-17004024D01*
X12773452Y-17004024D02*
X12754405Y-17004024D01*
X12754405Y-17004024D02*
X12735357Y-16994500D01*
X12735357Y-16994500D02*
X12725833Y-16984976D01*
X12725833Y-16984976D02*
X12716309Y-16965929D01*
X12716309Y-16965929D02*
X12706786Y-16927833D01*
X12706786Y-16927833D02*
X12706786Y-16880214D01*
X12706786Y-16880214D02*
X12716309Y-16842119D01*
X12716309Y-16842119D02*
X12725833Y-16823071D01*
X12725833Y-16823071D02*
X12735357Y-16813548D01*
X12735357Y-16813548D02*
X12754405Y-16804024D01*
X12944881Y-16804024D02*
X12963929Y-16804024D01*
X12963929Y-16804024D02*
X12982976Y-16813548D01*
X12982976Y-16813548D02*
X12992500Y-16823071D01*
X12992500Y-16823071D02*
X13002024Y-16842119D01*
X13002024Y-16842119D02*
X13011548Y-16880214D01*
X13011548Y-16880214D02*
X13011548Y-16927833D01*
X13011548Y-16927833D02*
X13002024Y-16965929D01*
X13002024Y-16965929D02*
X12992500Y-16984976D01*
X12992500Y-16984976D02*
X12982976Y-16994500D01*
X12982976Y-16994500D02*
X12963929Y-17004024D01*
X12963929Y-17004024D02*
X12944881Y-17004024D01*
X12944881Y-17004024D02*
X12925833Y-16994500D01*
X12925833Y-16994500D02*
X12916309Y-16984976D01*
X12916309Y-16984976D02*
X12906786Y-16965929D01*
X12906786Y-16965929D02*
X12897262Y-16927833D01*
X12897262Y-16927833D02*
X12897262Y-16880214D01*
X12897262Y-16880214D02*
X12906786Y-16842119D01*
X12906786Y-16842119D02*
X12916309Y-16823071D01*
X12916309Y-16823071D02*
X12925833Y-16813548D01*
X12925833Y-16813548D02*
X12944881Y-16804024D01*
X13097262Y-17004024D02*
X13097262Y-16870690D01*
X13097262Y-16889738D02*
X13106786Y-16880214D01*
X13106786Y-16880214D02*
X13125833Y-16870690D01*
X13125833Y-16870690D02*
X13154405Y-16870690D01*
X13154405Y-16870690D02*
X13173452Y-16880214D01*
X13173452Y-16880214D02*
X13182976Y-16899262D01*
X13182976Y-16899262D02*
X13182976Y-17004024D01*
X13182976Y-16899262D02*
X13192500Y-16880214D01*
X13192500Y-16880214D02*
X13211548Y-16870690D01*
X13211548Y-16870690D02*
X13240119Y-16870690D01*
X13240119Y-16870690D02*
X13259167Y-16880214D01*
X13259167Y-16880214D02*
X13268690Y-16899262D01*
X13268690Y-16899262D02*
X13268690Y-17004024D01*
X13363929Y-17004024D02*
X13363929Y-16870690D01*
X13363929Y-16889738D02*
X13373452Y-16880214D01*
X13373452Y-16880214D02*
X13392500Y-16870690D01*
X13392500Y-16870690D02*
X13421071Y-16870690D01*
X13421071Y-16870690D02*
X13440119Y-16880214D01*
X13440119Y-16880214D02*
X13449643Y-16899262D01*
X13449643Y-16899262D02*
X13449643Y-17004024D01*
X13449643Y-16899262D02*
X13459167Y-16880214D01*
X13459167Y-16880214D02*
X13478214Y-16870690D01*
X13478214Y-16870690D02*
X13506786Y-16870690D01*
X13506786Y-16870690D02*
X13525833Y-16880214D01*
X13525833Y-16880214D02*
X13535357Y-16899262D01*
X13535357Y-16899262D02*
X13535357Y-17004024D01*
X13925833Y-16794500D02*
X13754405Y-17051643D01*
X14182976Y-16804024D02*
X14202024Y-16804024D01*
X14202024Y-16804024D02*
X14221072Y-16813548D01*
X14221072Y-16813548D02*
X14230595Y-16823071D01*
X14230595Y-16823071D02*
X14240119Y-16842119D01*
X14240119Y-16842119D02*
X14249643Y-16880214D01*
X14249643Y-16880214D02*
X14249643Y-16927833D01*
X14249643Y-16927833D02*
X14240119Y-16965929D01*
X14240119Y-16965929D02*
X14230595Y-16984976D01*
X14230595Y-16984976D02*
X14221072Y-16994500D01*
X14221072Y-16994500D02*
X14202024Y-17004024D01*
X14202024Y-17004024D02*
X14182976Y-17004024D01*
X14182976Y-17004024D02*
X14163929Y-16994500D01*
X14163929Y-16994500D02*
X14154405Y-16984976D01*
X14154405Y-16984976D02*
X14144881Y-16965929D01*
X14144881Y-16965929D02*
X14135357Y-16927833D01*
X14135357Y-16927833D02*
X14135357Y-16880214D01*
X14135357Y-16880214D02*
X14144881Y-16842119D01*
X14144881Y-16842119D02*
X14154405Y-16823071D01*
X14154405Y-16823071D02*
X14163929Y-16813548D01*
X14163929Y-16813548D02*
X14182976Y-16804024D01*
X14335357Y-16984976D02*
X14344881Y-16994500D01*
X14344881Y-16994500D02*
X14335357Y-17004024D01*
X14335357Y-17004024D02*
X14325833Y-16994500D01*
X14325833Y-16994500D02*
X14335357Y-16984976D01*
X14335357Y-16984976D02*
X14335357Y-17004024D01*
X14468691Y-16804024D02*
X14487738Y-16804024D01*
X14487738Y-16804024D02*
X14506786Y-16813548D01*
X14506786Y-16813548D02*
X14516310Y-16823071D01*
X14516310Y-16823071D02*
X14525833Y-16842119D01*
X14525833Y-16842119D02*
X14535357Y-16880214D01*
X14535357Y-16880214D02*
X14535357Y-16927833D01*
X14535357Y-16927833D02*
X14525833Y-16965929D01*
X14525833Y-16965929D02*
X14516310Y-16984976D01*
X14516310Y-16984976D02*
X14506786Y-16994500D01*
X14506786Y-16994500D02*
X14487738Y-17004024D01*
X14487738Y-17004024D02*
X14468691Y-17004024D01*
X14468691Y-17004024D02*
X14449643Y-16994500D01*
X14449643Y-16994500D02*
X14440119Y-16984976D01*
X14440119Y-16984976D02*
X14430595Y-16965929D01*
X14430595Y-16965929D02*
X14421072Y-16927833D01*
X14421072Y-16927833D02*
X14421072Y-16880214D01*
X14421072Y-16880214D02*
X14430595Y-16842119D01*
X14430595Y-16842119D02*
X14440119Y-16823071D01*
X14440119Y-16823071D02*
X14449643Y-16813548D01*
X14449643Y-16813548D02*
X14468691Y-16804024D01*
X14649643Y-16889738D02*
X14630595Y-16880214D01*
X14630595Y-16880214D02*
X14621072Y-16870690D01*
X14621072Y-16870690D02*
X14611548Y-16851643D01*
X14611548Y-16851643D02*
X14611548Y-16842119D01*
X14611548Y-16842119D02*
X14621072Y-16823071D01*
X14621072Y-16823071D02*
X14630595Y-16813548D01*
X14630595Y-16813548D02*
X14649643Y-16804024D01*
X14649643Y-16804024D02*
X14687738Y-16804024D01*
X14687738Y-16804024D02*
X14706786Y-16813548D01*
X14706786Y-16813548D02*
X14716310Y-16823071D01*
X14716310Y-16823071D02*
X14725833Y-16842119D01*
X14725833Y-16842119D02*
X14725833Y-16851643D01*
X14725833Y-16851643D02*
X14716310Y-16870690D01*
X14716310Y-16870690D02*
X14706786Y-16880214D01*
X14706786Y-16880214D02*
X14687738Y-16889738D01*
X14687738Y-16889738D02*
X14649643Y-16889738D01*
X14649643Y-16889738D02*
X14630595Y-16899262D01*
X14630595Y-16899262D02*
X14621072Y-16908786D01*
X14621072Y-16908786D02*
X14611548Y-16927833D01*
X14611548Y-16927833D02*
X14611548Y-16965929D01*
X14611548Y-16965929D02*
X14621072Y-16984976D01*
X14621072Y-16984976D02*
X14630595Y-16994500D01*
X14630595Y-16994500D02*
X14649643Y-17004024D01*
X14649643Y-17004024D02*
X14687738Y-17004024D01*
X14687738Y-17004024D02*
X14706786Y-16994500D01*
X14706786Y-16994500D02*
X14716310Y-16984976D01*
X14716310Y-16984976D02*
X14725833Y-16965929D01*
X14725833Y-16965929D02*
X14725833Y-16927833D01*
X14725833Y-16927833D02*
X14716310Y-16908786D01*
X14716310Y-16908786D02*
X14706786Y-16899262D01*
X14706786Y-16899262D02*
X14687738Y-16889738D01*
X14897262Y-16804024D02*
X14859167Y-16804024D01*
X14859167Y-16804024D02*
X14840119Y-16813548D01*
X14840119Y-16813548D02*
X14830595Y-16823071D01*
X14830595Y-16823071D02*
X14811548Y-16851643D01*
X14811548Y-16851643D02*
X14802024Y-16889738D01*
X14802024Y-16889738D02*
X14802024Y-16965929D01*
X14802024Y-16965929D02*
X14811548Y-16984976D01*
X14811548Y-16984976D02*
X14821072Y-16994500D01*
X14821072Y-16994500D02*
X14840119Y-17004024D01*
X14840119Y-17004024D02*
X14878214Y-17004024D01*
X14878214Y-17004024D02*
X14897262Y-16994500D01*
X14897262Y-16994500D02*
X14906786Y-16984976D01*
X14906786Y-16984976D02*
X14916310Y-16965929D01*
X14916310Y-16965929D02*
X14916310Y-16918310D01*
X14916310Y-16918310D02*
X14906786Y-16899262D01*
X14906786Y-16899262D02*
X14897262Y-16889738D01*
X14897262Y-16889738D02*
X14878214Y-16880214D01*
X14878214Y-16880214D02*
X14840119Y-16880214D01*
X14840119Y-16880214D02*
X14821072Y-16889738D01*
X14821072Y-16889738D02*
X14811548Y-16899262D01*
X14811548Y-16899262D02*
X14802024Y-16918310D01*
X15087738Y-16804024D02*
X15049643Y-16804024D01*
X15049643Y-16804024D02*
X15030595Y-16813548D01*
X15030595Y-16813548D02*
X15021072Y-16823071D01*
X15021072Y-16823071D02*
X15002024Y-16851643D01*
X15002024Y-16851643D02*
X14992500Y-16889738D01*
X14992500Y-16889738D02*
X14992500Y-16965929D01*
X14992500Y-16965929D02*
X15002024Y-16984976D01*
X15002024Y-16984976D02*
X15011548Y-16994500D01*
X15011548Y-16994500D02*
X15030595Y-17004024D01*
X15030595Y-17004024D02*
X15068691Y-17004024D01*
X15068691Y-17004024D02*
X15087738Y-16994500D01*
X15087738Y-16994500D02*
X15097262Y-16984976D01*
X15097262Y-16984976D02*
X15106786Y-16965929D01*
X15106786Y-16965929D02*
X15106786Y-16918310D01*
X15106786Y-16918310D02*
X15097262Y-16899262D01*
X15097262Y-16899262D02*
X15087738Y-16889738D01*
X15087738Y-16889738D02*
X15068691Y-16880214D01*
X15068691Y-16880214D02*
X15030595Y-16880214D01*
X15030595Y-16880214D02*
X15011548Y-16889738D01*
X15011548Y-16889738D02*
X15002024Y-16899262D01*
X15002024Y-16899262D02*
X14992500Y-16918310D01*
X15182976Y-16804024D02*
X15182976Y-16842119D01*
X15259167Y-16804024D02*
X15259167Y-16842119D01*
X15554405Y-17080214D02*
X15544881Y-17070690D01*
X15544881Y-17070690D02*
X15525834Y-17042119D01*
X15525834Y-17042119D02*
X15516310Y-17023071D01*
X15516310Y-17023071D02*
X15506786Y-16994500D01*
X15506786Y-16994500D02*
X15497262Y-16946881D01*
X15497262Y-16946881D02*
X15497262Y-16908786D01*
X15497262Y-16908786D02*
X15506786Y-16861167D01*
X15506786Y-16861167D02*
X15516310Y-16832595D01*
X15516310Y-16832595D02*
X15525834Y-16813548D01*
X15525834Y-16813548D02*
X15544881Y-16784976D01*
X15544881Y-16784976D02*
X15554405Y-16775452D01*
X15716310Y-16870690D02*
X15716310Y-17004024D01*
X15668691Y-16794500D02*
X15621072Y-16937357D01*
X15621072Y-16937357D02*
X15744881Y-16937357D01*
X15973453Y-17004024D02*
X15973453Y-16804024D01*
X16059167Y-17004024D02*
X16059167Y-16899262D01*
X16059167Y-16899262D02*
X16049643Y-16880214D01*
X16049643Y-16880214D02*
X16030596Y-16870690D01*
X16030596Y-16870690D02*
X16002024Y-16870690D01*
X16002024Y-16870690D02*
X15982976Y-16880214D01*
X15982976Y-16880214D02*
X15973453Y-16889738D01*
X16182976Y-17004024D02*
X16163929Y-16994500D01*
X16163929Y-16994500D02*
X16154405Y-16984976D01*
X16154405Y-16984976D02*
X16144881Y-16965929D01*
X16144881Y-16965929D02*
X16144881Y-16908786D01*
X16144881Y-16908786D02*
X16154405Y-16889738D01*
X16154405Y-16889738D02*
X16163929Y-16880214D01*
X16163929Y-16880214D02*
X16182976Y-16870690D01*
X16182976Y-16870690D02*
X16211548Y-16870690D01*
X16211548Y-16870690D02*
X16230596Y-16880214D01*
X16230596Y-16880214D02*
X16240119Y-16889738D01*
X16240119Y-16889738D02*
X16249643Y-16908786D01*
X16249643Y-16908786D02*
X16249643Y-16965929D01*
X16249643Y-16965929D02*
X16240119Y-16984976D01*
X16240119Y-16984976D02*
X16230596Y-16994500D01*
X16230596Y-16994500D02*
X16211548Y-17004024D01*
X16211548Y-17004024D02*
X16182976Y-17004024D01*
X16363929Y-17004024D02*
X16344881Y-16994500D01*
X16344881Y-16994500D02*
X16335357Y-16975452D01*
X16335357Y-16975452D02*
X16335357Y-16804024D01*
X16516310Y-16994500D02*
X16497262Y-17004024D01*
X16497262Y-17004024D02*
X16459167Y-17004024D01*
X16459167Y-17004024D02*
X16440119Y-16994500D01*
X16440119Y-16994500D02*
X16430596Y-16975452D01*
X16430596Y-16975452D02*
X16430596Y-16899262D01*
X16430596Y-16899262D02*
X16440119Y-16880214D01*
X16440119Y-16880214D02*
X16459167Y-16870690D01*
X16459167Y-16870690D02*
X16497262Y-16870690D01*
X16497262Y-16870690D02*
X16516310Y-16880214D01*
X16516310Y-16880214D02*
X16525834Y-16899262D01*
X16525834Y-16899262D02*
X16525834Y-16918310D01*
X16525834Y-16918310D02*
X16430596Y-16937357D01*
X16602024Y-16994500D02*
X16621072Y-17004024D01*
X16621072Y-17004024D02*
X16659167Y-17004024D01*
X16659167Y-17004024D02*
X16678215Y-16994500D01*
X16678215Y-16994500D02*
X16687738Y-16975452D01*
X16687738Y-16975452D02*
X16687738Y-16965929D01*
X16687738Y-16965929D02*
X16678215Y-16946881D01*
X16678215Y-16946881D02*
X16659167Y-16937357D01*
X16659167Y-16937357D02*
X16630596Y-16937357D01*
X16630596Y-16937357D02*
X16611548Y-16927833D01*
X16611548Y-16927833D02*
X16602024Y-16908786D01*
X16602024Y-16908786D02*
X16602024Y-16899262D01*
X16602024Y-16899262D02*
X16611548Y-16880214D01*
X16611548Y-16880214D02*
X16630596Y-16870690D01*
X16630596Y-16870690D02*
X16659167Y-16870690D01*
X16659167Y-16870690D02*
X16678215Y-16880214D01*
X16754405Y-17080214D02*
X16763929Y-17070690D01*
X16763929Y-17070690D02*
X16782977Y-17042119D01*
X16782977Y-17042119D02*
X16792500Y-17023071D01*
X16792500Y-17023071D02*
X16802024Y-16994500D01*
X16802024Y-16994500D02*
X16811548Y-16946881D01*
X16811548Y-16946881D02*
X16811548Y-16908786D01*
X16811548Y-16908786D02*
X16802024Y-16861167D01*
X16802024Y-16861167D02*
X16792500Y-16832595D01*
X16792500Y-16832595D02*
X16782977Y-16813548D01*
X16782977Y-16813548D02*
X16763929Y-16784976D01*
X16763929Y-16784976D02*
X16754405Y-16775452D01*
X17116310Y-17080214D02*
X17106786Y-17070690D01*
X17106786Y-17070690D02*
X17087739Y-17042119D01*
X17087739Y-17042119D02*
X17078215Y-17023071D01*
X17078215Y-17023071D02*
X17068691Y-16994500D01*
X17068691Y-16994500D02*
X17059167Y-16946881D01*
X17059167Y-16946881D02*
X17059167Y-16908786D01*
X17059167Y-16908786D02*
X17068691Y-16861167D01*
X17068691Y-16861167D02*
X17078215Y-16832595D01*
X17078215Y-16832595D02*
X17087739Y-16813548D01*
X17087739Y-16813548D02*
X17106786Y-16784976D01*
X17106786Y-16784976D02*
X17116310Y-16775452D01*
X17192500Y-16870690D02*
X17192500Y-17004024D01*
X17192500Y-16889738D02*
X17202024Y-16880214D01*
X17202024Y-16880214D02*
X17221072Y-16870690D01*
X17221072Y-16870690D02*
X17249643Y-16870690D01*
X17249643Y-16870690D02*
X17268691Y-16880214D01*
X17268691Y-16880214D02*
X17278215Y-16899262D01*
X17278215Y-16899262D02*
X17278215Y-17004024D01*
X17402024Y-17004024D02*
X17382977Y-16994500D01*
X17382977Y-16994500D02*
X17373453Y-16984976D01*
X17373453Y-16984976D02*
X17363929Y-16965929D01*
X17363929Y-16965929D02*
X17363929Y-16908786D01*
X17363929Y-16908786D02*
X17373453Y-16889738D01*
X17373453Y-16889738D02*
X17382977Y-16880214D01*
X17382977Y-16880214D02*
X17402024Y-16870690D01*
X17402024Y-16870690D02*
X17430596Y-16870690D01*
X17430596Y-16870690D02*
X17449643Y-16880214D01*
X17449643Y-16880214D02*
X17459167Y-16889738D01*
X17459167Y-16889738D02*
X17468691Y-16908786D01*
X17468691Y-16908786D02*
X17468691Y-16965929D01*
X17468691Y-16965929D02*
X17459167Y-16984976D01*
X17459167Y-16984976D02*
X17449643Y-16994500D01*
X17449643Y-16994500D02*
X17430596Y-17004024D01*
X17430596Y-17004024D02*
X17402024Y-17004024D01*
X17525834Y-16870690D02*
X17602024Y-16870690D01*
X17554405Y-16804024D02*
X17554405Y-16975452D01*
X17554405Y-16975452D02*
X17563929Y-16994500D01*
X17563929Y-16994500D02*
X17582977Y-17004024D01*
X17582977Y-17004024D02*
X17602024Y-17004024D01*
X17821072Y-16870690D02*
X17821072Y-17070690D01*
X17821072Y-16880214D02*
X17840120Y-16870690D01*
X17840120Y-16870690D02*
X17878215Y-16870690D01*
X17878215Y-16870690D02*
X17897262Y-16880214D01*
X17897262Y-16880214D02*
X17906786Y-16889738D01*
X17906786Y-16889738D02*
X17916310Y-16908786D01*
X17916310Y-16908786D02*
X17916310Y-16965929D01*
X17916310Y-16965929D02*
X17906786Y-16984976D01*
X17906786Y-16984976D02*
X17897262Y-16994500D01*
X17897262Y-16994500D02*
X17878215Y-17004024D01*
X17878215Y-17004024D02*
X17840120Y-17004024D01*
X17840120Y-17004024D02*
X17821072Y-16994500D01*
X18030596Y-17004024D02*
X18011548Y-16994500D01*
X18011548Y-16994500D02*
X18002024Y-16975452D01*
X18002024Y-16975452D02*
X18002024Y-16804024D01*
X18192501Y-17004024D02*
X18192501Y-16899262D01*
X18192501Y-16899262D02*
X18182977Y-16880214D01*
X18182977Y-16880214D02*
X18163929Y-16870690D01*
X18163929Y-16870690D02*
X18125834Y-16870690D01*
X18125834Y-16870690D02*
X18106786Y-16880214D01*
X18192501Y-16994500D02*
X18173453Y-17004024D01*
X18173453Y-17004024D02*
X18125834Y-17004024D01*
X18125834Y-17004024D02*
X18106786Y-16994500D01*
X18106786Y-16994500D02*
X18097262Y-16975452D01*
X18097262Y-16975452D02*
X18097262Y-16956405D01*
X18097262Y-16956405D02*
X18106786Y-16937357D01*
X18106786Y-16937357D02*
X18125834Y-16927833D01*
X18125834Y-16927833D02*
X18173453Y-16927833D01*
X18173453Y-16927833D02*
X18192501Y-16918310D01*
X18259167Y-16870690D02*
X18335358Y-16870690D01*
X18287739Y-16804024D02*
X18287739Y-16975452D01*
X18287739Y-16975452D02*
X18297262Y-16994500D01*
X18297262Y-16994500D02*
X18316310Y-17004024D01*
X18316310Y-17004024D02*
X18335358Y-17004024D01*
X18478215Y-16994500D02*
X18459167Y-17004024D01*
X18459167Y-17004024D02*
X18421072Y-17004024D01*
X18421072Y-17004024D02*
X18402024Y-16994500D01*
X18402024Y-16994500D02*
X18392501Y-16975452D01*
X18392501Y-16975452D02*
X18392501Y-16899262D01*
X18392501Y-16899262D02*
X18402024Y-16880214D01*
X18402024Y-16880214D02*
X18421072Y-16870690D01*
X18421072Y-16870690D02*
X18459167Y-16870690D01*
X18459167Y-16870690D02*
X18478215Y-16880214D01*
X18478215Y-16880214D02*
X18487739Y-16899262D01*
X18487739Y-16899262D02*
X18487739Y-16918310D01*
X18487739Y-16918310D02*
X18392501Y-16937357D01*
X18659167Y-17004024D02*
X18659167Y-16804024D01*
X18659167Y-16994500D02*
X18640120Y-17004024D01*
X18640120Y-17004024D02*
X18602024Y-17004024D01*
X18602024Y-17004024D02*
X18582977Y-16994500D01*
X18582977Y-16994500D02*
X18573453Y-16984976D01*
X18573453Y-16984976D02*
X18563929Y-16965929D01*
X18563929Y-16965929D02*
X18563929Y-16908786D01*
X18563929Y-16908786D02*
X18573453Y-16889738D01*
X18573453Y-16889738D02*
X18582977Y-16880214D01*
X18582977Y-16880214D02*
X18602024Y-16870690D01*
X18602024Y-16870690D02*
X18640120Y-16870690D01*
X18640120Y-16870690D02*
X18659167Y-16880214D01*
X18735358Y-17080214D02*
X18744882Y-17070690D01*
X18744882Y-17070690D02*
X18763929Y-17042119D01*
X18763929Y-17042119D02*
X18773453Y-17023071D01*
X18773453Y-17023071D02*
X18782977Y-16994500D01*
X18782977Y-16994500D02*
X18792501Y-16946881D01*
X18792501Y-16946881D02*
X18792501Y-16908786D01*
X18792501Y-16908786D02*
X18782977Y-16861167D01*
X18782977Y-16861167D02*
X18773453Y-16832595D01*
X18773453Y-16832595D02*
X18763929Y-16813548D01*
X18763929Y-16813548D02*
X18744882Y-16784976D01*
X18744882Y-16784976D02*
X18735358Y-16775452D01*
M02*
