M48
; DRILL file {KiCad (7.0.0)} date Mon May  8 11:18:23 2023
; FORMAT={-:-/ absolute / metric / decimal}
; #@! TF.CreationDate,2023-05-08T11:18:23-04:00
; #@! TF.GenerationSoftware,Kicad,Pcbnew,(7.0.0)
; #@! TF.FileFunction,Plated,1,4,PTH
FMAT,2
METRIC
; #@! TA.AperFunction,Plated,PTH,ViaDrill
T1C0.150
; #@! TA.AperFunction,Plated,PTH,ComponentDrill
T2C0.200
; #@! TA.AperFunction,Plated,PTH,ViaDrill
T3C0.300
; #@! TA.AperFunction,Plated,PTH,ViaDrill
T4C0.400
; #@! TA.AperFunction,Plated,PTH,ComponentDrill
T5C0.600
; #@! TA.AperFunction,Plated,PTH,ComponentDrill
T6C1.000
%
G90
G05
T1
X114.462Y-125.438
T2
X168.7Y-124.1
X168.7Y-126.01
X170.0Y-124.1
X170.0Y-126.01
X171.3Y-124.1
X171.3Y-126.01
T3
X106.6Y-125.8
X107.4Y-125.8
X107.5Y-123.775
X109.087Y-123.887
X109.5Y-123.7
X110.8Y-127.3
X110.875Y-123.7
X111.2Y-125.4
X111.3Y-123.9
X111.444Y-127.385
X113.2Y-124.5
X117.2Y-127.5
X119.3Y-129.9
T4
X93.9Y-116.0
X95.0Y-116.0
X96.8Y-106.8
X97.2Y-112.8
X97.2Y-119.2
X98.0Y-105.9
X98.1Y-111.0
X98.1Y-111.9
X98.1Y-112.8
X98.1Y-119.2
X98.1Y-120.1
X98.1Y-121.0
X105.9Y-126.9
X107.397Y-122.298
X108.5Y-128.042
X109.175Y-117.5
X109.175Y-118.4
X109.175Y-119.3
X109.18Y-124.724
X109.2Y-128.6
X109.5Y-127.1
X109.975Y-125.2
X110.663Y-124.681
X111.175Y-117.5
X111.175Y-118.4
X111.175Y-119.3
X113.2Y-122.5
X113.3Y-130.9
X115.0Y-118.0
X117.0Y-118.0
X118.0Y-117.0
X118.5Y-103.5
X118.5Y-105.0
X118.5Y-106.5
X119.0Y-104.25
X119.0Y-105.75
X119.0Y-118.0
X119.0Y-125.5
X119.0Y-127.1
X119.5Y-103.5
X119.5Y-105.0
X119.5Y-106.5
X120.0Y-104.25
X120.0Y-105.75
X120.0Y-117.0
X120.0Y-125.5
X120.8Y-127.0
X121.0Y-118.0
X121.0Y-125.5
X122.0Y-125.5
X122.8Y-113.2
X122.8Y-114.1
X122.8Y-115.0
X122.8Y-115.9
X123.6Y-113.6
X123.6Y-114.5
X123.6Y-115.4
X123.6Y-116.3
X131.0Y-108.0
X131.1Y-128.3
X132.2Y-111.2
X133.4Y-111.3
X145.5Y-120.0
X146.0Y-119.0
X146.5Y-120.0
X147.0Y-119.0
X147.5Y-120.0
X148.0Y-119.0
X148.5Y-120.0
X149.0Y-119.0
X149.0Y-121.0
X149.5Y-120.0
X149.5Y-122.0
X150.0Y-119.0
X150.0Y-121.0
X150.0Y-123.0
X150.5Y-120.0
X150.5Y-122.0
X156.37Y-117.19
X161.0Y-108.3
X161.2Y-128.3
X161.25Y-116.5
X161.25Y-117.75
X169.1Y-118.4
X169.1Y-119.4
X169.1Y-120.4
X169.8Y-118.9
X169.8Y-119.9
X169.8Y-120.9
X176.3Y-127.9
X176.9Y-128.8
X177.4Y-127.9
X178.0Y-128.8
X178.5Y-128.0
X179.1Y-128.8
X179.6Y-128.0
X183.0Y-118.4
X188.0Y-114.8
X188.599Y-117.5
X190.0Y-108.2
X190.0Y-128.0
X190.7Y-119.1
X192.0Y-114.0
X192.08Y-119.18
X193.6Y-114.2
X193.6Y-115.4
X198.3Y-111.4
X199.1Y-120.3
X199.2Y-107.0
X200.7Y-102.9
X201.0Y-111.6
X201.0Y-113.0
X201.0Y-114.2
X201.0Y-115.4
X201.0Y-116.6
X201.0Y-117.8
X201.0Y-119.0
X202.0Y-107.0
X202.9Y-120.3
X208.4Y-105.2
X209.383Y-111.213
X210.399Y-111.2
X211.2Y-115.2
X211.2Y-116.6
X211.9Y-103.5
X212.05Y-111.25
X212.075Y-129.075
X212.6Y-115.2
X212.6Y-116.6
X213.05Y-111.25
X214.0Y-105.2
X214.0Y-106.1
X214.0Y-107.0
X214.0Y-107.9
X214.05Y-111.25
X214.5Y-108.6
X214.6Y-112.7
X214.9Y-115.1
X215.0Y-107.9
X215.048Y-111.197
X215.3Y-127.0
X215.7Y-120.0
X215.8Y-112.2
X216.9Y-111.8
X216.9Y-120.3
X217.3Y-105.7
X217.3Y-106.6
X217.3Y-107.5
X217.3Y-108.4
X218.1Y-105.3
X218.1Y-106.2
X218.1Y-107.1
X218.1Y-108.0
T6
X168.32Y-116.0
X170.86Y-116.0
X173.4Y-116.0
X175.94Y-116.0
X178.48Y-116.0
X181.02Y-116.0
T5
G00X92.5Y-111.68
M15
G01X91.2Y-111.68
M16
G05
G00X92.5Y-120.32
M15
G01X91.2Y-120.32
M16
G05
G00X96.175Y-111.68
M15
G01X95.175Y-111.68
M16
G05
G00X96.175Y-120.32
M15
G01X95.175Y-120.32
M16
G05
T0
M30
