%TF.GenerationSoftware,KiCad,Pcbnew,(7.0.0)*%
%TF.CreationDate,2023-05-08T11:18:22-04:00*%
%TF.ProjectId,AutoTiller,4175746f-5469-46c6-9c65-722e6b696361,rev?*%
%TF.SameCoordinates,Original*%
%TF.FileFunction,Drillmap*%
%TF.FilePolarity,Positive*%
%FSLAX45Y45*%
G04 Gerber Fmt 4.5, Leading zero omitted, Abs format (unit mm)*
G04 Created by KiCad (PCBNEW (7.0.0)) date 2023-05-08 11:18:22*
%MOMM*%
%LPD*%
G01*
G04 APERTURE LIST*
%ADD10C,0.100000*%
%ADD11C,0.200000*%
%ADD12C,0.015000*%
%ADD13C,0.020000*%
%ADD14C,0.030000*%
%ADD15C,0.040000*%
%ADD16C,0.060000*%
G04 APERTURE END LIST*
D10*
X9400000Y-13200000D02*
X22100000Y-13200000D01*
X13650000Y-10700000D02*
X15050000Y-10700000D01*
X15050000Y-10700000D02*
X15050000Y-10000000D01*
X9000000Y-10400000D02*
X9000000Y-12800000D01*
X22500000Y-12800000D02*
X22500000Y-10400000D01*
X13650000Y-10000000D02*
X13650000Y-10700000D01*
X9400000Y-10000000D02*
G75*
G03*
X9000000Y-10400000I0J-400000D01*
G01*
X22100000Y-10000000D02*
X15050000Y-10000000D01*
X13650000Y-10000000D02*
X9400000Y-10000000D01*
X22500000Y-10400000D02*
G75*
G03*
X22100000Y-10000000I-400000J0D01*
G01*
X9000000Y-12800000D02*
G75*
G03*
X9400000Y-13200000I400000J0D01*
G01*
X22100000Y-13200000D02*
G75*
G03*
X22500000Y-12800000I0J400000D01*
G01*
D11*
D12*
X11438700Y-12536300D02*
X11453700Y-12551300D01*
X11453700Y-12536300D02*
X11438700Y-12551300D01*
D13*
X16880000Y-12410000D02*
G75*
G03*
X16880000Y-12410000I-10000J0D01*
G01*
X16880000Y-12601000D02*
G75*
G03*
X16880000Y-12601000I-10000J0D01*
G01*
X17010000Y-12410000D02*
G75*
G03*
X17010000Y-12410000I-10000J0D01*
G01*
X17010000Y-12601000D02*
G75*
G03*
X17010000Y-12601000I-10000J0D01*
G01*
X17140000Y-12410000D02*
G75*
G03*
X17140000Y-12410000I-10000J0D01*
G01*
X17140000Y-12601000D02*
G75*
G03*
X17140000Y-12601000I-10000J0D01*
G01*
D14*
X10660000Y-12565000D02*
X10660000Y-12595000D01*
X10645000Y-12580000D02*
X10675000Y-12580000D01*
X10740000Y-12565000D02*
X10740000Y-12595000D01*
X10725000Y-12580000D02*
X10755000Y-12580000D01*
X10750000Y-12362550D02*
X10750000Y-12392550D01*
X10735000Y-12377550D02*
X10765000Y-12377550D01*
X10908750Y-12373750D02*
X10908750Y-12403750D01*
X10893750Y-12388750D02*
X10923750Y-12388750D01*
X10950000Y-12355000D02*
X10950000Y-12385000D01*
X10935000Y-12370000D02*
X10965000Y-12370000D01*
X11080000Y-12715000D02*
X11080000Y-12745000D01*
X11065000Y-12730000D02*
X11095000Y-12730000D01*
X11087500Y-12355000D02*
X11087500Y-12385000D01*
X11072500Y-12370000D02*
X11102500Y-12370000D01*
X11120000Y-12525000D02*
X11120000Y-12555000D01*
X11105000Y-12540000D02*
X11135000Y-12540000D01*
X11130000Y-12375000D02*
X11130000Y-12405000D01*
X11115000Y-12390000D02*
X11145000Y-12390000D01*
X11144385Y-12723550D02*
X11144385Y-12753550D01*
X11129385Y-12738550D02*
X11159385Y-12738550D01*
X11320000Y-12435000D02*
X11320000Y-12465000D01*
X11305000Y-12450000D02*
X11335000Y-12450000D01*
X11720000Y-12735000D02*
X11720000Y-12765000D01*
X11705000Y-12750000D02*
X11735000Y-12750000D01*
X11930000Y-12975000D02*
X11930000Y-13005000D01*
X11915000Y-12990000D02*
X11945000Y-12990000D01*
D15*
X9404142Y-11614142D02*
X9404142Y-11585858D01*
X9375858Y-11585858D01*
X9375858Y-11614142D01*
X9404142Y-11614142D01*
X9514142Y-11614142D02*
X9514142Y-11585858D01*
X9485858Y-11585858D01*
X9485858Y-11614142D01*
X9514142Y-11614142D01*
X9694142Y-10694142D02*
X9694142Y-10665858D01*
X9665858Y-10665858D01*
X9665858Y-10694142D01*
X9694142Y-10694142D01*
X9734142Y-11294142D02*
X9734142Y-11265858D01*
X9705858Y-11265858D01*
X9705858Y-11294142D01*
X9734142Y-11294142D01*
X9734142Y-11934142D02*
X9734142Y-11905858D01*
X9705858Y-11905858D01*
X9705858Y-11934142D01*
X9734142Y-11934142D01*
X9814142Y-10604142D02*
X9814142Y-10575858D01*
X9785858Y-10575858D01*
X9785858Y-10604142D01*
X9814142Y-10604142D01*
X9824142Y-11114142D02*
X9824142Y-11085858D01*
X9795858Y-11085858D01*
X9795858Y-11114142D01*
X9824142Y-11114142D01*
X9824142Y-11204142D02*
X9824142Y-11175858D01*
X9795858Y-11175858D01*
X9795858Y-11204142D01*
X9824142Y-11204142D01*
X9824142Y-11294142D02*
X9824142Y-11265858D01*
X9795858Y-11265858D01*
X9795858Y-11294142D01*
X9824142Y-11294142D01*
X9824142Y-11934142D02*
X9824142Y-11905858D01*
X9795858Y-11905858D01*
X9795858Y-11934142D01*
X9824142Y-11934142D01*
X9824142Y-12024142D02*
X9824142Y-11995858D01*
X9795858Y-11995858D01*
X9795858Y-12024142D01*
X9824142Y-12024142D01*
X9824142Y-12114142D02*
X9824142Y-12085858D01*
X9795858Y-12085858D01*
X9795858Y-12114142D01*
X9824142Y-12114142D01*
X10604142Y-12704142D02*
X10604142Y-12675858D01*
X10575858Y-12675858D01*
X10575858Y-12704142D01*
X10604142Y-12704142D01*
X10753820Y-12243948D02*
X10753820Y-12215663D01*
X10725535Y-12215663D01*
X10725535Y-12243948D01*
X10753820Y-12243948D01*
X10864142Y-12818333D02*
X10864142Y-12790049D01*
X10835858Y-12790049D01*
X10835858Y-12818333D01*
X10864142Y-12818333D01*
X10931642Y-11764142D02*
X10931642Y-11735858D01*
X10903358Y-11735858D01*
X10903358Y-11764142D01*
X10931642Y-11764142D01*
X10931642Y-11854142D02*
X10931642Y-11825858D01*
X10903358Y-11825858D01*
X10903358Y-11854142D01*
X10931642Y-11854142D01*
X10931642Y-11944142D02*
X10931642Y-11915858D01*
X10903358Y-11915858D01*
X10903358Y-11944142D01*
X10931642Y-11944142D01*
X10932151Y-12486514D02*
X10932151Y-12458229D01*
X10903866Y-12458229D01*
X10903866Y-12486514D01*
X10932151Y-12486514D01*
X10934142Y-12874142D02*
X10934142Y-12845858D01*
X10905858Y-12845858D01*
X10905858Y-12874142D01*
X10934142Y-12874142D01*
X10964142Y-12724142D02*
X10964142Y-12695858D01*
X10935858Y-12695858D01*
X10935858Y-12724142D01*
X10964142Y-12724142D01*
X11011642Y-12534142D02*
X11011642Y-12505858D01*
X10983358Y-12505858D01*
X10983358Y-12534142D01*
X11011642Y-12534142D01*
X11080414Y-12482277D02*
X11080414Y-12453992D01*
X11052129Y-12453992D01*
X11052129Y-12482277D01*
X11080414Y-12482277D01*
X11131642Y-11764142D02*
X11131642Y-11735858D01*
X11103358Y-11735858D01*
X11103358Y-11764142D01*
X11131642Y-11764142D01*
X11131642Y-11854142D02*
X11131642Y-11825858D01*
X11103358Y-11825858D01*
X11103358Y-11854142D01*
X11131642Y-11854142D01*
X11131642Y-11944142D02*
X11131642Y-11915858D01*
X11103358Y-11915858D01*
X11103358Y-11944142D01*
X11131642Y-11944142D01*
X11334142Y-12264142D02*
X11334142Y-12235858D01*
X11305858Y-12235858D01*
X11305858Y-12264142D01*
X11334142Y-12264142D01*
X11344142Y-13104142D02*
X11344142Y-13075858D01*
X11315858Y-13075858D01*
X11315858Y-13104142D01*
X11344142Y-13104142D01*
X11514142Y-11814142D02*
X11514142Y-11785858D01*
X11485858Y-11785858D01*
X11485858Y-11814142D01*
X11514142Y-11814142D01*
X11714142Y-11814142D02*
X11714142Y-11785858D01*
X11685858Y-11785858D01*
X11685858Y-11814142D01*
X11714142Y-11814142D01*
X11814142Y-11714142D02*
X11814142Y-11685858D01*
X11785858Y-11685858D01*
X11785858Y-11714142D01*
X11814142Y-11714142D01*
X11864142Y-10364142D02*
X11864142Y-10335858D01*
X11835858Y-10335858D01*
X11835858Y-10364142D01*
X11864142Y-10364142D01*
X11864142Y-10514142D02*
X11864142Y-10485858D01*
X11835858Y-10485858D01*
X11835858Y-10514142D01*
X11864142Y-10514142D01*
X11864142Y-10664142D02*
X11864142Y-10635858D01*
X11835858Y-10635858D01*
X11835858Y-10664142D01*
X11864142Y-10664142D01*
X11914142Y-10439142D02*
X11914142Y-10410858D01*
X11885858Y-10410858D01*
X11885858Y-10439142D01*
X11914142Y-10439142D01*
X11914142Y-10589142D02*
X11914142Y-10560858D01*
X11885858Y-10560858D01*
X11885858Y-10589142D01*
X11914142Y-10589142D01*
X11914142Y-11814142D02*
X11914142Y-11785858D01*
X11885858Y-11785858D01*
X11885858Y-11814142D01*
X11914142Y-11814142D01*
X11914142Y-12564142D02*
X11914142Y-12535858D01*
X11885858Y-12535858D01*
X11885858Y-12564142D01*
X11914142Y-12564142D01*
X11914142Y-12724142D02*
X11914142Y-12695858D01*
X11885858Y-12695858D01*
X11885858Y-12724142D01*
X11914142Y-12724142D01*
X11964142Y-10364142D02*
X11964142Y-10335858D01*
X11935858Y-10335858D01*
X11935858Y-10364142D01*
X11964142Y-10364142D01*
X11964142Y-10514142D02*
X11964142Y-10485858D01*
X11935858Y-10485858D01*
X11935858Y-10514142D01*
X11964142Y-10514142D01*
X11964142Y-10664142D02*
X11964142Y-10635858D01*
X11935858Y-10635858D01*
X11935858Y-10664142D01*
X11964142Y-10664142D01*
X12014142Y-10439142D02*
X12014142Y-10410858D01*
X11985858Y-10410858D01*
X11985858Y-10439142D01*
X12014142Y-10439142D01*
X12014142Y-10589142D02*
X12014142Y-10560858D01*
X11985858Y-10560858D01*
X11985858Y-10589142D01*
X12014142Y-10589142D01*
X12014142Y-11714142D02*
X12014142Y-11685858D01*
X11985858Y-11685858D01*
X11985858Y-11714142D01*
X12014142Y-11714142D01*
X12014142Y-12564142D02*
X12014142Y-12535858D01*
X11985858Y-12535858D01*
X11985858Y-12564142D01*
X12014142Y-12564142D01*
X12094142Y-12714142D02*
X12094142Y-12685858D01*
X12065858Y-12685858D01*
X12065858Y-12714142D01*
X12094142Y-12714142D01*
X12114142Y-11814142D02*
X12114142Y-11785858D01*
X12085858Y-11785858D01*
X12085858Y-11814142D01*
X12114142Y-11814142D01*
X12114142Y-12564142D02*
X12114142Y-12535858D01*
X12085858Y-12535858D01*
X12085858Y-12564142D01*
X12114142Y-12564142D01*
X12214142Y-12564142D02*
X12214142Y-12535858D01*
X12185858Y-12535858D01*
X12185858Y-12564142D01*
X12214142Y-12564142D01*
X12294142Y-11334142D02*
X12294142Y-11305858D01*
X12265858Y-11305858D01*
X12265858Y-11334142D01*
X12294142Y-11334142D01*
X12294142Y-11424142D02*
X12294142Y-11395858D01*
X12265858Y-11395858D01*
X12265858Y-11424142D01*
X12294142Y-11424142D01*
X12294142Y-11514142D02*
X12294142Y-11485858D01*
X12265858Y-11485858D01*
X12265858Y-11514142D01*
X12294142Y-11514142D01*
X12294142Y-11604142D02*
X12294142Y-11575858D01*
X12265858Y-11575858D01*
X12265858Y-11604142D01*
X12294142Y-11604142D01*
X12374142Y-11374142D02*
X12374142Y-11345858D01*
X12345858Y-11345858D01*
X12345858Y-11374142D01*
X12374142Y-11374142D01*
X12374142Y-11464142D02*
X12374142Y-11435858D01*
X12345858Y-11435858D01*
X12345858Y-11464142D01*
X12374142Y-11464142D01*
X12374142Y-11554142D02*
X12374142Y-11525858D01*
X12345858Y-11525858D01*
X12345858Y-11554142D01*
X12374142Y-11554142D01*
X12374142Y-11644142D02*
X12374142Y-11615858D01*
X12345858Y-11615858D01*
X12345858Y-11644142D01*
X12374142Y-11644142D01*
X13114142Y-10814142D02*
X13114142Y-10785858D01*
X13085858Y-10785858D01*
X13085858Y-10814142D01*
X13114142Y-10814142D01*
X13124142Y-12844142D02*
X13124142Y-12815858D01*
X13095858Y-12815858D01*
X13095858Y-12844142D01*
X13124142Y-12844142D01*
X13234142Y-11134142D02*
X13234142Y-11105858D01*
X13205858Y-11105858D01*
X13205858Y-11134142D01*
X13234142Y-11134142D01*
X13354142Y-11144142D02*
X13354142Y-11115858D01*
X13325858Y-11115858D01*
X13325858Y-11144142D01*
X13354142Y-11144142D01*
X14564142Y-12014142D02*
X14564142Y-11985858D01*
X14535858Y-11985858D01*
X14535858Y-12014142D01*
X14564142Y-12014142D01*
X14614142Y-11914142D02*
X14614142Y-11885858D01*
X14585858Y-11885858D01*
X14585858Y-11914142D01*
X14614142Y-11914142D01*
X14664142Y-12014142D02*
X14664142Y-11985858D01*
X14635858Y-11985858D01*
X14635858Y-12014142D01*
X14664142Y-12014142D01*
X14714142Y-11914142D02*
X14714142Y-11885858D01*
X14685858Y-11885858D01*
X14685858Y-11914142D01*
X14714142Y-11914142D01*
X14764142Y-12014142D02*
X14764142Y-11985858D01*
X14735858Y-11985858D01*
X14735858Y-12014142D01*
X14764142Y-12014142D01*
X14814142Y-11914142D02*
X14814142Y-11885858D01*
X14785858Y-11885858D01*
X14785858Y-11914142D01*
X14814142Y-11914142D01*
X14864142Y-12014142D02*
X14864142Y-11985858D01*
X14835858Y-11985858D01*
X14835858Y-12014142D01*
X14864142Y-12014142D01*
X14914142Y-11914142D02*
X14914142Y-11885858D01*
X14885858Y-11885858D01*
X14885858Y-11914142D01*
X14914142Y-11914142D01*
X14914142Y-12114142D02*
X14914142Y-12085858D01*
X14885858Y-12085858D01*
X14885858Y-12114142D01*
X14914142Y-12114142D01*
X14964142Y-12014142D02*
X14964142Y-11985858D01*
X14935858Y-11985858D01*
X14935858Y-12014142D01*
X14964142Y-12014142D01*
X14964142Y-12214142D02*
X14964142Y-12185858D01*
X14935858Y-12185858D01*
X14935858Y-12214142D01*
X14964142Y-12214142D01*
X15014142Y-11914142D02*
X15014142Y-11885858D01*
X14985858Y-11885858D01*
X14985858Y-11914142D01*
X15014142Y-11914142D01*
X15014142Y-12114142D02*
X15014142Y-12085858D01*
X14985858Y-12085858D01*
X14985858Y-12114142D01*
X15014142Y-12114142D01*
X15014142Y-12314142D02*
X15014142Y-12285858D01*
X14985858Y-12285858D01*
X14985858Y-12314142D01*
X15014142Y-12314142D01*
X15064142Y-12014142D02*
X15064142Y-11985858D01*
X15035858Y-11985858D01*
X15035858Y-12014142D01*
X15064142Y-12014142D01*
X15064142Y-12214142D02*
X15064142Y-12185858D01*
X15035858Y-12185858D01*
X15035858Y-12214142D01*
X15064142Y-12214142D01*
X15651142Y-11733142D02*
X15651142Y-11704858D01*
X15622858Y-11704858D01*
X15622858Y-11733142D01*
X15651142Y-11733142D01*
X16114142Y-10844142D02*
X16114142Y-10815858D01*
X16085858Y-10815858D01*
X16085858Y-10844142D01*
X16114142Y-10844142D01*
X16134142Y-12844142D02*
X16134142Y-12815858D01*
X16105858Y-12815858D01*
X16105858Y-12844142D01*
X16134142Y-12844142D01*
X16139142Y-11664142D02*
X16139142Y-11635858D01*
X16110858Y-11635858D01*
X16110858Y-11664142D01*
X16139142Y-11664142D01*
X16139142Y-11789142D02*
X16139142Y-11760858D01*
X16110858Y-11760858D01*
X16110858Y-11789142D01*
X16139142Y-11789142D01*
X16924142Y-11854142D02*
X16924142Y-11825858D01*
X16895858Y-11825858D01*
X16895858Y-11854142D01*
X16924142Y-11854142D01*
X16924142Y-11954142D02*
X16924142Y-11925858D01*
X16895858Y-11925858D01*
X16895858Y-11954142D01*
X16924142Y-11954142D01*
X16924142Y-12054142D02*
X16924142Y-12025858D01*
X16895858Y-12025858D01*
X16895858Y-12054142D01*
X16924142Y-12054142D01*
X16994142Y-11904142D02*
X16994142Y-11875858D01*
X16965858Y-11875858D01*
X16965858Y-11904142D01*
X16994142Y-11904142D01*
X16994142Y-12004142D02*
X16994142Y-11975858D01*
X16965858Y-11975858D01*
X16965858Y-12004142D01*
X16994142Y-12004142D01*
X16994142Y-12104142D02*
X16994142Y-12075858D01*
X16965858Y-12075858D01*
X16965858Y-12104142D01*
X16994142Y-12104142D01*
X17644142Y-12804142D02*
X17644142Y-12775858D01*
X17615858Y-12775858D01*
X17615858Y-12804142D01*
X17644142Y-12804142D01*
X17704142Y-12894142D02*
X17704142Y-12865858D01*
X17675858Y-12865858D01*
X17675858Y-12894142D01*
X17704142Y-12894142D01*
X17754142Y-12804142D02*
X17754142Y-12775858D01*
X17725858Y-12775858D01*
X17725858Y-12804142D01*
X17754142Y-12804142D01*
X17814142Y-12894142D02*
X17814142Y-12865858D01*
X17785858Y-12865858D01*
X17785858Y-12894142D01*
X17814142Y-12894142D01*
X17864142Y-12814142D02*
X17864142Y-12785858D01*
X17835858Y-12785858D01*
X17835858Y-12814142D01*
X17864142Y-12814142D01*
X17924142Y-12894142D02*
X17924142Y-12865858D01*
X17895858Y-12865858D01*
X17895858Y-12894142D01*
X17924142Y-12894142D01*
X17974142Y-12814142D02*
X17974142Y-12785858D01*
X17945858Y-12785858D01*
X17945858Y-12814142D01*
X17974142Y-12814142D01*
X18314142Y-11854142D02*
X18314142Y-11825858D01*
X18285858Y-11825858D01*
X18285858Y-11854142D01*
X18314142Y-11854142D01*
X18814142Y-11494142D02*
X18814142Y-11465858D01*
X18785858Y-11465858D01*
X18785858Y-11494142D01*
X18814142Y-11494142D01*
X18874092Y-11764142D02*
X18874092Y-11735858D01*
X18845808Y-11735858D01*
X18845808Y-11764142D01*
X18874092Y-11764142D01*
X19014142Y-10834142D02*
X19014142Y-10805858D01*
X18985858Y-10805858D01*
X18985858Y-10834142D01*
X19014142Y-10834142D01*
X19014142Y-12814142D02*
X19014142Y-12785858D01*
X18985858Y-12785858D01*
X18985858Y-12814142D01*
X19014142Y-12814142D01*
X19084142Y-11924142D02*
X19084142Y-11895858D01*
X19055858Y-11895858D01*
X19055858Y-11924142D01*
X19084142Y-11924142D01*
X19214142Y-11414142D02*
X19214142Y-11385858D01*
X19185858Y-11385858D01*
X19185858Y-11414142D01*
X19214142Y-11414142D01*
X19222142Y-11932142D02*
X19222142Y-11903858D01*
X19193858Y-11903858D01*
X19193858Y-11932142D01*
X19222142Y-11932142D01*
X19374142Y-11434142D02*
X19374142Y-11405858D01*
X19345858Y-11405858D01*
X19345858Y-11434142D01*
X19374142Y-11434142D01*
X19374142Y-11554142D02*
X19374142Y-11525858D01*
X19345858Y-11525858D01*
X19345858Y-11554142D01*
X19374142Y-11554142D01*
X19844142Y-11154142D02*
X19844142Y-11125858D01*
X19815858Y-11125858D01*
X19815858Y-11154142D01*
X19844142Y-11154142D01*
X19924142Y-12044142D02*
X19924142Y-12015858D01*
X19895858Y-12015858D01*
X19895858Y-12044142D01*
X19924142Y-12044142D01*
X19934142Y-10714142D02*
X19934142Y-10685858D01*
X19905858Y-10685858D01*
X19905858Y-10714142D01*
X19934142Y-10714142D01*
X20084142Y-10304142D02*
X20084142Y-10275858D01*
X20055858Y-10275858D01*
X20055858Y-10304142D01*
X20084142Y-10304142D01*
X20114142Y-11174142D02*
X20114142Y-11145858D01*
X20085858Y-11145858D01*
X20085858Y-11174142D01*
X20114142Y-11174142D01*
X20114142Y-11314142D02*
X20114142Y-11285858D01*
X20085858Y-11285858D01*
X20085858Y-11314142D01*
X20114142Y-11314142D01*
X20114142Y-11434142D02*
X20114142Y-11405858D01*
X20085858Y-11405858D01*
X20085858Y-11434142D01*
X20114142Y-11434142D01*
X20114142Y-11554142D02*
X20114142Y-11525858D01*
X20085858Y-11525858D01*
X20085858Y-11554142D01*
X20114142Y-11554142D01*
X20114142Y-11674142D02*
X20114142Y-11645858D01*
X20085858Y-11645858D01*
X20085858Y-11674142D01*
X20114142Y-11674142D01*
X20114142Y-11794142D02*
X20114142Y-11765858D01*
X20085858Y-11765858D01*
X20085858Y-11794142D01*
X20114142Y-11794142D01*
X20114142Y-11914142D02*
X20114142Y-11885858D01*
X20085858Y-11885858D01*
X20085858Y-11914142D01*
X20114142Y-11914142D01*
X20214142Y-10714142D02*
X20214142Y-10685858D01*
X20185858Y-10685858D01*
X20185858Y-10714142D01*
X20214142Y-10714142D01*
X20304142Y-12044142D02*
X20304142Y-12015858D01*
X20275858Y-12015858D01*
X20275858Y-12044142D01*
X20304142Y-12044142D01*
X20854142Y-10534142D02*
X20854142Y-10505858D01*
X20825858Y-10505858D01*
X20825858Y-10534142D01*
X20854142Y-10534142D01*
X20952451Y-11135492D02*
X20952451Y-11107207D01*
X20924167Y-11107207D01*
X20924167Y-11135492D01*
X20952451Y-11135492D01*
X21054092Y-11134099D02*
X21054092Y-11105815D01*
X21025808Y-11105815D01*
X21025808Y-11134099D01*
X21054092Y-11134099D01*
X21134142Y-11534142D02*
X21134142Y-11505858D01*
X21105858Y-11505858D01*
X21105858Y-11534142D01*
X21134142Y-11534142D01*
X21134142Y-11674142D02*
X21134142Y-11645858D01*
X21105858Y-11645858D01*
X21105858Y-11674142D01*
X21134142Y-11674142D01*
X21204142Y-10364142D02*
X21204142Y-10335858D01*
X21175858Y-10335858D01*
X21175858Y-10364142D01*
X21204142Y-10364142D01*
X21219142Y-11139142D02*
X21219142Y-11110858D01*
X21190858Y-11110858D01*
X21190858Y-11139142D01*
X21219142Y-11139142D01*
X21221642Y-12921642D02*
X21221642Y-12893358D01*
X21193358Y-12893358D01*
X21193358Y-12921642D01*
X21221642Y-12921642D01*
X21274142Y-11534142D02*
X21274142Y-11505858D01*
X21245858Y-11505858D01*
X21245858Y-11534142D01*
X21274142Y-11534142D01*
X21274142Y-11674142D02*
X21274142Y-11645858D01*
X21245858Y-11645858D01*
X21245858Y-11674142D01*
X21274142Y-11674142D01*
X21319142Y-11139142D02*
X21319142Y-11110858D01*
X21290858Y-11110858D01*
X21290858Y-11139142D01*
X21319142Y-11139142D01*
X21414142Y-10534142D02*
X21414142Y-10505858D01*
X21385858Y-10505858D01*
X21385858Y-10534142D01*
X21414142Y-10534142D01*
X21414142Y-10624142D02*
X21414142Y-10595858D01*
X21385858Y-10595858D01*
X21385858Y-10624142D01*
X21414142Y-10624142D01*
X21414142Y-10714142D02*
X21414142Y-10685858D01*
X21385858Y-10685858D01*
X21385858Y-10714142D01*
X21414142Y-10714142D01*
X21414142Y-10804142D02*
X21414142Y-10775858D01*
X21385858Y-10775858D01*
X21385858Y-10804142D01*
X21414142Y-10804142D01*
X21419093Y-11139142D02*
X21419093Y-11110858D01*
X21390808Y-11110858D01*
X21390808Y-11139142D01*
X21419093Y-11139142D01*
X21464142Y-10874142D02*
X21464142Y-10845858D01*
X21435858Y-10845858D01*
X21435858Y-10874142D01*
X21464142Y-10874142D01*
X21474142Y-11284142D02*
X21474142Y-11255858D01*
X21445858Y-11255858D01*
X21445858Y-11284142D01*
X21474142Y-11284142D01*
X21504142Y-11524142D02*
X21504142Y-11495858D01*
X21475858Y-11495858D01*
X21475858Y-11524142D01*
X21504142Y-11524142D01*
X21514142Y-10804142D02*
X21514142Y-10775858D01*
X21485858Y-10775858D01*
X21485858Y-10804142D01*
X21514142Y-10804142D01*
X21518902Y-11133833D02*
X21518902Y-11105548D01*
X21490617Y-11105548D01*
X21490617Y-11133833D01*
X21518902Y-11133833D01*
X21544142Y-12714142D02*
X21544142Y-12685858D01*
X21515858Y-12685858D01*
X21515858Y-12714142D01*
X21544142Y-12714142D01*
X21584142Y-12014142D02*
X21584142Y-11985858D01*
X21555858Y-11985858D01*
X21555858Y-12014142D01*
X21584142Y-12014142D01*
X21594142Y-11234142D02*
X21594142Y-11205858D01*
X21565858Y-11205858D01*
X21565858Y-11234142D01*
X21594142Y-11234142D01*
X21704142Y-11194142D02*
X21704142Y-11165858D01*
X21675858Y-11165858D01*
X21675858Y-11194142D01*
X21704142Y-11194142D01*
X21704142Y-12044142D02*
X21704142Y-12015858D01*
X21675858Y-12015858D01*
X21675858Y-12044142D01*
X21704142Y-12044142D01*
X21744142Y-10584142D02*
X21744142Y-10555858D01*
X21715858Y-10555858D01*
X21715858Y-10584142D01*
X21744142Y-10584142D01*
X21744142Y-10674142D02*
X21744142Y-10645858D01*
X21715858Y-10645858D01*
X21715858Y-10674142D01*
X21744142Y-10674142D01*
X21744142Y-10764142D02*
X21744142Y-10735858D01*
X21715858Y-10735858D01*
X21715858Y-10764142D01*
X21744142Y-10764142D01*
X21744142Y-10854142D02*
X21744142Y-10825858D01*
X21715858Y-10825858D01*
X21715858Y-10854142D01*
X21744142Y-10854142D01*
X21824142Y-10544142D02*
X21824142Y-10515858D01*
X21795858Y-10515858D01*
X21795858Y-10544142D01*
X21824142Y-10544142D01*
X21824142Y-10634142D02*
X21824142Y-10605858D01*
X21795858Y-10605858D01*
X21795858Y-10634142D01*
X21824142Y-10634142D01*
X21824142Y-10724142D02*
X21824142Y-10695858D01*
X21795858Y-10695858D01*
X21795858Y-10724142D01*
X21824142Y-10724142D01*
X21824142Y-10814142D02*
X21824142Y-10785858D01*
X21795858Y-10785858D01*
X21795858Y-10814142D01*
X21824142Y-10814142D01*
D16*
X9185000Y-11198000D02*
X9215000Y-11168000D01*
X9185000Y-11138000D01*
X9155000Y-11168000D01*
X9185000Y-11198000D01*
D11*
X9250000Y-11138000D02*
X9120000Y-11138000D01*
X9120000Y-11138000D02*
G75*
G03*
X9120000Y-11198000I0J-30000D01*
G01*
X9120000Y-11198000D02*
X9250000Y-11198000D01*
X9250000Y-11198000D02*
G75*
G03*
X9250000Y-11138000I0J30000D01*
G01*
D16*
X9185000Y-12062000D02*
X9215000Y-12032000D01*
X9185000Y-12002000D01*
X9155000Y-12032000D01*
X9185000Y-12062000D01*
D11*
X9250000Y-12002000D02*
X9120000Y-12002000D01*
X9120000Y-12002000D02*
G75*
G03*
X9120000Y-12062000I0J-30000D01*
G01*
X9120000Y-12062000D02*
X9250000Y-12062000D01*
X9250000Y-12062000D02*
G75*
G03*
X9250000Y-12002000I0J30000D01*
G01*
D16*
X9567500Y-11198000D02*
X9597500Y-11168000D01*
X9567500Y-11138000D01*
X9537500Y-11168000D01*
X9567500Y-11198000D01*
D11*
X9617500Y-11138000D02*
X9517500Y-11138000D01*
X9517500Y-11138000D02*
G75*
G03*
X9517500Y-11198000I0J-30000D01*
G01*
X9517500Y-11198000D02*
X9617500Y-11198000D01*
X9617500Y-11198000D02*
G75*
G03*
X9617500Y-11138000I0J30000D01*
G01*
D16*
X9567500Y-12062000D02*
X9597500Y-12032000D01*
X9567500Y-12002000D01*
X9537500Y-12032000D01*
X9567500Y-12062000D01*
D11*
X9617500Y-12002000D02*
X9517500Y-12002000D01*
X9517500Y-12002000D02*
G75*
G03*
X9517500Y-12062000I0J-30000D01*
G01*
X9517500Y-12062000D02*
X9617500Y-12062000D01*
X9617500Y-12062000D02*
G75*
G03*
X9617500Y-12002000I0J30000D01*
G01*
D10*
X16782000Y-11550000D02*
X16882000Y-11650000D01*
X16882000Y-11550000D02*
X16782000Y-11650000D01*
X16882000Y-11600000D02*
G75*
G03*
X16882000Y-11600000I-50000J0D01*
G01*
X17036000Y-11550000D02*
X17136000Y-11650000D01*
X17136000Y-11550000D02*
X17036000Y-11650000D01*
X17136000Y-11600000D02*
G75*
G03*
X17136000Y-11600000I-50000J0D01*
G01*
X17290000Y-11550000D02*
X17390000Y-11650000D01*
X17390000Y-11550000D02*
X17290000Y-11650000D01*
X17390000Y-11600000D02*
G75*
G03*
X17390000Y-11600000I-50000J0D01*
G01*
X17544000Y-11550000D02*
X17644000Y-11650000D01*
X17644000Y-11550000D02*
X17544000Y-11650000D01*
X17644000Y-11600000D02*
G75*
G03*
X17644000Y-11600000I-50000J0D01*
G01*
X17798000Y-11550000D02*
X17898000Y-11650000D01*
X17898000Y-11550000D02*
X17798000Y-11650000D01*
X17898000Y-11600000D02*
G75*
G03*
X17898000Y-11600000I-50000J0D01*
G01*
X18052000Y-11550000D02*
X18152000Y-11650000D01*
X18152000Y-11550000D02*
X18052000Y-11650000D01*
X18152000Y-11600000D02*
G75*
G03*
X18152000Y-11600000I-50000J0D01*
G01*
D11*
X9242619Y-13498476D02*
X9242619Y-13298476D01*
X9242619Y-13298476D02*
X9290238Y-13298476D01*
X9290238Y-13298476D02*
X9318810Y-13308000D01*
X9318810Y-13308000D02*
X9337857Y-13327048D01*
X9337857Y-13327048D02*
X9347381Y-13346095D01*
X9347381Y-13346095D02*
X9356905Y-13384190D01*
X9356905Y-13384190D02*
X9356905Y-13412762D01*
X9356905Y-13412762D02*
X9347381Y-13450857D01*
X9347381Y-13450857D02*
X9337857Y-13469905D01*
X9337857Y-13469905D02*
X9318810Y-13488952D01*
X9318810Y-13488952D02*
X9290238Y-13498476D01*
X9290238Y-13498476D02*
X9242619Y-13498476D01*
X9442619Y-13498476D02*
X9442619Y-13365143D01*
X9442619Y-13403238D02*
X9452143Y-13384190D01*
X9452143Y-13384190D02*
X9461667Y-13374667D01*
X9461667Y-13374667D02*
X9480714Y-13365143D01*
X9480714Y-13365143D02*
X9499762Y-13365143D01*
X9566429Y-13498476D02*
X9566429Y-13365143D01*
X9566429Y-13298476D02*
X9556905Y-13308000D01*
X9556905Y-13308000D02*
X9566429Y-13317524D01*
X9566429Y-13317524D02*
X9575952Y-13308000D01*
X9575952Y-13308000D02*
X9566429Y-13298476D01*
X9566429Y-13298476D02*
X9566429Y-13317524D01*
X9690238Y-13498476D02*
X9671190Y-13488952D01*
X9671190Y-13488952D02*
X9661667Y-13469905D01*
X9661667Y-13469905D02*
X9661667Y-13298476D01*
X9795000Y-13498476D02*
X9775952Y-13488952D01*
X9775952Y-13488952D02*
X9766429Y-13469905D01*
X9766429Y-13469905D02*
X9766429Y-13298476D01*
X9991190Y-13498476D02*
X9991190Y-13298476D01*
X9991190Y-13298476D02*
X10057857Y-13441333D01*
X10057857Y-13441333D02*
X10124524Y-13298476D01*
X10124524Y-13298476D02*
X10124524Y-13498476D01*
X10305476Y-13498476D02*
X10305476Y-13393714D01*
X10305476Y-13393714D02*
X10295952Y-13374667D01*
X10295952Y-13374667D02*
X10276905Y-13365143D01*
X10276905Y-13365143D02*
X10238809Y-13365143D01*
X10238809Y-13365143D02*
X10219762Y-13374667D01*
X10305476Y-13488952D02*
X10286429Y-13498476D01*
X10286429Y-13498476D02*
X10238809Y-13498476D01*
X10238809Y-13498476D02*
X10219762Y-13488952D01*
X10219762Y-13488952D02*
X10210238Y-13469905D01*
X10210238Y-13469905D02*
X10210238Y-13450857D01*
X10210238Y-13450857D02*
X10219762Y-13431809D01*
X10219762Y-13431809D02*
X10238809Y-13422286D01*
X10238809Y-13422286D02*
X10286429Y-13422286D01*
X10286429Y-13422286D02*
X10305476Y-13412762D01*
X10400714Y-13365143D02*
X10400714Y-13565143D01*
X10400714Y-13374667D02*
X10419762Y-13365143D01*
X10419762Y-13365143D02*
X10457857Y-13365143D01*
X10457857Y-13365143D02*
X10476905Y-13374667D01*
X10476905Y-13374667D02*
X10486429Y-13384190D01*
X10486429Y-13384190D02*
X10495952Y-13403238D01*
X10495952Y-13403238D02*
X10495952Y-13460381D01*
X10495952Y-13460381D02*
X10486429Y-13479428D01*
X10486429Y-13479428D02*
X10476905Y-13488952D01*
X10476905Y-13488952D02*
X10457857Y-13498476D01*
X10457857Y-13498476D02*
X10419762Y-13498476D01*
X10419762Y-13498476D02*
X10400714Y-13488952D01*
X10581667Y-13479428D02*
X10591190Y-13488952D01*
X10591190Y-13488952D02*
X10581667Y-13498476D01*
X10581667Y-13498476D02*
X10572143Y-13488952D01*
X10572143Y-13488952D02*
X10581667Y-13479428D01*
X10581667Y-13479428D02*
X10581667Y-13498476D01*
X10581667Y-13374667D02*
X10591190Y-13384190D01*
X10591190Y-13384190D02*
X10581667Y-13393714D01*
X10581667Y-13393714D02*
X10572143Y-13384190D01*
X10572143Y-13384190D02*
X10581667Y-13374667D01*
X10581667Y-13374667D02*
X10581667Y-13393714D01*
D12*
X8980000Y-13837500D02*
X8995000Y-13852500D01*
X8995000Y-13837500D02*
X8980000Y-13852500D01*
D11*
X9280714Y-13718476D02*
X9299762Y-13718476D01*
X9299762Y-13718476D02*
X9318810Y-13728000D01*
X9318810Y-13728000D02*
X9328333Y-13737524D01*
X9328333Y-13737524D02*
X9337857Y-13756571D01*
X9337857Y-13756571D02*
X9347381Y-13794667D01*
X9347381Y-13794667D02*
X9347381Y-13842286D01*
X9347381Y-13842286D02*
X9337857Y-13880381D01*
X9337857Y-13880381D02*
X9328333Y-13899428D01*
X9328333Y-13899428D02*
X9318810Y-13908952D01*
X9318810Y-13908952D02*
X9299762Y-13918476D01*
X9299762Y-13918476D02*
X9280714Y-13918476D01*
X9280714Y-13918476D02*
X9261667Y-13908952D01*
X9261667Y-13908952D02*
X9252143Y-13899428D01*
X9252143Y-13899428D02*
X9242619Y-13880381D01*
X9242619Y-13880381D02*
X9233095Y-13842286D01*
X9233095Y-13842286D02*
X9233095Y-13794667D01*
X9233095Y-13794667D02*
X9242619Y-13756571D01*
X9242619Y-13756571D02*
X9252143Y-13737524D01*
X9252143Y-13737524D02*
X9261667Y-13728000D01*
X9261667Y-13728000D02*
X9280714Y-13718476D01*
X9433095Y-13899428D02*
X9442619Y-13908952D01*
X9442619Y-13908952D02*
X9433095Y-13918476D01*
X9433095Y-13918476D02*
X9423571Y-13908952D01*
X9423571Y-13908952D02*
X9433095Y-13899428D01*
X9433095Y-13899428D02*
X9433095Y-13918476D01*
X9633095Y-13918476D02*
X9518810Y-13918476D01*
X9575952Y-13918476D02*
X9575952Y-13718476D01*
X9575952Y-13718476D02*
X9556905Y-13747048D01*
X9556905Y-13747048D02*
X9537857Y-13766095D01*
X9537857Y-13766095D02*
X9518810Y-13775619D01*
X9814048Y-13718476D02*
X9718810Y-13718476D01*
X9718810Y-13718476D02*
X9709286Y-13813714D01*
X9709286Y-13813714D02*
X9718810Y-13804190D01*
X9718810Y-13804190D02*
X9737857Y-13794667D01*
X9737857Y-13794667D02*
X9785476Y-13794667D01*
X9785476Y-13794667D02*
X9804524Y-13804190D01*
X9804524Y-13804190D02*
X9814048Y-13813714D01*
X9814048Y-13813714D02*
X9823571Y-13832762D01*
X9823571Y-13832762D02*
X9823571Y-13880381D01*
X9823571Y-13880381D02*
X9814048Y-13899428D01*
X9814048Y-13899428D02*
X9804524Y-13908952D01*
X9804524Y-13908952D02*
X9785476Y-13918476D01*
X9785476Y-13918476D02*
X9737857Y-13918476D01*
X9737857Y-13918476D02*
X9718810Y-13908952D01*
X9718810Y-13908952D02*
X9709286Y-13899428D01*
X9947381Y-13718476D02*
X9966429Y-13718476D01*
X9966429Y-13718476D02*
X9985476Y-13728000D01*
X9985476Y-13728000D02*
X9995000Y-13737524D01*
X9995000Y-13737524D02*
X10004524Y-13756571D01*
X10004524Y-13756571D02*
X10014048Y-13794667D01*
X10014048Y-13794667D02*
X10014048Y-13842286D01*
X10014048Y-13842286D02*
X10004524Y-13880381D01*
X10004524Y-13880381D02*
X9995000Y-13899428D01*
X9995000Y-13899428D02*
X9985476Y-13908952D01*
X9985476Y-13908952D02*
X9966429Y-13918476D01*
X9966429Y-13918476D02*
X9947381Y-13918476D01*
X9947381Y-13918476D02*
X9928333Y-13908952D01*
X9928333Y-13908952D02*
X9918810Y-13899428D01*
X9918810Y-13899428D02*
X9909286Y-13880381D01*
X9909286Y-13880381D02*
X9899762Y-13842286D01*
X9899762Y-13842286D02*
X9899762Y-13794667D01*
X9899762Y-13794667D02*
X9909286Y-13756571D01*
X9909286Y-13756571D02*
X9918810Y-13737524D01*
X9918810Y-13737524D02*
X9928333Y-13728000D01*
X9928333Y-13728000D02*
X9947381Y-13718476D01*
X10099762Y-13918476D02*
X10099762Y-13785143D01*
X10099762Y-13804190D02*
X10109286Y-13794667D01*
X10109286Y-13794667D02*
X10128333Y-13785143D01*
X10128333Y-13785143D02*
X10156905Y-13785143D01*
X10156905Y-13785143D02*
X10175952Y-13794667D01*
X10175952Y-13794667D02*
X10185476Y-13813714D01*
X10185476Y-13813714D02*
X10185476Y-13918476D01*
X10185476Y-13813714D02*
X10195000Y-13794667D01*
X10195000Y-13794667D02*
X10214048Y-13785143D01*
X10214048Y-13785143D02*
X10242619Y-13785143D01*
X10242619Y-13785143D02*
X10261667Y-13794667D01*
X10261667Y-13794667D02*
X10271191Y-13813714D01*
X10271191Y-13813714D02*
X10271191Y-13918476D01*
X10366429Y-13918476D02*
X10366429Y-13785143D01*
X10366429Y-13804190D02*
X10375952Y-13794667D01*
X10375952Y-13794667D02*
X10395000Y-13785143D01*
X10395000Y-13785143D02*
X10423572Y-13785143D01*
X10423572Y-13785143D02*
X10442619Y-13794667D01*
X10442619Y-13794667D02*
X10452143Y-13813714D01*
X10452143Y-13813714D02*
X10452143Y-13918476D01*
X10452143Y-13813714D02*
X10461667Y-13794667D01*
X10461667Y-13794667D02*
X10480714Y-13785143D01*
X10480714Y-13785143D02*
X10509286Y-13785143D01*
X10509286Y-13785143D02*
X10528333Y-13794667D01*
X10528333Y-13794667D02*
X10537857Y-13813714D01*
X10537857Y-13813714D02*
X10537857Y-13918476D01*
X10895952Y-13708952D02*
X10724524Y-13966095D01*
X11120714Y-13718476D02*
X11139762Y-13718476D01*
X11139762Y-13718476D02*
X11158810Y-13728000D01*
X11158810Y-13728000D02*
X11168333Y-13737524D01*
X11168333Y-13737524D02*
X11177857Y-13756571D01*
X11177857Y-13756571D02*
X11187381Y-13794667D01*
X11187381Y-13794667D02*
X11187381Y-13842286D01*
X11187381Y-13842286D02*
X11177857Y-13880381D01*
X11177857Y-13880381D02*
X11168333Y-13899428D01*
X11168333Y-13899428D02*
X11158810Y-13908952D01*
X11158810Y-13908952D02*
X11139762Y-13918476D01*
X11139762Y-13918476D02*
X11120714Y-13918476D01*
X11120714Y-13918476D02*
X11101667Y-13908952D01*
X11101667Y-13908952D02*
X11092143Y-13899428D01*
X11092143Y-13899428D02*
X11082619Y-13880381D01*
X11082619Y-13880381D02*
X11073095Y-13842286D01*
X11073095Y-13842286D02*
X11073095Y-13794667D01*
X11073095Y-13794667D02*
X11082619Y-13756571D01*
X11082619Y-13756571D02*
X11092143Y-13737524D01*
X11092143Y-13737524D02*
X11101667Y-13728000D01*
X11101667Y-13728000D02*
X11120714Y-13718476D01*
X11273095Y-13899428D02*
X11282619Y-13908952D01*
X11282619Y-13908952D02*
X11273095Y-13918476D01*
X11273095Y-13918476D02*
X11263571Y-13908952D01*
X11263571Y-13908952D02*
X11273095Y-13899428D01*
X11273095Y-13899428D02*
X11273095Y-13918476D01*
X11406429Y-13718476D02*
X11425476Y-13718476D01*
X11425476Y-13718476D02*
X11444524Y-13728000D01*
X11444524Y-13728000D02*
X11454048Y-13737524D01*
X11454048Y-13737524D02*
X11463571Y-13756571D01*
X11463571Y-13756571D02*
X11473095Y-13794667D01*
X11473095Y-13794667D02*
X11473095Y-13842286D01*
X11473095Y-13842286D02*
X11463571Y-13880381D01*
X11463571Y-13880381D02*
X11454048Y-13899428D01*
X11454048Y-13899428D02*
X11444524Y-13908952D01*
X11444524Y-13908952D02*
X11425476Y-13918476D01*
X11425476Y-13918476D02*
X11406429Y-13918476D01*
X11406429Y-13918476D02*
X11387381Y-13908952D01*
X11387381Y-13908952D02*
X11377857Y-13899428D01*
X11377857Y-13899428D02*
X11368333Y-13880381D01*
X11368333Y-13880381D02*
X11358810Y-13842286D01*
X11358810Y-13842286D02*
X11358810Y-13794667D01*
X11358810Y-13794667D02*
X11368333Y-13756571D01*
X11368333Y-13756571D02*
X11377857Y-13737524D01*
X11377857Y-13737524D02*
X11387381Y-13728000D01*
X11387381Y-13728000D02*
X11406429Y-13718476D01*
X11596905Y-13718476D02*
X11615952Y-13718476D01*
X11615952Y-13718476D02*
X11635000Y-13728000D01*
X11635000Y-13728000D02*
X11644524Y-13737524D01*
X11644524Y-13737524D02*
X11654048Y-13756571D01*
X11654048Y-13756571D02*
X11663571Y-13794667D01*
X11663571Y-13794667D02*
X11663571Y-13842286D01*
X11663571Y-13842286D02*
X11654048Y-13880381D01*
X11654048Y-13880381D02*
X11644524Y-13899428D01*
X11644524Y-13899428D02*
X11635000Y-13908952D01*
X11635000Y-13908952D02*
X11615952Y-13918476D01*
X11615952Y-13918476D02*
X11596905Y-13918476D01*
X11596905Y-13918476D02*
X11577857Y-13908952D01*
X11577857Y-13908952D02*
X11568333Y-13899428D01*
X11568333Y-13899428D02*
X11558810Y-13880381D01*
X11558810Y-13880381D02*
X11549286Y-13842286D01*
X11549286Y-13842286D02*
X11549286Y-13794667D01*
X11549286Y-13794667D02*
X11558810Y-13756571D01*
X11558810Y-13756571D02*
X11568333Y-13737524D01*
X11568333Y-13737524D02*
X11577857Y-13728000D01*
X11577857Y-13728000D02*
X11596905Y-13718476D01*
X11844524Y-13718476D02*
X11749286Y-13718476D01*
X11749286Y-13718476D02*
X11739762Y-13813714D01*
X11739762Y-13813714D02*
X11749286Y-13804190D01*
X11749286Y-13804190D02*
X11768333Y-13794667D01*
X11768333Y-13794667D02*
X11815952Y-13794667D01*
X11815952Y-13794667D02*
X11835000Y-13804190D01*
X11835000Y-13804190D02*
X11844524Y-13813714D01*
X11844524Y-13813714D02*
X11854048Y-13832762D01*
X11854048Y-13832762D02*
X11854048Y-13880381D01*
X11854048Y-13880381D02*
X11844524Y-13899428D01*
X11844524Y-13899428D02*
X11835000Y-13908952D01*
X11835000Y-13908952D02*
X11815952Y-13918476D01*
X11815952Y-13918476D02*
X11768333Y-13918476D01*
X11768333Y-13918476D02*
X11749286Y-13908952D01*
X11749286Y-13908952D02*
X11739762Y-13899428D01*
X11949286Y-13918476D02*
X11987381Y-13918476D01*
X11987381Y-13918476D02*
X12006429Y-13908952D01*
X12006429Y-13908952D02*
X12015952Y-13899428D01*
X12015952Y-13899428D02*
X12035000Y-13870857D01*
X12035000Y-13870857D02*
X12044524Y-13832762D01*
X12044524Y-13832762D02*
X12044524Y-13756571D01*
X12044524Y-13756571D02*
X12035000Y-13737524D01*
X12035000Y-13737524D02*
X12025476Y-13728000D01*
X12025476Y-13728000D02*
X12006429Y-13718476D01*
X12006429Y-13718476D02*
X11968333Y-13718476D01*
X11968333Y-13718476D02*
X11949286Y-13728000D01*
X11949286Y-13728000D02*
X11939762Y-13737524D01*
X11939762Y-13737524D02*
X11930238Y-13756571D01*
X11930238Y-13756571D02*
X11930238Y-13804190D01*
X11930238Y-13804190D02*
X11939762Y-13823238D01*
X11939762Y-13823238D02*
X11949286Y-13832762D01*
X11949286Y-13832762D02*
X11968333Y-13842286D01*
X11968333Y-13842286D02*
X12006429Y-13842286D01*
X12006429Y-13842286D02*
X12025476Y-13832762D01*
X12025476Y-13832762D02*
X12035000Y-13823238D01*
X12035000Y-13823238D02*
X12044524Y-13804190D01*
X12120714Y-13718476D02*
X12120714Y-13756571D01*
X12196905Y-13718476D02*
X12196905Y-13756571D01*
X12459762Y-13994667D02*
X12450238Y-13985143D01*
X12450238Y-13985143D02*
X12431191Y-13956571D01*
X12431191Y-13956571D02*
X12421667Y-13937524D01*
X12421667Y-13937524D02*
X12412143Y-13908952D01*
X12412143Y-13908952D02*
X12402619Y-13861333D01*
X12402619Y-13861333D02*
X12402619Y-13823238D01*
X12402619Y-13823238D02*
X12412143Y-13775619D01*
X12412143Y-13775619D02*
X12421667Y-13747048D01*
X12421667Y-13747048D02*
X12431191Y-13728000D01*
X12431191Y-13728000D02*
X12450238Y-13699428D01*
X12450238Y-13699428D02*
X12459762Y-13689905D01*
X12640714Y-13918476D02*
X12526429Y-13918476D01*
X12583571Y-13918476D02*
X12583571Y-13718476D01*
X12583571Y-13718476D02*
X12564524Y-13747048D01*
X12564524Y-13747048D02*
X12545476Y-13766095D01*
X12545476Y-13766095D02*
X12526429Y-13775619D01*
X12846429Y-13918476D02*
X12846429Y-13718476D01*
X12932143Y-13918476D02*
X12932143Y-13813714D01*
X12932143Y-13813714D02*
X12922619Y-13794667D01*
X12922619Y-13794667D02*
X12903572Y-13785143D01*
X12903572Y-13785143D02*
X12875000Y-13785143D01*
X12875000Y-13785143D02*
X12855952Y-13794667D01*
X12855952Y-13794667D02*
X12846429Y-13804190D01*
X13055952Y-13918476D02*
X13036905Y-13908952D01*
X13036905Y-13908952D02*
X13027381Y-13899428D01*
X13027381Y-13899428D02*
X13017857Y-13880381D01*
X13017857Y-13880381D02*
X13017857Y-13823238D01*
X13017857Y-13823238D02*
X13027381Y-13804190D01*
X13027381Y-13804190D02*
X13036905Y-13794667D01*
X13036905Y-13794667D02*
X13055952Y-13785143D01*
X13055952Y-13785143D02*
X13084524Y-13785143D01*
X13084524Y-13785143D02*
X13103572Y-13794667D01*
X13103572Y-13794667D02*
X13113095Y-13804190D01*
X13113095Y-13804190D02*
X13122619Y-13823238D01*
X13122619Y-13823238D02*
X13122619Y-13880381D01*
X13122619Y-13880381D02*
X13113095Y-13899428D01*
X13113095Y-13899428D02*
X13103572Y-13908952D01*
X13103572Y-13908952D02*
X13084524Y-13918476D01*
X13084524Y-13918476D02*
X13055952Y-13918476D01*
X13236905Y-13918476D02*
X13217857Y-13908952D01*
X13217857Y-13908952D02*
X13208333Y-13889905D01*
X13208333Y-13889905D02*
X13208333Y-13718476D01*
X13389286Y-13908952D02*
X13370238Y-13918476D01*
X13370238Y-13918476D02*
X13332143Y-13918476D01*
X13332143Y-13918476D02*
X13313095Y-13908952D01*
X13313095Y-13908952D02*
X13303572Y-13889905D01*
X13303572Y-13889905D02*
X13303572Y-13813714D01*
X13303572Y-13813714D02*
X13313095Y-13794667D01*
X13313095Y-13794667D02*
X13332143Y-13785143D01*
X13332143Y-13785143D02*
X13370238Y-13785143D01*
X13370238Y-13785143D02*
X13389286Y-13794667D01*
X13389286Y-13794667D02*
X13398810Y-13813714D01*
X13398810Y-13813714D02*
X13398810Y-13832762D01*
X13398810Y-13832762D02*
X13303572Y-13851809D01*
X13465476Y-13994667D02*
X13475000Y-13985143D01*
X13475000Y-13985143D02*
X13494048Y-13956571D01*
X13494048Y-13956571D02*
X13503572Y-13937524D01*
X13503572Y-13937524D02*
X13513095Y-13908952D01*
X13513095Y-13908952D02*
X13522619Y-13861333D01*
X13522619Y-13861333D02*
X13522619Y-13823238D01*
X13522619Y-13823238D02*
X13513095Y-13775619D01*
X13513095Y-13775619D02*
X13503572Y-13747048D01*
X13503572Y-13747048D02*
X13494048Y-13728000D01*
X13494048Y-13728000D02*
X13475000Y-13699428D01*
X13475000Y-13699428D02*
X13465476Y-13689905D01*
D13*
X8995000Y-14109000D02*
G75*
G03*
X8995000Y-14109000I-10000J0D01*
G01*
D11*
X9280714Y-13982476D02*
X9299762Y-13982476D01*
X9299762Y-13982476D02*
X9318810Y-13992000D01*
X9318810Y-13992000D02*
X9328333Y-14001524D01*
X9328333Y-14001524D02*
X9337857Y-14020571D01*
X9337857Y-14020571D02*
X9347381Y-14058667D01*
X9347381Y-14058667D02*
X9347381Y-14106286D01*
X9347381Y-14106286D02*
X9337857Y-14144381D01*
X9337857Y-14144381D02*
X9328333Y-14163428D01*
X9328333Y-14163428D02*
X9318810Y-14172952D01*
X9318810Y-14172952D02*
X9299762Y-14182476D01*
X9299762Y-14182476D02*
X9280714Y-14182476D01*
X9280714Y-14182476D02*
X9261667Y-14172952D01*
X9261667Y-14172952D02*
X9252143Y-14163428D01*
X9252143Y-14163428D02*
X9242619Y-14144381D01*
X9242619Y-14144381D02*
X9233095Y-14106286D01*
X9233095Y-14106286D02*
X9233095Y-14058667D01*
X9233095Y-14058667D02*
X9242619Y-14020571D01*
X9242619Y-14020571D02*
X9252143Y-14001524D01*
X9252143Y-14001524D02*
X9261667Y-13992000D01*
X9261667Y-13992000D02*
X9280714Y-13982476D01*
X9433095Y-14163428D02*
X9442619Y-14172952D01*
X9442619Y-14172952D02*
X9433095Y-14182476D01*
X9433095Y-14182476D02*
X9423571Y-14172952D01*
X9423571Y-14172952D02*
X9433095Y-14163428D01*
X9433095Y-14163428D02*
X9433095Y-14182476D01*
X9518810Y-14001524D02*
X9528333Y-13992000D01*
X9528333Y-13992000D02*
X9547381Y-13982476D01*
X9547381Y-13982476D02*
X9595000Y-13982476D01*
X9595000Y-13982476D02*
X9614048Y-13992000D01*
X9614048Y-13992000D02*
X9623571Y-14001524D01*
X9623571Y-14001524D02*
X9633095Y-14020571D01*
X9633095Y-14020571D02*
X9633095Y-14039619D01*
X9633095Y-14039619D02*
X9623571Y-14068190D01*
X9623571Y-14068190D02*
X9509286Y-14182476D01*
X9509286Y-14182476D02*
X9633095Y-14182476D01*
X9756905Y-13982476D02*
X9775952Y-13982476D01*
X9775952Y-13982476D02*
X9795000Y-13992000D01*
X9795000Y-13992000D02*
X9804524Y-14001524D01*
X9804524Y-14001524D02*
X9814048Y-14020571D01*
X9814048Y-14020571D02*
X9823571Y-14058667D01*
X9823571Y-14058667D02*
X9823571Y-14106286D01*
X9823571Y-14106286D02*
X9814048Y-14144381D01*
X9814048Y-14144381D02*
X9804524Y-14163428D01*
X9804524Y-14163428D02*
X9795000Y-14172952D01*
X9795000Y-14172952D02*
X9775952Y-14182476D01*
X9775952Y-14182476D02*
X9756905Y-14182476D01*
X9756905Y-14182476D02*
X9737857Y-14172952D01*
X9737857Y-14172952D02*
X9728333Y-14163428D01*
X9728333Y-14163428D02*
X9718810Y-14144381D01*
X9718810Y-14144381D02*
X9709286Y-14106286D01*
X9709286Y-14106286D02*
X9709286Y-14058667D01*
X9709286Y-14058667D02*
X9718810Y-14020571D01*
X9718810Y-14020571D02*
X9728333Y-14001524D01*
X9728333Y-14001524D02*
X9737857Y-13992000D01*
X9737857Y-13992000D02*
X9756905Y-13982476D01*
X9947381Y-13982476D02*
X9966429Y-13982476D01*
X9966429Y-13982476D02*
X9985476Y-13992000D01*
X9985476Y-13992000D02*
X9995000Y-14001524D01*
X9995000Y-14001524D02*
X10004524Y-14020571D01*
X10004524Y-14020571D02*
X10014048Y-14058667D01*
X10014048Y-14058667D02*
X10014048Y-14106286D01*
X10014048Y-14106286D02*
X10004524Y-14144381D01*
X10004524Y-14144381D02*
X9995000Y-14163428D01*
X9995000Y-14163428D02*
X9985476Y-14172952D01*
X9985476Y-14172952D02*
X9966429Y-14182476D01*
X9966429Y-14182476D02*
X9947381Y-14182476D01*
X9947381Y-14182476D02*
X9928333Y-14172952D01*
X9928333Y-14172952D02*
X9918810Y-14163428D01*
X9918810Y-14163428D02*
X9909286Y-14144381D01*
X9909286Y-14144381D02*
X9899762Y-14106286D01*
X9899762Y-14106286D02*
X9899762Y-14058667D01*
X9899762Y-14058667D02*
X9909286Y-14020571D01*
X9909286Y-14020571D02*
X9918810Y-14001524D01*
X9918810Y-14001524D02*
X9928333Y-13992000D01*
X9928333Y-13992000D02*
X9947381Y-13982476D01*
X10099762Y-14182476D02*
X10099762Y-14049143D01*
X10099762Y-14068190D02*
X10109286Y-14058667D01*
X10109286Y-14058667D02*
X10128333Y-14049143D01*
X10128333Y-14049143D02*
X10156905Y-14049143D01*
X10156905Y-14049143D02*
X10175952Y-14058667D01*
X10175952Y-14058667D02*
X10185476Y-14077714D01*
X10185476Y-14077714D02*
X10185476Y-14182476D01*
X10185476Y-14077714D02*
X10195000Y-14058667D01*
X10195000Y-14058667D02*
X10214048Y-14049143D01*
X10214048Y-14049143D02*
X10242619Y-14049143D01*
X10242619Y-14049143D02*
X10261667Y-14058667D01*
X10261667Y-14058667D02*
X10271191Y-14077714D01*
X10271191Y-14077714D02*
X10271191Y-14182476D01*
X10366429Y-14182476D02*
X10366429Y-14049143D01*
X10366429Y-14068190D02*
X10375952Y-14058667D01*
X10375952Y-14058667D02*
X10395000Y-14049143D01*
X10395000Y-14049143D02*
X10423572Y-14049143D01*
X10423572Y-14049143D02*
X10442619Y-14058667D01*
X10442619Y-14058667D02*
X10452143Y-14077714D01*
X10452143Y-14077714D02*
X10452143Y-14182476D01*
X10452143Y-14077714D02*
X10461667Y-14058667D01*
X10461667Y-14058667D02*
X10480714Y-14049143D01*
X10480714Y-14049143D02*
X10509286Y-14049143D01*
X10509286Y-14049143D02*
X10528333Y-14058667D01*
X10528333Y-14058667D02*
X10537857Y-14077714D01*
X10537857Y-14077714D02*
X10537857Y-14182476D01*
X10895952Y-13972952D02*
X10724524Y-14230095D01*
X11120714Y-13982476D02*
X11139762Y-13982476D01*
X11139762Y-13982476D02*
X11158810Y-13992000D01*
X11158810Y-13992000D02*
X11168333Y-14001524D01*
X11168333Y-14001524D02*
X11177857Y-14020571D01*
X11177857Y-14020571D02*
X11187381Y-14058667D01*
X11187381Y-14058667D02*
X11187381Y-14106286D01*
X11187381Y-14106286D02*
X11177857Y-14144381D01*
X11177857Y-14144381D02*
X11168333Y-14163428D01*
X11168333Y-14163428D02*
X11158810Y-14172952D01*
X11158810Y-14172952D02*
X11139762Y-14182476D01*
X11139762Y-14182476D02*
X11120714Y-14182476D01*
X11120714Y-14182476D02*
X11101667Y-14172952D01*
X11101667Y-14172952D02*
X11092143Y-14163428D01*
X11092143Y-14163428D02*
X11082619Y-14144381D01*
X11082619Y-14144381D02*
X11073095Y-14106286D01*
X11073095Y-14106286D02*
X11073095Y-14058667D01*
X11073095Y-14058667D02*
X11082619Y-14020571D01*
X11082619Y-14020571D02*
X11092143Y-14001524D01*
X11092143Y-14001524D02*
X11101667Y-13992000D01*
X11101667Y-13992000D02*
X11120714Y-13982476D01*
X11273095Y-14163428D02*
X11282619Y-14172952D01*
X11282619Y-14172952D02*
X11273095Y-14182476D01*
X11273095Y-14182476D02*
X11263571Y-14172952D01*
X11263571Y-14172952D02*
X11273095Y-14163428D01*
X11273095Y-14163428D02*
X11273095Y-14182476D01*
X11406429Y-13982476D02*
X11425476Y-13982476D01*
X11425476Y-13982476D02*
X11444524Y-13992000D01*
X11444524Y-13992000D02*
X11454048Y-14001524D01*
X11454048Y-14001524D02*
X11463571Y-14020571D01*
X11463571Y-14020571D02*
X11473095Y-14058667D01*
X11473095Y-14058667D02*
X11473095Y-14106286D01*
X11473095Y-14106286D02*
X11463571Y-14144381D01*
X11463571Y-14144381D02*
X11454048Y-14163428D01*
X11454048Y-14163428D02*
X11444524Y-14172952D01*
X11444524Y-14172952D02*
X11425476Y-14182476D01*
X11425476Y-14182476D02*
X11406429Y-14182476D01*
X11406429Y-14182476D02*
X11387381Y-14172952D01*
X11387381Y-14172952D02*
X11377857Y-14163428D01*
X11377857Y-14163428D02*
X11368333Y-14144381D01*
X11368333Y-14144381D02*
X11358810Y-14106286D01*
X11358810Y-14106286D02*
X11358810Y-14058667D01*
X11358810Y-14058667D02*
X11368333Y-14020571D01*
X11368333Y-14020571D02*
X11377857Y-14001524D01*
X11377857Y-14001524D02*
X11387381Y-13992000D01*
X11387381Y-13992000D02*
X11406429Y-13982476D01*
X11596905Y-13982476D02*
X11615952Y-13982476D01*
X11615952Y-13982476D02*
X11635000Y-13992000D01*
X11635000Y-13992000D02*
X11644524Y-14001524D01*
X11644524Y-14001524D02*
X11654048Y-14020571D01*
X11654048Y-14020571D02*
X11663571Y-14058667D01*
X11663571Y-14058667D02*
X11663571Y-14106286D01*
X11663571Y-14106286D02*
X11654048Y-14144381D01*
X11654048Y-14144381D02*
X11644524Y-14163428D01*
X11644524Y-14163428D02*
X11635000Y-14172952D01*
X11635000Y-14172952D02*
X11615952Y-14182476D01*
X11615952Y-14182476D02*
X11596905Y-14182476D01*
X11596905Y-14182476D02*
X11577857Y-14172952D01*
X11577857Y-14172952D02*
X11568333Y-14163428D01*
X11568333Y-14163428D02*
X11558810Y-14144381D01*
X11558810Y-14144381D02*
X11549286Y-14106286D01*
X11549286Y-14106286D02*
X11549286Y-14058667D01*
X11549286Y-14058667D02*
X11558810Y-14020571D01*
X11558810Y-14020571D02*
X11568333Y-14001524D01*
X11568333Y-14001524D02*
X11577857Y-13992000D01*
X11577857Y-13992000D02*
X11596905Y-13982476D01*
X11730238Y-13982476D02*
X11863571Y-13982476D01*
X11863571Y-13982476D02*
X11777857Y-14182476D01*
X11949286Y-14182476D02*
X11987381Y-14182476D01*
X11987381Y-14182476D02*
X12006429Y-14172952D01*
X12006429Y-14172952D02*
X12015952Y-14163428D01*
X12015952Y-14163428D02*
X12035000Y-14134857D01*
X12035000Y-14134857D02*
X12044524Y-14096762D01*
X12044524Y-14096762D02*
X12044524Y-14020571D01*
X12044524Y-14020571D02*
X12035000Y-14001524D01*
X12035000Y-14001524D02*
X12025476Y-13992000D01*
X12025476Y-13992000D02*
X12006429Y-13982476D01*
X12006429Y-13982476D02*
X11968333Y-13982476D01*
X11968333Y-13982476D02*
X11949286Y-13992000D01*
X11949286Y-13992000D02*
X11939762Y-14001524D01*
X11939762Y-14001524D02*
X11930238Y-14020571D01*
X11930238Y-14020571D02*
X11930238Y-14068190D01*
X11930238Y-14068190D02*
X11939762Y-14087238D01*
X11939762Y-14087238D02*
X11949286Y-14096762D01*
X11949286Y-14096762D02*
X11968333Y-14106286D01*
X11968333Y-14106286D02*
X12006429Y-14106286D01*
X12006429Y-14106286D02*
X12025476Y-14096762D01*
X12025476Y-14096762D02*
X12035000Y-14087238D01*
X12035000Y-14087238D02*
X12044524Y-14068190D01*
X12120714Y-13982476D02*
X12120714Y-14020571D01*
X12196905Y-13982476D02*
X12196905Y-14020571D01*
X12459762Y-14258667D02*
X12450238Y-14249143D01*
X12450238Y-14249143D02*
X12431191Y-14220571D01*
X12431191Y-14220571D02*
X12421667Y-14201524D01*
X12421667Y-14201524D02*
X12412143Y-14172952D01*
X12412143Y-14172952D02*
X12402619Y-14125333D01*
X12402619Y-14125333D02*
X12402619Y-14087238D01*
X12402619Y-14087238D02*
X12412143Y-14039619D01*
X12412143Y-14039619D02*
X12421667Y-14011048D01*
X12421667Y-14011048D02*
X12431191Y-13992000D01*
X12431191Y-13992000D02*
X12450238Y-13963428D01*
X12450238Y-13963428D02*
X12459762Y-13953905D01*
X12621667Y-13982476D02*
X12583571Y-13982476D01*
X12583571Y-13982476D02*
X12564524Y-13992000D01*
X12564524Y-13992000D02*
X12555000Y-14001524D01*
X12555000Y-14001524D02*
X12535952Y-14030095D01*
X12535952Y-14030095D02*
X12526429Y-14068190D01*
X12526429Y-14068190D02*
X12526429Y-14144381D01*
X12526429Y-14144381D02*
X12535952Y-14163428D01*
X12535952Y-14163428D02*
X12545476Y-14172952D01*
X12545476Y-14172952D02*
X12564524Y-14182476D01*
X12564524Y-14182476D02*
X12602619Y-14182476D01*
X12602619Y-14182476D02*
X12621667Y-14172952D01*
X12621667Y-14172952D02*
X12631191Y-14163428D01*
X12631191Y-14163428D02*
X12640714Y-14144381D01*
X12640714Y-14144381D02*
X12640714Y-14096762D01*
X12640714Y-14096762D02*
X12631191Y-14077714D01*
X12631191Y-14077714D02*
X12621667Y-14068190D01*
X12621667Y-14068190D02*
X12602619Y-14058667D01*
X12602619Y-14058667D02*
X12564524Y-14058667D01*
X12564524Y-14058667D02*
X12545476Y-14068190D01*
X12545476Y-14068190D02*
X12535952Y-14077714D01*
X12535952Y-14077714D02*
X12526429Y-14096762D01*
X12846429Y-14182476D02*
X12846429Y-13982476D01*
X12932143Y-14182476D02*
X12932143Y-14077714D01*
X12932143Y-14077714D02*
X12922619Y-14058667D01*
X12922619Y-14058667D02*
X12903572Y-14049143D01*
X12903572Y-14049143D02*
X12875000Y-14049143D01*
X12875000Y-14049143D02*
X12855952Y-14058667D01*
X12855952Y-14058667D02*
X12846429Y-14068190D01*
X13055952Y-14182476D02*
X13036905Y-14172952D01*
X13036905Y-14172952D02*
X13027381Y-14163428D01*
X13027381Y-14163428D02*
X13017857Y-14144381D01*
X13017857Y-14144381D02*
X13017857Y-14087238D01*
X13017857Y-14087238D02*
X13027381Y-14068190D01*
X13027381Y-14068190D02*
X13036905Y-14058667D01*
X13036905Y-14058667D02*
X13055952Y-14049143D01*
X13055952Y-14049143D02*
X13084524Y-14049143D01*
X13084524Y-14049143D02*
X13103572Y-14058667D01*
X13103572Y-14058667D02*
X13113095Y-14068190D01*
X13113095Y-14068190D02*
X13122619Y-14087238D01*
X13122619Y-14087238D02*
X13122619Y-14144381D01*
X13122619Y-14144381D02*
X13113095Y-14163428D01*
X13113095Y-14163428D02*
X13103572Y-14172952D01*
X13103572Y-14172952D02*
X13084524Y-14182476D01*
X13084524Y-14182476D02*
X13055952Y-14182476D01*
X13236905Y-14182476D02*
X13217857Y-14172952D01*
X13217857Y-14172952D02*
X13208333Y-14153905D01*
X13208333Y-14153905D02*
X13208333Y-13982476D01*
X13389286Y-14172952D02*
X13370238Y-14182476D01*
X13370238Y-14182476D02*
X13332143Y-14182476D01*
X13332143Y-14182476D02*
X13313095Y-14172952D01*
X13313095Y-14172952D02*
X13303572Y-14153905D01*
X13303572Y-14153905D02*
X13303572Y-14077714D01*
X13303572Y-14077714D02*
X13313095Y-14058667D01*
X13313095Y-14058667D02*
X13332143Y-14049143D01*
X13332143Y-14049143D02*
X13370238Y-14049143D01*
X13370238Y-14049143D02*
X13389286Y-14058667D01*
X13389286Y-14058667D02*
X13398810Y-14077714D01*
X13398810Y-14077714D02*
X13398810Y-14096762D01*
X13398810Y-14096762D02*
X13303572Y-14115809D01*
X13475000Y-14172952D02*
X13494048Y-14182476D01*
X13494048Y-14182476D02*
X13532143Y-14182476D01*
X13532143Y-14182476D02*
X13551191Y-14172952D01*
X13551191Y-14172952D02*
X13560714Y-14153905D01*
X13560714Y-14153905D02*
X13560714Y-14144381D01*
X13560714Y-14144381D02*
X13551191Y-14125333D01*
X13551191Y-14125333D02*
X13532143Y-14115809D01*
X13532143Y-14115809D02*
X13503572Y-14115809D01*
X13503572Y-14115809D02*
X13484524Y-14106286D01*
X13484524Y-14106286D02*
X13475000Y-14087238D01*
X13475000Y-14087238D02*
X13475000Y-14077714D01*
X13475000Y-14077714D02*
X13484524Y-14058667D01*
X13484524Y-14058667D02*
X13503572Y-14049143D01*
X13503572Y-14049143D02*
X13532143Y-14049143D01*
X13532143Y-14049143D02*
X13551191Y-14058667D01*
X13627381Y-14258667D02*
X13636905Y-14249143D01*
X13636905Y-14249143D02*
X13655953Y-14220571D01*
X13655953Y-14220571D02*
X13665476Y-14201524D01*
X13665476Y-14201524D02*
X13675000Y-14172952D01*
X13675000Y-14172952D02*
X13684524Y-14125333D01*
X13684524Y-14125333D02*
X13684524Y-14087238D01*
X13684524Y-14087238D02*
X13675000Y-14039619D01*
X13675000Y-14039619D02*
X13665476Y-14011048D01*
X13665476Y-14011048D02*
X13655953Y-13992000D01*
X13655953Y-13992000D02*
X13636905Y-13963428D01*
X13636905Y-13963428D02*
X13627381Y-13953905D01*
D14*
X8980000Y-14358000D02*
X8980000Y-14388000D01*
X8965000Y-14373000D02*
X8995000Y-14373000D01*
D11*
X9280714Y-14246476D02*
X9299762Y-14246476D01*
X9299762Y-14246476D02*
X9318810Y-14256000D01*
X9318810Y-14256000D02*
X9328333Y-14265524D01*
X9328333Y-14265524D02*
X9337857Y-14284571D01*
X9337857Y-14284571D02*
X9347381Y-14322667D01*
X9347381Y-14322667D02*
X9347381Y-14370286D01*
X9347381Y-14370286D02*
X9337857Y-14408381D01*
X9337857Y-14408381D02*
X9328333Y-14427428D01*
X9328333Y-14427428D02*
X9318810Y-14436952D01*
X9318810Y-14436952D02*
X9299762Y-14446476D01*
X9299762Y-14446476D02*
X9280714Y-14446476D01*
X9280714Y-14446476D02*
X9261667Y-14436952D01*
X9261667Y-14436952D02*
X9252143Y-14427428D01*
X9252143Y-14427428D02*
X9242619Y-14408381D01*
X9242619Y-14408381D02*
X9233095Y-14370286D01*
X9233095Y-14370286D02*
X9233095Y-14322667D01*
X9233095Y-14322667D02*
X9242619Y-14284571D01*
X9242619Y-14284571D02*
X9252143Y-14265524D01*
X9252143Y-14265524D02*
X9261667Y-14256000D01*
X9261667Y-14256000D02*
X9280714Y-14246476D01*
X9433095Y-14427428D02*
X9442619Y-14436952D01*
X9442619Y-14436952D02*
X9433095Y-14446476D01*
X9433095Y-14446476D02*
X9423571Y-14436952D01*
X9423571Y-14436952D02*
X9433095Y-14427428D01*
X9433095Y-14427428D02*
X9433095Y-14446476D01*
X9509286Y-14246476D02*
X9633095Y-14246476D01*
X9633095Y-14246476D02*
X9566429Y-14322667D01*
X9566429Y-14322667D02*
X9595000Y-14322667D01*
X9595000Y-14322667D02*
X9614048Y-14332190D01*
X9614048Y-14332190D02*
X9623571Y-14341714D01*
X9623571Y-14341714D02*
X9633095Y-14360762D01*
X9633095Y-14360762D02*
X9633095Y-14408381D01*
X9633095Y-14408381D02*
X9623571Y-14427428D01*
X9623571Y-14427428D02*
X9614048Y-14436952D01*
X9614048Y-14436952D02*
X9595000Y-14446476D01*
X9595000Y-14446476D02*
X9537857Y-14446476D01*
X9537857Y-14446476D02*
X9518810Y-14436952D01*
X9518810Y-14436952D02*
X9509286Y-14427428D01*
X9756905Y-14246476D02*
X9775952Y-14246476D01*
X9775952Y-14246476D02*
X9795000Y-14256000D01*
X9795000Y-14256000D02*
X9804524Y-14265524D01*
X9804524Y-14265524D02*
X9814048Y-14284571D01*
X9814048Y-14284571D02*
X9823571Y-14322667D01*
X9823571Y-14322667D02*
X9823571Y-14370286D01*
X9823571Y-14370286D02*
X9814048Y-14408381D01*
X9814048Y-14408381D02*
X9804524Y-14427428D01*
X9804524Y-14427428D02*
X9795000Y-14436952D01*
X9795000Y-14436952D02*
X9775952Y-14446476D01*
X9775952Y-14446476D02*
X9756905Y-14446476D01*
X9756905Y-14446476D02*
X9737857Y-14436952D01*
X9737857Y-14436952D02*
X9728333Y-14427428D01*
X9728333Y-14427428D02*
X9718810Y-14408381D01*
X9718810Y-14408381D02*
X9709286Y-14370286D01*
X9709286Y-14370286D02*
X9709286Y-14322667D01*
X9709286Y-14322667D02*
X9718810Y-14284571D01*
X9718810Y-14284571D02*
X9728333Y-14265524D01*
X9728333Y-14265524D02*
X9737857Y-14256000D01*
X9737857Y-14256000D02*
X9756905Y-14246476D01*
X9947381Y-14246476D02*
X9966429Y-14246476D01*
X9966429Y-14246476D02*
X9985476Y-14256000D01*
X9985476Y-14256000D02*
X9995000Y-14265524D01*
X9995000Y-14265524D02*
X10004524Y-14284571D01*
X10004524Y-14284571D02*
X10014048Y-14322667D01*
X10014048Y-14322667D02*
X10014048Y-14370286D01*
X10014048Y-14370286D02*
X10004524Y-14408381D01*
X10004524Y-14408381D02*
X9995000Y-14427428D01*
X9995000Y-14427428D02*
X9985476Y-14436952D01*
X9985476Y-14436952D02*
X9966429Y-14446476D01*
X9966429Y-14446476D02*
X9947381Y-14446476D01*
X9947381Y-14446476D02*
X9928333Y-14436952D01*
X9928333Y-14436952D02*
X9918810Y-14427428D01*
X9918810Y-14427428D02*
X9909286Y-14408381D01*
X9909286Y-14408381D02*
X9899762Y-14370286D01*
X9899762Y-14370286D02*
X9899762Y-14322667D01*
X9899762Y-14322667D02*
X9909286Y-14284571D01*
X9909286Y-14284571D02*
X9918810Y-14265524D01*
X9918810Y-14265524D02*
X9928333Y-14256000D01*
X9928333Y-14256000D02*
X9947381Y-14246476D01*
X10099762Y-14446476D02*
X10099762Y-14313143D01*
X10099762Y-14332190D02*
X10109286Y-14322667D01*
X10109286Y-14322667D02*
X10128333Y-14313143D01*
X10128333Y-14313143D02*
X10156905Y-14313143D01*
X10156905Y-14313143D02*
X10175952Y-14322667D01*
X10175952Y-14322667D02*
X10185476Y-14341714D01*
X10185476Y-14341714D02*
X10185476Y-14446476D01*
X10185476Y-14341714D02*
X10195000Y-14322667D01*
X10195000Y-14322667D02*
X10214048Y-14313143D01*
X10214048Y-14313143D02*
X10242619Y-14313143D01*
X10242619Y-14313143D02*
X10261667Y-14322667D01*
X10261667Y-14322667D02*
X10271191Y-14341714D01*
X10271191Y-14341714D02*
X10271191Y-14446476D01*
X10366429Y-14446476D02*
X10366429Y-14313143D01*
X10366429Y-14332190D02*
X10375952Y-14322667D01*
X10375952Y-14322667D02*
X10395000Y-14313143D01*
X10395000Y-14313143D02*
X10423572Y-14313143D01*
X10423572Y-14313143D02*
X10442619Y-14322667D01*
X10442619Y-14322667D02*
X10452143Y-14341714D01*
X10452143Y-14341714D02*
X10452143Y-14446476D01*
X10452143Y-14341714D02*
X10461667Y-14322667D01*
X10461667Y-14322667D02*
X10480714Y-14313143D01*
X10480714Y-14313143D02*
X10509286Y-14313143D01*
X10509286Y-14313143D02*
X10528333Y-14322667D01*
X10528333Y-14322667D02*
X10537857Y-14341714D01*
X10537857Y-14341714D02*
X10537857Y-14446476D01*
X10895952Y-14236952D02*
X10724524Y-14494095D01*
X11120714Y-14246476D02*
X11139762Y-14246476D01*
X11139762Y-14246476D02*
X11158810Y-14256000D01*
X11158810Y-14256000D02*
X11168333Y-14265524D01*
X11168333Y-14265524D02*
X11177857Y-14284571D01*
X11177857Y-14284571D02*
X11187381Y-14322667D01*
X11187381Y-14322667D02*
X11187381Y-14370286D01*
X11187381Y-14370286D02*
X11177857Y-14408381D01*
X11177857Y-14408381D02*
X11168333Y-14427428D01*
X11168333Y-14427428D02*
X11158810Y-14436952D01*
X11158810Y-14436952D02*
X11139762Y-14446476D01*
X11139762Y-14446476D02*
X11120714Y-14446476D01*
X11120714Y-14446476D02*
X11101667Y-14436952D01*
X11101667Y-14436952D02*
X11092143Y-14427428D01*
X11092143Y-14427428D02*
X11082619Y-14408381D01*
X11082619Y-14408381D02*
X11073095Y-14370286D01*
X11073095Y-14370286D02*
X11073095Y-14322667D01*
X11073095Y-14322667D02*
X11082619Y-14284571D01*
X11082619Y-14284571D02*
X11092143Y-14265524D01*
X11092143Y-14265524D02*
X11101667Y-14256000D01*
X11101667Y-14256000D02*
X11120714Y-14246476D01*
X11273095Y-14427428D02*
X11282619Y-14436952D01*
X11282619Y-14436952D02*
X11273095Y-14446476D01*
X11273095Y-14446476D02*
X11263571Y-14436952D01*
X11263571Y-14436952D02*
X11273095Y-14427428D01*
X11273095Y-14427428D02*
X11273095Y-14446476D01*
X11406429Y-14246476D02*
X11425476Y-14246476D01*
X11425476Y-14246476D02*
X11444524Y-14256000D01*
X11444524Y-14256000D02*
X11454048Y-14265524D01*
X11454048Y-14265524D02*
X11463571Y-14284571D01*
X11463571Y-14284571D02*
X11473095Y-14322667D01*
X11473095Y-14322667D02*
X11473095Y-14370286D01*
X11473095Y-14370286D02*
X11463571Y-14408381D01*
X11463571Y-14408381D02*
X11454048Y-14427428D01*
X11454048Y-14427428D02*
X11444524Y-14436952D01*
X11444524Y-14436952D02*
X11425476Y-14446476D01*
X11425476Y-14446476D02*
X11406429Y-14446476D01*
X11406429Y-14446476D02*
X11387381Y-14436952D01*
X11387381Y-14436952D02*
X11377857Y-14427428D01*
X11377857Y-14427428D02*
X11368333Y-14408381D01*
X11368333Y-14408381D02*
X11358810Y-14370286D01*
X11358810Y-14370286D02*
X11358810Y-14322667D01*
X11358810Y-14322667D02*
X11368333Y-14284571D01*
X11368333Y-14284571D02*
X11377857Y-14265524D01*
X11377857Y-14265524D02*
X11387381Y-14256000D01*
X11387381Y-14256000D02*
X11406429Y-14246476D01*
X11663571Y-14446476D02*
X11549286Y-14446476D01*
X11606429Y-14446476D02*
X11606429Y-14246476D01*
X11606429Y-14246476D02*
X11587381Y-14275048D01*
X11587381Y-14275048D02*
X11568333Y-14294095D01*
X11568333Y-14294095D02*
X11549286Y-14303619D01*
X11854048Y-14446476D02*
X11739762Y-14446476D01*
X11796905Y-14446476D02*
X11796905Y-14246476D01*
X11796905Y-14246476D02*
X11777857Y-14275048D01*
X11777857Y-14275048D02*
X11758810Y-14294095D01*
X11758810Y-14294095D02*
X11739762Y-14303619D01*
X11968333Y-14332190D02*
X11949286Y-14322667D01*
X11949286Y-14322667D02*
X11939762Y-14313143D01*
X11939762Y-14313143D02*
X11930238Y-14294095D01*
X11930238Y-14294095D02*
X11930238Y-14284571D01*
X11930238Y-14284571D02*
X11939762Y-14265524D01*
X11939762Y-14265524D02*
X11949286Y-14256000D01*
X11949286Y-14256000D02*
X11968333Y-14246476D01*
X11968333Y-14246476D02*
X12006429Y-14246476D01*
X12006429Y-14246476D02*
X12025476Y-14256000D01*
X12025476Y-14256000D02*
X12035000Y-14265524D01*
X12035000Y-14265524D02*
X12044524Y-14284571D01*
X12044524Y-14284571D02*
X12044524Y-14294095D01*
X12044524Y-14294095D02*
X12035000Y-14313143D01*
X12035000Y-14313143D02*
X12025476Y-14322667D01*
X12025476Y-14322667D02*
X12006429Y-14332190D01*
X12006429Y-14332190D02*
X11968333Y-14332190D01*
X11968333Y-14332190D02*
X11949286Y-14341714D01*
X11949286Y-14341714D02*
X11939762Y-14351238D01*
X11939762Y-14351238D02*
X11930238Y-14370286D01*
X11930238Y-14370286D02*
X11930238Y-14408381D01*
X11930238Y-14408381D02*
X11939762Y-14427428D01*
X11939762Y-14427428D02*
X11949286Y-14436952D01*
X11949286Y-14436952D02*
X11968333Y-14446476D01*
X11968333Y-14446476D02*
X12006429Y-14446476D01*
X12006429Y-14446476D02*
X12025476Y-14436952D01*
X12025476Y-14436952D02*
X12035000Y-14427428D01*
X12035000Y-14427428D02*
X12044524Y-14408381D01*
X12044524Y-14408381D02*
X12044524Y-14370286D01*
X12044524Y-14370286D02*
X12035000Y-14351238D01*
X12035000Y-14351238D02*
X12025476Y-14341714D01*
X12025476Y-14341714D02*
X12006429Y-14332190D01*
X12120714Y-14246476D02*
X12120714Y-14284571D01*
X12196905Y-14246476D02*
X12196905Y-14284571D01*
X12459762Y-14522667D02*
X12450238Y-14513143D01*
X12450238Y-14513143D02*
X12431191Y-14484571D01*
X12431191Y-14484571D02*
X12421667Y-14465524D01*
X12421667Y-14465524D02*
X12412143Y-14436952D01*
X12412143Y-14436952D02*
X12402619Y-14389333D01*
X12402619Y-14389333D02*
X12402619Y-14351238D01*
X12402619Y-14351238D02*
X12412143Y-14303619D01*
X12412143Y-14303619D02*
X12421667Y-14275048D01*
X12421667Y-14275048D02*
X12431191Y-14256000D01*
X12431191Y-14256000D02*
X12450238Y-14227428D01*
X12450238Y-14227428D02*
X12459762Y-14217905D01*
X12640714Y-14446476D02*
X12526429Y-14446476D01*
X12583571Y-14446476D02*
X12583571Y-14246476D01*
X12583571Y-14246476D02*
X12564524Y-14275048D01*
X12564524Y-14275048D02*
X12545476Y-14294095D01*
X12545476Y-14294095D02*
X12526429Y-14303619D01*
X12707381Y-14246476D02*
X12831191Y-14246476D01*
X12831191Y-14246476D02*
X12764524Y-14322667D01*
X12764524Y-14322667D02*
X12793095Y-14322667D01*
X12793095Y-14322667D02*
X12812143Y-14332190D01*
X12812143Y-14332190D02*
X12821667Y-14341714D01*
X12821667Y-14341714D02*
X12831191Y-14360762D01*
X12831191Y-14360762D02*
X12831191Y-14408381D01*
X12831191Y-14408381D02*
X12821667Y-14427428D01*
X12821667Y-14427428D02*
X12812143Y-14436952D01*
X12812143Y-14436952D02*
X12793095Y-14446476D01*
X12793095Y-14446476D02*
X12735952Y-14446476D01*
X12735952Y-14446476D02*
X12716905Y-14436952D01*
X12716905Y-14436952D02*
X12707381Y-14427428D01*
X13036905Y-14446476D02*
X13036905Y-14246476D01*
X13122619Y-14446476D02*
X13122619Y-14341714D01*
X13122619Y-14341714D02*
X13113095Y-14322667D01*
X13113095Y-14322667D02*
X13094048Y-14313143D01*
X13094048Y-14313143D02*
X13065476Y-14313143D01*
X13065476Y-14313143D02*
X13046429Y-14322667D01*
X13046429Y-14322667D02*
X13036905Y-14332190D01*
X13246429Y-14446476D02*
X13227381Y-14436952D01*
X13227381Y-14436952D02*
X13217857Y-14427428D01*
X13217857Y-14427428D02*
X13208333Y-14408381D01*
X13208333Y-14408381D02*
X13208333Y-14351238D01*
X13208333Y-14351238D02*
X13217857Y-14332190D01*
X13217857Y-14332190D02*
X13227381Y-14322667D01*
X13227381Y-14322667D02*
X13246429Y-14313143D01*
X13246429Y-14313143D02*
X13275000Y-14313143D01*
X13275000Y-14313143D02*
X13294048Y-14322667D01*
X13294048Y-14322667D02*
X13303572Y-14332190D01*
X13303572Y-14332190D02*
X13313095Y-14351238D01*
X13313095Y-14351238D02*
X13313095Y-14408381D01*
X13313095Y-14408381D02*
X13303572Y-14427428D01*
X13303572Y-14427428D02*
X13294048Y-14436952D01*
X13294048Y-14436952D02*
X13275000Y-14446476D01*
X13275000Y-14446476D02*
X13246429Y-14446476D01*
X13427381Y-14446476D02*
X13408333Y-14436952D01*
X13408333Y-14436952D02*
X13398810Y-14417905D01*
X13398810Y-14417905D02*
X13398810Y-14246476D01*
X13579762Y-14436952D02*
X13560714Y-14446476D01*
X13560714Y-14446476D02*
X13522619Y-14446476D01*
X13522619Y-14446476D02*
X13503572Y-14436952D01*
X13503572Y-14436952D02*
X13494048Y-14417905D01*
X13494048Y-14417905D02*
X13494048Y-14341714D01*
X13494048Y-14341714D02*
X13503572Y-14322667D01*
X13503572Y-14322667D02*
X13522619Y-14313143D01*
X13522619Y-14313143D02*
X13560714Y-14313143D01*
X13560714Y-14313143D02*
X13579762Y-14322667D01*
X13579762Y-14322667D02*
X13589286Y-14341714D01*
X13589286Y-14341714D02*
X13589286Y-14360762D01*
X13589286Y-14360762D02*
X13494048Y-14379809D01*
X13665476Y-14436952D02*
X13684524Y-14446476D01*
X13684524Y-14446476D02*
X13722619Y-14446476D01*
X13722619Y-14446476D02*
X13741667Y-14436952D01*
X13741667Y-14436952D02*
X13751191Y-14417905D01*
X13751191Y-14417905D02*
X13751191Y-14408381D01*
X13751191Y-14408381D02*
X13741667Y-14389333D01*
X13741667Y-14389333D02*
X13722619Y-14379809D01*
X13722619Y-14379809D02*
X13694048Y-14379809D01*
X13694048Y-14379809D02*
X13675000Y-14370286D01*
X13675000Y-14370286D02*
X13665476Y-14351238D01*
X13665476Y-14351238D02*
X13665476Y-14341714D01*
X13665476Y-14341714D02*
X13675000Y-14322667D01*
X13675000Y-14322667D02*
X13694048Y-14313143D01*
X13694048Y-14313143D02*
X13722619Y-14313143D01*
X13722619Y-14313143D02*
X13741667Y-14322667D01*
X13817857Y-14522667D02*
X13827381Y-14513143D01*
X13827381Y-14513143D02*
X13846429Y-14484571D01*
X13846429Y-14484571D02*
X13855953Y-14465524D01*
X13855953Y-14465524D02*
X13865476Y-14436952D01*
X13865476Y-14436952D02*
X13875000Y-14389333D01*
X13875000Y-14389333D02*
X13875000Y-14351238D01*
X13875000Y-14351238D02*
X13865476Y-14303619D01*
X13865476Y-14303619D02*
X13855953Y-14275048D01*
X13855953Y-14275048D02*
X13846429Y-14256000D01*
X13846429Y-14256000D02*
X13827381Y-14227428D01*
X13827381Y-14227428D02*
X13817857Y-14217905D01*
D15*
X8989142Y-14651142D02*
X8989142Y-14622858D01*
X8960858Y-14622858D01*
X8960858Y-14651142D01*
X8989142Y-14651142D01*
D11*
X9280714Y-14510476D02*
X9299762Y-14510476D01*
X9299762Y-14510476D02*
X9318810Y-14520000D01*
X9318810Y-14520000D02*
X9328333Y-14529524D01*
X9328333Y-14529524D02*
X9337857Y-14548571D01*
X9337857Y-14548571D02*
X9347381Y-14586667D01*
X9347381Y-14586667D02*
X9347381Y-14634286D01*
X9347381Y-14634286D02*
X9337857Y-14672381D01*
X9337857Y-14672381D02*
X9328333Y-14691428D01*
X9328333Y-14691428D02*
X9318810Y-14700952D01*
X9318810Y-14700952D02*
X9299762Y-14710476D01*
X9299762Y-14710476D02*
X9280714Y-14710476D01*
X9280714Y-14710476D02*
X9261667Y-14700952D01*
X9261667Y-14700952D02*
X9252143Y-14691428D01*
X9252143Y-14691428D02*
X9242619Y-14672381D01*
X9242619Y-14672381D02*
X9233095Y-14634286D01*
X9233095Y-14634286D02*
X9233095Y-14586667D01*
X9233095Y-14586667D02*
X9242619Y-14548571D01*
X9242619Y-14548571D02*
X9252143Y-14529524D01*
X9252143Y-14529524D02*
X9261667Y-14520000D01*
X9261667Y-14520000D02*
X9280714Y-14510476D01*
X9433095Y-14691428D02*
X9442619Y-14700952D01*
X9442619Y-14700952D02*
X9433095Y-14710476D01*
X9433095Y-14710476D02*
X9423571Y-14700952D01*
X9423571Y-14700952D02*
X9433095Y-14691428D01*
X9433095Y-14691428D02*
X9433095Y-14710476D01*
X9614048Y-14577143D02*
X9614048Y-14710476D01*
X9566429Y-14500952D02*
X9518810Y-14643809D01*
X9518810Y-14643809D02*
X9642619Y-14643809D01*
X9756905Y-14510476D02*
X9775952Y-14510476D01*
X9775952Y-14510476D02*
X9795000Y-14520000D01*
X9795000Y-14520000D02*
X9804524Y-14529524D01*
X9804524Y-14529524D02*
X9814048Y-14548571D01*
X9814048Y-14548571D02*
X9823571Y-14586667D01*
X9823571Y-14586667D02*
X9823571Y-14634286D01*
X9823571Y-14634286D02*
X9814048Y-14672381D01*
X9814048Y-14672381D02*
X9804524Y-14691428D01*
X9804524Y-14691428D02*
X9795000Y-14700952D01*
X9795000Y-14700952D02*
X9775952Y-14710476D01*
X9775952Y-14710476D02*
X9756905Y-14710476D01*
X9756905Y-14710476D02*
X9737857Y-14700952D01*
X9737857Y-14700952D02*
X9728333Y-14691428D01*
X9728333Y-14691428D02*
X9718810Y-14672381D01*
X9718810Y-14672381D02*
X9709286Y-14634286D01*
X9709286Y-14634286D02*
X9709286Y-14586667D01*
X9709286Y-14586667D02*
X9718810Y-14548571D01*
X9718810Y-14548571D02*
X9728333Y-14529524D01*
X9728333Y-14529524D02*
X9737857Y-14520000D01*
X9737857Y-14520000D02*
X9756905Y-14510476D01*
X9947381Y-14510476D02*
X9966429Y-14510476D01*
X9966429Y-14510476D02*
X9985476Y-14520000D01*
X9985476Y-14520000D02*
X9995000Y-14529524D01*
X9995000Y-14529524D02*
X10004524Y-14548571D01*
X10004524Y-14548571D02*
X10014048Y-14586667D01*
X10014048Y-14586667D02*
X10014048Y-14634286D01*
X10014048Y-14634286D02*
X10004524Y-14672381D01*
X10004524Y-14672381D02*
X9995000Y-14691428D01*
X9995000Y-14691428D02*
X9985476Y-14700952D01*
X9985476Y-14700952D02*
X9966429Y-14710476D01*
X9966429Y-14710476D02*
X9947381Y-14710476D01*
X9947381Y-14710476D02*
X9928333Y-14700952D01*
X9928333Y-14700952D02*
X9918810Y-14691428D01*
X9918810Y-14691428D02*
X9909286Y-14672381D01*
X9909286Y-14672381D02*
X9899762Y-14634286D01*
X9899762Y-14634286D02*
X9899762Y-14586667D01*
X9899762Y-14586667D02*
X9909286Y-14548571D01*
X9909286Y-14548571D02*
X9918810Y-14529524D01*
X9918810Y-14529524D02*
X9928333Y-14520000D01*
X9928333Y-14520000D02*
X9947381Y-14510476D01*
X10099762Y-14710476D02*
X10099762Y-14577143D01*
X10099762Y-14596190D02*
X10109286Y-14586667D01*
X10109286Y-14586667D02*
X10128333Y-14577143D01*
X10128333Y-14577143D02*
X10156905Y-14577143D01*
X10156905Y-14577143D02*
X10175952Y-14586667D01*
X10175952Y-14586667D02*
X10185476Y-14605714D01*
X10185476Y-14605714D02*
X10185476Y-14710476D01*
X10185476Y-14605714D02*
X10195000Y-14586667D01*
X10195000Y-14586667D02*
X10214048Y-14577143D01*
X10214048Y-14577143D02*
X10242619Y-14577143D01*
X10242619Y-14577143D02*
X10261667Y-14586667D01*
X10261667Y-14586667D02*
X10271191Y-14605714D01*
X10271191Y-14605714D02*
X10271191Y-14710476D01*
X10366429Y-14710476D02*
X10366429Y-14577143D01*
X10366429Y-14596190D02*
X10375952Y-14586667D01*
X10375952Y-14586667D02*
X10395000Y-14577143D01*
X10395000Y-14577143D02*
X10423572Y-14577143D01*
X10423572Y-14577143D02*
X10442619Y-14586667D01*
X10442619Y-14586667D02*
X10452143Y-14605714D01*
X10452143Y-14605714D02*
X10452143Y-14710476D01*
X10452143Y-14605714D02*
X10461667Y-14586667D01*
X10461667Y-14586667D02*
X10480714Y-14577143D01*
X10480714Y-14577143D02*
X10509286Y-14577143D01*
X10509286Y-14577143D02*
X10528333Y-14586667D01*
X10528333Y-14586667D02*
X10537857Y-14605714D01*
X10537857Y-14605714D02*
X10537857Y-14710476D01*
X10895952Y-14500952D02*
X10724524Y-14758095D01*
X11120714Y-14510476D02*
X11139762Y-14510476D01*
X11139762Y-14510476D02*
X11158810Y-14520000D01*
X11158810Y-14520000D02*
X11168333Y-14529524D01*
X11168333Y-14529524D02*
X11177857Y-14548571D01*
X11177857Y-14548571D02*
X11187381Y-14586667D01*
X11187381Y-14586667D02*
X11187381Y-14634286D01*
X11187381Y-14634286D02*
X11177857Y-14672381D01*
X11177857Y-14672381D02*
X11168333Y-14691428D01*
X11168333Y-14691428D02*
X11158810Y-14700952D01*
X11158810Y-14700952D02*
X11139762Y-14710476D01*
X11139762Y-14710476D02*
X11120714Y-14710476D01*
X11120714Y-14710476D02*
X11101667Y-14700952D01*
X11101667Y-14700952D02*
X11092143Y-14691428D01*
X11092143Y-14691428D02*
X11082619Y-14672381D01*
X11082619Y-14672381D02*
X11073095Y-14634286D01*
X11073095Y-14634286D02*
X11073095Y-14586667D01*
X11073095Y-14586667D02*
X11082619Y-14548571D01*
X11082619Y-14548571D02*
X11092143Y-14529524D01*
X11092143Y-14529524D02*
X11101667Y-14520000D01*
X11101667Y-14520000D02*
X11120714Y-14510476D01*
X11273095Y-14691428D02*
X11282619Y-14700952D01*
X11282619Y-14700952D02*
X11273095Y-14710476D01*
X11273095Y-14710476D02*
X11263571Y-14700952D01*
X11263571Y-14700952D02*
X11273095Y-14691428D01*
X11273095Y-14691428D02*
X11273095Y-14710476D01*
X11406429Y-14510476D02*
X11425476Y-14510476D01*
X11425476Y-14510476D02*
X11444524Y-14520000D01*
X11444524Y-14520000D02*
X11454048Y-14529524D01*
X11454048Y-14529524D02*
X11463571Y-14548571D01*
X11463571Y-14548571D02*
X11473095Y-14586667D01*
X11473095Y-14586667D02*
X11473095Y-14634286D01*
X11473095Y-14634286D02*
X11463571Y-14672381D01*
X11463571Y-14672381D02*
X11454048Y-14691428D01*
X11454048Y-14691428D02*
X11444524Y-14700952D01*
X11444524Y-14700952D02*
X11425476Y-14710476D01*
X11425476Y-14710476D02*
X11406429Y-14710476D01*
X11406429Y-14710476D02*
X11387381Y-14700952D01*
X11387381Y-14700952D02*
X11377857Y-14691428D01*
X11377857Y-14691428D02*
X11368333Y-14672381D01*
X11368333Y-14672381D02*
X11358810Y-14634286D01*
X11358810Y-14634286D02*
X11358810Y-14586667D01*
X11358810Y-14586667D02*
X11368333Y-14548571D01*
X11368333Y-14548571D02*
X11377857Y-14529524D01*
X11377857Y-14529524D02*
X11387381Y-14520000D01*
X11387381Y-14520000D02*
X11406429Y-14510476D01*
X11663571Y-14710476D02*
X11549286Y-14710476D01*
X11606429Y-14710476D02*
X11606429Y-14510476D01*
X11606429Y-14510476D02*
X11587381Y-14539048D01*
X11587381Y-14539048D02*
X11568333Y-14558095D01*
X11568333Y-14558095D02*
X11549286Y-14567619D01*
X11844524Y-14510476D02*
X11749286Y-14510476D01*
X11749286Y-14510476D02*
X11739762Y-14605714D01*
X11739762Y-14605714D02*
X11749286Y-14596190D01*
X11749286Y-14596190D02*
X11768333Y-14586667D01*
X11768333Y-14586667D02*
X11815952Y-14586667D01*
X11815952Y-14586667D02*
X11835000Y-14596190D01*
X11835000Y-14596190D02*
X11844524Y-14605714D01*
X11844524Y-14605714D02*
X11854048Y-14624762D01*
X11854048Y-14624762D02*
X11854048Y-14672381D01*
X11854048Y-14672381D02*
X11844524Y-14691428D01*
X11844524Y-14691428D02*
X11835000Y-14700952D01*
X11835000Y-14700952D02*
X11815952Y-14710476D01*
X11815952Y-14710476D02*
X11768333Y-14710476D01*
X11768333Y-14710476D02*
X11749286Y-14700952D01*
X11749286Y-14700952D02*
X11739762Y-14691428D01*
X11920714Y-14510476D02*
X12054048Y-14510476D01*
X12054048Y-14510476D02*
X11968333Y-14710476D01*
X12120714Y-14510476D02*
X12120714Y-14548571D01*
X12196905Y-14510476D02*
X12196905Y-14548571D01*
X12459762Y-14786667D02*
X12450238Y-14777143D01*
X12450238Y-14777143D02*
X12431191Y-14748571D01*
X12431191Y-14748571D02*
X12421667Y-14729524D01*
X12421667Y-14729524D02*
X12412143Y-14700952D01*
X12412143Y-14700952D02*
X12402619Y-14653333D01*
X12402619Y-14653333D02*
X12402619Y-14615238D01*
X12402619Y-14615238D02*
X12412143Y-14567619D01*
X12412143Y-14567619D02*
X12421667Y-14539048D01*
X12421667Y-14539048D02*
X12431191Y-14520000D01*
X12431191Y-14520000D02*
X12450238Y-14491428D01*
X12450238Y-14491428D02*
X12459762Y-14481905D01*
X12640714Y-14710476D02*
X12526429Y-14710476D01*
X12583571Y-14710476D02*
X12583571Y-14510476D01*
X12583571Y-14510476D02*
X12564524Y-14539048D01*
X12564524Y-14539048D02*
X12545476Y-14558095D01*
X12545476Y-14558095D02*
X12526429Y-14567619D01*
X12821667Y-14510476D02*
X12726429Y-14510476D01*
X12726429Y-14510476D02*
X12716905Y-14605714D01*
X12716905Y-14605714D02*
X12726429Y-14596190D01*
X12726429Y-14596190D02*
X12745476Y-14586667D01*
X12745476Y-14586667D02*
X12793095Y-14586667D01*
X12793095Y-14586667D02*
X12812143Y-14596190D01*
X12812143Y-14596190D02*
X12821667Y-14605714D01*
X12821667Y-14605714D02*
X12831191Y-14624762D01*
X12831191Y-14624762D02*
X12831191Y-14672381D01*
X12831191Y-14672381D02*
X12821667Y-14691428D01*
X12821667Y-14691428D02*
X12812143Y-14700952D01*
X12812143Y-14700952D02*
X12793095Y-14710476D01*
X12793095Y-14710476D02*
X12745476Y-14710476D01*
X12745476Y-14710476D02*
X12726429Y-14700952D01*
X12726429Y-14700952D02*
X12716905Y-14691428D01*
X12897857Y-14510476D02*
X13021667Y-14510476D01*
X13021667Y-14510476D02*
X12955000Y-14586667D01*
X12955000Y-14586667D02*
X12983572Y-14586667D01*
X12983572Y-14586667D02*
X13002619Y-14596190D01*
X13002619Y-14596190D02*
X13012143Y-14605714D01*
X13012143Y-14605714D02*
X13021667Y-14624762D01*
X13021667Y-14624762D02*
X13021667Y-14672381D01*
X13021667Y-14672381D02*
X13012143Y-14691428D01*
X13012143Y-14691428D02*
X13002619Y-14700952D01*
X13002619Y-14700952D02*
X12983572Y-14710476D01*
X12983572Y-14710476D02*
X12926429Y-14710476D01*
X12926429Y-14710476D02*
X12907381Y-14700952D01*
X12907381Y-14700952D02*
X12897857Y-14691428D01*
X13227381Y-14710476D02*
X13227381Y-14510476D01*
X13313095Y-14710476D02*
X13313095Y-14605714D01*
X13313095Y-14605714D02*
X13303572Y-14586667D01*
X13303572Y-14586667D02*
X13284524Y-14577143D01*
X13284524Y-14577143D02*
X13255952Y-14577143D01*
X13255952Y-14577143D02*
X13236905Y-14586667D01*
X13236905Y-14586667D02*
X13227381Y-14596190D01*
X13436905Y-14710476D02*
X13417857Y-14700952D01*
X13417857Y-14700952D02*
X13408333Y-14691428D01*
X13408333Y-14691428D02*
X13398810Y-14672381D01*
X13398810Y-14672381D02*
X13398810Y-14615238D01*
X13398810Y-14615238D02*
X13408333Y-14596190D01*
X13408333Y-14596190D02*
X13417857Y-14586667D01*
X13417857Y-14586667D02*
X13436905Y-14577143D01*
X13436905Y-14577143D02*
X13465476Y-14577143D01*
X13465476Y-14577143D02*
X13484524Y-14586667D01*
X13484524Y-14586667D02*
X13494048Y-14596190D01*
X13494048Y-14596190D02*
X13503572Y-14615238D01*
X13503572Y-14615238D02*
X13503572Y-14672381D01*
X13503572Y-14672381D02*
X13494048Y-14691428D01*
X13494048Y-14691428D02*
X13484524Y-14700952D01*
X13484524Y-14700952D02*
X13465476Y-14710476D01*
X13465476Y-14710476D02*
X13436905Y-14710476D01*
X13617857Y-14710476D02*
X13598810Y-14700952D01*
X13598810Y-14700952D02*
X13589286Y-14681905D01*
X13589286Y-14681905D02*
X13589286Y-14510476D01*
X13770238Y-14700952D02*
X13751191Y-14710476D01*
X13751191Y-14710476D02*
X13713095Y-14710476D01*
X13713095Y-14710476D02*
X13694048Y-14700952D01*
X13694048Y-14700952D02*
X13684524Y-14681905D01*
X13684524Y-14681905D02*
X13684524Y-14605714D01*
X13684524Y-14605714D02*
X13694048Y-14586667D01*
X13694048Y-14586667D02*
X13713095Y-14577143D01*
X13713095Y-14577143D02*
X13751191Y-14577143D01*
X13751191Y-14577143D02*
X13770238Y-14586667D01*
X13770238Y-14586667D02*
X13779762Y-14605714D01*
X13779762Y-14605714D02*
X13779762Y-14624762D01*
X13779762Y-14624762D02*
X13684524Y-14643809D01*
X13855953Y-14700952D02*
X13875000Y-14710476D01*
X13875000Y-14710476D02*
X13913095Y-14710476D01*
X13913095Y-14710476D02*
X13932143Y-14700952D01*
X13932143Y-14700952D02*
X13941667Y-14681905D01*
X13941667Y-14681905D02*
X13941667Y-14672381D01*
X13941667Y-14672381D02*
X13932143Y-14653333D01*
X13932143Y-14653333D02*
X13913095Y-14643809D01*
X13913095Y-14643809D02*
X13884524Y-14643809D01*
X13884524Y-14643809D02*
X13865476Y-14634286D01*
X13865476Y-14634286D02*
X13855953Y-14615238D01*
X13855953Y-14615238D02*
X13855953Y-14605714D01*
X13855953Y-14605714D02*
X13865476Y-14586667D01*
X13865476Y-14586667D02*
X13884524Y-14577143D01*
X13884524Y-14577143D02*
X13913095Y-14577143D01*
X13913095Y-14577143D02*
X13932143Y-14586667D01*
X14008334Y-14786667D02*
X14017857Y-14777143D01*
X14017857Y-14777143D02*
X14036905Y-14748571D01*
X14036905Y-14748571D02*
X14046429Y-14729524D01*
X14046429Y-14729524D02*
X14055953Y-14700952D01*
X14055953Y-14700952D02*
X14065476Y-14653333D01*
X14065476Y-14653333D02*
X14065476Y-14615238D01*
X14065476Y-14615238D02*
X14055953Y-14567619D01*
X14055953Y-14567619D02*
X14046429Y-14539048D01*
X14046429Y-14539048D02*
X14036905Y-14520000D01*
X14036905Y-14520000D02*
X14017857Y-14491428D01*
X14017857Y-14491428D02*
X14008334Y-14481905D01*
D16*
X8965000Y-14931000D02*
X8995000Y-14901000D01*
X8965000Y-14871000D01*
X8935000Y-14901000D01*
X8965000Y-14931000D01*
D11*
X9280714Y-14774476D02*
X9299762Y-14774476D01*
X9299762Y-14774476D02*
X9318810Y-14784000D01*
X9318810Y-14784000D02*
X9328333Y-14793524D01*
X9328333Y-14793524D02*
X9337857Y-14812571D01*
X9337857Y-14812571D02*
X9347381Y-14850667D01*
X9347381Y-14850667D02*
X9347381Y-14898286D01*
X9347381Y-14898286D02*
X9337857Y-14936381D01*
X9337857Y-14936381D02*
X9328333Y-14955428D01*
X9328333Y-14955428D02*
X9318810Y-14964952D01*
X9318810Y-14964952D02*
X9299762Y-14974476D01*
X9299762Y-14974476D02*
X9280714Y-14974476D01*
X9280714Y-14974476D02*
X9261667Y-14964952D01*
X9261667Y-14964952D02*
X9252143Y-14955428D01*
X9252143Y-14955428D02*
X9242619Y-14936381D01*
X9242619Y-14936381D02*
X9233095Y-14898286D01*
X9233095Y-14898286D02*
X9233095Y-14850667D01*
X9233095Y-14850667D02*
X9242619Y-14812571D01*
X9242619Y-14812571D02*
X9252143Y-14793524D01*
X9252143Y-14793524D02*
X9261667Y-14784000D01*
X9261667Y-14784000D02*
X9280714Y-14774476D01*
X9433095Y-14955428D02*
X9442619Y-14964952D01*
X9442619Y-14964952D02*
X9433095Y-14974476D01*
X9433095Y-14974476D02*
X9423571Y-14964952D01*
X9423571Y-14964952D02*
X9433095Y-14955428D01*
X9433095Y-14955428D02*
X9433095Y-14974476D01*
X9614048Y-14774476D02*
X9575952Y-14774476D01*
X9575952Y-14774476D02*
X9556905Y-14784000D01*
X9556905Y-14784000D02*
X9547381Y-14793524D01*
X9547381Y-14793524D02*
X9528333Y-14822095D01*
X9528333Y-14822095D02*
X9518810Y-14860190D01*
X9518810Y-14860190D02*
X9518810Y-14936381D01*
X9518810Y-14936381D02*
X9528333Y-14955428D01*
X9528333Y-14955428D02*
X9537857Y-14964952D01*
X9537857Y-14964952D02*
X9556905Y-14974476D01*
X9556905Y-14974476D02*
X9595000Y-14974476D01*
X9595000Y-14974476D02*
X9614048Y-14964952D01*
X9614048Y-14964952D02*
X9623571Y-14955428D01*
X9623571Y-14955428D02*
X9633095Y-14936381D01*
X9633095Y-14936381D02*
X9633095Y-14888762D01*
X9633095Y-14888762D02*
X9623571Y-14869714D01*
X9623571Y-14869714D02*
X9614048Y-14860190D01*
X9614048Y-14860190D02*
X9595000Y-14850667D01*
X9595000Y-14850667D02*
X9556905Y-14850667D01*
X9556905Y-14850667D02*
X9537857Y-14860190D01*
X9537857Y-14860190D02*
X9528333Y-14869714D01*
X9528333Y-14869714D02*
X9518810Y-14888762D01*
X9756905Y-14774476D02*
X9775952Y-14774476D01*
X9775952Y-14774476D02*
X9795000Y-14784000D01*
X9795000Y-14784000D02*
X9804524Y-14793524D01*
X9804524Y-14793524D02*
X9814048Y-14812571D01*
X9814048Y-14812571D02*
X9823571Y-14850667D01*
X9823571Y-14850667D02*
X9823571Y-14898286D01*
X9823571Y-14898286D02*
X9814048Y-14936381D01*
X9814048Y-14936381D02*
X9804524Y-14955428D01*
X9804524Y-14955428D02*
X9795000Y-14964952D01*
X9795000Y-14964952D02*
X9775952Y-14974476D01*
X9775952Y-14974476D02*
X9756905Y-14974476D01*
X9756905Y-14974476D02*
X9737857Y-14964952D01*
X9737857Y-14964952D02*
X9728333Y-14955428D01*
X9728333Y-14955428D02*
X9718810Y-14936381D01*
X9718810Y-14936381D02*
X9709286Y-14898286D01*
X9709286Y-14898286D02*
X9709286Y-14850667D01*
X9709286Y-14850667D02*
X9718810Y-14812571D01*
X9718810Y-14812571D02*
X9728333Y-14793524D01*
X9728333Y-14793524D02*
X9737857Y-14784000D01*
X9737857Y-14784000D02*
X9756905Y-14774476D01*
X9947381Y-14774476D02*
X9966429Y-14774476D01*
X9966429Y-14774476D02*
X9985476Y-14784000D01*
X9985476Y-14784000D02*
X9995000Y-14793524D01*
X9995000Y-14793524D02*
X10004524Y-14812571D01*
X10004524Y-14812571D02*
X10014048Y-14850667D01*
X10014048Y-14850667D02*
X10014048Y-14898286D01*
X10014048Y-14898286D02*
X10004524Y-14936381D01*
X10004524Y-14936381D02*
X9995000Y-14955428D01*
X9995000Y-14955428D02*
X9985476Y-14964952D01*
X9985476Y-14964952D02*
X9966429Y-14974476D01*
X9966429Y-14974476D02*
X9947381Y-14974476D01*
X9947381Y-14974476D02*
X9928333Y-14964952D01*
X9928333Y-14964952D02*
X9918810Y-14955428D01*
X9918810Y-14955428D02*
X9909286Y-14936381D01*
X9909286Y-14936381D02*
X9899762Y-14898286D01*
X9899762Y-14898286D02*
X9899762Y-14850667D01*
X9899762Y-14850667D02*
X9909286Y-14812571D01*
X9909286Y-14812571D02*
X9918810Y-14793524D01*
X9918810Y-14793524D02*
X9928333Y-14784000D01*
X9928333Y-14784000D02*
X9947381Y-14774476D01*
X10099762Y-14974476D02*
X10099762Y-14841143D01*
X10099762Y-14860190D02*
X10109286Y-14850667D01*
X10109286Y-14850667D02*
X10128333Y-14841143D01*
X10128333Y-14841143D02*
X10156905Y-14841143D01*
X10156905Y-14841143D02*
X10175952Y-14850667D01*
X10175952Y-14850667D02*
X10185476Y-14869714D01*
X10185476Y-14869714D02*
X10185476Y-14974476D01*
X10185476Y-14869714D02*
X10195000Y-14850667D01*
X10195000Y-14850667D02*
X10214048Y-14841143D01*
X10214048Y-14841143D02*
X10242619Y-14841143D01*
X10242619Y-14841143D02*
X10261667Y-14850667D01*
X10261667Y-14850667D02*
X10271191Y-14869714D01*
X10271191Y-14869714D02*
X10271191Y-14974476D01*
X10366429Y-14974476D02*
X10366429Y-14841143D01*
X10366429Y-14860190D02*
X10375952Y-14850667D01*
X10375952Y-14850667D02*
X10395000Y-14841143D01*
X10395000Y-14841143D02*
X10423572Y-14841143D01*
X10423572Y-14841143D02*
X10442619Y-14850667D01*
X10442619Y-14850667D02*
X10452143Y-14869714D01*
X10452143Y-14869714D02*
X10452143Y-14974476D01*
X10452143Y-14869714D02*
X10461667Y-14850667D01*
X10461667Y-14850667D02*
X10480714Y-14841143D01*
X10480714Y-14841143D02*
X10509286Y-14841143D01*
X10509286Y-14841143D02*
X10528333Y-14850667D01*
X10528333Y-14850667D02*
X10537857Y-14869714D01*
X10537857Y-14869714D02*
X10537857Y-14974476D01*
X10895952Y-14764952D02*
X10724524Y-15022095D01*
X11120714Y-14774476D02*
X11139762Y-14774476D01*
X11139762Y-14774476D02*
X11158810Y-14784000D01*
X11158810Y-14784000D02*
X11168333Y-14793524D01*
X11168333Y-14793524D02*
X11177857Y-14812571D01*
X11177857Y-14812571D02*
X11187381Y-14850667D01*
X11187381Y-14850667D02*
X11187381Y-14898286D01*
X11187381Y-14898286D02*
X11177857Y-14936381D01*
X11177857Y-14936381D02*
X11168333Y-14955428D01*
X11168333Y-14955428D02*
X11158810Y-14964952D01*
X11158810Y-14964952D02*
X11139762Y-14974476D01*
X11139762Y-14974476D02*
X11120714Y-14974476D01*
X11120714Y-14974476D02*
X11101667Y-14964952D01*
X11101667Y-14964952D02*
X11092143Y-14955428D01*
X11092143Y-14955428D02*
X11082619Y-14936381D01*
X11082619Y-14936381D02*
X11073095Y-14898286D01*
X11073095Y-14898286D02*
X11073095Y-14850667D01*
X11073095Y-14850667D02*
X11082619Y-14812571D01*
X11082619Y-14812571D02*
X11092143Y-14793524D01*
X11092143Y-14793524D02*
X11101667Y-14784000D01*
X11101667Y-14784000D02*
X11120714Y-14774476D01*
X11273095Y-14955428D02*
X11282619Y-14964952D01*
X11282619Y-14964952D02*
X11273095Y-14974476D01*
X11273095Y-14974476D02*
X11263571Y-14964952D01*
X11263571Y-14964952D02*
X11273095Y-14955428D01*
X11273095Y-14955428D02*
X11273095Y-14974476D01*
X11406429Y-14774476D02*
X11425476Y-14774476D01*
X11425476Y-14774476D02*
X11444524Y-14784000D01*
X11444524Y-14784000D02*
X11454048Y-14793524D01*
X11454048Y-14793524D02*
X11463571Y-14812571D01*
X11463571Y-14812571D02*
X11473095Y-14850667D01*
X11473095Y-14850667D02*
X11473095Y-14898286D01*
X11473095Y-14898286D02*
X11463571Y-14936381D01*
X11463571Y-14936381D02*
X11454048Y-14955428D01*
X11454048Y-14955428D02*
X11444524Y-14964952D01*
X11444524Y-14964952D02*
X11425476Y-14974476D01*
X11425476Y-14974476D02*
X11406429Y-14974476D01*
X11406429Y-14974476D02*
X11387381Y-14964952D01*
X11387381Y-14964952D02*
X11377857Y-14955428D01*
X11377857Y-14955428D02*
X11368333Y-14936381D01*
X11368333Y-14936381D02*
X11358810Y-14898286D01*
X11358810Y-14898286D02*
X11358810Y-14850667D01*
X11358810Y-14850667D02*
X11368333Y-14812571D01*
X11368333Y-14812571D02*
X11377857Y-14793524D01*
X11377857Y-14793524D02*
X11387381Y-14784000D01*
X11387381Y-14784000D02*
X11406429Y-14774476D01*
X11549286Y-14793524D02*
X11558810Y-14784000D01*
X11558810Y-14784000D02*
X11577857Y-14774476D01*
X11577857Y-14774476D02*
X11625476Y-14774476D01*
X11625476Y-14774476D02*
X11644524Y-14784000D01*
X11644524Y-14784000D02*
X11654048Y-14793524D01*
X11654048Y-14793524D02*
X11663571Y-14812571D01*
X11663571Y-14812571D02*
X11663571Y-14831619D01*
X11663571Y-14831619D02*
X11654048Y-14860190D01*
X11654048Y-14860190D02*
X11539762Y-14974476D01*
X11539762Y-14974476D02*
X11663571Y-14974476D01*
X11730238Y-14774476D02*
X11854048Y-14774476D01*
X11854048Y-14774476D02*
X11787381Y-14850667D01*
X11787381Y-14850667D02*
X11815952Y-14850667D01*
X11815952Y-14850667D02*
X11835000Y-14860190D01*
X11835000Y-14860190D02*
X11844524Y-14869714D01*
X11844524Y-14869714D02*
X11854048Y-14888762D01*
X11854048Y-14888762D02*
X11854048Y-14936381D01*
X11854048Y-14936381D02*
X11844524Y-14955428D01*
X11844524Y-14955428D02*
X11835000Y-14964952D01*
X11835000Y-14964952D02*
X11815952Y-14974476D01*
X11815952Y-14974476D02*
X11758810Y-14974476D01*
X11758810Y-14974476D02*
X11739762Y-14964952D01*
X11739762Y-14964952D02*
X11730238Y-14955428D01*
X12025476Y-14774476D02*
X11987381Y-14774476D01*
X11987381Y-14774476D02*
X11968333Y-14784000D01*
X11968333Y-14784000D02*
X11958810Y-14793524D01*
X11958810Y-14793524D02*
X11939762Y-14822095D01*
X11939762Y-14822095D02*
X11930238Y-14860190D01*
X11930238Y-14860190D02*
X11930238Y-14936381D01*
X11930238Y-14936381D02*
X11939762Y-14955428D01*
X11939762Y-14955428D02*
X11949286Y-14964952D01*
X11949286Y-14964952D02*
X11968333Y-14974476D01*
X11968333Y-14974476D02*
X12006429Y-14974476D01*
X12006429Y-14974476D02*
X12025476Y-14964952D01*
X12025476Y-14964952D02*
X12035000Y-14955428D01*
X12035000Y-14955428D02*
X12044524Y-14936381D01*
X12044524Y-14936381D02*
X12044524Y-14888762D01*
X12044524Y-14888762D02*
X12035000Y-14869714D01*
X12035000Y-14869714D02*
X12025476Y-14860190D01*
X12025476Y-14860190D02*
X12006429Y-14850667D01*
X12006429Y-14850667D02*
X11968333Y-14850667D01*
X11968333Y-14850667D02*
X11949286Y-14860190D01*
X11949286Y-14860190D02*
X11939762Y-14869714D01*
X11939762Y-14869714D02*
X11930238Y-14888762D01*
X12120714Y-14774476D02*
X12120714Y-14812571D01*
X12196905Y-14774476D02*
X12196905Y-14812571D01*
X12459762Y-15050667D02*
X12450238Y-15041143D01*
X12450238Y-15041143D02*
X12431191Y-15012571D01*
X12431191Y-15012571D02*
X12421667Y-14993524D01*
X12421667Y-14993524D02*
X12412143Y-14964952D01*
X12412143Y-14964952D02*
X12402619Y-14917333D01*
X12402619Y-14917333D02*
X12402619Y-14879238D01*
X12402619Y-14879238D02*
X12412143Y-14831619D01*
X12412143Y-14831619D02*
X12421667Y-14803048D01*
X12421667Y-14803048D02*
X12431191Y-14784000D01*
X12431191Y-14784000D02*
X12450238Y-14755428D01*
X12450238Y-14755428D02*
X12459762Y-14745905D01*
X12574048Y-14774476D02*
X12593095Y-14774476D01*
X12593095Y-14774476D02*
X12612143Y-14784000D01*
X12612143Y-14784000D02*
X12621667Y-14793524D01*
X12621667Y-14793524D02*
X12631191Y-14812571D01*
X12631191Y-14812571D02*
X12640714Y-14850667D01*
X12640714Y-14850667D02*
X12640714Y-14898286D01*
X12640714Y-14898286D02*
X12631191Y-14936381D01*
X12631191Y-14936381D02*
X12621667Y-14955428D01*
X12621667Y-14955428D02*
X12612143Y-14964952D01*
X12612143Y-14964952D02*
X12593095Y-14974476D01*
X12593095Y-14974476D02*
X12574048Y-14974476D01*
X12574048Y-14974476D02*
X12555000Y-14964952D01*
X12555000Y-14964952D02*
X12545476Y-14955428D01*
X12545476Y-14955428D02*
X12535952Y-14936381D01*
X12535952Y-14936381D02*
X12526429Y-14898286D01*
X12526429Y-14898286D02*
X12526429Y-14850667D01*
X12526429Y-14850667D02*
X12535952Y-14812571D01*
X12535952Y-14812571D02*
X12545476Y-14793524D01*
X12545476Y-14793524D02*
X12555000Y-14784000D01*
X12555000Y-14784000D02*
X12574048Y-14774476D01*
X12846429Y-14974476D02*
X12846429Y-14774476D01*
X12932143Y-14974476D02*
X12932143Y-14869714D01*
X12932143Y-14869714D02*
X12922619Y-14850667D01*
X12922619Y-14850667D02*
X12903572Y-14841143D01*
X12903572Y-14841143D02*
X12875000Y-14841143D01*
X12875000Y-14841143D02*
X12855952Y-14850667D01*
X12855952Y-14850667D02*
X12846429Y-14860190D01*
X13055952Y-14974476D02*
X13036905Y-14964952D01*
X13036905Y-14964952D02*
X13027381Y-14955428D01*
X13027381Y-14955428D02*
X13017857Y-14936381D01*
X13017857Y-14936381D02*
X13017857Y-14879238D01*
X13017857Y-14879238D02*
X13027381Y-14860190D01*
X13027381Y-14860190D02*
X13036905Y-14850667D01*
X13036905Y-14850667D02*
X13055952Y-14841143D01*
X13055952Y-14841143D02*
X13084524Y-14841143D01*
X13084524Y-14841143D02*
X13103572Y-14850667D01*
X13103572Y-14850667D02*
X13113095Y-14860190D01*
X13113095Y-14860190D02*
X13122619Y-14879238D01*
X13122619Y-14879238D02*
X13122619Y-14936381D01*
X13122619Y-14936381D02*
X13113095Y-14955428D01*
X13113095Y-14955428D02*
X13103572Y-14964952D01*
X13103572Y-14964952D02*
X13084524Y-14974476D01*
X13084524Y-14974476D02*
X13055952Y-14974476D01*
X13236905Y-14974476D02*
X13217857Y-14964952D01*
X13217857Y-14964952D02*
X13208333Y-14945905D01*
X13208333Y-14945905D02*
X13208333Y-14774476D01*
X13389286Y-14964952D02*
X13370238Y-14974476D01*
X13370238Y-14974476D02*
X13332143Y-14974476D01*
X13332143Y-14974476D02*
X13313095Y-14964952D01*
X13313095Y-14964952D02*
X13303572Y-14945905D01*
X13303572Y-14945905D02*
X13303572Y-14869714D01*
X13303572Y-14869714D02*
X13313095Y-14850667D01*
X13313095Y-14850667D02*
X13332143Y-14841143D01*
X13332143Y-14841143D02*
X13370238Y-14841143D01*
X13370238Y-14841143D02*
X13389286Y-14850667D01*
X13389286Y-14850667D02*
X13398810Y-14869714D01*
X13398810Y-14869714D02*
X13398810Y-14888762D01*
X13398810Y-14888762D02*
X13303572Y-14907809D01*
X13475000Y-14964952D02*
X13494048Y-14974476D01*
X13494048Y-14974476D02*
X13532143Y-14974476D01*
X13532143Y-14974476D02*
X13551191Y-14964952D01*
X13551191Y-14964952D02*
X13560714Y-14945905D01*
X13560714Y-14945905D02*
X13560714Y-14936381D01*
X13560714Y-14936381D02*
X13551191Y-14917333D01*
X13551191Y-14917333D02*
X13532143Y-14907809D01*
X13532143Y-14907809D02*
X13503572Y-14907809D01*
X13503572Y-14907809D02*
X13484524Y-14898286D01*
X13484524Y-14898286D02*
X13475000Y-14879238D01*
X13475000Y-14879238D02*
X13475000Y-14869714D01*
X13475000Y-14869714D02*
X13484524Y-14850667D01*
X13484524Y-14850667D02*
X13503572Y-14841143D01*
X13503572Y-14841143D02*
X13532143Y-14841143D01*
X13532143Y-14841143D02*
X13551191Y-14850667D01*
X13766429Y-14898286D02*
X13918810Y-14898286D01*
X13842619Y-14974476D02*
X13842619Y-14822095D01*
X14219762Y-14841143D02*
X14219762Y-14974476D01*
X14172143Y-14764952D02*
X14124524Y-14907809D01*
X14124524Y-14907809D02*
X14248333Y-14907809D01*
X14435000Y-14964952D02*
X14454048Y-14974476D01*
X14454048Y-14974476D02*
X14492143Y-14974476D01*
X14492143Y-14974476D02*
X14511191Y-14964952D01*
X14511191Y-14964952D02*
X14520714Y-14945905D01*
X14520714Y-14945905D02*
X14520714Y-14936381D01*
X14520714Y-14936381D02*
X14511191Y-14917333D01*
X14511191Y-14917333D02*
X14492143Y-14907809D01*
X14492143Y-14907809D02*
X14463572Y-14907809D01*
X14463572Y-14907809D02*
X14444524Y-14898286D01*
X14444524Y-14898286D02*
X14435000Y-14879238D01*
X14435000Y-14879238D02*
X14435000Y-14869714D01*
X14435000Y-14869714D02*
X14444524Y-14850667D01*
X14444524Y-14850667D02*
X14463572Y-14841143D01*
X14463572Y-14841143D02*
X14492143Y-14841143D01*
X14492143Y-14841143D02*
X14511191Y-14850667D01*
X14635000Y-14974476D02*
X14615953Y-14964952D01*
X14615953Y-14964952D02*
X14606429Y-14945905D01*
X14606429Y-14945905D02*
X14606429Y-14774476D01*
X14739762Y-14974476D02*
X14720714Y-14964952D01*
X14720714Y-14964952D02*
X14711191Y-14955428D01*
X14711191Y-14955428D02*
X14701667Y-14936381D01*
X14701667Y-14936381D02*
X14701667Y-14879238D01*
X14701667Y-14879238D02*
X14711191Y-14860190D01*
X14711191Y-14860190D02*
X14720714Y-14850667D01*
X14720714Y-14850667D02*
X14739762Y-14841143D01*
X14739762Y-14841143D02*
X14768334Y-14841143D01*
X14768334Y-14841143D02*
X14787381Y-14850667D01*
X14787381Y-14850667D02*
X14796905Y-14860190D01*
X14796905Y-14860190D02*
X14806429Y-14879238D01*
X14806429Y-14879238D02*
X14806429Y-14936381D01*
X14806429Y-14936381D02*
X14796905Y-14955428D01*
X14796905Y-14955428D02*
X14787381Y-14964952D01*
X14787381Y-14964952D02*
X14768334Y-14974476D01*
X14768334Y-14974476D02*
X14739762Y-14974476D01*
X14863572Y-14841143D02*
X14939762Y-14841143D01*
X14892143Y-14774476D02*
X14892143Y-14945905D01*
X14892143Y-14945905D02*
X14901667Y-14964952D01*
X14901667Y-14964952D02*
X14920714Y-14974476D01*
X14920714Y-14974476D02*
X14939762Y-14974476D01*
X14996905Y-14964952D02*
X15015953Y-14974476D01*
X15015953Y-14974476D02*
X15054048Y-14974476D01*
X15054048Y-14974476D02*
X15073095Y-14964952D01*
X15073095Y-14964952D02*
X15082619Y-14945905D01*
X15082619Y-14945905D02*
X15082619Y-14936381D01*
X15082619Y-14936381D02*
X15073095Y-14917333D01*
X15073095Y-14917333D02*
X15054048Y-14907809D01*
X15054048Y-14907809D02*
X15025476Y-14907809D01*
X15025476Y-14907809D02*
X15006429Y-14898286D01*
X15006429Y-14898286D02*
X14996905Y-14879238D01*
X14996905Y-14879238D02*
X14996905Y-14869714D01*
X14996905Y-14869714D02*
X15006429Y-14850667D01*
X15006429Y-14850667D02*
X15025476Y-14841143D01*
X15025476Y-14841143D02*
X15054048Y-14841143D01*
X15054048Y-14841143D02*
X15073095Y-14850667D01*
X15149286Y-15050667D02*
X15158810Y-15041143D01*
X15158810Y-15041143D02*
X15177857Y-15012571D01*
X15177857Y-15012571D02*
X15187381Y-14993524D01*
X15187381Y-14993524D02*
X15196905Y-14964952D01*
X15196905Y-14964952D02*
X15206429Y-14917333D01*
X15206429Y-14917333D02*
X15206429Y-14879238D01*
X15206429Y-14879238D02*
X15196905Y-14831619D01*
X15196905Y-14831619D02*
X15187381Y-14803048D01*
X15187381Y-14803048D02*
X15177857Y-14784000D01*
X15177857Y-14784000D02*
X15158810Y-14755428D01*
X15158810Y-14755428D02*
X15149286Y-14745905D01*
D10*
X8895000Y-15115000D02*
X8995000Y-15215000D01*
X8995000Y-15115000D02*
X8895000Y-15215000D01*
X8995000Y-15165000D02*
G75*
G03*
X8995000Y-15165000I-50000J0D01*
G01*
D11*
X9347381Y-15238476D02*
X9233095Y-15238476D01*
X9290238Y-15238476D02*
X9290238Y-15038476D01*
X9290238Y-15038476D02*
X9271190Y-15067048D01*
X9271190Y-15067048D02*
X9252143Y-15086095D01*
X9252143Y-15086095D02*
X9233095Y-15095619D01*
X9433095Y-15219428D02*
X9442619Y-15228952D01*
X9442619Y-15228952D02*
X9433095Y-15238476D01*
X9433095Y-15238476D02*
X9423571Y-15228952D01*
X9423571Y-15228952D02*
X9433095Y-15219428D01*
X9433095Y-15219428D02*
X9433095Y-15238476D01*
X9566429Y-15038476D02*
X9585476Y-15038476D01*
X9585476Y-15038476D02*
X9604524Y-15048000D01*
X9604524Y-15048000D02*
X9614048Y-15057524D01*
X9614048Y-15057524D02*
X9623571Y-15076571D01*
X9623571Y-15076571D02*
X9633095Y-15114667D01*
X9633095Y-15114667D02*
X9633095Y-15162286D01*
X9633095Y-15162286D02*
X9623571Y-15200381D01*
X9623571Y-15200381D02*
X9614048Y-15219428D01*
X9614048Y-15219428D02*
X9604524Y-15228952D01*
X9604524Y-15228952D02*
X9585476Y-15238476D01*
X9585476Y-15238476D02*
X9566429Y-15238476D01*
X9566429Y-15238476D02*
X9547381Y-15228952D01*
X9547381Y-15228952D02*
X9537857Y-15219428D01*
X9537857Y-15219428D02*
X9528333Y-15200381D01*
X9528333Y-15200381D02*
X9518810Y-15162286D01*
X9518810Y-15162286D02*
X9518810Y-15114667D01*
X9518810Y-15114667D02*
X9528333Y-15076571D01*
X9528333Y-15076571D02*
X9537857Y-15057524D01*
X9537857Y-15057524D02*
X9547381Y-15048000D01*
X9547381Y-15048000D02*
X9566429Y-15038476D01*
X9756905Y-15038476D02*
X9775952Y-15038476D01*
X9775952Y-15038476D02*
X9795000Y-15048000D01*
X9795000Y-15048000D02*
X9804524Y-15057524D01*
X9804524Y-15057524D02*
X9814048Y-15076571D01*
X9814048Y-15076571D02*
X9823571Y-15114667D01*
X9823571Y-15114667D02*
X9823571Y-15162286D01*
X9823571Y-15162286D02*
X9814048Y-15200381D01*
X9814048Y-15200381D02*
X9804524Y-15219428D01*
X9804524Y-15219428D02*
X9795000Y-15228952D01*
X9795000Y-15228952D02*
X9775952Y-15238476D01*
X9775952Y-15238476D02*
X9756905Y-15238476D01*
X9756905Y-15238476D02*
X9737857Y-15228952D01*
X9737857Y-15228952D02*
X9728333Y-15219428D01*
X9728333Y-15219428D02*
X9718810Y-15200381D01*
X9718810Y-15200381D02*
X9709286Y-15162286D01*
X9709286Y-15162286D02*
X9709286Y-15114667D01*
X9709286Y-15114667D02*
X9718810Y-15076571D01*
X9718810Y-15076571D02*
X9728333Y-15057524D01*
X9728333Y-15057524D02*
X9737857Y-15048000D01*
X9737857Y-15048000D02*
X9756905Y-15038476D01*
X9947381Y-15038476D02*
X9966429Y-15038476D01*
X9966429Y-15038476D02*
X9985476Y-15048000D01*
X9985476Y-15048000D02*
X9995000Y-15057524D01*
X9995000Y-15057524D02*
X10004524Y-15076571D01*
X10004524Y-15076571D02*
X10014048Y-15114667D01*
X10014048Y-15114667D02*
X10014048Y-15162286D01*
X10014048Y-15162286D02*
X10004524Y-15200381D01*
X10004524Y-15200381D02*
X9995000Y-15219428D01*
X9995000Y-15219428D02*
X9985476Y-15228952D01*
X9985476Y-15228952D02*
X9966429Y-15238476D01*
X9966429Y-15238476D02*
X9947381Y-15238476D01*
X9947381Y-15238476D02*
X9928333Y-15228952D01*
X9928333Y-15228952D02*
X9918810Y-15219428D01*
X9918810Y-15219428D02*
X9909286Y-15200381D01*
X9909286Y-15200381D02*
X9899762Y-15162286D01*
X9899762Y-15162286D02*
X9899762Y-15114667D01*
X9899762Y-15114667D02*
X9909286Y-15076571D01*
X9909286Y-15076571D02*
X9918810Y-15057524D01*
X9918810Y-15057524D02*
X9928333Y-15048000D01*
X9928333Y-15048000D02*
X9947381Y-15038476D01*
X10099762Y-15238476D02*
X10099762Y-15105143D01*
X10099762Y-15124190D02*
X10109286Y-15114667D01*
X10109286Y-15114667D02*
X10128333Y-15105143D01*
X10128333Y-15105143D02*
X10156905Y-15105143D01*
X10156905Y-15105143D02*
X10175952Y-15114667D01*
X10175952Y-15114667D02*
X10185476Y-15133714D01*
X10185476Y-15133714D02*
X10185476Y-15238476D01*
X10185476Y-15133714D02*
X10195000Y-15114667D01*
X10195000Y-15114667D02*
X10214048Y-15105143D01*
X10214048Y-15105143D02*
X10242619Y-15105143D01*
X10242619Y-15105143D02*
X10261667Y-15114667D01*
X10261667Y-15114667D02*
X10271191Y-15133714D01*
X10271191Y-15133714D02*
X10271191Y-15238476D01*
X10366429Y-15238476D02*
X10366429Y-15105143D01*
X10366429Y-15124190D02*
X10375952Y-15114667D01*
X10375952Y-15114667D02*
X10395000Y-15105143D01*
X10395000Y-15105143D02*
X10423572Y-15105143D01*
X10423572Y-15105143D02*
X10442619Y-15114667D01*
X10442619Y-15114667D02*
X10452143Y-15133714D01*
X10452143Y-15133714D02*
X10452143Y-15238476D01*
X10452143Y-15133714D02*
X10461667Y-15114667D01*
X10461667Y-15114667D02*
X10480714Y-15105143D01*
X10480714Y-15105143D02*
X10509286Y-15105143D01*
X10509286Y-15105143D02*
X10528333Y-15114667D01*
X10528333Y-15114667D02*
X10537857Y-15133714D01*
X10537857Y-15133714D02*
X10537857Y-15238476D01*
X10895952Y-15028952D02*
X10724524Y-15286095D01*
X11120714Y-15038476D02*
X11139762Y-15038476D01*
X11139762Y-15038476D02*
X11158810Y-15048000D01*
X11158810Y-15048000D02*
X11168333Y-15057524D01*
X11168333Y-15057524D02*
X11177857Y-15076571D01*
X11177857Y-15076571D02*
X11187381Y-15114667D01*
X11187381Y-15114667D02*
X11187381Y-15162286D01*
X11187381Y-15162286D02*
X11177857Y-15200381D01*
X11177857Y-15200381D02*
X11168333Y-15219428D01*
X11168333Y-15219428D02*
X11158810Y-15228952D01*
X11158810Y-15228952D02*
X11139762Y-15238476D01*
X11139762Y-15238476D02*
X11120714Y-15238476D01*
X11120714Y-15238476D02*
X11101667Y-15228952D01*
X11101667Y-15228952D02*
X11092143Y-15219428D01*
X11092143Y-15219428D02*
X11082619Y-15200381D01*
X11082619Y-15200381D02*
X11073095Y-15162286D01*
X11073095Y-15162286D02*
X11073095Y-15114667D01*
X11073095Y-15114667D02*
X11082619Y-15076571D01*
X11082619Y-15076571D02*
X11092143Y-15057524D01*
X11092143Y-15057524D02*
X11101667Y-15048000D01*
X11101667Y-15048000D02*
X11120714Y-15038476D01*
X11273095Y-15219428D02*
X11282619Y-15228952D01*
X11282619Y-15228952D02*
X11273095Y-15238476D01*
X11273095Y-15238476D02*
X11263571Y-15228952D01*
X11263571Y-15228952D02*
X11273095Y-15219428D01*
X11273095Y-15219428D02*
X11273095Y-15238476D01*
X11406429Y-15038476D02*
X11425476Y-15038476D01*
X11425476Y-15038476D02*
X11444524Y-15048000D01*
X11444524Y-15048000D02*
X11454048Y-15057524D01*
X11454048Y-15057524D02*
X11463571Y-15076571D01*
X11463571Y-15076571D02*
X11473095Y-15114667D01*
X11473095Y-15114667D02*
X11473095Y-15162286D01*
X11473095Y-15162286D02*
X11463571Y-15200381D01*
X11463571Y-15200381D02*
X11454048Y-15219428D01*
X11454048Y-15219428D02*
X11444524Y-15228952D01*
X11444524Y-15228952D02*
X11425476Y-15238476D01*
X11425476Y-15238476D02*
X11406429Y-15238476D01*
X11406429Y-15238476D02*
X11387381Y-15228952D01*
X11387381Y-15228952D02*
X11377857Y-15219428D01*
X11377857Y-15219428D02*
X11368333Y-15200381D01*
X11368333Y-15200381D02*
X11358810Y-15162286D01*
X11358810Y-15162286D02*
X11358810Y-15114667D01*
X11358810Y-15114667D02*
X11368333Y-15076571D01*
X11368333Y-15076571D02*
X11377857Y-15057524D01*
X11377857Y-15057524D02*
X11387381Y-15048000D01*
X11387381Y-15048000D02*
X11406429Y-15038476D01*
X11539762Y-15038476D02*
X11663571Y-15038476D01*
X11663571Y-15038476D02*
X11596905Y-15114667D01*
X11596905Y-15114667D02*
X11625476Y-15114667D01*
X11625476Y-15114667D02*
X11644524Y-15124190D01*
X11644524Y-15124190D02*
X11654048Y-15133714D01*
X11654048Y-15133714D02*
X11663571Y-15152762D01*
X11663571Y-15152762D02*
X11663571Y-15200381D01*
X11663571Y-15200381D02*
X11654048Y-15219428D01*
X11654048Y-15219428D02*
X11644524Y-15228952D01*
X11644524Y-15228952D02*
X11625476Y-15238476D01*
X11625476Y-15238476D02*
X11568333Y-15238476D01*
X11568333Y-15238476D02*
X11549286Y-15228952D01*
X11549286Y-15228952D02*
X11539762Y-15219428D01*
X11758810Y-15238476D02*
X11796905Y-15238476D01*
X11796905Y-15238476D02*
X11815952Y-15228952D01*
X11815952Y-15228952D02*
X11825476Y-15219428D01*
X11825476Y-15219428D02*
X11844524Y-15190857D01*
X11844524Y-15190857D02*
X11854048Y-15152762D01*
X11854048Y-15152762D02*
X11854048Y-15076571D01*
X11854048Y-15076571D02*
X11844524Y-15057524D01*
X11844524Y-15057524D02*
X11835000Y-15048000D01*
X11835000Y-15048000D02*
X11815952Y-15038476D01*
X11815952Y-15038476D02*
X11777857Y-15038476D01*
X11777857Y-15038476D02*
X11758810Y-15048000D01*
X11758810Y-15048000D02*
X11749286Y-15057524D01*
X11749286Y-15057524D02*
X11739762Y-15076571D01*
X11739762Y-15076571D02*
X11739762Y-15124190D01*
X11739762Y-15124190D02*
X11749286Y-15143238D01*
X11749286Y-15143238D02*
X11758810Y-15152762D01*
X11758810Y-15152762D02*
X11777857Y-15162286D01*
X11777857Y-15162286D02*
X11815952Y-15162286D01*
X11815952Y-15162286D02*
X11835000Y-15152762D01*
X11835000Y-15152762D02*
X11844524Y-15143238D01*
X11844524Y-15143238D02*
X11854048Y-15124190D01*
X12025476Y-15105143D02*
X12025476Y-15238476D01*
X11977857Y-15028952D02*
X11930238Y-15171809D01*
X11930238Y-15171809D02*
X12054048Y-15171809D01*
X12120714Y-15038476D02*
X12120714Y-15076571D01*
X12196905Y-15038476D02*
X12196905Y-15076571D01*
X12459762Y-15314667D02*
X12450238Y-15305143D01*
X12450238Y-15305143D02*
X12431191Y-15276571D01*
X12431191Y-15276571D02*
X12421667Y-15257524D01*
X12421667Y-15257524D02*
X12412143Y-15228952D01*
X12412143Y-15228952D02*
X12402619Y-15181333D01*
X12402619Y-15181333D02*
X12402619Y-15143238D01*
X12402619Y-15143238D02*
X12412143Y-15095619D01*
X12412143Y-15095619D02*
X12421667Y-15067048D01*
X12421667Y-15067048D02*
X12431191Y-15048000D01*
X12431191Y-15048000D02*
X12450238Y-15019428D01*
X12450238Y-15019428D02*
X12459762Y-15009905D01*
X12621667Y-15038476D02*
X12583571Y-15038476D01*
X12583571Y-15038476D02*
X12564524Y-15048000D01*
X12564524Y-15048000D02*
X12555000Y-15057524D01*
X12555000Y-15057524D02*
X12535952Y-15086095D01*
X12535952Y-15086095D02*
X12526429Y-15124190D01*
X12526429Y-15124190D02*
X12526429Y-15200381D01*
X12526429Y-15200381D02*
X12535952Y-15219428D01*
X12535952Y-15219428D02*
X12545476Y-15228952D01*
X12545476Y-15228952D02*
X12564524Y-15238476D01*
X12564524Y-15238476D02*
X12602619Y-15238476D01*
X12602619Y-15238476D02*
X12621667Y-15228952D01*
X12621667Y-15228952D02*
X12631191Y-15219428D01*
X12631191Y-15219428D02*
X12640714Y-15200381D01*
X12640714Y-15200381D02*
X12640714Y-15152762D01*
X12640714Y-15152762D02*
X12631191Y-15133714D01*
X12631191Y-15133714D02*
X12621667Y-15124190D01*
X12621667Y-15124190D02*
X12602619Y-15114667D01*
X12602619Y-15114667D02*
X12564524Y-15114667D01*
X12564524Y-15114667D02*
X12545476Y-15124190D01*
X12545476Y-15124190D02*
X12535952Y-15133714D01*
X12535952Y-15133714D02*
X12526429Y-15152762D01*
X12846429Y-15238476D02*
X12846429Y-15038476D01*
X12932143Y-15238476D02*
X12932143Y-15133714D01*
X12932143Y-15133714D02*
X12922619Y-15114667D01*
X12922619Y-15114667D02*
X12903572Y-15105143D01*
X12903572Y-15105143D02*
X12875000Y-15105143D01*
X12875000Y-15105143D02*
X12855952Y-15114667D01*
X12855952Y-15114667D02*
X12846429Y-15124190D01*
X13055952Y-15238476D02*
X13036905Y-15228952D01*
X13036905Y-15228952D02*
X13027381Y-15219428D01*
X13027381Y-15219428D02*
X13017857Y-15200381D01*
X13017857Y-15200381D02*
X13017857Y-15143238D01*
X13017857Y-15143238D02*
X13027381Y-15124190D01*
X13027381Y-15124190D02*
X13036905Y-15114667D01*
X13036905Y-15114667D02*
X13055952Y-15105143D01*
X13055952Y-15105143D02*
X13084524Y-15105143D01*
X13084524Y-15105143D02*
X13103572Y-15114667D01*
X13103572Y-15114667D02*
X13113095Y-15124190D01*
X13113095Y-15124190D02*
X13122619Y-15143238D01*
X13122619Y-15143238D02*
X13122619Y-15200381D01*
X13122619Y-15200381D02*
X13113095Y-15219428D01*
X13113095Y-15219428D02*
X13103572Y-15228952D01*
X13103572Y-15228952D02*
X13084524Y-15238476D01*
X13084524Y-15238476D02*
X13055952Y-15238476D01*
X13236905Y-15238476D02*
X13217857Y-15228952D01*
X13217857Y-15228952D02*
X13208333Y-15209905D01*
X13208333Y-15209905D02*
X13208333Y-15038476D01*
X13389286Y-15228952D02*
X13370238Y-15238476D01*
X13370238Y-15238476D02*
X13332143Y-15238476D01*
X13332143Y-15238476D02*
X13313095Y-15228952D01*
X13313095Y-15228952D02*
X13303572Y-15209905D01*
X13303572Y-15209905D02*
X13303572Y-15133714D01*
X13303572Y-15133714D02*
X13313095Y-15114667D01*
X13313095Y-15114667D02*
X13332143Y-15105143D01*
X13332143Y-15105143D02*
X13370238Y-15105143D01*
X13370238Y-15105143D02*
X13389286Y-15114667D01*
X13389286Y-15114667D02*
X13398810Y-15133714D01*
X13398810Y-15133714D02*
X13398810Y-15152762D01*
X13398810Y-15152762D02*
X13303572Y-15171809D01*
X13475000Y-15228952D02*
X13494048Y-15238476D01*
X13494048Y-15238476D02*
X13532143Y-15238476D01*
X13532143Y-15238476D02*
X13551191Y-15228952D01*
X13551191Y-15228952D02*
X13560714Y-15209905D01*
X13560714Y-15209905D02*
X13560714Y-15200381D01*
X13560714Y-15200381D02*
X13551191Y-15181333D01*
X13551191Y-15181333D02*
X13532143Y-15171809D01*
X13532143Y-15171809D02*
X13503572Y-15171809D01*
X13503572Y-15171809D02*
X13484524Y-15162286D01*
X13484524Y-15162286D02*
X13475000Y-15143238D01*
X13475000Y-15143238D02*
X13475000Y-15133714D01*
X13475000Y-15133714D02*
X13484524Y-15114667D01*
X13484524Y-15114667D02*
X13503572Y-15105143D01*
X13503572Y-15105143D02*
X13532143Y-15105143D01*
X13532143Y-15105143D02*
X13551191Y-15114667D01*
X13627381Y-15314667D02*
X13636905Y-15305143D01*
X13636905Y-15305143D02*
X13655953Y-15276571D01*
X13655953Y-15276571D02*
X13665476Y-15257524D01*
X13665476Y-15257524D02*
X13675000Y-15228952D01*
X13675000Y-15228952D02*
X13684524Y-15181333D01*
X13684524Y-15181333D02*
X13684524Y-15143238D01*
X13684524Y-15143238D02*
X13675000Y-15095619D01*
X13675000Y-15095619D02*
X13665476Y-15067048D01*
X13665476Y-15067048D02*
X13655953Y-15048000D01*
X13655953Y-15048000D02*
X13636905Y-15019428D01*
X13636905Y-15019428D02*
X13627381Y-15009905D01*
M02*
