%TF.GenerationSoftware,KiCad,Pcbnew,7.0.2*%
%TF.CreationDate,2023-05-28T21:21:49-04:00*%
%TF.ProjectId,AutoTiller,4175746f-5469-46c6-9c65-722e6b696361,rev?*%
%TF.SameCoordinates,Original*%
%TF.FileFunction,Copper,L2,Inr*%
%TF.FilePolarity,Positive*%
%FSLAX46Y46*%
G04 Gerber Fmt 4.6, Leading zero omitted, Abs format (unit mm)*
G04 Created by KiCad (PCBNEW 7.0.2) date 2023-05-28 21:21:49*
%MOMM*%
%LPD*%
G01*
G04 APERTURE LIST*
G04 Aperture macros list*
%AMRoundRect*
0 Rectangle with rounded corners*
0 $1 Rounding radius*
0 $2 $3 $4 $5 $6 $7 $8 $9 X,Y pos of 4 corners*
0 Add a 4 corners polygon primitive as box body*
4,1,4,$2,$3,$4,$5,$6,$7,$8,$9,$2,$3,0*
0 Add four circle primitives for the rounded corners*
1,1,$1+$1,$2,$3*
1,1,$1+$1,$4,$5*
1,1,$1+$1,$6,$7*
1,1,$1+$1,$8,$9*
0 Add four rect primitives between the rounded corners*
20,1,$1+$1,$2,$3,$4,$5,0*
20,1,$1+$1,$4,$5,$6,$7,0*
20,1,$1+$1,$6,$7,$8,$9,0*
20,1,$1+$1,$8,$9,$2,$3,0*%
G04 Aperture macros list end*
%TA.AperFunction,ComponentPad*%
%ADD10O,2.300000X1.300000*%
%TD*%
%TA.AperFunction,ComponentPad*%
%ADD11O,2.600000X1.300000*%
%TD*%
%TA.AperFunction,ComponentPad*%
%ADD12RoundRect,0.825000X-1.295000X-0.825000X1.295000X-0.825000X1.295000X0.825000X-1.295000X0.825000X0*%
%TD*%
%TA.AperFunction,ComponentPad*%
%ADD13RoundRect,1.060000X-1.060000X-1.540000X1.060000X-1.540000X1.060000X1.540000X-1.060000X1.540000X0*%
%TD*%
%TA.AperFunction,ComponentPad*%
%ADD14C,0.500000*%
%TD*%
%TA.AperFunction,ComponentPad*%
%ADD15R,1.700000X1.700000*%
%TD*%
%TA.AperFunction,ComponentPad*%
%ADD16O,1.700000X1.700000*%
%TD*%
%TA.AperFunction,ComponentPad*%
%ADD17RoundRect,0.825000X1.295000X0.825000X-1.295000X0.825000X-1.295000X-0.825000X1.295000X-0.825000X0*%
%TD*%
%TA.AperFunction,ComponentPad*%
%ADD18RoundRect,1.060000X1.060000X1.540000X-1.060000X1.540000X-1.060000X-1.540000X1.060000X-1.540000X0*%
%TD*%
%TA.AperFunction,ViaPad*%
%ADD19C,0.800000*%
%TD*%
%TA.AperFunction,ViaPad*%
%ADD20C,0.410000*%
%TD*%
%TA.AperFunction,Conductor*%
%ADD21C,0.200000*%
%TD*%
G04 APERTURE END LIST*
D10*
%TO.N,unconnected-(J1-SHIELD-PadS1)*%
%TO.C,J1*%
X126675000Y-115680000D03*
D11*
X122850000Y-115680000D03*
D10*
X126675000Y-124320000D03*
D11*
X122850000Y-124320000D03*
%TD*%
D12*
%TO.N,VBAT*%
%TO.C,BT1*%
X123885000Y-150000000D03*
D13*
X139885000Y-150000000D03*
%TO.N,/BT1*%
X180115000Y-150000000D03*
D12*
X196115000Y-150000000D03*
%TD*%
D14*
%TO.N,GND*%
%TO.C,DRV8251ADDAR1*%
X169400000Y-130490000D03*
X168100000Y-130490000D03*
X166800000Y-130490000D03*
X169400000Y-132400000D03*
X168100000Y-132400000D03*
X166800000Y-132400000D03*
%TD*%
D15*
%TO.N,/OUT1*%
%TO.C,U3*%
X170350000Y-139090000D03*
D16*
%TO.N,/OUT2*%
X167810000Y-139090000D03*
%TO.N,GND*%
X165270000Y-139090000D03*
%TO.N,+3.3V*%
X162730000Y-139090000D03*
%TO.N,ENC_A*%
X160190000Y-139090000D03*
%TO.N,ENC_B*%
X157650000Y-139090000D03*
%TD*%
D17*
%TO.N,/BT1*%
%TO.C,BT2*%
X196115000Y-90000000D03*
D18*
X180115000Y-90000000D03*
%TO.N,BT2*%
X139885000Y-90000000D03*
D17*
X123885000Y-90000000D03*
%TD*%
D19*
%TO.N,STAT*%
X124450000Y-140110000D03*
D20*
X138500000Y-118600000D03*
D19*
%TO.N,D+*%
X125500000Y-120000000D03*
D20*
X138003970Y-121696030D03*
D19*
%TO.N,D-*%
X124500497Y-120000000D03*
D20*
X138500000Y-122300000D03*
D19*
%TO.N,GND*%
X168400000Y-135500000D03*
X133000000Y-109000000D03*
X185600000Y-118600000D03*
X129000000Y-104000000D03*
X131000000Y-109000000D03*
X129000000Y-109000000D03*
X135000000Y-104000000D03*
X136800000Y-127400000D03*
X140400000Y-121100000D03*
X168400000Y-136700000D03*
X135000000Y-107000000D03*
X169100000Y-136100000D03*
X186800000Y-119800000D03*
X140900000Y-130400000D03*
X186800000Y-121200000D03*
X133000000Y-104000000D03*
X188000000Y-121200000D03*
X188000000Y-118600000D03*
X135000000Y-109000000D03*
X135000000Y-106000000D03*
X186800000Y-118600000D03*
X188000000Y-119800000D03*
X185600000Y-119800000D03*
X131000000Y-104000000D03*
X141381864Y-121097733D03*
X184950000Y-131100000D03*
X185600000Y-121200000D03*
X147600000Y-122000000D03*
X139600000Y-130400000D03*
X187062500Y-89137500D03*
X187062500Y-88262500D03*
%TO.N,QON*%
X139400000Y-123400000D03*
X149100000Y-122800000D03*
X144200000Y-123900000D03*
X157100000Y-122800000D03*
X149100000Y-122800000D03*
%TO.N,SCL*%
X187900000Y-130900000D03*
X188600000Y-95400000D03*
X140800000Y-125600000D03*
X177400000Y-105400000D03*
X182950000Y-115450000D03*
%TO.N,SDA*%
X178400000Y-103800000D03*
X183000000Y-116700000D03*
X186800000Y-96400000D03*
X142200000Y-125800000D03*
X186800000Y-130850000D03*
D20*
%TO.N,ESP_EN*%
X186200000Y-115000000D03*
D19*
%TO.N,+3.3V*%
X189200000Y-110600000D03*
X166912500Y-115950000D03*
X188612500Y-86400000D03*
X188612500Y-85200000D03*
X155300000Y-108400000D03*
X177800000Y-108600000D03*
X184200000Y-111800000D03*
X156100000Y-108000000D03*
X155300000Y-110200000D03*
X163850000Y-137600000D03*
X156100000Y-107000000D03*
X189150000Y-134400000D03*
X155300000Y-107500000D03*
X156900000Y-110300000D03*
X156100000Y-108900000D03*
X155300000Y-109300000D03*
X190000000Y-109400000D03*
X131400000Y-127300000D03*
%TO.N,+1*%
X183600000Y-108590000D03*
D20*
X187800000Y-115000000D03*
D19*
%TO.N,-1*%
X182400000Y-108610000D03*
D20*
X187000000Y-115000000D03*
%TO.N,+15*%
X188600000Y-115000000D03*
D19*
X184800000Y-108590000D03*
%TO.N,-15*%
X181200000Y-108590000D03*
D20*
X185400000Y-115000000D03*
D19*
%TO.N,TackL*%
X180000000Y-108590000D03*
D20*
X184600000Y-115000000D03*
D19*
%TO.N,TackR*%
X186000000Y-108590000D03*
D20*
X189400000Y-115000000D03*
D19*
%TO.N,ENC_B*%
X174700500Y-124600000D03*
%TO.N,S_LED*%
X133600000Y-127000000D03*
X159600000Y-125995000D03*
%TO.N,ESP_IO0*%
X188800000Y-115800000D03*
%TO.N,ENC_A*%
X174699945Y-123600498D03*
%TO.N,BC_INT*%
X149100000Y-125100000D03*
X158000000Y-123800000D03*
%TO.N,ESP_RXD*%
X187800000Y-127000000D03*
%TO.N,ESP_TXD*%
X188800000Y-127000000D03*
%TO.N,/INT*%
X147000000Y-127400000D03*
D20*
X144400000Y-120200000D03*
%TO.N,/SW2*%
X141700000Y-119700000D03*
D19*
X141700000Y-113400000D03*
X141700000Y-112400000D03*
X141700000Y-114400000D03*
D20*
X142100000Y-120100000D03*
%TO.N,/PROG*%
X142200000Y-121200000D03*
D19*
X144400000Y-127400000D03*
D20*
%TO.N,/BTST1*%
X138000000Y-120400000D03*
%TO.N,/BTST2*%
X143900000Y-120600000D03*
D19*
%TO.N,/SW1*%
X140700000Y-113400000D03*
D20*
X140600000Y-119700000D03*
D19*
X140700497Y-114400000D03*
X140700000Y-112400000D03*
D20*
X140200000Y-120200000D03*
D19*
%TO.N,/SDRV*%
X145800000Y-125800000D03*
D20*
X144200000Y-118600000D03*
D19*
%TO.N,Compass_INT*%
X185200000Y-92000000D03*
%TD*%
D21*
%TO.N,unconnected-(J1-SHIELD-PadS1)*%
X122850000Y-115680000D02*
X122850000Y-124320000D01*
X126675000Y-115680000D02*
X122850000Y-115680000D01*
X122850000Y-124320000D02*
X126675000Y-124320000D01*
%TD*%
%TA.AperFunction,Conductor*%
%TO.N,+3.3V*%
G36*
X195825928Y-80000544D02*
G01*
X196190544Y-80009496D01*
X196201486Y-80010167D01*
X196578945Y-80047344D01*
X196593385Y-80049486D01*
X196963574Y-80123121D01*
X196977754Y-80126674D01*
X197338932Y-80236236D01*
X197352694Y-80241159D01*
X197701414Y-80385604D01*
X197714614Y-80391847D01*
X197976328Y-80531736D01*
X198047468Y-80569762D01*
X198060010Y-80577279D01*
X198373847Y-80786977D01*
X198385570Y-80795671D01*
X198677351Y-81035129D01*
X198688174Y-81044939D01*
X198955060Y-81311825D01*
X198964871Y-81322649D01*
X199204325Y-81614426D01*
X199213026Y-81626158D01*
X199422720Y-81939989D01*
X199430237Y-81952531D01*
X199608147Y-82285376D01*
X199614399Y-82298594D01*
X199758837Y-82647299D01*
X199763763Y-82661067D01*
X199873325Y-83022245D01*
X199876878Y-83036428D01*
X199950511Y-83406602D01*
X199952657Y-83421067D01*
X199989831Y-83798511D01*
X199990503Y-83809458D01*
X199999455Y-84174070D01*
X199999500Y-84177727D01*
X199999500Y-106944993D01*
X199979538Y-107019493D01*
X199963098Y-107042578D01*
X199034924Y-108113547D01*
X198971046Y-108156772D01*
X198894114Y-108162267D01*
X198824741Y-108128560D01*
X198781516Y-108064682D01*
X198773326Y-108015736D01*
X198805308Y-87324664D01*
X198798376Y-87259481D01*
X198787170Y-87207778D01*
X198776162Y-87169342D01*
X198719483Y-87072429D01*
X198673728Y-87019625D01*
X198628995Y-86977447D01*
X198625765Y-86975804D01*
X198528920Y-86926561D01*
X198461876Y-86906874D01*
X198375811Y-86894500D01*
X198375808Y-86894500D01*
X177924000Y-86894500D01*
X177920040Y-86894925D01*
X177920035Y-86894926D01*
X177863026Y-86901055D01*
X177863016Y-86901056D01*
X177859059Y-86901482D01*
X177855173Y-86902327D01*
X177855163Y-86902329D01*
X177809910Y-86912174D01*
X177809905Y-86912175D01*
X177807548Y-86912688D01*
X177769342Y-86923646D01*
X177769339Y-86923647D01*
X177672430Y-86980324D01*
X177623804Y-87022459D01*
X177619625Y-87026080D01*
X177617062Y-87028797D01*
X177617057Y-87028803D01*
X177577446Y-87070814D01*
X177526561Y-87170887D01*
X177506874Y-87237931D01*
X177494500Y-87323997D01*
X177494500Y-87324000D01*
X177494500Y-89137499D01*
X177494500Y-91999999D01*
X177494500Y-92746765D01*
X177494633Y-92748992D01*
X177494634Y-92749002D01*
X177496559Y-92781075D01*
X177496561Y-92781102D01*
X177496694Y-92783310D01*
X177496959Y-92785516D01*
X177496961Y-92785529D01*
X177500243Y-92812765D01*
X177501750Y-92823633D01*
X177539259Y-92929455D01*
X177574304Y-92989900D01*
X177628179Y-93058149D01*
X177628181Y-93058151D01*
X177628182Y-93058152D01*
X180093284Y-95399999D01*
X180326429Y-95621487D01*
X181145916Y-96399999D01*
X181379061Y-96621487D01*
X189447522Y-104286526D01*
X189487785Y-104352310D01*
X189493897Y-104395008D01*
X189482323Y-108156772D01*
X189480714Y-108679750D01*
X189481432Y-108684938D01*
X189491663Y-108758871D01*
X189492451Y-108764561D01*
X189511343Y-108830731D01*
X189512689Y-108834133D01*
X189512698Y-108834160D01*
X189533464Y-108886652D01*
X189593415Y-108963884D01*
X189602308Y-108975341D01*
X189654563Y-109021722D01*
X189704424Y-109057704D01*
X189704425Y-109057704D01*
X189704426Y-109057705D01*
X189810286Y-109095092D01*
X189879321Y-109105858D01*
X189966266Y-109106893D01*
X189966266Y-109106892D01*
X189966271Y-109106893D01*
X189980547Y-109105012D01*
X190019440Y-109105012D01*
X190057562Y-109110031D01*
X190095128Y-109120097D01*
X190130653Y-109134812D01*
X190164338Y-109154260D01*
X190194830Y-109177657D01*
X190222335Y-109205162D01*
X190245739Y-109235663D01*
X190265185Y-109269344D01*
X190265371Y-109269791D01*
X190279901Y-109304869D01*
X190289968Y-109342442D01*
X190294985Y-109380550D01*
X190294985Y-109419447D01*
X190289967Y-109457561D01*
X190279900Y-109495131D01*
X190265189Y-109530647D01*
X190245742Y-109564332D01*
X190222339Y-109594832D01*
X190194832Y-109622339D01*
X190164332Y-109645742D01*
X190130647Y-109665189D01*
X190095131Y-109679900D01*
X190057562Y-109689967D01*
X190019449Y-109694985D01*
X189980552Y-109694985D01*
X189966987Y-109693199D01*
X189966978Y-109693198D01*
X189961848Y-109692523D01*
X189956673Y-109692565D01*
X189956670Y-109692565D01*
X189882332Y-109693171D01*
X189882320Y-109693171D01*
X189877157Y-109693214D01*
X189872042Y-109693972D01*
X189872035Y-109693973D01*
X189813385Y-109702670D01*
X189813365Y-109702673D01*
X189809811Y-109703201D01*
X189806318Y-109704071D01*
X189806306Y-109704074D01*
X189752367Y-109717518D01*
X189655278Y-109773899D01*
X189605175Y-109817043D01*
X189605167Y-109817050D01*
X189602333Y-109819491D01*
X189599755Y-109822207D01*
X189599748Y-109822215D01*
X189560016Y-109864094D01*
X189508821Y-109964016D01*
X189488930Y-110030995D01*
X189476290Y-110117023D01*
X189475409Y-110403540D01*
X189475398Y-110407242D01*
X189475751Y-110410917D01*
X189475752Y-110410925D01*
X189479356Y-110448380D01*
X189479692Y-110464392D01*
X189494985Y-110580552D01*
X189494985Y-110619447D01*
X189480256Y-110731332D01*
X189480027Y-110733074D01*
X189479881Y-110734797D01*
X189479880Y-110734809D01*
X189478852Y-110746967D01*
X189474576Y-110789361D01*
X189474575Y-110789374D01*
X189474212Y-110792977D01*
X189474200Y-110796587D01*
X189474200Y-110796605D01*
X189463279Y-114345958D01*
X189443088Y-114420397D01*
X189388383Y-114474766D01*
X189347082Y-114485764D01*
X189347875Y-114488464D01*
X189187849Y-114535452D01*
X189080555Y-114604405D01*
X189007089Y-114627889D01*
X188931723Y-114611494D01*
X188919445Y-114604405D01*
X188812150Y-114535452D01*
X188672682Y-114494500D01*
X188672680Y-114494500D01*
X188527320Y-114494500D01*
X188527318Y-114494500D01*
X188387849Y-114535452D01*
X188280555Y-114604405D01*
X188207089Y-114627889D01*
X188131723Y-114611494D01*
X188119445Y-114604405D01*
X188012150Y-114535452D01*
X187872682Y-114494500D01*
X187872680Y-114494500D01*
X187727320Y-114494500D01*
X187727318Y-114494500D01*
X187587849Y-114535452D01*
X187480555Y-114604405D01*
X187407089Y-114627889D01*
X187331723Y-114611494D01*
X187319445Y-114604405D01*
X187212150Y-114535452D01*
X187072682Y-114494500D01*
X187072680Y-114494500D01*
X186927320Y-114494500D01*
X186927318Y-114494500D01*
X186787849Y-114535452D01*
X186680555Y-114604405D01*
X186607089Y-114627889D01*
X186531723Y-114611494D01*
X186519445Y-114604405D01*
X186412150Y-114535452D01*
X186272682Y-114494500D01*
X186272680Y-114494500D01*
X186127320Y-114494500D01*
X186127318Y-114494500D01*
X185987849Y-114535452D01*
X185880555Y-114604405D01*
X185807089Y-114627889D01*
X185731723Y-114611494D01*
X185719445Y-114604405D01*
X185612150Y-114535452D01*
X185472682Y-114494500D01*
X185472680Y-114494500D01*
X185327320Y-114494500D01*
X185327318Y-114494500D01*
X185187849Y-114535452D01*
X185080555Y-114604405D01*
X185007089Y-114627889D01*
X184931723Y-114611494D01*
X184919445Y-114604405D01*
X184812150Y-114535452D01*
X184672682Y-114494500D01*
X184672680Y-114494500D01*
X184527320Y-114494500D01*
X184527318Y-114494500D01*
X184387849Y-114535452D01*
X184265564Y-114614039D01*
X184170373Y-114723896D01*
X184109988Y-114856120D01*
X184089301Y-115000000D01*
X184109988Y-115143879D01*
X184170373Y-115276103D01*
X184232829Y-115348182D01*
X184265564Y-115385960D01*
X184387848Y-115464547D01*
X184413469Y-115472070D01*
X184527318Y-115505500D01*
X184527320Y-115505500D01*
X184672682Y-115505500D01*
X184786531Y-115472070D01*
X184812152Y-115464547D01*
X184919446Y-115395593D01*
X184992910Y-115372109D01*
X185068275Y-115388503D01*
X185080544Y-115395587D01*
X185187848Y-115464547D01*
X185327318Y-115505500D01*
X185327320Y-115505500D01*
X185472682Y-115505500D01*
X185586531Y-115472070D01*
X185612152Y-115464547D01*
X185719446Y-115395593D01*
X185792910Y-115372109D01*
X185868275Y-115388503D01*
X185880544Y-115395587D01*
X185987848Y-115464547D01*
X186127318Y-115505500D01*
X186127320Y-115505500D01*
X186272682Y-115505500D01*
X186386531Y-115472070D01*
X186412152Y-115464547D01*
X186519446Y-115395593D01*
X186592910Y-115372109D01*
X186668275Y-115388503D01*
X186680544Y-115395587D01*
X186787848Y-115464547D01*
X186927318Y-115505500D01*
X186927320Y-115505500D01*
X187072682Y-115505500D01*
X187186531Y-115472070D01*
X187212152Y-115464547D01*
X187319446Y-115395593D01*
X187392910Y-115372109D01*
X187468275Y-115388503D01*
X187480544Y-115395587D01*
X187587848Y-115464547D01*
X187727318Y-115505500D01*
X187727320Y-115505500D01*
X187872680Y-115505500D01*
X187922457Y-115490883D01*
X187999562Y-115489048D01*
X188067256Y-115526011D01*
X188107399Y-115591869D01*
X188112349Y-115651808D01*
X188097035Y-115777932D01*
X188094355Y-115800000D01*
X188114860Y-115968872D01*
X188166784Y-116105786D01*
X188175183Y-116127932D01*
X188271816Y-116267928D01*
X188271817Y-116267929D01*
X188399148Y-116380734D01*
X188549775Y-116459790D01*
X188549778Y-116459790D01*
X188549779Y-116459791D01*
X188714942Y-116500500D01*
X188714944Y-116500500D01*
X188885058Y-116500500D01*
X189005697Y-116470765D01*
X189050225Y-116459790D01*
X189200852Y-116380734D01*
X189208891Y-116373611D01*
X189277888Y-116339152D01*
X189354876Y-116343807D01*
X189419221Y-116386332D01*
X189453683Y-116455333D01*
X189456694Y-116485598D01*
X189426522Y-126291689D01*
X189406331Y-126366128D01*
X189351626Y-126420497D01*
X189277065Y-126440230D01*
X189208279Y-126423164D01*
X189050222Y-126340208D01*
X188885058Y-126299500D01*
X188885056Y-126299500D01*
X188714944Y-126299500D01*
X188714942Y-126299500D01*
X188549779Y-126340208D01*
X188399144Y-126419268D01*
X188398801Y-126419573D01*
X188393938Y-126422001D01*
X188383130Y-126427674D01*
X188383015Y-126427455D01*
X188329798Y-126454031D01*
X188252811Y-126449371D01*
X188201195Y-126419570D01*
X188200851Y-126419265D01*
X188050222Y-126340208D01*
X187885058Y-126299500D01*
X187885056Y-126299500D01*
X187714944Y-126299500D01*
X187714942Y-126299500D01*
X187549779Y-126340208D01*
X187549775Y-126340209D01*
X187549775Y-126340210D01*
X187399148Y-126419266D01*
X187399146Y-126419267D01*
X187399145Y-126419268D01*
X187271816Y-126532071D01*
X187175183Y-126672067D01*
X187175181Y-126672070D01*
X187175182Y-126672070D01*
X187114860Y-126831128D01*
X187094355Y-127000000D01*
X187114860Y-127168872D01*
X187175182Y-127327930D01*
X187175183Y-127327932D01*
X187271816Y-127467928D01*
X187271817Y-127467929D01*
X187399148Y-127580734D01*
X187549775Y-127659790D01*
X187549778Y-127659790D01*
X187549779Y-127659791D01*
X187714942Y-127700500D01*
X187714944Y-127700500D01*
X187885058Y-127700500D01*
X188050222Y-127659791D01*
X188050222Y-127659790D01*
X188050225Y-127659790D01*
X188200852Y-127580734D01*
X188201192Y-127580432D01*
X188206041Y-127578010D01*
X188216872Y-127572326D01*
X188216986Y-127572543D01*
X188270191Y-127545970D01*
X188347179Y-127550624D01*
X188398806Y-127580431D01*
X188399099Y-127580691D01*
X188399149Y-127580735D01*
X188549777Y-127659791D01*
X188714942Y-127700500D01*
X188714944Y-127700500D01*
X188885058Y-127700500D01*
X188995168Y-127673359D01*
X189050225Y-127659790D01*
X189200852Y-127580734D01*
X189200854Y-127580731D01*
X189203910Y-127579128D01*
X189279153Y-127562181D01*
X189352789Y-127585126D01*
X189405087Y-127641815D01*
X189422154Y-127711518D01*
X189405713Y-133055005D01*
X189402339Y-134151573D01*
X189402691Y-134155243D01*
X189402692Y-134155244D01*
X189407763Y-134207987D01*
X189407765Y-134208004D01*
X189408116Y-134211649D01*
X189408824Y-134215239D01*
X189408827Y-134215257D01*
X189416840Y-134255868D01*
X189416842Y-134255878D01*
X189417552Y-134259474D01*
X189418610Y-134262974D01*
X189418619Y-134263007D01*
X189434382Y-134315113D01*
X189439489Y-134338800D01*
X189444986Y-134380553D01*
X189444986Y-134419445D01*
X189439687Y-134459699D01*
X189432446Y-134489625D01*
X189433497Y-134486449D01*
X189416203Y-134543302D01*
X189415489Y-134546858D01*
X189415488Y-134546866D01*
X189407481Y-134586798D01*
X189407479Y-134586810D01*
X189406768Y-134590357D01*
X189406405Y-134593952D01*
X189406403Y-134593969D01*
X189401171Y-134645865D01*
X189400807Y-134649477D01*
X189400795Y-134653088D01*
X189400795Y-134653106D01*
X189395129Y-136494799D01*
X189374938Y-136569238D01*
X189344712Y-136606067D01*
X177641754Y-146932207D01*
X177641740Y-146932220D01*
X177639834Y-146933902D01*
X177638037Y-146935722D01*
X177638031Y-146935729D01*
X177611988Y-146962124D01*
X177611967Y-146962145D01*
X177610178Y-146963960D01*
X177608504Y-146965909D01*
X177608499Y-146965915D01*
X177587904Y-146989901D01*
X177586623Y-146991456D01*
X177577462Y-147002740D01*
X177526561Y-147102844D01*
X177506874Y-147169888D01*
X177494500Y-147255954D01*
X177494500Y-147255957D01*
X177494500Y-151776000D01*
X177494925Y-151779960D01*
X177494926Y-151779964D01*
X177498942Y-151817321D01*
X177501482Y-151840941D01*
X177502328Y-151844829D01*
X177502329Y-151844836D01*
X177506219Y-151862718D01*
X177512688Y-151892452D01*
X177523646Y-151930658D01*
X177580325Y-152027571D01*
X177626080Y-152080375D01*
X177670813Y-152122553D01*
X177770889Y-152173439D01*
X177808930Y-152184609D01*
X177874788Y-152224752D01*
X177895458Y-152252161D01*
X177911260Y-152279088D01*
X177940221Y-152328439D01*
X178089503Y-152505497D01*
X178266561Y-152654779D01*
X178266563Y-152654780D01*
X178266564Y-152654781D01*
X178466298Y-152771991D01*
X178682974Y-152853761D01*
X178738049Y-152864412D01*
X178910353Y-152897736D01*
X178962391Y-152900500D01*
X181267608Y-152900499D01*
X181319647Y-152897736D01*
X181547025Y-152853761D01*
X181763701Y-152771991D01*
X181889175Y-152698358D01*
X181963439Y-152654779D01*
X182140497Y-152505497D01*
X182289779Y-152328439D01*
X182318740Y-152279088D01*
X182373663Y-152224938D01*
X182447247Y-152205500D01*
X198272222Y-152205500D01*
X198276191Y-152205500D01*
X198340898Y-152198569D01*
X198392235Y-152187443D01*
X198430228Y-152176594D01*
X198527229Y-152120066D01*
X198580104Y-152074393D01*
X198622355Y-152029721D01*
X198673395Y-151929723D01*
X198693183Y-151862714D01*
X198705691Y-151776664D01*
X198736348Y-131941138D01*
X198756426Y-131866670D01*
X198811048Y-131812216D01*
X198885578Y-131792369D01*
X198960047Y-131812447D01*
X198997945Y-131843783D01*
X199963098Y-132957421D01*
X199996805Y-133026793D01*
X199999500Y-133055005D01*
X199999500Y-155822271D01*
X199999455Y-155825928D01*
X199990503Y-156190541D01*
X199989831Y-156201488D01*
X199952657Y-156578932D01*
X199950511Y-156593397D01*
X199876878Y-156963571D01*
X199873325Y-156977754D01*
X199763763Y-157338932D01*
X199758837Y-157352700D01*
X199614399Y-157701405D01*
X199608147Y-157714623D01*
X199430237Y-158047468D01*
X199422720Y-158060010D01*
X199213026Y-158373841D01*
X199204316Y-158385586D01*
X198964880Y-158677340D01*
X198955060Y-158688174D01*
X198688174Y-158955060D01*
X198677340Y-158964880D01*
X198385586Y-159204316D01*
X198373841Y-159213026D01*
X198060010Y-159422720D01*
X198047468Y-159430237D01*
X197714623Y-159608147D01*
X197701405Y-159614399D01*
X197352700Y-159758837D01*
X197338932Y-159763763D01*
X196977754Y-159873325D01*
X196963571Y-159876878D01*
X196593397Y-159950511D01*
X196578932Y-159952657D01*
X196201488Y-159989831D01*
X196190541Y-159990503D01*
X195825929Y-159999455D01*
X195822272Y-159999500D01*
X124177728Y-159999500D01*
X124174071Y-159999455D01*
X123809458Y-159990503D01*
X123798511Y-159989831D01*
X123421067Y-159952657D01*
X123406602Y-159950511D01*
X123036428Y-159876878D01*
X123022245Y-159873325D01*
X122661067Y-159763763D01*
X122647299Y-159758837D01*
X122298594Y-159614399D01*
X122285376Y-159608147D01*
X121952531Y-159430237D01*
X121939989Y-159422720D01*
X121626158Y-159213026D01*
X121614426Y-159204325D01*
X121322649Y-158964871D01*
X121311825Y-158955060D01*
X121044939Y-158688174D01*
X121035129Y-158677351D01*
X120795671Y-158385570D01*
X120786973Y-158373841D01*
X120577279Y-158060010D01*
X120569762Y-158047468D01*
X120531736Y-157976328D01*
X120391847Y-157714614D01*
X120385604Y-157701414D01*
X120241159Y-157352694D01*
X120236236Y-157338932D01*
X120126674Y-156977754D01*
X120123121Y-156963571D01*
X120049486Y-156593385D01*
X120047344Y-156578945D01*
X120010167Y-156201486D01*
X120009496Y-156190541D01*
X120009057Y-156172668D01*
X120003402Y-155942306D01*
X122641828Y-155942306D01*
X122651614Y-156172668D01*
X122700190Y-156398062D01*
X122786159Y-156612006D01*
X122907049Y-156808343D01*
X123059380Y-156981425D01*
X123238772Y-157126274D01*
X123440063Y-157238721D01*
X123657462Y-157315533D01*
X123884715Y-157354500D01*
X123884717Y-157354500D01*
X124054362Y-157354500D01*
X124057535Y-157354500D01*
X124211385Y-157341405D01*
X124229740Y-157339843D01*
X124452865Y-157281746D01*
X124452864Y-157281746D01*
X124452869Y-157281745D01*
X124662971Y-157186773D01*
X124854000Y-157057659D01*
X125020462Y-156898119D01*
X125157566Y-156712742D01*
X125261370Y-156506860D01*
X125328886Y-156286397D01*
X125358172Y-156057694D01*
X125353270Y-155942306D01*
X194641828Y-155942306D01*
X194651614Y-156172668D01*
X194700190Y-156398062D01*
X194786159Y-156612006D01*
X194907049Y-156808343D01*
X195059380Y-156981425D01*
X195238772Y-157126274D01*
X195440063Y-157238721D01*
X195657462Y-157315533D01*
X195884715Y-157354500D01*
X195884717Y-157354500D01*
X196054362Y-157354500D01*
X196057535Y-157354500D01*
X196211385Y-157341405D01*
X196229740Y-157339843D01*
X196452865Y-157281746D01*
X196452864Y-157281746D01*
X196452869Y-157281745D01*
X196662971Y-157186773D01*
X196854000Y-157057659D01*
X197020462Y-156898119D01*
X197157566Y-156712742D01*
X197261370Y-156506860D01*
X197328886Y-156286397D01*
X197358172Y-156057694D01*
X197348386Y-155827332D01*
X197299810Y-155601938D01*
X197213841Y-155387994D01*
X197092951Y-155191657D01*
X196940620Y-155018575D01*
X196761228Y-154873726D01*
X196761227Y-154873725D01*
X196559940Y-154761280D01*
X196342538Y-154684467D01*
X196115285Y-154645500D01*
X195942465Y-154645500D01*
X195939309Y-154645768D01*
X195939300Y-154645769D01*
X195770259Y-154660156D01*
X195547134Y-154718253D01*
X195337030Y-154813226D01*
X195145996Y-154942344D01*
X194979536Y-155101882D01*
X194842434Y-155287255D01*
X194738631Y-155493137D01*
X194671113Y-155713605D01*
X194641828Y-155942303D01*
X194641828Y-155942306D01*
X125353270Y-155942306D01*
X125348386Y-155827332D01*
X125299810Y-155601938D01*
X125213841Y-155387994D01*
X125092951Y-155191657D01*
X124940620Y-155018575D01*
X124761228Y-154873726D01*
X124761227Y-154873725D01*
X124559940Y-154761280D01*
X124342538Y-154684467D01*
X124342537Y-154684467D01*
X124115285Y-154645500D01*
X123942465Y-154645500D01*
X123939309Y-154645768D01*
X123939300Y-154645769D01*
X123770259Y-154660156D01*
X123547134Y-154718253D01*
X123337030Y-154813226D01*
X123145996Y-154942344D01*
X122979536Y-155101882D01*
X122842434Y-155287255D01*
X122738631Y-155493137D01*
X122671113Y-155713605D01*
X122641828Y-155942303D01*
X122641828Y-155942306D01*
X120003402Y-155942306D01*
X120000543Y-155825848D01*
X120000500Y-155822352D01*
X120000500Y-150910948D01*
X121464500Y-150910948D01*
X121464631Y-150913152D01*
X121464632Y-150913175D01*
X121467375Y-150959223D01*
X121513065Y-151169257D01*
X121597680Y-151366851D01*
X121718154Y-151544852D01*
X121870147Y-151696845D01*
X122048148Y-151817319D01*
X122048150Y-151817320D01*
X122048152Y-151817321D01*
X122245741Y-151901934D01*
X122455774Y-151947624D01*
X122504052Y-151950500D01*
X122506275Y-151950500D01*
X125263725Y-151950500D01*
X125265948Y-151950500D01*
X125314226Y-151947624D01*
X125524259Y-151901934D01*
X125721848Y-151817321D01*
X125899855Y-151696843D01*
X125966019Y-151630679D01*
X137464500Y-151630679D01*
X137464501Y-151632608D01*
X137464604Y-151634555D01*
X137464605Y-151634578D01*
X137466990Y-151679504D01*
X137466991Y-151679517D01*
X137467264Y-151684647D01*
X137468240Y-151689694D01*
X137468241Y-151689701D01*
X137511238Y-151912025D01*
X137593008Y-152128701D01*
X137710218Y-152328435D01*
X137710220Y-152328437D01*
X137710221Y-152328439D01*
X137859503Y-152505497D01*
X138036561Y-152654779D01*
X138036563Y-152654780D01*
X138036564Y-152654781D01*
X138236298Y-152771991D01*
X138452974Y-152853761D01*
X138508049Y-152864412D01*
X138680353Y-152897736D01*
X138732391Y-152900500D01*
X141037608Y-152900499D01*
X141089647Y-152897736D01*
X141317025Y-152853761D01*
X141533701Y-152771991D01*
X141659175Y-152698358D01*
X141733439Y-152654779D01*
X141910497Y-152505497D01*
X142059779Y-152328439D01*
X142132171Y-152205077D01*
X142176991Y-152128701D01*
X142258761Y-151912025D01*
X142271755Y-151844836D01*
X142302736Y-151684647D01*
X142305500Y-151632609D01*
X142305499Y-148367392D01*
X142302736Y-148315353D01*
X142260713Y-148098066D01*
X142258761Y-148087974D01*
X142176991Y-147871298D01*
X142059781Y-147671564D01*
X142059780Y-147671563D01*
X142059779Y-147671561D01*
X141910497Y-147494503D01*
X141733439Y-147345221D01*
X141733437Y-147345220D01*
X141733435Y-147345218D01*
X141533701Y-147228008D01*
X141317025Y-147146238D01*
X141094705Y-147103242D01*
X141094701Y-147103241D01*
X141089647Y-147102264D01*
X141084510Y-147101991D01*
X141084501Y-147101990D01*
X141039574Y-147099604D01*
X141039560Y-147099603D01*
X141037609Y-147099500D01*
X141035645Y-147099500D01*
X138734357Y-147099500D01*
X138734319Y-147099500D01*
X138732392Y-147099501D01*
X138730445Y-147099604D01*
X138730421Y-147099605D01*
X138685495Y-147101990D01*
X138685480Y-147101991D01*
X138680353Y-147102264D01*
X138675307Y-147103239D01*
X138675298Y-147103241D01*
X138452974Y-147146238D01*
X138236298Y-147228008D01*
X138036564Y-147345218D01*
X137859503Y-147494503D01*
X137710218Y-147671564D01*
X137593008Y-147871298D01*
X137511238Y-148087974D01*
X137468242Y-148310294D01*
X137467264Y-148315353D01*
X137466991Y-148320487D01*
X137466990Y-148320498D01*
X137464604Y-148365425D01*
X137464500Y-148367391D01*
X137464500Y-148369353D01*
X137464500Y-148369354D01*
X137464500Y-151630642D01*
X137464500Y-151630679D01*
X125966019Y-151630679D01*
X126051843Y-151544855D01*
X126172321Y-151366848D01*
X126256934Y-151169259D01*
X126302624Y-150959226D01*
X126305500Y-150910948D01*
X126305500Y-149089052D01*
X126302624Y-149040774D01*
X126256934Y-148830741D01*
X126172321Y-148633152D01*
X126172320Y-148633150D01*
X126172319Y-148633148D01*
X126051845Y-148455147D01*
X125899852Y-148303154D01*
X125721851Y-148182680D01*
X125524257Y-148098065D01*
X125314223Y-148052375D01*
X125268175Y-148049632D01*
X125268152Y-148049631D01*
X125265948Y-148049500D01*
X122504052Y-148049500D01*
X122501848Y-148049631D01*
X122501824Y-148049632D01*
X122455776Y-148052375D01*
X122245742Y-148098065D01*
X122048148Y-148182680D01*
X121870147Y-148303154D01*
X121718154Y-148455147D01*
X121597680Y-148633148D01*
X121513065Y-148830742D01*
X121467375Y-149040776D01*
X121464632Y-149086824D01*
X121464631Y-149086848D01*
X121464500Y-149089052D01*
X121464500Y-150910948D01*
X120000500Y-150910948D01*
X120000500Y-140110000D01*
X123744355Y-140110000D01*
X123764860Y-140278872D01*
X123825182Y-140437930D01*
X123921817Y-140577929D01*
X124049148Y-140690734D01*
X124199775Y-140769790D01*
X124199778Y-140769790D01*
X124199779Y-140769791D01*
X124364942Y-140810500D01*
X124364944Y-140810500D01*
X124535058Y-140810500D01*
X124647306Y-140782833D01*
X124700225Y-140769790D01*
X124850852Y-140690734D01*
X124978183Y-140577929D01*
X125074818Y-140437930D01*
X125135140Y-140278872D01*
X125155645Y-140110000D01*
X125135140Y-139941128D01*
X125074818Y-139782070D01*
X124978183Y-139642071D01*
X124850852Y-139529266D01*
X124700225Y-139450210D01*
X124700222Y-139450209D01*
X124700220Y-139450208D01*
X124535058Y-139409500D01*
X124535056Y-139409500D01*
X124364944Y-139409500D01*
X124364942Y-139409500D01*
X124199779Y-139450208D01*
X124199775Y-139450209D01*
X124199775Y-139450210D01*
X124049148Y-139529266D01*
X124049146Y-139529267D01*
X124049145Y-139529268D01*
X123921816Y-139642071D01*
X123825183Y-139782067D01*
X123825181Y-139782070D01*
X123825182Y-139782070D01*
X123764860Y-139941128D01*
X123744355Y-140110000D01*
X120000500Y-140110000D01*
X120000500Y-139090000D01*
X156494570Y-139090000D01*
X156514243Y-139302307D01*
X156572595Y-139507391D01*
X156667633Y-139698254D01*
X156796127Y-139868406D01*
X156953699Y-140012053D01*
X157134975Y-140124295D01*
X157134978Y-140124296D01*
X157134981Y-140124298D01*
X157333802Y-140201321D01*
X157543390Y-140240500D01*
X157756610Y-140240500D01*
X157966198Y-140201321D01*
X158165019Y-140124298D01*
X158346302Y-140012052D01*
X158503872Y-139868407D01*
X158632366Y-139698255D01*
X158727405Y-139507389D01*
X158776689Y-139334176D01*
X158816276Y-139267985D01*
X158883657Y-139230454D01*
X158960776Y-139231642D01*
X159026969Y-139271230D01*
X159063310Y-139334175D01*
X159063637Y-139335322D01*
X159112595Y-139507391D01*
X159207633Y-139698254D01*
X159336127Y-139868406D01*
X159493699Y-140012053D01*
X159674975Y-140124295D01*
X159674978Y-140124296D01*
X159674981Y-140124298D01*
X159873802Y-140201321D01*
X160083390Y-140240500D01*
X160296610Y-140240500D01*
X160506198Y-140201321D01*
X160705019Y-140124298D01*
X160886302Y-140012052D01*
X161043872Y-139868407D01*
X161172366Y-139698255D01*
X161267405Y-139507389D01*
X161325756Y-139302310D01*
X161345429Y-139090000D01*
X164114570Y-139090000D01*
X164134243Y-139302307D01*
X164192595Y-139507391D01*
X164287633Y-139698254D01*
X164416127Y-139868406D01*
X164573699Y-140012053D01*
X164754975Y-140124295D01*
X164754978Y-140124296D01*
X164754981Y-140124298D01*
X164953802Y-140201321D01*
X165163390Y-140240500D01*
X165376610Y-140240500D01*
X165586198Y-140201321D01*
X165785019Y-140124298D01*
X165966302Y-140012052D01*
X166123872Y-139868407D01*
X166252366Y-139698255D01*
X166347405Y-139507389D01*
X166396689Y-139334176D01*
X166436276Y-139267985D01*
X166503657Y-139230454D01*
X166580776Y-139231642D01*
X166646969Y-139271230D01*
X166683310Y-139334175D01*
X166683637Y-139335322D01*
X166732595Y-139507391D01*
X166827633Y-139698254D01*
X166956127Y-139868406D01*
X167113699Y-140012053D01*
X167294975Y-140124295D01*
X167294978Y-140124296D01*
X167294981Y-140124298D01*
X167493802Y-140201321D01*
X167703390Y-140240500D01*
X167916610Y-140240500D01*
X168126198Y-140201321D01*
X168325019Y-140124298D01*
X168506302Y-140012052D01*
X168663872Y-139868407D01*
X168792366Y-139698255D01*
X168876512Y-139529266D01*
X168887405Y-139507390D01*
X168903674Y-139450210D01*
X168907188Y-139437857D01*
X168946775Y-139371666D01*
X169014156Y-139334135D01*
X169091275Y-139335322D01*
X169157468Y-139374909D01*
X169194999Y-139442290D01*
X169199500Y-139478634D01*
X169199500Y-139980558D01*
X169199501Y-139980568D01*
X169199501Y-139984864D01*
X169199996Y-139989132D01*
X169199997Y-139989143D01*
X169202414Y-140009992D01*
X169247793Y-140112764D01*
X169247794Y-140112765D01*
X169327235Y-140192206D01*
X169430009Y-140237585D01*
X169455135Y-140240500D01*
X171244864Y-140240499D01*
X171267233Y-140237904D01*
X171269992Y-140237585D01*
X171352121Y-140201321D01*
X171372765Y-140192206D01*
X171452206Y-140112765D01*
X171497585Y-140009991D01*
X171500500Y-139984865D01*
X171500499Y-138195136D01*
X171497585Y-138170009D01*
X171497585Y-138170007D01*
X171452206Y-138067235D01*
X171372766Y-137987795D01*
X171372765Y-137987794D01*
X171269991Y-137942415D01*
X171269990Y-137942414D01*
X171269988Y-137942414D01*
X171249132Y-137939995D01*
X171249131Y-137939994D01*
X171244865Y-137939500D01*
X171240568Y-137939500D01*
X169459441Y-137939500D01*
X169459423Y-137939500D01*
X169455136Y-137939501D01*
X169450862Y-137939996D01*
X169450856Y-137939997D01*
X169430007Y-137942414D01*
X169327235Y-137987793D01*
X169247795Y-138067233D01*
X169202414Y-138170011D01*
X169199996Y-138190856D01*
X169199500Y-138195135D01*
X169199500Y-138199430D01*
X169199500Y-138199431D01*
X169199500Y-138701364D01*
X169179538Y-138775864D01*
X169125000Y-138830402D01*
X169050500Y-138850364D01*
X168976000Y-138830402D01*
X168921462Y-138775864D01*
X168907188Y-138742139D01*
X168887405Y-138672609D01*
X168792366Y-138481745D01*
X168663872Y-138311593D01*
X168506300Y-138167946D01*
X168325024Y-138055704D01*
X168325019Y-138055702D01*
X168126198Y-137978679D01*
X168126195Y-137978678D01*
X168126194Y-137978678D01*
X167916610Y-137939500D01*
X167703390Y-137939500D01*
X167493805Y-137978678D01*
X167493802Y-137978678D01*
X167493802Y-137978679D01*
X167470271Y-137987795D01*
X167294975Y-138055704D01*
X167113699Y-138167946D01*
X166956127Y-138311593D01*
X166827633Y-138481745D01*
X166732595Y-138672608D01*
X166683312Y-138845821D01*
X166643724Y-138912014D01*
X166576343Y-138949545D01*
X166499224Y-138948357D01*
X166433031Y-138908769D01*
X166396688Y-138845821D01*
X166376783Y-138775864D01*
X166347405Y-138672611D01*
X166252366Y-138481745D01*
X166123872Y-138311593D01*
X165966302Y-138167948D01*
X165966300Y-138167946D01*
X165785024Y-138055704D01*
X165785019Y-138055702D01*
X165586198Y-137978679D01*
X165586195Y-137978678D01*
X165586194Y-137978678D01*
X165376610Y-137939500D01*
X165163390Y-137939500D01*
X164953805Y-137978678D01*
X164953802Y-137978678D01*
X164953802Y-137978679D01*
X164930271Y-137987795D01*
X164754975Y-138055704D01*
X164573699Y-138167946D01*
X164416127Y-138311593D01*
X164287633Y-138481745D01*
X164192595Y-138672608D01*
X164134243Y-138877692D01*
X164114570Y-139090000D01*
X161345429Y-139090000D01*
X161325756Y-138877690D01*
X161267405Y-138672611D01*
X161172366Y-138481745D01*
X161043872Y-138311593D01*
X160886302Y-138167948D01*
X160886300Y-138167946D01*
X160705024Y-138055704D01*
X160705019Y-138055702D01*
X160506198Y-137978679D01*
X160506195Y-137978678D01*
X160506194Y-137978678D01*
X160296610Y-137939500D01*
X160083390Y-137939500D01*
X159873805Y-137978678D01*
X159873802Y-137978678D01*
X159873802Y-137978679D01*
X159850271Y-137987795D01*
X159674975Y-138055704D01*
X159493699Y-138167946D01*
X159336127Y-138311593D01*
X159207633Y-138481745D01*
X159112595Y-138672608D01*
X159063312Y-138845821D01*
X159023724Y-138912014D01*
X158956343Y-138949545D01*
X158879224Y-138948357D01*
X158813031Y-138908769D01*
X158776688Y-138845821D01*
X158756783Y-138775864D01*
X158727405Y-138672611D01*
X158632366Y-138481745D01*
X158503872Y-138311593D01*
X158346302Y-138167948D01*
X158346300Y-138167946D01*
X158165024Y-138055704D01*
X158165019Y-138055702D01*
X157966198Y-137978679D01*
X157966195Y-137978678D01*
X157966194Y-137978678D01*
X157756610Y-137939500D01*
X157543390Y-137939500D01*
X157333805Y-137978678D01*
X157333802Y-137978678D01*
X157333802Y-137978679D01*
X157310271Y-137987795D01*
X157134975Y-138055704D01*
X156953699Y-138167946D01*
X156796127Y-138311593D01*
X156667633Y-138481745D01*
X156572595Y-138672608D01*
X156514243Y-138877692D01*
X156494570Y-139090000D01*
X120000500Y-139090000D01*
X120000500Y-136700000D01*
X167694355Y-136700000D01*
X167714860Y-136868872D01*
X167775182Y-137027930D01*
X167871817Y-137167929D01*
X167999148Y-137280734D01*
X168149775Y-137359790D01*
X168149778Y-137359790D01*
X168149779Y-137359791D01*
X168314942Y-137400500D01*
X168314944Y-137400500D01*
X168485058Y-137400500D01*
X168597306Y-137372833D01*
X168650225Y-137359790D01*
X168800852Y-137280734D01*
X168928183Y-137167929D01*
X169024818Y-137027930D01*
X169075710Y-136893734D01*
X169120793Y-136831155D01*
X169179371Y-136801900D01*
X169185051Y-136800500D01*
X169185056Y-136800500D01*
X169350225Y-136759790D01*
X169500852Y-136680734D01*
X169628183Y-136567929D01*
X169724818Y-136427930D01*
X169785140Y-136268872D01*
X169805645Y-136100000D01*
X169785140Y-135931128D01*
X169724818Y-135772070D01*
X169628183Y-135632071D01*
X169500852Y-135519266D01*
X169350225Y-135440210D01*
X169350222Y-135440209D01*
X169350220Y-135440208D01*
X169179370Y-135398098D01*
X169111812Y-135360887D01*
X169075710Y-135306264D01*
X169024818Y-135172070D01*
X168928183Y-135032071D01*
X168800852Y-134919266D01*
X168650225Y-134840210D01*
X168650222Y-134840209D01*
X168650220Y-134840208D01*
X168485058Y-134799500D01*
X168485056Y-134799500D01*
X168314944Y-134799500D01*
X168314942Y-134799500D01*
X168149779Y-134840208D01*
X168149775Y-134840209D01*
X168149775Y-134840210D01*
X167999148Y-134919266D01*
X167999146Y-134919267D01*
X167999145Y-134919268D01*
X167871816Y-135032071D01*
X167775183Y-135172067D01*
X167775181Y-135172070D01*
X167775182Y-135172070D01*
X167714860Y-135331128D01*
X167694355Y-135500000D01*
X167714860Y-135668872D01*
X167775182Y-135827930D01*
X167775183Y-135827932D01*
X167871816Y-135967929D01*
X167895005Y-135988472D01*
X167937532Y-136052817D01*
X167942189Y-136129804D01*
X167907728Y-136198805D01*
X167895005Y-136211528D01*
X167871816Y-136232070D01*
X167775183Y-136372067D01*
X167775181Y-136372070D01*
X167775182Y-136372070D01*
X167714860Y-136531128D01*
X167694355Y-136700000D01*
X120000500Y-136700000D01*
X120000499Y-132400000D01*
X166244749Y-132400000D01*
X166263669Y-132543708D01*
X166319139Y-132677625D01*
X166407378Y-132792621D01*
X166495618Y-132860329D01*
X166522375Y-132880861D01*
X166656291Y-132936329D01*
X166656291Y-132936330D01*
X166799999Y-132955250D01*
X166799999Y-132955249D01*
X166800000Y-132955250D01*
X166943709Y-132936330D01*
X167077625Y-132880861D01*
X167192621Y-132792621D01*
X167280861Y-132677625D01*
X167312342Y-132601623D01*
X167359294Y-132540433D01*
X167430551Y-132510917D01*
X167507019Y-132520984D01*
X167568209Y-132567936D01*
X167587658Y-132601623D01*
X167619138Y-132677624D01*
X167707378Y-132792621D01*
X167795618Y-132860329D01*
X167822375Y-132880861D01*
X167956290Y-132936329D01*
X167956291Y-132936330D01*
X168099999Y-132955250D01*
X168099999Y-132955249D01*
X168100000Y-132955250D01*
X168243709Y-132936330D01*
X168377625Y-132880861D01*
X168492621Y-132792621D01*
X168580861Y-132677625D01*
X168612342Y-132601623D01*
X168659294Y-132540433D01*
X168730551Y-132510917D01*
X168807019Y-132520984D01*
X168868209Y-132567936D01*
X168887658Y-132601623D01*
X168919138Y-132677624D01*
X169007378Y-132792621D01*
X169095618Y-132860329D01*
X169122375Y-132880861D01*
X169256291Y-132936329D01*
X169256291Y-132936330D01*
X169399999Y-132955250D01*
X169399999Y-132955249D01*
X169400000Y-132955250D01*
X169543709Y-132936330D01*
X169677625Y-132880861D01*
X169792621Y-132792621D01*
X169880861Y-132677625D01*
X169936330Y-132543709D01*
X169955250Y-132400000D01*
X169936330Y-132256291D01*
X169880861Y-132122375D01*
X169860329Y-132095618D01*
X169792621Y-132007378D01*
X169677625Y-131919139D01*
X169543708Y-131863669D01*
X169400000Y-131844749D01*
X169256291Y-131863669D01*
X169122374Y-131919139D01*
X169007378Y-132007378D01*
X168919139Y-132122374D01*
X168887658Y-132198377D01*
X168840705Y-132259567D01*
X168769448Y-132289082D01*
X168692980Y-132279015D01*
X168631790Y-132232062D01*
X168612342Y-132198377D01*
X168599414Y-132167167D01*
X168580861Y-132122375D01*
X168560329Y-132095618D01*
X168492621Y-132007378D01*
X168377625Y-131919139D01*
X168243708Y-131863669D01*
X168100000Y-131844749D01*
X167956291Y-131863669D01*
X167822374Y-131919139D01*
X167707378Y-132007378D01*
X167619139Y-132122374D01*
X167587658Y-132198377D01*
X167540705Y-132259567D01*
X167469448Y-132289082D01*
X167392980Y-132279015D01*
X167331790Y-132232062D01*
X167312342Y-132198377D01*
X167299414Y-132167167D01*
X167280861Y-132122375D01*
X167260329Y-132095618D01*
X167192621Y-132007378D01*
X167077625Y-131919139D01*
X166943708Y-131863669D01*
X166800000Y-131844749D01*
X166656291Y-131863669D01*
X166522374Y-131919139D01*
X166407378Y-132007378D01*
X166319139Y-132122374D01*
X166263669Y-132256291D01*
X166244749Y-132400000D01*
X120000499Y-132400000D01*
X120000499Y-130400000D01*
X138894355Y-130400000D01*
X138914860Y-130568871D01*
X138975183Y-130727932D01*
X139071816Y-130867928D01*
X139071817Y-130867929D01*
X139199148Y-130980734D01*
X139349775Y-131059790D01*
X139349778Y-131059790D01*
X139349779Y-131059791D01*
X139514942Y-131100500D01*
X139514944Y-131100500D01*
X139685058Y-131100500D01*
X139813381Y-131068871D01*
X139850225Y-131059790D01*
X140000852Y-130980734D01*
X140128183Y-130867929D01*
X140128183Y-130867928D01*
X140141725Y-130855932D01*
X140142210Y-130856479D01*
X140186123Y-130819127D01*
X140261988Y-130805223D01*
X140334640Y-130831114D01*
X140368644Y-130865118D01*
X140371816Y-130867928D01*
X140371817Y-130867929D01*
X140499148Y-130980734D01*
X140649775Y-131059790D01*
X140649778Y-131059790D01*
X140649779Y-131059791D01*
X140814942Y-131100500D01*
X140814944Y-131100500D01*
X140985058Y-131100500D01*
X140987087Y-131100000D01*
X184244355Y-131100000D01*
X184264860Y-131268872D01*
X184283465Y-131317929D01*
X184325183Y-131427932D01*
X184421816Y-131567928D01*
X184421817Y-131567929D01*
X184549148Y-131680734D01*
X184699775Y-131759790D01*
X184699778Y-131759790D01*
X184699779Y-131759791D01*
X184864942Y-131800500D01*
X184864944Y-131800500D01*
X185035058Y-131800500D01*
X185147306Y-131772833D01*
X185200225Y-131759790D01*
X185350852Y-131680734D01*
X185478183Y-131567929D01*
X185574818Y-131427930D01*
X185635140Y-131268872D01*
X185655645Y-131100000D01*
X185635140Y-130931128D01*
X185604373Y-130850000D01*
X186094355Y-130850000D01*
X186114860Y-131018872D01*
X186145817Y-131100500D01*
X186175183Y-131177932D01*
X186271816Y-131317928D01*
X186271817Y-131317929D01*
X186399148Y-131430734D01*
X186549775Y-131509790D01*
X186549778Y-131509790D01*
X186549779Y-131509791D01*
X186714942Y-131550500D01*
X186714944Y-131550500D01*
X186885058Y-131550500D01*
X186997306Y-131522833D01*
X187050225Y-131509790D01*
X187200852Y-131430734D01*
X187222975Y-131411134D01*
X187291975Y-131376673D01*
X187368962Y-131381330D01*
X187420583Y-131411132D01*
X187499148Y-131480734D01*
X187649775Y-131559790D01*
X187649778Y-131559790D01*
X187649779Y-131559791D01*
X187814942Y-131600500D01*
X187814944Y-131600500D01*
X187985058Y-131600500D01*
X188117207Y-131567928D01*
X188150225Y-131559790D01*
X188300852Y-131480734D01*
X188428183Y-131367929D01*
X188524818Y-131227930D01*
X188585140Y-131068872D01*
X188605645Y-130900000D01*
X188585140Y-130731128D01*
X188524818Y-130572070D01*
X188428183Y-130432071D01*
X188300852Y-130319266D01*
X188150225Y-130240210D01*
X188150222Y-130240209D01*
X188150220Y-130240208D01*
X187985058Y-130199500D01*
X187985056Y-130199500D01*
X187814944Y-130199500D01*
X187814942Y-130199500D01*
X187649779Y-130240208D01*
X187649775Y-130240209D01*
X187649775Y-130240210D01*
X187499148Y-130319266D01*
X187499146Y-130319267D01*
X187499145Y-130319268D01*
X187477022Y-130338867D01*
X187408020Y-130373326D01*
X187331033Y-130368668D01*
X187279414Y-130338866D01*
X187200852Y-130269266D01*
X187050225Y-130190210D01*
X187050222Y-130190209D01*
X187050220Y-130190208D01*
X186885058Y-130149500D01*
X186885056Y-130149500D01*
X186714944Y-130149500D01*
X186714942Y-130149500D01*
X186549779Y-130190208D01*
X186549775Y-130190209D01*
X186549775Y-130190210D01*
X186399148Y-130269266D01*
X186399146Y-130269267D01*
X186399145Y-130269268D01*
X186271816Y-130382071D01*
X186175183Y-130522067D01*
X186114860Y-130681128D01*
X186103818Y-130772070D01*
X186094355Y-130850000D01*
X185604373Y-130850000D01*
X185574818Y-130772070D01*
X185478183Y-130632071D01*
X185350852Y-130519266D01*
X185200225Y-130440210D01*
X185200222Y-130440209D01*
X185200220Y-130440208D01*
X185035058Y-130399500D01*
X185035056Y-130399500D01*
X184864944Y-130399500D01*
X184864942Y-130399500D01*
X184699779Y-130440208D01*
X184699775Y-130440209D01*
X184699775Y-130440210D01*
X184549148Y-130519266D01*
X184549146Y-130519267D01*
X184549145Y-130519268D01*
X184421816Y-130632071D01*
X184325183Y-130772067D01*
X184325181Y-130772070D01*
X184325182Y-130772070D01*
X184264860Y-130931128D01*
X184244355Y-131100000D01*
X140987087Y-131100000D01*
X141113381Y-131068871D01*
X141150225Y-131059790D01*
X141300852Y-130980734D01*
X141428183Y-130867929D01*
X141524818Y-130727930D01*
X141585140Y-130568872D01*
X141594717Y-130489999D01*
X166244749Y-130489999D01*
X166263669Y-130633708D01*
X166319139Y-130767625D01*
X166407378Y-130882621D01*
X166470594Y-130931128D01*
X166522375Y-130970861D01*
X166656291Y-131026330D01*
X166800000Y-131045250D01*
X166943709Y-131026330D01*
X167077625Y-130970861D01*
X167192621Y-130882621D01*
X167280861Y-130767625D01*
X167312342Y-130691623D01*
X167359294Y-130630433D01*
X167430551Y-130600917D01*
X167507019Y-130610984D01*
X167568209Y-130657936D01*
X167587658Y-130691623D01*
X167619138Y-130767624D01*
X167707378Y-130882621D01*
X167770594Y-130931128D01*
X167822375Y-130970861D01*
X167938283Y-131018871D01*
X167956291Y-131026330D01*
X168099999Y-131045250D01*
X168099999Y-131045249D01*
X168100000Y-131045250D01*
X168243709Y-131026330D01*
X168377625Y-130970861D01*
X168492621Y-130882621D01*
X168580861Y-130767625D01*
X168612342Y-130691623D01*
X168659294Y-130630433D01*
X168730551Y-130600917D01*
X168807019Y-130610984D01*
X168868209Y-130657936D01*
X168887658Y-130691623D01*
X168919138Y-130767624D01*
X169007378Y-130882621D01*
X169070594Y-130931128D01*
X169122375Y-130970861D01*
X169238283Y-131018871D01*
X169256291Y-131026330D01*
X169399999Y-131045250D01*
X169399999Y-131045249D01*
X169400000Y-131045250D01*
X169543709Y-131026330D01*
X169677625Y-130970861D01*
X169792621Y-130882621D01*
X169880861Y-130767625D01*
X169936330Y-130633709D01*
X169955250Y-130490000D01*
X169936330Y-130346291D01*
X169880861Y-130212375D01*
X169832615Y-130149500D01*
X169792621Y-130097378D01*
X169677625Y-130009139D01*
X169543708Y-129953669D01*
X169400000Y-129934749D01*
X169256291Y-129953669D01*
X169122374Y-130009139D01*
X169007378Y-130097378D01*
X168919139Y-130212374D01*
X168887658Y-130288377D01*
X168840705Y-130349567D01*
X168769448Y-130379082D01*
X168692980Y-130369015D01*
X168631790Y-130322062D01*
X168612342Y-130288377D01*
X168592390Y-130240210D01*
X168580861Y-130212375D01*
X168532615Y-130149500D01*
X168492621Y-130097378D01*
X168377625Y-130009139D01*
X168243708Y-129953669D01*
X168100000Y-129934749D01*
X167956291Y-129953669D01*
X167822374Y-130009139D01*
X167707378Y-130097378D01*
X167619139Y-130212374D01*
X167587658Y-130288377D01*
X167540705Y-130349567D01*
X167469448Y-130379082D01*
X167392980Y-130369015D01*
X167331790Y-130322062D01*
X167312342Y-130288377D01*
X167292390Y-130240210D01*
X167280861Y-130212375D01*
X167232615Y-130149500D01*
X167192621Y-130097378D01*
X167077625Y-130009139D01*
X166943708Y-129953669D01*
X166800000Y-129934749D01*
X166656291Y-129953669D01*
X166522374Y-130009139D01*
X166407378Y-130097378D01*
X166319139Y-130212374D01*
X166263669Y-130346291D01*
X166244749Y-130489999D01*
X141594717Y-130489999D01*
X141605645Y-130400000D01*
X141585140Y-130231128D01*
X141524818Y-130072070D01*
X141428183Y-129932071D01*
X141300852Y-129819266D01*
X141150225Y-129740210D01*
X141150222Y-129740209D01*
X141150220Y-129740208D01*
X140985058Y-129699500D01*
X140985056Y-129699500D01*
X140814944Y-129699500D01*
X140814942Y-129699500D01*
X140649779Y-129740208D01*
X140649775Y-129740209D01*
X140649775Y-129740210D01*
X140499148Y-129819266D01*
X140499146Y-129819267D01*
X140499145Y-129819268D01*
X140358275Y-129944068D01*
X140357789Y-129943519D01*
X140313872Y-129980875D01*
X140238007Y-129994776D01*
X140165356Y-129968882D01*
X140131355Y-129934881D01*
X140000854Y-129819268D01*
X140000852Y-129819266D01*
X139850225Y-129740210D01*
X139850222Y-129740209D01*
X139850220Y-129740208D01*
X139685058Y-129699500D01*
X139685056Y-129699500D01*
X139514944Y-129699500D01*
X139514942Y-129699500D01*
X139349779Y-129740208D01*
X139349775Y-129740209D01*
X139349775Y-129740210D01*
X139199148Y-129819266D01*
X139199146Y-129819267D01*
X139199145Y-129819268D01*
X139071816Y-129932071D01*
X138975183Y-130072067D01*
X138914860Y-130231128D01*
X138894355Y-130400000D01*
X120000499Y-130400000D01*
X120000499Y-127000000D01*
X132894355Y-127000000D01*
X132914860Y-127168872D01*
X132975182Y-127327930D01*
X132975183Y-127327932D01*
X133071816Y-127467928D01*
X133071817Y-127467929D01*
X133199148Y-127580734D01*
X133349775Y-127659790D01*
X133349778Y-127659790D01*
X133349779Y-127659791D01*
X133514942Y-127700500D01*
X133514944Y-127700500D01*
X133685058Y-127700500D01*
X133797306Y-127672833D01*
X133850225Y-127659790D01*
X134000852Y-127580734D01*
X134128183Y-127467929D01*
X134175071Y-127400000D01*
X136094355Y-127400000D01*
X136114860Y-127568872D01*
X136175182Y-127727930D01*
X136271817Y-127867929D01*
X136399148Y-127980734D01*
X136549775Y-128059790D01*
X136549778Y-128059790D01*
X136549779Y-128059791D01*
X136714942Y-128100500D01*
X136714944Y-128100500D01*
X136885058Y-128100500D01*
X136997306Y-128072833D01*
X137050225Y-128059790D01*
X137200852Y-127980734D01*
X137328183Y-127867929D01*
X137424818Y-127727930D01*
X137485140Y-127568872D01*
X137505645Y-127400000D01*
X143694355Y-127400000D01*
X143714860Y-127568872D01*
X143775182Y-127727930D01*
X143871817Y-127867929D01*
X143999148Y-127980734D01*
X144149775Y-128059790D01*
X144149778Y-128059790D01*
X144149779Y-128059791D01*
X144314942Y-128100500D01*
X144314944Y-128100500D01*
X144485058Y-128100500D01*
X144597306Y-128072833D01*
X144650225Y-128059790D01*
X144800852Y-127980734D01*
X144928183Y-127867929D01*
X145024818Y-127727930D01*
X145085140Y-127568872D01*
X145105645Y-127400000D01*
X146294355Y-127400000D01*
X146314860Y-127568872D01*
X146375182Y-127727930D01*
X146471817Y-127867929D01*
X146599148Y-127980734D01*
X146749775Y-128059790D01*
X146749778Y-128059790D01*
X146749779Y-128059791D01*
X146914942Y-128100500D01*
X146914944Y-128100500D01*
X147085058Y-128100500D01*
X147197306Y-128072833D01*
X147250225Y-128059790D01*
X147400852Y-127980734D01*
X147528183Y-127867929D01*
X147624818Y-127727930D01*
X147685140Y-127568872D01*
X147705645Y-127400000D01*
X147685140Y-127231128D01*
X147624818Y-127072070D01*
X147528183Y-126932071D01*
X147400852Y-126819266D01*
X147250225Y-126740210D01*
X147250222Y-126740209D01*
X147250220Y-126740208D01*
X147085058Y-126699500D01*
X147085056Y-126699500D01*
X146914944Y-126699500D01*
X146914942Y-126699500D01*
X146749779Y-126740208D01*
X146749775Y-126740209D01*
X146749775Y-126740210D01*
X146599148Y-126819266D01*
X146599146Y-126819267D01*
X146599145Y-126819268D01*
X146471816Y-126932071D01*
X146375183Y-127072067D01*
X146375181Y-127072070D01*
X146375182Y-127072070D01*
X146314860Y-127231128D01*
X146294355Y-127400000D01*
X145105645Y-127400000D01*
X145085140Y-127231128D01*
X145024818Y-127072070D01*
X144928183Y-126932071D01*
X144800852Y-126819266D01*
X144650225Y-126740210D01*
X144650222Y-126740209D01*
X144650220Y-126740208D01*
X144485058Y-126699500D01*
X144485056Y-126699500D01*
X144314944Y-126699500D01*
X144314942Y-126699500D01*
X144149779Y-126740208D01*
X144149775Y-126740209D01*
X144149775Y-126740210D01*
X143999148Y-126819266D01*
X143999146Y-126819267D01*
X143999145Y-126819268D01*
X143871816Y-126932071D01*
X143775183Y-127072067D01*
X143775181Y-127072070D01*
X143775182Y-127072070D01*
X143714860Y-127231128D01*
X143694355Y-127400000D01*
X137505645Y-127400000D01*
X137485140Y-127231128D01*
X137424818Y-127072070D01*
X137328183Y-126932071D01*
X137200852Y-126819266D01*
X137050225Y-126740210D01*
X137050222Y-126740209D01*
X137050220Y-126740208D01*
X136885058Y-126699500D01*
X136885056Y-126699500D01*
X136714944Y-126699500D01*
X136714942Y-126699500D01*
X136549779Y-126740208D01*
X136549775Y-126740209D01*
X136549775Y-126740210D01*
X136399148Y-126819266D01*
X136399146Y-126819267D01*
X136399145Y-126819268D01*
X136271816Y-126932071D01*
X136175183Y-127072067D01*
X136175181Y-127072070D01*
X136175182Y-127072070D01*
X136114860Y-127231128D01*
X136094355Y-127400000D01*
X134175071Y-127400000D01*
X134224818Y-127327930D01*
X134285140Y-127168872D01*
X134305645Y-127000000D01*
X134285140Y-126831128D01*
X134224818Y-126672070D01*
X134128183Y-126532071D01*
X134000852Y-126419266D01*
X133850225Y-126340210D01*
X133850222Y-126340209D01*
X133850220Y-126340208D01*
X133685058Y-126299500D01*
X133685056Y-126299500D01*
X133514944Y-126299500D01*
X133514942Y-126299500D01*
X133349779Y-126340208D01*
X133349775Y-126340209D01*
X133349775Y-126340210D01*
X133199148Y-126419266D01*
X133199146Y-126419267D01*
X133199145Y-126419268D01*
X133071816Y-126532071D01*
X132975183Y-126672067D01*
X132975181Y-126672070D01*
X132975182Y-126672070D01*
X132914860Y-126831128D01*
X132894355Y-127000000D01*
X120000499Y-127000000D01*
X120000499Y-125600000D01*
X140094355Y-125600000D01*
X140114860Y-125768872D01*
X140126855Y-125800500D01*
X140175183Y-125927932D01*
X140271816Y-126067928D01*
X140271817Y-126067929D01*
X140399148Y-126180734D01*
X140549775Y-126259790D01*
X140549778Y-126259790D01*
X140549779Y-126259791D01*
X140714942Y-126300500D01*
X140714944Y-126300500D01*
X140885058Y-126300500D01*
X141017207Y-126267928D01*
X141050225Y-126259790D01*
X141200852Y-126180734D01*
X141328183Y-126067929D01*
X141328187Y-126067922D01*
X141334454Y-126062371D01*
X141403456Y-126027910D01*
X141480443Y-126032567D01*
X141544788Y-126075093D01*
X141572577Y-126121061D01*
X141575182Y-126127930D01*
X141666199Y-126259791D01*
X141671817Y-126267929D01*
X141799148Y-126380734D01*
X141949775Y-126459790D01*
X141949778Y-126459790D01*
X141949779Y-126459791D01*
X142114942Y-126500500D01*
X142114944Y-126500500D01*
X142285058Y-126500500D01*
X142437493Y-126462928D01*
X142450225Y-126459790D01*
X142600852Y-126380734D01*
X142728183Y-126267929D01*
X142824818Y-126127930D01*
X142885140Y-125968872D01*
X142905645Y-125800000D01*
X145094355Y-125800000D01*
X145114860Y-125968871D01*
X145175183Y-126127932D01*
X145271816Y-126267928D01*
X145271817Y-126267929D01*
X145399148Y-126380734D01*
X145549775Y-126459790D01*
X145549778Y-126459790D01*
X145549779Y-126459791D01*
X145714942Y-126500500D01*
X145714944Y-126500500D01*
X145885058Y-126500500D01*
X146037493Y-126462928D01*
X146050225Y-126459790D01*
X146200852Y-126380734D01*
X146328183Y-126267929D01*
X146424818Y-126127930D01*
X146475231Y-125995000D01*
X158894355Y-125995000D01*
X158914860Y-126163872D01*
X158966676Y-126300500D01*
X158975183Y-126322932D01*
X159065675Y-126454031D01*
X159071817Y-126462929D01*
X159199148Y-126575734D01*
X159349775Y-126654790D01*
X159349778Y-126654790D01*
X159349779Y-126654791D01*
X159514942Y-126695500D01*
X159514944Y-126695500D01*
X159685058Y-126695500D01*
X159797306Y-126667833D01*
X159850225Y-126654790D01*
X160000852Y-126575734D01*
X160128183Y-126462929D01*
X160224818Y-126322930D01*
X160285140Y-126163872D01*
X160305645Y-125995000D01*
X160285140Y-125826128D01*
X160224818Y-125667070D01*
X160128183Y-125527071D01*
X160000852Y-125414266D01*
X159850225Y-125335210D01*
X159850222Y-125335209D01*
X159850220Y-125335208D01*
X159685058Y-125294500D01*
X159685056Y-125294500D01*
X159514944Y-125294500D01*
X159514942Y-125294500D01*
X159349779Y-125335208D01*
X159349775Y-125335209D01*
X159349775Y-125335210D01*
X159199148Y-125414266D01*
X159199146Y-125414267D01*
X159199145Y-125414268D01*
X159071816Y-125527071D01*
X158975183Y-125667067D01*
X158914860Y-125826128D01*
X158897528Y-125968872D01*
X158894355Y-125995000D01*
X146475231Y-125995000D01*
X146485140Y-125968872D01*
X146505645Y-125800000D01*
X146485140Y-125631128D01*
X146424818Y-125472070D01*
X146328183Y-125332071D01*
X146200852Y-125219266D01*
X146050225Y-125140210D01*
X146050222Y-125140209D01*
X146050220Y-125140208D01*
X145887087Y-125100000D01*
X148394355Y-125100000D01*
X148414860Y-125268872D01*
X148454005Y-125372089D01*
X148475183Y-125427932D01*
X148571816Y-125567928D01*
X148571817Y-125567929D01*
X148699148Y-125680734D01*
X148849775Y-125759790D01*
X148849778Y-125759790D01*
X148849779Y-125759791D01*
X149014942Y-125800500D01*
X149014944Y-125800500D01*
X149185058Y-125800500D01*
X149313381Y-125768871D01*
X149350225Y-125759790D01*
X149500852Y-125680734D01*
X149628183Y-125567929D01*
X149724818Y-125427930D01*
X149785140Y-125268872D01*
X149805645Y-125100000D01*
X149785140Y-124931128D01*
X149724818Y-124772070D01*
X149628183Y-124632071D01*
X149500852Y-124519266D01*
X149350225Y-124440210D01*
X149350222Y-124440209D01*
X149350220Y-124440208D01*
X149185058Y-124399500D01*
X149185056Y-124399500D01*
X149014944Y-124399500D01*
X149014942Y-124399500D01*
X148849779Y-124440208D01*
X148849775Y-124440209D01*
X148849775Y-124440210D01*
X148699148Y-124519266D01*
X148699146Y-124519267D01*
X148699145Y-124519268D01*
X148571816Y-124632071D01*
X148475183Y-124772067D01*
X148475181Y-124772070D01*
X148475182Y-124772070D01*
X148414860Y-124931128D01*
X148394355Y-125100000D01*
X145887087Y-125100000D01*
X145885058Y-125099500D01*
X145885056Y-125099500D01*
X145714944Y-125099500D01*
X145714942Y-125099500D01*
X145549779Y-125140208D01*
X145549775Y-125140209D01*
X145549775Y-125140210D01*
X145399148Y-125219266D01*
X145399146Y-125219267D01*
X145399145Y-125219268D01*
X145271816Y-125332071D01*
X145175183Y-125472067D01*
X145114860Y-125631128D01*
X145094355Y-125800000D01*
X142905645Y-125800000D01*
X142885140Y-125631128D01*
X142824818Y-125472070D01*
X142728183Y-125332071D01*
X142600852Y-125219266D01*
X142450225Y-125140210D01*
X142450222Y-125140209D01*
X142450220Y-125140208D01*
X142285058Y-125099500D01*
X142285056Y-125099500D01*
X142114944Y-125099500D01*
X142114942Y-125099500D01*
X141949779Y-125140208D01*
X141949775Y-125140209D01*
X141949775Y-125140210D01*
X141799148Y-125219266D01*
X141799146Y-125219267D01*
X141799145Y-125219268D01*
X141665544Y-125337628D01*
X141596542Y-125372089D01*
X141519555Y-125367432D01*
X141455211Y-125324905D01*
X141427421Y-125278934D01*
X141424818Y-125272070D01*
X141328183Y-125132071D01*
X141200852Y-125019266D01*
X141050225Y-124940210D01*
X141050222Y-124940209D01*
X141050220Y-124940208D01*
X140885058Y-124899500D01*
X140885056Y-124899500D01*
X140714944Y-124899500D01*
X140714942Y-124899500D01*
X140549779Y-124940208D01*
X140549775Y-124940209D01*
X140549775Y-124940210D01*
X140399148Y-125019266D01*
X140399146Y-125019267D01*
X140399145Y-125019268D01*
X140271816Y-125132071D01*
X140175183Y-125272067D01*
X140152427Y-125332071D01*
X140114860Y-125431128D01*
X140094355Y-125600000D01*
X120000499Y-125600000D01*
X120000499Y-124368390D01*
X121245824Y-124368390D01*
X121275097Y-124559474D01*
X121342235Y-124740752D01*
X121361754Y-124772067D01*
X121444491Y-124904807D01*
X121577677Y-125044919D01*
X121736342Y-125155353D01*
X121913988Y-125231587D01*
X122008665Y-125251043D01*
X122103343Y-125270500D01*
X122103344Y-125270500D01*
X123544432Y-125270500D01*
X123548206Y-125270500D01*
X123692321Y-125255845D01*
X123876768Y-125197974D01*
X124045791Y-125104159D01*
X124192468Y-124978240D01*
X124310796Y-124825373D01*
X124321338Y-124803879D01*
X124372070Y-124745786D01*
X124445052Y-124720840D01*
X124455111Y-124720500D01*
X125221910Y-124720500D01*
X125296410Y-124740462D01*
X125348358Y-124790684D01*
X125419491Y-124904807D01*
X125552677Y-125044919D01*
X125711342Y-125155353D01*
X125888988Y-125231587D01*
X125983666Y-125251043D01*
X126078343Y-125270500D01*
X126078344Y-125270500D01*
X127219432Y-125270500D01*
X127223206Y-125270500D01*
X127367321Y-125255845D01*
X127551768Y-125197974D01*
X127720791Y-125104159D01*
X127867468Y-124978240D01*
X127985796Y-124825373D01*
X128070930Y-124651816D01*
X128119385Y-124464674D01*
X128129176Y-124271610D01*
X128099903Y-124080526D01*
X128032764Y-123899247D01*
X127930509Y-123735193D01*
X127797323Y-123595081D01*
X127638658Y-123484647D01*
X127580737Y-123459791D01*
X127461010Y-123408412D01*
X127271657Y-123369500D01*
X127271656Y-123369500D01*
X126653500Y-123369500D01*
X126579000Y-123349538D01*
X126524462Y-123295000D01*
X126504500Y-123220500D01*
X126504500Y-122842170D01*
X126504500Y-122837073D01*
X126488957Y-122723991D01*
X126428230Y-122584182D01*
X126332034Y-122465942D01*
X126318924Y-122456688D01*
X126207504Y-122378038D01*
X126063878Y-122326994D01*
X125987840Y-122321792D01*
X125911804Y-122316592D01*
X125911803Y-122316592D01*
X125762563Y-122347604D01*
X125627224Y-122417731D01*
X125515823Y-122521772D01*
X125436626Y-122652008D01*
X125436625Y-122652010D01*
X125434445Y-122659791D01*
X125395499Y-122798787D01*
X125395500Y-123009243D01*
X125395500Y-123162927D01*
X125396193Y-123167972D01*
X125396194Y-123167980D01*
X125411042Y-123276009D01*
X125471769Y-123415817D01*
X125502426Y-123453499D01*
X125533957Y-123523887D01*
X125526070Y-123600611D01*
X125491607Y-123649625D01*
X125491806Y-123649779D01*
X125488461Y-123654100D01*
X125483903Y-123660583D01*
X125482531Y-123661760D01*
X125364205Y-123814624D01*
X125353662Y-123836119D01*
X125302930Y-123894214D01*
X125229948Y-123919160D01*
X125219889Y-123919500D01*
X124453090Y-123919500D01*
X124378590Y-123899538D01*
X124326642Y-123849316D01*
X124295903Y-123800000D01*
X124255509Y-123735193D01*
X124122323Y-123595081D01*
X123963658Y-123484647D01*
X123905737Y-123459791D01*
X123786010Y-123408412D01*
X123596657Y-123369500D01*
X123596656Y-123369500D01*
X123399500Y-123369500D01*
X123325000Y-123349538D01*
X123270462Y-123295000D01*
X123250500Y-123220500D01*
X123250500Y-121696030D01*
X137493271Y-121696030D01*
X137513958Y-121839909D01*
X137574343Y-121972133D01*
X137669534Y-122081990D01*
X137784882Y-122156120D01*
X137791818Y-122160577D01*
X137885201Y-122187997D01*
X137951057Y-122228138D01*
X137988021Y-122295831D01*
X137990704Y-122309755D01*
X138009988Y-122443879D01*
X138070373Y-122576103D01*
X138077376Y-122584185D01*
X138165564Y-122685960D01*
X138287848Y-122764547D01*
X138334338Y-122778198D01*
X138427318Y-122805500D01*
X138427320Y-122805500D01*
X138572680Y-122805500D01*
X138653946Y-122781637D01*
X138731050Y-122779802D01*
X138798744Y-122816765D01*
X138838887Y-122882623D01*
X138840723Y-122959729D01*
X138818548Y-123009243D01*
X138807672Y-123025000D01*
X138775182Y-123072070D01*
X138714860Y-123231128D01*
X138694355Y-123400000D01*
X138714860Y-123568872D01*
X138750088Y-123661762D01*
X138775183Y-123727932D01*
X138835025Y-123814627D01*
X138871817Y-123867929D01*
X138999148Y-123980734D01*
X139149775Y-124059790D01*
X139149778Y-124059790D01*
X139149779Y-124059791D01*
X139314942Y-124100500D01*
X139314944Y-124100500D01*
X139485058Y-124100500D01*
X139615183Y-124068427D01*
X139650225Y-124059790D01*
X139800852Y-123980734D01*
X139891982Y-123900000D01*
X143494355Y-123900000D01*
X143514860Y-124068872D01*
X143559012Y-124185292D01*
X143575183Y-124227932D01*
X143671816Y-124367928D01*
X143671817Y-124367929D01*
X143799148Y-124480734D01*
X143949775Y-124559790D01*
X143949778Y-124559790D01*
X143949779Y-124559791D01*
X144114942Y-124600500D01*
X144114944Y-124600500D01*
X144285058Y-124600500D01*
X144397306Y-124572833D01*
X144450225Y-124559790D01*
X144600852Y-124480734D01*
X144728183Y-124367929D01*
X144824818Y-124227930D01*
X144885140Y-124068872D01*
X144905645Y-123900000D01*
X144885140Y-123731128D01*
X144824818Y-123572070D01*
X144728183Y-123432071D01*
X144600852Y-123319266D01*
X144450225Y-123240210D01*
X144450222Y-123240209D01*
X144450220Y-123240208D01*
X144285058Y-123199500D01*
X144285056Y-123199500D01*
X144114944Y-123199500D01*
X144114942Y-123199500D01*
X143949779Y-123240208D01*
X143949775Y-123240209D01*
X143949775Y-123240210D01*
X143799148Y-123319266D01*
X143799146Y-123319267D01*
X143799145Y-123319268D01*
X143671816Y-123432071D01*
X143575183Y-123572067D01*
X143541614Y-123660583D01*
X143514860Y-123731128D01*
X143494355Y-123900000D01*
X139891982Y-123900000D01*
X139928183Y-123867929D01*
X140024818Y-123727930D01*
X140085140Y-123568872D01*
X140105645Y-123400000D01*
X140085140Y-123231128D01*
X140024818Y-123072070D01*
X139928183Y-122932071D01*
X139800852Y-122819266D01*
X139764144Y-122800000D01*
X148394355Y-122800000D01*
X148414860Y-122968872D01*
X148456830Y-123079538D01*
X148475183Y-123127932D01*
X148571816Y-123267928D01*
X148571817Y-123267929D01*
X148699148Y-123380734D01*
X148849775Y-123459790D01*
X148849778Y-123459790D01*
X148849779Y-123459791D01*
X149014942Y-123500500D01*
X149014944Y-123500500D01*
X149185058Y-123500500D01*
X149300415Y-123472067D01*
X149350225Y-123459790D01*
X149500852Y-123380734D01*
X149628183Y-123267929D01*
X149724818Y-123127930D01*
X149785140Y-122968872D01*
X149805645Y-122800000D01*
X156394355Y-122800000D01*
X156414860Y-122968872D01*
X156456830Y-123079538D01*
X156475183Y-123127932D01*
X156571816Y-123267928D01*
X156571817Y-123267929D01*
X156699148Y-123380734D01*
X156849775Y-123459790D01*
X156849778Y-123459790D01*
X156849779Y-123459791D01*
X157014942Y-123500500D01*
X157162535Y-123500500D01*
X157237035Y-123520462D01*
X157291573Y-123575000D01*
X157311535Y-123649500D01*
X157310449Y-123667450D01*
X157294355Y-123800000D01*
X157314860Y-123968872D01*
X157369078Y-124111835D01*
X157375183Y-124127932D01*
X157414776Y-124185292D01*
X157471817Y-124267929D01*
X157599148Y-124380734D01*
X157749775Y-124459790D01*
X157749778Y-124459790D01*
X157749779Y-124459791D01*
X157914942Y-124500500D01*
X157914944Y-124500500D01*
X158085058Y-124500500D01*
X158197306Y-124472833D01*
X158250225Y-124459790D01*
X158400852Y-124380734D01*
X158528183Y-124267929D01*
X158624818Y-124127930D01*
X158685140Y-123968872D01*
X158705645Y-123800000D01*
X158685140Y-123631128D01*
X158673524Y-123600498D01*
X173994300Y-123600498D01*
X174014805Y-123769370D01*
X174075127Y-123928428D01*
X174090513Y-123950718D01*
X174135580Y-124016010D01*
X174161472Y-124088662D01*
X174147569Y-124164527D01*
X174135580Y-124185292D01*
X174075683Y-124272068D01*
X174075682Y-124272070D01*
X174015360Y-124431128D01*
X173994855Y-124600000D01*
X174015360Y-124768872D01*
X174064900Y-124899500D01*
X174075683Y-124927932D01*
X174156433Y-125044917D01*
X174172317Y-125067929D01*
X174299648Y-125180734D01*
X174450275Y-125259790D01*
X174450278Y-125259790D01*
X174450279Y-125259791D01*
X174615442Y-125300500D01*
X174615444Y-125300500D01*
X174785558Y-125300500D01*
X174900902Y-125272070D01*
X174950725Y-125259790D01*
X175101352Y-125180734D01*
X175228683Y-125067929D01*
X175325318Y-124927930D01*
X175385640Y-124768872D01*
X175406145Y-124600000D01*
X175385640Y-124431128D01*
X175325318Y-124272070D01*
X175294545Y-124227488D01*
X175264864Y-124184487D01*
X175238972Y-124111835D01*
X175252875Y-124035971D01*
X175264865Y-124015204D01*
X175283516Y-123988184D01*
X175324763Y-123928428D01*
X175385085Y-123769370D01*
X175405590Y-123600498D01*
X175385085Y-123431626D01*
X175324763Y-123272568D01*
X175228128Y-123132569D01*
X175100797Y-123019764D01*
X174950170Y-122940708D01*
X174950167Y-122940707D01*
X174950165Y-122940706D01*
X174785003Y-122899998D01*
X174785001Y-122899998D01*
X174614889Y-122899998D01*
X174614887Y-122899998D01*
X174449724Y-122940706D01*
X174449720Y-122940707D01*
X174449720Y-122940708D01*
X174299093Y-123019764D01*
X174299091Y-123019765D01*
X174299090Y-123019766D01*
X174171761Y-123132569D01*
X174075128Y-123272565D01*
X174034107Y-123380731D01*
X174014805Y-123431626D01*
X173994300Y-123600498D01*
X158673524Y-123600498D01*
X158624818Y-123472070D01*
X158597208Y-123432071D01*
X158528183Y-123332071D01*
X158400854Y-123219268D01*
X158400852Y-123219266D01*
X158250225Y-123140210D01*
X158250222Y-123140209D01*
X158250220Y-123140208D01*
X158085058Y-123099500D01*
X158085056Y-123099500D01*
X157937465Y-123099500D01*
X157862965Y-123079538D01*
X157808427Y-123025000D01*
X157788465Y-122950500D01*
X157789550Y-122932549D01*
X157805645Y-122800000D01*
X157785140Y-122631128D01*
X157724818Y-122472070D01*
X157628183Y-122332071D01*
X157500852Y-122219266D01*
X157350225Y-122140210D01*
X157350222Y-122140209D01*
X157350220Y-122140208D01*
X157185058Y-122099500D01*
X157185056Y-122099500D01*
X157014944Y-122099500D01*
X157014942Y-122099500D01*
X156849779Y-122140208D01*
X156849775Y-122140209D01*
X156849775Y-122140210D01*
X156699148Y-122219266D01*
X156699146Y-122219267D01*
X156699145Y-122219268D01*
X156571816Y-122332071D01*
X156475183Y-122472067D01*
X156475181Y-122472070D01*
X156475182Y-122472070D01*
X156414860Y-122631128D01*
X156394355Y-122800000D01*
X149805645Y-122800000D01*
X149785140Y-122631128D01*
X149724818Y-122472070D01*
X149628183Y-122332071D01*
X149500852Y-122219266D01*
X149350225Y-122140210D01*
X149350222Y-122140209D01*
X149350220Y-122140208D01*
X149185058Y-122099500D01*
X149185056Y-122099500D01*
X149014944Y-122099500D01*
X149014942Y-122099500D01*
X148849779Y-122140208D01*
X148849775Y-122140209D01*
X148849775Y-122140210D01*
X148699148Y-122219266D01*
X148699146Y-122219267D01*
X148699145Y-122219268D01*
X148571816Y-122332071D01*
X148495269Y-122442968D01*
X148474253Y-122460843D01*
X148466672Y-122494508D01*
X148414860Y-122631126D01*
X148396585Y-122781638D01*
X148394355Y-122800000D01*
X139764144Y-122800000D01*
X139650225Y-122740210D01*
X139650222Y-122740209D01*
X139650220Y-122740208D01*
X139485058Y-122699500D01*
X139485056Y-122699500D01*
X139314944Y-122699500D01*
X139314942Y-122699500D01*
X139149774Y-122740209D01*
X139147413Y-122741449D01*
X139072170Y-122758395D01*
X138998534Y-122735449D01*
X138946237Y-122678759D01*
X138929291Y-122603516D01*
X138942635Y-122547619D01*
X138979028Y-122467929D01*
X138990011Y-122443880D01*
X139010698Y-122300000D01*
X138990011Y-122156120D01*
X138929626Y-122023896D01*
X138908920Y-122000000D01*
X146894355Y-122000000D01*
X146914860Y-122168872D01*
X146963009Y-122295831D01*
X146975183Y-122327932D01*
X147055216Y-122443879D01*
X147071817Y-122467929D01*
X147199148Y-122580734D01*
X147349775Y-122659790D01*
X147349778Y-122659790D01*
X147349779Y-122659791D01*
X147514942Y-122700500D01*
X147514944Y-122700500D01*
X147685058Y-122700500D01*
X147797306Y-122672833D01*
X147850225Y-122659790D01*
X148000852Y-122580734D01*
X148128183Y-122467929D01*
X148204731Y-122357029D01*
X148225745Y-122339155D01*
X148233328Y-122305490D01*
X148285139Y-122168875D01*
X148285139Y-122168874D01*
X148285140Y-122168872D01*
X148305645Y-122000000D01*
X148285140Y-121831128D01*
X148224818Y-121672070D01*
X148128183Y-121532071D01*
X148000852Y-121419266D01*
X147850225Y-121340210D01*
X147850222Y-121340209D01*
X147850220Y-121340208D01*
X147685058Y-121299500D01*
X147685056Y-121299500D01*
X147514944Y-121299500D01*
X147514942Y-121299500D01*
X147349779Y-121340208D01*
X147349775Y-121340209D01*
X147349775Y-121340210D01*
X147199148Y-121419266D01*
X147199146Y-121419267D01*
X147199145Y-121419268D01*
X147071816Y-121532071D01*
X146975183Y-121672067D01*
X146923619Y-121808033D01*
X146914860Y-121831128D01*
X146894355Y-122000000D01*
X138908920Y-122000000D01*
X138834436Y-121914040D01*
X138834435Y-121914039D01*
X138719087Y-121839910D01*
X138712152Y-121835453D01*
X138712151Y-121835452D01*
X138712150Y-121835452D01*
X138618770Y-121808033D01*
X138552912Y-121767891D01*
X138515948Y-121700197D01*
X138513268Y-121686296D01*
X138493981Y-121552150D01*
X138433596Y-121419926D01*
X138338406Y-121310070D01*
X138338405Y-121310069D01*
X138216120Y-121231482D01*
X138076195Y-121190396D01*
X138010336Y-121150254D01*
X138001853Y-121134719D01*
X137988618Y-121156433D01*
X137927775Y-121191561D01*
X137791818Y-121231482D01*
X137669534Y-121310069D01*
X137574343Y-121419926D01*
X137513958Y-121552150D01*
X137493271Y-121696030D01*
X123250500Y-121696030D01*
X123250500Y-120000000D01*
X123794852Y-120000000D01*
X123815357Y-120168872D01*
X123874149Y-120323896D01*
X123875680Y-120327932D01*
X123966696Y-120459790D01*
X123972314Y-120467929D01*
X124099645Y-120580734D01*
X124250272Y-120659790D01*
X124250275Y-120659790D01*
X124250276Y-120659791D01*
X124415439Y-120700500D01*
X124415441Y-120700500D01*
X124585555Y-120700500D01*
X124750719Y-120659791D01*
X124750719Y-120659790D01*
X124750722Y-120659790D01*
X124901349Y-120580734D01*
X124901438Y-120580654D01*
X124902712Y-120580018D01*
X124917369Y-120572326D01*
X124917523Y-120572620D01*
X124970436Y-120546191D01*
X125047423Y-120550843D01*
X125099052Y-120580649D01*
X125099148Y-120580734D01*
X125249775Y-120659790D01*
X125249778Y-120659790D01*
X125249779Y-120659791D01*
X125414942Y-120700500D01*
X125414944Y-120700500D01*
X125585058Y-120700500D01*
X125697306Y-120672833D01*
X125750225Y-120659790D01*
X125900852Y-120580734D01*
X126028183Y-120467929D01*
X126075071Y-120400000D01*
X137489301Y-120400000D01*
X137509988Y-120543879D01*
X137570373Y-120676103D01*
X137598151Y-120708161D01*
X137665564Y-120785960D01*
X137787848Y-120864547D01*
X137927320Y-120905500D01*
X137927324Y-120905500D01*
X137927774Y-120905632D01*
X137993632Y-120945775D01*
X138002115Y-120961310D01*
X138015351Y-120939595D01*
X138076195Y-120904468D01*
X138096871Y-120898396D01*
X138212152Y-120864547D01*
X138334436Y-120785960D01*
X138429626Y-120676104D01*
X138490011Y-120543880D01*
X138510698Y-120400000D01*
X138490011Y-120256120D01*
X138464382Y-120200001D01*
X139689302Y-120200001D01*
X139692983Y-120225600D01*
X139694500Y-120246806D01*
X139694500Y-120276000D01*
X139694925Y-120279960D01*
X139694926Y-120279964D01*
X139696202Y-120291837D01*
X139701482Y-120340941D01*
X139712688Y-120392452D01*
X139723203Y-120429112D01*
X139723647Y-120430660D01*
X139780324Y-120527570D01*
X139795816Y-120545449D01*
X139829516Y-120614825D01*
X139824013Y-120691757D01*
X139805834Y-120727662D01*
X139794640Y-120743880D01*
X139775182Y-120772070D01*
X139714860Y-120931128D01*
X139694355Y-121100000D01*
X139714860Y-121268872D01*
X139752784Y-121368871D01*
X139775183Y-121427932D01*
X139808434Y-121476104D01*
X139871817Y-121567929D01*
X139999148Y-121680734D01*
X140149775Y-121759790D01*
X140149778Y-121759790D01*
X140149779Y-121759791D01*
X140314942Y-121800500D01*
X140314944Y-121800500D01*
X140485058Y-121800500D01*
X140650222Y-121759791D01*
X140650222Y-121759790D01*
X140650225Y-121759790D01*
X140800852Y-121680734D01*
X140800852Y-121680733D01*
X140816872Y-121672326D01*
X140818238Y-121674929D01*
X140862390Y-121652873D01*
X140939378Y-121657520D01*
X140964086Y-121671785D01*
X140964992Y-121670059D01*
X141131641Y-121757524D01*
X141296806Y-121798233D01*
X141296808Y-121798233D01*
X141466922Y-121798233D01*
X141632086Y-121757524D01*
X141632086Y-121757523D01*
X141632089Y-121757523D01*
X141782716Y-121678467D01*
X141793615Y-121668810D01*
X141862614Y-121634349D01*
X141939601Y-121639004D01*
X141972977Y-121654990D01*
X141976691Y-121657377D01*
X141987850Y-121664548D01*
X142127318Y-121705500D01*
X142127320Y-121705500D01*
X142272682Y-121705500D01*
X142342415Y-121685023D01*
X142412152Y-121664547D01*
X142534436Y-121585960D01*
X142629626Y-121476104D01*
X142690011Y-121343880D01*
X142710698Y-121200000D01*
X184894355Y-121200000D01*
X184914860Y-121368872D01*
X184975182Y-121527930D01*
X184975183Y-121527932D01*
X185069483Y-121664548D01*
X185071817Y-121667929D01*
X185199148Y-121780734D01*
X185349775Y-121859790D01*
X185349778Y-121859790D01*
X185349779Y-121859791D01*
X185514942Y-121900500D01*
X185514944Y-121900500D01*
X185685058Y-121900500D01*
X185797306Y-121872833D01*
X185850225Y-121859790D01*
X186000852Y-121780734D01*
X186101195Y-121691837D01*
X186170196Y-121657377D01*
X186247184Y-121662034D01*
X186298804Y-121691837D01*
X186399148Y-121780734D01*
X186549775Y-121859790D01*
X186549778Y-121859790D01*
X186549779Y-121859791D01*
X186714942Y-121900500D01*
X186714944Y-121900500D01*
X186885058Y-121900500D01*
X186997306Y-121872833D01*
X187050225Y-121859790D01*
X187200852Y-121780734D01*
X187301195Y-121691837D01*
X187370196Y-121657377D01*
X187447184Y-121662034D01*
X187498804Y-121691837D01*
X187599148Y-121780734D01*
X187749775Y-121859790D01*
X187749778Y-121859790D01*
X187749779Y-121859791D01*
X187914942Y-121900500D01*
X187914944Y-121900500D01*
X188085058Y-121900500D01*
X188197306Y-121872833D01*
X188250225Y-121859790D01*
X188400852Y-121780734D01*
X188528183Y-121667929D01*
X188624818Y-121527930D01*
X188685140Y-121368872D01*
X188705645Y-121200000D01*
X188685140Y-121031128D01*
X188624818Y-120872070D01*
X188528183Y-120732071D01*
X188501194Y-120708161D01*
X188392117Y-120611527D01*
X188349590Y-120547183D01*
X188344933Y-120470195D01*
X188379394Y-120401194D01*
X188392118Y-120388470D01*
X188400847Y-120380736D01*
X188400852Y-120380734D01*
X188528183Y-120267929D01*
X188624818Y-120127930D01*
X188685140Y-119968872D01*
X188705645Y-119800000D01*
X188685140Y-119631128D01*
X188624818Y-119472070D01*
X188528183Y-119332071D01*
X188504992Y-119311525D01*
X188462467Y-119247182D01*
X188457810Y-119170195D01*
X188492271Y-119101193D01*
X188504980Y-119088484D01*
X188528183Y-119067929D01*
X188624818Y-118927930D01*
X188685140Y-118768872D01*
X188705645Y-118600000D01*
X188685140Y-118431128D01*
X188624818Y-118272070D01*
X188528183Y-118132071D01*
X188400852Y-118019266D01*
X188250225Y-117940210D01*
X188250222Y-117940209D01*
X188250220Y-117940208D01*
X188085058Y-117899500D01*
X188085056Y-117899500D01*
X187914944Y-117899500D01*
X187914942Y-117899500D01*
X187749779Y-117940208D01*
X187599148Y-118019266D01*
X187498805Y-118108162D01*
X187429803Y-118142622D01*
X187352816Y-118137965D01*
X187301195Y-118108162D01*
X187285774Y-118094500D01*
X187200852Y-118019266D01*
X187050225Y-117940210D01*
X187050222Y-117940209D01*
X187050220Y-117940208D01*
X186885058Y-117899500D01*
X186885056Y-117899500D01*
X186714944Y-117899500D01*
X186714942Y-117899500D01*
X186549779Y-117940208D01*
X186399148Y-118019266D01*
X186298805Y-118108162D01*
X186229803Y-118142622D01*
X186152816Y-118137965D01*
X186101195Y-118108162D01*
X186085774Y-118094500D01*
X186000852Y-118019266D01*
X185850225Y-117940210D01*
X185850222Y-117940209D01*
X185850220Y-117940208D01*
X185685058Y-117899500D01*
X185685056Y-117899500D01*
X185514944Y-117899500D01*
X185514942Y-117899500D01*
X185349779Y-117940208D01*
X185349775Y-117940209D01*
X185349775Y-117940210D01*
X185199148Y-118019266D01*
X185199146Y-118019267D01*
X185199145Y-118019268D01*
X185071816Y-118132071D01*
X184975183Y-118272067D01*
X184975181Y-118272070D01*
X184975182Y-118272070D01*
X184914860Y-118431128D01*
X184894355Y-118600000D01*
X184914860Y-118768872D01*
X184975182Y-118927930D01*
X184975183Y-118927932D01*
X185071816Y-119067929D01*
X185095005Y-119088472D01*
X185137532Y-119152817D01*
X185142189Y-119229804D01*
X185107728Y-119298805D01*
X185095005Y-119311528D01*
X185071816Y-119332070D01*
X184975183Y-119472067D01*
X184966771Y-119494248D01*
X184914860Y-119631128D01*
X184894355Y-119800000D01*
X184914860Y-119968872D01*
X184953208Y-120069989D01*
X184975183Y-120127932D01*
X185071814Y-120267926D01*
X185071816Y-120267928D01*
X185071817Y-120267929D01*
X185199148Y-120380734D01*
X185199152Y-120380736D01*
X185207882Y-120388470D01*
X185250409Y-120452815D01*
X185255066Y-120529802D01*
X185220606Y-120598804D01*
X185207883Y-120611527D01*
X185148038Y-120664545D01*
X185074143Y-120730011D01*
X185071815Y-120732073D01*
X184975183Y-120872067D01*
X184949573Y-120939595D01*
X184914860Y-121031128D01*
X184894355Y-121200000D01*
X142710698Y-121200000D01*
X142709336Y-121190530D01*
X142690011Y-121056120D01*
X142629626Y-120923896D01*
X142532872Y-120812235D01*
X142499172Y-120742859D01*
X142504674Y-120665928D01*
X142547902Y-120602057D01*
X142550276Y-120600000D01*
X143389301Y-120600000D01*
X143409988Y-120743879D01*
X143470373Y-120876103D01*
X143495960Y-120905632D01*
X143565564Y-120985960D01*
X143687848Y-121064547D01*
X143734338Y-121078197D01*
X143827318Y-121105500D01*
X143827320Y-121105500D01*
X143972682Y-121105500D01*
X144042415Y-121085023D01*
X144112152Y-121064547D01*
X144234436Y-120985960D01*
X144329626Y-120876104D01*
X144369184Y-120789482D01*
X144418289Y-120730011D01*
X144462740Y-120708417D01*
X144472674Y-120705500D01*
X144472680Y-120705500D01*
X144612152Y-120664547D01*
X144734436Y-120585960D01*
X144829626Y-120476104D01*
X144890011Y-120343880D01*
X144910698Y-120200000D01*
X144890011Y-120056120D01*
X144829626Y-119923896D01*
X144734436Y-119814040D01*
X144734435Y-119814039D01*
X144612150Y-119735452D01*
X144472682Y-119694500D01*
X144472680Y-119694500D01*
X144327320Y-119694500D01*
X144327318Y-119694500D01*
X144187849Y-119735452D01*
X144065564Y-119814039D01*
X143970373Y-119923896D01*
X143930816Y-120010514D01*
X143881709Y-120069989D01*
X143837260Y-120091581D01*
X143687848Y-120135452D01*
X143565564Y-120214039D01*
X143470373Y-120323896D01*
X143409988Y-120456120D01*
X143389301Y-120600000D01*
X142550276Y-120600000D01*
X142580375Y-120573920D01*
X142622553Y-120529187D01*
X142673439Y-120429111D01*
X142693124Y-120362072D01*
X142695603Y-120344836D01*
X142705500Y-120276000D01*
X142705500Y-119503951D01*
X142705350Y-119494531D01*
X142705345Y-119494210D01*
X142705344Y-119494190D01*
X142705341Y-119493979D01*
X142705084Y-119486037D01*
X142704617Y-119476353D01*
X142648679Y-118600000D01*
X143689301Y-118600000D01*
X143709988Y-118743879D01*
X143770373Y-118876103D01*
X143770374Y-118876104D01*
X143865564Y-118985960D01*
X143987848Y-119064547D01*
X144034338Y-119078198D01*
X144127318Y-119105500D01*
X144127320Y-119105500D01*
X144272682Y-119105500D01*
X144342415Y-119085023D01*
X144412152Y-119064547D01*
X144534436Y-118985960D01*
X144629626Y-118876104D01*
X144690011Y-118743880D01*
X144710698Y-118600000D01*
X144690011Y-118456120D01*
X144629626Y-118323896D01*
X144534436Y-118214040D01*
X144534435Y-118214039D01*
X144423307Y-118142622D01*
X144412152Y-118135453D01*
X144412151Y-118135452D01*
X144412150Y-118135452D01*
X144272682Y-118094500D01*
X144272680Y-118094500D01*
X144127320Y-118094500D01*
X144127318Y-118094500D01*
X143987849Y-118135452D01*
X143865564Y-118214039D01*
X143770373Y-118323896D01*
X143709988Y-118456120D01*
X143689301Y-118600000D01*
X142648679Y-118600000D01*
X142405803Y-114795000D01*
X142405500Y-114785509D01*
X142405500Y-114410208D01*
X142406117Y-114400006D01*
X142405500Y-114389797D01*
X142405500Y-113410208D01*
X142406117Y-113400006D01*
X142405500Y-113389797D01*
X142405500Y-112410208D01*
X142406117Y-112400006D01*
X142405500Y-112389797D01*
X142405500Y-112127985D01*
X142405500Y-112124000D01*
X142398518Y-112059059D01*
X142387312Y-112007548D01*
X142376354Y-111969342D01*
X142319675Y-111872429D01*
X142273920Y-111819625D01*
X142229187Y-111777447D01*
X142163699Y-111744148D01*
X142129112Y-111726561D01*
X142062068Y-111706874D01*
X141976003Y-111694500D01*
X141976000Y-111694500D01*
X141429500Y-111694500D01*
X141425540Y-111694925D01*
X141425535Y-111694926D01*
X141368526Y-111701055D01*
X141368516Y-111701056D01*
X141364559Y-111701482D01*
X141360673Y-111702327D01*
X141360663Y-111702329D01*
X141315410Y-111712174D01*
X141315405Y-111712175D01*
X141313048Y-111712688D01*
X141274842Y-111723646D01*
X141274841Y-111723646D01*
X141274836Y-111723648D01*
X141274622Y-111723774D01*
X141269667Y-111725130D01*
X141256854Y-111728806D01*
X141256809Y-111728652D01*
X141200233Y-111744148D01*
X141142357Y-111730449D01*
X141142357Y-111730451D01*
X141142319Y-111730440D01*
X141131880Y-111727969D01*
X141129112Y-111726561D01*
X141062068Y-111706874D01*
X140976003Y-111694500D01*
X140976000Y-111694500D01*
X140424000Y-111694500D01*
X140420040Y-111694925D01*
X140420035Y-111694926D01*
X140363026Y-111701055D01*
X140363016Y-111701056D01*
X140359059Y-111701482D01*
X140355173Y-111702327D01*
X140355163Y-111702329D01*
X140309910Y-111712174D01*
X140309905Y-111712175D01*
X140307548Y-111712688D01*
X140269342Y-111723646D01*
X140269339Y-111723647D01*
X140172430Y-111780324D01*
X140123804Y-111822459D01*
X140119625Y-111826080D01*
X140117062Y-111828797D01*
X140117057Y-111828803D01*
X140077446Y-111870814D01*
X140026561Y-111970887D01*
X140006874Y-112037931D01*
X139994500Y-112123997D01*
X139994500Y-112389797D01*
X139993882Y-112400006D01*
X139994500Y-112410208D01*
X139994500Y-113389797D01*
X139993882Y-113400006D01*
X139994500Y-113410208D01*
X139994500Y-114785508D01*
X139994197Y-114794999D01*
X139695371Y-119476592D01*
X139694894Y-119486584D01*
X139694645Y-119494531D01*
X139694496Y-119504178D01*
X139694500Y-120153194D01*
X139692984Y-120174394D01*
X139689302Y-120200001D01*
X138464382Y-120200001D01*
X138429626Y-120123896D01*
X138334436Y-120014040D01*
X138334435Y-120014039D01*
X138212150Y-119935452D01*
X138072682Y-119894500D01*
X138072680Y-119894500D01*
X137927320Y-119894500D01*
X137927318Y-119894500D01*
X137787849Y-119935452D01*
X137665564Y-120014039D01*
X137570373Y-120123896D01*
X137509988Y-120256120D01*
X137489301Y-120400000D01*
X126075071Y-120400000D01*
X126124818Y-120327930D01*
X126185140Y-120168872D01*
X126205645Y-120000000D01*
X126185140Y-119831128D01*
X126124818Y-119672070D01*
X126028183Y-119532071D01*
X125900852Y-119419266D01*
X125750225Y-119340210D01*
X125750222Y-119340209D01*
X125750220Y-119340208D01*
X125585058Y-119299500D01*
X125585056Y-119299500D01*
X125414944Y-119299500D01*
X125414942Y-119299500D01*
X125249779Y-119340208D01*
X125249775Y-119340209D01*
X125249775Y-119340210D01*
X125099148Y-119419266D01*
X125099147Y-119419266D01*
X125099141Y-119419270D01*
X125099047Y-119419354D01*
X125097712Y-119420020D01*
X125083130Y-119427674D01*
X125082975Y-119427379D01*
X125030044Y-119453811D01*
X124953057Y-119449150D01*
X124901445Y-119419351D01*
X124901428Y-119419336D01*
X124901349Y-119419266D01*
X124750722Y-119340210D01*
X124750719Y-119340209D01*
X124750717Y-119340208D01*
X124585555Y-119299500D01*
X124585553Y-119299500D01*
X124415441Y-119299500D01*
X124415439Y-119299500D01*
X124250276Y-119340208D01*
X124250272Y-119340209D01*
X124250272Y-119340210D01*
X124099645Y-119419266D01*
X124099643Y-119419267D01*
X124099642Y-119419268D01*
X123972313Y-119532071D01*
X123875680Y-119672067D01*
X123815357Y-119831128D01*
X123802690Y-119935453D01*
X123794852Y-120000000D01*
X123250500Y-120000000D01*
X123250500Y-118600000D01*
X137989301Y-118600000D01*
X138009988Y-118743879D01*
X138070373Y-118876103D01*
X138070374Y-118876104D01*
X138165564Y-118985960D01*
X138287848Y-119064547D01*
X138334338Y-119078197D01*
X138427318Y-119105500D01*
X138427320Y-119105500D01*
X138572682Y-119105500D01*
X138642416Y-119085023D01*
X138712152Y-119064547D01*
X138834436Y-118985960D01*
X138929626Y-118876104D01*
X138990011Y-118743880D01*
X139010698Y-118600000D01*
X138990011Y-118456120D01*
X138929626Y-118323896D01*
X138834436Y-118214040D01*
X138834435Y-118214039D01*
X138723307Y-118142622D01*
X138712152Y-118135453D01*
X138712151Y-118135452D01*
X138712150Y-118135452D01*
X138572682Y-118094500D01*
X138572680Y-118094500D01*
X138427320Y-118094500D01*
X138427318Y-118094500D01*
X138287849Y-118135452D01*
X138165564Y-118214039D01*
X138070373Y-118323896D01*
X138009988Y-118456120D01*
X137989301Y-118600000D01*
X123250500Y-118600000D01*
X123250500Y-116779500D01*
X123270462Y-116705000D01*
X123325000Y-116650462D01*
X123399500Y-116630500D01*
X123544432Y-116630500D01*
X123548206Y-116630500D01*
X123692321Y-116615845D01*
X123876768Y-116557974D01*
X124045791Y-116464159D01*
X124192468Y-116338240D01*
X124310796Y-116185373D01*
X124321338Y-116163879D01*
X124372070Y-116105786D01*
X124445052Y-116080840D01*
X124455111Y-116080500D01*
X125221910Y-116080500D01*
X125296410Y-116100462D01*
X125348358Y-116150684D01*
X125384504Y-116208676D01*
X125419492Y-116264808D01*
X125550866Y-116403014D01*
X125587726Y-116470765D01*
X125585772Y-116547868D01*
X125545528Y-116613664D01*
X125541440Y-116617260D01*
X125453038Y-116742495D01*
X125401994Y-116886121D01*
X125401993Y-116886123D01*
X125401994Y-116886123D01*
X125391592Y-117038196D01*
X125422604Y-117187436D01*
X125492731Y-117322775D01*
X125596772Y-117434176D01*
X125727010Y-117513375D01*
X125873786Y-117554500D01*
X125873787Y-117554500D01*
X125982829Y-117554500D01*
X125987927Y-117554500D01*
X126101009Y-117538957D01*
X126240818Y-117478230D01*
X126359058Y-117382034D01*
X126446961Y-117257504D01*
X126498006Y-117113877D01*
X126508408Y-116961804D01*
X126477396Y-116812564D01*
X126477394Y-116812561D01*
X126476824Y-116809815D01*
X126481212Y-116732811D01*
X126523513Y-116668318D01*
X126592393Y-116633616D01*
X126622708Y-116630500D01*
X127219432Y-116630500D01*
X127223206Y-116630500D01*
X127367321Y-116615845D01*
X127551768Y-116557974D01*
X127720791Y-116464159D01*
X127867468Y-116338240D01*
X127985796Y-116185373D01*
X128070930Y-116011816D01*
X128119385Y-115824674D01*
X128129176Y-115631610D01*
X128099903Y-115440526D01*
X128032764Y-115259247D01*
X127930509Y-115095193D01*
X127797323Y-114955081D01*
X127638658Y-114844647D01*
X127638658Y-114844646D01*
X127461010Y-114768412D01*
X127271657Y-114729500D01*
X127271656Y-114729500D01*
X126126794Y-114729500D01*
X126123050Y-114729880D01*
X126123044Y-114729881D01*
X125982678Y-114744155D01*
X125798232Y-114802025D01*
X125629209Y-114895841D01*
X125482529Y-115021762D01*
X125364205Y-115174624D01*
X125353662Y-115196119D01*
X125302930Y-115254214D01*
X125229948Y-115279160D01*
X125219889Y-115279500D01*
X124453090Y-115279500D01*
X124378590Y-115259538D01*
X124326642Y-115209316D01*
X124305018Y-115174624D01*
X124255509Y-115095193D01*
X124122323Y-114955081D01*
X123963658Y-114844647D01*
X123963657Y-114844646D01*
X123786010Y-114768412D01*
X123596657Y-114729500D01*
X123596656Y-114729500D01*
X122151794Y-114729500D01*
X122148050Y-114729880D01*
X122148044Y-114729881D01*
X122007678Y-114744155D01*
X121823232Y-114802025D01*
X121654209Y-114895841D01*
X121507529Y-115021762D01*
X121389205Y-115174625D01*
X121304070Y-115348182D01*
X121255615Y-115535326D01*
X121245824Y-115728390D01*
X121275097Y-115919474D01*
X121342235Y-116100752D01*
X121373358Y-116150684D01*
X121409504Y-116208676D01*
X121444492Y-116264808D01*
X121554687Y-116380734D01*
X121577677Y-116404919D01*
X121736342Y-116515353D01*
X121913988Y-116591587D01*
X122008665Y-116611043D01*
X122103343Y-116630500D01*
X122103344Y-116630500D01*
X122300500Y-116630500D01*
X122375000Y-116650462D01*
X122429538Y-116705000D01*
X122449500Y-116779500D01*
X122449500Y-123220500D01*
X122429538Y-123295000D01*
X122375000Y-123349538D01*
X122300500Y-123369500D01*
X122151794Y-123369500D01*
X122148050Y-123369880D01*
X122148044Y-123369881D01*
X122007678Y-123384155D01*
X121823232Y-123442025D01*
X121654209Y-123535841D01*
X121507529Y-123661762D01*
X121389205Y-123814625D01*
X121304070Y-123988182D01*
X121255615Y-124175326D01*
X121245824Y-124368390D01*
X120000499Y-124368390D01*
X120000499Y-114061213D01*
X120020461Y-113986717D01*
X120044133Y-113955866D01*
X120955858Y-113044141D01*
X121022654Y-113005577D01*
X121061218Y-113000500D01*
X126970267Y-113000500D01*
X126970418Y-113000530D01*
X126970419Y-113000521D01*
X127000000Y-113000541D01*
X127000383Y-113000383D01*
X127000383Y-113000381D01*
X127000388Y-113000377D01*
X127007368Y-112983915D01*
X127000827Y-112964705D01*
X127000499Y-112954820D01*
X127000499Y-109000000D01*
X128294355Y-109000000D01*
X128314860Y-109168872D01*
X128375182Y-109327930D01*
X128375183Y-109327932D01*
X128438352Y-109419447D01*
X128471817Y-109467929D01*
X128599148Y-109580734D01*
X128749775Y-109659790D01*
X128749778Y-109659790D01*
X128749779Y-109659791D01*
X128914942Y-109700500D01*
X128914944Y-109700500D01*
X129085058Y-109700500D01*
X129228320Y-109665189D01*
X129250225Y-109659790D01*
X129400852Y-109580734D01*
X129528183Y-109467929D01*
X129624818Y-109327930D01*
X129685140Y-109168872D01*
X129705645Y-109000000D01*
X130294355Y-109000000D01*
X130314860Y-109168872D01*
X130375182Y-109327930D01*
X130375183Y-109327932D01*
X130438352Y-109419447D01*
X130471817Y-109467929D01*
X130599148Y-109580734D01*
X130749775Y-109659790D01*
X130749778Y-109659790D01*
X130749779Y-109659791D01*
X130914942Y-109700500D01*
X130914944Y-109700500D01*
X131085058Y-109700500D01*
X131228320Y-109665189D01*
X131250225Y-109659790D01*
X131400852Y-109580734D01*
X131528183Y-109467929D01*
X131624818Y-109327930D01*
X131685140Y-109168872D01*
X131705645Y-109000000D01*
X132294355Y-109000000D01*
X132314860Y-109168872D01*
X132375182Y-109327930D01*
X132375183Y-109327932D01*
X132438352Y-109419447D01*
X132471817Y-109467929D01*
X132599148Y-109580734D01*
X132749775Y-109659790D01*
X132749778Y-109659790D01*
X132749779Y-109659791D01*
X132914942Y-109700500D01*
X132914944Y-109700500D01*
X133085058Y-109700500D01*
X133228320Y-109665189D01*
X133250225Y-109659790D01*
X133400852Y-109580734D01*
X133528183Y-109467929D01*
X133624818Y-109327930D01*
X133685140Y-109168872D01*
X133705645Y-109000000D01*
X134294355Y-109000000D01*
X134314860Y-109168872D01*
X134375182Y-109327930D01*
X134375183Y-109327932D01*
X134438352Y-109419447D01*
X134471817Y-109467929D01*
X134599148Y-109580734D01*
X134749775Y-109659790D01*
X134749778Y-109659790D01*
X134749779Y-109659791D01*
X134914942Y-109700500D01*
X134914944Y-109700500D01*
X135085058Y-109700500D01*
X135228320Y-109665189D01*
X135250225Y-109659790D01*
X135400852Y-109580734D01*
X135491982Y-109500000D01*
X156100000Y-109500000D01*
X156100000Y-117200000D01*
X167600000Y-117200000D01*
X167600000Y-115450000D01*
X182244355Y-115450000D01*
X182264860Y-115618872D01*
X182269691Y-115631610D01*
X182325183Y-115777932D01*
X182421816Y-115917929D01*
X182498224Y-115985620D01*
X182540751Y-116049965D01*
X182545408Y-116126952D01*
X182510947Y-116195953D01*
X182498225Y-116208676D01*
X182471815Y-116232073D01*
X182375183Y-116372067D01*
X182324635Y-116505353D01*
X182314860Y-116531128D01*
X182294355Y-116700000D01*
X182314860Y-116868872D01*
X182375182Y-117027930D01*
X182471817Y-117167929D01*
X182599148Y-117280734D01*
X182749775Y-117359790D01*
X182749778Y-117359790D01*
X182749779Y-117359791D01*
X182914942Y-117400500D01*
X182914944Y-117400500D01*
X183085058Y-117400500D01*
X183197306Y-117372833D01*
X183250225Y-117359790D01*
X183400852Y-117280734D01*
X183528183Y-117167929D01*
X183624818Y-117027930D01*
X183685140Y-116868872D01*
X183705645Y-116700000D01*
X183685140Y-116531128D01*
X183624818Y-116372070D01*
X183624816Y-116372067D01*
X183528183Y-116232070D01*
X183451775Y-116164379D01*
X183409248Y-116100034D01*
X183404591Y-116023047D01*
X183439052Y-115954046D01*
X183451763Y-115941334D01*
X183478183Y-115917929D01*
X183574818Y-115777930D01*
X183635140Y-115618872D01*
X183655645Y-115450000D01*
X183635140Y-115281128D01*
X183574818Y-115122070D01*
X183478183Y-114982071D01*
X183350852Y-114869266D01*
X183200225Y-114790210D01*
X183200222Y-114790209D01*
X183200220Y-114790208D01*
X183035058Y-114749500D01*
X183035056Y-114749500D01*
X182864944Y-114749500D01*
X182864942Y-114749500D01*
X182699779Y-114790208D01*
X182699775Y-114790209D01*
X182699775Y-114790210D01*
X182549148Y-114869266D01*
X182549146Y-114869267D01*
X182549145Y-114869268D01*
X182421816Y-114982071D01*
X182325183Y-115122067D01*
X182325181Y-115122070D01*
X182325182Y-115122070D01*
X182264860Y-115281128D01*
X182244355Y-115450000D01*
X167600000Y-115450000D01*
X167600000Y-109500000D01*
X156100000Y-109500000D01*
X135491982Y-109500000D01*
X135528183Y-109467929D01*
X135624818Y-109327930D01*
X135685140Y-109168872D01*
X135705645Y-109000000D01*
X135685140Y-108831128D01*
X135624818Y-108672070D01*
X135568169Y-108590000D01*
X179294355Y-108590000D01*
X179314860Y-108758872D01*
X179375182Y-108917930D01*
X179375183Y-108917932D01*
X179471662Y-109057705D01*
X179471817Y-109057929D01*
X179599148Y-109170734D01*
X179749775Y-109249790D01*
X179749778Y-109249790D01*
X179749779Y-109249791D01*
X179914942Y-109290500D01*
X179914944Y-109290500D01*
X180085058Y-109290500D01*
X180197306Y-109262833D01*
X180250225Y-109249790D01*
X180400852Y-109170734D01*
X180501195Y-109081837D01*
X180570196Y-109047377D01*
X180647184Y-109052034D01*
X180698804Y-109081837D01*
X180799148Y-109170734D01*
X180949775Y-109249790D01*
X180949778Y-109249790D01*
X180949779Y-109249791D01*
X181114942Y-109290500D01*
X181114944Y-109290500D01*
X181285058Y-109290500D01*
X181397306Y-109262833D01*
X181450225Y-109249790D01*
X181600852Y-109170734D01*
X181689908Y-109091837D01*
X181758908Y-109057377D01*
X181835896Y-109062034D01*
X181887517Y-109091838D01*
X181902389Y-109105013D01*
X181999148Y-109190734D01*
X182149775Y-109269790D01*
X182149778Y-109269790D01*
X182149779Y-109269791D01*
X182314942Y-109310500D01*
X182314944Y-109310500D01*
X182485058Y-109310500D01*
X182597306Y-109282833D01*
X182650225Y-109269790D01*
X182800852Y-109190734D01*
X182912484Y-109091836D01*
X182981483Y-109057377D01*
X183058470Y-109062034D01*
X183110090Y-109091835D01*
X183199148Y-109170734D01*
X183349775Y-109249790D01*
X183349778Y-109249790D01*
X183349779Y-109249791D01*
X183514942Y-109290500D01*
X183514944Y-109290500D01*
X183685058Y-109290500D01*
X183797306Y-109262833D01*
X183850225Y-109249790D01*
X184000852Y-109170734D01*
X184101195Y-109081837D01*
X184170196Y-109047377D01*
X184247184Y-109052034D01*
X184298804Y-109081837D01*
X184399148Y-109170734D01*
X184549775Y-109249790D01*
X184549778Y-109249790D01*
X184549779Y-109249791D01*
X184714942Y-109290500D01*
X184714944Y-109290500D01*
X184885058Y-109290500D01*
X184997306Y-109262833D01*
X185050225Y-109249790D01*
X185200852Y-109170734D01*
X185301195Y-109081837D01*
X185370196Y-109047377D01*
X185447184Y-109052034D01*
X185498804Y-109081837D01*
X185599148Y-109170734D01*
X185749775Y-109249790D01*
X185749778Y-109249790D01*
X185749779Y-109249791D01*
X185914942Y-109290500D01*
X185914944Y-109290500D01*
X186085058Y-109290500D01*
X186197306Y-109262833D01*
X186250225Y-109249790D01*
X186400852Y-109170734D01*
X186528183Y-109057929D01*
X186624818Y-108917930D01*
X186685140Y-108758872D01*
X186705645Y-108590000D01*
X186685140Y-108421128D01*
X186624818Y-108262070D01*
X186555928Y-108162267D01*
X186528183Y-108122071D01*
X186463404Y-108064682D01*
X186400852Y-108009266D01*
X186250225Y-107930210D01*
X186250222Y-107930209D01*
X186250220Y-107930208D01*
X186085058Y-107889500D01*
X186085056Y-107889500D01*
X185914944Y-107889500D01*
X185914942Y-107889500D01*
X185749779Y-107930208D01*
X185749775Y-107930209D01*
X185749775Y-107930210D01*
X185711669Y-107950210D01*
X185599148Y-108009266D01*
X185498805Y-108098162D01*
X185429803Y-108132622D01*
X185352816Y-108127965D01*
X185301195Y-108098162D01*
X185200852Y-108009266D01*
X185050225Y-107930210D01*
X185050222Y-107930209D01*
X185050220Y-107930208D01*
X184885058Y-107889500D01*
X184885056Y-107889500D01*
X184714944Y-107889500D01*
X184714942Y-107889500D01*
X184549779Y-107930208D01*
X184549775Y-107930209D01*
X184549775Y-107930210D01*
X184511669Y-107950210D01*
X184399148Y-108009266D01*
X184298805Y-108098162D01*
X184229803Y-108132622D01*
X184152816Y-108127965D01*
X184101195Y-108098162D01*
X184000852Y-108009266D01*
X183850225Y-107930210D01*
X183850222Y-107930209D01*
X183850220Y-107930208D01*
X183685058Y-107889500D01*
X183685056Y-107889500D01*
X183514944Y-107889500D01*
X183514942Y-107889500D01*
X183349779Y-107930208D01*
X183349775Y-107930209D01*
X183349775Y-107930210D01*
X183199148Y-108009266D01*
X183199146Y-108009267D01*
X183199145Y-108009268D01*
X183087516Y-108108162D01*
X183018515Y-108142622D01*
X182941527Y-108137965D01*
X182889908Y-108108162D01*
X182800852Y-108029266D01*
X182650225Y-107950210D01*
X182650222Y-107950209D01*
X182650220Y-107950208D01*
X182485058Y-107909500D01*
X182485056Y-107909500D01*
X182314944Y-107909500D01*
X182314942Y-107909500D01*
X182149779Y-107950208D01*
X182149775Y-107950209D01*
X182149775Y-107950210D01*
X181999148Y-108029266D01*
X181999146Y-108029267D01*
X181999145Y-108029268D01*
X181910091Y-108108162D01*
X181841089Y-108142622D01*
X181764102Y-108137964D01*
X181712482Y-108108161D01*
X181623427Y-108029266D01*
X181600852Y-108009266D01*
X181450225Y-107930210D01*
X181450222Y-107930209D01*
X181450220Y-107930208D01*
X181285058Y-107889500D01*
X181285056Y-107889500D01*
X181114944Y-107889500D01*
X181114942Y-107889500D01*
X180949779Y-107930208D01*
X180949775Y-107930209D01*
X180949775Y-107930210D01*
X180911669Y-107950210D01*
X180799148Y-108009266D01*
X180698805Y-108098162D01*
X180629803Y-108132622D01*
X180552816Y-108127965D01*
X180501195Y-108098162D01*
X180400852Y-108009266D01*
X180250225Y-107930210D01*
X180250222Y-107930209D01*
X180250220Y-107930208D01*
X180085058Y-107889500D01*
X180085056Y-107889500D01*
X179914944Y-107889500D01*
X179914942Y-107889500D01*
X179749779Y-107930208D01*
X179749775Y-107930209D01*
X179749775Y-107930210D01*
X179599148Y-108009266D01*
X179599146Y-108009267D01*
X179599145Y-108009268D01*
X179471816Y-108122071D01*
X179375183Y-108262067D01*
X179345548Y-108340210D01*
X179314860Y-108421128D01*
X179294355Y-108590000D01*
X135568169Y-108590000D01*
X135528183Y-108532071D01*
X135400852Y-108419266D01*
X135250225Y-108340210D01*
X135250222Y-108340209D01*
X135250220Y-108340208D01*
X135085058Y-108299500D01*
X135085056Y-108299500D01*
X134914944Y-108299500D01*
X134914942Y-108299500D01*
X134749779Y-108340208D01*
X134749775Y-108340209D01*
X134749775Y-108340210D01*
X134599148Y-108419266D01*
X134599146Y-108419267D01*
X134599145Y-108419268D01*
X134471816Y-108532071D01*
X134375183Y-108672067D01*
X134375181Y-108672070D01*
X134375182Y-108672070D01*
X134314860Y-108831128D01*
X134294355Y-109000000D01*
X133705645Y-109000000D01*
X133685140Y-108831128D01*
X133624818Y-108672070D01*
X133528183Y-108532071D01*
X133400852Y-108419266D01*
X133250225Y-108340210D01*
X133250222Y-108340209D01*
X133250220Y-108340208D01*
X133085058Y-108299500D01*
X133085056Y-108299500D01*
X132914944Y-108299500D01*
X132914942Y-108299500D01*
X132749779Y-108340208D01*
X132749775Y-108340209D01*
X132749775Y-108340210D01*
X132599148Y-108419266D01*
X132599146Y-108419267D01*
X132599145Y-108419268D01*
X132471816Y-108532071D01*
X132375183Y-108672067D01*
X132375181Y-108672070D01*
X132375182Y-108672070D01*
X132314860Y-108831128D01*
X132294355Y-109000000D01*
X131705645Y-109000000D01*
X131685140Y-108831128D01*
X131624818Y-108672070D01*
X131528183Y-108532071D01*
X131400852Y-108419266D01*
X131250225Y-108340210D01*
X131250222Y-108340209D01*
X131250220Y-108340208D01*
X131085058Y-108299500D01*
X131085056Y-108299500D01*
X130914944Y-108299500D01*
X130914942Y-108299500D01*
X130749779Y-108340208D01*
X130749775Y-108340209D01*
X130749775Y-108340210D01*
X130599148Y-108419266D01*
X130599146Y-108419267D01*
X130599145Y-108419268D01*
X130471816Y-108532071D01*
X130375183Y-108672067D01*
X130375181Y-108672070D01*
X130375182Y-108672070D01*
X130314860Y-108831128D01*
X130294355Y-109000000D01*
X129705645Y-109000000D01*
X129685140Y-108831128D01*
X129624818Y-108672070D01*
X129528183Y-108532071D01*
X129400852Y-108419266D01*
X129250225Y-108340210D01*
X129250222Y-108340209D01*
X129250220Y-108340208D01*
X129085058Y-108299500D01*
X129085056Y-108299500D01*
X128914944Y-108299500D01*
X128914942Y-108299500D01*
X128749779Y-108340208D01*
X128749775Y-108340209D01*
X128749775Y-108340210D01*
X128599148Y-108419266D01*
X128599146Y-108419267D01*
X128599145Y-108419268D01*
X128471816Y-108532071D01*
X128375183Y-108672067D01*
X128375181Y-108672070D01*
X128375182Y-108672070D01*
X128314860Y-108831128D01*
X128294355Y-109000000D01*
X127000499Y-109000000D01*
X127000499Y-107000000D01*
X134294355Y-107000000D01*
X134314860Y-107168872D01*
X134375182Y-107327930D01*
X134471817Y-107467929D01*
X134599148Y-107580734D01*
X134749775Y-107659790D01*
X134749778Y-107659790D01*
X134749779Y-107659791D01*
X134914942Y-107700500D01*
X134914944Y-107700500D01*
X135085058Y-107700500D01*
X135197306Y-107672833D01*
X135250225Y-107659790D01*
X135400852Y-107580734D01*
X135528183Y-107467929D01*
X135624818Y-107327930D01*
X135685140Y-107168872D01*
X135705645Y-107000000D01*
X135685140Y-106831128D01*
X135624818Y-106672070D01*
X135564469Y-106584640D01*
X135538577Y-106511990D01*
X135552479Y-106436126D01*
X135564470Y-106415358D01*
X135624818Y-106327930D01*
X135685140Y-106168872D01*
X135705645Y-106000000D01*
X135685140Y-105831128D01*
X135624818Y-105672070D01*
X135528183Y-105532071D01*
X135400852Y-105419266D01*
X135364144Y-105400000D01*
X176694355Y-105400000D01*
X176714860Y-105568872D01*
X176775182Y-105727930D01*
X176871817Y-105867929D01*
X176999148Y-105980734D01*
X177149775Y-106059790D01*
X177149778Y-106059790D01*
X177149779Y-106059791D01*
X177314942Y-106100500D01*
X177314944Y-106100500D01*
X177485058Y-106100500D01*
X177597306Y-106072833D01*
X177650225Y-106059790D01*
X177800852Y-105980734D01*
X177928183Y-105867929D01*
X178024818Y-105727930D01*
X178085140Y-105568872D01*
X178105645Y-105400000D01*
X178085140Y-105231128D01*
X178024818Y-105072070D01*
X177928183Y-104932071D01*
X177800852Y-104819266D01*
X177650225Y-104740210D01*
X177650222Y-104740209D01*
X177650220Y-104740208D01*
X177485058Y-104699500D01*
X177485056Y-104699500D01*
X177314944Y-104699500D01*
X177314942Y-104699500D01*
X177149779Y-104740208D01*
X177149775Y-104740209D01*
X177149775Y-104740210D01*
X176999148Y-104819266D01*
X176999146Y-104819267D01*
X176999145Y-104819268D01*
X176871816Y-104932071D01*
X176775183Y-105072067D01*
X176775181Y-105072070D01*
X176775182Y-105072070D01*
X176714860Y-105231128D01*
X176694355Y-105400000D01*
X135364144Y-105400000D01*
X135250225Y-105340210D01*
X135250222Y-105340209D01*
X135250220Y-105340208D01*
X135085058Y-105299500D01*
X135085056Y-105299500D01*
X134914944Y-105299500D01*
X134914942Y-105299500D01*
X134749779Y-105340208D01*
X134749775Y-105340209D01*
X134749775Y-105340210D01*
X134599148Y-105419266D01*
X134599146Y-105419267D01*
X134599145Y-105419268D01*
X134471816Y-105532071D01*
X134375183Y-105672067D01*
X134375181Y-105672070D01*
X134375182Y-105672070D01*
X134314860Y-105831128D01*
X134294355Y-106000000D01*
X134314860Y-106168872D01*
X134375182Y-106327930D01*
X134435530Y-106415358D01*
X134461422Y-106488010D01*
X134447519Y-106563875D01*
X134435532Y-106584638D01*
X134375182Y-106672070D01*
X134314860Y-106831128D01*
X134294355Y-107000000D01*
X127000499Y-107000000D01*
X127000499Y-106672067D01*
X127000499Y-104000000D01*
X128294355Y-104000000D01*
X128314860Y-104168872D01*
X128375182Y-104327930D01*
X128375183Y-104327932D01*
X128471816Y-104467928D01*
X128471817Y-104467929D01*
X128599148Y-104580734D01*
X128749775Y-104659790D01*
X128749778Y-104659790D01*
X128749779Y-104659791D01*
X128914942Y-104700500D01*
X128914944Y-104700500D01*
X129085058Y-104700500D01*
X129197306Y-104672833D01*
X129250225Y-104659790D01*
X129400852Y-104580734D01*
X129528183Y-104467929D01*
X129624818Y-104327930D01*
X129685140Y-104168872D01*
X129705645Y-104000000D01*
X130294355Y-104000000D01*
X130314860Y-104168872D01*
X130375182Y-104327930D01*
X130375183Y-104327932D01*
X130471816Y-104467928D01*
X130471817Y-104467929D01*
X130599148Y-104580734D01*
X130749775Y-104659790D01*
X130749778Y-104659790D01*
X130749779Y-104659791D01*
X130914942Y-104700500D01*
X130914944Y-104700500D01*
X131085058Y-104700500D01*
X131197306Y-104672833D01*
X131250225Y-104659790D01*
X131400852Y-104580734D01*
X131528183Y-104467929D01*
X131624818Y-104327930D01*
X131685140Y-104168872D01*
X131705645Y-104000000D01*
X132294355Y-104000000D01*
X132314860Y-104168872D01*
X132375182Y-104327930D01*
X132375183Y-104327932D01*
X132471816Y-104467928D01*
X132471817Y-104467929D01*
X132599148Y-104580734D01*
X132749775Y-104659790D01*
X132749778Y-104659790D01*
X132749779Y-104659791D01*
X132914942Y-104700500D01*
X132914944Y-104700500D01*
X133085058Y-104700500D01*
X133197306Y-104672833D01*
X133250225Y-104659790D01*
X133400852Y-104580734D01*
X133528183Y-104467929D01*
X133624818Y-104327930D01*
X133685140Y-104168872D01*
X133705645Y-104000000D01*
X134294355Y-104000000D01*
X134314860Y-104168872D01*
X134375182Y-104327930D01*
X134375183Y-104327932D01*
X134471816Y-104467928D01*
X134471817Y-104467929D01*
X134599148Y-104580734D01*
X134749775Y-104659790D01*
X134749778Y-104659790D01*
X134749779Y-104659791D01*
X134914942Y-104700500D01*
X134914944Y-104700500D01*
X135085058Y-104700500D01*
X135197306Y-104672833D01*
X135250225Y-104659790D01*
X135400852Y-104580734D01*
X135528183Y-104467929D01*
X135624818Y-104327930D01*
X135685140Y-104168872D01*
X135705645Y-104000000D01*
X135685140Y-103831128D01*
X135673335Y-103800000D01*
X177694355Y-103800000D01*
X177714860Y-103968872D01*
X177775182Y-104127930D01*
X177775183Y-104127932D01*
X177803442Y-104168872D01*
X177871817Y-104267929D01*
X177999148Y-104380734D01*
X178149775Y-104459790D01*
X178149778Y-104459790D01*
X178149779Y-104459791D01*
X178314942Y-104500500D01*
X178314944Y-104500500D01*
X178485058Y-104500500D01*
X178617207Y-104467928D01*
X178650225Y-104459790D01*
X178800852Y-104380734D01*
X178928183Y-104267929D01*
X179024818Y-104127930D01*
X179085140Y-103968872D01*
X179105645Y-103800000D01*
X179085140Y-103631128D01*
X179024818Y-103472070D01*
X178928183Y-103332071D01*
X178800852Y-103219266D01*
X178650225Y-103140210D01*
X178650222Y-103140209D01*
X178650220Y-103140208D01*
X178485058Y-103099500D01*
X178485056Y-103099500D01*
X178314944Y-103099500D01*
X178314942Y-103099500D01*
X178149779Y-103140208D01*
X178149775Y-103140209D01*
X178149775Y-103140210D01*
X177999148Y-103219266D01*
X177999146Y-103219267D01*
X177999145Y-103219268D01*
X177871816Y-103332071D01*
X177775183Y-103472067D01*
X177775181Y-103472070D01*
X177775182Y-103472070D01*
X177714860Y-103631128D01*
X177694355Y-103800000D01*
X135673335Y-103800000D01*
X135624818Y-103672070D01*
X135528183Y-103532071D01*
X135400852Y-103419266D01*
X135250225Y-103340210D01*
X135250222Y-103340209D01*
X135250220Y-103340208D01*
X135085058Y-103299500D01*
X135085056Y-103299500D01*
X134914944Y-103299500D01*
X134914942Y-103299500D01*
X134749779Y-103340208D01*
X134749775Y-103340209D01*
X134749775Y-103340210D01*
X134599148Y-103419266D01*
X134599146Y-103419267D01*
X134599145Y-103419268D01*
X134471816Y-103532071D01*
X134375183Y-103672067D01*
X134375181Y-103672070D01*
X134375182Y-103672070D01*
X134314860Y-103831128D01*
X134294355Y-104000000D01*
X133705645Y-104000000D01*
X133685140Y-103831128D01*
X133624818Y-103672070D01*
X133528183Y-103532071D01*
X133400852Y-103419266D01*
X133250225Y-103340210D01*
X133250222Y-103340209D01*
X133250220Y-103340208D01*
X133085058Y-103299500D01*
X133085056Y-103299500D01*
X132914944Y-103299500D01*
X132914942Y-103299500D01*
X132749779Y-103340208D01*
X132749775Y-103340209D01*
X132749775Y-103340210D01*
X132599148Y-103419266D01*
X132599146Y-103419267D01*
X132599145Y-103419268D01*
X132471816Y-103532071D01*
X132375183Y-103672067D01*
X132375181Y-103672070D01*
X132375182Y-103672070D01*
X132314860Y-103831128D01*
X132294355Y-104000000D01*
X131705645Y-104000000D01*
X131685140Y-103831128D01*
X131624818Y-103672070D01*
X131528183Y-103532071D01*
X131400852Y-103419266D01*
X131250225Y-103340210D01*
X131250222Y-103340209D01*
X131250220Y-103340208D01*
X131085058Y-103299500D01*
X131085056Y-103299500D01*
X130914944Y-103299500D01*
X130914942Y-103299500D01*
X130749779Y-103340208D01*
X130749775Y-103340209D01*
X130749775Y-103340210D01*
X130599148Y-103419266D01*
X130599146Y-103419267D01*
X130599145Y-103419268D01*
X130471816Y-103532071D01*
X130375183Y-103672067D01*
X130375181Y-103672070D01*
X130375182Y-103672070D01*
X130314860Y-103831128D01*
X130294355Y-104000000D01*
X129705645Y-104000000D01*
X129685140Y-103831128D01*
X129624818Y-103672070D01*
X129528183Y-103532071D01*
X129400852Y-103419266D01*
X129250225Y-103340210D01*
X129250222Y-103340209D01*
X129250220Y-103340208D01*
X129085058Y-103299500D01*
X129085056Y-103299500D01*
X128914944Y-103299500D01*
X128914942Y-103299500D01*
X128749779Y-103340208D01*
X128749775Y-103340209D01*
X128749775Y-103340210D01*
X128599148Y-103419266D01*
X128599146Y-103419267D01*
X128599145Y-103419268D01*
X128471816Y-103532071D01*
X128375183Y-103672067D01*
X128375181Y-103672070D01*
X128375182Y-103672070D01*
X128314860Y-103831128D01*
X128294355Y-104000000D01*
X127000499Y-104000000D01*
X127000499Y-100358567D01*
X127000541Y-100350000D01*
X127000383Y-100349617D01*
X127000382Y-100349616D01*
X127000099Y-100349500D01*
X127000000Y-100349459D01*
X126970474Y-100349459D01*
X126970268Y-100349500D01*
X121061218Y-100349500D01*
X120986718Y-100329538D01*
X120955859Y-100305859D01*
X120044141Y-99394141D01*
X120005577Y-99327346D01*
X120000500Y-99288782D01*
X120000500Y-90910948D01*
X121464500Y-90910948D01*
X121464631Y-90913152D01*
X121464632Y-90913175D01*
X121467375Y-90959223D01*
X121513065Y-91169257D01*
X121597680Y-91366851D01*
X121718154Y-91544852D01*
X121870147Y-91696845D01*
X122048148Y-91817319D01*
X122048150Y-91817320D01*
X122048152Y-91817321D01*
X122245741Y-91901934D01*
X122455774Y-91947624D01*
X122504052Y-91950500D01*
X122506275Y-91950500D01*
X125263725Y-91950500D01*
X125265948Y-91950500D01*
X125314226Y-91947624D01*
X125524259Y-91901934D01*
X125721848Y-91817321D01*
X125899855Y-91696843D01*
X125966019Y-91630679D01*
X137464500Y-91630679D01*
X137464501Y-91632608D01*
X137464604Y-91634555D01*
X137464605Y-91634578D01*
X137466990Y-91679504D01*
X137466991Y-91679517D01*
X137467264Y-91684647D01*
X137468240Y-91689694D01*
X137468241Y-91689701D01*
X137511238Y-91912025D01*
X137593008Y-92128701D01*
X137710218Y-92328435D01*
X137710220Y-92328437D01*
X137710221Y-92328439D01*
X137859503Y-92505497D01*
X138036561Y-92654779D01*
X138036563Y-92654780D01*
X138036564Y-92654781D01*
X138236298Y-92771991D01*
X138452974Y-92853761D01*
X138508049Y-92864412D01*
X138680353Y-92897736D01*
X138732391Y-92900500D01*
X141037608Y-92900499D01*
X141089647Y-92897736D01*
X141317025Y-92853761D01*
X141533701Y-92771991D01*
X141659175Y-92698358D01*
X141733439Y-92654779D01*
X141910497Y-92505497D01*
X142059779Y-92328439D01*
X142103358Y-92254175D01*
X142176991Y-92128701D01*
X142258761Y-91912025D01*
X142260713Y-91901934D01*
X142302736Y-91684647D01*
X142305500Y-91632609D01*
X142305499Y-88367392D01*
X142302736Y-88315353D01*
X142260713Y-88098066D01*
X142258761Y-88087974D01*
X142176991Y-87871298D01*
X142059781Y-87671564D01*
X142059780Y-87671563D01*
X142059779Y-87671561D01*
X141910497Y-87494503D01*
X141733439Y-87345221D01*
X141733437Y-87345220D01*
X141733435Y-87345218D01*
X141533701Y-87228008D01*
X141317025Y-87146238D01*
X141094705Y-87103242D01*
X141094701Y-87103241D01*
X141089647Y-87102264D01*
X141084510Y-87101991D01*
X141084501Y-87101990D01*
X141039574Y-87099604D01*
X141039560Y-87099603D01*
X141037609Y-87099500D01*
X141035645Y-87099500D01*
X138734357Y-87099500D01*
X138734319Y-87099500D01*
X138732392Y-87099501D01*
X138730445Y-87099604D01*
X138730421Y-87099605D01*
X138685495Y-87101990D01*
X138685480Y-87101991D01*
X138680353Y-87102264D01*
X138675307Y-87103239D01*
X138675298Y-87103241D01*
X138452974Y-87146238D01*
X138236298Y-87228008D01*
X138036564Y-87345218D01*
X137859503Y-87494503D01*
X137710218Y-87671564D01*
X137593008Y-87871298D01*
X137511238Y-88087974D01*
X137468242Y-88310294D01*
X137467264Y-88315353D01*
X137466991Y-88320487D01*
X137466990Y-88320498D01*
X137464604Y-88365425D01*
X137464500Y-88367391D01*
X137464500Y-88369353D01*
X137464500Y-88369354D01*
X137464500Y-91630642D01*
X137464500Y-91630679D01*
X125966019Y-91630679D01*
X126051843Y-91544855D01*
X126172321Y-91366848D01*
X126256934Y-91169259D01*
X126302624Y-90959226D01*
X126305500Y-90910948D01*
X126305500Y-89089052D01*
X126302624Y-89040774D01*
X126256934Y-88830741D01*
X126172321Y-88633152D01*
X126172320Y-88633150D01*
X126172319Y-88633148D01*
X126051845Y-88455147D01*
X125899852Y-88303154D01*
X125721851Y-88182680D01*
X125524257Y-88098065D01*
X125314223Y-88052375D01*
X125268175Y-88049632D01*
X125268152Y-88049631D01*
X125265948Y-88049500D01*
X122504052Y-88049500D01*
X122501848Y-88049631D01*
X122501824Y-88049632D01*
X122455776Y-88052375D01*
X122245742Y-88098065D01*
X122048148Y-88182680D01*
X121870147Y-88303154D01*
X121718154Y-88455147D01*
X121597680Y-88633148D01*
X121513065Y-88830742D01*
X121467375Y-89040776D01*
X121464632Y-89086824D01*
X121464631Y-89086848D01*
X121464500Y-89089052D01*
X121464500Y-90910948D01*
X120000500Y-90910948D01*
X120000500Y-84177727D01*
X120000545Y-84174070D01*
X120006235Y-83942306D01*
X122641828Y-83942306D01*
X122651614Y-84172668D01*
X122700190Y-84398062D01*
X122786159Y-84612006D01*
X122907049Y-84808343D01*
X123059380Y-84981425D01*
X123238772Y-85126274D01*
X123440063Y-85238721D01*
X123657462Y-85315533D01*
X123884715Y-85354500D01*
X123884717Y-85354500D01*
X124054362Y-85354500D01*
X124057535Y-85354500D01*
X124211385Y-85341405D01*
X124229740Y-85339843D01*
X124452865Y-85281746D01*
X124452864Y-85281746D01*
X124452869Y-85281745D01*
X124662971Y-85186773D01*
X124854000Y-85057659D01*
X125020462Y-84898119D01*
X125157566Y-84712742D01*
X125261370Y-84506860D01*
X125328886Y-84286397D01*
X125358172Y-84057694D01*
X125353270Y-83942306D01*
X194641828Y-83942306D01*
X194651614Y-84172668D01*
X194700190Y-84398062D01*
X194786159Y-84612006D01*
X194907049Y-84808343D01*
X195059380Y-84981425D01*
X195238772Y-85126274D01*
X195440063Y-85238721D01*
X195657462Y-85315533D01*
X195884715Y-85354500D01*
X195884717Y-85354500D01*
X196054362Y-85354500D01*
X196057535Y-85354500D01*
X196211385Y-85341405D01*
X196229740Y-85339843D01*
X196452865Y-85281746D01*
X196452864Y-85281746D01*
X196452869Y-85281745D01*
X196662971Y-85186773D01*
X196854000Y-85057659D01*
X197020462Y-84898119D01*
X197157566Y-84712742D01*
X197261370Y-84506860D01*
X197328886Y-84286397D01*
X197358172Y-84057694D01*
X197348386Y-83827332D01*
X197299810Y-83601938D01*
X197213841Y-83387994D01*
X197092951Y-83191657D01*
X196940620Y-83018575D01*
X196761228Y-82873726D01*
X196761227Y-82873725D01*
X196559940Y-82761280D01*
X196342538Y-82684467D01*
X196342537Y-82684467D01*
X196115285Y-82645500D01*
X195942465Y-82645500D01*
X195939309Y-82645768D01*
X195939300Y-82645769D01*
X195770259Y-82660156D01*
X195547134Y-82718253D01*
X195337030Y-82813226D01*
X195145996Y-82942344D01*
X194979536Y-83101882D01*
X194842434Y-83287255D01*
X194738631Y-83493137D01*
X194671113Y-83713605D01*
X194641828Y-83942303D01*
X194641828Y-83942306D01*
X125353270Y-83942306D01*
X125348386Y-83827332D01*
X125299810Y-83601938D01*
X125213841Y-83387994D01*
X125092951Y-83191657D01*
X124940620Y-83018575D01*
X124761228Y-82873726D01*
X124761227Y-82873725D01*
X124559940Y-82761280D01*
X124342538Y-82684467D01*
X124342537Y-82684467D01*
X124115285Y-82645500D01*
X123942465Y-82645500D01*
X123939309Y-82645768D01*
X123939300Y-82645769D01*
X123770259Y-82660156D01*
X123547134Y-82718253D01*
X123337030Y-82813226D01*
X123145996Y-82942344D01*
X122979536Y-83101882D01*
X122842434Y-83287255D01*
X122738631Y-83493137D01*
X122671113Y-83713605D01*
X122641828Y-83942303D01*
X122641828Y-83942306D01*
X120006235Y-83942306D01*
X120009496Y-83809458D01*
X120010168Y-83798511D01*
X120047344Y-83421051D01*
X120049485Y-83406617D01*
X120123122Y-83036420D01*
X120126674Y-83022245D01*
X120236236Y-82661067D01*
X120241157Y-82647312D01*
X120385607Y-82298577D01*
X120391843Y-82285393D01*
X120569765Y-81952525D01*
X120577274Y-81939996D01*
X120786984Y-81626142D01*
X120795663Y-81614438D01*
X121035137Y-81322638D01*
X121044929Y-81311835D01*
X121311835Y-81044929D01*
X121322638Y-81035137D01*
X121614438Y-80795663D01*
X121626142Y-80786984D01*
X121939996Y-80577274D01*
X121952525Y-80569765D01*
X122285393Y-80391843D01*
X122298577Y-80385607D01*
X122647312Y-80241157D01*
X122661060Y-80236238D01*
X123022244Y-80126674D01*
X123036420Y-80123122D01*
X123406617Y-80049485D01*
X123421051Y-80047344D01*
X123798515Y-80010167D01*
X123809453Y-80009496D01*
X124174071Y-80000544D01*
X124177728Y-80000500D01*
X195822272Y-80000500D01*
X195825928Y-80000544D01*
G37*
%TD.AperFunction*%
%TD*%
%TA.AperFunction,Conductor*%
%TO.N,/BT1*%
G36*
X198442847Y-87219685D02*
G01*
X198488602Y-87272489D01*
X198499808Y-87324192D01*
X198466733Y-108723089D01*
X198446945Y-108790098D01*
X198436438Y-108804108D01*
X194800000Y-112999997D01*
X194800000Y-127000002D01*
X197554196Y-130177918D01*
X198401641Y-131155740D01*
X198430672Y-131219292D01*
X198431936Y-131237142D01*
X198400191Y-151776192D01*
X198380403Y-151843201D01*
X198327528Y-151888874D01*
X198276191Y-151900000D01*
X177924000Y-151900000D01*
X177856961Y-151880315D01*
X177811206Y-151827511D01*
X177800000Y-151776000D01*
X177800000Y-147255957D01*
X177819685Y-147188918D01*
X177841959Y-147162977D01*
X189700000Y-136700000D01*
X189706306Y-134650417D01*
X189715741Y-134603362D01*
X189735044Y-134556762D01*
X189755682Y-134400000D01*
X189735044Y-134243238D01*
X189717274Y-134200338D01*
X189707838Y-134152513D01*
X189766141Y-115203984D01*
X189779655Y-115148075D01*
X189790461Y-115126868D01*
X189810555Y-115000000D01*
X189790461Y-114873132D01*
X189790461Y-114873131D01*
X189780905Y-114854376D01*
X189767391Y-114797702D01*
X189779711Y-110793917D01*
X189783891Y-110773077D01*
X189782913Y-110772949D01*
X189805682Y-110600000D01*
X189782913Y-110427052D01*
X189784579Y-110426832D01*
X189780897Y-110408182D01*
X189781790Y-110117963D01*
X189801680Y-110050988D01*
X189854625Y-110005396D01*
X189921971Y-109995409D01*
X190000000Y-110005682D01*
X190156762Y-109985044D01*
X190302841Y-109924536D01*
X190428282Y-109828282D01*
X190524536Y-109702841D01*
X190585044Y-109556762D01*
X190605682Y-109400000D01*
X190585044Y-109243238D01*
X190524536Y-109097159D01*
X190524535Y-109097158D01*
X190428282Y-108971717D01*
X190302840Y-108875463D01*
X190156762Y-108814956D01*
X189999998Y-108794317D01*
X189926395Y-108804007D01*
X189857360Y-108793241D01*
X189805105Y-108746860D01*
X189786213Y-108680690D01*
X189800000Y-104200000D01*
X182227034Y-97005682D01*
X181589474Y-96400000D01*
X186194317Y-96400000D01*
X186214956Y-96556762D01*
X186275463Y-96702840D01*
X186371717Y-96828282D01*
X186497159Y-96924535D01*
X186497159Y-96924536D01*
X186643238Y-96985044D01*
X186800000Y-97005682D01*
X186956762Y-96985044D01*
X187102841Y-96924536D01*
X187228282Y-96828282D01*
X187324536Y-96702841D01*
X187385044Y-96556762D01*
X187405682Y-96400000D01*
X187385044Y-96243238D01*
X187324536Y-96097159D01*
X187324535Y-96097159D01*
X187228282Y-95971717D01*
X187102840Y-95875463D01*
X186956762Y-95814956D01*
X186800000Y-95794317D01*
X186643237Y-95814956D01*
X186497159Y-95875463D01*
X186371717Y-95971717D01*
X186275463Y-96097159D01*
X186214956Y-96243237D01*
X186194317Y-96400000D01*
X181589474Y-96400000D01*
X180536842Y-95400000D01*
X187994317Y-95400000D01*
X188014956Y-95556762D01*
X188075463Y-95702840D01*
X188171717Y-95828282D01*
X188297159Y-95924535D01*
X188297159Y-95924536D01*
X188443238Y-95985044D01*
X188600000Y-96005682D01*
X188756762Y-95985044D01*
X188902841Y-95924536D01*
X189028282Y-95828282D01*
X189124536Y-95702841D01*
X189185044Y-95556762D01*
X189205682Y-95400000D01*
X189185044Y-95243238D01*
X189124536Y-95097159D01*
X189124536Y-95097158D01*
X189028282Y-94971717D01*
X188902840Y-94875463D01*
X188756762Y-94814956D01*
X188600000Y-94794317D01*
X188443237Y-94814956D01*
X188297159Y-94875463D01*
X188171717Y-94971717D01*
X188075463Y-95097159D01*
X188014956Y-95243237D01*
X187994317Y-95400000D01*
X180536842Y-95400000D01*
X177838595Y-92836665D01*
X177803549Y-92776220D01*
X177800000Y-92746765D01*
X177800000Y-92000000D01*
X184594317Y-92000000D01*
X184614956Y-92156762D01*
X184675463Y-92302840D01*
X184771717Y-92428282D01*
X184897159Y-92524535D01*
X184897159Y-92524536D01*
X185043238Y-92585044D01*
X185200000Y-92605682D01*
X185356762Y-92585044D01*
X185502841Y-92524536D01*
X185628282Y-92428282D01*
X185724536Y-92302841D01*
X185785044Y-92156762D01*
X185805682Y-92000000D01*
X185785044Y-91843238D01*
X185724536Y-91697159D01*
X185724535Y-91697159D01*
X185628282Y-91571717D01*
X185502840Y-91475463D01*
X185356762Y-91414956D01*
X185200000Y-91394317D01*
X185043237Y-91414956D01*
X184897159Y-91475463D01*
X184771717Y-91571717D01*
X184675463Y-91697159D01*
X184614956Y-91843237D01*
X184594317Y-92000000D01*
X177800000Y-92000000D01*
X177800000Y-89137499D01*
X186456817Y-89137499D01*
X186477456Y-89294262D01*
X186537963Y-89440340D01*
X186634217Y-89565782D01*
X186759658Y-89662036D01*
X186759659Y-89662036D01*
X186905738Y-89722544D01*
X187041860Y-89740464D01*
X187062499Y-89743182D01*
X187062499Y-89743181D01*
X187062500Y-89743182D01*
X187219262Y-89722544D01*
X187365341Y-89662036D01*
X187490782Y-89565782D01*
X187587036Y-89440341D01*
X187647544Y-89294262D01*
X187668182Y-89137500D01*
X187647544Y-88980738D01*
X187587036Y-88834659D01*
X187541630Y-88775484D01*
X187516437Y-88710318D01*
X187530475Y-88641873D01*
X187541626Y-88624519D01*
X187587036Y-88565341D01*
X187647544Y-88419262D01*
X187668182Y-88262500D01*
X187647544Y-88105738D01*
X187587036Y-87959659D01*
X187587035Y-87959659D01*
X187490782Y-87834217D01*
X187365340Y-87737963D01*
X187219262Y-87677456D01*
X187062500Y-87656817D01*
X186905737Y-87677456D01*
X186759659Y-87737963D01*
X186634217Y-87834217D01*
X186537963Y-87959659D01*
X186477456Y-88105737D01*
X186456817Y-88262500D01*
X186477456Y-88419262D01*
X186537963Y-88565340D01*
X186583368Y-88624514D01*
X186608562Y-88689684D01*
X186594523Y-88758128D01*
X186583368Y-88775486D01*
X186537963Y-88834659D01*
X186477456Y-88980737D01*
X186456817Y-89137499D01*
X177800000Y-89137499D01*
X177800000Y-87324000D01*
X177819685Y-87256961D01*
X177872489Y-87211206D01*
X177924000Y-87200000D01*
X198375808Y-87200000D01*
X198442847Y-87219685D01*
G37*
%TD.AperFunction*%
%TD*%
%TA.AperFunction,Conductor*%
%TO.N,/SW1*%
G36*
X141043039Y-112019685D02*
G01*
X141088794Y-112072489D01*
X141100000Y-112124000D01*
X141100000Y-112348714D01*
X141098939Y-112364899D01*
X141094317Y-112399999D01*
X141098939Y-112435099D01*
X141100000Y-112451285D01*
X141100000Y-113348714D01*
X141098939Y-113364899D01*
X141094317Y-113399999D01*
X141098939Y-113435099D01*
X141100000Y-113451285D01*
X141100000Y-114348714D01*
X141098939Y-114364899D01*
X141094317Y-114399999D01*
X141098939Y-114435099D01*
X141100000Y-114451285D01*
X141100000Y-114797786D01*
X141099921Y-114802212D01*
X140904270Y-120280426D01*
X140882205Y-120346720D01*
X140827802Y-120390561D01*
X140780349Y-120400000D01*
X140124000Y-120400000D01*
X140056961Y-120380315D01*
X140011206Y-120327511D01*
X140000000Y-120276000D01*
X140000000Y-119503951D01*
X140000252Y-119496052D01*
X140000251Y-119496052D01*
X140300000Y-114800000D01*
X140300000Y-112124000D01*
X140319685Y-112056961D01*
X140372489Y-112011206D01*
X140424000Y-112000000D01*
X140976000Y-112000000D01*
X141043039Y-112019685D01*
G37*
%TD.AperFunction*%
%TD*%
%TA.AperFunction,Conductor*%
%TO.N,/SW2*%
G36*
X142043039Y-112019685D02*
G01*
X142088794Y-112072489D01*
X142100000Y-112124000D01*
X142100000Y-114800000D01*
X142100125Y-114801971D01*
X142100126Y-114801977D01*
X142399748Y-119496052D01*
X142400000Y-119503951D01*
X142400000Y-120276000D01*
X142380315Y-120343039D01*
X142327511Y-120388794D01*
X142276000Y-120400000D01*
X141619650Y-120400000D01*
X141552611Y-120380315D01*
X141506856Y-120327511D01*
X141495729Y-120280428D01*
X141302957Y-114882795D01*
X141302957Y-114873951D01*
X141305388Y-114805879D01*
X141305414Y-114804529D01*
X141305500Y-114797786D01*
X141305500Y-114451281D01*
X141305450Y-114449245D01*
X141305060Y-114437843D01*
X141304945Y-114435842D01*
X141304597Y-114430785D01*
X141304575Y-114430449D01*
X141305369Y-114406144D01*
X141306179Y-114400000D01*
X141305369Y-114393855D01*
X141304575Y-114369549D01*
X141305060Y-114362157D01*
X141305061Y-114362140D01*
X141305145Y-114360105D01*
X141305500Y-114348714D01*
X141305516Y-114346697D01*
X141305500Y-113451285D01*
X141305450Y-113449245D01*
X141305060Y-113437843D01*
X141304945Y-113435842D01*
X141304442Y-113428418D01*
X141304409Y-113427917D01*
X141305206Y-113403612D01*
X141305682Y-113400000D01*
X141305204Y-113396375D01*
X141304409Y-113372081D01*
X141305060Y-113362157D01*
X141305061Y-113362119D01*
X141305145Y-113360105D01*
X141305500Y-113348714D01*
X141305516Y-113346697D01*
X141305500Y-112451285D01*
X141305450Y-112449245D01*
X141305060Y-112437843D01*
X141304945Y-112435842D01*
X141304442Y-112428418D01*
X141304409Y-112427917D01*
X141305206Y-112403612D01*
X141305682Y-112400000D01*
X141305204Y-112396375D01*
X141304409Y-112372081D01*
X141305060Y-112362157D01*
X141305061Y-112362119D01*
X141305145Y-112360105D01*
X141305500Y-112348714D01*
X141305516Y-112346697D01*
X141305500Y-112124000D01*
X141325185Y-112056961D01*
X141377989Y-112011206D01*
X141429500Y-112000000D01*
X141976000Y-112000000D01*
X142043039Y-112019685D01*
G37*
%TD.AperFunction*%
%TD*%
M02*
