%TF.GenerationSoftware,KiCad,Pcbnew,7.0.2*%
%TF.CreationDate,2023-05-28T21:21:49-04:00*%
%TF.ProjectId,AutoTiller,4175746f-5469-46c6-9c65-722e6b696361,rev?*%
%TF.SameCoordinates,Original*%
%TF.FileFunction,Legend,Bot*%
%TF.FilePolarity,Positive*%
%FSLAX46Y46*%
G04 Gerber Fmt 4.6, Leading zero omitted, Abs format (unit mm)*
G04 Created by KiCad (PCBNEW 7.0.2) date 2023-05-28 21:21:49*
%MOMM*%
%LPD*%
G01*
G04 APERTURE LIST*
%ADD10C,1.000000*%
%ADD11C,0.120000*%
%ADD12C,0.100000*%
G04 APERTURE END LIST*
D10*
X162173168Y-130238793D02*
X162173168Y-112500000D01*
X168999999Y-116000001D02*
G75*
G03*
X169360546Y-123832481I-6826830J-4238793D01*
G01*
X162173168Y-130238792D02*
G75*
G03*
X155102101Y-127309860I-1J9999998D01*
G01*
D11*
%TO.C,C37*%
X189997500Y-93042164D02*
X189997500Y-93257836D01*
X189277500Y-93042164D02*
X189277500Y-93257836D01*
%TO.C,C7*%
X143560000Y-119812164D02*
X143560000Y-120027836D01*
X142840000Y-119812164D02*
X142840000Y-120027836D01*
%TO.C,C39*%
X187945336Y-91710000D02*
X187729664Y-91710000D01*
X187945336Y-90990000D02*
X187729664Y-90990000D01*
%TO.C,C41*%
X187978080Y-90660000D02*
X187696920Y-90660000D01*
X187978080Y-89640000D02*
X187696920Y-89640000D01*
%TO.C,U2*%
X186737500Y-94250000D02*
X187237500Y-94250000D01*
X187237500Y-94250000D02*
X187237500Y-94250000D01*
X188937500Y-94250000D02*
X188937500Y-94250000D01*
X186737500Y-93750000D02*
X186737500Y-94250000D01*
X188937500Y-93750000D02*
X188937500Y-94250000D01*
X186737500Y-92550000D02*
X186737500Y-92550000D01*
X188937500Y-92550000D02*
X188937500Y-92050000D01*
X186737500Y-92050000D02*
X186737500Y-92550000D01*
X187237500Y-92050000D02*
X186737500Y-92050000D01*
X188437500Y-92050000D02*
X188437500Y-92050000D01*
X188937500Y-92050000D02*
X188437500Y-92050000D01*
D12*
%TO.C,SW3*%
X161000000Y-96500000D02*
X159000000Y-96500000D01*
X159000000Y-96500000D02*
X159000000Y-97500000D01*
X159000000Y-97500000D02*
X161000000Y-97500000D01*
X161000000Y-97500000D02*
X161000000Y-96500000D01*
%TO.C,SW2*%
X141000000Y-142500000D02*
X139000000Y-142500000D01*
X139000000Y-142500000D02*
X139000000Y-143500000D01*
X139000000Y-143500000D02*
X141000000Y-143500000D01*
X141000000Y-143500000D02*
X141000000Y-142500000D01*
%TO.C,SW7*%
X181000000Y-96500000D02*
X179000000Y-96500000D01*
X179000000Y-96500000D02*
X179000000Y-97500000D01*
X179000000Y-97500000D02*
X181000000Y-97500000D01*
X181000000Y-97500000D02*
X181000000Y-96500000D01*
D11*
%TO.C,C36*%
X185677500Y-93257836D02*
X185677500Y-93042164D01*
X186397500Y-93257836D02*
X186397500Y-93042164D01*
D12*
%TO.C,SW1*%
X141000000Y-96500000D02*
X139000000Y-96500000D01*
X139000000Y-96500000D02*
X139000000Y-97500000D01*
X139000000Y-97500000D02*
X141000000Y-97500000D01*
X141000000Y-97500000D02*
X141000000Y-96500000D01*
D11*
%TO.C,J2*%
X193700000Y-122890000D02*
X193700000Y-121565000D01*
X189835000Y-121565000D02*
X189835000Y-118035000D01*
X189900000Y-121565000D02*
X189835000Y-121565000D01*
X193765000Y-121565000D02*
X193700000Y-121565000D01*
X193765000Y-121565000D02*
X193765000Y-118035000D01*
X189900000Y-118035000D02*
X189835000Y-118035000D01*
X193765000Y-118035000D02*
X193700000Y-118035000D01*
D12*
%TO.C,SW6*%
X181000000Y-142500000D02*
X179000000Y-142500000D01*
X179000000Y-142500000D02*
X179000000Y-143500000D01*
X179000000Y-143500000D02*
X181000000Y-143500000D01*
X181000000Y-143500000D02*
X181000000Y-142500000D01*
D11*
%TO.C,C6*%
X138840000Y-120027836D02*
X138840000Y-119812164D01*
X139560000Y-120027836D02*
X139560000Y-119812164D01*
D12*
%TO.C,SW4*%
X161000000Y-142500000D02*
X159000000Y-142500000D01*
X159000000Y-142500000D02*
X159000000Y-143500000D01*
X159000000Y-143500000D02*
X161000000Y-143500000D01*
X161000000Y-143500000D02*
X161000000Y-142500000D01*
%TD*%
M02*
