%TF.GenerationSoftware,KiCad,Pcbnew,(7.0.0)*%
%TF.CreationDate,2023-05-08T11:18:22-04:00*%
%TF.ProjectId,AutoTiller,4175746f-5469-46c6-9c65-722e6b696361,rev?*%
%TF.SameCoordinates,Original*%
%TF.FileFunction,Drillmap*%
%TF.FilePolarity,Positive*%
%FSLAX45Y45*%
G04 Gerber Fmt 4.5, Leading zero omitted, Abs format (unit mm)*
G04 Created by KiCad (PCBNEW (7.0.0)) date 2023-05-08 11:18:22*
%MOMM*%
%LPD*%
G01*
G04 APERTURE LIST*
%ADD10C,0.100000*%
%ADD11C,0.200000*%
%ADD12C,0.060000*%
%ADD13C,0.220000*%
G04 APERTURE END LIST*
D10*
X9400000Y-13200000D02*
X22100000Y-13200000D01*
X13650000Y-10700000D02*
X15050000Y-10700000D01*
X15050000Y-10700000D02*
X15050000Y-10000000D01*
X9000000Y-10400000D02*
X9000000Y-12800000D01*
X22500000Y-12800000D02*
X22500000Y-10400000D01*
X13650000Y-10000000D02*
X13650000Y-10700000D01*
X9400000Y-10000000D02*
G75*
G03*
X9000000Y-10400000I0J-400000D01*
G01*
X22100000Y-10000000D02*
X15050000Y-10000000D01*
X13650000Y-10000000D02*
X9400000Y-10000000D01*
X22500000Y-10400000D02*
G75*
G03*
X22100000Y-10000000I-400000J0D01*
G01*
X9000000Y-12800000D02*
G75*
G03*
X9400000Y-13200000I400000J0D01*
G01*
X22100000Y-13200000D02*
G75*
G03*
X22500000Y-12800000I0J400000D01*
G01*
D11*
D12*
X9465000Y-11270000D02*
X9525000Y-11330000D01*
X9525000Y-11270000D02*
X9465000Y-11330000D01*
X9465000Y-11870000D02*
X9525000Y-11930000D01*
X9525000Y-11870000D02*
X9465000Y-11930000D01*
D11*
X9465000Y-11887500D02*
X9465000Y-11912500D01*
X9465000Y-11912500D02*
G75*
G03*
X9525000Y-11912500I30000J0D01*
G01*
X9525000Y-11912500D02*
X9525000Y-11887500D01*
X9525000Y-11887500D02*
G75*
G03*
X9465000Y-11887500I-30000J0D01*
G01*
D13*
X9510000Y-10400000D02*
G75*
G03*
X9510000Y-10400000I-110000J0D01*
G01*
X9510000Y-12800000D02*
G75*
G03*
X9510000Y-12800000I-110000J0D01*
G01*
X22230000Y-10400000D02*
G75*
G03*
X22230000Y-10400000I-110000J0D01*
G01*
X22230000Y-12800000D02*
G75*
G03*
X22230000Y-12800000I-110000J0D01*
G01*
D11*
X9242619Y-13498476D02*
X9242619Y-13298476D01*
X9242619Y-13298476D02*
X9290238Y-13298476D01*
X9290238Y-13298476D02*
X9318810Y-13308000D01*
X9318810Y-13308000D02*
X9337857Y-13327048D01*
X9337857Y-13327048D02*
X9347381Y-13346095D01*
X9347381Y-13346095D02*
X9356905Y-13384190D01*
X9356905Y-13384190D02*
X9356905Y-13412762D01*
X9356905Y-13412762D02*
X9347381Y-13450857D01*
X9347381Y-13450857D02*
X9337857Y-13469905D01*
X9337857Y-13469905D02*
X9318810Y-13488952D01*
X9318810Y-13488952D02*
X9290238Y-13498476D01*
X9290238Y-13498476D02*
X9242619Y-13498476D01*
X9442619Y-13498476D02*
X9442619Y-13365143D01*
X9442619Y-13403238D02*
X9452143Y-13384190D01*
X9452143Y-13384190D02*
X9461667Y-13374667D01*
X9461667Y-13374667D02*
X9480714Y-13365143D01*
X9480714Y-13365143D02*
X9499762Y-13365143D01*
X9566429Y-13498476D02*
X9566429Y-13365143D01*
X9566429Y-13298476D02*
X9556905Y-13308000D01*
X9556905Y-13308000D02*
X9566429Y-13317524D01*
X9566429Y-13317524D02*
X9575952Y-13308000D01*
X9575952Y-13308000D02*
X9566429Y-13298476D01*
X9566429Y-13298476D02*
X9566429Y-13317524D01*
X9690238Y-13498476D02*
X9671190Y-13488952D01*
X9671190Y-13488952D02*
X9661667Y-13469905D01*
X9661667Y-13469905D02*
X9661667Y-13298476D01*
X9795000Y-13498476D02*
X9775952Y-13488952D01*
X9775952Y-13488952D02*
X9766429Y-13469905D01*
X9766429Y-13469905D02*
X9766429Y-13298476D01*
X9991190Y-13498476D02*
X9991190Y-13298476D01*
X9991190Y-13298476D02*
X10057857Y-13441333D01*
X10057857Y-13441333D02*
X10124524Y-13298476D01*
X10124524Y-13298476D02*
X10124524Y-13498476D01*
X10305476Y-13498476D02*
X10305476Y-13393714D01*
X10305476Y-13393714D02*
X10295952Y-13374667D01*
X10295952Y-13374667D02*
X10276905Y-13365143D01*
X10276905Y-13365143D02*
X10238809Y-13365143D01*
X10238809Y-13365143D02*
X10219762Y-13374667D01*
X10305476Y-13488952D02*
X10286429Y-13498476D01*
X10286429Y-13498476D02*
X10238809Y-13498476D01*
X10238809Y-13498476D02*
X10219762Y-13488952D01*
X10219762Y-13488952D02*
X10210238Y-13469905D01*
X10210238Y-13469905D02*
X10210238Y-13450857D01*
X10210238Y-13450857D02*
X10219762Y-13431809D01*
X10219762Y-13431809D02*
X10238809Y-13422286D01*
X10238809Y-13422286D02*
X10286429Y-13422286D01*
X10286429Y-13422286D02*
X10305476Y-13412762D01*
X10400714Y-13365143D02*
X10400714Y-13565143D01*
X10400714Y-13374667D02*
X10419762Y-13365143D01*
X10419762Y-13365143D02*
X10457857Y-13365143D01*
X10457857Y-13365143D02*
X10476905Y-13374667D01*
X10476905Y-13374667D02*
X10486429Y-13384190D01*
X10486429Y-13384190D02*
X10495952Y-13403238D01*
X10495952Y-13403238D02*
X10495952Y-13460381D01*
X10495952Y-13460381D02*
X10486429Y-13479428D01*
X10486429Y-13479428D02*
X10476905Y-13488952D01*
X10476905Y-13488952D02*
X10457857Y-13498476D01*
X10457857Y-13498476D02*
X10419762Y-13498476D01*
X10419762Y-13498476D02*
X10400714Y-13488952D01*
X10581667Y-13479428D02*
X10591190Y-13488952D01*
X10591190Y-13488952D02*
X10581667Y-13498476D01*
X10581667Y-13498476D02*
X10572143Y-13488952D01*
X10572143Y-13488952D02*
X10581667Y-13479428D01*
X10581667Y-13479428D02*
X10581667Y-13498476D01*
X10581667Y-13374667D02*
X10591190Y-13384190D01*
X10591190Y-13384190D02*
X10581667Y-13393714D01*
X10581667Y-13393714D02*
X10572143Y-13384190D01*
X10572143Y-13384190D02*
X10581667Y-13374667D01*
X10581667Y-13374667D02*
X10581667Y-13393714D01*
D12*
X8935000Y-13815000D02*
X8995000Y-13875000D01*
X8995000Y-13815000D02*
X8935000Y-13875000D01*
D11*
X9280714Y-13718476D02*
X9299762Y-13718476D01*
X9299762Y-13718476D02*
X9318810Y-13728000D01*
X9318810Y-13728000D02*
X9328333Y-13737524D01*
X9328333Y-13737524D02*
X9337857Y-13756571D01*
X9337857Y-13756571D02*
X9347381Y-13794667D01*
X9347381Y-13794667D02*
X9347381Y-13842286D01*
X9347381Y-13842286D02*
X9337857Y-13880381D01*
X9337857Y-13880381D02*
X9328333Y-13899428D01*
X9328333Y-13899428D02*
X9318810Y-13908952D01*
X9318810Y-13908952D02*
X9299762Y-13918476D01*
X9299762Y-13918476D02*
X9280714Y-13918476D01*
X9280714Y-13918476D02*
X9261667Y-13908952D01*
X9261667Y-13908952D02*
X9252143Y-13899428D01*
X9252143Y-13899428D02*
X9242619Y-13880381D01*
X9242619Y-13880381D02*
X9233095Y-13842286D01*
X9233095Y-13842286D02*
X9233095Y-13794667D01*
X9233095Y-13794667D02*
X9242619Y-13756571D01*
X9242619Y-13756571D02*
X9252143Y-13737524D01*
X9252143Y-13737524D02*
X9261667Y-13728000D01*
X9261667Y-13728000D02*
X9280714Y-13718476D01*
X9433095Y-13899428D02*
X9442619Y-13908952D01*
X9442619Y-13908952D02*
X9433095Y-13918476D01*
X9433095Y-13918476D02*
X9423571Y-13908952D01*
X9423571Y-13908952D02*
X9433095Y-13899428D01*
X9433095Y-13899428D02*
X9433095Y-13918476D01*
X9614048Y-13718476D02*
X9575952Y-13718476D01*
X9575952Y-13718476D02*
X9556905Y-13728000D01*
X9556905Y-13728000D02*
X9547381Y-13737524D01*
X9547381Y-13737524D02*
X9528333Y-13766095D01*
X9528333Y-13766095D02*
X9518810Y-13804190D01*
X9518810Y-13804190D02*
X9518810Y-13880381D01*
X9518810Y-13880381D02*
X9528333Y-13899428D01*
X9528333Y-13899428D02*
X9537857Y-13908952D01*
X9537857Y-13908952D02*
X9556905Y-13918476D01*
X9556905Y-13918476D02*
X9595000Y-13918476D01*
X9595000Y-13918476D02*
X9614048Y-13908952D01*
X9614048Y-13908952D02*
X9623571Y-13899428D01*
X9623571Y-13899428D02*
X9633095Y-13880381D01*
X9633095Y-13880381D02*
X9633095Y-13832762D01*
X9633095Y-13832762D02*
X9623571Y-13813714D01*
X9623571Y-13813714D02*
X9614048Y-13804190D01*
X9614048Y-13804190D02*
X9595000Y-13794667D01*
X9595000Y-13794667D02*
X9556905Y-13794667D01*
X9556905Y-13794667D02*
X9537857Y-13804190D01*
X9537857Y-13804190D02*
X9528333Y-13813714D01*
X9528333Y-13813714D02*
X9518810Y-13832762D01*
X9756905Y-13718476D02*
X9775952Y-13718476D01*
X9775952Y-13718476D02*
X9795000Y-13728000D01*
X9795000Y-13728000D02*
X9804524Y-13737524D01*
X9804524Y-13737524D02*
X9814048Y-13756571D01*
X9814048Y-13756571D02*
X9823571Y-13794667D01*
X9823571Y-13794667D02*
X9823571Y-13842286D01*
X9823571Y-13842286D02*
X9814048Y-13880381D01*
X9814048Y-13880381D02*
X9804524Y-13899428D01*
X9804524Y-13899428D02*
X9795000Y-13908952D01*
X9795000Y-13908952D02*
X9775952Y-13918476D01*
X9775952Y-13918476D02*
X9756905Y-13918476D01*
X9756905Y-13918476D02*
X9737857Y-13908952D01*
X9737857Y-13908952D02*
X9728333Y-13899428D01*
X9728333Y-13899428D02*
X9718810Y-13880381D01*
X9718810Y-13880381D02*
X9709286Y-13842286D01*
X9709286Y-13842286D02*
X9709286Y-13794667D01*
X9709286Y-13794667D02*
X9718810Y-13756571D01*
X9718810Y-13756571D02*
X9728333Y-13737524D01*
X9728333Y-13737524D02*
X9737857Y-13728000D01*
X9737857Y-13728000D02*
X9756905Y-13718476D01*
X9947381Y-13718476D02*
X9966429Y-13718476D01*
X9966429Y-13718476D02*
X9985476Y-13728000D01*
X9985476Y-13728000D02*
X9995000Y-13737524D01*
X9995000Y-13737524D02*
X10004524Y-13756571D01*
X10004524Y-13756571D02*
X10014048Y-13794667D01*
X10014048Y-13794667D02*
X10014048Y-13842286D01*
X10014048Y-13842286D02*
X10004524Y-13880381D01*
X10004524Y-13880381D02*
X9995000Y-13899428D01*
X9995000Y-13899428D02*
X9985476Y-13908952D01*
X9985476Y-13908952D02*
X9966429Y-13918476D01*
X9966429Y-13918476D02*
X9947381Y-13918476D01*
X9947381Y-13918476D02*
X9928333Y-13908952D01*
X9928333Y-13908952D02*
X9918810Y-13899428D01*
X9918810Y-13899428D02*
X9909286Y-13880381D01*
X9909286Y-13880381D02*
X9899762Y-13842286D01*
X9899762Y-13842286D02*
X9899762Y-13794667D01*
X9899762Y-13794667D02*
X9909286Y-13756571D01*
X9909286Y-13756571D02*
X9918810Y-13737524D01*
X9918810Y-13737524D02*
X9928333Y-13728000D01*
X9928333Y-13728000D02*
X9947381Y-13718476D01*
X10099762Y-13918476D02*
X10099762Y-13785143D01*
X10099762Y-13804190D02*
X10109286Y-13794667D01*
X10109286Y-13794667D02*
X10128333Y-13785143D01*
X10128333Y-13785143D02*
X10156905Y-13785143D01*
X10156905Y-13785143D02*
X10175952Y-13794667D01*
X10175952Y-13794667D02*
X10185476Y-13813714D01*
X10185476Y-13813714D02*
X10185476Y-13918476D01*
X10185476Y-13813714D02*
X10195000Y-13794667D01*
X10195000Y-13794667D02*
X10214048Y-13785143D01*
X10214048Y-13785143D02*
X10242619Y-13785143D01*
X10242619Y-13785143D02*
X10261667Y-13794667D01*
X10261667Y-13794667D02*
X10271191Y-13813714D01*
X10271191Y-13813714D02*
X10271191Y-13918476D01*
X10366429Y-13918476D02*
X10366429Y-13785143D01*
X10366429Y-13804190D02*
X10375952Y-13794667D01*
X10375952Y-13794667D02*
X10395000Y-13785143D01*
X10395000Y-13785143D02*
X10423572Y-13785143D01*
X10423572Y-13785143D02*
X10442619Y-13794667D01*
X10442619Y-13794667D02*
X10452143Y-13813714D01*
X10452143Y-13813714D02*
X10452143Y-13918476D01*
X10452143Y-13813714D02*
X10461667Y-13794667D01*
X10461667Y-13794667D02*
X10480714Y-13785143D01*
X10480714Y-13785143D02*
X10509286Y-13785143D01*
X10509286Y-13785143D02*
X10528333Y-13794667D01*
X10528333Y-13794667D02*
X10537857Y-13813714D01*
X10537857Y-13813714D02*
X10537857Y-13918476D01*
X10895952Y-13708952D02*
X10724524Y-13966095D01*
X11120714Y-13718476D02*
X11139762Y-13718476D01*
X11139762Y-13718476D02*
X11158810Y-13728000D01*
X11158810Y-13728000D02*
X11168333Y-13737524D01*
X11168333Y-13737524D02*
X11177857Y-13756571D01*
X11177857Y-13756571D02*
X11187381Y-13794667D01*
X11187381Y-13794667D02*
X11187381Y-13842286D01*
X11187381Y-13842286D02*
X11177857Y-13880381D01*
X11177857Y-13880381D02*
X11168333Y-13899428D01*
X11168333Y-13899428D02*
X11158810Y-13908952D01*
X11158810Y-13908952D02*
X11139762Y-13918476D01*
X11139762Y-13918476D02*
X11120714Y-13918476D01*
X11120714Y-13918476D02*
X11101667Y-13908952D01*
X11101667Y-13908952D02*
X11092143Y-13899428D01*
X11092143Y-13899428D02*
X11082619Y-13880381D01*
X11082619Y-13880381D02*
X11073095Y-13842286D01*
X11073095Y-13842286D02*
X11073095Y-13794667D01*
X11073095Y-13794667D02*
X11082619Y-13756571D01*
X11082619Y-13756571D02*
X11092143Y-13737524D01*
X11092143Y-13737524D02*
X11101667Y-13728000D01*
X11101667Y-13728000D02*
X11120714Y-13718476D01*
X11273095Y-13899428D02*
X11282619Y-13908952D01*
X11282619Y-13908952D02*
X11273095Y-13918476D01*
X11273095Y-13918476D02*
X11263571Y-13908952D01*
X11263571Y-13908952D02*
X11273095Y-13899428D01*
X11273095Y-13899428D02*
X11273095Y-13918476D01*
X11406429Y-13718476D02*
X11425476Y-13718476D01*
X11425476Y-13718476D02*
X11444524Y-13728000D01*
X11444524Y-13728000D02*
X11454048Y-13737524D01*
X11454048Y-13737524D02*
X11463571Y-13756571D01*
X11463571Y-13756571D02*
X11473095Y-13794667D01*
X11473095Y-13794667D02*
X11473095Y-13842286D01*
X11473095Y-13842286D02*
X11463571Y-13880381D01*
X11463571Y-13880381D02*
X11454048Y-13899428D01*
X11454048Y-13899428D02*
X11444524Y-13908952D01*
X11444524Y-13908952D02*
X11425476Y-13918476D01*
X11425476Y-13918476D02*
X11406429Y-13918476D01*
X11406429Y-13918476D02*
X11387381Y-13908952D01*
X11387381Y-13908952D02*
X11377857Y-13899428D01*
X11377857Y-13899428D02*
X11368333Y-13880381D01*
X11368333Y-13880381D02*
X11358810Y-13842286D01*
X11358810Y-13842286D02*
X11358810Y-13794667D01*
X11358810Y-13794667D02*
X11368333Y-13756571D01*
X11368333Y-13756571D02*
X11377857Y-13737524D01*
X11377857Y-13737524D02*
X11387381Y-13728000D01*
X11387381Y-13728000D02*
X11406429Y-13718476D01*
X11549286Y-13737524D02*
X11558810Y-13728000D01*
X11558810Y-13728000D02*
X11577857Y-13718476D01*
X11577857Y-13718476D02*
X11625476Y-13718476D01*
X11625476Y-13718476D02*
X11644524Y-13728000D01*
X11644524Y-13728000D02*
X11654048Y-13737524D01*
X11654048Y-13737524D02*
X11663571Y-13756571D01*
X11663571Y-13756571D02*
X11663571Y-13775619D01*
X11663571Y-13775619D02*
X11654048Y-13804190D01*
X11654048Y-13804190D02*
X11539762Y-13918476D01*
X11539762Y-13918476D02*
X11663571Y-13918476D01*
X11730238Y-13718476D02*
X11854048Y-13718476D01*
X11854048Y-13718476D02*
X11787381Y-13794667D01*
X11787381Y-13794667D02*
X11815952Y-13794667D01*
X11815952Y-13794667D02*
X11835000Y-13804190D01*
X11835000Y-13804190D02*
X11844524Y-13813714D01*
X11844524Y-13813714D02*
X11854048Y-13832762D01*
X11854048Y-13832762D02*
X11854048Y-13880381D01*
X11854048Y-13880381D02*
X11844524Y-13899428D01*
X11844524Y-13899428D02*
X11835000Y-13908952D01*
X11835000Y-13908952D02*
X11815952Y-13918476D01*
X11815952Y-13918476D02*
X11758810Y-13918476D01*
X11758810Y-13918476D02*
X11739762Y-13908952D01*
X11739762Y-13908952D02*
X11730238Y-13899428D01*
X12025476Y-13718476D02*
X11987381Y-13718476D01*
X11987381Y-13718476D02*
X11968333Y-13728000D01*
X11968333Y-13728000D02*
X11958810Y-13737524D01*
X11958810Y-13737524D02*
X11939762Y-13766095D01*
X11939762Y-13766095D02*
X11930238Y-13804190D01*
X11930238Y-13804190D02*
X11930238Y-13880381D01*
X11930238Y-13880381D02*
X11939762Y-13899428D01*
X11939762Y-13899428D02*
X11949286Y-13908952D01*
X11949286Y-13908952D02*
X11968333Y-13918476D01*
X11968333Y-13918476D02*
X12006429Y-13918476D01*
X12006429Y-13918476D02*
X12025476Y-13908952D01*
X12025476Y-13908952D02*
X12035000Y-13899428D01*
X12035000Y-13899428D02*
X12044524Y-13880381D01*
X12044524Y-13880381D02*
X12044524Y-13832762D01*
X12044524Y-13832762D02*
X12035000Y-13813714D01*
X12035000Y-13813714D02*
X12025476Y-13804190D01*
X12025476Y-13804190D02*
X12006429Y-13794667D01*
X12006429Y-13794667D02*
X11968333Y-13794667D01*
X11968333Y-13794667D02*
X11949286Y-13804190D01*
X11949286Y-13804190D02*
X11939762Y-13813714D01*
X11939762Y-13813714D02*
X11930238Y-13832762D01*
X12120714Y-13718476D02*
X12120714Y-13756571D01*
X12196905Y-13718476D02*
X12196905Y-13756571D01*
X12459762Y-13994667D02*
X12450238Y-13985143D01*
X12450238Y-13985143D02*
X12431191Y-13956571D01*
X12431191Y-13956571D02*
X12421667Y-13937524D01*
X12421667Y-13937524D02*
X12412143Y-13908952D01*
X12412143Y-13908952D02*
X12402619Y-13861333D01*
X12402619Y-13861333D02*
X12402619Y-13823238D01*
X12402619Y-13823238D02*
X12412143Y-13775619D01*
X12412143Y-13775619D02*
X12421667Y-13747048D01*
X12421667Y-13747048D02*
X12431191Y-13728000D01*
X12431191Y-13728000D02*
X12450238Y-13699428D01*
X12450238Y-13699428D02*
X12459762Y-13689905D01*
X12640714Y-13918476D02*
X12526429Y-13918476D01*
X12583571Y-13918476D02*
X12583571Y-13718476D01*
X12583571Y-13718476D02*
X12564524Y-13747048D01*
X12564524Y-13747048D02*
X12545476Y-13766095D01*
X12545476Y-13766095D02*
X12526429Y-13775619D01*
X12846429Y-13918476D02*
X12846429Y-13718476D01*
X12932143Y-13918476D02*
X12932143Y-13813714D01*
X12932143Y-13813714D02*
X12922619Y-13794667D01*
X12922619Y-13794667D02*
X12903572Y-13785143D01*
X12903572Y-13785143D02*
X12875000Y-13785143D01*
X12875000Y-13785143D02*
X12855952Y-13794667D01*
X12855952Y-13794667D02*
X12846429Y-13804190D01*
X13055952Y-13918476D02*
X13036905Y-13908952D01*
X13036905Y-13908952D02*
X13027381Y-13899428D01*
X13027381Y-13899428D02*
X13017857Y-13880381D01*
X13017857Y-13880381D02*
X13017857Y-13823238D01*
X13017857Y-13823238D02*
X13027381Y-13804190D01*
X13027381Y-13804190D02*
X13036905Y-13794667D01*
X13036905Y-13794667D02*
X13055952Y-13785143D01*
X13055952Y-13785143D02*
X13084524Y-13785143D01*
X13084524Y-13785143D02*
X13103572Y-13794667D01*
X13103572Y-13794667D02*
X13113095Y-13804190D01*
X13113095Y-13804190D02*
X13122619Y-13823238D01*
X13122619Y-13823238D02*
X13122619Y-13880381D01*
X13122619Y-13880381D02*
X13113095Y-13899428D01*
X13113095Y-13899428D02*
X13103572Y-13908952D01*
X13103572Y-13908952D02*
X13084524Y-13918476D01*
X13084524Y-13918476D02*
X13055952Y-13918476D01*
X13236905Y-13918476D02*
X13217857Y-13908952D01*
X13217857Y-13908952D02*
X13208333Y-13889905D01*
X13208333Y-13889905D02*
X13208333Y-13718476D01*
X13389286Y-13908952D02*
X13370238Y-13918476D01*
X13370238Y-13918476D02*
X13332143Y-13918476D01*
X13332143Y-13918476D02*
X13313095Y-13908952D01*
X13313095Y-13908952D02*
X13303572Y-13889905D01*
X13303572Y-13889905D02*
X13303572Y-13813714D01*
X13303572Y-13813714D02*
X13313095Y-13794667D01*
X13313095Y-13794667D02*
X13332143Y-13785143D01*
X13332143Y-13785143D02*
X13370238Y-13785143D01*
X13370238Y-13785143D02*
X13389286Y-13794667D01*
X13389286Y-13794667D02*
X13398810Y-13813714D01*
X13398810Y-13813714D02*
X13398810Y-13832762D01*
X13398810Y-13832762D02*
X13303572Y-13851809D01*
X13475000Y-13908952D02*
X13494048Y-13918476D01*
X13494048Y-13918476D02*
X13532143Y-13918476D01*
X13532143Y-13918476D02*
X13551191Y-13908952D01*
X13551191Y-13908952D02*
X13560714Y-13889905D01*
X13560714Y-13889905D02*
X13560714Y-13880381D01*
X13560714Y-13880381D02*
X13551191Y-13861333D01*
X13551191Y-13861333D02*
X13532143Y-13851809D01*
X13532143Y-13851809D02*
X13503572Y-13851809D01*
X13503572Y-13851809D02*
X13484524Y-13842286D01*
X13484524Y-13842286D02*
X13475000Y-13823238D01*
X13475000Y-13823238D02*
X13475000Y-13813714D01*
X13475000Y-13813714D02*
X13484524Y-13794667D01*
X13484524Y-13794667D02*
X13503572Y-13785143D01*
X13503572Y-13785143D02*
X13532143Y-13785143D01*
X13532143Y-13785143D02*
X13551191Y-13794667D01*
X13766429Y-13842286D02*
X13918810Y-13842286D01*
X13842619Y-13918476D02*
X13842619Y-13766095D01*
X14238810Y-13918476D02*
X14124524Y-13918476D01*
X14181667Y-13918476D02*
X14181667Y-13718476D01*
X14181667Y-13718476D02*
X14162619Y-13747048D01*
X14162619Y-13747048D02*
X14143572Y-13766095D01*
X14143572Y-13766095D02*
X14124524Y-13775619D01*
X14435000Y-13908952D02*
X14454048Y-13918476D01*
X14454048Y-13918476D02*
X14492143Y-13918476D01*
X14492143Y-13918476D02*
X14511191Y-13908952D01*
X14511191Y-13908952D02*
X14520714Y-13889905D01*
X14520714Y-13889905D02*
X14520714Y-13880381D01*
X14520714Y-13880381D02*
X14511191Y-13861333D01*
X14511191Y-13861333D02*
X14492143Y-13851809D01*
X14492143Y-13851809D02*
X14463572Y-13851809D01*
X14463572Y-13851809D02*
X14444524Y-13842286D01*
X14444524Y-13842286D02*
X14435000Y-13823238D01*
X14435000Y-13823238D02*
X14435000Y-13813714D01*
X14435000Y-13813714D02*
X14444524Y-13794667D01*
X14444524Y-13794667D02*
X14463572Y-13785143D01*
X14463572Y-13785143D02*
X14492143Y-13785143D01*
X14492143Y-13785143D02*
X14511191Y-13794667D01*
X14635000Y-13918476D02*
X14615953Y-13908952D01*
X14615953Y-13908952D02*
X14606429Y-13889905D01*
X14606429Y-13889905D02*
X14606429Y-13718476D01*
X14739762Y-13918476D02*
X14720714Y-13908952D01*
X14720714Y-13908952D02*
X14711191Y-13899428D01*
X14711191Y-13899428D02*
X14701667Y-13880381D01*
X14701667Y-13880381D02*
X14701667Y-13823238D01*
X14701667Y-13823238D02*
X14711191Y-13804190D01*
X14711191Y-13804190D02*
X14720714Y-13794667D01*
X14720714Y-13794667D02*
X14739762Y-13785143D01*
X14739762Y-13785143D02*
X14768334Y-13785143D01*
X14768334Y-13785143D02*
X14787381Y-13794667D01*
X14787381Y-13794667D02*
X14796905Y-13804190D01*
X14796905Y-13804190D02*
X14806429Y-13823238D01*
X14806429Y-13823238D02*
X14806429Y-13880381D01*
X14806429Y-13880381D02*
X14796905Y-13899428D01*
X14796905Y-13899428D02*
X14787381Y-13908952D01*
X14787381Y-13908952D02*
X14768334Y-13918476D01*
X14768334Y-13918476D02*
X14739762Y-13918476D01*
X14863572Y-13785143D02*
X14939762Y-13785143D01*
X14892143Y-13718476D02*
X14892143Y-13889905D01*
X14892143Y-13889905D02*
X14901667Y-13908952D01*
X14901667Y-13908952D02*
X14920714Y-13918476D01*
X14920714Y-13918476D02*
X14939762Y-13918476D01*
X14987381Y-13994667D02*
X14996905Y-13985143D01*
X14996905Y-13985143D02*
X15015953Y-13956571D01*
X15015953Y-13956571D02*
X15025476Y-13937524D01*
X15025476Y-13937524D02*
X15035000Y-13908952D01*
X15035000Y-13908952D02*
X15044524Y-13861333D01*
X15044524Y-13861333D02*
X15044524Y-13823238D01*
X15044524Y-13823238D02*
X15035000Y-13775619D01*
X15035000Y-13775619D02*
X15025476Y-13747048D01*
X15025476Y-13747048D02*
X15015953Y-13728000D01*
X15015953Y-13728000D02*
X14996905Y-13699428D01*
X14996905Y-13699428D02*
X14987381Y-13689905D01*
X15316905Y-13994667D02*
X15307381Y-13985143D01*
X15307381Y-13985143D02*
X15288333Y-13956571D01*
X15288333Y-13956571D02*
X15278810Y-13937524D01*
X15278810Y-13937524D02*
X15269286Y-13908952D01*
X15269286Y-13908952D02*
X15259762Y-13861333D01*
X15259762Y-13861333D02*
X15259762Y-13823238D01*
X15259762Y-13823238D02*
X15269286Y-13775619D01*
X15269286Y-13775619D02*
X15278810Y-13747048D01*
X15278810Y-13747048D02*
X15288333Y-13728000D01*
X15288333Y-13728000D02*
X15307381Y-13699428D01*
X15307381Y-13699428D02*
X15316905Y-13689905D01*
X15393095Y-13785143D02*
X15393095Y-13918476D01*
X15393095Y-13804190D02*
X15402619Y-13794667D01*
X15402619Y-13794667D02*
X15421667Y-13785143D01*
X15421667Y-13785143D02*
X15450238Y-13785143D01*
X15450238Y-13785143D02*
X15469286Y-13794667D01*
X15469286Y-13794667D02*
X15478810Y-13813714D01*
X15478810Y-13813714D02*
X15478810Y-13918476D01*
X15602619Y-13918476D02*
X15583572Y-13908952D01*
X15583572Y-13908952D02*
X15574048Y-13899428D01*
X15574048Y-13899428D02*
X15564524Y-13880381D01*
X15564524Y-13880381D02*
X15564524Y-13823238D01*
X15564524Y-13823238D02*
X15574048Y-13804190D01*
X15574048Y-13804190D02*
X15583572Y-13794667D01*
X15583572Y-13794667D02*
X15602619Y-13785143D01*
X15602619Y-13785143D02*
X15631191Y-13785143D01*
X15631191Y-13785143D02*
X15650238Y-13794667D01*
X15650238Y-13794667D02*
X15659762Y-13804190D01*
X15659762Y-13804190D02*
X15669286Y-13823238D01*
X15669286Y-13823238D02*
X15669286Y-13880381D01*
X15669286Y-13880381D02*
X15659762Y-13899428D01*
X15659762Y-13899428D02*
X15650238Y-13908952D01*
X15650238Y-13908952D02*
X15631191Y-13918476D01*
X15631191Y-13918476D02*
X15602619Y-13918476D01*
X15726429Y-13785143D02*
X15802619Y-13785143D01*
X15755000Y-13718476D02*
X15755000Y-13889905D01*
X15755000Y-13889905D02*
X15764524Y-13908952D01*
X15764524Y-13908952D02*
X15783572Y-13918476D01*
X15783572Y-13918476D02*
X15802619Y-13918476D01*
X15989286Y-13785143D02*
X15989286Y-13985143D01*
X15989286Y-13794667D02*
X16008333Y-13785143D01*
X16008333Y-13785143D02*
X16046429Y-13785143D01*
X16046429Y-13785143D02*
X16065476Y-13794667D01*
X16065476Y-13794667D02*
X16075000Y-13804190D01*
X16075000Y-13804190D02*
X16084524Y-13823238D01*
X16084524Y-13823238D02*
X16084524Y-13880381D01*
X16084524Y-13880381D02*
X16075000Y-13899428D01*
X16075000Y-13899428D02*
X16065476Y-13908952D01*
X16065476Y-13908952D02*
X16046429Y-13918476D01*
X16046429Y-13918476D02*
X16008333Y-13918476D01*
X16008333Y-13918476D02*
X15989286Y-13908952D01*
X16198810Y-13918476D02*
X16179762Y-13908952D01*
X16179762Y-13908952D02*
X16170238Y-13889905D01*
X16170238Y-13889905D02*
X16170238Y-13718476D01*
X16360714Y-13918476D02*
X16360714Y-13813714D01*
X16360714Y-13813714D02*
X16351191Y-13794667D01*
X16351191Y-13794667D02*
X16332143Y-13785143D01*
X16332143Y-13785143D02*
X16294048Y-13785143D01*
X16294048Y-13785143D02*
X16275000Y-13794667D01*
X16360714Y-13908952D02*
X16341667Y-13918476D01*
X16341667Y-13918476D02*
X16294048Y-13918476D01*
X16294048Y-13918476D02*
X16275000Y-13908952D01*
X16275000Y-13908952D02*
X16265476Y-13889905D01*
X16265476Y-13889905D02*
X16265476Y-13870857D01*
X16265476Y-13870857D02*
X16275000Y-13851809D01*
X16275000Y-13851809D02*
X16294048Y-13842286D01*
X16294048Y-13842286D02*
X16341667Y-13842286D01*
X16341667Y-13842286D02*
X16360714Y-13832762D01*
X16427381Y-13785143D02*
X16503572Y-13785143D01*
X16455953Y-13718476D02*
X16455953Y-13889905D01*
X16455953Y-13889905D02*
X16465476Y-13908952D01*
X16465476Y-13908952D02*
X16484524Y-13918476D01*
X16484524Y-13918476D02*
X16503572Y-13918476D01*
X16646429Y-13908952D02*
X16627381Y-13918476D01*
X16627381Y-13918476D02*
X16589286Y-13918476D01*
X16589286Y-13918476D02*
X16570238Y-13908952D01*
X16570238Y-13908952D02*
X16560714Y-13889905D01*
X16560714Y-13889905D02*
X16560714Y-13813714D01*
X16560714Y-13813714D02*
X16570238Y-13794667D01*
X16570238Y-13794667D02*
X16589286Y-13785143D01*
X16589286Y-13785143D02*
X16627381Y-13785143D01*
X16627381Y-13785143D02*
X16646429Y-13794667D01*
X16646429Y-13794667D02*
X16655953Y-13813714D01*
X16655953Y-13813714D02*
X16655953Y-13832762D01*
X16655953Y-13832762D02*
X16560714Y-13851809D01*
X16827381Y-13918476D02*
X16827381Y-13718476D01*
X16827381Y-13908952D02*
X16808334Y-13918476D01*
X16808334Y-13918476D02*
X16770238Y-13918476D01*
X16770238Y-13918476D02*
X16751191Y-13908952D01*
X16751191Y-13908952D02*
X16741667Y-13899428D01*
X16741667Y-13899428D02*
X16732143Y-13880381D01*
X16732143Y-13880381D02*
X16732143Y-13823238D01*
X16732143Y-13823238D02*
X16741667Y-13804190D01*
X16741667Y-13804190D02*
X16751191Y-13794667D01*
X16751191Y-13794667D02*
X16770238Y-13785143D01*
X16770238Y-13785143D02*
X16808334Y-13785143D01*
X16808334Y-13785143D02*
X16827381Y-13794667D01*
X16903572Y-13994667D02*
X16913096Y-13985143D01*
X16913096Y-13985143D02*
X16932143Y-13956571D01*
X16932143Y-13956571D02*
X16941667Y-13937524D01*
X16941667Y-13937524D02*
X16951191Y-13908952D01*
X16951191Y-13908952D02*
X16960715Y-13861333D01*
X16960715Y-13861333D02*
X16960715Y-13823238D01*
X16960715Y-13823238D02*
X16951191Y-13775619D01*
X16951191Y-13775619D02*
X16941667Y-13747048D01*
X16941667Y-13747048D02*
X16932143Y-13728000D01*
X16932143Y-13728000D02*
X16913096Y-13699428D01*
X16913096Y-13699428D02*
X16903572Y-13689905D01*
X8995000Y-14109000D02*
G75*
G03*
X8995000Y-14109000I-100000J0D01*
G01*
X9233095Y-14001524D02*
X9242619Y-13992000D01*
X9242619Y-13992000D02*
X9261667Y-13982476D01*
X9261667Y-13982476D02*
X9309286Y-13982476D01*
X9309286Y-13982476D02*
X9328333Y-13992000D01*
X9328333Y-13992000D02*
X9337857Y-14001524D01*
X9337857Y-14001524D02*
X9347381Y-14020571D01*
X9347381Y-14020571D02*
X9347381Y-14039619D01*
X9347381Y-14039619D02*
X9337857Y-14068190D01*
X9337857Y-14068190D02*
X9223571Y-14182476D01*
X9223571Y-14182476D02*
X9347381Y-14182476D01*
X9433095Y-14163428D02*
X9442619Y-14172952D01*
X9442619Y-14172952D02*
X9433095Y-14182476D01*
X9433095Y-14182476D02*
X9423571Y-14172952D01*
X9423571Y-14172952D02*
X9433095Y-14163428D01*
X9433095Y-14163428D02*
X9433095Y-14182476D01*
X9518810Y-14001524D02*
X9528333Y-13992000D01*
X9528333Y-13992000D02*
X9547381Y-13982476D01*
X9547381Y-13982476D02*
X9595000Y-13982476D01*
X9595000Y-13982476D02*
X9614048Y-13992000D01*
X9614048Y-13992000D02*
X9623571Y-14001524D01*
X9623571Y-14001524D02*
X9633095Y-14020571D01*
X9633095Y-14020571D02*
X9633095Y-14039619D01*
X9633095Y-14039619D02*
X9623571Y-14068190D01*
X9623571Y-14068190D02*
X9509286Y-14182476D01*
X9509286Y-14182476D02*
X9633095Y-14182476D01*
X9756905Y-13982476D02*
X9775952Y-13982476D01*
X9775952Y-13982476D02*
X9795000Y-13992000D01*
X9795000Y-13992000D02*
X9804524Y-14001524D01*
X9804524Y-14001524D02*
X9814048Y-14020571D01*
X9814048Y-14020571D02*
X9823571Y-14058667D01*
X9823571Y-14058667D02*
X9823571Y-14106286D01*
X9823571Y-14106286D02*
X9814048Y-14144381D01*
X9814048Y-14144381D02*
X9804524Y-14163428D01*
X9804524Y-14163428D02*
X9795000Y-14172952D01*
X9795000Y-14172952D02*
X9775952Y-14182476D01*
X9775952Y-14182476D02*
X9756905Y-14182476D01*
X9756905Y-14182476D02*
X9737857Y-14172952D01*
X9737857Y-14172952D02*
X9728333Y-14163428D01*
X9728333Y-14163428D02*
X9718810Y-14144381D01*
X9718810Y-14144381D02*
X9709286Y-14106286D01*
X9709286Y-14106286D02*
X9709286Y-14058667D01*
X9709286Y-14058667D02*
X9718810Y-14020571D01*
X9718810Y-14020571D02*
X9728333Y-14001524D01*
X9728333Y-14001524D02*
X9737857Y-13992000D01*
X9737857Y-13992000D02*
X9756905Y-13982476D01*
X9947381Y-13982476D02*
X9966429Y-13982476D01*
X9966429Y-13982476D02*
X9985476Y-13992000D01*
X9985476Y-13992000D02*
X9995000Y-14001524D01*
X9995000Y-14001524D02*
X10004524Y-14020571D01*
X10004524Y-14020571D02*
X10014048Y-14058667D01*
X10014048Y-14058667D02*
X10014048Y-14106286D01*
X10014048Y-14106286D02*
X10004524Y-14144381D01*
X10004524Y-14144381D02*
X9995000Y-14163428D01*
X9995000Y-14163428D02*
X9985476Y-14172952D01*
X9985476Y-14172952D02*
X9966429Y-14182476D01*
X9966429Y-14182476D02*
X9947381Y-14182476D01*
X9947381Y-14182476D02*
X9928333Y-14172952D01*
X9928333Y-14172952D02*
X9918810Y-14163428D01*
X9918810Y-14163428D02*
X9909286Y-14144381D01*
X9909286Y-14144381D02*
X9899762Y-14106286D01*
X9899762Y-14106286D02*
X9899762Y-14058667D01*
X9899762Y-14058667D02*
X9909286Y-14020571D01*
X9909286Y-14020571D02*
X9918810Y-14001524D01*
X9918810Y-14001524D02*
X9928333Y-13992000D01*
X9928333Y-13992000D02*
X9947381Y-13982476D01*
X10099762Y-14182476D02*
X10099762Y-14049143D01*
X10099762Y-14068190D02*
X10109286Y-14058667D01*
X10109286Y-14058667D02*
X10128333Y-14049143D01*
X10128333Y-14049143D02*
X10156905Y-14049143D01*
X10156905Y-14049143D02*
X10175952Y-14058667D01*
X10175952Y-14058667D02*
X10185476Y-14077714D01*
X10185476Y-14077714D02*
X10185476Y-14182476D01*
X10185476Y-14077714D02*
X10195000Y-14058667D01*
X10195000Y-14058667D02*
X10214048Y-14049143D01*
X10214048Y-14049143D02*
X10242619Y-14049143D01*
X10242619Y-14049143D02*
X10261667Y-14058667D01*
X10261667Y-14058667D02*
X10271191Y-14077714D01*
X10271191Y-14077714D02*
X10271191Y-14182476D01*
X10366429Y-14182476D02*
X10366429Y-14049143D01*
X10366429Y-14068190D02*
X10375952Y-14058667D01*
X10375952Y-14058667D02*
X10395000Y-14049143D01*
X10395000Y-14049143D02*
X10423572Y-14049143D01*
X10423572Y-14049143D02*
X10442619Y-14058667D01*
X10442619Y-14058667D02*
X10452143Y-14077714D01*
X10452143Y-14077714D02*
X10452143Y-14182476D01*
X10452143Y-14077714D02*
X10461667Y-14058667D01*
X10461667Y-14058667D02*
X10480714Y-14049143D01*
X10480714Y-14049143D02*
X10509286Y-14049143D01*
X10509286Y-14049143D02*
X10528333Y-14058667D01*
X10528333Y-14058667D02*
X10537857Y-14077714D01*
X10537857Y-14077714D02*
X10537857Y-14182476D01*
X10895952Y-13972952D02*
X10724524Y-14230095D01*
X11120714Y-13982476D02*
X11139762Y-13982476D01*
X11139762Y-13982476D02*
X11158810Y-13992000D01*
X11158810Y-13992000D02*
X11168333Y-14001524D01*
X11168333Y-14001524D02*
X11177857Y-14020571D01*
X11177857Y-14020571D02*
X11187381Y-14058667D01*
X11187381Y-14058667D02*
X11187381Y-14106286D01*
X11187381Y-14106286D02*
X11177857Y-14144381D01*
X11177857Y-14144381D02*
X11168333Y-14163428D01*
X11168333Y-14163428D02*
X11158810Y-14172952D01*
X11158810Y-14172952D02*
X11139762Y-14182476D01*
X11139762Y-14182476D02*
X11120714Y-14182476D01*
X11120714Y-14182476D02*
X11101667Y-14172952D01*
X11101667Y-14172952D02*
X11092143Y-14163428D01*
X11092143Y-14163428D02*
X11082619Y-14144381D01*
X11082619Y-14144381D02*
X11073095Y-14106286D01*
X11073095Y-14106286D02*
X11073095Y-14058667D01*
X11073095Y-14058667D02*
X11082619Y-14020571D01*
X11082619Y-14020571D02*
X11092143Y-14001524D01*
X11092143Y-14001524D02*
X11101667Y-13992000D01*
X11101667Y-13992000D02*
X11120714Y-13982476D01*
X11273095Y-14163428D02*
X11282619Y-14172952D01*
X11282619Y-14172952D02*
X11273095Y-14182476D01*
X11273095Y-14182476D02*
X11263571Y-14172952D01*
X11263571Y-14172952D02*
X11273095Y-14163428D01*
X11273095Y-14163428D02*
X11273095Y-14182476D01*
X11406429Y-13982476D02*
X11425476Y-13982476D01*
X11425476Y-13982476D02*
X11444524Y-13992000D01*
X11444524Y-13992000D02*
X11454048Y-14001524D01*
X11454048Y-14001524D02*
X11463571Y-14020571D01*
X11463571Y-14020571D02*
X11473095Y-14058667D01*
X11473095Y-14058667D02*
X11473095Y-14106286D01*
X11473095Y-14106286D02*
X11463571Y-14144381D01*
X11463571Y-14144381D02*
X11454048Y-14163428D01*
X11454048Y-14163428D02*
X11444524Y-14172952D01*
X11444524Y-14172952D02*
X11425476Y-14182476D01*
X11425476Y-14182476D02*
X11406429Y-14182476D01*
X11406429Y-14182476D02*
X11387381Y-14172952D01*
X11387381Y-14172952D02*
X11377857Y-14163428D01*
X11377857Y-14163428D02*
X11368333Y-14144381D01*
X11368333Y-14144381D02*
X11358810Y-14106286D01*
X11358810Y-14106286D02*
X11358810Y-14058667D01*
X11358810Y-14058667D02*
X11368333Y-14020571D01*
X11368333Y-14020571D02*
X11377857Y-14001524D01*
X11377857Y-14001524D02*
X11387381Y-13992000D01*
X11387381Y-13992000D02*
X11406429Y-13982476D01*
X11587381Y-14068190D02*
X11568333Y-14058667D01*
X11568333Y-14058667D02*
X11558810Y-14049143D01*
X11558810Y-14049143D02*
X11549286Y-14030095D01*
X11549286Y-14030095D02*
X11549286Y-14020571D01*
X11549286Y-14020571D02*
X11558810Y-14001524D01*
X11558810Y-14001524D02*
X11568333Y-13992000D01*
X11568333Y-13992000D02*
X11587381Y-13982476D01*
X11587381Y-13982476D02*
X11625476Y-13982476D01*
X11625476Y-13982476D02*
X11644524Y-13992000D01*
X11644524Y-13992000D02*
X11654048Y-14001524D01*
X11654048Y-14001524D02*
X11663571Y-14020571D01*
X11663571Y-14020571D02*
X11663571Y-14030095D01*
X11663571Y-14030095D02*
X11654048Y-14049143D01*
X11654048Y-14049143D02*
X11644524Y-14058667D01*
X11644524Y-14058667D02*
X11625476Y-14068190D01*
X11625476Y-14068190D02*
X11587381Y-14068190D01*
X11587381Y-14068190D02*
X11568333Y-14077714D01*
X11568333Y-14077714D02*
X11558810Y-14087238D01*
X11558810Y-14087238D02*
X11549286Y-14106286D01*
X11549286Y-14106286D02*
X11549286Y-14144381D01*
X11549286Y-14144381D02*
X11558810Y-14163428D01*
X11558810Y-14163428D02*
X11568333Y-14172952D01*
X11568333Y-14172952D02*
X11587381Y-14182476D01*
X11587381Y-14182476D02*
X11625476Y-14182476D01*
X11625476Y-14182476D02*
X11644524Y-14172952D01*
X11644524Y-14172952D02*
X11654048Y-14163428D01*
X11654048Y-14163428D02*
X11663571Y-14144381D01*
X11663571Y-14144381D02*
X11663571Y-14106286D01*
X11663571Y-14106286D02*
X11654048Y-14087238D01*
X11654048Y-14087238D02*
X11644524Y-14077714D01*
X11644524Y-14077714D02*
X11625476Y-14068190D01*
X11835000Y-13982476D02*
X11796905Y-13982476D01*
X11796905Y-13982476D02*
X11777857Y-13992000D01*
X11777857Y-13992000D02*
X11768333Y-14001524D01*
X11768333Y-14001524D02*
X11749286Y-14030095D01*
X11749286Y-14030095D02*
X11739762Y-14068190D01*
X11739762Y-14068190D02*
X11739762Y-14144381D01*
X11739762Y-14144381D02*
X11749286Y-14163428D01*
X11749286Y-14163428D02*
X11758810Y-14172952D01*
X11758810Y-14172952D02*
X11777857Y-14182476D01*
X11777857Y-14182476D02*
X11815952Y-14182476D01*
X11815952Y-14182476D02*
X11835000Y-14172952D01*
X11835000Y-14172952D02*
X11844524Y-14163428D01*
X11844524Y-14163428D02*
X11854048Y-14144381D01*
X11854048Y-14144381D02*
X11854048Y-14096762D01*
X11854048Y-14096762D02*
X11844524Y-14077714D01*
X11844524Y-14077714D02*
X11835000Y-14068190D01*
X11835000Y-14068190D02*
X11815952Y-14058667D01*
X11815952Y-14058667D02*
X11777857Y-14058667D01*
X11777857Y-14058667D02*
X11758810Y-14068190D01*
X11758810Y-14068190D02*
X11749286Y-14077714D01*
X11749286Y-14077714D02*
X11739762Y-14096762D01*
X12025476Y-13982476D02*
X11987381Y-13982476D01*
X11987381Y-13982476D02*
X11968333Y-13992000D01*
X11968333Y-13992000D02*
X11958810Y-14001524D01*
X11958810Y-14001524D02*
X11939762Y-14030095D01*
X11939762Y-14030095D02*
X11930238Y-14068190D01*
X11930238Y-14068190D02*
X11930238Y-14144381D01*
X11930238Y-14144381D02*
X11939762Y-14163428D01*
X11939762Y-14163428D02*
X11949286Y-14172952D01*
X11949286Y-14172952D02*
X11968333Y-14182476D01*
X11968333Y-14182476D02*
X12006429Y-14182476D01*
X12006429Y-14182476D02*
X12025476Y-14172952D01*
X12025476Y-14172952D02*
X12035000Y-14163428D01*
X12035000Y-14163428D02*
X12044524Y-14144381D01*
X12044524Y-14144381D02*
X12044524Y-14096762D01*
X12044524Y-14096762D02*
X12035000Y-14077714D01*
X12035000Y-14077714D02*
X12025476Y-14068190D01*
X12025476Y-14068190D02*
X12006429Y-14058667D01*
X12006429Y-14058667D02*
X11968333Y-14058667D01*
X11968333Y-14058667D02*
X11949286Y-14068190D01*
X11949286Y-14068190D02*
X11939762Y-14077714D01*
X11939762Y-14077714D02*
X11930238Y-14096762D01*
X12120714Y-13982476D02*
X12120714Y-14020571D01*
X12196905Y-13982476D02*
X12196905Y-14020571D01*
X12459762Y-14258667D02*
X12450238Y-14249143D01*
X12450238Y-14249143D02*
X12431191Y-14220571D01*
X12431191Y-14220571D02*
X12421667Y-14201524D01*
X12421667Y-14201524D02*
X12412143Y-14172952D01*
X12412143Y-14172952D02*
X12402619Y-14125333D01*
X12402619Y-14125333D02*
X12402619Y-14087238D01*
X12402619Y-14087238D02*
X12412143Y-14039619D01*
X12412143Y-14039619D02*
X12421667Y-14011048D01*
X12421667Y-14011048D02*
X12431191Y-13992000D01*
X12431191Y-13992000D02*
X12450238Y-13963428D01*
X12450238Y-13963428D02*
X12459762Y-13953905D01*
X12621667Y-14049143D02*
X12621667Y-14182476D01*
X12574048Y-13972952D02*
X12526429Y-14115809D01*
X12526429Y-14115809D02*
X12650238Y-14115809D01*
X12846429Y-14182476D02*
X12846429Y-13982476D01*
X12932143Y-14182476D02*
X12932143Y-14077714D01*
X12932143Y-14077714D02*
X12922619Y-14058667D01*
X12922619Y-14058667D02*
X12903572Y-14049143D01*
X12903572Y-14049143D02*
X12875000Y-14049143D01*
X12875000Y-14049143D02*
X12855952Y-14058667D01*
X12855952Y-14058667D02*
X12846429Y-14068190D01*
X13055952Y-14182476D02*
X13036905Y-14172952D01*
X13036905Y-14172952D02*
X13027381Y-14163428D01*
X13027381Y-14163428D02*
X13017857Y-14144381D01*
X13017857Y-14144381D02*
X13017857Y-14087238D01*
X13017857Y-14087238D02*
X13027381Y-14068190D01*
X13027381Y-14068190D02*
X13036905Y-14058667D01*
X13036905Y-14058667D02*
X13055952Y-14049143D01*
X13055952Y-14049143D02*
X13084524Y-14049143D01*
X13084524Y-14049143D02*
X13103572Y-14058667D01*
X13103572Y-14058667D02*
X13113095Y-14068190D01*
X13113095Y-14068190D02*
X13122619Y-14087238D01*
X13122619Y-14087238D02*
X13122619Y-14144381D01*
X13122619Y-14144381D02*
X13113095Y-14163428D01*
X13113095Y-14163428D02*
X13103572Y-14172952D01*
X13103572Y-14172952D02*
X13084524Y-14182476D01*
X13084524Y-14182476D02*
X13055952Y-14182476D01*
X13236905Y-14182476D02*
X13217857Y-14172952D01*
X13217857Y-14172952D02*
X13208333Y-14153905D01*
X13208333Y-14153905D02*
X13208333Y-13982476D01*
X13389286Y-14172952D02*
X13370238Y-14182476D01*
X13370238Y-14182476D02*
X13332143Y-14182476D01*
X13332143Y-14182476D02*
X13313095Y-14172952D01*
X13313095Y-14172952D02*
X13303572Y-14153905D01*
X13303572Y-14153905D02*
X13303572Y-14077714D01*
X13303572Y-14077714D02*
X13313095Y-14058667D01*
X13313095Y-14058667D02*
X13332143Y-14049143D01*
X13332143Y-14049143D02*
X13370238Y-14049143D01*
X13370238Y-14049143D02*
X13389286Y-14058667D01*
X13389286Y-14058667D02*
X13398810Y-14077714D01*
X13398810Y-14077714D02*
X13398810Y-14096762D01*
X13398810Y-14096762D02*
X13303572Y-14115809D01*
X13475000Y-14172952D02*
X13494048Y-14182476D01*
X13494048Y-14182476D02*
X13532143Y-14182476D01*
X13532143Y-14182476D02*
X13551191Y-14172952D01*
X13551191Y-14172952D02*
X13560714Y-14153905D01*
X13560714Y-14153905D02*
X13560714Y-14144381D01*
X13560714Y-14144381D02*
X13551191Y-14125333D01*
X13551191Y-14125333D02*
X13532143Y-14115809D01*
X13532143Y-14115809D02*
X13503572Y-14115809D01*
X13503572Y-14115809D02*
X13484524Y-14106286D01*
X13484524Y-14106286D02*
X13475000Y-14087238D01*
X13475000Y-14087238D02*
X13475000Y-14077714D01*
X13475000Y-14077714D02*
X13484524Y-14058667D01*
X13484524Y-14058667D02*
X13503572Y-14049143D01*
X13503572Y-14049143D02*
X13532143Y-14049143D01*
X13532143Y-14049143D02*
X13551191Y-14058667D01*
X13627381Y-14258667D02*
X13636905Y-14249143D01*
X13636905Y-14249143D02*
X13655953Y-14220571D01*
X13655953Y-14220571D02*
X13665476Y-14201524D01*
X13665476Y-14201524D02*
X13675000Y-14172952D01*
X13675000Y-14172952D02*
X13684524Y-14125333D01*
X13684524Y-14125333D02*
X13684524Y-14087238D01*
X13684524Y-14087238D02*
X13675000Y-14039619D01*
X13675000Y-14039619D02*
X13665476Y-14011048D01*
X13665476Y-14011048D02*
X13655953Y-13992000D01*
X13655953Y-13992000D02*
X13636905Y-13963428D01*
X13636905Y-13963428D02*
X13627381Y-13953905D01*
X13956905Y-14258667D02*
X13947381Y-14249143D01*
X13947381Y-14249143D02*
X13928333Y-14220571D01*
X13928333Y-14220571D02*
X13918810Y-14201524D01*
X13918810Y-14201524D02*
X13909286Y-14172952D01*
X13909286Y-14172952D02*
X13899762Y-14125333D01*
X13899762Y-14125333D02*
X13899762Y-14087238D01*
X13899762Y-14087238D02*
X13909286Y-14039619D01*
X13909286Y-14039619D02*
X13918810Y-14011048D01*
X13918810Y-14011048D02*
X13928333Y-13992000D01*
X13928333Y-13992000D02*
X13947381Y-13963428D01*
X13947381Y-13963428D02*
X13956905Y-13953905D01*
X14033095Y-14049143D02*
X14033095Y-14182476D01*
X14033095Y-14068190D02*
X14042619Y-14058667D01*
X14042619Y-14058667D02*
X14061667Y-14049143D01*
X14061667Y-14049143D02*
X14090238Y-14049143D01*
X14090238Y-14049143D02*
X14109286Y-14058667D01*
X14109286Y-14058667D02*
X14118810Y-14077714D01*
X14118810Y-14077714D02*
X14118810Y-14182476D01*
X14242619Y-14182476D02*
X14223572Y-14172952D01*
X14223572Y-14172952D02*
X14214048Y-14163428D01*
X14214048Y-14163428D02*
X14204524Y-14144381D01*
X14204524Y-14144381D02*
X14204524Y-14087238D01*
X14204524Y-14087238D02*
X14214048Y-14068190D01*
X14214048Y-14068190D02*
X14223572Y-14058667D01*
X14223572Y-14058667D02*
X14242619Y-14049143D01*
X14242619Y-14049143D02*
X14271191Y-14049143D01*
X14271191Y-14049143D02*
X14290238Y-14058667D01*
X14290238Y-14058667D02*
X14299762Y-14068190D01*
X14299762Y-14068190D02*
X14309286Y-14087238D01*
X14309286Y-14087238D02*
X14309286Y-14144381D01*
X14309286Y-14144381D02*
X14299762Y-14163428D01*
X14299762Y-14163428D02*
X14290238Y-14172952D01*
X14290238Y-14172952D02*
X14271191Y-14182476D01*
X14271191Y-14182476D02*
X14242619Y-14182476D01*
X14366429Y-14049143D02*
X14442619Y-14049143D01*
X14395000Y-13982476D02*
X14395000Y-14153905D01*
X14395000Y-14153905D02*
X14404524Y-14172952D01*
X14404524Y-14172952D02*
X14423572Y-14182476D01*
X14423572Y-14182476D02*
X14442619Y-14182476D01*
X14629286Y-14049143D02*
X14629286Y-14249143D01*
X14629286Y-14058667D02*
X14648333Y-14049143D01*
X14648333Y-14049143D02*
X14686429Y-14049143D01*
X14686429Y-14049143D02*
X14705476Y-14058667D01*
X14705476Y-14058667D02*
X14715000Y-14068190D01*
X14715000Y-14068190D02*
X14724524Y-14087238D01*
X14724524Y-14087238D02*
X14724524Y-14144381D01*
X14724524Y-14144381D02*
X14715000Y-14163428D01*
X14715000Y-14163428D02*
X14705476Y-14172952D01*
X14705476Y-14172952D02*
X14686429Y-14182476D01*
X14686429Y-14182476D02*
X14648333Y-14182476D01*
X14648333Y-14182476D02*
X14629286Y-14172952D01*
X14838810Y-14182476D02*
X14819762Y-14172952D01*
X14819762Y-14172952D02*
X14810238Y-14153905D01*
X14810238Y-14153905D02*
X14810238Y-13982476D01*
X15000714Y-14182476D02*
X15000714Y-14077714D01*
X15000714Y-14077714D02*
X14991191Y-14058667D01*
X14991191Y-14058667D02*
X14972143Y-14049143D01*
X14972143Y-14049143D02*
X14934048Y-14049143D01*
X14934048Y-14049143D02*
X14915000Y-14058667D01*
X15000714Y-14172952D02*
X14981667Y-14182476D01*
X14981667Y-14182476D02*
X14934048Y-14182476D01*
X14934048Y-14182476D02*
X14915000Y-14172952D01*
X14915000Y-14172952D02*
X14905476Y-14153905D01*
X14905476Y-14153905D02*
X14905476Y-14134857D01*
X14905476Y-14134857D02*
X14915000Y-14115809D01*
X14915000Y-14115809D02*
X14934048Y-14106286D01*
X14934048Y-14106286D02*
X14981667Y-14106286D01*
X14981667Y-14106286D02*
X15000714Y-14096762D01*
X15067381Y-14049143D02*
X15143572Y-14049143D01*
X15095953Y-13982476D02*
X15095953Y-14153905D01*
X15095953Y-14153905D02*
X15105476Y-14172952D01*
X15105476Y-14172952D02*
X15124524Y-14182476D01*
X15124524Y-14182476D02*
X15143572Y-14182476D01*
X15286429Y-14172952D02*
X15267381Y-14182476D01*
X15267381Y-14182476D02*
X15229286Y-14182476D01*
X15229286Y-14182476D02*
X15210238Y-14172952D01*
X15210238Y-14172952D02*
X15200714Y-14153905D01*
X15200714Y-14153905D02*
X15200714Y-14077714D01*
X15200714Y-14077714D02*
X15210238Y-14058667D01*
X15210238Y-14058667D02*
X15229286Y-14049143D01*
X15229286Y-14049143D02*
X15267381Y-14049143D01*
X15267381Y-14049143D02*
X15286429Y-14058667D01*
X15286429Y-14058667D02*
X15295953Y-14077714D01*
X15295953Y-14077714D02*
X15295953Y-14096762D01*
X15295953Y-14096762D02*
X15200714Y-14115809D01*
X15467381Y-14182476D02*
X15467381Y-13982476D01*
X15467381Y-14172952D02*
X15448334Y-14182476D01*
X15448334Y-14182476D02*
X15410238Y-14182476D01*
X15410238Y-14182476D02*
X15391191Y-14172952D01*
X15391191Y-14172952D02*
X15381667Y-14163428D01*
X15381667Y-14163428D02*
X15372143Y-14144381D01*
X15372143Y-14144381D02*
X15372143Y-14087238D01*
X15372143Y-14087238D02*
X15381667Y-14068190D01*
X15381667Y-14068190D02*
X15391191Y-14058667D01*
X15391191Y-14058667D02*
X15410238Y-14049143D01*
X15410238Y-14049143D02*
X15448334Y-14049143D01*
X15448334Y-14049143D02*
X15467381Y-14058667D01*
X15543572Y-14258667D02*
X15553095Y-14249143D01*
X15553095Y-14249143D02*
X15572143Y-14220571D01*
X15572143Y-14220571D02*
X15581667Y-14201524D01*
X15581667Y-14201524D02*
X15591191Y-14172952D01*
X15591191Y-14172952D02*
X15600714Y-14125333D01*
X15600714Y-14125333D02*
X15600714Y-14087238D01*
X15600714Y-14087238D02*
X15591191Y-14039619D01*
X15591191Y-14039619D02*
X15581667Y-14011048D01*
X15581667Y-14011048D02*
X15572143Y-13992000D01*
X15572143Y-13992000D02*
X15553095Y-13963428D01*
X15553095Y-13963428D02*
X15543572Y-13953905D01*
M02*
