%TF.GenerationSoftware,KiCad,Pcbnew,(7.0.0)*%
%TF.CreationDate,2023-05-08T11:18:25-04:00*%
%TF.ProjectId,AutoTiller,4175746f-5469-46c6-9c65-722e6b696361,rev?*%
%TF.SameCoordinates,Original*%
%TF.FileFunction,Legend,Bot*%
%TF.FilePolarity,Positive*%
%FSLAX46Y46*%
G04 Gerber Fmt 4.6, Leading zero omitted, Abs format (unit mm)*
G04 Created by KiCad (PCBNEW (7.0.0)) date 2023-05-08 11:18:25*
%MOMM*%
%LPD*%
G01*
G04 APERTURE LIST*
%ADD10C,0.150000*%
%ADD11C,0.500000*%
%ADD12C,0.270000*%
%ADD13C,0.350000*%
%ADD14C,0.400000*%
%ADD15C,0.100000*%
%ADD16C,0.120000*%
G04 APERTURE END LIST*
D10*
X181200000Y-122800000D02*
X193800000Y-122800000D01*
X193800000Y-122800000D02*
X193800000Y-129500000D01*
X193800000Y-129500000D02*
X181200000Y-129500000D01*
X181200000Y-129500000D02*
X181200000Y-122800000D01*
X152500000Y-102900000D02*
X165100000Y-102900000D01*
X165100000Y-102900000D02*
X165100000Y-109600000D01*
X165100000Y-109600000D02*
X152500000Y-109600000D01*
X152500000Y-109600000D02*
X152500000Y-102900000D01*
X122450000Y-102800000D02*
X135050000Y-102800000D01*
X135050000Y-102800000D02*
X135050000Y-109500000D01*
X135050000Y-109500000D02*
X122450000Y-109500000D01*
X122450000Y-109500000D02*
X122450000Y-102800000D01*
X122600000Y-122800000D02*
X135200000Y-122800000D01*
X135200000Y-122800000D02*
X135200000Y-129500000D01*
X135200000Y-129500000D02*
X122600000Y-129500000D01*
X122600000Y-129500000D02*
X122600000Y-122800000D01*
D11*
X110000000Y-112100000D02*
X110000000Y-122500000D01*
D10*
X181400000Y-102600000D02*
X194000000Y-102600000D01*
X194000000Y-102600000D02*
X194000000Y-109300000D01*
X194000000Y-109300000D02*
X181400000Y-109300000D01*
X181400000Y-109300000D02*
X181400000Y-102600000D01*
D11*
X110000000Y-122500000D02*
G75*
G03*
X105757359Y-120742641I0J6000000D01*
G01*
X113999998Y-114500000D02*
G75*
G03*
X113721040Y-118980694I-3999998J-2000000D01*
G01*
D10*
X152300000Y-122700000D02*
X164900000Y-122700000D01*
X164900000Y-122700000D02*
X164900000Y-129400000D01*
X164900000Y-129400000D02*
X152300000Y-129400000D01*
X152300000Y-129400000D02*
X152300000Y-122700000D01*
X145782380Y-109428571D02*
X145782380Y-109619047D01*
X145782380Y-109619047D02*
X145830000Y-109714285D01*
X145830000Y-109714285D02*
X145925238Y-109809523D01*
X145925238Y-109809523D02*
X146115714Y-109857142D01*
X146115714Y-109857142D02*
X146449047Y-109857142D01*
X146449047Y-109857142D02*
X146639523Y-109809523D01*
X146639523Y-109809523D02*
X146734761Y-109714285D01*
X146734761Y-109714285D02*
X146782380Y-109619047D01*
X146782380Y-109619047D02*
X146782380Y-109428571D01*
X146782380Y-109428571D02*
X146734761Y-109333333D01*
X146734761Y-109333333D02*
X146639523Y-109238095D01*
X146639523Y-109238095D02*
X146449047Y-109190476D01*
X146449047Y-109190476D02*
X146115714Y-109190476D01*
X146115714Y-109190476D02*
X145925238Y-109238095D01*
X145925238Y-109238095D02*
X145830000Y-109333333D01*
X145830000Y-109333333D02*
X145782380Y-109428571D01*
X146258571Y-110619047D02*
X146258571Y-110285714D01*
X146782380Y-110285714D02*
X145782380Y-110285714D01*
X145782380Y-110285714D02*
X145782380Y-110761904D01*
X146258571Y-111476190D02*
X146258571Y-111142857D01*
X146782380Y-111142857D02*
X145782380Y-111142857D01*
X145782380Y-111142857D02*
X145782380Y-111619047D01*
D12*
G36*
X125196846Y-105987353D02*
G01*
X125229761Y-106022902D01*
X125229761Y-106174240D01*
X125210539Y-106195000D01*
X124737857Y-106195000D01*
X124737857Y-106022902D01*
X124770772Y-105987352D01*
X124906474Y-105950714D01*
X125061141Y-105950714D01*
X125196846Y-105987353D01*
G37*
G36*
X126490714Y-109536857D02*
G01*
X122434286Y-109536857D01*
X122434286Y-107790023D01*
X123225494Y-107790023D01*
X123258428Y-107862137D01*
X123325122Y-107904999D01*
X124259212Y-107904999D01*
X123950204Y-108071863D01*
X123908255Y-108113423D01*
X123891043Y-108190811D01*
X123918401Y-108265220D01*
X123981644Y-108313025D01*
X124060695Y-108319050D01*
X124611082Y-108021840D01*
X125332075Y-108313842D01*
X125390834Y-108319691D01*
X125461445Y-108283645D01*
X125501360Y-108215147D01*
X125497905Y-108135944D01*
X125452178Y-108071180D01*
X125041854Y-107904999D01*
X125384171Y-107904999D01*
X125440829Y-107888363D01*
X125492745Y-107828447D01*
X125504028Y-107749975D01*
X125471094Y-107677861D01*
X125404400Y-107634999D01*
X124798460Y-107634999D01*
X124764066Y-107632378D01*
X124759212Y-107634999D01*
X123345351Y-107634999D01*
X123288693Y-107651635D01*
X123236777Y-107711551D01*
X123225494Y-107790023D01*
X122434286Y-107790023D01*
X122434286Y-107188861D01*
X123891577Y-107188861D01*
X123896428Y-107216177D01*
X123896428Y-107223695D01*
X123899806Y-107235200D01*
X123905439Y-107266919D01*
X123910828Y-107272739D01*
X123913064Y-107280353D01*
X123937411Y-107301449D01*
X124040795Y-107413105D01*
X124091496Y-107443376D01*
X124170732Y-107440763D01*
X124235978Y-107395728D01*
X124266517Y-107322568D01*
X124252655Y-107244509D01*
X124166428Y-107151383D01*
X124166428Y-107051474D01*
X124210512Y-107003862D01*
X124272244Y-106970526D01*
X124430283Y-106927857D01*
X124965903Y-106927857D01*
X125123948Y-106970528D01*
X125185676Y-107003862D01*
X125229761Y-107051473D01*
X125229761Y-107151383D01*
X125157278Y-107229666D01*
X125130991Y-107282542D01*
X125139683Y-107361343D01*
X125189597Y-107422936D01*
X125264887Y-107447765D01*
X125341650Y-107427948D01*
X125445445Y-107315848D01*
X125456899Y-107310618D01*
X125471897Y-107287280D01*
X125477007Y-107281762D01*
X125482346Y-107271021D01*
X125499761Y-107243924D01*
X125499761Y-107235991D01*
X125503293Y-107228886D01*
X125499761Y-107196865D01*
X125499761Y-107025616D01*
X125504612Y-107013995D01*
X125499761Y-106986679D01*
X125499761Y-106979161D01*
X125496382Y-106967655D01*
X125490750Y-106935937D01*
X125485360Y-106930116D01*
X125483125Y-106922503D01*
X125458775Y-106901404D01*
X125379755Y-106816063D01*
X125368547Y-106795762D01*
X125336228Y-106778309D01*
X125304693Y-106759481D01*
X125301553Y-106759584D01*
X125258806Y-106736500D01*
X125247744Y-106724285D01*
X125224626Y-106718043D01*
X125221352Y-106716275D01*
X125205930Y-106712995D01*
X125039195Y-106667977D01*
X125023448Y-106657857D01*
X125001712Y-106657857D01*
X125000260Y-106657465D01*
X124982348Y-106657857D01*
X124433301Y-106657857D01*
X124415460Y-106652191D01*
X124394475Y-106657857D01*
X124392970Y-106657857D01*
X124375775Y-106662905D01*
X124209070Y-106707915D01*
X124192637Y-106706663D01*
X124171566Y-106718041D01*
X124167975Y-106719011D01*
X124154535Y-106727238D01*
X124076994Y-106769111D01*
X124054539Y-106774908D01*
X124029571Y-106801872D01*
X124003493Y-106827709D01*
X124002811Y-106830774D01*
X123950743Y-106887007D01*
X123939290Y-106892238D01*
X123924291Y-106915575D01*
X123919183Y-106921093D01*
X123913843Y-106931832D01*
X123896428Y-106958932D01*
X123896428Y-106966864D01*
X123892896Y-106973969D01*
X123896428Y-107005990D01*
X123896428Y-107177240D01*
X123891577Y-107188861D01*
X122434286Y-107188861D01*
X122434286Y-106160290D01*
X123891577Y-106160290D01*
X123896428Y-106187607D01*
X123896428Y-106195124D01*
X123899805Y-106206628D01*
X123905439Y-106238349D01*
X123910828Y-106244170D01*
X123913064Y-106251782D01*
X123937410Y-106272877D01*
X124027111Y-106369753D01*
X124053207Y-106398571D01*
X124073472Y-106404042D01*
X124091496Y-106414804D01*
X124110952Y-106414162D01*
X124261754Y-106454879D01*
X124277503Y-106465000D01*
X124299239Y-106465000D01*
X124300691Y-106465392D01*
X124318617Y-106465000D01*
X124485935Y-106465000D01*
X124502983Y-106470622D01*
X124524760Y-106465000D01*
X125247839Y-106465000D01*
X125264887Y-106470622D01*
X125286664Y-106465000D01*
X125384171Y-106465000D01*
X125440829Y-106448364D01*
X125492745Y-106388448D01*
X125504028Y-106309976D01*
X125490723Y-106280843D01*
X125499761Y-106266781D01*
X125499761Y-106258848D01*
X125503293Y-106251743D01*
X125499761Y-106219722D01*
X125499761Y-105997046D01*
X125504612Y-105985425D01*
X125499761Y-105958108D01*
X125499761Y-105950590D01*
X125496382Y-105939084D01*
X125490750Y-105907366D01*
X125485360Y-105901545D01*
X125483125Y-105893932D01*
X125458777Y-105872835D01*
X125369066Y-105775945D01*
X125342982Y-105747142D01*
X125322717Y-105741670D01*
X125304693Y-105730909D01*
X125285235Y-105731550D01*
X125134433Y-105690834D01*
X125118686Y-105680714D01*
X125096950Y-105680714D01*
X125095498Y-105680322D01*
X125077586Y-105680714D01*
X124909492Y-105680714D01*
X124891651Y-105675048D01*
X124870666Y-105680714D01*
X124869161Y-105680714D01*
X124851966Y-105685762D01*
X124663591Y-105736623D01*
X124625968Y-105746336D01*
X124611706Y-105761738D01*
X124593804Y-105772698D01*
X124585332Y-105790223D01*
X124522173Y-105858435D01*
X124510719Y-105863667D01*
X124495718Y-105887007D01*
X124490612Y-105892523D01*
X124485275Y-105903258D01*
X124467857Y-105930361D01*
X124467857Y-105938294D01*
X124464325Y-105945399D01*
X124467857Y-105977420D01*
X124467857Y-106174240D01*
X124448635Y-106195000D01*
X124335046Y-106195000D01*
X124199342Y-106158360D01*
X124166428Y-106122812D01*
X124166428Y-106022902D01*
X124238912Y-105944619D01*
X124265198Y-105891743D01*
X124256506Y-105812942D01*
X124206592Y-105751348D01*
X124131302Y-105726519D01*
X124054539Y-105746336D01*
X123950744Y-105858435D01*
X123939290Y-105863667D01*
X123924289Y-105887007D01*
X123919183Y-105892523D01*
X123913846Y-105903258D01*
X123896428Y-105930361D01*
X123896428Y-105938294D01*
X123892896Y-105945399D01*
X123896428Y-105977420D01*
X123896428Y-106148669D01*
X123891577Y-106160290D01*
X122434286Y-106160290D01*
X122434286Y-105218595D01*
X123225494Y-105218595D01*
X123229761Y-105227938D01*
X123229761Y-105526553D01*
X123246397Y-105583211D01*
X123306313Y-105635127D01*
X123384785Y-105646410D01*
X123456899Y-105613476D01*
X123499761Y-105546782D01*
X123499761Y-105333571D01*
X125384171Y-105333571D01*
X125440829Y-105316935D01*
X125492745Y-105257019D01*
X125504028Y-105178547D01*
X125471094Y-105106433D01*
X125404400Y-105063571D01*
X123499761Y-105063571D01*
X123499761Y-104870590D01*
X123483125Y-104813932D01*
X123423209Y-104762016D01*
X123344737Y-104750733D01*
X123272623Y-104783667D01*
X123229761Y-104850361D01*
X123229761Y-105188918D01*
X123225494Y-105218595D01*
X122434286Y-105218595D01*
X122434286Y-104524966D01*
X123890818Y-104524966D01*
X123910419Y-104601784D01*
X123968438Y-104655811D01*
X124046456Y-104669894D01*
X124119703Y-104639562D01*
X124602856Y-103943820D01*
X125074471Y-104622946D01*
X125120453Y-104659994D01*
X125199279Y-104668461D01*
X125270169Y-104632968D01*
X125310616Y-104564784D01*
X125307780Y-104485555D01*
X124727641Y-103650153D01*
X124723866Y-103635358D01*
X124705471Y-103618228D01*
X124702671Y-103614196D01*
X124691317Y-103605048D01*
X124665847Y-103581330D01*
X124660734Y-103580407D01*
X124656689Y-103577148D01*
X124622085Y-103573431D01*
X124587830Y-103567248D01*
X124583029Y-103569235D01*
X124577863Y-103568681D01*
X124546742Y-103584262D01*
X124514582Y-103597580D01*
X124511617Y-103601848D01*
X124506973Y-103604174D01*
X124489220Y-103634101D01*
X123909472Y-104468939D01*
X123890818Y-104524966D01*
X122434286Y-104524966D01*
X122434286Y-102759286D01*
X126490714Y-102759286D01*
X126490714Y-109536857D01*
G37*
D13*
G36*
X157010714Y-109535142D02*
G01*
X152514286Y-109535142D01*
X152514286Y-107162874D01*
X153586501Y-107162874D01*
X153589761Y-107168859D01*
X153589761Y-107820875D01*
X153611326Y-107894319D01*
X153688994Y-107961619D01*
X153790718Y-107976245D01*
X153884200Y-107933553D01*
X153939761Y-107847098D01*
X153939761Y-107287381D01*
X154346538Y-107258703D01*
X154351666Y-107279666D01*
X154351666Y-107547213D01*
X154349501Y-107550946D01*
X154351666Y-107598296D01*
X154351666Y-107619447D01*
X154352811Y-107623347D01*
X154354195Y-107653608D01*
X154366996Y-107671658D01*
X154373231Y-107692891D01*
X154396123Y-107712727D01*
X154467395Y-107813221D01*
X154479072Y-107841992D01*
X154517182Y-107868859D01*
X154553793Y-107897764D01*
X154558885Y-107898260D01*
X154594980Y-107923706D01*
X154610501Y-107943676D01*
X154636110Y-107952703D01*
X154636873Y-107953241D01*
X154659898Y-107961088D01*
X154830180Y-108021112D01*
X154856234Y-108037856D01*
X154902955Y-108037856D01*
X154949607Y-108040345D01*
X154953975Y-108037856D01*
X155363391Y-108037856D01*
X155393526Y-108044985D01*
X155437584Y-108029454D01*
X155482415Y-108016291D01*
X155485707Y-108012490D01*
X155607854Y-107969434D01*
X155633122Y-107968350D01*
X155655314Y-107952704D01*
X155656195Y-107952394D01*
X155675906Y-107938187D01*
X155753737Y-107883317D01*
X155782542Y-107871722D01*
X155809518Y-107833685D01*
X155838524Y-107797159D01*
X155839034Y-107792067D01*
X155880275Y-107733917D01*
X155884200Y-107732125D01*
X155909820Y-107692259D01*
X155922062Y-107674998D01*
X155923384Y-107671151D01*
X155939761Y-107645670D01*
X155939761Y-107623542D01*
X155946959Y-107602615D01*
X155939761Y-107573190D01*
X155939761Y-107305643D01*
X155941926Y-107301910D01*
X155939761Y-107254560D01*
X155939761Y-107233409D01*
X155938615Y-107229508D01*
X155937232Y-107199248D01*
X155924430Y-107181197D01*
X155918196Y-107159965D01*
X155895303Y-107140128D01*
X155824032Y-107039635D01*
X155812356Y-107010865D01*
X155774245Y-106983996D01*
X155737634Y-106955092D01*
X155732541Y-106954595D01*
X155654555Y-106899615D01*
X155582103Y-106874921D01*
X155482346Y-106899622D01*
X155411778Y-106974334D01*
X155392806Y-107075336D01*
X155431452Y-107170562D01*
X155544146Y-107250012D01*
X155589761Y-107314328D01*
X155589761Y-107538528D01*
X155544147Y-107602842D01*
X155493253Y-107638722D01*
X155353868Y-107687856D01*
X154937559Y-107687856D01*
X154798174Y-107638722D01*
X154747278Y-107602842D01*
X154701666Y-107538528D01*
X154701666Y-107314328D01*
X154747279Y-107250012D01*
X154799415Y-107213256D01*
X154826294Y-107203263D01*
X154855686Y-107164083D01*
X154886143Y-107125728D01*
X154886402Y-107123137D01*
X154887966Y-107121054D01*
X154891510Y-107072198D01*
X154896396Y-107023471D01*
X154895213Y-107021150D01*
X154895402Y-107018553D01*
X154871975Y-106975547D01*
X154849736Y-106931904D01*
X154847486Y-106930590D01*
X154846241Y-106928305D01*
X154803297Y-106904799D01*
X154760979Y-106880100D01*
X154758376Y-106880211D01*
X154756093Y-106878962D01*
X154707261Y-106882404D01*
X154658304Y-106884505D01*
X154656174Y-106886006D01*
X153771134Y-106948401D01*
X153738804Y-106943753D01*
X153697827Y-106962466D01*
X153655609Y-106978164D01*
X153651520Y-106983614D01*
X153645322Y-106986445D01*
X153620968Y-107024339D01*
X153593937Y-107060373D01*
X153593443Y-107067169D01*
X153589761Y-107072900D01*
X153589761Y-107117937D01*
X153586501Y-107162874D01*
X152514286Y-107162874D01*
X152514286Y-106119141D01*
X153582384Y-106119141D01*
X153585981Y-106130913D01*
X153584229Y-106143099D01*
X153600776Y-106179332D01*
X153612416Y-106217425D01*
X153621807Y-106225384D01*
X153626921Y-106236581D01*
X153660427Y-106258114D01*
X153690817Y-106283869D01*
X153703020Y-106285487D01*
X153713376Y-106292142D01*
X153753208Y-106292142D01*
X153792695Y-106297378D01*
X153803835Y-106292142D01*
X155589761Y-106292142D01*
X155589761Y-106545161D01*
X155611326Y-106618605D01*
X155688994Y-106685905D01*
X155790718Y-106700531D01*
X155884200Y-106657839D01*
X155939761Y-106571384D01*
X155939761Y-106129660D01*
X155945293Y-106091185D01*
X155939761Y-106079072D01*
X155939761Y-105689123D01*
X155918196Y-105615679D01*
X155840528Y-105548379D01*
X155738804Y-105533753D01*
X155645322Y-105576445D01*
X155589761Y-105662900D01*
X155589761Y-105942142D01*
X154390113Y-105942142D01*
X154409953Y-105917158D01*
X154410463Y-105912067D01*
X154493491Y-105794998D01*
X154518388Y-105722615D01*
X154493968Y-105622789D01*
X154419455Y-105552012D01*
X154318506Y-105532756D01*
X154223171Y-105571134D01*
X154115575Y-105722843D01*
X153962164Y-105830997D01*
X153702527Y-105953027D01*
X153666155Y-105963707D01*
X153640069Y-105993811D01*
X153610255Y-106020223D01*
X153606916Y-106032071D01*
X153598855Y-106041375D01*
X153593185Y-106080803D01*
X153582384Y-106119141D01*
X152514286Y-106119141D01*
X152514286Y-105135162D01*
X154827857Y-105135162D01*
X154849422Y-105208606D01*
X154927090Y-105275906D01*
X155028814Y-105290532D01*
X155122296Y-105247840D01*
X155177857Y-105161385D01*
X155177857Y-104010552D01*
X155156292Y-103937108D01*
X155078624Y-103869808D01*
X154976900Y-103855182D01*
X154883418Y-103897874D01*
X154827857Y-103984329D01*
X154827857Y-105135162D01*
X152514286Y-105135162D01*
X152514286Y-102889286D01*
X157010714Y-102889286D01*
X157010714Y-109535142D01*
G37*
D14*
G36*
X186185714Y-109366666D02*
G01*
X181414286Y-109366666D01*
X181414286Y-106958235D01*
X182658440Y-106958235D01*
X182659196Y-106959891D01*
X182658968Y-106961697D01*
X182683513Y-107013139D01*
X182707230Y-107065071D01*
X182708763Y-107066056D01*
X182709547Y-107067699D01*
X182758037Y-107097723D01*
X182806036Y-107128570D01*
X182807857Y-107128570D01*
X182809404Y-107129528D01*
X182866425Y-107128570D01*
X184664761Y-107128570D01*
X184664761Y-107528753D01*
X184689408Y-107612692D01*
X184778171Y-107689605D01*
X184894426Y-107706320D01*
X185001262Y-107657530D01*
X185064761Y-107558724D01*
X185064761Y-106942868D01*
X185071082Y-106898905D01*
X185064761Y-106885064D01*
X185064761Y-106328388D01*
X185040114Y-106244449D01*
X184951351Y-106167536D01*
X184835096Y-106150821D01*
X184728260Y-106199611D01*
X184664761Y-106298417D01*
X184664761Y-106728570D01*
X183442843Y-106728570D01*
X183464643Y-106706769D01*
X183493575Y-106689586D01*
X183518229Y-106640277D01*
X183544631Y-106591925D01*
X183544352Y-106588031D01*
X183627935Y-106420866D01*
X183643428Y-106334766D01*
X183598433Y-106226277D01*
X183501927Y-106159336D01*
X183384550Y-106155197D01*
X183283567Y-106215174D01*
X183176580Y-106429147D01*
X183023058Y-106582668D01*
X182779174Y-106745257D01*
X182752068Y-106753217D01*
X182731322Y-106777159D01*
X182729896Y-106778110D01*
X182712506Y-106798873D01*
X182675155Y-106841980D01*
X182674895Y-106843782D01*
X182673727Y-106845178D01*
X182666560Y-106901755D01*
X182658440Y-106958235D01*
X181414286Y-106958235D01*
X181414286Y-104767760D01*
X183134631Y-104767760D01*
X183183421Y-104874596D01*
X183282227Y-104938095D01*
X183902857Y-104938095D01*
X183902857Y-105528754D01*
X183927504Y-105612693D01*
X184016267Y-105689606D01*
X184132522Y-105706321D01*
X184239358Y-105657531D01*
X184302857Y-105558725D01*
X184302857Y-104938095D01*
X184893515Y-104938095D01*
X184977454Y-104913448D01*
X185054367Y-104824685D01*
X185071082Y-104708430D01*
X185022292Y-104601594D01*
X184923486Y-104538095D01*
X184302857Y-104538095D01*
X184302857Y-103947436D01*
X184278210Y-103863497D01*
X184189447Y-103786584D01*
X184073192Y-103769869D01*
X183966356Y-103818659D01*
X183902857Y-103917465D01*
X183902857Y-104538095D01*
X183312198Y-104538095D01*
X183228259Y-104562742D01*
X183151346Y-104651505D01*
X183134631Y-104767760D01*
X181414286Y-104767760D01*
X181414286Y-102614286D01*
X186185714Y-102614286D01*
X186185714Y-109366666D01*
G37*
D12*
G36*
X125396846Y-124625210D02*
G01*
X125429761Y-124660759D01*
X125429761Y-124812097D01*
X125410539Y-124832857D01*
X124937857Y-124832857D01*
X124937857Y-124660759D01*
X124970772Y-124625209D01*
X125106474Y-124588571D01*
X125261141Y-124588571D01*
X125396846Y-124625210D01*
G37*
G36*
X126690714Y-129511857D02*
G01*
X122634286Y-129511857D01*
X122634286Y-127247358D01*
X124095097Y-127247358D01*
X124097933Y-127326587D01*
X124678072Y-128161988D01*
X124681848Y-128176784D01*
X124700242Y-128193912D01*
X124703044Y-128197947D01*
X124714404Y-128207100D01*
X124739867Y-128230811D01*
X124744976Y-128231733D01*
X124749025Y-128234995D01*
X124783643Y-128238713D01*
X124817885Y-128244894D01*
X124822685Y-128242906D01*
X124827851Y-128243461D01*
X124858977Y-128227877D01*
X124891132Y-128214562D01*
X124894094Y-128210295D01*
X124898742Y-128207969D01*
X124916503Y-128178027D01*
X125496241Y-127343203D01*
X125514895Y-127287176D01*
X125495294Y-127210358D01*
X125437275Y-127156331D01*
X125359257Y-127142248D01*
X125286010Y-127172580D01*
X124802856Y-127868322D01*
X124331242Y-127189196D01*
X124285260Y-127152148D01*
X124206434Y-127143681D01*
X124135544Y-127179174D01*
X124095097Y-127247358D01*
X122634286Y-127247358D01*
X122634286Y-126427880D01*
X123425494Y-126427880D01*
X123458428Y-126499994D01*
X123525122Y-126542856D01*
X124459212Y-126542856D01*
X124150204Y-126709720D01*
X124108255Y-126751280D01*
X124091043Y-126828668D01*
X124118401Y-126903077D01*
X124181644Y-126950882D01*
X124260695Y-126956907D01*
X124811082Y-126659697D01*
X125532075Y-126951699D01*
X125590834Y-126957548D01*
X125661445Y-126921502D01*
X125701360Y-126853004D01*
X125697905Y-126773801D01*
X125652178Y-126709037D01*
X125241854Y-126542856D01*
X125584171Y-126542856D01*
X125640829Y-126526220D01*
X125692745Y-126466304D01*
X125704028Y-126387832D01*
X125671094Y-126315718D01*
X125604400Y-126272856D01*
X124998460Y-126272856D01*
X124964066Y-126270235D01*
X124959212Y-126272856D01*
X123545351Y-126272856D01*
X123488693Y-126289492D01*
X123436777Y-126349408D01*
X123425494Y-126427880D01*
X122634286Y-126427880D01*
X122634286Y-125826718D01*
X124091577Y-125826718D01*
X124096428Y-125854034D01*
X124096428Y-125861552D01*
X124099806Y-125873057D01*
X124105439Y-125904776D01*
X124110828Y-125910596D01*
X124113064Y-125918210D01*
X124137411Y-125939306D01*
X124240795Y-126050962D01*
X124291496Y-126081233D01*
X124370732Y-126078620D01*
X124435978Y-126033585D01*
X124466517Y-125960425D01*
X124452655Y-125882366D01*
X124366428Y-125789240D01*
X124366428Y-125689331D01*
X124410512Y-125641719D01*
X124472244Y-125608383D01*
X124630283Y-125565714D01*
X125165903Y-125565714D01*
X125323948Y-125608385D01*
X125385676Y-125641719D01*
X125429761Y-125689330D01*
X125429761Y-125789240D01*
X125357278Y-125867523D01*
X125330991Y-125920399D01*
X125339683Y-125999200D01*
X125389597Y-126060793D01*
X125464887Y-126085622D01*
X125541650Y-126065805D01*
X125645445Y-125953705D01*
X125656899Y-125948475D01*
X125671897Y-125925137D01*
X125677007Y-125919619D01*
X125682346Y-125908878D01*
X125699761Y-125881781D01*
X125699761Y-125873848D01*
X125703293Y-125866743D01*
X125699761Y-125834722D01*
X125699761Y-125663473D01*
X125704612Y-125651852D01*
X125699761Y-125624536D01*
X125699761Y-125617018D01*
X125696382Y-125605512D01*
X125690750Y-125573794D01*
X125685360Y-125567973D01*
X125683125Y-125560360D01*
X125658775Y-125539261D01*
X125579755Y-125453920D01*
X125568547Y-125433619D01*
X125536228Y-125416166D01*
X125504693Y-125397338D01*
X125501553Y-125397441D01*
X125458806Y-125374357D01*
X125447744Y-125362142D01*
X125424626Y-125355900D01*
X125421352Y-125354132D01*
X125405930Y-125350852D01*
X125239195Y-125305834D01*
X125223448Y-125295714D01*
X125201712Y-125295714D01*
X125200260Y-125295322D01*
X125182348Y-125295714D01*
X124633301Y-125295714D01*
X124615460Y-125290048D01*
X124594475Y-125295714D01*
X124592970Y-125295714D01*
X124575775Y-125300762D01*
X124409070Y-125345772D01*
X124392637Y-125344520D01*
X124371566Y-125355898D01*
X124367975Y-125356868D01*
X124354535Y-125365095D01*
X124276994Y-125406968D01*
X124254539Y-125412765D01*
X124229571Y-125439729D01*
X124203493Y-125465566D01*
X124202811Y-125468631D01*
X124150743Y-125524864D01*
X124139290Y-125530095D01*
X124124291Y-125553432D01*
X124119183Y-125558950D01*
X124113843Y-125569689D01*
X124096428Y-125596789D01*
X124096428Y-125604721D01*
X124092896Y-125611826D01*
X124096428Y-125643847D01*
X124096428Y-125815097D01*
X124091577Y-125826718D01*
X122634286Y-125826718D01*
X122634286Y-124798147D01*
X124091577Y-124798147D01*
X124096428Y-124825464D01*
X124096428Y-124832981D01*
X124099805Y-124844485D01*
X124105439Y-124876206D01*
X124110828Y-124882027D01*
X124113064Y-124889639D01*
X124137410Y-124910734D01*
X124227111Y-125007610D01*
X124253207Y-125036428D01*
X124273472Y-125041899D01*
X124291496Y-125052661D01*
X124310952Y-125052019D01*
X124461754Y-125092736D01*
X124477503Y-125102857D01*
X124499239Y-125102857D01*
X124500691Y-125103249D01*
X124518617Y-125102857D01*
X124685935Y-125102857D01*
X124702983Y-125108479D01*
X124724760Y-125102857D01*
X125447839Y-125102857D01*
X125464887Y-125108479D01*
X125486664Y-125102857D01*
X125584171Y-125102857D01*
X125640829Y-125086221D01*
X125692745Y-125026305D01*
X125704028Y-124947833D01*
X125690723Y-124918700D01*
X125699761Y-124904638D01*
X125699761Y-124896705D01*
X125703293Y-124889600D01*
X125699761Y-124857579D01*
X125699761Y-124634903D01*
X125704612Y-124623282D01*
X125699761Y-124595965D01*
X125699761Y-124588447D01*
X125696382Y-124576941D01*
X125690750Y-124545223D01*
X125685360Y-124539402D01*
X125683125Y-124531789D01*
X125658777Y-124510692D01*
X125569066Y-124413802D01*
X125542982Y-124384999D01*
X125522717Y-124379527D01*
X125504693Y-124368766D01*
X125485235Y-124369407D01*
X125334433Y-124328691D01*
X125318686Y-124318571D01*
X125296950Y-124318571D01*
X125295498Y-124318179D01*
X125277586Y-124318571D01*
X125109492Y-124318571D01*
X125091651Y-124312905D01*
X125070666Y-124318571D01*
X125069161Y-124318571D01*
X125051966Y-124323619D01*
X124863591Y-124374480D01*
X124825968Y-124384193D01*
X124811706Y-124399595D01*
X124793804Y-124410555D01*
X124785332Y-124428080D01*
X124722173Y-124496292D01*
X124710719Y-124501524D01*
X124695718Y-124524864D01*
X124690612Y-124530380D01*
X124685275Y-124541115D01*
X124667857Y-124568218D01*
X124667857Y-124576151D01*
X124664325Y-124583256D01*
X124667857Y-124615277D01*
X124667857Y-124812097D01*
X124648635Y-124832857D01*
X124535046Y-124832857D01*
X124399342Y-124796217D01*
X124366428Y-124760669D01*
X124366428Y-124660759D01*
X124438912Y-124582476D01*
X124465198Y-124529600D01*
X124456506Y-124450799D01*
X124406592Y-124389205D01*
X124331302Y-124364376D01*
X124254539Y-124384193D01*
X124150744Y-124496292D01*
X124139290Y-124501524D01*
X124124289Y-124524864D01*
X124119183Y-124530380D01*
X124113846Y-124541115D01*
X124096428Y-124568218D01*
X124096428Y-124576151D01*
X124092896Y-124583256D01*
X124096428Y-124615277D01*
X124096428Y-124786526D01*
X124091577Y-124798147D01*
X122634286Y-124798147D01*
X122634286Y-123856452D01*
X123425494Y-123856452D01*
X123429761Y-123865795D01*
X123429761Y-124164410D01*
X123446397Y-124221068D01*
X123506313Y-124272984D01*
X123584785Y-124284267D01*
X123656899Y-124251333D01*
X123699761Y-124184639D01*
X123699761Y-123971428D01*
X125584171Y-123971428D01*
X125640829Y-123954792D01*
X125692745Y-123894876D01*
X125704028Y-123816404D01*
X125671094Y-123744290D01*
X125604400Y-123701428D01*
X123699761Y-123701428D01*
X123699761Y-123508447D01*
X123683125Y-123451789D01*
X123623209Y-123399873D01*
X123544737Y-123388590D01*
X123472623Y-123421524D01*
X123429761Y-123488218D01*
X123429761Y-123826775D01*
X123425494Y-123856452D01*
X122634286Y-123856452D01*
X122634286Y-122734286D01*
X126690714Y-122734286D01*
X126690714Y-129511857D01*
G37*
D14*
G36*
X185985714Y-129566666D02*
G01*
X181214286Y-129566666D01*
X181214286Y-127158235D01*
X182458440Y-127158235D01*
X182459196Y-127159891D01*
X182458968Y-127161697D01*
X182483513Y-127213139D01*
X182507230Y-127265071D01*
X182508763Y-127266056D01*
X182509547Y-127267699D01*
X182558037Y-127297723D01*
X182606036Y-127328570D01*
X182607857Y-127328570D01*
X182609404Y-127329528D01*
X182666425Y-127328570D01*
X184464761Y-127328570D01*
X184464761Y-127728753D01*
X184489408Y-127812692D01*
X184578171Y-127889605D01*
X184694426Y-127906320D01*
X184801262Y-127857530D01*
X184864761Y-127758724D01*
X184864761Y-127142868D01*
X184871082Y-127098905D01*
X184864761Y-127085064D01*
X184864761Y-126528388D01*
X184840114Y-126444449D01*
X184751351Y-126367536D01*
X184635096Y-126350821D01*
X184528260Y-126399611D01*
X184464761Y-126498417D01*
X184464761Y-126928570D01*
X183242843Y-126928570D01*
X183264643Y-126906769D01*
X183293575Y-126889586D01*
X183318229Y-126840277D01*
X183344631Y-126791925D01*
X183344352Y-126788031D01*
X183427935Y-126620866D01*
X183443428Y-126534766D01*
X183398433Y-126426277D01*
X183301927Y-126359336D01*
X183184550Y-126355197D01*
X183083567Y-126415174D01*
X182976580Y-126629147D01*
X182823058Y-126782668D01*
X182579174Y-126945257D01*
X182552068Y-126953217D01*
X182531322Y-126977159D01*
X182529896Y-126978110D01*
X182512506Y-126998873D01*
X182475155Y-127041980D01*
X182474895Y-127043782D01*
X182473727Y-127045178D01*
X182466560Y-127101755D01*
X182458440Y-127158235D01*
X181214286Y-127158235D01*
X181214286Y-125728754D01*
X183702857Y-125728754D01*
X183727504Y-125812693D01*
X183816267Y-125889606D01*
X183932522Y-125906321D01*
X184039358Y-125857531D01*
X184102857Y-125758725D01*
X184102857Y-124147436D01*
X184078210Y-124063497D01*
X183989447Y-123986584D01*
X183873192Y-123969869D01*
X183766356Y-124018659D01*
X183702857Y-124117465D01*
X183702857Y-125728754D01*
X181214286Y-125728754D01*
X181214286Y-122814286D01*
X185985714Y-122814286D01*
X185985714Y-129566666D01*
G37*
D13*
G36*
X156810714Y-129405713D02*
G01*
X152314286Y-129405713D01*
X152314286Y-127038499D01*
X153386482Y-127038499D01*
X153389761Y-127044526D01*
X153389761Y-127691828D01*
X153411326Y-127765272D01*
X153488994Y-127832572D01*
X153590718Y-127847198D01*
X153684200Y-127804506D01*
X153739761Y-127718051D01*
X153739761Y-127163177D01*
X154146975Y-127134672D01*
X154151666Y-127154128D01*
X154151666Y-127419911D01*
X154149357Y-127423924D01*
X154151666Y-127470959D01*
X154151666Y-127491828D01*
X154152896Y-127496017D01*
X154154396Y-127526569D01*
X154167081Y-127544328D01*
X154173231Y-127565272D01*
X154196350Y-127585305D01*
X154267679Y-127685166D01*
X154279452Y-127713897D01*
X154317655Y-127740640D01*
X154354362Y-127769420D01*
X154359453Y-127769898D01*
X154395326Y-127795009D01*
X154410831Y-127814867D01*
X154436555Y-127823870D01*
X154437399Y-127824461D01*
X154460308Y-127832183D01*
X154630348Y-127891696D01*
X154656234Y-127908332D01*
X154703153Y-127908332D01*
X154750002Y-127910727D01*
X154754184Y-127908332D01*
X155163193Y-127908332D01*
X155193120Y-127915482D01*
X155237393Y-127899986D01*
X155282415Y-127886767D01*
X155285571Y-127883124D01*
X155407372Y-127840494D01*
X155432545Y-127839499D01*
X155454872Y-127823869D01*
X155455846Y-127823529D01*
X155475507Y-127809424D01*
X155553219Y-127755026D01*
X155582059Y-127743529D01*
X155609155Y-127705594D01*
X155638294Y-127669151D01*
X155638821Y-127664062D01*
X155679987Y-127606429D01*
X155684200Y-127604506D01*
X155709664Y-127564881D01*
X155721789Y-127547908D01*
X155723222Y-127543785D01*
X155739761Y-127518051D01*
X155739761Y-127496224D01*
X155746929Y-127475610D01*
X155739761Y-127445874D01*
X155739761Y-127180087D01*
X155742070Y-127176074D01*
X155739761Y-127129039D01*
X155739761Y-127108170D01*
X155738530Y-127103980D01*
X155737031Y-127073428D01*
X155724345Y-127055667D01*
X155718196Y-127034726D01*
X155695077Y-127014693D01*
X155623747Y-126914831D01*
X155611975Y-126886101D01*
X155573771Y-126859357D01*
X155537065Y-126830578D01*
X155531973Y-126830099D01*
X155454028Y-126775537D01*
X155381494Y-126751086D01*
X155281819Y-126776120D01*
X155211502Y-126851068D01*
X155192868Y-126952134D01*
X155231833Y-127047230D01*
X155344571Y-127126147D01*
X155389761Y-127189413D01*
X155389761Y-127410584D01*
X155344570Y-127473850D01*
X155293695Y-127509463D01*
X155154070Y-127558332D01*
X154737360Y-127558332D01*
X154597728Y-127509461D01*
X154546856Y-127473851D01*
X154501666Y-127410584D01*
X154501666Y-127189413D01*
X154546855Y-127126147D01*
X154599100Y-127089575D01*
X154626222Y-127079507D01*
X154655478Y-127040548D01*
X154685913Y-127002484D01*
X154686209Y-126999625D01*
X154687934Y-126997329D01*
X154691484Y-126948726D01*
X154696507Y-126900261D01*
X154695211Y-126897697D01*
X154695421Y-126894832D01*
X154672121Y-126852008D01*
X154650154Y-126808539D01*
X154647679Y-126807083D01*
X154646306Y-126804559D01*
X154603557Y-126781132D01*
X154561571Y-126756438D01*
X154558701Y-126756551D01*
X154556182Y-126755171D01*
X154507579Y-126758573D01*
X154458882Y-126760499D01*
X154456528Y-126762146D01*
X153571175Y-126824121D01*
X153538804Y-126819467D01*
X153497869Y-126838161D01*
X153455681Y-126853824D01*
X153451561Y-126859309D01*
X153445322Y-126862159D01*
X153420993Y-126900015D01*
X153393969Y-126936002D01*
X153393469Y-126942843D01*
X153389761Y-126948614D01*
X153389761Y-126993610D01*
X153386482Y-127038499D01*
X152314286Y-127038499D01*
X152314286Y-126001499D01*
X153382379Y-126001499D01*
X153386016Y-126013521D01*
X153384229Y-126025956D01*
X153400677Y-126061972D01*
X153412143Y-126099865D01*
X153421702Y-126108012D01*
X153426921Y-126119438D01*
X153460226Y-126140841D01*
X153490361Y-126166523D01*
X153502809Y-126168208D01*
X153513376Y-126174999D01*
X153552966Y-126174999D01*
X153592201Y-126180311D01*
X153603584Y-126174999D01*
X155389761Y-126174999D01*
X155389761Y-126425161D01*
X155411326Y-126498605D01*
X155488994Y-126565905D01*
X155590718Y-126580531D01*
X155684200Y-126537839D01*
X155739761Y-126451384D01*
X155739761Y-126012517D01*
X155745293Y-125974042D01*
X155739761Y-125961929D01*
X155739761Y-125574837D01*
X155718196Y-125501393D01*
X155640528Y-125434093D01*
X155538804Y-125419467D01*
X155445322Y-125462159D01*
X155389761Y-125548614D01*
X155389761Y-125824999D01*
X154191721Y-125824999D01*
X154209722Y-125802485D01*
X154210249Y-125797398D01*
X154293219Y-125681240D01*
X154318359Y-125608942D01*
X154294275Y-125509034D01*
X154219999Y-125438007D01*
X154119116Y-125418412D01*
X154023653Y-125456469D01*
X153915999Y-125607185D01*
X153762632Y-125714541D01*
X153502753Y-125835817D01*
X153466155Y-125846564D01*
X153440227Y-125876485D01*
X153410521Y-125902658D01*
X153407081Y-125914738D01*
X153398855Y-125924232D01*
X153393220Y-125963422D01*
X153382379Y-126001499D01*
X152314286Y-126001499D01*
X152314286Y-125025162D01*
X154627857Y-125025162D01*
X154649422Y-125098606D01*
X154727090Y-125165906D01*
X154828814Y-125180532D01*
X154922296Y-125137840D01*
X154977857Y-125051385D01*
X154977857Y-123908171D01*
X154956292Y-123834727D01*
X154878624Y-123767427D01*
X154776900Y-123752801D01*
X154683418Y-123795493D01*
X154627857Y-123881948D01*
X154627857Y-125025162D01*
X152314286Y-125025162D01*
X152314286Y-122789286D01*
X156810714Y-122789286D01*
X156810714Y-129405713D01*
G37*
D10*
X140532380Y-109678571D02*
X140532380Y-109869047D01*
X140532380Y-109869047D02*
X140580000Y-109964285D01*
X140580000Y-109964285D02*
X140675238Y-110059523D01*
X140675238Y-110059523D02*
X140865714Y-110107142D01*
X140865714Y-110107142D02*
X141199047Y-110107142D01*
X141199047Y-110107142D02*
X141389523Y-110059523D01*
X141389523Y-110059523D02*
X141484761Y-109964285D01*
X141484761Y-109964285D02*
X141532380Y-109869047D01*
X141532380Y-109869047D02*
X141532380Y-109678571D01*
X141532380Y-109678571D02*
X141484761Y-109583333D01*
X141484761Y-109583333D02*
X141389523Y-109488095D01*
X141389523Y-109488095D02*
X141199047Y-109440476D01*
X141199047Y-109440476D02*
X140865714Y-109440476D01*
X140865714Y-109440476D02*
X140675238Y-109488095D01*
X140675238Y-109488095D02*
X140580000Y-109583333D01*
X140580000Y-109583333D02*
X140532380Y-109678571D01*
X141532380Y-110535714D02*
X140532380Y-110535714D01*
X140532380Y-110535714D02*
X141532380Y-111107142D01*
X141532380Y-111107142D02*
X140532380Y-111107142D01*
D15*
%TO.C,SW6*%
X130000000Y-126500000D02*
X132000000Y-126500000D01*
X132000000Y-126500000D02*
X132000000Y-125500000D01*
X132000000Y-125500000D02*
X130000000Y-125500000D01*
X130000000Y-125500000D02*
X130000000Y-126500000D01*
D16*
%TO.C,J2*%
X219100000Y-119290000D02*
X219100000Y-117965000D01*
X215235000Y-117965000D02*
X215235000Y-114435000D01*
X215300000Y-117965000D02*
X215235000Y-117965000D01*
X219165000Y-117965000D02*
X219100000Y-117965000D01*
X219165000Y-117965000D02*
X219165000Y-114435000D01*
X215300000Y-114435000D02*
X215235000Y-114435000D01*
X219165000Y-114435000D02*
X219100000Y-114435000D01*
%TO.C,C33*%
X107840000Y-123407836D02*
X107840000Y-123192164D01*
X108560000Y-123407836D02*
X108560000Y-123192164D01*
D15*
%TO.C,SW7*%
X130000000Y-106500000D02*
X132000000Y-106500000D01*
X132000000Y-106500000D02*
X132000000Y-105500000D01*
X132000000Y-105500000D02*
X130000000Y-105500000D01*
X130000000Y-105500000D02*
X130000000Y-106500000D01*
%TO.C,SW4*%
X160000000Y-106500000D02*
X162000000Y-106500000D01*
X162000000Y-106500000D02*
X162000000Y-105500000D01*
X162000000Y-105500000D02*
X160000000Y-105500000D01*
X160000000Y-105500000D02*
X160000000Y-106500000D01*
%TO.C,SW2*%
X189000000Y-106500000D02*
X191000000Y-106500000D01*
X191000000Y-106500000D02*
X191000000Y-105500000D01*
X191000000Y-105500000D02*
X189000000Y-105500000D01*
X189000000Y-105500000D02*
X189000000Y-106500000D01*
D16*
%TO.C,C34*%
X112560000Y-123192164D02*
X112560000Y-123407836D01*
X111840000Y-123192164D02*
X111840000Y-123407836D01*
%TO.C,MMC5603NJ1*%
X158525000Y-117725000D02*
X157475000Y-117725000D01*
X158525000Y-117200000D02*
X158525000Y-117725000D01*
X157475000Y-117725000D02*
X157475000Y-116675000D01*
X157475000Y-116675000D02*
X158000000Y-116675000D01*
D15*
%TO.C,SW5*%
X160000000Y-126500000D02*
X162000000Y-126500000D01*
X162000000Y-126500000D02*
X162000000Y-125500000D01*
X162000000Y-125500000D02*
X160000000Y-125500000D01*
X160000000Y-125500000D02*
X160000000Y-126500000D01*
%TO.C,SW3*%
X189000000Y-126500000D02*
X191000000Y-126500000D01*
X191000000Y-126500000D02*
X191000000Y-125500000D01*
X191000000Y-125500000D02*
X189000000Y-125500000D01*
X189000000Y-125500000D02*
X189000000Y-126500000D01*
D16*
%TO.C,C14*%
X159640000Y-117307836D02*
X159640000Y-117092164D01*
X160360000Y-117307836D02*
X160360000Y-117092164D01*
%TD*%
M02*
