%TF.GenerationSoftware,KiCad,Pcbnew,7.0.2*%
%TF.CreationDate,2023-05-28T21:21:49-04:00*%
%TF.ProjectId,AutoTiller,4175746f-5469-46c6-9c65-722e6b696361,rev?*%
%TF.SameCoordinates,Original*%
%TF.FileFunction,Copper,L3,Inr*%
%TF.FilePolarity,Positive*%
%FSLAX46Y46*%
G04 Gerber Fmt 4.6, Leading zero omitted, Abs format (unit mm)*
G04 Created by KiCad (PCBNEW 7.0.2) date 2023-05-28 21:21:49*
%MOMM*%
%LPD*%
G01*
G04 APERTURE LIST*
G04 Aperture macros list*
%AMRoundRect*
0 Rectangle with rounded corners*
0 $1 Rounding radius*
0 $2 $3 $4 $5 $6 $7 $8 $9 X,Y pos of 4 corners*
0 Add a 4 corners polygon primitive as box body*
4,1,4,$2,$3,$4,$5,$6,$7,$8,$9,$2,$3,0*
0 Add four circle primitives for the rounded corners*
1,1,$1+$1,$2,$3*
1,1,$1+$1,$4,$5*
1,1,$1+$1,$6,$7*
1,1,$1+$1,$8,$9*
0 Add four rect primitives between the rounded corners*
20,1,$1+$1,$2,$3,$4,$5,0*
20,1,$1+$1,$4,$5,$6,$7,0*
20,1,$1+$1,$6,$7,$8,$9,0*
20,1,$1+$1,$8,$9,$2,$3,0*%
G04 Aperture macros list end*
%TA.AperFunction,ComponentPad*%
%ADD10O,2.300000X1.300000*%
%TD*%
%TA.AperFunction,ComponentPad*%
%ADD11O,2.600000X1.300000*%
%TD*%
%TA.AperFunction,ComponentPad*%
%ADD12RoundRect,0.825000X-1.295000X-0.825000X1.295000X-0.825000X1.295000X0.825000X-1.295000X0.825000X0*%
%TD*%
%TA.AperFunction,ComponentPad*%
%ADD13RoundRect,1.060000X-1.060000X-1.540000X1.060000X-1.540000X1.060000X1.540000X-1.060000X1.540000X0*%
%TD*%
%TA.AperFunction,ComponentPad*%
%ADD14C,0.500000*%
%TD*%
%TA.AperFunction,ComponentPad*%
%ADD15R,1.700000X1.700000*%
%TD*%
%TA.AperFunction,ComponentPad*%
%ADD16O,1.700000X1.700000*%
%TD*%
%TA.AperFunction,ComponentPad*%
%ADD17RoundRect,0.825000X1.295000X0.825000X-1.295000X0.825000X-1.295000X-0.825000X1.295000X-0.825000X0*%
%TD*%
%TA.AperFunction,ComponentPad*%
%ADD18RoundRect,1.060000X1.060000X1.540000X-1.060000X1.540000X-1.060000X-1.540000X1.060000X-1.540000X0*%
%TD*%
%TA.AperFunction,ViaPad*%
%ADD19C,0.800000*%
%TD*%
%TA.AperFunction,ViaPad*%
%ADD20C,0.410000*%
%TD*%
G04 APERTURE END LIST*
D10*
%TO.N,unconnected-(J1-SHIELD-PadS1)*%
%TO.C,J1*%
X126675000Y-115680000D03*
D11*
X122850000Y-115680000D03*
D10*
X126675000Y-124320000D03*
D11*
X122850000Y-124320000D03*
%TD*%
D12*
%TO.N,VBAT*%
%TO.C,BT1*%
X123885000Y-150000000D03*
D13*
X139885000Y-150000000D03*
%TO.N,/BT1*%
X180115000Y-150000000D03*
D12*
X196115000Y-150000000D03*
%TD*%
D14*
%TO.N,GND*%
%TO.C,DRV8251ADDAR1*%
X169400000Y-130490000D03*
X168100000Y-130490000D03*
X166800000Y-130490000D03*
X169400000Y-132400000D03*
X168100000Y-132400000D03*
X166800000Y-132400000D03*
%TD*%
D15*
%TO.N,/OUT1*%
%TO.C,U3*%
X170350000Y-139090000D03*
D16*
%TO.N,/OUT2*%
X167810000Y-139090000D03*
%TO.N,GND*%
X165270000Y-139090000D03*
%TO.N,+3.3V*%
X162730000Y-139090000D03*
%TO.N,ENC_A*%
X160190000Y-139090000D03*
%TO.N,ENC_B*%
X157650000Y-139090000D03*
%TD*%
D17*
%TO.N,/BT1*%
%TO.C,BT2*%
X196115000Y-90000000D03*
D18*
X180115000Y-90000000D03*
%TO.N,BT2*%
X139885000Y-90000000D03*
D17*
X123885000Y-90000000D03*
%TD*%
D19*
%TO.N,STAT*%
X124450000Y-140110000D03*
D20*
X138500000Y-118600000D03*
D19*
%TO.N,D+*%
X125500000Y-120000000D03*
D20*
X138003970Y-121696030D03*
D19*
%TO.N,D-*%
X124500497Y-120000000D03*
D20*
X138500000Y-122300000D03*
D19*
%TO.N,GND*%
X168400000Y-135500000D03*
X133000000Y-109000000D03*
X185600000Y-118600000D03*
X129000000Y-104000000D03*
X131000000Y-109000000D03*
X129000000Y-109000000D03*
X135000000Y-104000000D03*
X136800000Y-127400000D03*
X140400000Y-121100000D03*
X168400000Y-136700000D03*
X135000000Y-107000000D03*
X169100000Y-136100000D03*
X186800000Y-119800000D03*
X140900000Y-130400000D03*
X186800000Y-121200000D03*
X133000000Y-104000000D03*
X188000000Y-121200000D03*
X188000000Y-118600000D03*
X135000000Y-109000000D03*
X135000000Y-106000000D03*
X186800000Y-118600000D03*
X188000000Y-119800000D03*
X185600000Y-119800000D03*
X131000000Y-104000000D03*
X141381864Y-121097733D03*
X184950000Y-131100000D03*
X185600000Y-121200000D03*
X147600000Y-122000000D03*
X139600000Y-130400000D03*
X187062500Y-89137500D03*
X187062500Y-88262500D03*
%TO.N,QON*%
X139400000Y-123400000D03*
X149100000Y-122800000D03*
X144200000Y-123900000D03*
X157100000Y-122800000D03*
X149100000Y-122800000D03*
%TO.N,SCL*%
X187900000Y-130900000D03*
X188600000Y-95400000D03*
X140800000Y-125600000D03*
X177400000Y-105400000D03*
X182950000Y-115450000D03*
%TO.N,SDA*%
X178400000Y-103800000D03*
X183000000Y-116700000D03*
X186800000Y-96400000D03*
X142200000Y-125800000D03*
X186800000Y-130850000D03*
D20*
%TO.N,ESP_EN*%
X186200000Y-115000000D03*
D19*
%TO.N,+3.3V*%
X189200000Y-110600000D03*
X166912500Y-115950000D03*
X188612500Y-86400000D03*
X188612500Y-85200000D03*
X155300000Y-108400000D03*
X177800000Y-108600000D03*
X184200000Y-111800000D03*
X156100000Y-108000000D03*
X155300000Y-110200000D03*
X163850000Y-137600000D03*
X156100000Y-107000000D03*
X189150000Y-134400000D03*
X155300000Y-107500000D03*
X156900000Y-110300000D03*
X156100000Y-108900000D03*
X155300000Y-109300000D03*
X190000000Y-109400000D03*
X131400000Y-127300000D03*
%TO.N,+1*%
X183600000Y-108590000D03*
D20*
X187800000Y-115000000D03*
D19*
%TO.N,-1*%
X182400000Y-108610000D03*
D20*
X187000000Y-115000000D03*
%TO.N,+15*%
X188600000Y-115000000D03*
D19*
X184800000Y-108590000D03*
%TO.N,-15*%
X181200000Y-108590000D03*
D20*
X185400000Y-115000000D03*
D19*
%TO.N,TackL*%
X180000000Y-108590000D03*
D20*
X184600000Y-115000000D03*
D19*
%TO.N,TackR*%
X186000000Y-108590000D03*
D20*
X189400000Y-115000000D03*
D19*
%TO.N,ENC_B*%
X174700500Y-124600000D03*
%TO.N,S_LED*%
X133600000Y-127000000D03*
X159600000Y-125995000D03*
%TO.N,ESP_IO0*%
X188800000Y-115800000D03*
%TO.N,ENC_A*%
X174699945Y-123600498D03*
%TO.N,BC_INT*%
X149100000Y-125100000D03*
X158000000Y-123800000D03*
%TO.N,ESP_RXD*%
X187800000Y-127000000D03*
%TO.N,ESP_TXD*%
X188800000Y-127000000D03*
%TO.N,/INT*%
X147000000Y-127400000D03*
D20*
X144400000Y-120200000D03*
%TO.N,/SW2*%
X141700000Y-119700000D03*
D19*
X141700000Y-113400000D03*
X141700000Y-112400000D03*
X141700000Y-114400000D03*
D20*
X142100000Y-120100000D03*
%TO.N,/PROG*%
X142200000Y-121200000D03*
D19*
X144400000Y-127400000D03*
D20*
%TO.N,/BTST1*%
X138000000Y-120400000D03*
%TO.N,/BTST2*%
X143900000Y-120600000D03*
D19*
%TO.N,/SW1*%
X140700000Y-113400000D03*
D20*
X140600000Y-119700000D03*
D19*
X140700497Y-114400000D03*
X140700000Y-112400000D03*
D20*
X140200000Y-120200000D03*
D19*
%TO.N,/SDRV*%
X145800000Y-125800000D03*
D20*
X144200000Y-118600000D03*
D19*
%TO.N,Compass_INT*%
X185200000Y-92000000D03*
%TD*%
%TA.AperFunction,Conductor*%
%TO.N,/SW2*%
G36*
X154985111Y-110715291D02*
G01*
X154997159Y-110724536D01*
X154997160Y-110724536D01*
X154997161Y-110724537D01*
X155143634Y-110785208D01*
X155180955Y-110819406D01*
X155187894Y-110839139D01*
X155198578Y-110892852D01*
X155200000Y-110907288D01*
X155200000Y-118792711D01*
X155198578Y-118807148D01*
X155187647Y-118862100D01*
X155176598Y-118888775D01*
X155149599Y-118929182D01*
X155129182Y-118949599D01*
X155088775Y-118976598D01*
X155062100Y-118987647D01*
X155007149Y-118998578D01*
X154992712Y-119000000D01*
X154507288Y-119000000D01*
X154492851Y-118998578D01*
X154437899Y-118987647D01*
X154411224Y-118976598D01*
X154370815Y-118949597D01*
X154350402Y-118929184D01*
X154323400Y-118888773D01*
X154312352Y-118862099D01*
X154301422Y-118807147D01*
X154300000Y-118792711D01*
X154300000Y-110907288D01*
X154301422Y-110892852D01*
X154312352Y-110837900D01*
X154323399Y-110811227D01*
X154350405Y-110770811D01*
X154370811Y-110750405D01*
X154411227Y-110723399D01*
X154437898Y-110712352D01*
X154472903Y-110705389D01*
X154492852Y-110701422D01*
X154507288Y-110700000D01*
X154940064Y-110700000D01*
X154985111Y-110715291D01*
G37*
%TD.AperFunction*%
%TD*%
%TA.AperFunction,Conductor*%
%TO.N,/SW1*%
G36*
X153507148Y-110701422D02*
G01*
X153539434Y-110707843D01*
X153562099Y-110712352D01*
X153588773Y-110723400D01*
X153629184Y-110750402D01*
X153649597Y-110770815D01*
X153676598Y-110811224D01*
X153687647Y-110837899D01*
X153698578Y-110892851D01*
X153700000Y-110907288D01*
X153700000Y-118792711D01*
X153698578Y-118807148D01*
X153687647Y-118862100D01*
X153676598Y-118888775D01*
X153649599Y-118929182D01*
X153629182Y-118949599D01*
X153588775Y-118976598D01*
X153562100Y-118987647D01*
X153507149Y-118998578D01*
X153492712Y-119000000D01*
X153007288Y-119000000D01*
X152992851Y-118998578D01*
X152937899Y-118987647D01*
X152911224Y-118976598D01*
X152870815Y-118949597D01*
X152850402Y-118929184D01*
X152823400Y-118888773D01*
X152812352Y-118862099D01*
X152801422Y-118807147D01*
X152800000Y-118792711D01*
X152800000Y-110907288D01*
X152801422Y-110892852D01*
X152812352Y-110837900D01*
X152812353Y-110837899D01*
X152812352Y-110837898D01*
X152823399Y-110811227D01*
X152850405Y-110770811D01*
X152870811Y-110750405D01*
X152911227Y-110723399D01*
X152937898Y-110712352D01*
X152972903Y-110705389D01*
X152992852Y-110701422D01*
X153007288Y-110700000D01*
X153492712Y-110700000D01*
X153507148Y-110701422D01*
G37*
%TD.AperFunction*%
%TD*%
%TA.AperFunction,Conductor*%
%TO.N,GND*%
G36*
X195825195Y-80000526D02*
G01*
X196192777Y-80009551D01*
X196199284Y-80009951D01*
X196581872Y-80047632D01*
X196590482Y-80048908D01*
X196966461Y-80123696D01*
X196974934Y-80125818D01*
X197341768Y-80237096D01*
X197349968Y-80240030D01*
X197548263Y-80322167D01*
X197704128Y-80386729D01*
X197712023Y-80390463D01*
X198050070Y-80571153D01*
X198057562Y-80575643D01*
X198376293Y-80788612D01*
X198383308Y-80793815D01*
X198679615Y-81036987D01*
X198686087Y-81042852D01*
X198957147Y-81313912D01*
X198963012Y-81320384D01*
X199206184Y-81616691D01*
X199211387Y-81623706D01*
X199424356Y-81942437D01*
X199428846Y-81949929D01*
X199609536Y-82287976D01*
X199613270Y-82295871D01*
X199759964Y-82650019D01*
X199762907Y-82658243D01*
X199874181Y-83025066D01*
X199876303Y-83033538D01*
X199951088Y-83409502D01*
X199952369Y-83418142D01*
X199990047Y-83800699D01*
X199990449Y-83807238D01*
X199999473Y-84174804D01*
X199999500Y-84176988D01*
X199999500Y-106967376D01*
X199978678Y-107024584D01*
X199977756Y-107025665D01*
X194800000Y-112999999D01*
X194800000Y-113000000D01*
X194800000Y-127000000D01*
X199977756Y-132974334D01*
X199999489Y-133031202D01*
X199999500Y-133032622D01*
X199999500Y-155823010D01*
X199999473Y-155825194D01*
X199990449Y-156192761D01*
X199990047Y-156199300D01*
X199952369Y-156581857D01*
X199951088Y-156590497D01*
X199876303Y-156966461D01*
X199874181Y-156974933D01*
X199762907Y-157341756D01*
X199759964Y-157349980D01*
X199613270Y-157704128D01*
X199609536Y-157712023D01*
X199428846Y-158050070D01*
X199424356Y-158057562D01*
X199211387Y-158376293D01*
X199206184Y-158383308D01*
X198963012Y-158679615D01*
X198957147Y-158686087D01*
X198686087Y-158957147D01*
X198679615Y-158963012D01*
X198383308Y-159206184D01*
X198376293Y-159211387D01*
X198057562Y-159424356D01*
X198050070Y-159428846D01*
X197712023Y-159609536D01*
X197704128Y-159613270D01*
X197349980Y-159759964D01*
X197341756Y-159762907D01*
X196974933Y-159874181D01*
X196966461Y-159876303D01*
X196590497Y-159951088D01*
X196581857Y-159952369D01*
X196199300Y-159990047D01*
X196192761Y-159990449D01*
X195825196Y-159999473D01*
X195823012Y-159999500D01*
X124176988Y-159999500D01*
X124174804Y-159999473D01*
X123807238Y-159990449D01*
X123800699Y-159990047D01*
X123418142Y-159952369D01*
X123409502Y-159951088D01*
X123033538Y-159876303D01*
X123025066Y-159874181D01*
X122658243Y-159762907D01*
X122650019Y-159759964D01*
X122295871Y-159613270D01*
X122287976Y-159609536D01*
X121949929Y-159428846D01*
X121942437Y-159424356D01*
X121623706Y-159211387D01*
X121616691Y-159206184D01*
X121320384Y-158963012D01*
X121313912Y-158957147D01*
X121042852Y-158686087D01*
X121036987Y-158679615D01*
X120793815Y-158383308D01*
X120788612Y-158376293D01*
X120575643Y-158057562D01*
X120571153Y-158050070D01*
X120390463Y-157712023D01*
X120386729Y-157704128D01*
X120322167Y-157548263D01*
X120240030Y-157349968D01*
X120237096Y-157341768D01*
X120125818Y-156974933D01*
X120123696Y-156966461D01*
X120073227Y-156712739D01*
X120048908Y-156590482D01*
X120047632Y-156581872D01*
X120009951Y-156199284D01*
X120009551Y-156192777D01*
X120003402Y-155942303D01*
X122641828Y-155942303D01*
X122651614Y-156172671D01*
X122700188Y-156398060D01*
X122786157Y-156612003D01*
X122786159Y-156612006D01*
X122907049Y-156808343D01*
X123059380Y-156981425D01*
X123238772Y-157126274D01*
X123440063Y-157238721D01*
X123657462Y-157315533D01*
X123884715Y-157354500D01*
X123884716Y-157354500D01*
X124055634Y-157354500D01*
X124057535Y-157354500D01*
X124229739Y-157339843D01*
X124341303Y-157310794D01*
X124452870Y-157281745D01*
X124557920Y-157234259D01*
X124662971Y-157186773D01*
X124854000Y-157057659D01*
X125020462Y-156898119D01*
X125157566Y-156712742D01*
X125261370Y-156506860D01*
X125328886Y-156286397D01*
X125358172Y-156057694D01*
X125353270Y-155942303D01*
X194641828Y-155942303D01*
X194651614Y-156172671D01*
X194700188Y-156398060D01*
X194786157Y-156612003D01*
X194786159Y-156612006D01*
X194907049Y-156808343D01*
X195059380Y-156981425D01*
X195238772Y-157126274D01*
X195440063Y-157238721D01*
X195657462Y-157315533D01*
X195884715Y-157354500D01*
X195884716Y-157354500D01*
X196055634Y-157354500D01*
X196057535Y-157354500D01*
X196229739Y-157339843D01*
X196341303Y-157310794D01*
X196452870Y-157281745D01*
X196557920Y-157234259D01*
X196662971Y-157186773D01*
X196854000Y-157057659D01*
X197020462Y-156898119D01*
X197157566Y-156712742D01*
X197261370Y-156506860D01*
X197328886Y-156286397D01*
X197358172Y-156057694D01*
X197348386Y-155827332D01*
X197323876Y-155713603D01*
X197299811Y-155601939D01*
X197213842Y-155387996D01*
X197151816Y-155287260D01*
X197092951Y-155191657D01*
X196940620Y-155018575D01*
X196761228Y-154873726D01*
X196652927Y-154813226D01*
X196559936Y-154761278D01*
X196342540Y-154684467D01*
X196191035Y-154658489D01*
X196115285Y-154645500D01*
X195942465Y-154645500D01*
X195940580Y-154645660D01*
X195940566Y-154645661D01*
X195770261Y-154660156D01*
X195547129Y-154718254D01*
X195337029Y-154813226D01*
X195146001Y-154942339D01*
X194979537Y-155101881D01*
X194842432Y-155287260D01*
X194738630Y-155493137D01*
X194671113Y-155713604D01*
X194641828Y-155942303D01*
X125353270Y-155942303D01*
X125348386Y-155827332D01*
X125323876Y-155713603D01*
X125299811Y-155601939D01*
X125213842Y-155387996D01*
X125151816Y-155287260D01*
X125092951Y-155191657D01*
X124940620Y-155018575D01*
X124761228Y-154873726D01*
X124652927Y-154813226D01*
X124559936Y-154761278D01*
X124342540Y-154684467D01*
X124191036Y-154658488D01*
X124115285Y-154645500D01*
X123942465Y-154645500D01*
X123940580Y-154645660D01*
X123940566Y-154645661D01*
X123770261Y-154660156D01*
X123547129Y-154718254D01*
X123337029Y-154813226D01*
X123146001Y-154942339D01*
X122979537Y-155101881D01*
X122842432Y-155287260D01*
X122738630Y-155493137D01*
X122671113Y-155713604D01*
X122641828Y-155942303D01*
X120003402Y-155942303D01*
X120000527Y-155825194D01*
X120000500Y-155823010D01*
X120000500Y-150875380D01*
X121564500Y-150875380D01*
X121564714Y-150877555D01*
X121564715Y-150877570D01*
X121579337Y-151026029D01*
X121637977Y-151219343D01*
X121733201Y-151397493D01*
X121733202Y-151397494D01*
X121861353Y-151553647D01*
X122017506Y-151681798D01*
X122195656Y-151777022D01*
X122195658Y-151777022D01*
X122195659Y-151777023D01*
X122388967Y-151835662D01*
X122539620Y-151850500D01*
X122541815Y-151850500D01*
X125228185Y-151850500D01*
X125230380Y-151850500D01*
X125381033Y-151835662D01*
X125574341Y-151777023D01*
X125752494Y-151681798D01*
X125846395Y-151604736D01*
X137564500Y-151604736D01*
X137564636Y-151606471D01*
X137564637Y-151606482D01*
X137574987Y-151737987D01*
X137630424Y-151957995D01*
X137630425Y-151957998D01*
X137630426Y-151958000D01*
X137724260Y-152164582D01*
X137853473Y-152351089D01*
X138013911Y-152511527D01*
X138200418Y-152640740D01*
X138407000Y-152734574D01*
X138407004Y-152734575D01*
X138627012Y-152790012D01*
X138627013Y-152790012D01*
X138627017Y-152790013D01*
X138760264Y-152800500D01*
X138762021Y-152800500D01*
X141007979Y-152800500D01*
X141009736Y-152800500D01*
X141142983Y-152790013D01*
X141363000Y-152734574D01*
X141569582Y-152640740D01*
X141756089Y-152511527D01*
X141916527Y-152351089D01*
X142045740Y-152164582D01*
X142139574Y-151958000D01*
X142195013Y-151737983D01*
X142205500Y-151604736D01*
X177794500Y-151604736D01*
X177794636Y-151606471D01*
X177794637Y-151606482D01*
X177804987Y-151737987D01*
X177860424Y-151957995D01*
X177860425Y-151957998D01*
X177860426Y-151958000D01*
X177954260Y-152164582D01*
X178083473Y-152351089D01*
X178243911Y-152511527D01*
X178430418Y-152640740D01*
X178637000Y-152734574D01*
X178637004Y-152734575D01*
X178857012Y-152790012D01*
X178857013Y-152790012D01*
X178857017Y-152790013D01*
X178990264Y-152800500D01*
X178992021Y-152800500D01*
X181237979Y-152800500D01*
X181239736Y-152800500D01*
X181372983Y-152790013D01*
X181593000Y-152734574D01*
X181799582Y-152640740D01*
X181986089Y-152511527D01*
X182146527Y-152351089D01*
X182275740Y-152164582D01*
X182369574Y-151958000D01*
X182425013Y-151737983D01*
X182435500Y-151604736D01*
X182435500Y-150875380D01*
X193794500Y-150875380D01*
X193794714Y-150877555D01*
X193794715Y-150877570D01*
X193809337Y-151026029D01*
X193867977Y-151219343D01*
X193963201Y-151397493D01*
X193963202Y-151397494D01*
X194091353Y-151553647D01*
X194247505Y-151681798D01*
X194247506Y-151681798D01*
X194425656Y-151777022D01*
X194425658Y-151777022D01*
X194425659Y-151777023D01*
X194618967Y-151835662D01*
X194769620Y-151850500D01*
X194771815Y-151850500D01*
X197458185Y-151850500D01*
X197460380Y-151850500D01*
X197611033Y-151835662D01*
X197804341Y-151777023D01*
X197982494Y-151681798D01*
X198138647Y-151553647D01*
X198266798Y-151397494D01*
X198362023Y-151219341D01*
X198420662Y-151026033D01*
X198435500Y-150875380D01*
X198435500Y-149124620D01*
X198420662Y-148973967D01*
X198362023Y-148780659D01*
X198362022Y-148780658D01*
X198362022Y-148780656D01*
X198266798Y-148602506D01*
X198266797Y-148602505D01*
X198138647Y-148446353D01*
X197982494Y-148318202D01*
X197982493Y-148318201D01*
X197804343Y-148222977D01*
X197661328Y-148179594D01*
X197611033Y-148164338D01*
X197611031Y-148164337D01*
X197611029Y-148164337D01*
X197462570Y-148149715D01*
X197462555Y-148149714D01*
X197460380Y-148149500D01*
X194769620Y-148149500D01*
X194767445Y-148149714D01*
X194767429Y-148149715D01*
X194618970Y-148164337D01*
X194425656Y-148222977D01*
X194247506Y-148318201D01*
X194091353Y-148446353D01*
X193963201Y-148602506D01*
X193867977Y-148780656D01*
X193809337Y-148973970D01*
X193794715Y-149122429D01*
X193794714Y-149122445D01*
X193794500Y-149124620D01*
X193794500Y-150875380D01*
X182435500Y-150875380D01*
X182435500Y-148395264D01*
X182425013Y-148262017D01*
X182396661Y-148149500D01*
X182369575Y-148042004D01*
X182369574Y-148042000D01*
X182275740Y-147835418D01*
X182146527Y-147648911D01*
X181986089Y-147488473D01*
X181799582Y-147359260D01*
X181593000Y-147265426D01*
X181592998Y-147265425D01*
X181592995Y-147265424D01*
X181372987Y-147209987D01*
X181241482Y-147199637D01*
X181241471Y-147199636D01*
X181239736Y-147199500D01*
X178990264Y-147199500D01*
X178988529Y-147199636D01*
X178988517Y-147199637D01*
X178857012Y-147209987D01*
X178637004Y-147265424D01*
X178430414Y-147359262D01*
X178243914Y-147488470D01*
X178083470Y-147648914D01*
X177954262Y-147835414D01*
X177860424Y-148042004D01*
X177804987Y-148262012D01*
X177804987Y-148262017D01*
X177794500Y-148395264D01*
X177794500Y-151604736D01*
X142205500Y-151604736D01*
X142205500Y-148395264D01*
X142195013Y-148262017D01*
X142166661Y-148149500D01*
X142139575Y-148042004D01*
X142139574Y-148042000D01*
X142045740Y-147835418D01*
X141916527Y-147648911D01*
X141756089Y-147488473D01*
X141569582Y-147359260D01*
X141363000Y-147265426D01*
X141362998Y-147265425D01*
X141362995Y-147265424D01*
X141142987Y-147209987D01*
X141011482Y-147199637D01*
X141011471Y-147199636D01*
X141009736Y-147199500D01*
X138760264Y-147199500D01*
X138758529Y-147199636D01*
X138758517Y-147199637D01*
X138627012Y-147209987D01*
X138407004Y-147265424D01*
X138200414Y-147359262D01*
X138013914Y-147488470D01*
X137853470Y-147648914D01*
X137724262Y-147835414D01*
X137630424Y-148042004D01*
X137574987Y-148262012D01*
X137574987Y-148262017D01*
X137564500Y-148395264D01*
X137564500Y-151604736D01*
X125846395Y-151604736D01*
X125908647Y-151553647D01*
X126036798Y-151397494D01*
X126132023Y-151219341D01*
X126190662Y-151026033D01*
X126205500Y-150875380D01*
X126205500Y-149124620D01*
X126190662Y-148973967D01*
X126132023Y-148780659D01*
X126132022Y-148780658D01*
X126132022Y-148780656D01*
X126036798Y-148602506D01*
X126036798Y-148602505D01*
X125908647Y-148446353D01*
X125752494Y-148318202D01*
X125752493Y-148318201D01*
X125574343Y-148222977D01*
X125431328Y-148179594D01*
X125381033Y-148164338D01*
X125381031Y-148164337D01*
X125381029Y-148164337D01*
X125232570Y-148149715D01*
X125232555Y-148149714D01*
X125230380Y-148149500D01*
X122539620Y-148149500D01*
X122537445Y-148149714D01*
X122537429Y-148149715D01*
X122388970Y-148164337D01*
X122195656Y-148222977D01*
X122017506Y-148318201D01*
X121861353Y-148446353D01*
X121733201Y-148602506D01*
X121637977Y-148780656D01*
X121579337Y-148973970D01*
X121564715Y-149122429D01*
X121564714Y-149122445D01*
X121564500Y-149124620D01*
X121564500Y-150875380D01*
X120000500Y-150875380D01*
X120000500Y-140109999D01*
X123844318Y-140109999D01*
X123864956Y-140266764D01*
X123925463Y-140412840D01*
X124021717Y-140538282D01*
X124147159Y-140634536D01*
X124293235Y-140695043D01*
X124293238Y-140695044D01*
X124450000Y-140715682D01*
X124606762Y-140695044D01*
X124752841Y-140634536D01*
X124878282Y-140538282D01*
X124974536Y-140412841D01*
X125035044Y-140266762D01*
X125055682Y-140110000D01*
X125035044Y-139953238D01*
X124974536Y-139807159D01*
X124974535Y-139807159D01*
X124878282Y-139681717D01*
X124752840Y-139585463D01*
X124606764Y-139524956D01*
X124450000Y-139504318D01*
X124293235Y-139524956D01*
X124147159Y-139585463D01*
X124021717Y-139681717D01*
X123925463Y-139807159D01*
X123864956Y-139953235D01*
X123844318Y-140109999D01*
X120000500Y-140109999D01*
X120000500Y-139090000D01*
X156594416Y-139090000D01*
X156614699Y-139295931D01*
X156614700Y-139295934D01*
X156674768Y-139493954D01*
X156680308Y-139504318D01*
X156772315Y-139676451D01*
X156776637Y-139681717D01*
X156903590Y-139836410D01*
X157001045Y-139916389D01*
X157063548Y-139967684D01*
X157063550Y-139967685D01*
X157246046Y-140065232D01*
X157444066Y-140125300D01*
X157650000Y-140145583D01*
X157855934Y-140125300D01*
X158053954Y-140065232D01*
X158236450Y-139967685D01*
X158396410Y-139836410D01*
X158527685Y-139676450D01*
X158625232Y-139493954D01*
X158685300Y-139295934D01*
X158705583Y-139090000D01*
X159134416Y-139090000D01*
X159154699Y-139295931D01*
X159154700Y-139295934D01*
X159214768Y-139493954D01*
X159220308Y-139504318D01*
X159312315Y-139676451D01*
X159316637Y-139681717D01*
X159443590Y-139836410D01*
X159541045Y-139916389D01*
X159603548Y-139967684D01*
X159603550Y-139967685D01*
X159786046Y-140065232D01*
X159984066Y-140125300D01*
X160121355Y-140138821D01*
X160189999Y-140145583D01*
X160189999Y-140145582D01*
X160190000Y-140145583D01*
X160395934Y-140125300D01*
X160593954Y-140065232D01*
X160776450Y-139967685D01*
X160936410Y-139836410D01*
X161067685Y-139676450D01*
X161165232Y-139493954D01*
X161225300Y-139295934D01*
X161245583Y-139090000D01*
X161674416Y-139090000D01*
X161694699Y-139295931D01*
X161694700Y-139295934D01*
X161754768Y-139493954D01*
X161760308Y-139504318D01*
X161852315Y-139676451D01*
X161856637Y-139681717D01*
X161983590Y-139836410D01*
X162081045Y-139916389D01*
X162143548Y-139967684D01*
X162143550Y-139967685D01*
X162326046Y-140065232D01*
X162524066Y-140125300D01*
X162661355Y-140138822D01*
X162729999Y-140145583D01*
X162729999Y-140145582D01*
X162730000Y-140145583D01*
X162935934Y-140125300D01*
X163133954Y-140065232D01*
X163316450Y-139967685D01*
X163476410Y-139836410D01*
X163607685Y-139676450D01*
X163705232Y-139493954D01*
X163765300Y-139295934D01*
X163785583Y-139090000D01*
X166754416Y-139090000D01*
X166774699Y-139295931D01*
X166774700Y-139295934D01*
X166834768Y-139493954D01*
X166840308Y-139504318D01*
X166932315Y-139676451D01*
X166936637Y-139681717D01*
X167063590Y-139836410D01*
X167161045Y-139916388D01*
X167223548Y-139967684D01*
X167223550Y-139967685D01*
X167406046Y-140065232D01*
X167604066Y-140125300D01*
X167810000Y-140145583D01*
X168015934Y-140125300D01*
X168213954Y-140065232D01*
X168396450Y-139967685D01*
X168406123Y-139959747D01*
X169299500Y-139959747D01*
X169311133Y-140018231D01*
X169355447Y-140084552D01*
X169393533Y-140110000D01*
X169421769Y-140128867D01*
X169480252Y-140140500D01*
X171219748Y-140140500D01*
X171278231Y-140128867D01*
X171344552Y-140084552D01*
X171388867Y-140018231D01*
X171400500Y-139959748D01*
X171400500Y-138220252D01*
X171388867Y-138161769D01*
X171374162Y-138139761D01*
X171344552Y-138095447D01*
X171278231Y-138051133D01*
X171219748Y-138039500D01*
X169480252Y-138039500D01*
X169421768Y-138051133D01*
X169355447Y-138095447D01*
X169311133Y-138161768D01*
X169299500Y-138220252D01*
X169299500Y-139959747D01*
X168406123Y-139959747D01*
X168556410Y-139836410D01*
X168687685Y-139676450D01*
X168785232Y-139493954D01*
X168845300Y-139295934D01*
X168865583Y-139090000D01*
X168845300Y-138884066D01*
X168785232Y-138686046D01*
X168687685Y-138503550D01*
X168687684Y-138503548D01*
X168636388Y-138441045D01*
X168556410Y-138343590D01*
X168476430Y-138277952D01*
X168396451Y-138212315D01*
X168232228Y-138124536D01*
X168213954Y-138114768D01*
X168015934Y-138054700D01*
X168015931Y-138054699D01*
X167810000Y-138034416D01*
X167604068Y-138054699D01*
X167406046Y-138114768D01*
X167223548Y-138212315D01*
X167063590Y-138343590D01*
X166932315Y-138503548D01*
X166834768Y-138686046D01*
X166774699Y-138884068D01*
X166754416Y-139090000D01*
X163785583Y-139090000D01*
X163765300Y-138884066D01*
X163705232Y-138686046D01*
X163607685Y-138503550D01*
X163607684Y-138503548D01*
X163556389Y-138441045D01*
X163476410Y-138343590D01*
X163396429Y-138277952D01*
X163316451Y-138212315D01*
X163152228Y-138124536D01*
X163133954Y-138114768D01*
X162935934Y-138054700D01*
X162935931Y-138054699D01*
X162729999Y-138034416D01*
X162524068Y-138054699D01*
X162326046Y-138114768D01*
X162143548Y-138212315D01*
X161983590Y-138343590D01*
X161852315Y-138503548D01*
X161754768Y-138686046D01*
X161694699Y-138884068D01*
X161674416Y-139090000D01*
X161245583Y-139090000D01*
X161225300Y-138884066D01*
X161165232Y-138686046D01*
X161067685Y-138503550D01*
X161067684Y-138503548D01*
X161016389Y-138441045D01*
X160936410Y-138343590D01*
X160856429Y-138277952D01*
X160776451Y-138212315D01*
X160612228Y-138124536D01*
X160593954Y-138114768D01*
X160395934Y-138054700D01*
X160395931Y-138054699D01*
X160189999Y-138034416D01*
X159984068Y-138054699D01*
X159786046Y-138114768D01*
X159603548Y-138212315D01*
X159443590Y-138343590D01*
X159312315Y-138503548D01*
X159214768Y-138686046D01*
X159154699Y-138884068D01*
X159134416Y-139090000D01*
X158705583Y-139090000D01*
X158685300Y-138884066D01*
X158625232Y-138686046D01*
X158527685Y-138503550D01*
X158527684Y-138503548D01*
X158476389Y-138441045D01*
X158396410Y-138343590D01*
X158316429Y-138277952D01*
X158236451Y-138212315D01*
X158072228Y-138124536D01*
X158053954Y-138114768D01*
X157855934Y-138054700D01*
X157855931Y-138054699D01*
X157650000Y-138034416D01*
X157444068Y-138054699D01*
X157246046Y-138114768D01*
X157063548Y-138212315D01*
X156903590Y-138343590D01*
X156772315Y-138503548D01*
X156674768Y-138686046D01*
X156614699Y-138884068D01*
X156594416Y-139090000D01*
X120000500Y-139090000D01*
X120000500Y-137600000D01*
X163244318Y-137600000D01*
X163264956Y-137756764D01*
X163325463Y-137902840D01*
X163421717Y-138028282D01*
X163547159Y-138124536D01*
X163693235Y-138185043D01*
X163693238Y-138185044D01*
X163850000Y-138205682D01*
X164006762Y-138185044D01*
X164152841Y-138124536D01*
X164278282Y-138028282D01*
X164374536Y-137902841D01*
X164435044Y-137756762D01*
X164455682Y-137600000D01*
X164435044Y-137443238D01*
X164374536Y-137297159D01*
X164278282Y-137171717D01*
X164152840Y-137075463D01*
X164006764Y-137014956D01*
X163850000Y-136994318D01*
X163693235Y-137014956D01*
X163547159Y-137075463D01*
X163421717Y-137171717D01*
X163325463Y-137297159D01*
X163264956Y-137443235D01*
X163244318Y-137600000D01*
X120000500Y-137600000D01*
X120000500Y-134400000D01*
X188544318Y-134400000D01*
X188564956Y-134556764D01*
X188625463Y-134702840D01*
X188721717Y-134828282D01*
X188847159Y-134924536D01*
X188993235Y-134985043D01*
X188993238Y-134985044D01*
X189150000Y-135005682D01*
X189306762Y-134985044D01*
X189452841Y-134924536D01*
X189578282Y-134828282D01*
X189674536Y-134702841D01*
X189735044Y-134556762D01*
X189755682Y-134400000D01*
X189735044Y-134243238D01*
X189674536Y-134097159D01*
X189578282Y-133971717D01*
X189452840Y-133875463D01*
X189306764Y-133814956D01*
X189150000Y-133794318D01*
X188993235Y-133814956D01*
X188847159Y-133875463D01*
X188721717Y-133971717D01*
X188625463Y-134097159D01*
X188564956Y-134243235D01*
X188544318Y-134400000D01*
X120000500Y-134400000D01*
X120000500Y-130849999D01*
X186194318Y-130849999D01*
X186214956Y-131006764D01*
X186275463Y-131152840D01*
X186371717Y-131278282D01*
X186497159Y-131374536D01*
X186643235Y-131435043D01*
X186643238Y-131435044D01*
X186800000Y-131455682D01*
X186956762Y-131435044D01*
X187102841Y-131374536D01*
X187228282Y-131278282D01*
X187260208Y-131236674D01*
X187311553Y-131203964D01*
X187371912Y-131211910D01*
X187401426Y-131236675D01*
X187471717Y-131328282D01*
X187597159Y-131424536D01*
X187743235Y-131485043D01*
X187743238Y-131485044D01*
X187900000Y-131505682D01*
X188056762Y-131485044D01*
X188202841Y-131424536D01*
X188328282Y-131328282D01*
X188424536Y-131202841D01*
X188485044Y-131056762D01*
X188505682Y-130900000D01*
X188485044Y-130743238D01*
X188439644Y-130633634D01*
X188424536Y-130597159D01*
X188328282Y-130471717D01*
X188202840Y-130375463D01*
X188056764Y-130314956D01*
X187900000Y-130294318D01*
X187743235Y-130314956D01*
X187597159Y-130375463D01*
X187471716Y-130471718D01*
X187439790Y-130513325D01*
X187388444Y-130546036D01*
X187328086Y-130538089D01*
X187298574Y-130513325D01*
X187266648Y-130471718D01*
X187228282Y-130421717D01*
X187102840Y-130325463D01*
X186956764Y-130264956D01*
X186800000Y-130244318D01*
X186643235Y-130264956D01*
X186497159Y-130325463D01*
X186371717Y-130421717D01*
X186275463Y-130547159D01*
X186214956Y-130693235D01*
X186194318Y-130849999D01*
X120000500Y-130849999D01*
X120000500Y-127300000D01*
X130794318Y-127300000D01*
X130814956Y-127456764D01*
X130875463Y-127602840D01*
X130971717Y-127728282D01*
X131097159Y-127824536D01*
X131243235Y-127885043D01*
X131243238Y-127885044D01*
X131400000Y-127905682D01*
X131556762Y-127885044D01*
X131702841Y-127824536D01*
X131828282Y-127728282D01*
X131924536Y-127602841D01*
X131985044Y-127456762D01*
X132005682Y-127300000D01*
X131985044Y-127143238D01*
X131965957Y-127097159D01*
X131925713Y-127000000D01*
X132994318Y-127000000D01*
X133014956Y-127156764D01*
X133075463Y-127302840D01*
X133171717Y-127428282D01*
X133297159Y-127524536D01*
X133443235Y-127585043D01*
X133443238Y-127585044D01*
X133600000Y-127605682D01*
X133756762Y-127585044D01*
X133902841Y-127524536D01*
X134028282Y-127428282D01*
X134049983Y-127400000D01*
X143794318Y-127400000D01*
X143814956Y-127556764D01*
X143875463Y-127702840D01*
X143971717Y-127828282D01*
X144097159Y-127924536D01*
X144243235Y-127985043D01*
X144243238Y-127985044D01*
X144400000Y-128005682D01*
X144556762Y-127985044D01*
X144702841Y-127924536D01*
X144828282Y-127828282D01*
X144924536Y-127702841D01*
X144985044Y-127556762D01*
X145005682Y-127400000D01*
X146394318Y-127400000D01*
X146414956Y-127556764D01*
X146475463Y-127702840D01*
X146571717Y-127828282D01*
X146697159Y-127924536D01*
X146843235Y-127985043D01*
X146843238Y-127985044D01*
X147000000Y-128005682D01*
X147156762Y-127985044D01*
X147302841Y-127924536D01*
X147428282Y-127828282D01*
X147524536Y-127702841D01*
X147585044Y-127556762D01*
X147605682Y-127400000D01*
X147585044Y-127243238D01*
X147549224Y-127156762D01*
X147524536Y-127097159D01*
X147449984Y-127000000D01*
X187194318Y-127000000D01*
X187214956Y-127156764D01*
X187275463Y-127302840D01*
X187371717Y-127428282D01*
X187497159Y-127524536D01*
X187643235Y-127585043D01*
X187643238Y-127585044D01*
X187800000Y-127605682D01*
X187956762Y-127585044D01*
X188102841Y-127524536D01*
X188228282Y-127428282D01*
X188229390Y-127426839D01*
X188233949Y-127423934D01*
X188237579Y-127421149D01*
X188237822Y-127421466D01*
X188280734Y-127394126D01*
X188341093Y-127402071D01*
X188370610Y-127426839D01*
X188371717Y-127428282D01*
X188497159Y-127524536D01*
X188643235Y-127585043D01*
X188643238Y-127585044D01*
X188800000Y-127605682D01*
X188956762Y-127585044D01*
X189102841Y-127524536D01*
X189228282Y-127428282D01*
X189324536Y-127302841D01*
X189385044Y-127156762D01*
X189405682Y-127000000D01*
X189385044Y-126843238D01*
X189324536Y-126697159D01*
X189250507Y-126600682D01*
X189228282Y-126571717D01*
X189102840Y-126475463D01*
X188956764Y-126414956D01*
X188852253Y-126401197D01*
X188800000Y-126394318D01*
X188799999Y-126394318D01*
X188643235Y-126414956D01*
X188497161Y-126475463D01*
X188497159Y-126475464D01*
X188439723Y-126519536D01*
X188371715Y-126571720D01*
X188370607Y-126573165D01*
X188366049Y-126576068D01*
X188362423Y-126578851D01*
X188362179Y-126578533D01*
X188319261Y-126605875D01*
X188258903Y-126597927D01*
X188229393Y-126573165D01*
X188228284Y-126571720D01*
X188228282Y-126571719D01*
X188228282Y-126571718D01*
X188102841Y-126475464D01*
X188069746Y-126461755D01*
X187956764Y-126414956D01*
X187800000Y-126394318D01*
X187643235Y-126414956D01*
X187497159Y-126475463D01*
X187371717Y-126571717D01*
X187275463Y-126697159D01*
X187214956Y-126843235D01*
X187194318Y-127000000D01*
X147449984Y-127000000D01*
X147428282Y-126971717D01*
X147302840Y-126875463D01*
X147156764Y-126814956D01*
X147000000Y-126794318D01*
X146843235Y-126814956D01*
X146697159Y-126875463D01*
X146571717Y-126971717D01*
X146475463Y-127097159D01*
X146414956Y-127243235D01*
X146394318Y-127400000D01*
X145005682Y-127400000D01*
X144985044Y-127243238D01*
X144949224Y-127156762D01*
X144924536Y-127097159D01*
X144828282Y-126971717D01*
X144702840Y-126875463D01*
X144556764Y-126814956D01*
X144400000Y-126794318D01*
X144243235Y-126814956D01*
X144097159Y-126875463D01*
X143971717Y-126971717D01*
X143875463Y-127097159D01*
X143814956Y-127243235D01*
X143794318Y-127400000D01*
X134049983Y-127400000D01*
X134124536Y-127302841D01*
X134185044Y-127156762D01*
X134205682Y-127000000D01*
X134185044Y-126843238D01*
X134124536Y-126697159D01*
X134050507Y-126600682D01*
X134028282Y-126571717D01*
X133902840Y-126475463D01*
X133756764Y-126414956D01*
X133652253Y-126401197D01*
X133600000Y-126394318D01*
X133599999Y-126394318D01*
X133443235Y-126414956D01*
X133297159Y-126475463D01*
X133171717Y-126571717D01*
X133075463Y-126697159D01*
X133014956Y-126843235D01*
X132994318Y-127000000D01*
X131925713Y-127000000D01*
X131924536Y-126997159D01*
X131828282Y-126871717D01*
X131702840Y-126775463D01*
X131556764Y-126714956D01*
X131400000Y-126694318D01*
X131243235Y-126714956D01*
X131097159Y-126775463D01*
X130971717Y-126871717D01*
X130875463Y-126997159D01*
X130814956Y-127143235D01*
X130794318Y-127300000D01*
X120000500Y-127300000D01*
X120000500Y-125599999D01*
X140194318Y-125599999D01*
X140214956Y-125756764D01*
X140275463Y-125902840D01*
X140371717Y-126028282D01*
X140497159Y-126124536D01*
X140643235Y-126185043D01*
X140643238Y-126185044D01*
X140800000Y-126205682D01*
X140956762Y-126185044D01*
X141102841Y-126124536D01*
X141228282Y-126028282D01*
X141324536Y-125902841D01*
X141367134Y-125800000D01*
X141594318Y-125800000D01*
X141614956Y-125956764D01*
X141675463Y-126102840D01*
X141771717Y-126228282D01*
X141897159Y-126324536D01*
X142043235Y-126385043D01*
X142043238Y-126385044D01*
X142200000Y-126405682D01*
X142356762Y-126385044D01*
X142502841Y-126324536D01*
X142628282Y-126228282D01*
X142724536Y-126102841D01*
X142785044Y-125956762D01*
X142805682Y-125800000D01*
X145194318Y-125800000D01*
X145214956Y-125956764D01*
X145275463Y-126102840D01*
X145371717Y-126228282D01*
X145497159Y-126324536D01*
X145643235Y-126385043D01*
X145643238Y-126385044D01*
X145800000Y-126405682D01*
X145956762Y-126385044D01*
X146102841Y-126324536D01*
X146228282Y-126228282D01*
X146324536Y-126102841D01*
X146369205Y-125995000D01*
X158994318Y-125995000D01*
X159014956Y-126151764D01*
X159075463Y-126297840D01*
X159171717Y-126423282D01*
X159297159Y-126519536D01*
X159443235Y-126580043D01*
X159443238Y-126580044D01*
X159600000Y-126600682D01*
X159756762Y-126580044D01*
X159902841Y-126519536D01*
X160028282Y-126423282D01*
X160124536Y-126297841D01*
X160185044Y-126151762D01*
X160205682Y-125995000D01*
X160185044Y-125838238D01*
X160151295Y-125756762D01*
X160124536Y-125692159D01*
X160028282Y-125566717D01*
X159902840Y-125470463D01*
X159756764Y-125409956D01*
X159600000Y-125389318D01*
X159443235Y-125409956D01*
X159297159Y-125470463D01*
X159171717Y-125566717D01*
X159075463Y-125692159D01*
X159014956Y-125838235D01*
X158994318Y-125995000D01*
X146369205Y-125995000D01*
X146385044Y-125956762D01*
X146405682Y-125800000D01*
X146385044Y-125643238D01*
X146377297Y-125624536D01*
X146324536Y-125497159D01*
X146228282Y-125371717D01*
X146102840Y-125275463D01*
X145956764Y-125214956D01*
X145800000Y-125194318D01*
X145643235Y-125214956D01*
X145497159Y-125275463D01*
X145371717Y-125371717D01*
X145275463Y-125497159D01*
X145214956Y-125643235D01*
X145194318Y-125800000D01*
X142805682Y-125800000D01*
X142785044Y-125643238D01*
X142777297Y-125624536D01*
X142724536Y-125497159D01*
X142628282Y-125371717D01*
X142502840Y-125275463D01*
X142356764Y-125214956D01*
X142200000Y-125194318D01*
X142043235Y-125214956D01*
X141897159Y-125275463D01*
X141771717Y-125371717D01*
X141675463Y-125497159D01*
X141614956Y-125643235D01*
X141594318Y-125800000D01*
X141367134Y-125800000D01*
X141385044Y-125756762D01*
X141405682Y-125600000D01*
X141385044Y-125443238D01*
X141355419Y-125371718D01*
X141324536Y-125297159D01*
X141228282Y-125171717D01*
X141134816Y-125099999D01*
X148494318Y-125099999D01*
X148514956Y-125256764D01*
X148575463Y-125402840D01*
X148671717Y-125528282D01*
X148797159Y-125624536D01*
X148943235Y-125685043D01*
X148943238Y-125685044D01*
X149100000Y-125705682D01*
X149256762Y-125685044D01*
X149402841Y-125624536D01*
X149528282Y-125528282D01*
X149624536Y-125402841D01*
X149685044Y-125256762D01*
X149705682Y-125100000D01*
X149685044Y-124943238D01*
X149684158Y-124941100D01*
X149624536Y-124797159D01*
X149528282Y-124671717D01*
X149402840Y-124575463D01*
X149256764Y-124514956D01*
X149152253Y-124501197D01*
X149100000Y-124494318D01*
X149099999Y-124494318D01*
X148943235Y-124514956D01*
X148797159Y-124575463D01*
X148671717Y-124671717D01*
X148575463Y-124797159D01*
X148514956Y-124943235D01*
X148494318Y-125099999D01*
X141134816Y-125099999D01*
X141102840Y-125075463D01*
X140956764Y-125014956D01*
X140851256Y-125001066D01*
X140800000Y-124994318D01*
X140799999Y-124994318D01*
X140643235Y-125014956D01*
X140497159Y-125075463D01*
X140371717Y-125171717D01*
X140275463Y-125297159D01*
X140214956Y-125443235D01*
X140194318Y-125599999D01*
X120000500Y-125599999D01*
X120000500Y-124273686D01*
X121345740Y-124273686D01*
X121355754Y-124458404D01*
X121405246Y-124636660D01*
X121491900Y-124800105D01*
X121611662Y-124941100D01*
X121758934Y-125053053D01*
X121758935Y-125053053D01*
X121758936Y-125053054D01*
X121926833Y-125130732D01*
X122074908Y-125163325D01*
X122107502Y-125170500D01*
X122107503Y-125170500D01*
X123543707Y-125170500D01*
X123546113Y-125170500D01*
X123683910Y-125155514D01*
X123859221Y-125096444D01*
X124017736Y-125001070D01*
X124152041Y-124873849D01*
X124255858Y-124720730D01*
X124324331Y-124548875D01*
X124354260Y-124366317D01*
X124349238Y-124273686D01*
X125320740Y-124273686D01*
X125330754Y-124458404D01*
X125380246Y-124636660D01*
X125466900Y-124800105D01*
X125586662Y-124941100D01*
X125733934Y-125053053D01*
X125733935Y-125053053D01*
X125733936Y-125053054D01*
X125901833Y-125130732D01*
X126049908Y-125163325D01*
X126082502Y-125170500D01*
X126082503Y-125170500D01*
X127218707Y-125170500D01*
X127221113Y-125170500D01*
X127358910Y-125155514D01*
X127534221Y-125096444D01*
X127692736Y-125001070D01*
X127827041Y-124873849D01*
X127930858Y-124720730D01*
X127999331Y-124548875D01*
X128029260Y-124366317D01*
X128019245Y-124181593D01*
X127969754Y-124003341D01*
X127914966Y-123900000D01*
X127883099Y-123839894D01*
X127763337Y-123698899D01*
X127616065Y-123586946D01*
X127522279Y-123543556D01*
X127448167Y-123509268D01*
X127335580Y-123484486D01*
X127267498Y-123469500D01*
X127267497Y-123469500D01*
X126546693Y-123469500D01*
X126489485Y-123448678D01*
X126461380Y-123400000D01*
X138794318Y-123400000D01*
X138814956Y-123556764D01*
X138875463Y-123702840D01*
X138971717Y-123828282D01*
X139097159Y-123924536D01*
X139243235Y-123985043D01*
X139243238Y-123985044D01*
X139400000Y-124005682D01*
X139556762Y-123985044D01*
X139702841Y-123924536D01*
X139734817Y-123900000D01*
X143594318Y-123900000D01*
X143594758Y-123903339D01*
X143614956Y-124056764D01*
X143675463Y-124202840D01*
X143771717Y-124328282D01*
X143897159Y-124424536D01*
X144043235Y-124485043D01*
X144043238Y-124485044D01*
X144200000Y-124505682D01*
X144356762Y-124485044D01*
X144502841Y-124424536D01*
X144628282Y-124328282D01*
X144724536Y-124202841D01*
X144785044Y-124056762D01*
X144805682Y-123900000D01*
X144785044Y-123743238D01*
X144762845Y-123689646D01*
X144724536Y-123597159D01*
X144628282Y-123471717D01*
X144502840Y-123375463D01*
X144356764Y-123314956D01*
X144200000Y-123294318D01*
X144043235Y-123314956D01*
X143897159Y-123375463D01*
X143771717Y-123471717D01*
X143675463Y-123597159D01*
X143614956Y-123743235D01*
X143611940Y-123766148D01*
X143594318Y-123900000D01*
X139734817Y-123900000D01*
X139828282Y-123828282D01*
X139924536Y-123702841D01*
X139985044Y-123556762D01*
X140005682Y-123400000D01*
X139985044Y-123243238D01*
X139924536Y-123097159D01*
X139846006Y-122994816D01*
X139828282Y-122971717D01*
X139702840Y-122875463D01*
X139556764Y-122814956D01*
X139443152Y-122799999D01*
X148494318Y-122799999D01*
X148514956Y-122956764D01*
X148575463Y-123102840D01*
X148671717Y-123228282D01*
X148797159Y-123324536D01*
X148943235Y-123385043D01*
X148943238Y-123385044D01*
X149100000Y-123405682D01*
X149256762Y-123385044D01*
X149402841Y-123324536D01*
X149528282Y-123228282D01*
X149624536Y-123102841D01*
X149685044Y-122956762D01*
X149705682Y-122800000D01*
X149705682Y-122799999D01*
X156494318Y-122799999D01*
X156514956Y-122956764D01*
X156575463Y-123102840D01*
X156671717Y-123228282D01*
X156797159Y-123324536D01*
X156943235Y-123385043D01*
X156943238Y-123385044D01*
X157100000Y-123405682D01*
X157256762Y-123385044D01*
X157396607Y-123327117D01*
X157457427Y-123324462D01*
X157505727Y-123361523D01*
X157518904Y-123420959D01*
X157501274Y-123463522D01*
X157475464Y-123497158D01*
X157414956Y-123643235D01*
X157394318Y-123800000D01*
X157414956Y-123956764D01*
X157475463Y-124102840D01*
X157571717Y-124228282D01*
X157697159Y-124324536D01*
X157843235Y-124385043D01*
X157843238Y-124385044D01*
X158000000Y-124405682D01*
X158156762Y-124385044D01*
X158302841Y-124324536D01*
X158428282Y-124228282D01*
X158524536Y-124102841D01*
X158585044Y-123956762D01*
X158605682Y-123800000D01*
X158585044Y-123643238D01*
X158567340Y-123600498D01*
X174094263Y-123600498D01*
X174114901Y-123757262D01*
X174175408Y-123903338D01*
X174271662Y-124028779D01*
X174273062Y-124029854D01*
X174275877Y-124034273D01*
X174278796Y-124038077D01*
X174278463Y-124038332D01*
X174305772Y-124081200D01*
X174297824Y-124141559D01*
X174273065Y-124171067D01*
X174272221Y-124171714D01*
X174272219Y-124171717D01*
X174272218Y-124171718D01*
X174175964Y-124297159D01*
X174175963Y-124297160D01*
X174175963Y-124297161D01*
X174115456Y-124443235D01*
X174094818Y-124600000D01*
X174115456Y-124756764D01*
X174175963Y-124902840D01*
X174272217Y-125028282D01*
X174397659Y-125124536D01*
X174543735Y-125185043D01*
X174543738Y-125185044D01*
X174700500Y-125205682D01*
X174857262Y-125185044D01*
X175003341Y-125124536D01*
X175128782Y-125028282D01*
X175225036Y-124902841D01*
X175285544Y-124756762D01*
X175306182Y-124600000D01*
X175285544Y-124443238D01*
X175277797Y-124424536D01*
X175225036Y-124297159D01*
X175128782Y-124171717D01*
X175127386Y-124170646D01*
X175124575Y-124166235D01*
X175121649Y-124162421D01*
X175121982Y-124162165D01*
X175094673Y-124119302D01*
X175102618Y-124058943D01*
X175127386Y-124029425D01*
X175128227Y-124028780D01*
X175224481Y-123903339D01*
X175284989Y-123757260D01*
X175305627Y-123600498D01*
X175284989Y-123443736D01*
X175275554Y-123420959D01*
X175224481Y-123297657D01*
X175128227Y-123172215D01*
X175002785Y-123075961D01*
X174856709Y-123015454D01*
X174699945Y-122994816D01*
X174543180Y-123015454D01*
X174397104Y-123075961D01*
X174271662Y-123172215D01*
X174175408Y-123297657D01*
X174114901Y-123443733D01*
X174094263Y-123600498D01*
X158567340Y-123600498D01*
X158524536Y-123497159D01*
X158428282Y-123371717D01*
X158302840Y-123275463D01*
X158156764Y-123214956D01*
X158000000Y-123194318D01*
X157843235Y-123214956D01*
X157703393Y-123272881D01*
X157642571Y-123275537D01*
X157594272Y-123238475D01*
X157581095Y-123179039D01*
X157598723Y-123136480D01*
X157624536Y-123102841D01*
X157685044Y-122956762D01*
X157705682Y-122800000D01*
X157685044Y-122643238D01*
X157642826Y-122541316D01*
X157624536Y-122497159D01*
X157528282Y-122371717D01*
X157402840Y-122275463D01*
X157256764Y-122214956D01*
X157100000Y-122194318D01*
X156943235Y-122214956D01*
X156797159Y-122275463D01*
X156671717Y-122371717D01*
X156575463Y-122497159D01*
X156514956Y-122643235D01*
X156494318Y-122799999D01*
X149705682Y-122799999D01*
X149685044Y-122643238D01*
X149642826Y-122541316D01*
X149624536Y-122497159D01*
X149528282Y-122371717D01*
X149402840Y-122275463D01*
X149256764Y-122214956D01*
X149152253Y-122201197D01*
X149100000Y-122194318D01*
X149099999Y-122194318D01*
X148943235Y-122214956D01*
X148797159Y-122275463D01*
X148671717Y-122371717D01*
X148575463Y-122497159D01*
X148514956Y-122643235D01*
X148494318Y-122799999D01*
X139443152Y-122799999D01*
X139400000Y-122794318D01*
X139243235Y-122814956D01*
X139097159Y-122875463D01*
X138971717Y-122971717D01*
X138875463Y-123097159D01*
X138814956Y-123243235D01*
X138794318Y-123400000D01*
X126461380Y-123400000D01*
X126459045Y-123395955D01*
X126460993Y-123356488D01*
X126463373Y-123347992D01*
X126463375Y-123347990D01*
X126504500Y-123201214D01*
X126504500Y-122837073D01*
X126488957Y-122723991D01*
X126428230Y-122584182D01*
X126332034Y-122465942D01*
X126207504Y-122378039D01*
X126207503Y-122378038D01*
X126063880Y-122326994D01*
X125949822Y-122319192D01*
X125911804Y-122316592D01*
X125911803Y-122316592D01*
X125762564Y-122347604D01*
X125627222Y-122417732D01*
X125515824Y-122521771D01*
X125436626Y-122652007D01*
X125436625Y-122652009D01*
X125436625Y-122652010D01*
X125395500Y-122798786D01*
X125395500Y-123162927D01*
X125411043Y-123276009D01*
X125471770Y-123415818D01*
X125537945Y-123497158D01*
X125567967Y-123534059D01*
X125593841Y-123552323D01*
X125628571Y-123602324D01*
X125623035Y-123662952D01*
X125603723Y-123689646D01*
X125522959Y-123766151D01*
X125419142Y-123919270D01*
X125350669Y-124091123D01*
X125342401Y-124141559D01*
X125335838Y-124181593D01*
X125320740Y-124273686D01*
X124349238Y-124273686D01*
X124344245Y-124181593D01*
X124294754Y-124003341D01*
X124239966Y-123900000D01*
X124208099Y-123839894D01*
X124088337Y-123698899D01*
X123941065Y-123586946D01*
X123847279Y-123543556D01*
X123773167Y-123509268D01*
X123660580Y-123484486D01*
X123592498Y-123469500D01*
X123592497Y-123469500D01*
X122153887Y-123469500D01*
X122151501Y-123469759D01*
X122151491Y-123469760D01*
X122016091Y-123484485D01*
X121840781Y-123543555D01*
X121840779Y-123543555D01*
X121840779Y-123543556D01*
X121714263Y-123619677D01*
X121682259Y-123638933D01*
X121547960Y-123766148D01*
X121444142Y-123919270D01*
X121375669Y-124091123D01*
X121367401Y-124141559D01*
X121360838Y-124181593D01*
X121345740Y-124273686D01*
X120000500Y-124273686D01*
X120000500Y-121696030D01*
X137593415Y-121696030D01*
X137613508Y-121822896D01*
X137613508Y-121822897D01*
X137613509Y-121822898D01*
X137671824Y-121937348D01*
X137762652Y-122028176D01*
X137877102Y-122086491D01*
X138003970Y-122106585D01*
X138003970Y-122106584D01*
X138017893Y-122108790D01*
X138017713Y-122109924D01*
X138061832Y-122118497D01*
X138100148Y-122165807D01*
X138103903Y-122208710D01*
X138089445Y-122299999D01*
X138109538Y-122426866D01*
X138109538Y-122426867D01*
X138109539Y-122426868D01*
X138167854Y-122541318D01*
X138258682Y-122632146D01*
X138373132Y-122690461D01*
X138500000Y-122710555D01*
X138626868Y-122690461D01*
X138741318Y-122632146D01*
X138832146Y-122541318D01*
X138890461Y-122426868D01*
X138910555Y-122300000D01*
X138890461Y-122173132D01*
X138832146Y-122058682D01*
X138741318Y-121967854D01*
X138626868Y-121909539D01*
X138626867Y-121909538D01*
X138626866Y-121909538D01*
X138517418Y-121892203D01*
X138500000Y-121889445D01*
X138499999Y-121889445D01*
X138486077Y-121887240D01*
X138486256Y-121886106D01*
X138442129Y-121877528D01*
X138403818Y-121830214D01*
X138400066Y-121787318D01*
X138414525Y-121696030D01*
X138394431Y-121569162D01*
X138336116Y-121454712D01*
X138245288Y-121363884D01*
X138130838Y-121305569D01*
X138130837Y-121305568D01*
X138130836Y-121305568D01*
X138003970Y-121285475D01*
X137877103Y-121305568D01*
X137762653Y-121363883D01*
X137671823Y-121454713D01*
X137613508Y-121569163D01*
X137593415Y-121696030D01*
X120000500Y-121696030D01*
X120000500Y-121200000D01*
X141789445Y-121200000D01*
X141809538Y-121326866D01*
X141809538Y-121326867D01*
X141809539Y-121326868D01*
X141867854Y-121441318D01*
X141958682Y-121532146D01*
X142073132Y-121590461D01*
X142200000Y-121610555D01*
X142326868Y-121590461D01*
X142441318Y-121532146D01*
X142532146Y-121441318D01*
X142590461Y-121326868D01*
X142610555Y-121200000D01*
X142590461Y-121073132D01*
X142532146Y-120958682D01*
X142441318Y-120867854D01*
X142326868Y-120809539D01*
X142326867Y-120809538D01*
X142326866Y-120809538D01*
X142200000Y-120789445D01*
X142073133Y-120809538D01*
X141958683Y-120867853D01*
X141867853Y-120958683D01*
X141809538Y-121073133D01*
X141789445Y-121200000D01*
X120000500Y-121200000D01*
X120000500Y-120000000D01*
X123894815Y-120000000D01*
X123915453Y-120156764D01*
X123975960Y-120302840D01*
X124072214Y-120428282D01*
X124197656Y-120524536D01*
X124343732Y-120585043D01*
X124343735Y-120585044D01*
X124500497Y-120605682D01*
X124657259Y-120585044D01*
X124803338Y-120524536D01*
X124928779Y-120428282D01*
X124929639Y-120427160D01*
X124933172Y-120424910D01*
X124938075Y-120421148D01*
X124938404Y-120421576D01*
X124980984Y-120394450D01*
X125041342Y-120402395D01*
X125070856Y-120427160D01*
X125071716Y-120428281D01*
X125197159Y-120524536D01*
X125343235Y-120585043D01*
X125343238Y-120585044D01*
X125500000Y-120605682D01*
X125656762Y-120585044D01*
X125802841Y-120524536D01*
X125928282Y-120428282D01*
X125949983Y-120400000D01*
X137589445Y-120400000D01*
X137609538Y-120526866D01*
X137609538Y-120526867D01*
X137609539Y-120526868D01*
X137667854Y-120641318D01*
X137758682Y-120732146D01*
X137873132Y-120790461D01*
X138000000Y-120810555D01*
X138126868Y-120790461D01*
X138241318Y-120732146D01*
X138332146Y-120641318D01*
X138390461Y-120526868D01*
X138410555Y-120400000D01*
X138390461Y-120273132D01*
X138353199Y-120200000D01*
X139789445Y-120200000D01*
X139809538Y-120326866D01*
X139809538Y-120326867D01*
X139809539Y-120326868D01*
X139867854Y-120441318D01*
X139958682Y-120532146D01*
X140073132Y-120590461D01*
X140200000Y-120610555D01*
X140266641Y-120600000D01*
X143489445Y-120600000D01*
X143509538Y-120726866D01*
X143509538Y-120726867D01*
X143509539Y-120726868D01*
X143567854Y-120841318D01*
X143658682Y-120932146D01*
X143773132Y-120990461D01*
X143900000Y-121010555D01*
X144026868Y-120990461D01*
X144141318Y-120932146D01*
X144232146Y-120841318D01*
X144290461Y-120726868D01*
X144297190Y-120684380D01*
X144326704Y-120631134D01*
X144383540Y-120609317D01*
X144399013Y-120610398D01*
X144400000Y-120610555D01*
X144526868Y-120590461D01*
X144641318Y-120532146D01*
X144732146Y-120441318D01*
X144790461Y-120326868D01*
X144810555Y-120200000D01*
X144790461Y-120073132D01*
X144732146Y-119958682D01*
X144641318Y-119867854D01*
X144526868Y-119809539D01*
X144526867Y-119809538D01*
X144526866Y-119809538D01*
X144400000Y-119789445D01*
X144273133Y-119809538D01*
X144158683Y-119867853D01*
X144067853Y-119958683D01*
X144009538Y-120073133D01*
X144002809Y-120115620D01*
X143973293Y-120168866D01*
X143916457Y-120190682D01*
X143900986Y-120189601D01*
X143900000Y-120189445D01*
X143773133Y-120209538D01*
X143658683Y-120267853D01*
X143567853Y-120358683D01*
X143509538Y-120473133D01*
X143489445Y-120600000D01*
X140266641Y-120600000D01*
X140326868Y-120590461D01*
X140441318Y-120532146D01*
X140532146Y-120441318D01*
X140590461Y-120326868D01*
X140610555Y-120200000D01*
X140610399Y-120199016D01*
X140612081Y-120190361D01*
X140612760Y-120186077D01*
X140612909Y-120186100D01*
X140622015Y-120139256D01*
X140669327Y-120100943D01*
X140684377Y-120097190D01*
X140726868Y-120090461D01*
X140841318Y-120032146D01*
X140932146Y-119941318D01*
X140990461Y-119826868D01*
X141010555Y-119700000D01*
X141289445Y-119700000D01*
X141309538Y-119826866D01*
X141309538Y-119826867D01*
X141309539Y-119826868D01*
X141367854Y-119941318D01*
X141458682Y-120032146D01*
X141573132Y-120090461D01*
X141627024Y-120098996D01*
X141680267Y-120128508D01*
X141701003Y-120172976D01*
X141709538Y-120226866D01*
X141709538Y-120226867D01*
X141709539Y-120226868D01*
X141767854Y-120341318D01*
X141858682Y-120432146D01*
X141973132Y-120490461D01*
X142100000Y-120510555D01*
X142226868Y-120490461D01*
X142341318Y-120432146D01*
X142432146Y-120341318D01*
X142490461Y-120226868D01*
X142510555Y-120100000D01*
X142490461Y-119973132D01*
X142432146Y-119858682D01*
X142341318Y-119767854D01*
X142226868Y-119709539D01*
X142226867Y-119709538D01*
X142226866Y-119709538D01*
X142172976Y-119701003D01*
X142119730Y-119671488D01*
X142098996Y-119627025D01*
X142090461Y-119573132D01*
X142032146Y-119458682D01*
X141941318Y-119367854D01*
X141826868Y-119309539D01*
X141826867Y-119309538D01*
X141826866Y-119309538D01*
X141700000Y-119289445D01*
X141573133Y-119309538D01*
X141458683Y-119367853D01*
X141367853Y-119458683D01*
X141309538Y-119573133D01*
X141289445Y-119700000D01*
X141010555Y-119700000D01*
X140990461Y-119573132D01*
X140932146Y-119458682D01*
X140841318Y-119367854D01*
X140726868Y-119309539D01*
X140726867Y-119309538D01*
X140726866Y-119309538D01*
X140600000Y-119289445D01*
X140473133Y-119309538D01*
X140358683Y-119367853D01*
X140267853Y-119458683D01*
X140209538Y-119573133D01*
X140189445Y-119700000D01*
X140189601Y-119700986D01*
X140187917Y-119709642D01*
X140187240Y-119713923D01*
X140187090Y-119713899D01*
X140177982Y-119760747D01*
X140130668Y-119799058D01*
X140115620Y-119802809D01*
X140073133Y-119809538D01*
X139958683Y-119867853D01*
X139867853Y-119958683D01*
X139809538Y-120073133D01*
X139789445Y-120200000D01*
X138353199Y-120200000D01*
X138332146Y-120158682D01*
X138241318Y-120067854D01*
X138126868Y-120009539D01*
X138126867Y-120009538D01*
X138126866Y-120009538D01*
X138000000Y-119989445D01*
X137873133Y-120009538D01*
X137758683Y-120067853D01*
X137667853Y-120158683D01*
X137609538Y-120273133D01*
X137589445Y-120400000D01*
X125949983Y-120400000D01*
X126024536Y-120302841D01*
X126085044Y-120156762D01*
X126105682Y-120000000D01*
X126085044Y-119843238D01*
X126078263Y-119826868D01*
X126024536Y-119697159D01*
X125928282Y-119571717D01*
X125802840Y-119475463D01*
X125656764Y-119414956D01*
X125552253Y-119401197D01*
X125500000Y-119394318D01*
X125499999Y-119394318D01*
X125343235Y-119414956D01*
X125197161Y-119475463D01*
X125197159Y-119475464D01*
X125086108Y-119560675D01*
X125071714Y-119571721D01*
X125070853Y-119572844D01*
X125067312Y-119575099D01*
X125062423Y-119578851D01*
X125062094Y-119578422D01*
X125019506Y-119605551D01*
X124959148Y-119597602D01*
X124929639Y-119572839D01*
X124928781Y-119571721D01*
X124928779Y-119571718D01*
X124803338Y-119475464D01*
X124762823Y-119458682D01*
X124657261Y-119414956D01*
X124552750Y-119401197D01*
X124500497Y-119394318D01*
X124500496Y-119394318D01*
X124343732Y-119414956D01*
X124197656Y-119475463D01*
X124072214Y-119571717D01*
X123975960Y-119697159D01*
X123915453Y-119843235D01*
X123894815Y-120000000D01*
X120000500Y-120000000D01*
X120000500Y-118600000D01*
X138089445Y-118600000D01*
X138109538Y-118726866D01*
X138109538Y-118726867D01*
X138109539Y-118726868D01*
X138167854Y-118841318D01*
X138258682Y-118932146D01*
X138373132Y-118990461D01*
X138500000Y-119010555D01*
X138626868Y-118990461D01*
X138741318Y-118932146D01*
X138832146Y-118841318D01*
X138890461Y-118726868D01*
X138910555Y-118600000D01*
X143789445Y-118600000D01*
X143809538Y-118726866D01*
X143809538Y-118726867D01*
X143809539Y-118726868D01*
X143867854Y-118841318D01*
X143958682Y-118932146D01*
X144073132Y-118990461D01*
X144200000Y-119010555D01*
X144326868Y-118990461D01*
X144441318Y-118932146D01*
X144532146Y-118841318D01*
X144556912Y-118792711D01*
X152594500Y-118792711D01*
X152594551Y-118793758D01*
X152594552Y-118793780D01*
X152595436Y-118811757D01*
X152595490Y-118812856D01*
X152596912Y-118827292D01*
X152597065Y-118828329D01*
X152597069Y-118828355D01*
X152598992Y-118841316D01*
X152599870Y-118847236D01*
X152610800Y-118902188D01*
X152611431Y-118904269D01*
X152611435Y-118904284D01*
X152621860Y-118938651D01*
X152621863Y-118938660D01*
X152622493Y-118940736D01*
X152623323Y-118942740D01*
X152623327Y-118942751D01*
X152623334Y-118942767D01*
X152633541Y-118967410D01*
X152634561Y-118969318D01*
X152634567Y-118969331D01*
X152651505Y-119001020D01*
X152652533Y-119002943D01*
X152653734Y-119004741D01*
X152653738Y-119004747D01*
X152657619Y-119010555D01*
X152679535Y-119043354D01*
X152705092Y-119074494D01*
X152725505Y-119094907D01*
X152756644Y-119120463D01*
X152776848Y-119133963D01*
X152795228Y-119146245D01*
X152795234Y-119146248D01*
X152797053Y-119147464D01*
X152798977Y-119148492D01*
X152798983Y-119148496D01*
X152814818Y-119156960D01*
X152832583Y-119166456D01*
X152859258Y-119177505D01*
X152861348Y-119178139D01*
X152861351Y-119178140D01*
X152895713Y-119188563D01*
X152895716Y-119188563D01*
X152897807Y-119189198D01*
X152952759Y-119200129D01*
X152972707Y-119203088D01*
X152987144Y-119204510D01*
X153007288Y-119205500D01*
X153008365Y-119205500D01*
X153491635Y-119205500D01*
X153492712Y-119205500D01*
X153512856Y-119204510D01*
X153527293Y-119203088D01*
X153547242Y-119200129D01*
X153602193Y-119189198D01*
X153640741Y-119177505D01*
X153667416Y-119166456D01*
X153702944Y-119147465D01*
X153743351Y-119120466D01*
X153774492Y-119094909D01*
X153794909Y-119074492D01*
X153820466Y-119043351D01*
X153847465Y-119002944D01*
X153866456Y-118967416D01*
X153877505Y-118940741D01*
X153889198Y-118902192D01*
X153900129Y-118847240D01*
X153903088Y-118827292D01*
X153904510Y-118812855D01*
X153905500Y-118792711D01*
X154094500Y-118792711D01*
X154094551Y-118793758D01*
X154094552Y-118793780D01*
X154095436Y-118811757D01*
X154095490Y-118812856D01*
X154096912Y-118827292D01*
X154097065Y-118828329D01*
X154097069Y-118828355D01*
X154098992Y-118841316D01*
X154099870Y-118847236D01*
X154110800Y-118902188D01*
X154111431Y-118904269D01*
X154111435Y-118904284D01*
X154121860Y-118938651D01*
X154121863Y-118938660D01*
X154122493Y-118940736D01*
X154123323Y-118942740D01*
X154123327Y-118942751D01*
X154123334Y-118942767D01*
X154133541Y-118967410D01*
X154134561Y-118969318D01*
X154134567Y-118969331D01*
X154151505Y-119001020D01*
X154152533Y-119002943D01*
X154153734Y-119004741D01*
X154153738Y-119004747D01*
X154157619Y-119010555D01*
X154179535Y-119043354D01*
X154205092Y-119074494D01*
X154225505Y-119094907D01*
X154256644Y-119120463D01*
X154276848Y-119133963D01*
X154295228Y-119146245D01*
X154295234Y-119146248D01*
X154297053Y-119147464D01*
X154298977Y-119148492D01*
X154298983Y-119148496D01*
X154314818Y-119156960D01*
X154332583Y-119166456D01*
X154359258Y-119177505D01*
X154361348Y-119178139D01*
X154361351Y-119178140D01*
X154395713Y-119188563D01*
X154395716Y-119188563D01*
X154397807Y-119189198D01*
X154452759Y-119200129D01*
X154472707Y-119203088D01*
X154487144Y-119204510D01*
X154507288Y-119205500D01*
X154508365Y-119205500D01*
X154991635Y-119205500D01*
X154992712Y-119205500D01*
X155012856Y-119204510D01*
X155027293Y-119203088D01*
X155047242Y-119200129D01*
X155102193Y-119189198D01*
X155140741Y-119177505D01*
X155167416Y-119166456D01*
X155202944Y-119147465D01*
X155243351Y-119120466D01*
X155274492Y-119094909D01*
X155294909Y-119074492D01*
X155320466Y-119043351D01*
X155347465Y-119002944D01*
X155366456Y-118967416D01*
X155377505Y-118940741D01*
X155389198Y-118902192D01*
X155400129Y-118847240D01*
X155403088Y-118827292D01*
X155404510Y-118812855D01*
X155405500Y-118792711D01*
X155405500Y-115950000D01*
X166306818Y-115950000D01*
X166327456Y-116106764D01*
X166387963Y-116252840D01*
X166484217Y-116378282D01*
X166609659Y-116474536D01*
X166755735Y-116535043D01*
X166755738Y-116535044D01*
X166912500Y-116555682D01*
X167069262Y-116535044D01*
X167215341Y-116474536D01*
X167340782Y-116378282D01*
X167437036Y-116252841D01*
X167497544Y-116106762D01*
X167518182Y-115950000D01*
X167497544Y-115793238D01*
X167469824Y-115726317D01*
X167437036Y-115647159D01*
X167340782Y-115521717D01*
X167247318Y-115450000D01*
X182344318Y-115450000D01*
X182364956Y-115606764D01*
X182425463Y-115752840D01*
X182521717Y-115878282D01*
X182561589Y-115908876D01*
X182647159Y-115974536D01*
X182716191Y-116003130D01*
X182761076Y-116044259D01*
X182769022Y-116104618D01*
X182736312Y-116155964D01*
X182716193Y-116167579D01*
X182697160Y-116175463D01*
X182571717Y-116271717D01*
X182475463Y-116397159D01*
X182414956Y-116543235D01*
X182394318Y-116699999D01*
X182414956Y-116856764D01*
X182475463Y-117002840D01*
X182571717Y-117128282D01*
X182697159Y-117224536D01*
X182843235Y-117285043D01*
X182843238Y-117285044D01*
X183000000Y-117305682D01*
X183156762Y-117285044D01*
X183302841Y-117224536D01*
X183428282Y-117128282D01*
X183524536Y-117002841D01*
X183585044Y-116856762D01*
X183605682Y-116700000D01*
X183585044Y-116543238D01*
X183573560Y-116515514D01*
X183524536Y-116397159D01*
X183428282Y-116271717D01*
X183302840Y-116175463D01*
X183233808Y-116146869D01*
X183188923Y-116105739D01*
X183180977Y-116045380D01*
X183213688Y-115994035D01*
X183233804Y-115982421D01*
X183252841Y-115974536D01*
X183378282Y-115878282D01*
X183474536Y-115752841D01*
X183535044Y-115606762D01*
X183555682Y-115450000D01*
X183535044Y-115293238D01*
X183527435Y-115274869D01*
X183474536Y-115147159D01*
X183378282Y-115021717D01*
X183349980Y-115000000D01*
X184189445Y-115000000D01*
X184209538Y-115126866D01*
X184209538Y-115126867D01*
X184209539Y-115126868D01*
X184267854Y-115241318D01*
X184358682Y-115332146D01*
X184473132Y-115390461D01*
X184600000Y-115410555D01*
X184726868Y-115390461D01*
X184841318Y-115332146D01*
X184932146Y-115241318D01*
X184932147Y-115241315D01*
X184937067Y-115236396D01*
X184992243Y-115210668D01*
X185051048Y-115226424D01*
X185062933Y-115236396D01*
X185067852Y-115241315D01*
X185067854Y-115241318D01*
X185158682Y-115332146D01*
X185273132Y-115390461D01*
X185400000Y-115410555D01*
X185526868Y-115390461D01*
X185641318Y-115332146D01*
X185732146Y-115241318D01*
X185732147Y-115241315D01*
X185737067Y-115236396D01*
X185792243Y-115210668D01*
X185851048Y-115226424D01*
X185862933Y-115236396D01*
X185867852Y-115241315D01*
X185867854Y-115241318D01*
X185958682Y-115332146D01*
X186073132Y-115390461D01*
X186200000Y-115410555D01*
X186326868Y-115390461D01*
X186441318Y-115332146D01*
X186532146Y-115241318D01*
X186532147Y-115241315D01*
X186537067Y-115236396D01*
X186592243Y-115210668D01*
X186651048Y-115226424D01*
X186662933Y-115236396D01*
X186667852Y-115241315D01*
X186667854Y-115241318D01*
X186758682Y-115332146D01*
X186873132Y-115390461D01*
X187000000Y-115410555D01*
X187126868Y-115390461D01*
X187241318Y-115332146D01*
X187332146Y-115241318D01*
X187332147Y-115241315D01*
X187337067Y-115236396D01*
X187392243Y-115210668D01*
X187451048Y-115226424D01*
X187462933Y-115236396D01*
X187467852Y-115241315D01*
X187467854Y-115241318D01*
X187558682Y-115332146D01*
X187673132Y-115390461D01*
X187800000Y-115410555D01*
X187926868Y-115390461D01*
X188041318Y-115332146D01*
X188132146Y-115241318D01*
X188132147Y-115241315D01*
X188137067Y-115236396D01*
X188192243Y-115210668D01*
X188251048Y-115226424D01*
X188262933Y-115236396D01*
X188267852Y-115241315D01*
X188267854Y-115241318D01*
X188328049Y-115301513D01*
X188353777Y-115356688D01*
X188338021Y-115415493D01*
X188335725Y-115418624D01*
X188275464Y-115497159D01*
X188214956Y-115643235D01*
X188194318Y-115800000D01*
X188214956Y-115956764D01*
X188275463Y-116102840D01*
X188371717Y-116228282D01*
X188497159Y-116324536D01*
X188643235Y-116385043D01*
X188643238Y-116385044D01*
X188800000Y-116405682D01*
X188956762Y-116385044D01*
X189102841Y-116324536D01*
X189228282Y-116228282D01*
X189324536Y-116102841D01*
X189385044Y-115956762D01*
X189405682Y-115800000D01*
X189385044Y-115643238D01*
X189381087Y-115633686D01*
X189338721Y-115531405D01*
X189336065Y-115470583D01*
X189373126Y-115422284D01*
X189407021Y-115409442D01*
X189526868Y-115390461D01*
X189641318Y-115332146D01*
X189732146Y-115241318D01*
X189790461Y-115126868D01*
X189810555Y-115000000D01*
X189790461Y-114873132D01*
X189732146Y-114758682D01*
X189641318Y-114667854D01*
X189526868Y-114609539D01*
X189526867Y-114609538D01*
X189526866Y-114609538D01*
X189400000Y-114589445D01*
X189273133Y-114609538D01*
X189158683Y-114667853D01*
X189158682Y-114667853D01*
X189158682Y-114667854D01*
X189067854Y-114758682D01*
X189067853Y-114758683D01*
X189062933Y-114763604D01*
X189007757Y-114789332D01*
X188948952Y-114773576D01*
X188937067Y-114763604D01*
X188932147Y-114758684D01*
X188932146Y-114758682D01*
X188841318Y-114667854D01*
X188726868Y-114609539D01*
X188726867Y-114609538D01*
X188726866Y-114609538D01*
X188600000Y-114589445D01*
X188473133Y-114609538D01*
X188358683Y-114667853D01*
X188358682Y-114667853D01*
X188358682Y-114667854D01*
X188267854Y-114758682D01*
X188267853Y-114758683D01*
X188262933Y-114763604D01*
X188207757Y-114789332D01*
X188148952Y-114773576D01*
X188137067Y-114763604D01*
X188132147Y-114758684D01*
X188132146Y-114758682D01*
X188041318Y-114667854D01*
X187926868Y-114609539D01*
X187926867Y-114609538D01*
X187926866Y-114609538D01*
X187800000Y-114589445D01*
X187673133Y-114609538D01*
X187558683Y-114667853D01*
X187558682Y-114667853D01*
X187558682Y-114667854D01*
X187467854Y-114758682D01*
X187467853Y-114758683D01*
X187462933Y-114763604D01*
X187407757Y-114789332D01*
X187348952Y-114773576D01*
X187337067Y-114763604D01*
X187332147Y-114758684D01*
X187332146Y-114758682D01*
X187241318Y-114667854D01*
X187126868Y-114609539D01*
X187126867Y-114609538D01*
X187126866Y-114609538D01*
X187000000Y-114589445D01*
X186873133Y-114609538D01*
X186758683Y-114667853D01*
X186758682Y-114667853D01*
X186758682Y-114667854D01*
X186667854Y-114758682D01*
X186667853Y-114758683D01*
X186662933Y-114763604D01*
X186607757Y-114789332D01*
X186548952Y-114773576D01*
X186537067Y-114763604D01*
X186532147Y-114758684D01*
X186532146Y-114758682D01*
X186441318Y-114667854D01*
X186326868Y-114609539D01*
X186326867Y-114609538D01*
X186326866Y-114609538D01*
X186200000Y-114589445D01*
X186073133Y-114609538D01*
X185958683Y-114667853D01*
X185958682Y-114667853D01*
X185958682Y-114667854D01*
X185867854Y-114758682D01*
X185867853Y-114758683D01*
X185862933Y-114763604D01*
X185807757Y-114789332D01*
X185748952Y-114773576D01*
X185737067Y-114763604D01*
X185732147Y-114758684D01*
X185732146Y-114758682D01*
X185641318Y-114667854D01*
X185526868Y-114609539D01*
X185526867Y-114609538D01*
X185526866Y-114609538D01*
X185400000Y-114589445D01*
X185273133Y-114609538D01*
X185158683Y-114667853D01*
X185158682Y-114667853D01*
X185158682Y-114667854D01*
X185067854Y-114758682D01*
X185067853Y-114758683D01*
X185062933Y-114763604D01*
X185007757Y-114789332D01*
X184948952Y-114773576D01*
X184937067Y-114763604D01*
X184932147Y-114758684D01*
X184932146Y-114758682D01*
X184841318Y-114667854D01*
X184726868Y-114609539D01*
X184726867Y-114609538D01*
X184726866Y-114609538D01*
X184600000Y-114589445D01*
X184473133Y-114609538D01*
X184358683Y-114667853D01*
X184267853Y-114758683D01*
X184209538Y-114873133D01*
X184189445Y-115000000D01*
X183349980Y-115000000D01*
X183252840Y-114925463D01*
X183106764Y-114864956D01*
X183002254Y-114851197D01*
X182950000Y-114844318D01*
X182949999Y-114844318D01*
X182793235Y-114864956D01*
X182647159Y-114925463D01*
X182521717Y-115021717D01*
X182425463Y-115147159D01*
X182364956Y-115293235D01*
X182344318Y-115450000D01*
X167247318Y-115450000D01*
X167215340Y-115425463D01*
X167069264Y-115364956D01*
X166912500Y-115344318D01*
X166755735Y-115364956D01*
X166609659Y-115425463D01*
X166484217Y-115521717D01*
X166387963Y-115647159D01*
X166327456Y-115793235D01*
X166306818Y-115950000D01*
X155405500Y-115950000D01*
X155405500Y-111800000D01*
X183594318Y-111800000D01*
X183614956Y-111956764D01*
X183675463Y-112102840D01*
X183771717Y-112228282D01*
X183897159Y-112324536D01*
X184043235Y-112385043D01*
X184043238Y-112385044D01*
X184200000Y-112405682D01*
X184356762Y-112385044D01*
X184502841Y-112324536D01*
X184628282Y-112228282D01*
X184724536Y-112102841D01*
X184785044Y-111956762D01*
X184805682Y-111800000D01*
X184785044Y-111643238D01*
X184724536Y-111497159D01*
X184724536Y-111497158D01*
X184628282Y-111371717D01*
X184502840Y-111275463D01*
X184356764Y-111214956D01*
X184200000Y-111194318D01*
X184043235Y-111214956D01*
X183897159Y-111275463D01*
X183771717Y-111371717D01*
X183675463Y-111497159D01*
X183614956Y-111643235D01*
X183594318Y-111800000D01*
X155405500Y-111800000D01*
X155405500Y-110907288D01*
X155404510Y-110887143D01*
X155403366Y-110875531D01*
X155418479Y-110816558D01*
X155457876Y-110784582D01*
X155602841Y-110724536D01*
X155728282Y-110628282D01*
X155824536Y-110502841D01*
X155885044Y-110356762D01*
X155892517Y-110300000D01*
X156294318Y-110300000D01*
X156314956Y-110456764D01*
X156375463Y-110602840D01*
X156471717Y-110728282D01*
X156597159Y-110824536D01*
X156743235Y-110885043D01*
X156743238Y-110885044D01*
X156900000Y-110905682D01*
X157056762Y-110885044D01*
X157202841Y-110824536D01*
X157328282Y-110728282D01*
X157424536Y-110602841D01*
X157425713Y-110600000D01*
X188594318Y-110600000D01*
X188597898Y-110627193D01*
X188614956Y-110756764D01*
X188675463Y-110902840D01*
X188771717Y-111028282D01*
X188897159Y-111124536D01*
X189043235Y-111185043D01*
X189043238Y-111185044D01*
X189200000Y-111205682D01*
X189356762Y-111185044D01*
X189502841Y-111124536D01*
X189628282Y-111028282D01*
X189724536Y-110902841D01*
X189785044Y-110756762D01*
X189805682Y-110600000D01*
X189785044Y-110443238D01*
X189749224Y-110356762D01*
X189724536Y-110297159D01*
X189628282Y-110171717D01*
X189502840Y-110075463D01*
X189356764Y-110014956D01*
X189200000Y-109994318D01*
X189043235Y-110014956D01*
X188897159Y-110075463D01*
X188771717Y-110171717D01*
X188675463Y-110297159D01*
X188614956Y-110443235D01*
X188596829Y-110580924D01*
X188594318Y-110600000D01*
X157425713Y-110600000D01*
X157485044Y-110456762D01*
X157505682Y-110300000D01*
X157485044Y-110143238D01*
X157424536Y-109997159D01*
X157347803Y-109897158D01*
X157328282Y-109871717D01*
X157202840Y-109775463D01*
X157056764Y-109714956D01*
X156900000Y-109694318D01*
X156743235Y-109714956D01*
X156597159Y-109775463D01*
X156471717Y-109871717D01*
X156375463Y-109997159D01*
X156314956Y-110143235D01*
X156294318Y-110300000D01*
X155892517Y-110300000D01*
X155905682Y-110200000D01*
X155885044Y-110043238D01*
X155824536Y-109897159D01*
X155753189Y-109804178D01*
X155734883Y-109746117D01*
X155753188Y-109695823D01*
X155824536Y-109602841D01*
X155850811Y-109539406D01*
X155891937Y-109494525D01*
X155944647Y-109485229D01*
X156100000Y-109505682D01*
X156256762Y-109485044D01*
X156402841Y-109424536D01*
X156434817Y-109400000D01*
X189394318Y-109400000D01*
X189414956Y-109556764D01*
X189475463Y-109702840D01*
X189571717Y-109828282D01*
X189697159Y-109924536D01*
X189843235Y-109985043D01*
X189843238Y-109985044D01*
X190000000Y-110005682D01*
X190156762Y-109985044D01*
X190302841Y-109924536D01*
X190428282Y-109828282D01*
X190524536Y-109702841D01*
X190585044Y-109556762D01*
X190605682Y-109400000D01*
X190585044Y-109243238D01*
X190573629Y-109215681D01*
X190524536Y-109097159D01*
X190428282Y-108971717D01*
X190302840Y-108875463D01*
X190156764Y-108814956D01*
X190000000Y-108794318D01*
X189843235Y-108814956D01*
X189697159Y-108875463D01*
X189571717Y-108971717D01*
X189475463Y-109097159D01*
X189414956Y-109243235D01*
X189394318Y-109400000D01*
X156434817Y-109400000D01*
X156528282Y-109328282D01*
X156624536Y-109202841D01*
X156685044Y-109056762D01*
X156705682Y-108900000D01*
X156685044Y-108743238D01*
X156625713Y-108600000D01*
X177194318Y-108600000D01*
X177214956Y-108756764D01*
X177275463Y-108902840D01*
X177371717Y-109028282D01*
X177497159Y-109124536D01*
X177643235Y-109185043D01*
X177643238Y-109185044D01*
X177800000Y-109205682D01*
X177956762Y-109185044D01*
X178102841Y-109124536D01*
X178228282Y-109028282D01*
X178324536Y-108902841D01*
X178385044Y-108756762D01*
X178405682Y-108600000D01*
X178404365Y-108590000D01*
X179394318Y-108590000D01*
X179395261Y-108597161D01*
X179414956Y-108746764D01*
X179475463Y-108892840D01*
X179571717Y-109018282D01*
X179697159Y-109114536D01*
X179843235Y-109175043D01*
X179843238Y-109175044D01*
X180000000Y-109195682D01*
X180156762Y-109175044D01*
X180302841Y-109114536D01*
X180428282Y-109018282D01*
X180524536Y-108892841D01*
X180524536Y-108892839D01*
X180529391Y-108886513D01*
X180580736Y-108853802D01*
X180641095Y-108861748D01*
X180670609Y-108886513D01*
X180675463Y-108892839D01*
X180675464Y-108892841D01*
X180709756Y-108937532D01*
X180771717Y-109018282D01*
X180897159Y-109114536D01*
X181043235Y-109175043D01*
X181043238Y-109175044D01*
X181200000Y-109195682D01*
X181356762Y-109175044D01*
X181502841Y-109114536D01*
X181628282Y-109018282D01*
X181723332Y-108894409D01*
X181774675Y-108861700D01*
X181835034Y-108869646D01*
X181867020Y-108904552D01*
X181868332Y-108903546D01*
X181971717Y-109038282D01*
X182097159Y-109134536D01*
X182243235Y-109195043D01*
X182243238Y-109195044D01*
X182400000Y-109215682D01*
X182556762Y-109195044D01*
X182702841Y-109134536D01*
X182828282Y-109038282D01*
X182924536Y-108912841D01*
X182924536Y-108912840D01*
X182931668Y-108903546D01*
X182932980Y-108904552D01*
X182964958Y-108869649D01*
X183025316Y-108861698D01*
X183076664Y-108894405D01*
X183098599Y-108922992D01*
X183171717Y-109018282D01*
X183297159Y-109114536D01*
X183443235Y-109175043D01*
X183443238Y-109175044D01*
X183600000Y-109195682D01*
X183756762Y-109175044D01*
X183902841Y-109114536D01*
X184028282Y-109018282D01*
X184124536Y-108892841D01*
X184124536Y-108892839D01*
X184129391Y-108886513D01*
X184180736Y-108853802D01*
X184241095Y-108861748D01*
X184270609Y-108886513D01*
X184275463Y-108892839D01*
X184275464Y-108892841D01*
X184309756Y-108937532D01*
X184371717Y-109018282D01*
X184497159Y-109114536D01*
X184643235Y-109175043D01*
X184643238Y-109175044D01*
X184800000Y-109195682D01*
X184956762Y-109175044D01*
X185102841Y-109114536D01*
X185228282Y-109018282D01*
X185324536Y-108892841D01*
X185324536Y-108892839D01*
X185329391Y-108886513D01*
X185380736Y-108853802D01*
X185441095Y-108861748D01*
X185470609Y-108886513D01*
X185475463Y-108892839D01*
X185475464Y-108892841D01*
X185509756Y-108937532D01*
X185571717Y-109018282D01*
X185697159Y-109114536D01*
X185843235Y-109175043D01*
X185843238Y-109175044D01*
X186000000Y-109195682D01*
X186156762Y-109175044D01*
X186302841Y-109114536D01*
X186428282Y-109018282D01*
X186524536Y-108892841D01*
X186585044Y-108746762D01*
X186605682Y-108590000D01*
X186585044Y-108433238D01*
X186571276Y-108400000D01*
X186524536Y-108287159D01*
X186428282Y-108161717D01*
X186302840Y-108065463D01*
X186156764Y-108004956D01*
X186000000Y-107984318D01*
X185843235Y-108004956D01*
X185697159Y-108065463D01*
X185571717Y-108161717D01*
X185470609Y-108293486D01*
X185419264Y-108326197D01*
X185358905Y-108318251D01*
X185329391Y-108293486D01*
X185228282Y-108161717D01*
X185102840Y-108065463D01*
X184956764Y-108004956D01*
X184800000Y-107984318D01*
X184643235Y-108004956D01*
X184497159Y-108065463D01*
X184371717Y-108161717D01*
X184270609Y-108293486D01*
X184219264Y-108326197D01*
X184158905Y-108318251D01*
X184129391Y-108293486D01*
X184028282Y-108161717D01*
X183902840Y-108065463D01*
X183756764Y-108004956D01*
X183600000Y-107984318D01*
X183443235Y-108004956D01*
X183297159Y-108065463D01*
X183171717Y-108161717D01*
X183068332Y-108296454D01*
X183067020Y-108295447D01*
X183035030Y-108330355D01*
X182974671Y-108338298D01*
X182923331Y-108305588D01*
X182875486Y-108243235D01*
X182828282Y-108181717D01*
X182702840Y-108085463D01*
X182556764Y-108024956D01*
X182400000Y-108004318D01*
X182243235Y-108024956D01*
X182097159Y-108085463D01*
X181971719Y-108181716D01*
X181924514Y-108243235D01*
X181876670Y-108305588D01*
X181876669Y-108305589D01*
X181825323Y-108338299D01*
X181764965Y-108330353D01*
X181732979Y-108295447D01*
X181731668Y-108296454D01*
X181628282Y-108161717D01*
X181502840Y-108065463D01*
X181356764Y-108004956D01*
X181200000Y-107984318D01*
X181043235Y-108004956D01*
X180897159Y-108065463D01*
X180771716Y-108161718D01*
X180670607Y-108293487D01*
X180619262Y-108326197D01*
X180558903Y-108318251D01*
X180529390Y-108293486D01*
X180524536Y-108287161D01*
X180524536Y-108287159D01*
X180475825Y-108223678D01*
X180428282Y-108161717D01*
X180302840Y-108065463D01*
X180156764Y-108004956D01*
X180000000Y-107984318D01*
X179843235Y-108004956D01*
X179697159Y-108065463D01*
X179571717Y-108161717D01*
X179475463Y-108287159D01*
X179414956Y-108433235D01*
X179394318Y-108589999D01*
X179394318Y-108590000D01*
X178404365Y-108590000D01*
X178385044Y-108443238D01*
X178324536Y-108297159D01*
X178283159Y-108243235D01*
X178228282Y-108171717D01*
X178102840Y-108075463D01*
X177956764Y-108014956D01*
X177800000Y-107994318D01*
X177643235Y-108014956D01*
X177497159Y-108075463D01*
X177371717Y-108171717D01*
X177275463Y-108297159D01*
X177214956Y-108443235D01*
X177194318Y-108600000D01*
X156625713Y-108600000D01*
X156624536Y-108597159D01*
X156553189Y-108504178D01*
X156534884Y-108446118D01*
X156553189Y-108395822D01*
X156624536Y-108302841D01*
X156685044Y-108156762D01*
X156705682Y-108000000D01*
X156685044Y-107843238D01*
X156624536Y-107697159D01*
X156593540Y-107656764D01*
X156528282Y-107571717D01*
X156526839Y-107570610D01*
X156523934Y-107566050D01*
X156521149Y-107562421D01*
X156521466Y-107562177D01*
X156494126Y-107519266D01*
X156502071Y-107458907D01*
X156526839Y-107429390D01*
X156528282Y-107428282D01*
X156593538Y-107343238D01*
X156624536Y-107302841D01*
X156685044Y-107156762D01*
X156705682Y-107000000D01*
X156685044Y-106843238D01*
X156624536Y-106697159D01*
X156528282Y-106571717D01*
X156402840Y-106475463D01*
X156256764Y-106414956D01*
X156100000Y-106394318D01*
X155943235Y-106414956D01*
X155797159Y-106475463D01*
X155671717Y-106571717D01*
X155575463Y-106697159D01*
X155510472Y-106854063D01*
X155506262Y-106852319D01*
X155488141Y-106887070D01*
X155431879Y-106910327D01*
X155416445Y-106909648D01*
X155300000Y-106894318D01*
X155143235Y-106914956D01*
X154997159Y-106975463D01*
X154871717Y-107071717D01*
X154775463Y-107197159D01*
X154714956Y-107343235D01*
X154694318Y-107499999D01*
X154714956Y-107656764D01*
X154731689Y-107697159D01*
X154775464Y-107802841D01*
X154806459Y-107843235D01*
X154846809Y-107895821D01*
X154865115Y-107953883D01*
X154846809Y-108004179D01*
X154775464Y-108097159D01*
X154714956Y-108243235D01*
X154694318Y-108399999D01*
X154714956Y-108556764D01*
X154750743Y-108643159D01*
X154775464Y-108702841D01*
X154846810Y-108795821D01*
X154865116Y-108853882D01*
X154846810Y-108904177D01*
X154775464Y-108997159D01*
X154775463Y-108997160D01*
X154775463Y-108997161D01*
X154714956Y-109143235D01*
X154694318Y-109300000D01*
X154714956Y-109456764D01*
X154735219Y-109505681D01*
X154775464Y-109602841D01*
X154775466Y-109602843D01*
X154846809Y-109695821D01*
X154865115Y-109753883D01*
X154846809Y-109804179D01*
X154775464Y-109897159D01*
X154714956Y-110043235D01*
X154694318Y-110200000D01*
X154714956Y-110356764D01*
X154721036Y-110371441D01*
X154723692Y-110432263D01*
X154686630Y-110480562D01*
X154638811Y-110494500D01*
X154507288Y-110494500D01*
X154506241Y-110494551D01*
X154506218Y-110494552D01*
X154488234Y-110495436D01*
X154488218Y-110495437D01*
X154487143Y-110495490D01*
X154486057Y-110495596D01*
X154486043Y-110495598D01*
X154473800Y-110496804D01*
X154473786Y-110496805D01*
X154472707Y-110496912D01*
X154471654Y-110497068D01*
X154471631Y-110497071D01*
X154453842Y-110499710D01*
X154453832Y-110499711D01*
X154452765Y-110499870D01*
X154451723Y-110500077D01*
X154451684Y-110500084D01*
X154399951Y-110510374D01*
X154399943Y-110510375D01*
X154397811Y-110510800D01*
X154395748Y-110511425D01*
X154395727Y-110511431D01*
X154361342Y-110521862D01*
X154361333Y-110521864D01*
X154359260Y-110522494D01*
X154357253Y-110523325D01*
X154357251Y-110523326D01*
X154334597Y-110532709D01*
X154334591Y-110532711D01*
X154332589Y-110533541D01*
X154330672Y-110534565D01*
X154330667Y-110534568D01*
X154298975Y-110551507D01*
X154298963Y-110551513D01*
X154297055Y-110552534D01*
X154295253Y-110553738D01*
X154295245Y-110553743D01*
X154258453Y-110578327D01*
X154258441Y-110578335D01*
X154256639Y-110579540D01*
X154254955Y-110580921D01*
X154254951Y-110580925D01*
X154227189Y-110603709D01*
X154227181Y-110603715D01*
X154225501Y-110605095D01*
X154223972Y-110606623D01*
X154223962Y-110606633D01*
X154206633Y-110623962D01*
X154206623Y-110623972D01*
X154205095Y-110625501D01*
X154203715Y-110627181D01*
X154203709Y-110627189D01*
X154180926Y-110654950D01*
X154179540Y-110656639D01*
X154178335Y-110658441D01*
X154178327Y-110658453D01*
X154153743Y-110695245D01*
X154152534Y-110697055D01*
X154151513Y-110698963D01*
X154151507Y-110698975D01*
X154137845Y-110724536D01*
X154133538Y-110732594D01*
X154132704Y-110734606D01*
X154132700Y-110734616D01*
X154123334Y-110757231D01*
X154122491Y-110759267D01*
X154121861Y-110761342D01*
X154121857Y-110761355D01*
X154111432Y-110795725D01*
X154111428Y-110795738D01*
X154110800Y-110797811D01*
X154110377Y-110799934D01*
X154110375Y-110799945D01*
X154100086Y-110851674D01*
X154100081Y-110851697D01*
X154099870Y-110852763D01*
X154099710Y-110853841D01*
X154099707Y-110853859D01*
X154097069Y-110871643D01*
X154097065Y-110871674D01*
X154096912Y-110872707D01*
X154096806Y-110873777D01*
X154096806Y-110873782D01*
X154095697Y-110885044D01*
X154095490Y-110887143D01*
X154095437Y-110888218D01*
X154095436Y-110888234D01*
X154094552Y-110906218D01*
X154094551Y-110906241D01*
X154094500Y-110907288D01*
X154094500Y-118792711D01*
X153905500Y-118792711D01*
X153905500Y-110907288D01*
X153904510Y-110887144D01*
X153903088Y-110872707D01*
X153900129Y-110852759D01*
X153889198Y-110797807D01*
X153877505Y-110759258D01*
X153866456Y-110732583D01*
X153847464Y-110697053D01*
X153820463Y-110656644D01*
X153794907Y-110625505D01*
X153774494Y-110605092D01*
X153743354Y-110579535D01*
X153704754Y-110553743D01*
X153704747Y-110553738D01*
X153704741Y-110553734D01*
X153702943Y-110552533D01*
X153701034Y-110551513D01*
X153701028Y-110551509D01*
X153669331Y-110534567D01*
X153669318Y-110534561D01*
X153667410Y-110533541D01*
X153665394Y-110532706D01*
X153642751Y-110523327D01*
X153642740Y-110523323D01*
X153640736Y-110522493D01*
X153638654Y-110521861D01*
X153638650Y-110521860D01*
X153604285Y-110511435D01*
X153604269Y-110511431D01*
X153602189Y-110510800D01*
X153595165Y-110509403D01*
X153548326Y-110500086D01*
X153548309Y-110500083D01*
X153547238Y-110499870D01*
X153546160Y-110499710D01*
X153546142Y-110499707D01*
X153528356Y-110497069D01*
X153528330Y-110497065D01*
X153527293Y-110496912D01*
X153526197Y-110496804D01*
X153513956Y-110495598D01*
X153513945Y-110495597D01*
X153512857Y-110495490D01*
X153511778Y-110495436D01*
X153511765Y-110495436D01*
X153493781Y-110494552D01*
X153493759Y-110494551D01*
X153492712Y-110494500D01*
X153007288Y-110494500D01*
X153006241Y-110494551D01*
X153006218Y-110494552D01*
X152988234Y-110495436D01*
X152988218Y-110495437D01*
X152987143Y-110495490D01*
X152986057Y-110495596D01*
X152986043Y-110495598D01*
X152973800Y-110496804D01*
X152973786Y-110496805D01*
X152972707Y-110496912D01*
X152971654Y-110497068D01*
X152971631Y-110497071D01*
X152953842Y-110499710D01*
X152953832Y-110499711D01*
X152952765Y-110499870D01*
X152951723Y-110500077D01*
X152951684Y-110500084D01*
X152899951Y-110510374D01*
X152899943Y-110510375D01*
X152897811Y-110510800D01*
X152895748Y-110511425D01*
X152895727Y-110511431D01*
X152861342Y-110521862D01*
X152861333Y-110521864D01*
X152859260Y-110522494D01*
X152857253Y-110523325D01*
X152857251Y-110523326D01*
X152834597Y-110532709D01*
X152834591Y-110532711D01*
X152832589Y-110533541D01*
X152830672Y-110534565D01*
X152830667Y-110534568D01*
X152798975Y-110551507D01*
X152798963Y-110551513D01*
X152797055Y-110552534D01*
X152795253Y-110553738D01*
X152795245Y-110553743D01*
X152758453Y-110578327D01*
X152758441Y-110578335D01*
X152756639Y-110579540D01*
X152754955Y-110580921D01*
X152754951Y-110580925D01*
X152727189Y-110603709D01*
X152727181Y-110603715D01*
X152725501Y-110605095D01*
X152723972Y-110606623D01*
X152723962Y-110606633D01*
X152706633Y-110623962D01*
X152706623Y-110623972D01*
X152705095Y-110625501D01*
X152703715Y-110627181D01*
X152703709Y-110627189D01*
X152680926Y-110654950D01*
X152679540Y-110656639D01*
X152678335Y-110658441D01*
X152678327Y-110658453D01*
X152653743Y-110695245D01*
X152652534Y-110697055D01*
X152651513Y-110698963D01*
X152651507Y-110698975D01*
X152634568Y-110730667D01*
X152633541Y-110732589D01*
X152632711Y-110734591D01*
X152632709Y-110734597D01*
X152632701Y-110734616D01*
X152622494Y-110759260D01*
X152621864Y-110761333D01*
X152621862Y-110761342D01*
X152611431Y-110795727D01*
X152611425Y-110795748D01*
X152610800Y-110797811D01*
X152610375Y-110799943D01*
X152610374Y-110799951D01*
X152600084Y-110851684D01*
X152600077Y-110851723D01*
X152599870Y-110852765D01*
X152599711Y-110853832D01*
X152599710Y-110853842D01*
X152597071Y-110871631D01*
X152597068Y-110871654D01*
X152596912Y-110872707D01*
X152596806Y-110873782D01*
X152596804Y-110873800D01*
X152595697Y-110885044D01*
X152595490Y-110887143D01*
X152595437Y-110888218D01*
X152595436Y-110888234D01*
X152594552Y-110906218D01*
X152594551Y-110906241D01*
X152594500Y-110907288D01*
X152594500Y-118792711D01*
X144556912Y-118792711D01*
X144590461Y-118726868D01*
X144610555Y-118600000D01*
X144590461Y-118473132D01*
X144532146Y-118358682D01*
X144441318Y-118267854D01*
X144326868Y-118209539D01*
X144326867Y-118209538D01*
X144326866Y-118209538D01*
X144200000Y-118189445D01*
X144073133Y-118209538D01*
X143958683Y-118267853D01*
X143867853Y-118358683D01*
X143809538Y-118473133D01*
X143789445Y-118600000D01*
X138910555Y-118600000D01*
X138890461Y-118473132D01*
X138832146Y-118358682D01*
X138741318Y-118267854D01*
X138626868Y-118209539D01*
X138626867Y-118209538D01*
X138626866Y-118209538D01*
X138500000Y-118189445D01*
X138373133Y-118209538D01*
X138258683Y-118267853D01*
X138167853Y-118358683D01*
X138109538Y-118473133D01*
X138089445Y-118600000D01*
X120000500Y-118600000D01*
X120000500Y-115633686D01*
X121345740Y-115633686D01*
X121355754Y-115818404D01*
X121405246Y-115996660D01*
X121491900Y-116160105D01*
X121611662Y-116301100D01*
X121758934Y-116413053D01*
X121758935Y-116413053D01*
X121758936Y-116413054D01*
X121926833Y-116490732D01*
X122067842Y-116521770D01*
X122107502Y-116530500D01*
X122107503Y-116530500D01*
X123543707Y-116530500D01*
X123546113Y-116530500D01*
X123683910Y-116515514D01*
X123859221Y-116456444D01*
X124017736Y-116361070D01*
X124112064Y-116271717D01*
X124152039Y-116233851D01*
X124152039Y-116233850D01*
X124152041Y-116233849D01*
X124255858Y-116080730D01*
X124324331Y-115908875D01*
X124354260Y-115726317D01*
X124349238Y-115633686D01*
X125320740Y-115633686D01*
X125330754Y-115818404D01*
X125380246Y-115996660D01*
X125466900Y-116160105D01*
X125586662Y-116301100D01*
X125676804Y-116369624D01*
X125709746Y-116420821D01*
X125702073Y-116481215D01*
X125667952Y-116513167D01*
X125668671Y-116514050D01*
X125540942Y-116617965D01*
X125453038Y-116742496D01*
X125401994Y-116886119D01*
X125401993Y-116886123D01*
X125401994Y-116886123D01*
X125391592Y-117038196D01*
X125422604Y-117187436D01*
X125473180Y-117285043D01*
X125492732Y-117322777D01*
X125596771Y-117434175D01*
X125596772Y-117434176D01*
X125727010Y-117513375D01*
X125873786Y-117554500D01*
X125873787Y-117554500D01*
X125984879Y-117554500D01*
X125987927Y-117554500D01*
X126101009Y-117538957D01*
X126240818Y-117478230D01*
X126359058Y-117382034D01*
X126446961Y-117257504D01*
X126498006Y-117113877D01*
X126508408Y-116961804D01*
X126477396Y-116812564D01*
X126407269Y-116677225D01*
X126407268Y-116677224D01*
X126401641Y-116666364D01*
X126403726Y-116665283D01*
X126386262Y-116624225D01*
X126404017Y-116565992D01*
X126455050Y-116532796D01*
X126475136Y-116530500D01*
X127218707Y-116530500D01*
X127221113Y-116530500D01*
X127358910Y-116515514D01*
X127534221Y-116456444D01*
X127692736Y-116361070D01*
X127787064Y-116271717D01*
X127827039Y-116233851D01*
X127827039Y-116233850D01*
X127827041Y-116233849D01*
X127930858Y-116080730D01*
X127999331Y-115908875D01*
X128029260Y-115726317D01*
X128019245Y-115541593D01*
X127969754Y-115363341D01*
X127883100Y-115199896D01*
X127883099Y-115199894D01*
X127763337Y-115058899D01*
X127616065Y-114946946D01*
X127522279Y-114903556D01*
X127448167Y-114869268D01*
X127335580Y-114844486D01*
X127267498Y-114829500D01*
X127267497Y-114829500D01*
X126128887Y-114829500D01*
X126126501Y-114829759D01*
X126126491Y-114829760D01*
X125991091Y-114844485D01*
X125815781Y-114903555D01*
X125815779Y-114903555D01*
X125815779Y-114903556D01*
X125779369Y-114925463D01*
X125657259Y-114998933D01*
X125522960Y-115126148D01*
X125419142Y-115279270D01*
X125350669Y-115451123D01*
X125350669Y-115451125D01*
X125325154Y-115606764D01*
X125320740Y-115633686D01*
X124349238Y-115633686D01*
X124344245Y-115541593D01*
X124294754Y-115363341D01*
X124208100Y-115199896D01*
X124208099Y-115199894D01*
X124088337Y-115058899D01*
X123941065Y-114946946D01*
X123847279Y-114903556D01*
X123773167Y-114869268D01*
X123660580Y-114844486D01*
X123592498Y-114829500D01*
X123592497Y-114829500D01*
X122153887Y-114829500D01*
X122151501Y-114829759D01*
X122151491Y-114829760D01*
X122016091Y-114844485D01*
X121840781Y-114903555D01*
X121840779Y-114903555D01*
X121840779Y-114903556D01*
X121804369Y-114925463D01*
X121682259Y-114998933D01*
X121547960Y-115126148D01*
X121444142Y-115279270D01*
X121375669Y-115451123D01*
X121375669Y-115451125D01*
X121350154Y-115606764D01*
X121345740Y-115633686D01*
X120000500Y-115633686D01*
X120000500Y-114036364D01*
X120021322Y-113979156D01*
X120026557Y-113973442D01*
X120599999Y-113400000D01*
X140094318Y-113400000D01*
X140114956Y-113556764D01*
X140161755Y-113669746D01*
X140175464Y-113702841D01*
X140271718Y-113828282D01*
X140273162Y-113829390D01*
X140273411Y-113829581D01*
X140276812Y-113834919D01*
X140278852Y-113837578D01*
X140278619Y-113837756D01*
X140306122Y-113880926D01*
X140298176Y-113941285D01*
X140273418Y-113970794D01*
X140272218Y-113971714D01*
X140272216Y-113971717D01*
X140272215Y-113971718D01*
X140175961Y-114097159D01*
X140175960Y-114097160D01*
X140175960Y-114097161D01*
X140115453Y-114243235D01*
X140094815Y-114399999D01*
X140115453Y-114556764D01*
X140175960Y-114702840D01*
X140272214Y-114828282D01*
X140397656Y-114924536D01*
X140543732Y-114985043D01*
X140543735Y-114985044D01*
X140700497Y-115005682D01*
X140857259Y-114985044D01*
X141003338Y-114924536D01*
X141128779Y-114828282D01*
X141129639Y-114827160D01*
X141133172Y-114824910D01*
X141138075Y-114821148D01*
X141138404Y-114821576D01*
X141180984Y-114794450D01*
X141241342Y-114802395D01*
X141270856Y-114827160D01*
X141271716Y-114828281D01*
X141397159Y-114924536D01*
X141543235Y-114985043D01*
X141543238Y-114985044D01*
X141700000Y-115005682D01*
X141856762Y-114985044D01*
X142002841Y-114924536D01*
X142128282Y-114828282D01*
X142224536Y-114702841D01*
X142285044Y-114556762D01*
X142305682Y-114400000D01*
X142285044Y-114243238D01*
X142224536Y-114097159D01*
X142224536Y-114097158D01*
X142128282Y-113971717D01*
X142126839Y-113970610D01*
X142123934Y-113966050D01*
X142121149Y-113962421D01*
X142121466Y-113962177D01*
X142094126Y-113919266D01*
X142102071Y-113858907D01*
X142126839Y-113829390D01*
X142128282Y-113828282D01*
X142128281Y-113828281D01*
X142224536Y-113702841D01*
X142285044Y-113556762D01*
X142305682Y-113400000D01*
X142285044Y-113243238D01*
X142224536Y-113097159D01*
X142150399Y-113000541D01*
X142128280Y-112971715D01*
X142126835Y-112970606D01*
X142123927Y-112966042D01*
X142121149Y-112962421D01*
X142121465Y-112962177D01*
X142094125Y-112919260D01*
X142102073Y-112858902D01*
X142126840Y-112829388D01*
X142128282Y-112828282D01*
X142224536Y-112702841D01*
X142285044Y-112556762D01*
X142305682Y-112400000D01*
X142285044Y-112243238D01*
X142224536Y-112097159D01*
X142148391Y-111997924D01*
X142128282Y-111971717D01*
X142002840Y-111875463D01*
X141856764Y-111814956D01*
X141700000Y-111794318D01*
X141543235Y-111814956D01*
X141397161Y-111875463D01*
X141397159Y-111875464D01*
X141286108Y-111960675D01*
X141271714Y-111971721D01*
X141270605Y-111973167D01*
X141266045Y-111976071D01*
X141262423Y-111978851D01*
X141262179Y-111978533D01*
X141219257Y-112005875D01*
X141158899Y-111997924D01*
X141129392Y-111973163D01*
X141128283Y-111971718D01*
X141002840Y-111875463D01*
X140856764Y-111814956D01*
X140743159Y-111800000D01*
X140700000Y-111794318D01*
X140699999Y-111794318D01*
X140543235Y-111814956D01*
X140397159Y-111875463D01*
X140271717Y-111971717D01*
X140175463Y-112097159D01*
X140114956Y-112243235D01*
X140094318Y-112399999D01*
X140114956Y-112556764D01*
X140161755Y-112669746D01*
X140175464Y-112702841D01*
X140271715Y-112828278D01*
X140271720Y-112828284D01*
X140273165Y-112829393D01*
X140276068Y-112833950D01*
X140278851Y-112837577D01*
X140278533Y-112837820D01*
X140305875Y-112880739D01*
X140297927Y-112941097D01*
X140273165Y-112970607D01*
X140271720Y-112971715D01*
X140249601Y-113000541D01*
X140175464Y-113097159D01*
X140175463Y-113097160D01*
X140175463Y-113097161D01*
X140114956Y-113243235D01*
X140094318Y-113400000D01*
X120599999Y-113400000D01*
X120973432Y-113026567D01*
X121028608Y-113000839D01*
X121036365Y-113000500D01*
X126982200Y-113000500D01*
X126982345Y-113000529D01*
X126999999Y-113000541D01*
X126999999Y-113000540D01*
X127000000Y-113000541D01*
X127000383Y-113000383D01*
X127000431Y-113000264D01*
X127005287Y-112988814D01*
X127000499Y-112973056D01*
X127000499Y-105400000D01*
X176794318Y-105400000D01*
X176814956Y-105556764D01*
X176875463Y-105702840D01*
X176971717Y-105828282D01*
X177097159Y-105924536D01*
X177243235Y-105985043D01*
X177243238Y-105985044D01*
X177400000Y-106005682D01*
X177556762Y-105985044D01*
X177702841Y-105924536D01*
X177828282Y-105828282D01*
X177924536Y-105702841D01*
X177985044Y-105556762D01*
X178005682Y-105400000D01*
X177985044Y-105243238D01*
X177924536Y-105097159D01*
X177924536Y-105097158D01*
X177828282Y-104971717D01*
X177702840Y-104875463D01*
X177556764Y-104814956D01*
X177400000Y-104794318D01*
X177243235Y-104814956D01*
X177097159Y-104875463D01*
X176971717Y-104971717D01*
X176875463Y-105097159D01*
X176814956Y-105243235D01*
X176794318Y-105400000D01*
X127000499Y-105400000D01*
X127000499Y-103800000D01*
X177794318Y-103800000D01*
X177814956Y-103956764D01*
X177875463Y-104102840D01*
X177971717Y-104228282D01*
X178097159Y-104324536D01*
X178243235Y-104385043D01*
X178243238Y-104385044D01*
X178400000Y-104405682D01*
X178556762Y-104385044D01*
X178702841Y-104324536D01*
X178828282Y-104228282D01*
X178924536Y-104102841D01*
X178985044Y-103956762D01*
X179005682Y-103800000D01*
X178985044Y-103643238D01*
X178924536Y-103497159D01*
X178924535Y-103497158D01*
X178828282Y-103371717D01*
X178702840Y-103275463D01*
X178556764Y-103214956D01*
X178400000Y-103194318D01*
X178243235Y-103214956D01*
X178097159Y-103275463D01*
X177971717Y-103371717D01*
X177875463Y-103497159D01*
X177814956Y-103643235D01*
X177794318Y-103800000D01*
X127000499Y-103800000D01*
X127000499Y-100358674D01*
X127000541Y-100350002D01*
X127000540Y-100350000D01*
X127000541Y-100350000D01*
X127000383Y-100349617D01*
X127000099Y-100349500D01*
X127000000Y-100349459D01*
X126999999Y-100349459D01*
X126982407Y-100349459D01*
X126982201Y-100349500D01*
X121036366Y-100349500D01*
X120979158Y-100328678D01*
X120973433Y-100323433D01*
X120026567Y-99376567D01*
X120000839Y-99321391D01*
X120000500Y-99313634D01*
X120000500Y-96400000D01*
X186194318Y-96400000D01*
X186214956Y-96556764D01*
X186275463Y-96702840D01*
X186371717Y-96828282D01*
X186497159Y-96924536D01*
X186643235Y-96985043D01*
X186643238Y-96985044D01*
X186800000Y-97005682D01*
X186956762Y-96985044D01*
X187102841Y-96924536D01*
X187228282Y-96828282D01*
X187324536Y-96702841D01*
X187385044Y-96556762D01*
X187405682Y-96400000D01*
X187385044Y-96243238D01*
X187324536Y-96097159D01*
X187324535Y-96097159D01*
X187228282Y-95971717D01*
X187102840Y-95875463D01*
X186956764Y-95814956D01*
X186800000Y-95794318D01*
X186643235Y-95814956D01*
X186497159Y-95875463D01*
X186371717Y-95971717D01*
X186275463Y-96097159D01*
X186214956Y-96243235D01*
X186194318Y-96400000D01*
X120000500Y-96400000D01*
X120000500Y-95399999D01*
X187994318Y-95399999D01*
X188014956Y-95556764D01*
X188075463Y-95702840D01*
X188171717Y-95828282D01*
X188297159Y-95924536D01*
X188443235Y-95985043D01*
X188443238Y-95985044D01*
X188600000Y-96005682D01*
X188756762Y-95985044D01*
X188902841Y-95924536D01*
X189028282Y-95828282D01*
X189124536Y-95702841D01*
X189185044Y-95556762D01*
X189205682Y-95400000D01*
X189185044Y-95243238D01*
X189124536Y-95097159D01*
X189124536Y-95097158D01*
X189028282Y-94971717D01*
X188902840Y-94875463D01*
X188756764Y-94814956D01*
X188652253Y-94801197D01*
X188600000Y-94794318D01*
X188599999Y-94794318D01*
X188443235Y-94814956D01*
X188297159Y-94875463D01*
X188171717Y-94971717D01*
X188075463Y-95097159D01*
X188014956Y-95243235D01*
X187994318Y-95399999D01*
X120000500Y-95399999D01*
X120000500Y-90875380D01*
X121564500Y-90875380D01*
X121564714Y-90877555D01*
X121564715Y-90877570D01*
X121579337Y-91026029D01*
X121637977Y-91219343D01*
X121731504Y-91394318D01*
X121733202Y-91397494D01*
X121861353Y-91553647D01*
X122017505Y-91681798D01*
X122017506Y-91681798D01*
X122195656Y-91777022D01*
X122195658Y-91777022D01*
X122195659Y-91777023D01*
X122388967Y-91835662D01*
X122539620Y-91850500D01*
X122541815Y-91850500D01*
X125228185Y-91850500D01*
X125230380Y-91850500D01*
X125381033Y-91835662D01*
X125574341Y-91777023D01*
X125752494Y-91681798D01*
X125846395Y-91604736D01*
X137564500Y-91604736D01*
X137564636Y-91606471D01*
X137564637Y-91606482D01*
X137574987Y-91737987D01*
X137630424Y-91957995D01*
X137630425Y-91957998D01*
X137630426Y-91958000D01*
X137724260Y-92164582D01*
X137724261Y-92164584D01*
X137724262Y-92164585D01*
X137820046Y-92302841D01*
X137853473Y-92351089D01*
X138013911Y-92511527D01*
X138200418Y-92640740D01*
X138407000Y-92734574D01*
X138407004Y-92734575D01*
X138627012Y-92790012D01*
X138627013Y-92790012D01*
X138627017Y-92790013D01*
X138760264Y-92800500D01*
X138762021Y-92800500D01*
X141007979Y-92800500D01*
X141009736Y-92800500D01*
X141142983Y-92790013D01*
X141363000Y-92734574D01*
X141569582Y-92640740D01*
X141756089Y-92511527D01*
X141916527Y-92351089D01*
X142045740Y-92164582D01*
X142139574Y-91958000D01*
X142195013Y-91737983D01*
X142205500Y-91604736D01*
X177794500Y-91604736D01*
X177794636Y-91606471D01*
X177794637Y-91606482D01*
X177804987Y-91737987D01*
X177860424Y-91957995D01*
X177860425Y-91957998D01*
X177860426Y-91958000D01*
X177954260Y-92164582D01*
X177954261Y-92164584D01*
X177954262Y-92164585D01*
X178050046Y-92302841D01*
X178083473Y-92351089D01*
X178243911Y-92511527D01*
X178430418Y-92640740D01*
X178637000Y-92734574D01*
X178637004Y-92734575D01*
X178857012Y-92790012D01*
X178857013Y-92790012D01*
X178857017Y-92790013D01*
X178990264Y-92800500D01*
X178992021Y-92800500D01*
X181237979Y-92800500D01*
X181239736Y-92800500D01*
X181372983Y-92790013D01*
X181593000Y-92734574D01*
X181799582Y-92640740D01*
X181986089Y-92511527D01*
X182146527Y-92351089D01*
X182275740Y-92164582D01*
X182350497Y-92000000D01*
X184594318Y-92000000D01*
X184614956Y-92156764D01*
X184675463Y-92302840D01*
X184771717Y-92428282D01*
X184897159Y-92524536D01*
X185043235Y-92585043D01*
X185043238Y-92585044D01*
X185200000Y-92605682D01*
X185356762Y-92585044D01*
X185502841Y-92524536D01*
X185628282Y-92428282D01*
X185724536Y-92302841D01*
X185785044Y-92156762D01*
X185805682Y-92000000D01*
X185785044Y-91843238D01*
X185757616Y-91777022D01*
X185724536Y-91697159D01*
X185628282Y-91571717D01*
X185502840Y-91475463D01*
X185356764Y-91414956D01*
X185200000Y-91394318D01*
X185043235Y-91414956D01*
X184897159Y-91475463D01*
X184771717Y-91571717D01*
X184675463Y-91697159D01*
X184614956Y-91843235D01*
X184594318Y-92000000D01*
X182350497Y-92000000D01*
X182369574Y-91958000D01*
X182425013Y-91737983D01*
X182435500Y-91604736D01*
X182435500Y-90875380D01*
X193794500Y-90875380D01*
X193794714Y-90877555D01*
X193794715Y-90877570D01*
X193809337Y-91026029D01*
X193867977Y-91219343D01*
X193961504Y-91394318D01*
X193963202Y-91397494D01*
X194091353Y-91553647D01*
X194247506Y-91681798D01*
X194425656Y-91777022D01*
X194425658Y-91777022D01*
X194425659Y-91777023D01*
X194618967Y-91835662D01*
X194769620Y-91850500D01*
X194771815Y-91850500D01*
X197458185Y-91850500D01*
X197460380Y-91850500D01*
X197611033Y-91835662D01*
X197804341Y-91777023D01*
X197982494Y-91681798D01*
X198138647Y-91553647D01*
X198266798Y-91397494D01*
X198362023Y-91219341D01*
X198420662Y-91026033D01*
X198435500Y-90875380D01*
X198435500Y-89124620D01*
X198420662Y-88973967D01*
X198362023Y-88780659D01*
X198362022Y-88780658D01*
X198362022Y-88780656D01*
X198266798Y-88602506D01*
X198266797Y-88602506D01*
X198138647Y-88446353D01*
X197982494Y-88318202D01*
X197982493Y-88318201D01*
X197804343Y-88222977D01*
X197661328Y-88179594D01*
X197611033Y-88164338D01*
X197611031Y-88164337D01*
X197611029Y-88164337D01*
X197462570Y-88149715D01*
X197462555Y-88149714D01*
X197460380Y-88149500D01*
X194769620Y-88149500D01*
X194767445Y-88149714D01*
X194767429Y-88149715D01*
X194618970Y-88164337D01*
X194425656Y-88222977D01*
X194247506Y-88318201D01*
X194091353Y-88446353D01*
X193963201Y-88602506D01*
X193867977Y-88780656D01*
X193809337Y-88973970D01*
X193794715Y-89122429D01*
X193794714Y-89122445D01*
X193794500Y-89124620D01*
X193794500Y-90875380D01*
X182435500Y-90875380D01*
X182435500Y-88395264D01*
X182425013Y-88262017D01*
X182396661Y-88149500D01*
X182369575Y-88042004D01*
X182369574Y-88042000D01*
X182275740Y-87835418D01*
X182146527Y-87648911D01*
X181986089Y-87488473D01*
X181799582Y-87359260D01*
X181593000Y-87265426D01*
X181592998Y-87265425D01*
X181592995Y-87265424D01*
X181372987Y-87209987D01*
X181241482Y-87199637D01*
X181241471Y-87199636D01*
X181239736Y-87199500D01*
X178990264Y-87199500D01*
X178988529Y-87199636D01*
X178988517Y-87199637D01*
X178857012Y-87209987D01*
X178637004Y-87265424D01*
X178430414Y-87359262D01*
X178243914Y-87488470D01*
X178083470Y-87648914D01*
X177954262Y-87835414D01*
X177860424Y-88042004D01*
X177804987Y-88262012D01*
X177804987Y-88262017D01*
X177794500Y-88395264D01*
X177794500Y-91604736D01*
X142205500Y-91604736D01*
X142205500Y-88395264D01*
X142195013Y-88262017D01*
X142166661Y-88149500D01*
X142139575Y-88042004D01*
X142139574Y-88042000D01*
X142045740Y-87835418D01*
X141916527Y-87648911D01*
X141756089Y-87488473D01*
X141569582Y-87359260D01*
X141363000Y-87265426D01*
X141362998Y-87265425D01*
X141362995Y-87265424D01*
X141142987Y-87209987D01*
X141011482Y-87199637D01*
X141011471Y-87199636D01*
X141009736Y-87199500D01*
X138760264Y-87199500D01*
X138758529Y-87199636D01*
X138758517Y-87199637D01*
X138627012Y-87209987D01*
X138407004Y-87265424D01*
X138200414Y-87359262D01*
X138013914Y-87488470D01*
X137853470Y-87648914D01*
X137724262Y-87835414D01*
X137630424Y-88042004D01*
X137574987Y-88262012D01*
X137574987Y-88262017D01*
X137564500Y-88395264D01*
X137564500Y-91604736D01*
X125846395Y-91604736D01*
X125908647Y-91553647D01*
X126036798Y-91397494D01*
X126132023Y-91219341D01*
X126190662Y-91026033D01*
X126205500Y-90875380D01*
X126205500Y-89124620D01*
X126190662Y-88973967D01*
X126132023Y-88780659D01*
X126132022Y-88780658D01*
X126132022Y-88780656D01*
X126036798Y-88602506D01*
X125908647Y-88446353D01*
X125752494Y-88318202D01*
X125752493Y-88318201D01*
X125574343Y-88222977D01*
X125431328Y-88179594D01*
X125381033Y-88164338D01*
X125381031Y-88164337D01*
X125381029Y-88164337D01*
X125232570Y-88149715D01*
X125232555Y-88149714D01*
X125230380Y-88149500D01*
X122539620Y-88149500D01*
X122537445Y-88149714D01*
X122537429Y-88149715D01*
X122388970Y-88164337D01*
X122195656Y-88222977D01*
X122017506Y-88318201D01*
X121861353Y-88446353D01*
X121733201Y-88602506D01*
X121637977Y-88780656D01*
X121579337Y-88973970D01*
X121564715Y-89122429D01*
X121564714Y-89122445D01*
X121564500Y-89124620D01*
X121564500Y-90875380D01*
X120000500Y-90875380D01*
X120000500Y-86400000D01*
X188006818Y-86400000D01*
X188027456Y-86556764D01*
X188087963Y-86702840D01*
X188184217Y-86828282D01*
X188309659Y-86924536D01*
X188455735Y-86985043D01*
X188455738Y-86985044D01*
X188612500Y-87005682D01*
X188769262Y-86985044D01*
X188915341Y-86924536D01*
X189040782Y-86828282D01*
X189137036Y-86702841D01*
X189197544Y-86556762D01*
X189218182Y-86400000D01*
X189197544Y-86243238D01*
X189137036Y-86097159D01*
X189040782Y-85971717D01*
X188960032Y-85909756D01*
X188915341Y-85875464D01*
X188915339Y-85875463D01*
X188909013Y-85870609D01*
X188876302Y-85819264D01*
X188884248Y-85758905D01*
X188909013Y-85729391D01*
X188915339Y-85724536D01*
X188915341Y-85724536D01*
X189040782Y-85628282D01*
X189137036Y-85502841D01*
X189197544Y-85356762D01*
X189218182Y-85200000D01*
X189197544Y-85043238D01*
X189137036Y-84897159D01*
X189040782Y-84771717D01*
X188915340Y-84675463D01*
X188769264Y-84614956D01*
X188612500Y-84594318D01*
X188455735Y-84614956D01*
X188309659Y-84675463D01*
X188184217Y-84771717D01*
X188087963Y-84897159D01*
X188027456Y-85043235D01*
X188006818Y-85200000D01*
X188027456Y-85356764D01*
X188087963Y-85502840D01*
X188184217Y-85628282D01*
X188315986Y-85729391D01*
X188348697Y-85780736D01*
X188340751Y-85841095D01*
X188315986Y-85870609D01*
X188184217Y-85971717D01*
X188087963Y-86097159D01*
X188027456Y-86243235D01*
X188006818Y-86400000D01*
X120000500Y-86400000D01*
X120000500Y-84176988D01*
X120000527Y-84174804D01*
X120003402Y-84057696D01*
X120006235Y-83942303D01*
X122641828Y-83942303D01*
X122651614Y-84172671D01*
X122700188Y-84398060D01*
X122786157Y-84612003D01*
X122786159Y-84612006D01*
X122907049Y-84808343D01*
X123059380Y-84981425D01*
X123238772Y-85126274D01*
X123440063Y-85238721D01*
X123657462Y-85315533D01*
X123884715Y-85354500D01*
X123884716Y-85354500D01*
X124055634Y-85354500D01*
X124057535Y-85354500D01*
X124229739Y-85339843D01*
X124341304Y-85310794D01*
X124452870Y-85281745D01*
X124557919Y-85234259D01*
X124662971Y-85186773D01*
X124854000Y-85057659D01*
X125020462Y-84898119D01*
X125157566Y-84712742D01*
X125261370Y-84506860D01*
X125328886Y-84286397D01*
X125358172Y-84057694D01*
X125353270Y-83942303D01*
X194641828Y-83942303D01*
X194651614Y-84172671D01*
X194700188Y-84398060D01*
X194786157Y-84612003D01*
X194786159Y-84612006D01*
X194907049Y-84808343D01*
X195059380Y-84981425D01*
X195238772Y-85126274D01*
X195440063Y-85238721D01*
X195657462Y-85315533D01*
X195884715Y-85354500D01*
X195884716Y-85354500D01*
X196055634Y-85354500D01*
X196057535Y-85354500D01*
X196229739Y-85339843D01*
X196341304Y-85310794D01*
X196452870Y-85281745D01*
X196557919Y-85234259D01*
X196662971Y-85186773D01*
X196854000Y-85057659D01*
X197020462Y-84898119D01*
X197157566Y-84712742D01*
X197261370Y-84506860D01*
X197328886Y-84286397D01*
X197358172Y-84057694D01*
X197348386Y-83827332D01*
X197306068Y-83630973D01*
X197299811Y-83601939D01*
X197213842Y-83387996D01*
X197151816Y-83287260D01*
X197092951Y-83191657D01*
X196940620Y-83018575D01*
X196761228Y-82873726D01*
X196652927Y-82813226D01*
X196559936Y-82761278D01*
X196342540Y-82684467D01*
X196141750Y-82650038D01*
X196115285Y-82645500D01*
X195942465Y-82645500D01*
X195940580Y-82645660D01*
X195940566Y-82645661D01*
X195770261Y-82660156D01*
X195547129Y-82718254D01*
X195337029Y-82813226D01*
X195146001Y-82942339D01*
X194979537Y-83101881D01*
X194842432Y-83287260D01*
X194738630Y-83493137D01*
X194671113Y-83713604D01*
X194641828Y-83942303D01*
X125353270Y-83942303D01*
X125348386Y-83827332D01*
X125306068Y-83630973D01*
X125299811Y-83601939D01*
X125213842Y-83387996D01*
X125151816Y-83287260D01*
X125092951Y-83191657D01*
X124940620Y-83018575D01*
X124761228Y-82873726D01*
X124652927Y-82813226D01*
X124559936Y-82761278D01*
X124342540Y-82684467D01*
X124141750Y-82650038D01*
X124115285Y-82645500D01*
X123942465Y-82645500D01*
X123940580Y-82645660D01*
X123940566Y-82645661D01*
X123770261Y-82660156D01*
X123547129Y-82718254D01*
X123337029Y-82813226D01*
X123146001Y-82942339D01*
X122979537Y-83101881D01*
X122842432Y-83287260D01*
X122738630Y-83493137D01*
X122671113Y-83713604D01*
X122641828Y-83942303D01*
X120006235Y-83942303D01*
X120009551Y-83807220D01*
X120009950Y-83800717D01*
X120047632Y-83418124D01*
X120048908Y-83409520D01*
X120123697Y-83033532D01*
X120125818Y-83025066D01*
X120190079Y-82813226D01*
X120237098Y-82658224D01*
X120240028Y-82650038D01*
X120386729Y-82295871D01*
X120390463Y-82287976D01*
X120571153Y-81949929D01*
X120575635Y-81942448D01*
X120788617Y-81623699D01*
X120793810Y-81616697D01*
X121036995Y-81320374D01*
X121042842Y-81313922D01*
X121313922Y-81042842D01*
X121320374Y-81036995D01*
X121616697Y-80793810D01*
X121623699Y-80788617D01*
X121942448Y-80575635D01*
X121949929Y-80571153D01*
X122287981Y-80390460D01*
X122295871Y-80386729D01*
X122328116Y-80373372D01*
X122650038Y-80240028D01*
X122658224Y-80237098D01*
X123025069Y-80125817D01*
X123033532Y-80123697D01*
X123409520Y-80048908D01*
X123418124Y-80047632D01*
X123800717Y-80009950D01*
X123807220Y-80009551D01*
X124174804Y-80000526D01*
X124176988Y-80000500D01*
X195823012Y-80000500D01*
X195825195Y-80000526D01*
G37*
%TD.AperFunction*%
%TD*%
M02*
