%TF.GenerationSoftware,KiCad,Pcbnew,(7.0.0)*%
%TF.CreationDate,2023-05-08T11:18:25-04:00*%
%TF.ProjectId,AutoTiller,4175746f-5469-46c6-9c65-722e6b696361,rev?*%
%TF.SameCoordinates,Original*%
%TF.FileFunction,Copper,L3,Inr*%
%TF.FilePolarity,Positive*%
%FSLAX46Y46*%
G04 Gerber Fmt 4.6, Leading zero omitted, Abs format (unit mm)*
G04 Created by KiCad (PCBNEW (7.0.0)) date 2023-05-08 11:18:25*
%MOMM*%
%LPD*%
G01*
G04 APERTURE LIST*
%TA.AperFunction,ComponentPad*%
%ADD10R,1.700000X1.700000*%
%TD*%
%TA.AperFunction,ComponentPad*%
%ADD11O,1.700000X1.700000*%
%TD*%
%TA.AperFunction,ComponentPad*%
%ADD12C,0.500000*%
%TD*%
%TA.AperFunction,ComponentPad*%
%ADD13O,2.300000X1.300000*%
%TD*%
%TA.AperFunction,ComponentPad*%
%ADD14O,2.600000X1.300000*%
%TD*%
%TA.AperFunction,ViaPad*%
%ADD15C,0.450000*%
%TD*%
%TA.AperFunction,ViaPad*%
%ADD16C,0.800000*%
%TD*%
G04 APERTURE END LIST*
D10*
%TO.N,/OUT1*%
%TO.C,U2*%
X168319999Y-115999999D03*
D11*
%TO.N,/OUT2*%
X170859999Y-115999999D03*
%TO.N,GND*%
X173399999Y-115999999D03*
%TO.N,+3.3V*%
X175939999Y-115999999D03*
%TO.N,ENC_A*%
X178479999Y-115999999D03*
%TO.N,ENC_B*%
X181019999Y-115999999D03*
%TD*%
D12*
%TO.N,GND*%
%TO.C,DRV8251ADDAR1*%
X168700000Y-126010000D03*
X170000000Y-126010000D03*
X171300000Y-126010000D03*
X168700000Y-124100000D03*
X170000000Y-124100000D03*
X171300000Y-124100000D03*
%TD*%
D13*
%TO.N,unconnected-(J1-SHIELD-PadS1)*%
%TO.C,J1*%
X95674999Y-111679999D03*
D14*
X91849999Y-111679999D03*
D13*
X95674999Y-120319999D03*
D14*
X91849999Y-120319999D03*
%TD*%
D15*
%TO.N,/SDRV*%
X117200000Y-127500000D03*
%TO.N,SDA*%
X111443850Y-127385500D03*
%TO.N,SCL*%
X110800000Y-127300000D03*
%TO.N,D+*%
X106600000Y-125800000D03*
%TO.N,D-*%
X107400000Y-125800000D03*
%TO.N,/BTST1*%
X107500000Y-123775500D03*
%TO.N,/SW1*%
X109087500Y-123887500D03*
X109500000Y-123700000D03*
%TO.N,/SW2*%
X110875000Y-123700000D03*
X111300000Y-123900000D03*
%TO.N,/BTST2*%
X113200000Y-124500000D03*
%TO.N,/PROG*%
X111200000Y-125400000D03*
%TO.N,GND*%
X119300000Y-129900000D03*
D16*
%TO.N,STAT*%
X98000000Y-105900000D03*
X107396772Y-122298053D03*
%TO.N,D+*%
X95000000Y-116000000D03*
%TO.N,D-*%
X93900000Y-116000000D03*
%TO.N,GND*%
X117000000Y-118000000D03*
X150500000Y-122000000D03*
X97200000Y-119200000D03*
X97200000Y-112800000D03*
X145500000Y-120000000D03*
X119000000Y-118000000D03*
X98100000Y-112800000D03*
X118000000Y-117000000D03*
X190000000Y-108200000D03*
X169800000Y-119900000D03*
X98100000Y-119200000D03*
X109180083Y-124723713D03*
X119000000Y-125500000D03*
X161200000Y-128300000D03*
X211200000Y-116600000D03*
X169800000Y-118900000D03*
X212075000Y-129075000D03*
X98100000Y-121000000D03*
X217300000Y-106600000D03*
X218100000Y-107100000D03*
X211900000Y-103500000D03*
X146500000Y-120000000D03*
X133400000Y-111300000D03*
X148500000Y-120000000D03*
X149000000Y-119000000D03*
X215800000Y-112200000D03*
X150500000Y-120000000D03*
X98100000Y-120100000D03*
X115000000Y-118000000D03*
X121000000Y-125500000D03*
X218100000Y-106200000D03*
X98100000Y-111000000D03*
X211200000Y-115200000D03*
X150000000Y-119000000D03*
X161000000Y-108300000D03*
X190700000Y-119100000D03*
X122000000Y-125500000D03*
X120000000Y-117000000D03*
X161250000Y-116500000D03*
X109975000Y-125200000D03*
X150000000Y-121000000D03*
X120000000Y-125500000D03*
X169100000Y-120400000D03*
X217300000Y-105700000D03*
X146000000Y-119000000D03*
X149500000Y-122000000D03*
X149500000Y-120000000D03*
X121000000Y-118000000D03*
X149000000Y-121000000D03*
X217300000Y-107500000D03*
X147500000Y-120000000D03*
X150000000Y-123000000D03*
X200700000Y-102900000D03*
X98100000Y-111900000D03*
X218100000Y-105300000D03*
X108500000Y-128041911D03*
X169800000Y-120900000D03*
X199100000Y-120300000D03*
X212600000Y-116600000D03*
X110662717Y-124681346D03*
X156370000Y-117190000D03*
X169100000Y-118400000D03*
X147000000Y-119000000D03*
X131100000Y-128300000D03*
X131000000Y-108000000D03*
X190000000Y-128000000D03*
X212600000Y-115200000D03*
X109200000Y-128600000D03*
X169100000Y-119400000D03*
X148000000Y-119000000D03*
X217300000Y-108400000D03*
X218100000Y-108000000D03*
%TO.N,QON*%
X113300000Y-130900000D03*
X109500000Y-127100000D03*
%TO.N,SCL*%
X192000000Y-114000000D03*
%TO.N,SDA*%
X183000000Y-118400000D03*
%TO.N,+12V*%
X179600000Y-128000000D03*
X122800000Y-114100000D03*
X178000000Y-128800000D03*
X176300000Y-127900000D03*
X123600000Y-115400000D03*
X178500000Y-128000000D03*
X179100000Y-128800000D03*
X122800000Y-115000000D03*
X123600000Y-113600000D03*
X122800000Y-115900000D03*
X176900000Y-128800000D03*
X123600000Y-114500000D03*
X122800000Y-113200000D03*
X177400000Y-127900000D03*
X123600000Y-116300000D03*
%TO.N,ESP_EN*%
X215300000Y-127000000D03*
X214600000Y-112700000D03*
%TO.N,+3.3V*%
X192080000Y-119180000D03*
X214000000Y-105200000D03*
X119500000Y-103500000D03*
X214500000Y-108600000D03*
X118500000Y-106500000D03*
X118500000Y-105000000D03*
X208400000Y-105200000D03*
X132200000Y-111200000D03*
X119000000Y-104250000D03*
X120000000Y-105750000D03*
X215000000Y-107900000D03*
X119000000Y-105750000D03*
X118500000Y-103500000D03*
X119500000Y-105000000D03*
X214000000Y-106100000D03*
X202900000Y-120300000D03*
X161250000Y-117750000D03*
X119500000Y-106500000D03*
X216900000Y-111800000D03*
X214000000Y-107900000D03*
X120000000Y-104250000D03*
X214000000Y-107000000D03*
%TO.N,+1*%
X201000000Y-113000000D03*
X209383089Y-111213494D03*
%TO.N,-1*%
X201000000Y-119000000D03*
X215047595Y-111196907D03*
%TO.N,+15*%
X210399500Y-111199570D03*
X201000000Y-114200000D03*
%TO.N,-15*%
X201000000Y-117800000D03*
X214049503Y-111250000D03*
%TO.N,TackL*%
X201000000Y-116600000D03*
X213050000Y-111250000D03*
%TO.N,TackR*%
X212050000Y-111250000D03*
X201000000Y-115400000D03*
%TO.N,Net-(D1-A)*%
X202000000Y-107000000D03*
X201000000Y-111600000D03*
%TO.N,Net-(D2-A)*%
X199200000Y-107000000D03*
X198300000Y-111400000D03*
%TO.N,IMU_INT1*%
X188599500Y-117500000D03*
X193600000Y-115400000D03*
%TO.N,ESP_IO0*%
X214900000Y-115100000D03*
%TO.N,SAO*%
X188000000Y-114800000D03*
X193600000Y-114200000D03*
%TO.N,ESP_RXD*%
X215700000Y-120000000D03*
%TO.N,ESP_TXD*%
X216900000Y-120300000D03*
D15*
%TO.N,/INT*%
X114462000Y-125438000D03*
D16*
X120800000Y-127000000D03*
%TO.N,/SW2*%
X111175000Y-119300000D03*
X111175000Y-117500000D03*
X111175000Y-118400000D03*
%TO.N,REGN*%
X105900000Y-126900000D03*
X96800000Y-106800000D03*
%TO.N,/PROG*%
X119000000Y-127100000D03*
%TO.N,/SW1*%
X109175000Y-119300000D03*
X109175000Y-117500000D03*
X109175000Y-118400000D03*
%TO.N,/SDRV*%
X113200000Y-122500000D03*
%TD*%
%TA.AperFunction,Conductor*%
%TO.N,GND*%
G36*
X135497693Y-100007275D02*
G01*
X135526567Y-100026567D01*
X136473433Y-100973433D01*
X136492725Y-101002307D01*
X136499500Y-101036366D01*
X136499500Y-106999901D01*
X136499459Y-107000000D01*
X136499500Y-107000099D01*
X136499617Y-107000383D01*
X136500000Y-107000541D01*
X136500099Y-107000500D01*
X150499901Y-107000500D01*
X150500000Y-107000541D01*
X150500383Y-107000383D01*
X150500500Y-107000099D01*
X150500541Y-107000000D01*
X198594318Y-107000000D01*
X198595079Y-107005780D01*
X198614194Y-107150979D01*
X198614195Y-107150983D01*
X198614956Y-107156762D01*
X198617186Y-107162147D01*
X198617188Y-107162152D01*
X198673230Y-107297448D01*
X198675464Y-107302841D01*
X198679014Y-107307468D01*
X198679015Y-107307469D01*
X198754376Y-107405682D01*
X198771718Y-107428282D01*
X198897159Y-107524536D01*
X199043238Y-107585044D01*
X199200000Y-107605682D01*
X199356762Y-107585044D01*
X199502841Y-107524536D01*
X199628282Y-107428282D01*
X199724536Y-107302841D01*
X199785044Y-107156762D01*
X199805682Y-107000000D01*
X201394318Y-107000000D01*
X201395079Y-107005780D01*
X201414194Y-107150979D01*
X201414195Y-107150983D01*
X201414956Y-107156762D01*
X201417186Y-107162147D01*
X201417188Y-107162152D01*
X201473230Y-107297448D01*
X201475464Y-107302841D01*
X201479014Y-107307468D01*
X201479015Y-107307469D01*
X201554376Y-107405682D01*
X201571718Y-107428282D01*
X201697159Y-107524536D01*
X201843238Y-107585044D01*
X202000000Y-107605682D01*
X202156762Y-107585044D01*
X202302841Y-107524536D01*
X202428282Y-107428282D01*
X202524536Y-107302841D01*
X202585044Y-107156762D01*
X202605682Y-107000000D01*
X202585044Y-106843238D01*
X202524536Y-106697159D01*
X202428282Y-106571718D01*
X202423653Y-106568166D01*
X202307469Y-106479015D01*
X202307468Y-106479014D01*
X202302841Y-106475464D01*
X202297448Y-106473230D01*
X202162152Y-106417188D01*
X202162147Y-106417186D01*
X202156762Y-106414956D01*
X202150983Y-106414195D01*
X202150979Y-106414194D01*
X202005780Y-106395079D01*
X202000000Y-106394318D01*
X201994220Y-106395079D01*
X201849020Y-106414194D01*
X201849014Y-106414195D01*
X201843238Y-106414956D01*
X201837854Y-106417186D01*
X201837847Y-106417188D01*
X201702551Y-106473230D01*
X201702547Y-106473231D01*
X201697159Y-106475464D01*
X201692534Y-106479012D01*
X201692530Y-106479015D01*
X201576346Y-106568166D01*
X201576342Y-106568169D01*
X201571718Y-106571718D01*
X201568169Y-106576342D01*
X201568166Y-106576346D01*
X201479015Y-106692530D01*
X201479012Y-106692534D01*
X201475464Y-106697159D01*
X201473231Y-106702547D01*
X201473230Y-106702551D01*
X201417188Y-106837847D01*
X201417186Y-106837854D01*
X201414956Y-106843238D01*
X201414195Y-106849014D01*
X201414194Y-106849020D01*
X201403292Y-106931833D01*
X201394318Y-107000000D01*
X199805682Y-107000000D01*
X199785044Y-106843238D01*
X199724536Y-106697159D01*
X199628282Y-106571718D01*
X199623653Y-106568166D01*
X199507469Y-106479015D01*
X199507468Y-106479014D01*
X199502841Y-106475464D01*
X199497448Y-106473230D01*
X199362152Y-106417188D01*
X199362147Y-106417186D01*
X199356762Y-106414956D01*
X199350983Y-106414195D01*
X199350979Y-106414194D01*
X199205780Y-106395079D01*
X199200000Y-106394318D01*
X199194220Y-106395079D01*
X199049020Y-106414194D01*
X199049014Y-106414195D01*
X199043238Y-106414956D01*
X199037854Y-106417186D01*
X199037847Y-106417188D01*
X198902551Y-106473230D01*
X198902547Y-106473231D01*
X198897159Y-106475464D01*
X198892534Y-106479012D01*
X198892530Y-106479015D01*
X198776346Y-106568166D01*
X198776342Y-106568169D01*
X198771718Y-106571718D01*
X198768169Y-106576342D01*
X198768166Y-106576346D01*
X198679015Y-106692530D01*
X198679012Y-106692534D01*
X198675464Y-106697159D01*
X198673231Y-106702547D01*
X198673230Y-106702551D01*
X198617188Y-106837847D01*
X198617186Y-106837854D01*
X198614956Y-106843238D01*
X198614195Y-106849014D01*
X198614194Y-106849020D01*
X198603292Y-106931833D01*
X198594318Y-107000000D01*
X150500541Y-107000000D01*
X150500500Y-106999901D01*
X150500500Y-105200000D01*
X207794318Y-105200000D01*
X207795079Y-105205780D01*
X207814194Y-105350979D01*
X207814195Y-105350983D01*
X207814956Y-105356762D01*
X207817186Y-105362147D01*
X207817188Y-105362152D01*
X207854633Y-105452551D01*
X207875464Y-105502841D01*
X207879014Y-105507468D01*
X207879015Y-105507469D01*
X207951974Y-105602551D01*
X207971718Y-105628282D01*
X208097159Y-105724536D01*
X208243238Y-105785044D01*
X208400000Y-105805682D01*
X208556762Y-105785044D01*
X208702841Y-105724536D01*
X208828282Y-105628282D01*
X208924536Y-105502841D01*
X208985044Y-105356762D01*
X209005682Y-105200000D01*
X208985044Y-105043238D01*
X208924536Y-104897159D01*
X208828282Y-104771718D01*
X208823653Y-104768166D01*
X208707469Y-104679015D01*
X208707468Y-104679014D01*
X208702841Y-104675464D01*
X208697448Y-104673230D01*
X208562152Y-104617188D01*
X208562147Y-104617186D01*
X208556762Y-104614956D01*
X208550983Y-104614195D01*
X208550979Y-104614194D01*
X208405780Y-104595079D01*
X208400000Y-104594318D01*
X208394220Y-104595079D01*
X208249020Y-104614194D01*
X208249014Y-104614195D01*
X208243238Y-104614956D01*
X208237854Y-104617186D01*
X208237847Y-104617188D01*
X208102551Y-104673230D01*
X208102547Y-104673231D01*
X208097159Y-104675464D01*
X208092534Y-104679012D01*
X208092530Y-104679015D01*
X207976346Y-104768166D01*
X207976342Y-104768169D01*
X207971718Y-104771718D01*
X207968169Y-104776342D01*
X207968166Y-104776346D01*
X207879015Y-104892530D01*
X207879012Y-104892534D01*
X207875464Y-104897159D01*
X207873231Y-104902547D01*
X207873230Y-104902551D01*
X207817188Y-105037847D01*
X207817186Y-105037854D01*
X207814956Y-105043238D01*
X207814195Y-105049014D01*
X207814194Y-105049020D01*
X207798686Y-105166821D01*
X207794318Y-105200000D01*
X150500500Y-105200000D01*
X150500500Y-103942306D01*
X219841828Y-103942306D01*
X219841988Y-103946078D01*
X219841988Y-103946085D01*
X219850160Y-104138446D01*
X219851614Y-104172668D01*
X219852412Y-104176370D01*
X219876903Y-104290012D01*
X219900190Y-104398062D01*
X219901596Y-104401562D01*
X219901598Y-104401567D01*
X219968543Y-104568166D01*
X219986159Y-104612006D01*
X220107049Y-104808343D01*
X220259380Y-104981425D01*
X220438772Y-105126274D01*
X220543274Y-105184652D01*
X220636754Y-105236873D01*
X220636758Y-105236875D01*
X220640063Y-105238721D01*
X220857462Y-105315533D01*
X221084715Y-105354500D01*
X221255634Y-105354500D01*
X221257535Y-105354500D01*
X221429739Y-105339843D01*
X221652869Y-105281745D01*
X221862971Y-105186773D01*
X222054000Y-105057659D01*
X222220462Y-104898119D01*
X222357566Y-104712742D01*
X222461370Y-104506860D01*
X222528886Y-104286397D01*
X222558172Y-104057694D01*
X222548386Y-103827332D01*
X222499810Y-103601938D01*
X222413841Y-103387994D01*
X222292951Y-103191657D01*
X222140620Y-103018575D01*
X222015055Y-102917188D01*
X221964170Y-102876101D01*
X221964166Y-102876098D01*
X221961228Y-102873726D01*
X221930985Y-102856831D01*
X221763245Y-102763126D01*
X221763236Y-102763121D01*
X221759937Y-102761279D01*
X221756365Y-102760017D01*
X221756363Y-102760016D01*
X221546106Y-102685727D01*
X221546098Y-102685725D01*
X221542538Y-102684467D01*
X221538815Y-102683828D01*
X221538809Y-102683827D01*
X221319004Y-102646137D01*
X221318995Y-102646136D01*
X221315285Y-102645500D01*
X221142465Y-102645500D01*
X221140580Y-102645660D01*
X221140566Y-102645661D01*
X220974033Y-102659835D01*
X220974022Y-102659836D01*
X220970261Y-102660157D01*
X220966608Y-102661108D01*
X220966597Y-102661110D01*
X220750793Y-102717301D01*
X220750787Y-102717302D01*
X220747131Y-102718255D01*
X220743686Y-102719812D01*
X220743681Y-102719814D01*
X220540480Y-102811666D01*
X220540470Y-102811671D01*
X220537029Y-102813227D01*
X220533894Y-102815345D01*
X220533892Y-102815347D01*
X220349134Y-102940222D01*
X220349128Y-102940226D01*
X220346000Y-102942341D01*
X220343275Y-102944951D01*
X220343267Y-102944959D01*
X220182269Y-103099262D01*
X220182260Y-103099271D01*
X220179538Y-103101881D01*
X220177292Y-103104916D01*
X220177289Y-103104921D01*
X220044679Y-103284221D01*
X220044673Y-103284230D01*
X220042434Y-103287258D01*
X220040736Y-103290624D01*
X220040732Y-103290632D01*
X219940333Y-103489761D01*
X219940330Y-103489767D01*
X219938630Y-103493140D01*
X219937525Y-103496745D01*
X219937522Y-103496755D01*
X219885329Y-103667186D01*
X219871114Y-103713603D01*
X219870634Y-103717348D01*
X219870633Y-103717355D01*
X219842308Y-103938551D01*
X219842307Y-103938560D01*
X219841828Y-103942306D01*
X150500500Y-103942306D01*
X150500500Y-101036366D01*
X150507275Y-101002307D01*
X150526567Y-100973433D01*
X151473433Y-100026567D01*
X151502307Y-100007275D01*
X151536366Y-100000500D01*
X220823012Y-100000500D01*
X220825195Y-100000526D01*
X221192777Y-100009551D01*
X221199284Y-100009951D01*
X221581872Y-100047632D01*
X221590482Y-100048908D01*
X221966467Y-100123697D01*
X221974930Y-100125817D01*
X222341768Y-100237096D01*
X222349968Y-100240030D01*
X222704129Y-100386728D01*
X222712016Y-100390459D01*
X223050073Y-100571154D01*
X223057551Y-100575635D01*
X223297668Y-100736076D01*
X223376293Y-100788612D01*
X223383308Y-100793815D01*
X223679615Y-101036987D01*
X223686087Y-101042852D01*
X223957147Y-101313912D01*
X223963012Y-101320384D01*
X224206184Y-101616691D01*
X224211387Y-101623706D01*
X224424359Y-101942441D01*
X224428849Y-101949933D01*
X224609538Y-102287979D01*
X224613272Y-102295874D01*
X224759964Y-102650019D01*
X224762907Y-102658243D01*
X224874181Y-103025065D01*
X224876303Y-103033537D01*
X224951088Y-103409502D01*
X224952369Y-103418142D01*
X224990047Y-103800699D01*
X224990449Y-103807238D01*
X224999473Y-104174804D01*
X224999500Y-104176988D01*
X224999500Y-104514058D01*
X224988406Y-104557090D01*
X224957888Y-104589393D01*
X218909556Y-108393988D01*
X218909553Y-108393990D01*
X218900000Y-108400000D01*
X218900000Y-123600000D01*
X218909556Y-123606011D01*
X224957888Y-127410607D01*
X224988406Y-127442910D01*
X224999500Y-127485942D01*
X224999500Y-127823012D01*
X224999473Y-127825196D01*
X224990449Y-128192761D01*
X224990047Y-128199300D01*
X224952369Y-128581857D01*
X224951088Y-128590497D01*
X224876303Y-128966462D01*
X224874181Y-128974934D01*
X224762907Y-129341756D01*
X224759964Y-129349980D01*
X224613274Y-129704121D01*
X224609540Y-129712016D01*
X224428849Y-130050066D01*
X224424359Y-130057558D01*
X224211387Y-130376293D01*
X224206184Y-130383308D01*
X223963012Y-130679615D01*
X223957147Y-130686087D01*
X223686087Y-130957147D01*
X223679615Y-130963012D01*
X223383308Y-131206184D01*
X223376293Y-131211387D01*
X223057558Y-131424359D01*
X223050066Y-131428849D01*
X222712020Y-131609538D01*
X222704125Y-131613272D01*
X222349980Y-131759964D01*
X222341756Y-131762907D01*
X221974934Y-131874181D01*
X221966462Y-131876303D01*
X221590497Y-131951088D01*
X221581857Y-131952369D01*
X221199300Y-131990047D01*
X221192761Y-131990449D01*
X220825196Y-131999473D01*
X220823012Y-131999500D01*
X94176988Y-131999500D01*
X94174804Y-131999473D01*
X93807238Y-131990449D01*
X93800699Y-131990047D01*
X93418142Y-131952369D01*
X93409502Y-131951088D01*
X93033537Y-131876303D01*
X93025065Y-131874181D01*
X92658243Y-131762907D01*
X92650019Y-131759964D01*
X92295874Y-131613272D01*
X92287979Y-131609538D01*
X91949933Y-131428849D01*
X91942441Y-131424359D01*
X91623706Y-131211387D01*
X91616691Y-131206184D01*
X91320384Y-130963012D01*
X91313912Y-130957147D01*
X91256765Y-130900000D01*
X112694318Y-130900000D01*
X112695079Y-130905780D01*
X112714194Y-131050979D01*
X112714195Y-131050983D01*
X112714956Y-131056762D01*
X112717186Y-131062147D01*
X112717188Y-131062152D01*
X112770837Y-131191670D01*
X112775464Y-131202841D01*
X112779014Y-131207468D01*
X112779015Y-131207469D01*
X112868166Y-131323653D01*
X112871718Y-131328282D01*
X112997159Y-131424536D01*
X113143238Y-131485044D01*
X113300000Y-131505682D01*
X113456762Y-131485044D01*
X113602841Y-131424536D01*
X113728282Y-131328282D01*
X113824536Y-131202841D01*
X113885044Y-131056762D01*
X113905682Y-130900000D01*
X113885044Y-130743238D01*
X113824536Y-130597159D01*
X113728282Y-130471718D01*
X113602841Y-130375464D01*
X113597448Y-130373230D01*
X113462152Y-130317188D01*
X113462147Y-130317186D01*
X113456762Y-130314956D01*
X113450983Y-130314195D01*
X113450979Y-130314194D01*
X113305780Y-130295079D01*
X113300000Y-130294318D01*
X113294220Y-130295079D01*
X113149020Y-130314194D01*
X113149014Y-130314195D01*
X113143238Y-130314956D01*
X113137854Y-130317186D01*
X113137847Y-130317188D01*
X113002551Y-130373230D01*
X113002547Y-130373231D01*
X112997159Y-130375464D01*
X112992534Y-130379012D01*
X112992530Y-130379015D01*
X112876346Y-130468166D01*
X112876342Y-130468169D01*
X112871718Y-130471718D01*
X112868169Y-130476342D01*
X112868166Y-130476346D01*
X112779015Y-130592530D01*
X112779012Y-130592534D01*
X112775464Y-130597159D01*
X112773231Y-130602547D01*
X112773230Y-130602551D01*
X112717188Y-130737847D01*
X112717186Y-130737854D01*
X112714956Y-130743238D01*
X112714195Y-130749014D01*
X112714194Y-130749020D01*
X112703296Y-130831802D01*
X112694318Y-130900000D01*
X91256765Y-130900000D01*
X91042852Y-130686087D01*
X91036987Y-130679615D01*
X90793815Y-130383308D01*
X90788612Y-130376293D01*
X90575640Y-130057558D01*
X90571154Y-130050073D01*
X90390454Y-129712007D01*
X90386729Y-129704130D01*
X90240030Y-129349968D01*
X90237096Y-129341768D01*
X90125817Y-128974930D01*
X90123696Y-128966462D01*
X90120616Y-128950979D01*
X90048908Y-128590482D01*
X90047632Y-128581872D01*
X90009951Y-128199284D01*
X90009551Y-128192777D01*
X90003401Y-127942306D01*
X92641828Y-127942306D01*
X92641988Y-127946078D01*
X92641988Y-127946085D01*
X92650938Y-128156762D01*
X92651614Y-128172668D01*
X92657035Y-128197821D01*
X92685916Y-128331833D01*
X92700190Y-128398062D01*
X92701596Y-128401562D01*
X92701598Y-128401567D01*
X92783333Y-128604973D01*
X92786159Y-128612006D01*
X92907049Y-128808343D01*
X93059380Y-128981425D01*
X93238772Y-129126274D01*
X93343274Y-129184652D01*
X93436754Y-129236873D01*
X93436758Y-129236875D01*
X93440063Y-129238721D01*
X93657462Y-129315533D01*
X93884715Y-129354500D01*
X94055634Y-129354500D01*
X94057535Y-129354500D01*
X94229739Y-129339843D01*
X94452869Y-129281745D01*
X94662971Y-129186773D01*
X94854000Y-129057659D01*
X95020462Y-128898119D01*
X95157566Y-128712742D01*
X95261370Y-128506860D01*
X95328886Y-128286397D01*
X95358172Y-128057694D01*
X95348386Y-127827332D01*
X95299810Y-127601938D01*
X95213841Y-127387994D01*
X95092951Y-127191657D01*
X94940620Y-127018575D01*
X94854478Y-126949020D01*
X94793768Y-126900000D01*
X105294318Y-126900000D01*
X105295079Y-126905780D01*
X105314194Y-127050979D01*
X105314195Y-127050983D01*
X105314956Y-127056762D01*
X105317186Y-127062147D01*
X105317188Y-127062152D01*
X105348820Y-127138518D01*
X105375464Y-127202841D01*
X105379014Y-127207468D01*
X105379015Y-127207469D01*
X105452196Y-127302841D01*
X105471718Y-127328282D01*
X105597159Y-127424536D01*
X105743238Y-127485044D01*
X105900000Y-127505682D01*
X106056762Y-127485044D01*
X106202841Y-127424536D01*
X106328282Y-127328282D01*
X106424536Y-127202841D01*
X106467134Y-127100000D01*
X108894318Y-127100000D01*
X108895079Y-127105780D01*
X108914194Y-127250979D01*
X108914195Y-127250983D01*
X108914956Y-127256762D01*
X108917186Y-127262147D01*
X108917188Y-127262152D01*
X108972249Y-127395079D01*
X108975464Y-127402841D01*
X108979014Y-127407468D01*
X108979015Y-127407469D01*
X109054376Y-127505682D01*
X109071718Y-127528282D01*
X109197159Y-127624536D01*
X109343238Y-127685044D01*
X109500000Y-127705682D01*
X109656762Y-127685044D01*
X109802841Y-127624536D01*
X109928282Y-127528282D01*
X110024536Y-127402841D01*
X110067134Y-127300000D01*
X110369196Y-127300000D01*
X110370292Y-127306920D01*
X110389184Y-127426204D01*
X110389185Y-127426208D01*
X110390281Y-127433126D01*
X110393460Y-127439365D01*
X110393461Y-127439368D01*
X110438765Y-127528282D01*
X110451472Y-127553220D01*
X110546780Y-127648528D01*
X110666874Y-127709719D01*
X110800000Y-127730804D01*
X110933126Y-127709719D01*
X111029992Y-127660362D01*
X111084320Y-127651758D01*
X111133331Y-127676729D01*
X111190630Y-127734028D01*
X111310724Y-127795219D01*
X111443850Y-127816304D01*
X111576976Y-127795219D01*
X111697070Y-127734028D01*
X111792378Y-127638720D01*
X111853569Y-127518626D01*
X111856519Y-127500000D01*
X116769196Y-127500000D01*
X116770292Y-127506920D01*
X116789184Y-127626204D01*
X116789185Y-127626208D01*
X116790281Y-127633126D01*
X116793460Y-127639365D01*
X116793461Y-127639368D01*
X116831286Y-127713603D01*
X116851472Y-127753220D01*
X116946780Y-127848528D01*
X117066874Y-127909719D01*
X117200000Y-127930804D01*
X117333126Y-127909719D01*
X117352201Y-127900000D01*
X175694318Y-127900000D01*
X175695079Y-127905780D01*
X175714194Y-128050979D01*
X175714195Y-128050983D01*
X175714956Y-128056762D01*
X175717186Y-128062147D01*
X175717188Y-128062152D01*
X175753982Y-128150979D01*
X175775464Y-128202841D01*
X175871718Y-128328282D01*
X175997159Y-128424536D01*
X176143238Y-128485044D01*
X176253219Y-128499523D01*
X176301729Y-128522144D01*
X176328492Y-128568498D01*
X176323828Y-128621820D01*
X176317187Y-128637850D01*
X176317185Y-128637855D01*
X176314956Y-128643238D01*
X176314195Y-128649014D01*
X176314194Y-128649020D01*
X176296272Y-128785151D01*
X176294318Y-128800000D01*
X176295079Y-128805780D01*
X176314194Y-128950979D01*
X176314195Y-128950983D01*
X176314956Y-128956762D01*
X176317186Y-128962147D01*
X176317188Y-128962152D01*
X176355664Y-129055040D01*
X176375464Y-129102841D01*
X176379014Y-129107468D01*
X176379015Y-129107469D01*
X176393445Y-129126274D01*
X176471718Y-129228282D01*
X176597159Y-129324536D01*
X176743238Y-129385044D01*
X176900000Y-129405682D01*
X177056762Y-129385044D01*
X177202841Y-129324536D01*
X177328282Y-129228282D01*
X177379391Y-129161674D01*
X177423237Y-129130974D01*
X177476763Y-129130974D01*
X177520608Y-129161674D01*
X177571718Y-129228282D01*
X177697159Y-129324536D01*
X177843238Y-129385044D01*
X178000000Y-129405682D01*
X178156762Y-129385044D01*
X178302841Y-129324536D01*
X178428282Y-129228282D01*
X178479391Y-129161674D01*
X178523237Y-129130974D01*
X178576763Y-129130974D01*
X178620608Y-129161674D01*
X178671718Y-129228282D01*
X178797159Y-129324536D01*
X178943238Y-129385044D01*
X179100000Y-129405682D01*
X179256762Y-129385044D01*
X179402841Y-129324536D01*
X179528282Y-129228282D01*
X179624536Y-129102841D01*
X179685044Y-128956762D01*
X179705682Y-128800000D01*
X179690174Y-128682206D01*
X179694781Y-128640152D01*
X179718288Y-128604973D01*
X179753940Y-128585415D01*
X179756762Y-128585044D01*
X179902841Y-128524536D01*
X180028282Y-128428282D01*
X180124536Y-128302841D01*
X180185044Y-128156762D01*
X180205682Y-128000000D01*
X180198086Y-127942306D01*
X219841828Y-127942306D01*
X219841988Y-127946078D01*
X219841988Y-127946085D01*
X219850938Y-128156762D01*
X219851614Y-128172668D01*
X219857035Y-128197821D01*
X219885916Y-128331833D01*
X219900190Y-128398062D01*
X219901596Y-128401562D01*
X219901598Y-128401567D01*
X219983333Y-128604973D01*
X219986159Y-128612006D01*
X220107049Y-128808343D01*
X220259380Y-128981425D01*
X220438772Y-129126274D01*
X220543274Y-129184652D01*
X220636754Y-129236873D01*
X220636758Y-129236875D01*
X220640063Y-129238721D01*
X220857462Y-129315533D01*
X221084715Y-129354500D01*
X221255634Y-129354500D01*
X221257535Y-129354500D01*
X221429739Y-129339843D01*
X221652869Y-129281745D01*
X221862971Y-129186773D01*
X222054000Y-129057659D01*
X222220462Y-128898119D01*
X222357566Y-128712742D01*
X222461370Y-128506860D01*
X222528886Y-128286397D01*
X222558172Y-128057694D01*
X222548386Y-127827332D01*
X222499810Y-127601938D01*
X222413841Y-127387994D01*
X222292951Y-127191657D01*
X222140620Y-127018575D01*
X222054478Y-126949020D01*
X221964170Y-126876101D01*
X221964166Y-126876098D01*
X221961228Y-126873726D01*
X221897001Y-126837847D01*
X221763245Y-126763126D01*
X221763236Y-126763121D01*
X221759937Y-126761279D01*
X221756365Y-126760017D01*
X221756363Y-126760016D01*
X221546106Y-126685727D01*
X221546098Y-126685725D01*
X221542538Y-126684467D01*
X221538815Y-126683828D01*
X221538809Y-126683827D01*
X221319004Y-126646137D01*
X221318995Y-126646136D01*
X221315285Y-126645500D01*
X221142465Y-126645500D01*
X221140580Y-126645660D01*
X221140566Y-126645661D01*
X220974033Y-126659835D01*
X220974022Y-126659836D01*
X220970261Y-126660157D01*
X220966608Y-126661108D01*
X220966597Y-126661110D01*
X220750793Y-126717301D01*
X220750787Y-126717302D01*
X220747131Y-126718255D01*
X220743686Y-126719812D01*
X220743681Y-126719814D01*
X220540480Y-126811666D01*
X220540470Y-126811671D01*
X220537029Y-126813227D01*
X220533894Y-126815345D01*
X220533892Y-126815347D01*
X220349134Y-126940222D01*
X220349128Y-126940226D01*
X220346000Y-126942341D01*
X220343275Y-126944951D01*
X220343267Y-126944959D01*
X220182269Y-127099262D01*
X220182260Y-127099271D01*
X220179538Y-127101881D01*
X220177292Y-127104916D01*
X220177289Y-127104921D01*
X220044679Y-127284221D01*
X220044673Y-127284230D01*
X220042434Y-127287258D01*
X220040736Y-127290624D01*
X220040732Y-127290632D01*
X219940333Y-127489761D01*
X219940330Y-127489767D01*
X219938630Y-127493140D01*
X219937525Y-127496745D01*
X219937522Y-127496755D01*
X219872303Y-127709719D01*
X219871114Y-127713603D01*
X219870634Y-127717348D01*
X219870633Y-127717355D01*
X219842308Y-127938551D01*
X219842307Y-127938560D01*
X219841828Y-127942306D01*
X180198086Y-127942306D01*
X180185044Y-127843238D01*
X180124536Y-127697159D01*
X180028282Y-127571718D01*
X179950070Y-127511704D01*
X179907469Y-127479015D01*
X179907468Y-127479014D01*
X179902841Y-127475464D01*
X179897448Y-127473230D01*
X179762152Y-127417188D01*
X179762147Y-127417186D01*
X179756762Y-127414956D01*
X179750983Y-127414195D01*
X179750979Y-127414194D01*
X179605780Y-127395079D01*
X179600000Y-127394318D01*
X179594220Y-127395079D01*
X179449020Y-127414194D01*
X179449014Y-127414195D01*
X179443238Y-127414956D01*
X179437854Y-127417186D01*
X179437847Y-127417188D01*
X179302551Y-127473230D01*
X179302547Y-127473231D01*
X179297159Y-127475464D01*
X179292534Y-127479012D01*
X179292530Y-127479015D01*
X179176346Y-127568166D01*
X179176342Y-127568169D01*
X179171718Y-127571718D01*
X179168169Y-127576342D01*
X179168161Y-127576351D01*
X179120608Y-127638324D01*
X179076763Y-127669025D01*
X179023237Y-127669025D01*
X178979392Y-127638324D01*
X178931838Y-127576351D01*
X178931833Y-127576346D01*
X178928282Y-127571718D01*
X178850070Y-127511704D01*
X178807469Y-127479015D01*
X178807468Y-127479014D01*
X178802841Y-127475464D01*
X178797448Y-127473230D01*
X178662152Y-127417188D01*
X178662147Y-127417186D01*
X178656762Y-127414956D01*
X178650983Y-127414195D01*
X178650979Y-127414194D01*
X178505780Y-127395079D01*
X178500000Y-127394318D01*
X178494220Y-127395079D01*
X178349020Y-127414194D01*
X178349014Y-127414195D01*
X178343238Y-127414956D01*
X178337854Y-127417186D01*
X178337847Y-127417188D01*
X178202551Y-127473230D01*
X178202547Y-127473231D01*
X178197159Y-127475464D01*
X178192534Y-127479012D01*
X178192530Y-127479015D01*
X178076346Y-127568166D01*
X178076342Y-127568169D01*
X178071718Y-127571718D01*
X178068169Y-127576342D01*
X178068163Y-127576349D01*
X178058973Y-127588326D01*
X178015127Y-127619025D01*
X177961602Y-127619025D01*
X177917758Y-127588324D01*
X177831838Y-127476351D01*
X177831833Y-127476346D01*
X177828282Y-127471718D01*
X177783572Y-127437411D01*
X177707469Y-127379015D01*
X177707468Y-127379014D01*
X177702841Y-127375464D01*
X177682103Y-127366874D01*
X177562152Y-127317188D01*
X177562147Y-127317186D01*
X177556762Y-127314956D01*
X177550983Y-127314195D01*
X177550979Y-127314194D01*
X177405780Y-127295079D01*
X177400000Y-127294318D01*
X177394220Y-127295079D01*
X177249020Y-127314194D01*
X177249014Y-127314195D01*
X177243238Y-127314956D01*
X177237854Y-127317186D01*
X177237847Y-127317188D01*
X177102551Y-127373230D01*
X177102547Y-127373231D01*
X177097159Y-127375464D01*
X177092534Y-127379012D01*
X177092530Y-127379015D01*
X176976346Y-127468166D01*
X176976342Y-127468169D01*
X176971718Y-127471718D01*
X176968169Y-127476342D01*
X176968161Y-127476351D01*
X176920608Y-127538324D01*
X176876763Y-127569025D01*
X176823237Y-127569025D01*
X176779392Y-127538324D01*
X176731838Y-127476351D01*
X176731833Y-127476346D01*
X176728282Y-127471718D01*
X176683572Y-127437411D01*
X176607469Y-127379015D01*
X176607468Y-127379014D01*
X176602841Y-127375464D01*
X176582103Y-127366874D01*
X176462152Y-127317188D01*
X176462147Y-127317186D01*
X176456762Y-127314956D01*
X176450983Y-127314195D01*
X176450979Y-127314194D01*
X176305780Y-127295079D01*
X176300000Y-127294318D01*
X176294220Y-127295079D01*
X176149020Y-127314194D01*
X176149014Y-127314195D01*
X176143238Y-127314956D01*
X176137854Y-127317186D01*
X176137847Y-127317188D01*
X176002551Y-127373230D01*
X176002547Y-127373231D01*
X175997159Y-127375464D01*
X175992534Y-127379012D01*
X175992530Y-127379015D01*
X175876346Y-127468166D01*
X175876342Y-127468169D01*
X175871718Y-127471718D01*
X175868169Y-127476342D01*
X175868166Y-127476346D01*
X175779015Y-127592530D01*
X175779012Y-127592534D01*
X175775464Y-127597159D01*
X175773231Y-127602547D01*
X175773230Y-127602551D01*
X175717188Y-127737847D01*
X175717186Y-127737854D01*
X175714956Y-127743238D01*
X175714195Y-127749014D01*
X175714194Y-127749020D01*
X175700676Y-127851706D01*
X175694318Y-127900000D01*
X117352201Y-127900000D01*
X117453220Y-127848528D01*
X117548528Y-127753220D01*
X117609719Y-127633126D01*
X117630804Y-127500000D01*
X117609719Y-127366874D01*
X117548528Y-127246780D01*
X117453220Y-127151472D01*
X117446981Y-127148293D01*
X117352201Y-127100000D01*
X118394318Y-127100000D01*
X118395079Y-127105780D01*
X118414194Y-127250979D01*
X118414195Y-127250983D01*
X118414956Y-127256762D01*
X118417186Y-127262147D01*
X118417188Y-127262152D01*
X118472249Y-127395079D01*
X118475464Y-127402841D01*
X118479014Y-127407468D01*
X118479015Y-127407469D01*
X118554376Y-127505682D01*
X118571718Y-127528282D01*
X118697159Y-127624536D01*
X118843238Y-127685044D01*
X119000000Y-127705682D01*
X119156762Y-127685044D01*
X119302841Y-127624536D01*
X119428282Y-127528282D01*
X119524536Y-127402841D01*
X119585044Y-127256762D01*
X119605682Y-127100000D01*
X119592517Y-127000000D01*
X120194318Y-127000000D01*
X120195079Y-127005780D01*
X120214194Y-127150979D01*
X120214195Y-127150983D01*
X120214956Y-127156762D01*
X120217186Y-127162147D01*
X120217188Y-127162152D01*
X120272249Y-127295079D01*
X120275464Y-127302841D01*
X120279014Y-127307468D01*
X120279015Y-127307469D01*
X120360908Y-127414194D01*
X120371718Y-127428282D01*
X120497159Y-127524536D01*
X120643238Y-127585044D01*
X120800000Y-127605682D01*
X120956762Y-127585044D01*
X121102841Y-127524536D01*
X121228282Y-127428282D01*
X121324536Y-127302841D01*
X121385044Y-127156762D01*
X121405682Y-127000000D01*
X214694318Y-127000000D01*
X214695079Y-127005780D01*
X214714194Y-127150979D01*
X214714195Y-127150983D01*
X214714956Y-127156762D01*
X214717186Y-127162147D01*
X214717188Y-127162152D01*
X214772249Y-127295079D01*
X214775464Y-127302841D01*
X214779014Y-127307468D01*
X214779015Y-127307469D01*
X214860908Y-127414194D01*
X214871718Y-127428282D01*
X214997159Y-127524536D01*
X215143238Y-127585044D01*
X215300000Y-127605682D01*
X215456762Y-127585044D01*
X215602841Y-127524536D01*
X215728282Y-127428282D01*
X215824536Y-127302841D01*
X215885044Y-127156762D01*
X215905682Y-127000000D01*
X215885044Y-126843238D01*
X215824536Y-126697159D01*
X215728282Y-126571718D01*
X215602841Y-126475464D01*
X215597448Y-126473230D01*
X215462152Y-126417188D01*
X215462147Y-126417186D01*
X215456762Y-126414956D01*
X215450983Y-126414195D01*
X215450979Y-126414194D01*
X215305780Y-126395079D01*
X215300000Y-126394318D01*
X215294220Y-126395079D01*
X215149020Y-126414194D01*
X215149014Y-126414195D01*
X215143238Y-126414956D01*
X215137854Y-126417186D01*
X215137847Y-126417188D01*
X215002551Y-126473230D01*
X215002547Y-126473231D01*
X214997159Y-126475464D01*
X214992534Y-126479012D01*
X214992530Y-126479015D01*
X214876346Y-126568166D01*
X214876342Y-126568169D01*
X214871718Y-126571718D01*
X214868169Y-126576342D01*
X214868166Y-126576346D01*
X214779015Y-126692530D01*
X214779012Y-126692534D01*
X214775464Y-126697159D01*
X214773231Y-126702547D01*
X214773230Y-126702551D01*
X214717188Y-126837847D01*
X214717186Y-126837854D01*
X214714956Y-126843238D01*
X214714195Y-126849014D01*
X214714194Y-126849020D01*
X214700707Y-126951472D01*
X214694318Y-127000000D01*
X121405682Y-127000000D01*
X121385044Y-126843238D01*
X121324536Y-126697159D01*
X121228282Y-126571718D01*
X121102841Y-126475464D01*
X121097448Y-126473230D01*
X120962152Y-126417188D01*
X120962147Y-126417186D01*
X120956762Y-126414956D01*
X120950983Y-126414195D01*
X120950979Y-126414194D01*
X120805780Y-126395079D01*
X120800000Y-126394318D01*
X120794220Y-126395079D01*
X120649020Y-126414194D01*
X120649014Y-126414195D01*
X120643238Y-126414956D01*
X120637854Y-126417186D01*
X120637847Y-126417188D01*
X120502551Y-126473230D01*
X120502547Y-126473231D01*
X120497159Y-126475464D01*
X120492534Y-126479012D01*
X120492530Y-126479015D01*
X120376346Y-126568166D01*
X120376342Y-126568169D01*
X120371718Y-126571718D01*
X120368169Y-126576342D01*
X120368166Y-126576346D01*
X120279015Y-126692530D01*
X120279012Y-126692534D01*
X120275464Y-126697159D01*
X120273231Y-126702547D01*
X120273230Y-126702551D01*
X120217188Y-126837847D01*
X120217186Y-126837854D01*
X120214956Y-126843238D01*
X120214195Y-126849014D01*
X120214194Y-126849020D01*
X120200707Y-126951472D01*
X120194318Y-127000000D01*
X119592517Y-127000000D01*
X119585044Y-126943238D01*
X119524536Y-126797159D01*
X119428282Y-126671718D01*
X119302841Y-126575464D01*
X119297448Y-126573230D01*
X119162152Y-126517188D01*
X119162147Y-126517186D01*
X119156762Y-126514956D01*
X119150983Y-126514195D01*
X119150979Y-126514194D01*
X119005780Y-126495079D01*
X119000000Y-126494318D01*
X118994220Y-126495079D01*
X118849020Y-126514194D01*
X118849014Y-126514195D01*
X118843238Y-126514956D01*
X118837854Y-126517186D01*
X118837847Y-126517188D01*
X118702551Y-126573230D01*
X118702547Y-126573231D01*
X118697159Y-126575464D01*
X118692534Y-126579012D01*
X118692530Y-126579015D01*
X118576346Y-126668166D01*
X118576342Y-126668169D01*
X118571718Y-126671718D01*
X118568169Y-126676342D01*
X118568166Y-126676346D01*
X118479015Y-126792530D01*
X118479012Y-126792534D01*
X118475464Y-126797159D01*
X118473231Y-126802547D01*
X118473230Y-126802551D01*
X118417188Y-126937847D01*
X118417186Y-126937854D01*
X118414956Y-126943238D01*
X118414195Y-126949014D01*
X118414194Y-126949020D01*
X118400772Y-127050979D01*
X118394318Y-127100000D01*
X117352201Y-127100000D01*
X117339368Y-127093461D01*
X117339365Y-127093460D01*
X117333126Y-127090281D01*
X117326208Y-127089185D01*
X117326204Y-127089184D01*
X117206920Y-127070292D01*
X117200000Y-127069196D01*
X117193080Y-127070292D01*
X117073795Y-127089184D01*
X117073790Y-127089185D01*
X117066874Y-127090281D01*
X117060636Y-127093459D01*
X117060631Y-127093461D01*
X116953018Y-127148293D01*
X116953015Y-127148294D01*
X116946780Y-127151472D01*
X116941833Y-127156418D01*
X116941830Y-127156421D01*
X116856421Y-127241830D01*
X116856418Y-127241833D01*
X116851472Y-127246780D01*
X116848294Y-127253015D01*
X116848293Y-127253018D01*
X116793461Y-127360631D01*
X116793459Y-127360636D01*
X116790281Y-127366874D01*
X116789185Y-127373790D01*
X116789184Y-127373795D01*
X116770818Y-127489761D01*
X116769196Y-127500000D01*
X111856519Y-127500000D01*
X111874654Y-127385500D01*
X111853569Y-127252374D01*
X111792378Y-127132280D01*
X111697070Y-127036972D01*
X111641721Y-127008770D01*
X111583218Y-126978961D01*
X111583215Y-126978960D01*
X111576976Y-126975781D01*
X111570058Y-126974685D01*
X111570054Y-126974684D01*
X111450770Y-126955792D01*
X111443850Y-126954696D01*
X111436930Y-126955792D01*
X111317645Y-126974684D01*
X111317640Y-126974685D01*
X111310724Y-126975781D01*
X111304486Y-126978959D01*
X111304481Y-126978961D01*
X111213856Y-127025137D01*
X111159528Y-127033741D01*
X111110518Y-127008770D01*
X111058169Y-126956421D01*
X111053220Y-126951472D01*
X111037060Y-126943238D01*
X110939368Y-126893461D01*
X110939365Y-126893460D01*
X110933126Y-126890281D01*
X110926208Y-126889185D01*
X110926204Y-126889184D01*
X110806920Y-126870292D01*
X110800000Y-126869196D01*
X110793080Y-126870292D01*
X110673795Y-126889184D01*
X110673790Y-126889185D01*
X110666874Y-126890281D01*
X110660636Y-126893459D01*
X110660631Y-126893461D01*
X110553018Y-126948293D01*
X110553015Y-126948294D01*
X110546780Y-126951472D01*
X110541833Y-126956418D01*
X110541830Y-126956421D01*
X110456421Y-127041830D01*
X110456418Y-127041833D01*
X110451472Y-127046780D01*
X110448294Y-127053015D01*
X110448293Y-127053018D01*
X110393461Y-127160631D01*
X110393459Y-127160636D01*
X110390281Y-127166874D01*
X110389185Y-127173790D01*
X110389184Y-127173795D01*
X110371695Y-127284221D01*
X110369196Y-127300000D01*
X110067134Y-127300000D01*
X110085044Y-127256762D01*
X110105682Y-127100000D01*
X110085044Y-126943238D01*
X110024536Y-126797159D01*
X109928282Y-126671718D01*
X109802841Y-126575464D01*
X109797448Y-126573230D01*
X109662152Y-126517188D01*
X109662147Y-126517186D01*
X109656762Y-126514956D01*
X109650983Y-126514195D01*
X109650979Y-126514194D01*
X109505780Y-126495079D01*
X109500000Y-126494318D01*
X109494220Y-126495079D01*
X109349020Y-126514194D01*
X109349014Y-126514195D01*
X109343238Y-126514956D01*
X109337854Y-126517186D01*
X109337847Y-126517188D01*
X109202551Y-126573230D01*
X109202547Y-126573231D01*
X109197159Y-126575464D01*
X109192534Y-126579012D01*
X109192530Y-126579015D01*
X109076346Y-126668166D01*
X109076342Y-126668169D01*
X109071718Y-126671718D01*
X109068169Y-126676342D01*
X109068166Y-126676346D01*
X108979015Y-126792530D01*
X108979012Y-126792534D01*
X108975464Y-126797159D01*
X108973231Y-126802547D01*
X108973230Y-126802551D01*
X108917188Y-126937847D01*
X108917186Y-126937854D01*
X108914956Y-126943238D01*
X108914195Y-126949014D01*
X108914194Y-126949020D01*
X108900772Y-127050979D01*
X108894318Y-127100000D01*
X106467134Y-127100000D01*
X106485044Y-127056762D01*
X106505682Y-126900000D01*
X106485044Y-126743238D01*
X106424536Y-126597159D01*
X106328282Y-126471718D01*
X106202841Y-126375464D01*
X106197448Y-126373230D01*
X106062152Y-126317188D01*
X106062147Y-126317186D01*
X106056762Y-126314956D01*
X106050983Y-126314195D01*
X106050979Y-126314194D01*
X105905780Y-126295079D01*
X105900000Y-126294318D01*
X105894220Y-126295079D01*
X105749020Y-126314194D01*
X105749014Y-126314195D01*
X105743238Y-126314956D01*
X105737854Y-126317186D01*
X105737847Y-126317188D01*
X105602551Y-126373230D01*
X105602547Y-126373231D01*
X105597159Y-126375464D01*
X105592534Y-126379012D01*
X105592530Y-126379015D01*
X105476346Y-126468166D01*
X105476342Y-126468169D01*
X105471718Y-126471718D01*
X105468169Y-126476342D01*
X105468166Y-126476346D01*
X105379015Y-126592530D01*
X105379012Y-126592534D01*
X105375464Y-126597159D01*
X105373231Y-126602547D01*
X105373230Y-126602551D01*
X105317188Y-126737847D01*
X105317186Y-126737854D01*
X105314956Y-126743238D01*
X105314195Y-126749014D01*
X105314194Y-126749020D01*
X105298373Y-126869196D01*
X105294318Y-126900000D01*
X94793768Y-126900000D01*
X94764170Y-126876101D01*
X94764166Y-126876098D01*
X94761228Y-126873726D01*
X94697001Y-126837847D01*
X94563245Y-126763126D01*
X94563236Y-126763121D01*
X94559937Y-126761279D01*
X94556365Y-126760017D01*
X94556363Y-126760016D01*
X94346106Y-126685727D01*
X94346098Y-126685725D01*
X94342538Y-126684467D01*
X94338815Y-126683828D01*
X94338809Y-126683827D01*
X94119004Y-126646137D01*
X94118995Y-126646136D01*
X94115285Y-126645500D01*
X93942465Y-126645500D01*
X93940580Y-126645660D01*
X93940566Y-126645661D01*
X93774033Y-126659835D01*
X93774022Y-126659836D01*
X93770261Y-126660157D01*
X93766608Y-126661108D01*
X93766597Y-126661110D01*
X93550793Y-126717301D01*
X93550787Y-126717302D01*
X93547131Y-126718255D01*
X93543686Y-126719812D01*
X93543681Y-126719814D01*
X93340480Y-126811666D01*
X93340470Y-126811671D01*
X93337029Y-126813227D01*
X93333894Y-126815345D01*
X93333892Y-126815347D01*
X93149134Y-126940222D01*
X93149128Y-126940226D01*
X93146000Y-126942341D01*
X93143275Y-126944951D01*
X93143267Y-126944959D01*
X92982269Y-127099262D01*
X92982260Y-127099271D01*
X92979538Y-127101881D01*
X92977292Y-127104916D01*
X92977289Y-127104921D01*
X92844679Y-127284221D01*
X92844673Y-127284230D01*
X92842434Y-127287258D01*
X92840736Y-127290624D01*
X92840732Y-127290632D01*
X92740333Y-127489761D01*
X92740330Y-127489767D01*
X92738630Y-127493140D01*
X92737525Y-127496745D01*
X92737522Y-127496755D01*
X92672303Y-127709719D01*
X92671114Y-127713603D01*
X92670634Y-127717348D01*
X92670633Y-127717355D01*
X92642308Y-127938551D01*
X92642307Y-127938560D01*
X92641828Y-127942306D01*
X90003401Y-127942306D01*
X90000526Y-127825195D01*
X90000500Y-127823012D01*
X90000500Y-125800000D01*
X106169196Y-125800000D01*
X106170292Y-125806920D01*
X106189184Y-125926204D01*
X106189185Y-125926208D01*
X106190281Y-125933126D01*
X106193460Y-125939365D01*
X106193461Y-125939368D01*
X106245575Y-126041647D01*
X106251472Y-126053220D01*
X106346780Y-126148528D01*
X106466874Y-126209719D01*
X106600000Y-126230804D01*
X106733126Y-126209719D01*
X106853220Y-126148528D01*
X106937066Y-126064681D01*
X106976965Y-126041647D01*
X107023035Y-126041647D01*
X107062933Y-126064681D01*
X107146780Y-126148528D01*
X107266874Y-126209719D01*
X107400000Y-126230804D01*
X107533126Y-126209719D01*
X107653220Y-126148528D01*
X107748528Y-126053220D01*
X107809719Y-125933126D01*
X107830804Y-125800000D01*
X107809719Y-125666874D01*
X107748528Y-125546780D01*
X107653220Y-125451472D01*
X107626780Y-125438000D01*
X107552201Y-125400000D01*
X110769196Y-125400000D01*
X110770292Y-125406920D01*
X110789184Y-125526204D01*
X110789185Y-125526208D01*
X110790281Y-125533126D01*
X110793460Y-125539365D01*
X110793461Y-125539368D01*
X110806116Y-125564204D01*
X110851472Y-125653220D01*
X110946780Y-125748528D01*
X111066874Y-125809719D01*
X111200000Y-125830804D01*
X111333126Y-125809719D01*
X111453220Y-125748528D01*
X111548528Y-125653220D01*
X111609719Y-125533126D01*
X111624785Y-125438000D01*
X114031196Y-125438000D01*
X114032292Y-125444920D01*
X114051184Y-125564204D01*
X114051185Y-125564208D01*
X114052281Y-125571126D01*
X114055460Y-125577365D01*
X114055461Y-125577368D01*
X114110293Y-125684981D01*
X114113472Y-125691220D01*
X114208780Y-125786528D01*
X114328874Y-125847719D01*
X114462000Y-125868804D01*
X114595126Y-125847719D01*
X114715220Y-125786528D01*
X114810528Y-125691220D01*
X114871719Y-125571126D01*
X114892804Y-125438000D01*
X114871719Y-125304874D01*
X114810528Y-125184780D01*
X114715220Y-125089472D01*
X114634402Y-125048293D01*
X114601368Y-125031461D01*
X114601365Y-125031460D01*
X114595126Y-125028281D01*
X114588208Y-125027185D01*
X114588204Y-125027184D01*
X114468920Y-125008292D01*
X114462000Y-125007196D01*
X114455080Y-125008292D01*
X114335795Y-125027184D01*
X114335790Y-125027185D01*
X114328874Y-125028281D01*
X114322636Y-125031459D01*
X114322631Y-125031461D01*
X114215018Y-125086293D01*
X114215015Y-125086294D01*
X114208780Y-125089472D01*
X114203833Y-125094418D01*
X114203830Y-125094421D01*
X114118421Y-125179830D01*
X114118418Y-125179833D01*
X114113472Y-125184780D01*
X114110294Y-125191015D01*
X114110293Y-125191018D01*
X114055461Y-125298631D01*
X114055459Y-125298636D01*
X114052281Y-125304874D01*
X114051185Y-125311790D01*
X114051184Y-125311795D01*
X114032292Y-125431080D01*
X114031196Y-125438000D01*
X111624785Y-125438000D01*
X111630804Y-125400000D01*
X111609719Y-125266874D01*
X111548528Y-125146780D01*
X111453220Y-125051472D01*
X111446981Y-125048293D01*
X111339368Y-124993461D01*
X111339365Y-124993460D01*
X111333126Y-124990281D01*
X111326208Y-124989185D01*
X111326204Y-124989184D01*
X111206920Y-124970292D01*
X111200000Y-124969196D01*
X111193080Y-124970292D01*
X111073795Y-124989184D01*
X111073790Y-124989185D01*
X111066874Y-124990281D01*
X111060636Y-124993459D01*
X111060631Y-124993461D01*
X110953018Y-125048293D01*
X110953015Y-125048294D01*
X110946780Y-125051472D01*
X110941833Y-125056418D01*
X110941830Y-125056421D01*
X110856421Y-125141830D01*
X110856418Y-125141833D01*
X110851472Y-125146780D01*
X110848294Y-125153015D01*
X110848293Y-125153018D01*
X110793461Y-125260631D01*
X110793459Y-125260636D01*
X110790281Y-125266874D01*
X110789185Y-125273790D01*
X110789184Y-125273795D01*
X110785251Y-125298631D01*
X110769196Y-125400000D01*
X107552201Y-125400000D01*
X107539368Y-125393461D01*
X107539365Y-125393460D01*
X107533126Y-125390281D01*
X107526208Y-125389185D01*
X107526204Y-125389184D01*
X107406920Y-125370292D01*
X107400000Y-125369196D01*
X107393080Y-125370292D01*
X107273795Y-125389184D01*
X107273790Y-125389185D01*
X107266874Y-125390281D01*
X107260636Y-125393459D01*
X107260631Y-125393461D01*
X107153018Y-125448293D01*
X107153015Y-125448294D01*
X107146780Y-125451472D01*
X107141833Y-125456418D01*
X107141830Y-125456421D01*
X107062933Y-125535319D01*
X107023035Y-125558353D01*
X106976965Y-125558353D01*
X106937067Y-125535319D01*
X106858169Y-125456421D01*
X106853220Y-125451472D01*
X106826780Y-125438000D01*
X106739368Y-125393461D01*
X106739365Y-125393460D01*
X106733126Y-125390281D01*
X106726208Y-125389185D01*
X106726204Y-125389184D01*
X106606920Y-125370292D01*
X106600000Y-125369196D01*
X106593080Y-125370292D01*
X106473795Y-125389184D01*
X106473790Y-125389185D01*
X106466874Y-125390281D01*
X106460636Y-125393459D01*
X106460631Y-125393461D01*
X106353018Y-125448293D01*
X106353015Y-125448294D01*
X106346780Y-125451472D01*
X106341833Y-125456418D01*
X106341830Y-125456421D01*
X106256421Y-125541830D01*
X106256418Y-125541833D01*
X106251472Y-125546780D01*
X106248294Y-125553015D01*
X106248293Y-125553018D01*
X106193461Y-125660631D01*
X106193459Y-125660636D01*
X106190281Y-125666874D01*
X106189185Y-125673790D01*
X106189184Y-125673795D01*
X106178132Y-125743578D01*
X106169196Y-125800000D01*
X90000500Y-125800000D01*
X90000500Y-124500000D01*
X112769196Y-124500000D01*
X112770292Y-124506920D01*
X112789184Y-124626204D01*
X112789185Y-124626208D01*
X112790281Y-124633126D01*
X112851472Y-124753220D01*
X112946780Y-124848528D01*
X113066874Y-124909719D01*
X113200000Y-124930804D01*
X113333126Y-124909719D01*
X113453220Y-124848528D01*
X113548528Y-124753220D01*
X113609719Y-124633126D01*
X113630804Y-124500000D01*
X113609719Y-124366874D01*
X113548528Y-124246780D01*
X113453220Y-124151472D01*
X113432118Y-124140720D01*
X113339368Y-124093461D01*
X113339365Y-124093460D01*
X113333126Y-124090281D01*
X113326208Y-124089185D01*
X113326204Y-124089184D01*
X113206920Y-124070292D01*
X113200000Y-124069196D01*
X113193080Y-124070292D01*
X113073795Y-124089184D01*
X113073790Y-124089185D01*
X113066874Y-124090281D01*
X113060636Y-124093459D01*
X113060631Y-124093461D01*
X112953018Y-124148293D01*
X112953015Y-124148294D01*
X112946780Y-124151472D01*
X112941833Y-124156418D01*
X112941830Y-124156421D01*
X112856421Y-124241830D01*
X112856418Y-124241833D01*
X112851472Y-124246780D01*
X112848294Y-124253015D01*
X112848293Y-124253018D01*
X112793461Y-124360631D01*
X112793459Y-124360636D01*
X112790281Y-124366874D01*
X112789185Y-124373790D01*
X112789184Y-124373795D01*
X112770292Y-124493080D01*
X112769196Y-124500000D01*
X90000500Y-124500000D01*
X90000500Y-123775500D01*
X107069196Y-123775500D01*
X107070292Y-123782420D01*
X107089184Y-123901704D01*
X107089185Y-123901708D01*
X107090281Y-123908626D01*
X107093460Y-123914865D01*
X107093461Y-123914868D01*
X107115524Y-123958169D01*
X107151472Y-124028720D01*
X107246780Y-124124028D01*
X107366874Y-124185219D01*
X107500000Y-124206304D01*
X107633126Y-124185219D01*
X107753220Y-124124028D01*
X107848528Y-124028720D01*
X107909719Y-123908626D01*
X107913065Y-123887500D01*
X108656696Y-123887500D01*
X108657792Y-123894420D01*
X108676684Y-124013704D01*
X108676685Y-124013708D01*
X108677781Y-124020626D01*
X108680960Y-124026865D01*
X108680961Y-124026868D01*
X108734252Y-124131456D01*
X108738972Y-124140720D01*
X108834280Y-124236028D01*
X108954374Y-124297219D01*
X109087500Y-124318304D01*
X109220626Y-124297219D01*
X109340720Y-124236028D01*
X109421268Y-124155479D01*
X109456703Y-124133766D01*
X109486076Y-124131456D01*
X109486076Y-124129708D01*
X109493081Y-124129708D01*
X109500000Y-124130804D01*
X109633126Y-124109719D01*
X109753220Y-124048528D01*
X109848528Y-123953220D01*
X109909719Y-123833126D01*
X109930804Y-123700000D01*
X110444196Y-123700000D01*
X110445292Y-123706920D01*
X110464184Y-123826204D01*
X110464185Y-123826208D01*
X110465281Y-123833126D01*
X110468460Y-123839365D01*
X110468461Y-123839368D01*
X110523293Y-123946981D01*
X110526472Y-123953220D01*
X110621780Y-124048528D01*
X110741874Y-124109719D01*
X110875000Y-124130804D01*
X110881919Y-124129708D01*
X110888923Y-124129708D01*
X110888923Y-124131456D01*
X110918295Y-124133766D01*
X110953730Y-124155478D01*
X111046780Y-124248528D01*
X111166874Y-124309719D01*
X111300000Y-124330804D01*
X111433126Y-124309719D01*
X111553220Y-124248528D01*
X111648528Y-124153220D01*
X111709719Y-124033126D01*
X111730804Y-123900000D01*
X111709719Y-123766874D01*
X111648528Y-123646780D01*
X111553220Y-123551472D01*
X111546981Y-123548293D01*
X111439368Y-123493461D01*
X111439365Y-123493460D01*
X111433126Y-123490281D01*
X111426208Y-123489185D01*
X111426204Y-123489184D01*
X111306920Y-123470292D01*
X111300000Y-123469196D01*
X111293080Y-123470292D01*
X111286078Y-123470292D01*
X111286078Y-123468551D01*
X111256675Y-123466224D01*
X111221269Y-123444521D01*
X111133169Y-123356421D01*
X111128220Y-123351472D01*
X111121981Y-123348293D01*
X111014368Y-123293461D01*
X111014365Y-123293460D01*
X111008126Y-123290281D01*
X111001208Y-123289185D01*
X111001204Y-123289184D01*
X110881920Y-123270292D01*
X110875000Y-123269196D01*
X110868080Y-123270292D01*
X110748795Y-123289184D01*
X110748790Y-123289185D01*
X110741874Y-123290281D01*
X110735636Y-123293459D01*
X110735631Y-123293461D01*
X110628018Y-123348293D01*
X110628015Y-123348294D01*
X110621780Y-123351472D01*
X110616833Y-123356418D01*
X110616830Y-123356421D01*
X110531421Y-123441830D01*
X110531418Y-123441833D01*
X110526472Y-123446780D01*
X110523294Y-123453015D01*
X110523293Y-123453018D01*
X110468461Y-123560631D01*
X110468459Y-123560636D01*
X110465281Y-123566874D01*
X110464185Y-123573790D01*
X110464184Y-123573795D01*
X110453617Y-123640518D01*
X110444196Y-123700000D01*
X109930804Y-123700000D01*
X109909719Y-123566874D01*
X109848528Y-123446780D01*
X109753220Y-123351472D01*
X109746981Y-123348293D01*
X109639368Y-123293461D01*
X109639365Y-123293460D01*
X109633126Y-123290281D01*
X109626208Y-123289185D01*
X109626204Y-123289184D01*
X109506920Y-123270292D01*
X109500000Y-123269196D01*
X109493080Y-123270292D01*
X109373795Y-123289184D01*
X109373790Y-123289185D01*
X109366874Y-123290281D01*
X109360636Y-123293459D01*
X109360631Y-123293461D01*
X109253018Y-123348293D01*
X109253015Y-123348294D01*
X109246780Y-123351472D01*
X109241833Y-123356418D01*
X109241826Y-123356424D01*
X109166229Y-123432021D01*
X109130817Y-123453726D01*
X109101423Y-123456049D01*
X109101423Y-123457792D01*
X109094420Y-123457792D01*
X109087500Y-123456696D01*
X109080580Y-123457792D01*
X108961295Y-123476684D01*
X108961290Y-123476685D01*
X108954374Y-123477781D01*
X108948136Y-123480959D01*
X108948131Y-123480961D01*
X108840518Y-123535793D01*
X108840515Y-123535794D01*
X108834280Y-123538972D01*
X108829333Y-123543918D01*
X108829330Y-123543921D01*
X108743921Y-123629330D01*
X108743918Y-123629333D01*
X108738972Y-123634280D01*
X108735794Y-123640515D01*
X108735793Y-123640518D01*
X108680961Y-123748131D01*
X108680959Y-123748136D01*
X108677781Y-123754374D01*
X108676685Y-123761290D01*
X108676684Y-123761295D01*
X108666404Y-123826204D01*
X108656696Y-123887500D01*
X107913065Y-123887500D01*
X107930804Y-123775500D01*
X107909719Y-123642374D01*
X107848528Y-123522280D01*
X107753220Y-123426972D01*
X107746981Y-123423793D01*
X107639368Y-123368961D01*
X107639365Y-123368960D01*
X107633126Y-123365781D01*
X107626208Y-123364685D01*
X107626204Y-123364684D01*
X107506920Y-123345792D01*
X107500000Y-123344696D01*
X107493080Y-123345792D01*
X107373795Y-123364684D01*
X107373790Y-123364685D01*
X107366874Y-123365781D01*
X107360636Y-123368959D01*
X107360631Y-123368961D01*
X107253018Y-123423793D01*
X107253015Y-123423794D01*
X107246780Y-123426972D01*
X107241833Y-123431918D01*
X107241830Y-123431921D01*
X107156421Y-123517330D01*
X107156418Y-123517333D01*
X107151472Y-123522280D01*
X107148294Y-123528515D01*
X107148293Y-123528518D01*
X107093461Y-123636131D01*
X107093459Y-123636136D01*
X107090281Y-123642374D01*
X107089185Y-123649290D01*
X107089184Y-123649295D01*
X107080058Y-123706920D01*
X107069196Y-123775500D01*
X90000500Y-123775500D01*
X90000500Y-122298053D01*
X106791090Y-122298053D01*
X106791851Y-122303833D01*
X106810966Y-122449032D01*
X106810967Y-122449036D01*
X106811728Y-122454815D01*
X106813958Y-122460200D01*
X106813960Y-122460205D01*
X106828050Y-122494220D01*
X106872236Y-122600894D01*
X106968490Y-122726335D01*
X107093931Y-122822589D01*
X107240010Y-122883097D01*
X107396772Y-122903735D01*
X107553534Y-122883097D01*
X107699613Y-122822589D01*
X107825054Y-122726335D01*
X107921308Y-122600894D01*
X107963100Y-122500000D01*
X112594318Y-122500000D01*
X112595079Y-122505780D01*
X112614194Y-122650979D01*
X112614195Y-122650983D01*
X112614956Y-122656762D01*
X112617186Y-122662147D01*
X112617188Y-122662152D01*
X112643774Y-122726335D01*
X112675464Y-122802841D01*
X112679014Y-122807468D01*
X112679015Y-122807469D01*
X112752882Y-122903735D01*
X112771718Y-122928282D01*
X112897159Y-123024536D01*
X113043238Y-123085044D01*
X113200000Y-123105682D01*
X113356762Y-123085044D01*
X113502841Y-123024536D01*
X113628282Y-122928282D01*
X113724536Y-122802841D01*
X113785044Y-122656762D01*
X113805682Y-122500000D01*
X113785044Y-122343238D01*
X113724536Y-122197159D01*
X113628282Y-122071718D01*
X113502841Y-121975464D01*
X113497448Y-121973230D01*
X113362152Y-121917188D01*
X113362147Y-121917186D01*
X113356762Y-121914956D01*
X113350983Y-121914195D01*
X113350979Y-121914194D01*
X113205780Y-121895079D01*
X113200000Y-121894318D01*
X113194220Y-121895079D01*
X113049020Y-121914194D01*
X113049014Y-121914195D01*
X113043238Y-121914956D01*
X113037854Y-121917186D01*
X113037847Y-121917188D01*
X112902551Y-121973230D01*
X112902547Y-121973231D01*
X112897159Y-121975464D01*
X112892534Y-121979012D01*
X112892530Y-121979015D01*
X112776346Y-122068166D01*
X112776342Y-122068169D01*
X112771718Y-122071718D01*
X112768169Y-122076342D01*
X112768166Y-122076346D01*
X112679015Y-122192530D01*
X112679012Y-122192534D01*
X112675464Y-122197159D01*
X112673231Y-122202547D01*
X112673230Y-122202551D01*
X112617188Y-122337847D01*
X112617186Y-122337854D01*
X112614956Y-122343238D01*
X112614195Y-122349014D01*
X112614194Y-122349020D01*
X112601028Y-122449032D01*
X112594318Y-122500000D01*
X107963100Y-122500000D01*
X107981816Y-122454815D01*
X108002454Y-122298053D01*
X107981816Y-122141291D01*
X107921308Y-121995212D01*
X107825054Y-121869771D01*
X107699613Y-121773517D01*
X107694220Y-121771283D01*
X107558924Y-121715241D01*
X107558919Y-121715239D01*
X107553534Y-121713009D01*
X107547755Y-121712248D01*
X107547751Y-121712247D01*
X107402552Y-121693132D01*
X107396772Y-121692371D01*
X107390992Y-121693132D01*
X107245792Y-121712247D01*
X107245786Y-121712248D01*
X107240010Y-121713009D01*
X107234626Y-121715239D01*
X107234619Y-121715241D01*
X107099323Y-121771283D01*
X107099319Y-121771284D01*
X107093931Y-121773517D01*
X107089306Y-121777065D01*
X107089302Y-121777068D01*
X106973118Y-121866219D01*
X106973114Y-121866222D01*
X106968490Y-121869771D01*
X106964941Y-121874395D01*
X106964938Y-121874399D01*
X106875787Y-121990583D01*
X106875784Y-121990587D01*
X106872236Y-121995212D01*
X106870003Y-122000600D01*
X106870002Y-122000604D01*
X106813960Y-122135900D01*
X106813958Y-122135907D01*
X106811728Y-122141291D01*
X106810967Y-122147067D01*
X106810966Y-122147073D01*
X106803663Y-122202551D01*
X106791090Y-122298053D01*
X90000500Y-122298053D01*
X90000500Y-120273683D01*
X90345740Y-120273683D01*
X90346001Y-120278501D01*
X90346001Y-120278506D01*
X90355493Y-120453585D01*
X90355493Y-120453590D01*
X90355755Y-120458407D01*
X90357045Y-120463056D01*
X90357046Y-120463057D01*
X90403955Y-120632011D01*
X90403956Y-120632015D01*
X90405246Y-120636659D01*
X90491900Y-120800104D01*
X90611663Y-120941100D01*
X90758936Y-121053054D01*
X90926833Y-121130732D01*
X91107503Y-121170500D01*
X92543707Y-121170500D01*
X92546113Y-121170500D01*
X92683910Y-121155514D01*
X92859221Y-121096444D01*
X93017736Y-121001070D01*
X93152041Y-120873849D01*
X93255858Y-120720730D01*
X93324331Y-120548875D01*
X93354260Y-120366317D01*
X93349238Y-120273683D01*
X94320740Y-120273683D01*
X94321001Y-120278501D01*
X94321001Y-120278506D01*
X94330493Y-120453585D01*
X94330493Y-120453590D01*
X94330755Y-120458407D01*
X94332045Y-120463056D01*
X94332046Y-120463057D01*
X94378955Y-120632011D01*
X94378956Y-120632015D01*
X94380246Y-120636659D01*
X94466900Y-120800104D01*
X94586663Y-120941100D01*
X94733936Y-121053054D01*
X94901833Y-121130732D01*
X95082503Y-121170500D01*
X96218707Y-121170500D01*
X96221113Y-121170500D01*
X96358910Y-121155514D01*
X96534221Y-121096444D01*
X96692736Y-121001070D01*
X96827041Y-120873849D01*
X96930858Y-120720730D01*
X96999331Y-120548875D01*
X97029260Y-120366317D01*
X97025665Y-120300000D01*
X202294318Y-120300000D01*
X202295079Y-120305780D01*
X202314194Y-120450979D01*
X202314195Y-120450983D01*
X202314956Y-120456762D01*
X202317186Y-120462147D01*
X202317188Y-120462152D01*
X202354965Y-120553353D01*
X202375464Y-120602841D01*
X202471718Y-120728282D01*
X202597159Y-120824536D01*
X202743238Y-120885044D01*
X202900000Y-120905682D01*
X203056762Y-120885044D01*
X203202841Y-120824536D01*
X203328282Y-120728282D01*
X203424536Y-120602841D01*
X203485044Y-120456762D01*
X203505682Y-120300000D01*
X203485044Y-120143238D01*
X203425713Y-120000000D01*
X215094318Y-120000000D01*
X215095079Y-120005780D01*
X215114194Y-120150979D01*
X215114195Y-120150983D01*
X215114956Y-120156762D01*
X215117186Y-120162147D01*
X215117188Y-120162152D01*
X215125241Y-120181593D01*
X215175464Y-120302841D01*
X215179014Y-120307468D01*
X215179015Y-120307469D01*
X215268166Y-120423653D01*
X215271718Y-120428282D01*
X215397159Y-120524536D01*
X215543238Y-120585044D01*
X215700000Y-120605682D01*
X215856762Y-120585044D01*
X216002841Y-120524536D01*
X216128282Y-120428282D01*
X216153615Y-120395267D01*
X216195614Y-120365170D01*
X216247257Y-120363478D01*
X216291136Y-120390763D01*
X216312462Y-120437827D01*
X216314193Y-120450973D01*
X216314194Y-120450979D01*
X216314956Y-120456762D01*
X216317186Y-120462147D01*
X216317188Y-120462152D01*
X216354965Y-120553353D01*
X216375464Y-120602841D01*
X216471718Y-120728282D01*
X216597159Y-120824536D01*
X216743238Y-120885044D01*
X216900000Y-120905682D01*
X217056762Y-120885044D01*
X217202841Y-120824536D01*
X217328282Y-120728282D01*
X217424536Y-120602841D01*
X217485044Y-120456762D01*
X217505682Y-120300000D01*
X217485044Y-120143238D01*
X217424536Y-119997159D01*
X217328282Y-119871718D01*
X217262164Y-119820984D01*
X217207469Y-119779015D01*
X217207468Y-119779014D01*
X217202841Y-119775464D01*
X217190000Y-119770145D01*
X217062152Y-119717188D01*
X217062147Y-119717186D01*
X217056762Y-119714956D01*
X217050983Y-119714195D01*
X217050979Y-119714194D01*
X216905780Y-119695079D01*
X216900000Y-119694318D01*
X216894220Y-119695079D01*
X216749020Y-119714194D01*
X216749014Y-119714195D01*
X216743238Y-119714956D01*
X216737854Y-119717186D01*
X216737847Y-119717188D01*
X216602551Y-119773230D01*
X216602547Y-119773231D01*
X216597159Y-119775464D01*
X216592534Y-119779012D01*
X216592530Y-119779015D01*
X216476346Y-119868166D01*
X216476342Y-119868169D01*
X216471718Y-119871718D01*
X216468169Y-119876342D01*
X216468164Y-119876348D01*
X216446383Y-119904734D01*
X216404382Y-119934830D01*
X216352739Y-119936520D01*
X216308860Y-119909233D01*
X216287536Y-119862168D01*
X216285805Y-119849021D01*
X216285805Y-119849020D01*
X216285044Y-119843238D01*
X216224536Y-119697159D01*
X216128282Y-119571718D01*
X216094819Y-119546041D01*
X216007469Y-119479015D01*
X216007468Y-119479014D01*
X216002841Y-119475464D01*
X215997448Y-119473230D01*
X215862152Y-119417188D01*
X215862147Y-119417186D01*
X215856762Y-119414956D01*
X215850983Y-119414195D01*
X215850979Y-119414194D01*
X215705780Y-119395079D01*
X215700000Y-119394318D01*
X215694220Y-119395079D01*
X215549020Y-119414194D01*
X215549014Y-119414195D01*
X215543238Y-119414956D01*
X215537854Y-119417186D01*
X215537847Y-119417188D01*
X215402551Y-119473230D01*
X215402547Y-119473231D01*
X215397159Y-119475464D01*
X215392534Y-119479012D01*
X215392530Y-119479015D01*
X215276346Y-119568166D01*
X215276342Y-119568169D01*
X215271718Y-119571718D01*
X215268169Y-119576342D01*
X215268166Y-119576346D01*
X215179015Y-119692530D01*
X215179012Y-119692534D01*
X215175464Y-119697159D01*
X215173231Y-119702547D01*
X215173230Y-119702551D01*
X215117188Y-119837847D01*
X215117186Y-119837854D01*
X215114956Y-119843238D01*
X215114195Y-119849014D01*
X215114194Y-119849020D01*
X215102675Y-119936520D01*
X215094318Y-120000000D01*
X203425713Y-120000000D01*
X203424536Y-119997159D01*
X203328282Y-119871718D01*
X203262164Y-119820984D01*
X203207469Y-119779015D01*
X203207468Y-119779014D01*
X203202841Y-119775464D01*
X203190000Y-119770145D01*
X203062152Y-119717188D01*
X203062147Y-119717186D01*
X203056762Y-119714956D01*
X203050983Y-119714195D01*
X203050979Y-119714194D01*
X202905780Y-119695079D01*
X202900000Y-119694318D01*
X202894220Y-119695079D01*
X202749020Y-119714194D01*
X202749014Y-119714195D01*
X202743238Y-119714956D01*
X202737854Y-119717186D01*
X202737847Y-119717188D01*
X202602551Y-119773230D01*
X202602547Y-119773231D01*
X202597159Y-119775464D01*
X202592534Y-119779012D01*
X202592530Y-119779015D01*
X202476346Y-119868166D01*
X202476342Y-119868169D01*
X202471718Y-119871718D01*
X202468169Y-119876342D01*
X202468166Y-119876346D01*
X202379015Y-119992530D01*
X202379012Y-119992534D01*
X202375464Y-119997159D01*
X202373231Y-120002547D01*
X202373230Y-120002551D01*
X202317188Y-120137847D01*
X202317186Y-120137854D01*
X202314956Y-120143238D01*
X202314195Y-120149014D01*
X202314194Y-120149020D01*
X202298410Y-120268920D01*
X202294318Y-120300000D01*
X97025665Y-120300000D01*
X97019245Y-120181593D01*
X96969754Y-120003341D01*
X96883100Y-119839896D01*
X96763337Y-119698900D01*
X96759493Y-119695977D01*
X96759490Y-119695975D01*
X96638042Y-119603653D01*
X96616064Y-119586946D01*
X96509334Y-119537567D01*
X96452545Y-119511293D01*
X96452541Y-119511291D01*
X96448167Y-119509268D01*
X96443462Y-119508232D01*
X96443455Y-119508230D01*
X96272210Y-119470537D01*
X96272206Y-119470536D01*
X96267497Y-119469500D01*
X96262672Y-119469500D01*
X95545384Y-119469500D01*
X95490804Y-119450799D01*
X95459160Y-119402556D01*
X95463512Y-119348028D01*
X95463375Y-119347990D01*
X95463374Y-119347990D01*
X95476821Y-119300000D01*
X108569318Y-119300000D01*
X108570079Y-119305780D01*
X108589194Y-119450979D01*
X108589195Y-119450983D01*
X108589956Y-119456762D01*
X108592186Y-119462147D01*
X108592188Y-119462152D01*
X108629538Y-119552322D01*
X108650464Y-119602841D01*
X108654014Y-119607468D01*
X108654015Y-119607469D01*
X108735908Y-119714194D01*
X108746718Y-119728282D01*
X108872159Y-119824536D01*
X109018238Y-119885044D01*
X109175000Y-119905682D01*
X109331762Y-119885044D01*
X109477841Y-119824536D01*
X109603282Y-119728282D01*
X109699536Y-119602841D01*
X109760044Y-119456762D01*
X109780682Y-119300000D01*
X110569318Y-119300000D01*
X110570079Y-119305780D01*
X110589194Y-119450979D01*
X110589195Y-119450983D01*
X110589956Y-119456762D01*
X110592186Y-119462147D01*
X110592188Y-119462152D01*
X110629538Y-119552322D01*
X110650464Y-119602841D01*
X110654014Y-119607468D01*
X110654015Y-119607469D01*
X110735908Y-119714194D01*
X110746718Y-119728282D01*
X110872159Y-119824536D01*
X111018238Y-119885044D01*
X111175000Y-119905682D01*
X111331762Y-119885044D01*
X111477841Y-119824536D01*
X111603282Y-119728282D01*
X111699536Y-119602841D01*
X111760044Y-119456762D01*
X111780682Y-119300000D01*
X111764884Y-119180000D01*
X191474318Y-119180000D01*
X191475079Y-119185780D01*
X191494194Y-119330979D01*
X191494195Y-119330983D01*
X191494956Y-119336762D01*
X191497186Y-119342147D01*
X191497188Y-119342152D01*
X191551483Y-119473230D01*
X191555464Y-119482841D01*
X191559014Y-119487468D01*
X191559015Y-119487469D01*
X191627213Y-119576346D01*
X191651718Y-119608282D01*
X191777159Y-119704536D01*
X191923238Y-119765044D01*
X192080000Y-119785682D01*
X192236762Y-119765044D01*
X192382841Y-119704536D01*
X192508282Y-119608282D01*
X192604536Y-119482841D01*
X192665044Y-119336762D01*
X192685682Y-119180000D01*
X192665044Y-119023238D01*
X192655418Y-119000000D01*
X200394318Y-119000000D01*
X200395079Y-119005780D01*
X200414194Y-119150979D01*
X200414195Y-119150983D01*
X200414956Y-119156762D01*
X200417186Y-119162147D01*
X200417188Y-119162152D01*
X200471893Y-119294220D01*
X200475464Y-119302841D01*
X200479014Y-119307468D01*
X200479015Y-119307469D01*
X200551978Y-119402556D01*
X200571718Y-119428282D01*
X200697159Y-119524536D01*
X200843238Y-119585044D01*
X201000000Y-119605682D01*
X201156762Y-119585044D01*
X201302841Y-119524536D01*
X201428282Y-119428282D01*
X201524536Y-119302841D01*
X201585044Y-119156762D01*
X201605682Y-119000000D01*
X201585044Y-118843238D01*
X201524536Y-118697159D01*
X201428282Y-118571718D01*
X201302841Y-118475464D01*
X201302260Y-118475223D01*
X201271536Y-118444502D01*
X201259611Y-118400000D01*
X201271536Y-118355498D01*
X201302260Y-118324776D01*
X201302841Y-118324536D01*
X201428282Y-118228282D01*
X201524536Y-118102841D01*
X201585044Y-117956762D01*
X201605682Y-117800000D01*
X201585044Y-117643238D01*
X201524536Y-117497159D01*
X201428282Y-117371718D01*
X201302841Y-117275464D01*
X201302260Y-117275223D01*
X201271536Y-117244502D01*
X201259611Y-117200000D01*
X201271536Y-117155498D01*
X201302260Y-117124776D01*
X201302841Y-117124536D01*
X201428282Y-117028282D01*
X201524536Y-116902841D01*
X201585044Y-116756762D01*
X201605682Y-116600000D01*
X201585044Y-116443238D01*
X201524536Y-116297159D01*
X201428282Y-116171718D01*
X201302841Y-116075464D01*
X201302260Y-116075223D01*
X201271536Y-116044502D01*
X201259611Y-116000000D01*
X201271536Y-115955498D01*
X201302260Y-115924776D01*
X201302841Y-115924536D01*
X201428282Y-115828282D01*
X201524536Y-115702841D01*
X201585044Y-115556762D01*
X201605682Y-115400000D01*
X201585044Y-115243238D01*
X201525713Y-115100000D01*
X214294318Y-115100000D01*
X214295079Y-115105780D01*
X214314194Y-115250979D01*
X214314195Y-115250983D01*
X214314956Y-115256762D01*
X214317186Y-115262147D01*
X214317188Y-115262152D01*
X214372249Y-115395079D01*
X214375464Y-115402841D01*
X214379014Y-115407468D01*
X214379015Y-115407469D01*
X214411650Y-115450000D01*
X214471718Y-115528282D01*
X214597159Y-115624536D01*
X214743238Y-115685044D01*
X214900000Y-115705682D01*
X215056762Y-115685044D01*
X215202841Y-115624536D01*
X215328282Y-115528282D01*
X215424536Y-115402841D01*
X215485044Y-115256762D01*
X215505682Y-115100000D01*
X215485044Y-114943238D01*
X215424536Y-114797159D01*
X215328282Y-114671718D01*
X215202841Y-114575464D01*
X215197448Y-114573230D01*
X215062152Y-114517188D01*
X215062147Y-114517186D01*
X215056762Y-114514956D01*
X215050983Y-114514195D01*
X215050979Y-114514194D01*
X214905780Y-114495079D01*
X214900000Y-114494318D01*
X214894220Y-114495079D01*
X214749020Y-114514194D01*
X214749014Y-114514195D01*
X214743238Y-114514956D01*
X214737854Y-114517186D01*
X214737847Y-114517188D01*
X214602551Y-114573230D01*
X214602547Y-114573231D01*
X214597159Y-114575464D01*
X214592534Y-114579012D01*
X214592530Y-114579015D01*
X214476346Y-114668166D01*
X214476342Y-114668169D01*
X214471718Y-114671718D01*
X214468169Y-114676342D01*
X214468166Y-114676346D01*
X214379015Y-114792530D01*
X214379012Y-114792534D01*
X214375464Y-114797159D01*
X214373231Y-114802547D01*
X214373230Y-114802551D01*
X214317188Y-114937847D01*
X214317186Y-114937854D01*
X214314956Y-114943238D01*
X214314195Y-114949014D01*
X214314194Y-114949020D01*
X214298995Y-115064476D01*
X214294318Y-115100000D01*
X201525713Y-115100000D01*
X201524536Y-115097159D01*
X201428282Y-114971718D01*
X201412257Y-114959422D01*
X201393262Y-114944846D01*
X201302841Y-114875464D01*
X201302260Y-114875223D01*
X201271536Y-114844502D01*
X201259611Y-114800000D01*
X201271536Y-114755498D01*
X201302260Y-114724776D01*
X201302841Y-114724536D01*
X201428282Y-114628282D01*
X201524536Y-114502841D01*
X201585044Y-114356762D01*
X201605682Y-114200000D01*
X201585044Y-114043238D01*
X201524536Y-113897159D01*
X201428282Y-113771718D01*
X201302841Y-113675464D01*
X201302260Y-113675223D01*
X201271536Y-113644502D01*
X201259611Y-113600000D01*
X201271536Y-113555498D01*
X201302260Y-113524776D01*
X201302841Y-113524536D01*
X201428282Y-113428282D01*
X201524536Y-113302841D01*
X201585044Y-113156762D01*
X201605682Y-113000000D01*
X201585044Y-112843238D01*
X201525713Y-112700000D01*
X213994318Y-112700000D01*
X213995079Y-112705780D01*
X214014194Y-112850979D01*
X214014195Y-112850983D01*
X214014956Y-112856762D01*
X214017186Y-112862147D01*
X214017188Y-112862152D01*
X214072249Y-112995079D01*
X214075464Y-113002841D01*
X214079014Y-113007468D01*
X214079015Y-113007469D01*
X214107166Y-113044156D01*
X214171718Y-113128282D01*
X214297159Y-113224536D01*
X214443238Y-113285044D01*
X214600000Y-113305682D01*
X214756762Y-113285044D01*
X214902841Y-113224536D01*
X215028282Y-113128282D01*
X215124536Y-113002841D01*
X215185044Y-112856762D01*
X215205682Y-112700000D01*
X215185044Y-112543238D01*
X215124536Y-112397159D01*
X215028282Y-112271718D01*
X214902841Y-112175464D01*
X214897448Y-112173230D01*
X214762152Y-112117188D01*
X214762147Y-112117186D01*
X214756762Y-112114956D01*
X214750983Y-112114195D01*
X214750979Y-112114194D01*
X214605780Y-112095079D01*
X214600000Y-112094318D01*
X214594220Y-112095079D01*
X214449020Y-112114194D01*
X214449014Y-112114195D01*
X214443238Y-112114956D01*
X214437854Y-112117186D01*
X214437847Y-112117188D01*
X214302551Y-112173230D01*
X214302547Y-112173231D01*
X214297159Y-112175464D01*
X214292534Y-112179012D01*
X214292530Y-112179015D01*
X214176346Y-112268166D01*
X214176342Y-112268169D01*
X214171718Y-112271718D01*
X214168169Y-112276342D01*
X214168166Y-112276346D01*
X214079015Y-112392530D01*
X214079012Y-112392534D01*
X214075464Y-112397159D01*
X214073231Y-112402547D01*
X214073230Y-112402551D01*
X214017188Y-112537847D01*
X214017186Y-112537854D01*
X214014956Y-112543238D01*
X214014195Y-112549014D01*
X214014194Y-112549020D01*
X213997842Y-112673230D01*
X213994318Y-112700000D01*
X201525713Y-112700000D01*
X201524536Y-112697159D01*
X201428282Y-112571718D01*
X201398701Y-112549020D01*
X201307469Y-112479015D01*
X201307468Y-112479014D01*
X201302841Y-112475464D01*
X201260641Y-112457984D01*
X201162152Y-112417188D01*
X201162147Y-112417186D01*
X201156762Y-112414956D01*
X201150983Y-112414195D01*
X201150979Y-112414194D01*
X201005780Y-112395079D01*
X201000000Y-112394318D01*
X200994220Y-112395079D01*
X200849020Y-112414194D01*
X200849014Y-112414195D01*
X200843238Y-112414956D01*
X200837854Y-112417186D01*
X200837847Y-112417188D01*
X200702551Y-112473230D01*
X200702547Y-112473231D01*
X200697159Y-112475464D01*
X200692534Y-112479012D01*
X200692530Y-112479015D01*
X200576346Y-112568166D01*
X200576342Y-112568169D01*
X200571718Y-112571718D01*
X200568169Y-112576342D01*
X200568166Y-112576346D01*
X200479015Y-112692530D01*
X200479012Y-112692534D01*
X200475464Y-112697159D01*
X200473231Y-112702547D01*
X200473230Y-112702551D01*
X200417188Y-112837847D01*
X200417186Y-112837854D01*
X200414956Y-112843238D01*
X200414195Y-112849014D01*
X200414194Y-112849020D01*
X200398547Y-112967877D01*
X200394318Y-113000000D01*
X200395079Y-113005780D01*
X200414194Y-113150979D01*
X200414195Y-113150983D01*
X200414956Y-113156762D01*
X200417186Y-113162147D01*
X200417188Y-113162152D01*
X200467167Y-113282811D01*
X200475464Y-113302841D01*
X200479014Y-113307468D01*
X200479015Y-113307469D01*
X200560908Y-113414194D01*
X200571718Y-113428282D01*
X200697159Y-113524536D01*
X200697284Y-113524587D01*
X200735021Y-113569560D01*
X200735021Y-113630440D01*
X200697284Y-113675412D01*
X200697159Y-113675464D01*
X200692537Y-113679009D01*
X200692536Y-113679011D01*
X200576346Y-113768166D01*
X200576342Y-113768169D01*
X200571718Y-113771718D01*
X200568169Y-113776342D01*
X200568166Y-113776346D01*
X200479015Y-113892530D01*
X200479012Y-113892534D01*
X200475464Y-113897159D01*
X200473231Y-113902547D01*
X200473230Y-113902551D01*
X200417188Y-114037847D01*
X200417186Y-114037854D01*
X200414956Y-114043238D01*
X200414195Y-114049014D01*
X200414194Y-114049020D01*
X200408244Y-114094220D01*
X200394318Y-114200000D01*
X200395079Y-114205780D01*
X200414194Y-114350979D01*
X200414195Y-114350983D01*
X200414956Y-114356762D01*
X200417186Y-114362147D01*
X200417188Y-114362152D01*
X200472249Y-114495079D01*
X200475464Y-114502841D01*
X200479014Y-114507468D01*
X200479015Y-114507469D01*
X200554376Y-114605682D01*
X200571718Y-114628282D01*
X200697159Y-114724536D01*
X200697284Y-114724587D01*
X200735021Y-114769560D01*
X200735021Y-114830440D01*
X200697284Y-114875412D01*
X200697159Y-114875464D01*
X200692537Y-114879009D01*
X200692536Y-114879011D01*
X200576346Y-114968166D01*
X200576342Y-114968169D01*
X200571718Y-114971718D01*
X200568169Y-114976342D01*
X200568166Y-114976346D01*
X200479015Y-115092530D01*
X200479012Y-115092534D01*
X200475464Y-115097159D01*
X200473231Y-115102547D01*
X200473230Y-115102551D01*
X200417188Y-115237847D01*
X200417186Y-115237854D01*
X200414956Y-115243238D01*
X200414195Y-115249014D01*
X200414194Y-115249020D01*
X200404253Y-115324536D01*
X200394318Y-115400000D01*
X200395079Y-115405780D01*
X200414194Y-115550979D01*
X200414195Y-115550983D01*
X200414956Y-115556762D01*
X200417186Y-115562147D01*
X200417188Y-115562152D01*
X200443029Y-115624536D01*
X200475464Y-115702841D01*
X200479014Y-115707468D01*
X200479015Y-115707469D01*
X200568166Y-115823653D01*
X200571718Y-115828282D01*
X200697159Y-115924536D01*
X200697284Y-115924587D01*
X200735021Y-115969560D01*
X200735021Y-116030440D01*
X200697284Y-116075412D01*
X200697159Y-116075464D01*
X200692537Y-116079009D01*
X200692536Y-116079011D01*
X200576346Y-116168166D01*
X200576342Y-116168169D01*
X200571718Y-116171718D01*
X200568169Y-116176342D01*
X200568166Y-116176346D01*
X200479015Y-116292530D01*
X200479012Y-116292534D01*
X200475464Y-116297159D01*
X200473231Y-116302547D01*
X200473230Y-116302551D01*
X200417188Y-116437847D01*
X200417186Y-116437854D01*
X200414956Y-116443238D01*
X200414195Y-116449014D01*
X200414194Y-116449020D01*
X200404253Y-116524536D01*
X200394318Y-116600000D01*
X200395079Y-116605780D01*
X200414194Y-116750979D01*
X200414195Y-116750983D01*
X200414956Y-116756762D01*
X200417186Y-116762147D01*
X200417188Y-116762152D01*
X200472249Y-116895079D01*
X200475464Y-116902841D01*
X200479014Y-116907468D01*
X200479015Y-116907469D01*
X200494946Y-116928231D01*
X200571718Y-117028282D01*
X200697159Y-117124536D01*
X200697281Y-117124586D01*
X200735018Y-117169552D01*
X200735023Y-117230431D01*
X200697287Y-117275410D01*
X200697159Y-117275464D01*
X200692544Y-117279004D01*
X200692539Y-117279008D01*
X200576346Y-117368166D01*
X200576342Y-117368169D01*
X200571718Y-117371718D01*
X200568169Y-117376342D01*
X200568166Y-117376346D01*
X200479015Y-117492530D01*
X200479012Y-117492534D01*
X200475464Y-117497159D01*
X200473231Y-117502547D01*
X200473230Y-117502551D01*
X200417188Y-117637847D01*
X200417186Y-117637854D01*
X200414956Y-117643238D01*
X200414195Y-117649014D01*
X200414194Y-117649020D01*
X200396272Y-117785151D01*
X200394318Y-117800000D01*
X200395079Y-117805780D01*
X200414194Y-117950979D01*
X200414195Y-117950983D01*
X200414956Y-117956762D01*
X200417186Y-117962147D01*
X200417188Y-117962152D01*
X200443029Y-118024536D01*
X200475464Y-118102841D01*
X200479014Y-118107468D01*
X200479015Y-118107469D01*
X200568166Y-118223653D01*
X200571718Y-118228282D01*
X200697159Y-118324536D01*
X200697281Y-118324586D01*
X200735018Y-118369552D01*
X200735023Y-118430431D01*
X200697287Y-118475410D01*
X200697159Y-118475464D01*
X200692544Y-118479004D01*
X200692539Y-118479008D01*
X200576346Y-118568166D01*
X200576342Y-118568169D01*
X200571718Y-118571718D01*
X200568169Y-118576342D01*
X200568166Y-118576346D01*
X200479015Y-118692530D01*
X200479012Y-118692534D01*
X200475464Y-118697159D01*
X200473231Y-118702547D01*
X200473230Y-118702551D01*
X200417188Y-118837847D01*
X200417186Y-118837854D01*
X200414956Y-118843238D01*
X200414195Y-118849014D01*
X200414194Y-118849020D01*
X200404253Y-118924536D01*
X200394318Y-119000000D01*
X192655418Y-119000000D01*
X192604536Y-118877159D01*
X192508282Y-118751718D01*
X192450622Y-118707474D01*
X192387469Y-118659015D01*
X192387468Y-118659014D01*
X192382841Y-118655464D01*
X192377448Y-118653230D01*
X192242152Y-118597188D01*
X192242147Y-118597186D01*
X192236762Y-118594956D01*
X192230983Y-118594195D01*
X192230979Y-118594194D01*
X192085780Y-118575079D01*
X192080000Y-118574318D01*
X192074220Y-118575079D01*
X191929020Y-118594194D01*
X191929014Y-118594195D01*
X191923238Y-118594956D01*
X191917854Y-118597186D01*
X191917847Y-118597188D01*
X191782551Y-118653230D01*
X191782547Y-118653231D01*
X191777159Y-118655464D01*
X191772534Y-118659012D01*
X191772530Y-118659015D01*
X191656346Y-118748166D01*
X191656342Y-118748169D01*
X191651718Y-118751718D01*
X191648169Y-118756342D01*
X191648166Y-118756346D01*
X191559015Y-118872530D01*
X191559012Y-118872534D01*
X191555464Y-118877159D01*
X191553231Y-118882547D01*
X191553230Y-118882551D01*
X191497188Y-119017847D01*
X191497186Y-119017854D01*
X191494956Y-119023238D01*
X191494195Y-119029014D01*
X191494194Y-119029020D01*
X191478139Y-119150979D01*
X191474318Y-119180000D01*
X111764884Y-119180000D01*
X111760044Y-119143238D01*
X111699536Y-118997159D01*
X111695983Y-118992529D01*
X111695981Y-118992525D01*
X111628191Y-118904179D01*
X111609799Y-118849999D01*
X111628190Y-118795820D01*
X111699536Y-118702841D01*
X111760044Y-118556762D01*
X111780682Y-118400000D01*
X182394318Y-118400000D01*
X182395079Y-118405780D01*
X182414194Y-118550979D01*
X182414195Y-118550983D01*
X182414956Y-118556762D01*
X182417186Y-118562147D01*
X182417188Y-118562152D01*
X182471193Y-118692530D01*
X182475464Y-118702841D01*
X182479014Y-118707468D01*
X182479015Y-118707469D01*
X182516520Y-118756346D01*
X182571718Y-118828282D01*
X182697159Y-118924536D01*
X182843238Y-118985044D01*
X183000000Y-119005682D01*
X183156762Y-118985044D01*
X183302841Y-118924536D01*
X183428282Y-118828282D01*
X183524536Y-118702841D01*
X183585044Y-118556762D01*
X183605682Y-118400000D01*
X183585044Y-118243238D01*
X183524536Y-118097159D01*
X183428282Y-117971718D01*
X183401254Y-117950979D01*
X183307469Y-117879015D01*
X183307468Y-117879014D01*
X183302841Y-117875464D01*
X183297448Y-117873230D01*
X183162152Y-117817188D01*
X183162147Y-117817186D01*
X183156762Y-117814956D01*
X183150983Y-117814195D01*
X183150979Y-117814194D01*
X183005780Y-117795079D01*
X183000000Y-117794318D01*
X182994220Y-117795079D01*
X182849020Y-117814194D01*
X182849014Y-117814195D01*
X182843238Y-117814956D01*
X182837854Y-117817186D01*
X182837847Y-117817188D01*
X182702551Y-117873230D01*
X182702547Y-117873231D01*
X182697159Y-117875464D01*
X182692534Y-117879012D01*
X182692530Y-117879015D01*
X182576346Y-117968166D01*
X182576342Y-117968169D01*
X182571718Y-117971718D01*
X182568169Y-117976342D01*
X182568166Y-117976346D01*
X182479015Y-118092530D01*
X182479012Y-118092534D01*
X182475464Y-118097159D01*
X182473231Y-118102547D01*
X182473230Y-118102551D01*
X182417188Y-118237847D01*
X182417186Y-118237854D01*
X182414956Y-118243238D01*
X182414195Y-118249014D01*
X182414194Y-118249020D01*
X182397478Y-118376000D01*
X182394318Y-118400000D01*
X111780682Y-118400000D01*
X111760044Y-118243238D01*
X111699536Y-118097159D01*
X111695983Y-118092529D01*
X111695981Y-118092525D01*
X111628191Y-118004179D01*
X111609799Y-117949999D01*
X111628190Y-117895820D01*
X111699536Y-117802841D01*
X111721423Y-117750000D01*
X160644318Y-117750000D01*
X160645079Y-117755780D01*
X160664194Y-117900979D01*
X160664195Y-117900983D01*
X160664956Y-117906762D01*
X160667186Y-117912147D01*
X160667188Y-117912152D01*
X160723230Y-118047448D01*
X160725464Y-118052841D01*
X160729014Y-118057468D01*
X160729015Y-118057469D01*
X160755915Y-118092526D01*
X160821718Y-118178282D01*
X160947159Y-118274536D01*
X161093238Y-118335044D01*
X161250000Y-118355682D01*
X161406762Y-118335044D01*
X161552841Y-118274536D01*
X161678282Y-118178282D01*
X161774536Y-118052841D01*
X161835044Y-117906762D01*
X161855682Y-117750000D01*
X161835044Y-117593238D01*
X161796423Y-117500000D01*
X187993818Y-117500000D01*
X187994579Y-117505780D01*
X188013694Y-117650979D01*
X188013695Y-117650983D01*
X188014456Y-117656762D01*
X188016686Y-117662147D01*
X188016688Y-117662152D01*
X188071749Y-117795079D01*
X188074964Y-117802841D01*
X188171218Y-117928282D01*
X188296659Y-118024536D01*
X188442738Y-118085044D01*
X188599500Y-118105682D01*
X188756262Y-118085044D01*
X188902341Y-118024536D01*
X189027782Y-117928282D01*
X189124036Y-117802841D01*
X189184544Y-117656762D01*
X189205182Y-117500000D01*
X189184544Y-117343238D01*
X189124036Y-117197159D01*
X189027782Y-117071718D01*
X188927217Y-116994552D01*
X188906969Y-116979015D01*
X188906968Y-116979014D01*
X188902341Y-116975464D01*
X188896948Y-116973230D01*
X188761652Y-116917188D01*
X188761647Y-116917186D01*
X188756262Y-116914956D01*
X188750483Y-116914195D01*
X188750479Y-116914194D01*
X188605280Y-116895079D01*
X188599500Y-116894318D01*
X188593720Y-116895079D01*
X188448520Y-116914194D01*
X188448514Y-116914195D01*
X188442738Y-116914956D01*
X188437354Y-116917186D01*
X188437347Y-116917188D01*
X188302051Y-116973230D01*
X188302047Y-116973231D01*
X188296659Y-116975464D01*
X188292034Y-116979012D01*
X188292030Y-116979015D01*
X188175846Y-117068166D01*
X188175842Y-117068169D01*
X188171218Y-117071718D01*
X188167669Y-117076342D01*
X188167666Y-117076346D01*
X188078515Y-117192530D01*
X188078512Y-117192534D01*
X188074964Y-117197159D01*
X188072731Y-117202547D01*
X188072730Y-117202551D01*
X188016688Y-117337847D01*
X188016686Y-117337854D01*
X188014456Y-117343238D01*
X188013695Y-117349014D01*
X188013694Y-117349020D01*
X188000065Y-117452551D01*
X187993818Y-117500000D01*
X161796423Y-117500000D01*
X161774536Y-117447159D01*
X161678282Y-117321718D01*
X161620097Y-117277071D01*
X161557469Y-117229015D01*
X161557468Y-117229014D01*
X161552841Y-117225464D01*
X161547448Y-117223230D01*
X161412152Y-117167188D01*
X161412147Y-117167186D01*
X161406762Y-117164956D01*
X161400983Y-117164195D01*
X161400979Y-117164194D01*
X161255780Y-117145079D01*
X161250000Y-117144318D01*
X161244220Y-117145079D01*
X161099020Y-117164194D01*
X161099014Y-117164195D01*
X161093238Y-117164956D01*
X161087854Y-117167186D01*
X161087847Y-117167188D01*
X160952551Y-117223230D01*
X160952547Y-117223231D01*
X160947159Y-117225464D01*
X160942534Y-117229012D01*
X160942530Y-117229015D01*
X160826346Y-117318166D01*
X160826342Y-117318169D01*
X160821718Y-117321718D01*
X160818169Y-117326342D01*
X160818166Y-117326346D01*
X160729015Y-117442530D01*
X160729012Y-117442534D01*
X160725464Y-117447159D01*
X160723231Y-117452547D01*
X160723230Y-117452551D01*
X160667188Y-117587847D01*
X160667186Y-117587854D01*
X160664956Y-117593238D01*
X160664195Y-117599014D01*
X160664194Y-117599020D01*
X160655883Y-117662152D01*
X160644318Y-117750000D01*
X111721423Y-117750000D01*
X111760044Y-117656762D01*
X111780682Y-117500000D01*
X111760044Y-117343238D01*
X111699536Y-117197159D01*
X111603282Y-117071718D01*
X111502717Y-116994552D01*
X111482469Y-116979015D01*
X111482468Y-116979014D01*
X111477841Y-116975464D01*
X111472448Y-116973230D01*
X111337152Y-116917188D01*
X111337147Y-116917186D01*
X111331762Y-116914956D01*
X111325983Y-116914195D01*
X111325979Y-116914194D01*
X111180780Y-116895079D01*
X111175000Y-116894318D01*
X111169220Y-116895079D01*
X111024020Y-116914194D01*
X111024014Y-116914195D01*
X111018238Y-116914956D01*
X111012854Y-116917186D01*
X111012847Y-116917188D01*
X110877551Y-116973230D01*
X110877547Y-116973231D01*
X110872159Y-116975464D01*
X110867534Y-116979012D01*
X110867530Y-116979015D01*
X110751346Y-117068166D01*
X110751342Y-117068169D01*
X110746718Y-117071718D01*
X110743169Y-117076342D01*
X110743166Y-117076346D01*
X110654015Y-117192530D01*
X110654012Y-117192534D01*
X110650464Y-117197159D01*
X110648231Y-117202547D01*
X110648230Y-117202551D01*
X110592188Y-117337847D01*
X110592186Y-117337854D01*
X110589956Y-117343238D01*
X110589195Y-117349014D01*
X110589194Y-117349020D01*
X110575565Y-117452551D01*
X110569318Y-117500000D01*
X110570079Y-117505780D01*
X110589194Y-117650979D01*
X110589195Y-117650983D01*
X110589956Y-117656762D01*
X110592186Y-117662147D01*
X110592188Y-117662152D01*
X110647249Y-117795079D01*
X110650464Y-117802841D01*
X110654014Y-117807468D01*
X110654018Y-117807474D01*
X110721808Y-117895819D01*
X110740200Y-117949999D01*
X110721809Y-118004178D01*
X110654018Y-118092526D01*
X110654016Y-118092530D01*
X110650464Y-118097159D01*
X110648231Y-118102547D01*
X110648230Y-118102551D01*
X110592188Y-118237847D01*
X110592186Y-118237854D01*
X110589956Y-118243238D01*
X110589195Y-118249014D01*
X110589194Y-118249020D01*
X110572478Y-118376000D01*
X110569318Y-118400000D01*
X110570079Y-118405780D01*
X110589194Y-118550979D01*
X110589195Y-118550983D01*
X110589956Y-118556762D01*
X110592186Y-118562147D01*
X110592188Y-118562152D01*
X110646193Y-118692530D01*
X110650464Y-118702841D01*
X110654014Y-118707468D01*
X110654018Y-118707474D01*
X110721808Y-118795819D01*
X110740200Y-118849999D01*
X110721809Y-118904178D01*
X110654018Y-118992526D01*
X110654014Y-118992531D01*
X110650464Y-118997159D01*
X110648231Y-119002547D01*
X110648230Y-119002551D01*
X110592188Y-119137847D01*
X110592186Y-119137854D01*
X110589956Y-119143238D01*
X110589195Y-119149014D01*
X110589194Y-119149020D01*
X110586966Y-119165946D01*
X110569318Y-119300000D01*
X109780682Y-119300000D01*
X109760044Y-119143238D01*
X109699536Y-118997159D01*
X109695983Y-118992529D01*
X109695981Y-118992525D01*
X109628191Y-118904179D01*
X109609799Y-118849999D01*
X109628190Y-118795820D01*
X109699536Y-118702841D01*
X109760044Y-118556762D01*
X109780682Y-118400000D01*
X109760044Y-118243238D01*
X109699536Y-118097159D01*
X109695983Y-118092529D01*
X109695981Y-118092525D01*
X109628191Y-118004179D01*
X109609799Y-117949999D01*
X109628190Y-117895820D01*
X109699536Y-117802841D01*
X109760044Y-117656762D01*
X109780682Y-117500000D01*
X109760044Y-117343238D01*
X109699536Y-117197159D01*
X109603282Y-117071718D01*
X109502717Y-116994552D01*
X109482469Y-116979015D01*
X109482468Y-116979014D01*
X109477841Y-116975464D01*
X109472448Y-116973230D01*
X109337152Y-116917188D01*
X109337147Y-116917186D01*
X109331762Y-116914956D01*
X109325983Y-116914195D01*
X109325979Y-116914194D01*
X109180780Y-116895079D01*
X109175000Y-116894318D01*
X109169220Y-116895079D01*
X109024020Y-116914194D01*
X109024014Y-116914195D01*
X109018238Y-116914956D01*
X109012854Y-116917186D01*
X109012847Y-116917188D01*
X108877551Y-116973230D01*
X108877547Y-116973231D01*
X108872159Y-116975464D01*
X108867534Y-116979012D01*
X108867530Y-116979015D01*
X108751346Y-117068166D01*
X108751342Y-117068169D01*
X108746718Y-117071718D01*
X108743169Y-117076342D01*
X108743166Y-117076346D01*
X108654015Y-117192530D01*
X108654012Y-117192534D01*
X108650464Y-117197159D01*
X108648231Y-117202547D01*
X108648230Y-117202551D01*
X108592188Y-117337847D01*
X108592186Y-117337854D01*
X108589956Y-117343238D01*
X108589195Y-117349014D01*
X108589194Y-117349020D01*
X108575565Y-117452551D01*
X108569318Y-117500000D01*
X108570079Y-117505780D01*
X108589194Y-117650979D01*
X108589195Y-117650983D01*
X108589956Y-117656762D01*
X108592186Y-117662147D01*
X108592188Y-117662152D01*
X108647249Y-117795079D01*
X108650464Y-117802841D01*
X108654014Y-117807468D01*
X108654018Y-117807474D01*
X108721808Y-117895819D01*
X108740200Y-117949999D01*
X108721809Y-118004178D01*
X108654018Y-118092526D01*
X108654016Y-118092530D01*
X108650464Y-118097159D01*
X108648231Y-118102547D01*
X108648230Y-118102551D01*
X108592188Y-118237847D01*
X108592186Y-118237854D01*
X108589956Y-118243238D01*
X108589195Y-118249014D01*
X108589194Y-118249020D01*
X108572478Y-118376000D01*
X108569318Y-118400000D01*
X108570079Y-118405780D01*
X108589194Y-118550979D01*
X108589195Y-118550983D01*
X108589956Y-118556762D01*
X108592186Y-118562147D01*
X108592188Y-118562152D01*
X108646193Y-118692530D01*
X108650464Y-118702841D01*
X108654014Y-118707468D01*
X108654018Y-118707474D01*
X108721808Y-118795819D01*
X108740200Y-118849999D01*
X108721809Y-118904178D01*
X108654018Y-118992526D01*
X108654014Y-118992531D01*
X108650464Y-118997159D01*
X108648231Y-119002547D01*
X108648230Y-119002551D01*
X108592188Y-119137847D01*
X108592186Y-119137854D01*
X108589956Y-119143238D01*
X108589195Y-119149014D01*
X108589194Y-119149020D01*
X108586966Y-119165946D01*
X108569318Y-119300000D01*
X95476821Y-119300000D01*
X95504500Y-119201214D01*
X95504500Y-118837073D01*
X95488957Y-118723991D01*
X95428230Y-118584182D01*
X95332034Y-118465942D01*
X95327059Y-118462430D01*
X95212477Y-118381549D01*
X95212475Y-118381548D01*
X95207504Y-118378039D01*
X95183624Y-118369552D01*
X95069615Y-118329033D01*
X95069613Y-118329032D01*
X95063877Y-118326994D01*
X95057808Y-118326578D01*
X95057804Y-118326578D01*
X94917877Y-118317007D01*
X94917874Y-118317007D01*
X94911804Y-118316592D01*
X94905847Y-118317829D01*
X94905843Y-118317830D01*
X94768520Y-118346366D01*
X94768517Y-118346366D01*
X94762564Y-118347604D01*
X94757168Y-118350399D01*
X94757162Y-118350402D01*
X94632631Y-118414929D01*
X94632626Y-118414932D01*
X94627225Y-118417731D01*
X94622775Y-118421886D01*
X94622772Y-118421889D01*
X94520274Y-118517615D01*
X94520270Y-118517619D01*
X94515824Y-118521772D01*
X94512662Y-118526971D01*
X94512660Y-118526974D01*
X94439789Y-118646806D01*
X94439787Y-118646809D01*
X94436625Y-118652010D01*
X94434984Y-118657865D01*
X94434982Y-118657871D01*
X94407391Y-118756346D01*
X94395500Y-118798786D01*
X94395500Y-119162927D01*
X94395915Y-119165946D01*
X94410213Y-119269975D01*
X94410214Y-119269979D01*
X94411043Y-119276009D01*
X94413468Y-119281592D01*
X94413469Y-119281595D01*
X94469344Y-119410234D01*
X94469345Y-119410237D01*
X94471770Y-119415818D01*
X94567966Y-119534058D01*
X94593844Y-119552324D01*
X94625604Y-119593131D01*
X94629316Y-119644710D01*
X94603724Y-119689645D01*
X94522959Y-119766151D01*
X94520254Y-119770139D01*
X94520250Y-119770145D01*
X94421849Y-119915276D01*
X94421845Y-119915282D01*
X94419142Y-119919270D01*
X94417358Y-119923746D01*
X94417356Y-119923751D01*
X94352453Y-120086646D01*
X94352451Y-120086650D01*
X94350669Y-120091125D01*
X94349890Y-120095873D01*
X94349889Y-120095879D01*
X94321520Y-120268920D01*
X94321519Y-120268927D01*
X94320740Y-120273683D01*
X93349238Y-120273683D01*
X93344245Y-120181593D01*
X93294754Y-120003341D01*
X93208100Y-119839896D01*
X93088337Y-119698900D01*
X93084493Y-119695977D01*
X93084490Y-119695975D01*
X92963042Y-119603653D01*
X92941064Y-119586946D01*
X92834334Y-119537567D01*
X92777545Y-119511293D01*
X92777541Y-119511291D01*
X92773167Y-119509268D01*
X92768462Y-119508232D01*
X92768455Y-119508230D01*
X92597210Y-119470537D01*
X92597206Y-119470536D01*
X92592497Y-119469500D01*
X91153887Y-119469500D01*
X91151501Y-119469759D01*
X91151491Y-119469760D01*
X91020894Y-119483963D01*
X91020889Y-119483964D01*
X91016090Y-119484486D01*
X91011518Y-119486026D01*
X91011511Y-119486028D01*
X90845349Y-119542015D01*
X90845339Y-119542019D01*
X90840779Y-119543556D01*
X90836651Y-119546039D01*
X90836648Y-119546041D01*
X90686393Y-119636445D01*
X90686388Y-119636448D01*
X90682264Y-119638930D01*
X90678767Y-119642241D01*
X90678761Y-119642247D01*
X90551465Y-119762829D01*
X90551460Y-119762833D01*
X90547959Y-119766151D01*
X90545254Y-119770139D01*
X90545250Y-119770145D01*
X90446849Y-119915276D01*
X90446845Y-119915282D01*
X90444142Y-119919270D01*
X90442358Y-119923746D01*
X90442356Y-119923751D01*
X90377453Y-120086646D01*
X90377451Y-120086650D01*
X90375669Y-120091125D01*
X90374890Y-120095873D01*
X90374889Y-120095879D01*
X90346520Y-120268920D01*
X90346519Y-120268927D01*
X90345740Y-120273683D01*
X90000500Y-120273683D01*
X90000500Y-116000000D01*
X93294318Y-116000000D01*
X93295079Y-116005780D01*
X93314194Y-116150979D01*
X93314195Y-116150983D01*
X93314956Y-116156762D01*
X93317186Y-116162147D01*
X93317188Y-116162152D01*
X93371193Y-116292530D01*
X93375464Y-116302841D01*
X93379014Y-116307468D01*
X93379015Y-116307469D01*
X93456003Y-116407802D01*
X93471718Y-116428282D01*
X93597159Y-116524536D01*
X93743238Y-116585044D01*
X93900000Y-116605682D01*
X94056762Y-116585044D01*
X94202841Y-116524536D01*
X94328282Y-116428282D01*
X94379390Y-116361675D01*
X94423235Y-116330974D01*
X94476761Y-116330974D01*
X94520607Y-116361675D01*
X94568161Y-116423648D01*
X94568166Y-116423653D01*
X94571718Y-116428282D01*
X94697159Y-116524536D01*
X94843238Y-116585044D01*
X95000000Y-116605682D01*
X95156762Y-116585044D01*
X95302841Y-116524536D01*
X95428282Y-116428282D01*
X95524536Y-116302841D01*
X95585044Y-116156762D01*
X95605682Y-116000000D01*
X95592517Y-115900000D01*
X122194318Y-115900000D01*
X122195079Y-115905780D01*
X122214194Y-116050979D01*
X122214195Y-116050983D01*
X122214956Y-116056762D01*
X122217186Y-116062147D01*
X122217188Y-116062152D01*
X122253982Y-116150979D01*
X122275464Y-116202841D01*
X122279014Y-116207468D01*
X122279015Y-116207469D01*
X122351974Y-116302551D01*
X122371718Y-116328282D01*
X122497159Y-116424536D01*
X122643238Y-116485044D01*
X122800000Y-116505682D01*
X122955347Y-116485230D01*
X123011463Y-116496392D01*
X123049189Y-116539409D01*
X123075464Y-116602841D01*
X123171718Y-116728282D01*
X123297159Y-116824536D01*
X123443238Y-116885044D01*
X123600000Y-116905682D01*
X123756762Y-116885044D01*
X123793690Y-116869748D01*
X167269500Y-116869748D01*
X167270350Y-116874022D01*
X167270351Y-116874030D01*
X167277003Y-116907469D01*
X167281133Y-116928231D01*
X167286004Y-116935521D01*
X167286005Y-116935523D01*
X167315066Y-116979015D01*
X167325448Y-116994552D01*
X167391769Y-117038867D01*
X167450252Y-117050500D01*
X169185381Y-117050500D01*
X169189748Y-117050500D01*
X169248231Y-117038867D01*
X169314552Y-116994552D01*
X169358867Y-116928231D01*
X169370500Y-116869748D01*
X169370500Y-116000000D01*
X169804417Y-116000000D01*
X169804846Y-116004356D01*
X169824271Y-116201585D01*
X169824272Y-116201591D01*
X169824700Y-116205934D01*
X169825966Y-116210108D01*
X169825967Y-116210112D01*
X169855500Y-116307469D01*
X169884768Y-116403954D01*
X169982315Y-116586450D01*
X170113590Y-116746410D01*
X170273550Y-116877685D01*
X170456046Y-116975232D01*
X170654066Y-117035300D01*
X170860000Y-117055583D01*
X171065934Y-117035300D01*
X171263954Y-116975232D01*
X171446450Y-116877685D01*
X171606410Y-116746410D01*
X171737685Y-116586450D01*
X171835232Y-116403954D01*
X171895300Y-116205934D01*
X171915583Y-116000000D01*
X174884417Y-116000000D01*
X174884846Y-116004356D01*
X174904271Y-116201585D01*
X174904272Y-116201591D01*
X174904700Y-116205934D01*
X174905966Y-116210108D01*
X174905967Y-116210112D01*
X174935500Y-116307469D01*
X174964768Y-116403954D01*
X175062315Y-116586450D01*
X175193590Y-116746410D01*
X175353550Y-116877685D01*
X175536046Y-116975232D01*
X175734066Y-117035300D01*
X175940000Y-117055583D01*
X176145934Y-117035300D01*
X176343954Y-116975232D01*
X176526450Y-116877685D01*
X176686410Y-116746410D01*
X176817685Y-116586450D01*
X176915232Y-116403954D01*
X176975300Y-116205934D01*
X176995583Y-116000000D01*
X177424417Y-116000000D01*
X177424846Y-116004356D01*
X177444271Y-116201585D01*
X177444272Y-116201591D01*
X177444700Y-116205934D01*
X177445966Y-116210108D01*
X177445967Y-116210112D01*
X177475500Y-116307469D01*
X177504768Y-116403954D01*
X177602315Y-116586450D01*
X177733590Y-116746410D01*
X177893550Y-116877685D01*
X178076046Y-116975232D01*
X178274066Y-117035300D01*
X178480000Y-117055583D01*
X178685934Y-117035300D01*
X178883954Y-116975232D01*
X179066450Y-116877685D01*
X179226410Y-116746410D01*
X179357685Y-116586450D01*
X179455232Y-116403954D01*
X179515300Y-116205934D01*
X179535583Y-116000000D01*
X179964417Y-116000000D01*
X179964846Y-116004356D01*
X179984271Y-116201585D01*
X179984272Y-116201591D01*
X179984700Y-116205934D01*
X179985966Y-116210108D01*
X179985967Y-116210112D01*
X180015500Y-116307469D01*
X180044768Y-116403954D01*
X180142315Y-116586450D01*
X180273590Y-116746410D01*
X180433550Y-116877685D01*
X180616046Y-116975232D01*
X180814066Y-117035300D01*
X181020000Y-117055583D01*
X181225934Y-117035300D01*
X181423954Y-116975232D01*
X181606450Y-116877685D01*
X181766410Y-116746410D01*
X181897685Y-116586450D01*
X181995232Y-116403954D01*
X182055300Y-116205934D01*
X182075583Y-116000000D01*
X182055300Y-115794066D01*
X181995232Y-115596046D01*
X181897685Y-115413550D01*
X181766410Y-115253590D01*
X181616121Y-115130252D01*
X181609829Y-115125088D01*
X181609828Y-115125087D01*
X181606450Y-115122315D01*
X181423954Y-115024768D01*
X181360264Y-115005448D01*
X181230112Y-114965967D01*
X181230108Y-114965966D01*
X181225934Y-114964700D01*
X181221591Y-114964272D01*
X181221585Y-114964271D01*
X181024356Y-114944846D01*
X181020000Y-114944417D01*
X181015644Y-114944846D01*
X180818414Y-114964271D01*
X180818406Y-114964272D01*
X180814066Y-114964700D01*
X180809893Y-114965965D01*
X180809887Y-114965967D01*
X180620222Y-115023501D01*
X180620219Y-115023501D01*
X180616046Y-115024768D01*
X180612199Y-115026823D01*
X180612197Y-115026825D01*
X180437403Y-115120255D01*
X180437399Y-115120257D01*
X180433550Y-115122315D01*
X180430175Y-115125084D01*
X180430170Y-115125088D01*
X180276974Y-115250812D01*
X180276969Y-115250816D01*
X180273590Y-115253590D01*
X180270816Y-115256969D01*
X180270812Y-115256974D01*
X180145088Y-115410170D01*
X180145084Y-115410175D01*
X180142315Y-115413550D01*
X180140257Y-115417399D01*
X180140255Y-115417403D01*
X180055298Y-115576346D01*
X180044768Y-115596046D01*
X180043501Y-115600219D01*
X180043501Y-115600222D01*
X179985967Y-115789887D01*
X179985965Y-115789893D01*
X179984700Y-115794066D01*
X179984272Y-115798406D01*
X179984271Y-115798414D01*
X179968800Y-115955498D01*
X179964417Y-116000000D01*
X179535583Y-116000000D01*
X179515300Y-115794066D01*
X179455232Y-115596046D01*
X179357685Y-115413550D01*
X179226410Y-115253590D01*
X179076121Y-115130252D01*
X179069829Y-115125088D01*
X179069828Y-115125087D01*
X179066450Y-115122315D01*
X178883954Y-115024768D01*
X178820264Y-115005448D01*
X178690112Y-114965967D01*
X178690108Y-114965966D01*
X178685934Y-114964700D01*
X178681591Y-114964272D01*
X178681585Y-114964271D01*
X178484356Y-114944846D01*
X178480000Y-114944417D01*
X178475644Y-114944846D01*
X178278414Y-114964271D01*
X178278406Y-114964272D01*
X178274066Y-114964700D01*
X178269893Y-114965965D01*
X178269887Y-114965967D01*
X178080222Y-115023501D01*
X178080219Y-115023501D01*
X178076046Y-115024768D01*
X178072199Y-115026823D01*
X178072197Y-115026825D01*
X177897403Y-115120255D01*
X177897399Y-115120257D01*
X177893550Y-115122315D01*
X177890175Y-115125084D01*
X177890170Y-115125088D01*
X177736974Y-115250812D01*
X177736969Y-115250816D01*
X177733590Y-115253590D01*
X177730816Y-115256969D01*
X177730812Y-115256974D01*
X177605088Y-115410170D01*
X177605084Y-115410175D01*
X177602315Y-115413550D01*
X177600257Y-115417399D01*
X177600255Y-115417403D01*
X177515298Y-115576346D01*
X177504768Y-115596046D01*
X177503501Y-115600219D01*
X177503501Y-115600222D01*
X177445967Y-115789887D01*
X177445965Y-115789893D01*
X177444700Y-115794066D01*
X177444272Y-115798406D01*
X177444271Y-115798414D01*
X177428800Y-115955498D01*
X177424417Y-116000000D01*
X176995583Y-116000000D01*
X176975300Y-115794066D01*
X176915232Y-115596046D01*
X176817685Y-115413550D01*
X176686410Y-115253590D01*
X176536121Y-115130252D01*
X176529829Y-115125088D01*
X176529828Y-115125087D01*
X176526450Y-115122315D01*
X176343954Y-115024768D01*
X176280264Y-115005448D01*
X176150112Y-114965967D01*
X176150108Y-114965966D01*
X176145934Y-114964700D01*
X176141591Y-114964272D01*
X176141585Y-114964271D01*
X175944356Y-114944846D01*
X175940000Y-114944417D01*
X175935644Y-114944846D01*
X175738414Y-114964271D01*
X175738406Y-114964272D01*
X175734066Y-114964700D01*
X175729893Y-114965965D01*
X175729887Y-114965967D01*
X175540222Y-115023501D01*
X175540219Y-115023501D01*
X175536046Y-115024768D01*
X175532199Y-115026823D01*
X175532197Y-115026825D01*
X175357403Y-115120255D01*
X175357399Y-115120257D01*
X175353550Y-115122315D01*
X175350175Y-115125084D01*
X175350170Y-115125088D01*
X175196974Y-115250812D01*
X175196969Y-115250816D01*
X175193590Y-115253590D01*
X175190816Y-115256969D01*
X175190812Y-115256974D01*
X175065088Y-115410170D01*
X175065084Y-115410175D01*
X175062315Y-115413550D01*
X175060257Y-115417399D01*
X175060255Y-115417403D01*
X174975298Y-115576346D01*
X174964768Y-115596046D01*
X174963501Y-115600219D01*
X174963501Y-115600222D01*
X174905967Y-115789887D01*
X174905965Y-115789893D01*
X174904700Y-115794066D01*
X174904272Y-115798406D01*
X174904271Y-115798414D01*
X174888800Y-115955498D01*
X174884417Y-116000000D01*
X171915583Y-116000000D01*
X171895300Y-115794066D01*
X171835232Y-115596046D01*
X171737685Y-115413550D01*
X171606410Y-115253590D01*
X171456121Y-115130252D01*
X171449829Y-115125088D01*
X171449828Y-115125087D01*
X171446450Y-115122315D01*
X171263954Y-115024768D01*
X171200264Y-115005448D01*
X171070112Y-114965967D01*
X171070108Y-114965966D01*
X171065934Y-114964700D01*
X171061591Y-114964272D01*
X171061585Y-114964271D01*
X170864356Y-114944846D01*
X170860000Y-114944417D01*
X170855644Y-114944846D01*
X170658414Y-114964271D01*
X170658406Y-114964272D01*
X170654066Y-114964700D01*
X170649893Y-114965965D01*
X170649887Y-114965967D01*
X170460222Y-115023501D01*
X170460219Y-115023501D01*
X170456046Y-115024768D01*
X170452199Y-115026823D01*
X170452197Y-115026825D01*
X170277403Y-115120255D01*
X170277399Y-115120257D01*
X170273550Y-115122315D01*
X170270175Y-115125084D01*
X170270170Y-115125088D01*
X170116974Y-115250812D01*
X170116969Y-115250816D01*
X170113590Y-115253590D01*
X170110816Y-115256969D01*
X170110812Y-115256974D01*
X169985088Y-115410170D01*
X169985084Y-115410175D01*
X169982315Y-115413550D01*
X169980257Y-115417399D01*
X169980255Y-115417403D01*
X169895298Y-115576346D01*
X169884768Y-115596046D01*
X169883501Y-115600219D01*
X169883501Y-115600222D01*
X169825967Y-115789887D01*
X169825965Y-115789893D01*
X169824700Y-115794066D01*
X169824272Y-115798406D01*
X169824271Y-115798414D01*
X169808800Y-115955498D01*
X169804417Y-116000000D01*
X169370500Y-116000000D01*
X169370500Y-115130252D01*
X169358867Y-115071769D01*
X169314552Y-115005448D01*
X169306399Y-115000000D01*
X169255523Y-114966005D01*
X169255521Y-114966004D01*
X169248231Y-114961133D01*
X169239630Y-114959422D01*
X169194030Y-114950351D01*
X169194022Y-114950350D01*
X169189748Y-114949500D01*
X167450252Y-114949500D01*
X167445978Y-114950350D01*
X167445969Y-114950351D01*
X167400369Y-114959422D01*
X167400367Y-114959422D01*
X167391769Y-114961133D01*
X167384480Y-114966003D01*
X167384476Y-114966005D01*
X167332741Y-115000574D01*
X167332738Y-115000576D01*
X167325448Y-115005448D01*
X167320576Y-115012738D01*
X167320574Y-115012741D01*
X167286005Y-115064476D01*
X167286003Y-115064480D01*
X167281133Y-115071769D01*
X167279422Y-115080367D01*
X167279422Y-115080369D01*
X167270351Y-115125969D01*
X167270350Y-115125978D01*
X167269500Y-115130252D01*
X167269500Y-116869748D01*
X123793690Y-116869748D01*
X123902841Y-116824536D01*
X124028282Y-116728282D01*
X124124536Y-116602841D01*
X124185044Y-116456762D01*
X124205682Y-116300000D01*
X124185044Y-116143238D01*
X124124536Y-115997159D01*
X124120983Y-115992529D01*
X124120981Y-115992525D01*
X124053191Y-115904180D01*
X124034799Y-115850000D01*
X124053191Y-115795820D01*
X124120981Y-115707474D01*
X124120981Y-115707473D01*
X124124536Y-115702841D01*
X124185044Y-115556762D01*
X124205682Y-115400000D01*
X124185044Y-115243238D01*
X124124536Y-115097159D01*
X124120983Y-115092529D01*
X124120981Y-115092525D01*
X124053191Y-115004179D01*
X124034799Y-114949999D01*
X124053190Y-114895820D01*
X124124536Y-114802841D01*
X124125713Y-114800000D01*
X187394318Y-114800000D01*
X187395079Y-114805780D01*
X187414194Y-114950979D01*
X187414195Y-114950983D01*
X187414956Y-114956762D01*
X187417186Y-114962147D01*
X187417188Y-114962152D01*
X187466156Y-115080369D01*
X187475464Y-115102841D01*
X187571718Y-115228282D01*
X187697159Y-115324536D01*
X187843238Y-115385044D01*
X188000000Y-115405682D01*
X188043159Y-115400000D01*
X192994318Y-115400000D01*
X192995079Y-115405780D01*
X193014194Y-115550979D01*
X193014195Y-115550983D01*
X193014956Y-115556762D01*
X193017186Y-115562147D01*
X193017188Y-115562152D01*
X193043029Y-115624536D01*
X193075464Y-115702841D01*
X193079014Y-115707468D01*
X193079015Y-115707469D01*
X193168166Y-115823653D01*
X193171718Y-115828282D01*
X193297159Y-115924536D01*
X193443238Y-115985044D01*
X193600000Y-116005682D01*
X193756762Y-115985044D01*
X193902841Y-115924536D01*
X194028282Y-115828282D01*
X194124536Y-115702841D01*
X194185044Y-115556762D01*
X194205682Y-115400000D01*
X194185044Y-115243238D01*
X194124536Y-115097159D01*
X194028282Y-114971718D01*
X194012257Y-114959422D01*
X193993262Y-114944846D01*
X193902841Y-114875464D01*
X193902260Y-114875223D01*
X193871536Y-114844502D01*
X193859611Y-114800000D01*
X193871536Y-114755498D01*
X193902260Y-114724776D01*
X193902841Y-114724536D01*
X194028282Y-114628282D01*
X194124536Y-114502841D01*
X194185044Y-114356762D01*
X194205682Y-114200000D01*
X194185044Y-114043238D01*
X194124536Y-113897159D01*
X194028282Y-113771718D01*
X193902841Y-113675464D01*
X193897448Y-113673230D01*
X193762152Y-113617188D01*
X193762147Y-113617186D01*
X193756762Y-113614956D01*
X193750983Y-113614195D01*
X193750979Y-113614194D01*
X193605780Y-113595079D01*
X193600000Y-113594318D01*
X193594220Y-113595079D01*
X193449020Y-113614194D01*
X193449014Y-113614195D01*
X193443238Y-113614956D01*
X193437854Y-113617186D01*
X193437847Y-113617188D01*
X193302551Y-113673230D01*
X193302547Y-113673231D01*
X193297159Y-113675464D01*
X193292534Y-113679012D01*
X193292530Y-113679015D01*
X193176346Y-113768166D01*
X193176342Y-113768169D01*
X193171718Y-113771718D01*
X193168169Y-113776342D01*
X193168166Y-113776346D01*
X193079015Y-113892530D01*
X193079012Y-113892534D01*
X193075464Y-113897159D01*
X193073231Y-113902547D01*
X193073230Y-113902551D01*
X193017188Y-114037847D01*
X193017186Y-114037854D01*
X193014956Y-114043238D01*
X193014195Y-114049014D01*
X193014194Y-114049020D01*
X193008244Y-114094220D01*
X192994318Y-114200000D01*
X192995079Y-114205780D01*
X193014194Y-114350979D01*
X193014195Y-114350983D01*
X193014956Y-114356762D01*
X193017186Y-114362147D01*
X193017188Y-114362152D01*
X193072249Y-114495079D01*
X193075464Y-114502841D01*
X193079014Y-114507468D01*
X193079015Y-114507469D01*
X193154376Y-114605682D01*
X193171718Y-114628282D01*
X193297159Y-114724536D01*
X193297284Y-114724587D01*
X193335021Y-114769560D01*
X193335021Y-114830440D01*
X193297284Y-114875412D01*
X193297159Y-114875464D01*
X193292537Y-114879009D01*
X193292536Y-114879011D01*
X193176346Y-114968166D01*
X193176342Y-114968169D01*
X193171718Y-114971718D01*
X193168169Y-114976342D01*
X193168166Y-114976346D01*
X193079015Y-115092530D01*
X193079012Y-115092534D01*
X193075464Y-115097159D01*
X193073231Y-115102547D01*
X193073230Y-115102551D01*
X193017188Y-115237847D01*
X193017186Y-115237854D01*
X193014956Y-115243238D01*
X193014195Y-115249014D01*
X193014194Y-115249020D01*
X193004253Y-115324536D01*
X192994318Y-115400000D01*
X188043159Y-115400000D01*
X188156762Y-115385044D01*
X188302841Y-115324536D01*
X188428282Y-115228282D01*
X188524536Y-115102841D01*
X188585044Y-114956762D01*
X188605682Y-114800000D01*
X188585044Y-114643238D01*
X188524536Y-114497159D01*
X188428282Y-114371718D01*
X188344551Y-114307469D01*
X188307469Y-114279015D01*
X188307468Y-114279014D01*
X188302841Y-114275464D01*
X188297448Y-114273230D01*
X188162152Y-114217188D01*
X188162147Y-114217186D01*
X188156762Y-114214956D01*
X188150983Y-114214195D01*
X188150979Y-114214194D01*
X188005780Y-114195079D01*
X188000000Y-114194318D01*
X187994220Y-114195079D01*
X187849020Y-114214194D01*
X187849014Y-114214195D01*
X187843238Y-114214956D01*
X187837854Y-114217186D01*
X187837847Y-114217188D01*
X187702551Y-114273230D01*
X187702547Y-114273231D01*
X187697159Y-114275464D01*
X187692534Y-114279012D01*
X187692530Y-114279015D01*
X187576346Y-114368166D01*
X187576342Y-114368169D01*
X187571718Y-114371718D01*
X187568169Y-114376342D01*
X187568166Y-114376346D01*
X187479015Y-114492530D01*
X187479012Y-114492534D01*
X187475464Y-114497159D01*
X187473231Y-114502547D01*
X187473230Y-114502551D01*
X187417188Y-114637847D01*
X187417186Y-114637854D01*
X187414956Y-114643238D01*
X187414195Y-114649014D01*
X187414194Y-114649020D01*
X187407857Y-114697159D01*
X187394318Y-114800000D01*
X124125713Y-114800000D01*
X124185044Y-114656762D01*
X124205682Y-114500000D01*
X124185044Y-114343238D01*
X124124536Y-114197159D01*
X124120983Y-114192529D01*
X124120981Y-114192525D01*
X124053191Y-114104179D01*
X124034799Y-114049999D01*
X124051771Y-114000000D01*
X191394318Y-114000000D01*
X191395079Y-114005780D01*
X191414194Y-114150979D01*
X191414195Y-114150983D01*
X191414956Y-114156762D01*
X191417186Y-114162147D01*
X191417188Y-114162152D01*
X191464124Y-114275464D01*
X191475464Y-114302841D01*
X191479014Y-114307468D01*
X191479015Y-114307469D01*
X191510898Y-114349020D01*
X191571718Y-114428282D01*
X191697159Y-114524536D01*
X191843238Y-114585044D01*
X192000000Y-114605682D01*
X192156762Y-114585044D01*
X192302841Y-114524536D01*
X192428282Y-114428282D01*
X192524536Y-114302841D01*
X192585044Y-114156762D01*
X192605682Y-114000000D01*
X192585044Y-113843238D01*
X192524536Y-113697159D01*
X192428282Y-113571718D01*
X192344551Y-113507469D01*
X192307469Y-113479015D01*
X192307468Y-113479014D01*
X192302841Y-113475464D01*
X192239000Y-113449020D01*
X192162152Y-113417188D01*
X192162147Y-113417186D01*
X192156762Y-113414956D01*
X192150983Y-113414195D01*
X192150979Y-113414194D01*
X192005780Y-113395079D01*
X192000000Y-113394318D01*
X191994220Y-113395079D01*
X191849020Y-113414194D01*
X191849014Y-113414195D01*
X191843238Y-113414956D01*
X191837854Y-113417186D01*
X191837847Y-113417188D01*
X191702551Y-113473230D01*
X191702547Y-113473231D01*
X191697159Y-113475464D01*
X191692534Y-113479012D01*
X191692530Y-113479015D01*
X191576346Y-113568166D01*
X191576342Y-113568169D01*
X191571718Y-113571718D01*
X191568169Y-113576342D01*
X191568166Y-113576346D01*
X191479015Y-113692530D01*
X191479012Y-113692534D01*
X191475464Y-113697159D01*
X191473231Y-113702547D01*
X191473230Y-113702551D01*
X191417188Y-113837847D01*
X191417186Y-113837854D01*
X191414956Y-113843238D01*
X191414195Y-113849014D01*
X191414194Y-113849020D01*
X191396272Y-113985151D01*
X191394318Y-114000000D01*
X124051771Y-114000000D01*
X124053190Y-113995820D01*
X124124536Y-113902841D01*
X124185044Y-113756762D01*
X124205682Y-113600000D01*
X124185044Y-113443238D01*
X124124536Y-113297159D01*
X124028282Y-113171718D01*
X123952902Y-113113877D01*
X123907469Y-113079015D01*
X123907468Y-113079014D01*
X123902841Y-113075464D01*
X123839000Y-113049020D01*
X123762152Y-113017188D01*
X123762147Y-113017186D01*
X123756762Y-113014956D01*
X123750983Y-113014195D01*
X123750979Y-113014194D01*
X123605780Y-112995079D01*
X123600000Y-112994318D01*
X123594220Y-112995079D01*
X123594218Y-112995079D01*
X123444650Y-113014769D01*
X123388533Y-113003606D01*
X123350810Y-112960590D01*
X123324536Y-112897159D01*
X123228282Y-112771718D01*
X123131115Y-112697159D01*
X123107469Y-112679015D01*
X123107468Y-112679014D01*
X123102841Y-112675464D01*
X123091649Y-112670828D01*
X122962152Y-112617188D01*
X122962147Y-112617186D01*
X122956762Y-112614956D01*
X122950983Y-112614195D01*
X122950979Y-112614194D01*
X122805780Y-112595079D01*
X122800000Y-112594318D01*
X122794220Y-112595079D01*
X122649020Y-112614194D01*
X122649014Y-112614195D01*
X122643238Y-112614956D01*
X122637854Y-112617186D01*
X122637847Y-112617188D01*
X122502551Y-112673230D01*
X122502547Y-112673231D01*
X122497159Y-112675464D01*
X122492534Y-112679012D01*
X122492530Y-112679015D01*
X122376346Y-112768166D01*
X122376342Y-112768169D01*
X122371718Y-112771718D01*
X122368169Y-112776342D01*
X122368166Y-112776346D01*
X122279015Y-112892530D01*
X122279012Y-112892534D01*
X122275464Y-112897159D01*
X122273231Y-112902547D01*
X122273230Y-112902551D01*
X122217188Y-113037847D01*
X122217186Y-113037854D01*
X122214956Y-113043238D01*
X122214195Y-113049014D01*
X122214194Y-113049020D01*
X122203292Y-113131833D01*
X122194318Y-113200000D01*
X122195079Y-113205780D01*
X122214194Y-113350979D01*
X122214195Y-113350983D01*
X122214956Y-113356762D01*
X122217186Y-113362147D01*
X122217188Y-113362152D01*
X122263678Y-113474388D01*
X122275464Y-113502841D01*
X122279014Y-113507468D01*
X122279015Y-113507469D01*
X122346809Y-113595820D01*
X122365200Y-113650000D01*
X122346809Y-113704180D01*
X122279015Y-113792530D01*
X122279012Y-113792534D01*
X122275464Y-113797159D01*
X122273231Y-113802547D01*
X122273230Y-113802551D01*
X122217188Y-113937847D01*
X122217186Y-113937854D01*
X122214956Y-113943238D01*
X122214195Y-113949014D01*
X122214194Y-113949020D01*
X122198041Y-114071718D01*
X122194318Y-114100000D01*
X122195079Y-114105780D01*
X122214194Y-114250979D01*
X122214195Y-114250983D01*
X122214956Y-114256762D01*
X122217186Y-114262147D01*
X122217188Y-114262152D01*
X122253982Y-114350979D01*
X122275464Y-114402841D01*
X122279014Y-114407468D01*
X122279015Y-114407469D01*
X122346809Y-114495820D01*
X122365200Y-114550000D01*
X122346809Y-114604180D01*
X122279015Y-114692530D01*
X122279012Y-114692534D01*
X122275464Y-114697159D01*
X122273231Y-114702547D01*
X122273230Y-114702551D01*
X122217188Y-114837847D01*
X122217186Y-114837854D01*
X122214956Y-114843238D01*
X122214195Y-114849014D01*
X122214194Y-114849020D01*
X122198509Y-114968166D01*
X122194318Y-115000000D01*
X122195079Y-115005780D01*
X122214194Y-115150979D01*
X122214195Y-115150983D01*
X122214956Y-115156762D01*
X122217186Y-115162147D01*
X122217188Y-115162152D01*
X122256377Y-115256762D01*
X122275464Y-115302841D01*
X122279014Y-115307468D01*
X122279015Y-115307469D01*
X122346809Y-115395820D01*
X122365200Y-115450000D01*
X122346809Y-115504180D01*
X122279015Y-115592530D01*
X122279012Y-115592534D01*
X122275464Y-115597159D01*
X122273231Y-115602547D01*
X122273230Y-115602551D01*
X122217188Y-115737847D01*
X122217186Y-115737854D01*
X122214956Y-115743238D01*
X122214195Y-115749014D01*
X122214194Y-115749020D01*
X122198041Y-115871718D01*
X122194318Y-115900000D01*
X95592517Y-115900000D01*
X95585044Y-115843238D01*
X95524536Y-115697159D01*
X95428282Y-115571718D01*
X95302841Y-115475464D01*
X95297448Y-115473230D01*
X95162152Y-115417188D01*
X95162147Y-115417186D01*
X95156762Y-115414956D01*
X95150983Y-115414195D01*
X95150979Y-115414194D01*
X95005780Y-115395079D01*
X95000000Y-115394318D01*
X94994220Y-115395079D01*
X94849020Y-115414194D01*
X94849014Y-115414195D01*
X94843238Y-115414956D01*
X94837854Y-115417186D01*
X94837847Y-115417188D01*
X94702551Y-115473230D01*
X94702547Y-115473231D01*
X94697159Y-115475464D01*
X94692534Y-115479012D01*
X94692530Y-115479015D01*
X94576346Y-115568166D01*
X94576342Y-115568169D01*
X94571718Y-115571718D01*
X94568169Y-115576342D01*
X94568161Y-115576351D01*
X94520608Y-115638324D01*
X94476763Y-115669025D01*
X94423237Y-115669025D01*
X94379392Y-115638324D01*
X94331838Y-115576351D01*
X94331833Y-115576346D01*
X94328282Y-115571718D01*
X94202841Y-115475464D01*
X94197448Y-115473230D01*
X94062152Y-115417188D01*
X94062147Y-115417186D01*
X94056762Y-115414956D01*
X94050983Y-115414195D01*
X94050979Y-115414194D01*
X93905780Y-115395079D01*
X93900000Y-115394318D01*
X93894220Y-115395079D01*
X93749020Y-115414194D01*
X93749014Y-115414195D01*
X93743238Y-115414956D01*
X93737854Y-115417186D01*
X93737847Y-115417188D01*
X93602551Y-115473230D01*
X93602547Y-115473231D01*
X93597159Y-115475464D01*
X93592534Y-115479012D01*
X93592530Y-115479015D01*
X93476346Y-115568166D01*
X93476342Y-115568169D01*
X93471718Y-115571718D01*
X93468169Y-115576342D01*
X93468166Y-115576346D01*
X93379015Y-115692530D01*
X93379012Y-115692534D01*
X93375464Y-115697159D01*
X93373231Y-115702547D01*
X93373230Y-115702551D01*
X93317188Y-115837847D01*
X93317186Y-115837854D01*
X93314956Y-115843238D01*
X93314195Y-115849014D01*
X93314194Y-115849020D01*
X93304720Y-115920988D01*
X93294318Y-116000000D01*
X90000500Y-116000000D01*
X90000500Y-111633683D01*
X90345740Y-111633683D01*
X90346001Y-111638501D01*
X90346001Y-111638506D01*
X90355493Y-111813585D01*
X90355493Y-111813590D01*
X90355755Y-111818407D01*
X90357045Y-111823056D01*
X90357046Y-111823057D01*
X90403955Y-111992011D01*
X90403956Y-111992015D01*
X90405246Y-111996659D01*
X90491900Y-112160104D01*
X90611663Y-112301100D01*
X90615507Y-112304022D01*
X90615509Y-112304024D01*
X90645430Y-112326769D01*
X90758936Y-112413054D01*
X90926833Y-112490732D01*
X91107503Y-112530500D01*
X92543707Y-112530500D01*
X92546113Y-112530500D01*
X92683910Y-112515514D01*
X92859221Y-112456444D01*
X93017736Y-112361070D01*
X93152041Y-112233849D01*
X93255858Y-112080730D01*
X93324331Y-111908875D01*
X93354260Y-111726317D01*
X93349238Y-111633683D01*
X94320740Y-111633683D01*
X94321001Y-111638501D01*
X94321001Y-111638506D01*
X94330493Y-111813585D01*
X94330493Y-111813590D01*
X94330755Y-111818407D01*
X94332045Y-111823056D01*
X94332046Y-111823057D01*
X94378955Y-111992011D01*
X94378956Y-111992015D01*
X94380246Y-111996659D01*
X94466900Y-112160104D01*
X94586663Y-112301100D01*
X94676904Y-112369699D01*
X94708762Y-112416605D01*
X94705827Y-112473231D01*
X94669290Y-112516592D01*
X94664757Y-112519348D01*
X94659182Y-112521770D01*
X94654467Y-112525605D01*
X94654462Y-112525609D01*
X94545666Y-112614122D01*
X94545663Y-112614124D01*
X94540942Y-112617966D01*
X94537433Y-112622935D01*
X94537430Y-112622940D01*
X94456549Y-112737522D01*
X94456546Y-112737527D01*
X94453039Y-112742496D01*
X94451001Y-112748229D01*
X94451000Y-112748232D01*
X94404033Y-112880384D01*
X94404032Y-112880388D01*
X94401994Y-112886123D01*
X94401578Y-112892190D01*
X94401578Y-112892195D01*
X94392007Y-113032122D01*
X94391592Y-113038196D01*
X94392829Y-113044152D01*
X94392830Y-113044156D01*
X94421366Y-113181479D01*
X94422604Y-113187436D01*
X94425400Y-113192833D01*
X94425402Y-113192837D01*
X94483874Y-113305682D01*
X94492731Y-113322775D01*
X94596772Y-113434176D01*
X94727010Y-113513375D01*
X94873786Y-113554500D01*
X94984879Y-113554500D01*
X94987927Y-113554500D01*
X95101009Y-113538957D01*
X95240818Y-113478230D01*
X95359058Y-113382034D01*
X95446961Y-113257504D01*
X95498006Y-113113877D01*
X95508408Y-112961804D01*
X95477396Y-112812564D01*
X95407269Y-112677225D01*
X95403110Y-112672772D01*
X95401738Y-112670828D01*
X95385654Y-112625576D01*
X95395423Y-112578556D01*
X95428202Y-112543457D01*
X95474446Y-112530500D01*
X96218707Y-112530500D01*
X96221113Y-112530500D01*
X96358910Y-112515514D01*
X96534221Y-112456444D01*
X96692736Y-112361070D01*
X96827041Y-112233849D01*
X96930858Y-112080730D01*
X96999331Y-111908875D01*
X97029260Y-111726317D01*
X97019245Y-111541593D01*
X96969754Y-111363341D01*
X96883155Y-111200000D01*
X131594318Y-111200000D01*
X131595079Y-111205780D01*
X131614194Y-111350979D01*
X131614195Y-111350983D01*
X131614956Y-111356762D01*
X131617186Y-111362147D01*
X131617188Y-111362152D01*
X131671193Y-111492530D01*
X131675464Y-111502841D01*
X131679014Y-111507468D01*
X131679015Y-111507469D01*
X131764654Y-111619076D01*
X131771718Y-111628282D01*
X131897159Y-111724536D01*
X132043238Y-111785044D01*
X132200000Y-111805682D01*
X132356762Y-111785044D01*
X132502841Y-111724536D01*
X132628282Y-111628282D01*
X132724536Y-111502841D01*
X132767134Y-111400000D01*
X197694318Y-111400000D01*
X197695079Y-111405780D01*
X197714194Y-111550979D01*
X197714195Y-111550983D01*
X197714956Y-111556762D01*
X197717186Y-111562147D01*
X197717188Y-111562152D01*
X197761666Y-111669530D01*
X197775464Y-111702841D01*
X197779014Y-111707468D01*
X197779015Y-111707469D01*
X197854376Y-111805682D01*
X197871718Y-111828282D01*
X197997159Y-111924536D01*
X198143238Y-111985044D01*
X198300000Y-112005682D01*
X198456762Y-111985044D01*
X198602841Y-111924536D01*
X198728282Y-111828282D01*
X198824536Y-111702841D01*
X198867134Y-111600000D01*
X200394318Y-111600000D01*
X200395079Y-111605780D01*
X200414194Y-111750979D01*
X200414195Y-111750983D01*
X200414956Y-111756762D01*
X200417186Y-111762147D01*
X200417188Y-111762152D01*
X200455615Y-111854921D01*
X200475464Y-111902841D01*
X200479014Y-111907468D01*
X200479015Y-111907469D01*
X200554376Y-112005682D01*
X200571718Y-112028282D01*
X200697159Y-112124536D01*
X200843238Y-112185044D01*
X201000000Y-112205682D01*
X201156762Y-112185044D01*
X201302841Y-112124536D01*
X201428282Y-112028282D01*
X201524536Y-111902841D01*
X201585044Y-111756762D01*
X201605682Y-111600000D01*
X201585044Y-111443238D01*
X201524536Y-111297159D01*
X201460338Y-111213494D01*
X208777407Y-111213494D01*
X208778168Y-111219274D01*
X208797283Y-111364473D01*
X208797284Y-111364477D01*
X208798045Y-111370256D01*
X208800275Y-111375641D01*
X208800277Y-111375646D01*
X208856319Y-111510942D01*
X208858553Y-111516335D01*
X208862103Y-111520962D01*
X208862104Y-111520963D01*
X208947177Y-111631833D01*
X208954807Y-111641776D01*
X209080248Y-111738030D01*
X209226327Y-111798538D01*
X209383089Y-111819176D01*
X209539851Y-111798538D01*
X209685930Y-111738030D01*
X209811371Y-111641776D01*
X209826027Y-111622675D01*
X209869870Y-111591973D01*
X209923397Y-111591972D01*
X209962966Y-111619678D01*
X209963544Y-111619101D01*
X209966816Y-111622373D01*
X209967244Y-111622673D01*
X209967666Y-111623224D01*
X209967669Y-111623227D01*
X209971218Y-111627852D01*
X209975842Y-111631400D01*
X209975843Y-111631401D01*
X209998805Y-111649020D01*
X210096659Y-111724106D01*
X210242738Y-111784614D01*
X210399500Y-111805252D01*
X210556262Y-111784614D01*
X210702341Y-111724106D01*
X210827782Y-111627852D01*
X210924036Y-111502411D01*
X210984544Y-111356332D01*
X210998543Y-111250000D01*
X211444318Y-111250000D01*
X211445079Y-111255780D01*
X211464194Y-111400979D01*
X211464195Y-111400983D01*
X211464956Y-111406762D01*
X211467186Y-111412147D01*
X211467188Y-111412152D01*
X211516274Y-111530655D01*
X211525464Y-111552841D01*
X211529014Y-111557468D01*
X211529015Y-111557469D01*
X211615002Y-111669529D01*
X211621718Y-111678282D01*
X211747159Y-111774536D01*
X211893238Y-111835044D01*
X212050000Y-111855682D01*
X212206762Y-111835044D01*
X212352841Y-111774536D01*
X212478282Y-111678282D01*
X212481834Y-111673651D01*
X212485958Y-111669529D01*
X212487554Y-111671125D01*
X212523230Y-111646137D01*
X212576770Y-111646137D01*
X212612445Y-111671125D01*
X212614042Y-111669529D01*
X212618166Y-111673653D01*
X212621718Y-111678282D01*
X212747159Y-111774536D01*
X212893238Y-111835044D01*
X213050000Y-111855682D01*
X213206762Y-111835044D01*
X213352841Y-111774536D01*
X213478282Y-111678282D01*
X213481833Y-111673653D01*
X213485957Y-111669530D01*
X213487639Y-111671212D01*
X213522982Y-111646461D01*
X213576509Y-111646458D01*
X213611863Y-111671210D01*
X213613545Y-111669529D01*
X213617669Y-111673653D01*
X213621221Y-111678282D01*
X213746662Y-111774536D01*
X213892741Y-111835044D01*
X214049503Y-111855682D01*
X214206265Y-111835044D01*
X214352344Y-111774536D01*
X214477785Y-111678282D01*
X214501694Y-111647121D01*
X214538242Y-111619076D01*
X214583919Y-111613061D01*
X214626483Y-111630691D01*
X214682473Y-111673653D01*
X214744754Y-111721443D01*
X214890833Y-111781951D01*
X215047595Y-111802589D01*
X215067261Y-111800000D01*
X216294318Y-111800000D01*
X216296494Y-111816529D01*
X216314194Y-111950979D01*
X216314195Y-111950983D01*
X216314956Y-111956762D01*
X216317186Y-111962147D01*
X216317188Y-111962152D01*
X216372249Y-112095079D01*
X216375464Y-112102841D01*
X216379014Y-112107468D01*
X216379015Y-112107469D01*
X216454376Y-112205682D01*
X216471718Y-112228282D01*
X216597159Y-112324536D01*
X216743238Y-112385044D01*
X216900000Y-112405682D01*
X217056762Y-112385044D01*
X217202841Y-112324536D01*
X217328282Y-112228282D01*
X217424536Y-112102841D01*
X217485044Y-111956762D01*
X217505682Y-111800000D01*
X217485044Y-111643238D01*
X217424536Y-111497159D01*
X217328282Y-111371718D01*
X217311809Y-111359078D01*
X217207469Y-111279015D01*
X217207468Y-111279014D01*
X217202841Y-111275464D01*
X217139000Y-111249020D01*
X217062152Y-111217188D01*
X217062147Y-111217186D01*
X217056762Y-111214956D01*
X217050983Y-111214195D01*
X217050979Y-111214194D01*
X216905780Y-111195079D01*
X216900000Y-111194318D01*
X216894220Y-111195079D01*
X216749020Y-111214194D01*
X216749014Y-111214195D01*
X216743238Y-111214956D01*
X216737854Y-111217186D01*
X216737847Y-111217188D01*
X216602551Y-111273230D01*
X216602547Y-111273231D01*
X216597159Y-111275464D01*
X216592534Y-111279012D01*
X216592530Y-111279015D01*
X216476346Y-111368166D01*
X216476342Y-111368169D01*
X216471718Y-111371718D01*
X216468169Y-111376342D01*
X216468166Y-111376346D01*
X216379015Y-111492530D01*
X216379012Y-111492534D01*
X216375464Y-111497159D01*
X216373231Y-111502547D01*
X216373230Y-111502551D01*
X216317188Y-111637847D01*
X216317186Y-111637854D01*
X216314956Y-111643238D01*
X216314195Y-111649014D01*
X216314194Y-111649020D01*
X216302944Y-111734478D01*
X216294318Y-111800000D01*
X215067261Y-111800000D01*
X215204357Y-111781951D01*
X215350436Y-111721443D01*
X215475877Y-111625189D01*
X215572131Y-111499748D01*
X215632639Y-111353669D01*
X215653277Y-111196907D01*
X215632639Y-111040145D01*
X215572131Y-110894066D01*
X215475877Y-110768625D01*
X215416717Y-110723230D01*
X215355064Y-110675922D01*
X215355063Y-110675921D01*
X215350436Y-110672371D01*
X215345043Y-110670137D01*
X215209747Y-110614095D01*
X215209742Y-110614093D01*
X215204357Y-110611863D01*
X215198578Y-110611102D01*
X215198574Y-110611101D01*
X215053375Y-110591986D01*
X215047595Y-110591225D01*
X215041815Y-110591986D01*
X214896615Y-110611101D01*
X214896609Y-110611102D01*
X214890833Y-110611863D01*
X214885449Y-110614093D01*
X214885442Y-110614095D01*
X214750146Y-110670137D01*
X214750142Y-110670138D01*
X214744754Y-110672371D01*
X214740129Y-110675919D01*
X214740125Y-110675922D01*
X214623938Y-110765075D01*
X214623933Y-110765079D01*
X214619313Y-110768625D01*
X214615764Y-110773249D01*
X214615763Y-110773251D01*
X214595400Y-110799788D01*
X214558850Y-110827832D01*
X214513175Y-110833844D01*
X214470613Y-110816214D01*
X214356977Y-110729018D01*
X214356971Y-110729014D01*
X214352344Y-110725464D01*
X214346951Y-110723230D01*
X214211655Y-110667188D01*
X214211650Y-110667186D01*
X214206265Y-110664956D01*
X214200486Y-110664195D01*
X214200482Y-110664194D01*
X214055283Y-110645079D01*
X214049503Y-110644318D01*
X214043723Y-110645079D01*
X213898523Y-110664194D01*
X213898517Y-110664195D01*
X213892741Y-110664956D01*
X213887357Y-110667186D01*
X213887350Y-110667188D01*
X213752054Y-110723230D01*
X213752050Y-110723231D01*
X213746662Y-110725464D01*
X213742037Y-110729012D01*
X213742033Y-110729015D01*
X213625846Y-110818168D01*
X213625841Y-110818172D01*
X213621221Y-110821718D01*
X213617671Y-110826344D01*
X213613547Y-110830469D01*
X213611872Y-110828795D01*
X213576477Y-110853552D01*
X213522966Y-110853534D01*
X213487638Y-110828788D01*
X213485957Y-110830470D01*
X213481832Y-110826345D01*
X213478282Y-110821718D01*
X213472378Y-110817188D01*
X213357469Y-110729015D01*
X213357468Y-110729014D01*
X213352841Y-110725464D01*
X213347448Y-110723230D01*
X213212152Y-110667188D01*
X213212147Y-110667186D01*
X213206762Y-110664956D01*
X213200983Y-110664195D01*
X213200979Y-110664194D01*
X213055780Y-110645079D01*
X213050000Y-110644318D01*
X213044220Y-110645079D01*
X212899020Y-110664194D01*
X212899014Y-110664195D01*
X212893238Y-110664956D01*
X212887854Y-110667186D01*
X212887847Y-110667188D01*
X212752551Y-110723230D01*
X212752547Y-110723231D01*
X212747159Y-110725464D01*
X212742534Y-110729012D01*
X212742530Y-110729015D01*
X212626343Y-110818168D01*
X212626338Y-110818172D01*
X212621718Y-110821718D01*
X212618168Y-110826344D01*
X212614044Y-110830469D01*
X212612453Y-110828878D01*
X212576757Y-110853867D01*
X212523243Y-110853867D01*
X212487546Y-110828878D01*
X212485956Y-110830469D01*
X212481832Y-110826345D01*
X212478282Y-110821718D01*
X212472378Y-110817188D01*
X212357469Y-110729015D01*
X212357468Y-110729014D01*
X212352841Y-110725464D01*
X212347448Y-110723230D01*
X212212152Y-110667188D01*
X212212147Y-110667186D01*
X212206762Y-110664956D01*
X212200983Y-110664195D01*
X212200979Y-110664194D01*
X212055780Y-110645079D01*
X212050000Y-110644318D01*
X212044220Y-110645079D01*
X211899020Y-110664194D01*
X211899014Y-110664195D01*
X211893238Y-110664956D01*
X211887854Y-110667186D01*
X211887847Y-110667188D01*
X211752551Y-110723230D01*
X211752547Y-110723231D01*
X211747159Y-110725464D01*
X211742534Y-110729012D01*
X211742530Y-110729015D01*
X211626346Y-110818166D01*
X211626344Y-110818168D01*
X211621718Y-110821718D01*
X211618169Y-110826342D01*
X211618166Y-110826346D01*
X211529015Y-110942530D01*
X211529012Y-110942534D01*
X211525464Y-110947159D01*
X211523231Y-110952547D01*
X211523230Y-110952551D01*
X211467188Y-111087847D01*
X211467186Y-111087854D01*
X211464956Y-111093238D01*
X211464195Y-111099014D01*
X211464194Y-111099020D01*
X211448638Y-111217188D01*
X211444318Y-111250000D01*
X210998543Y-111250000D01*
X211005182Y-111199570D01*
X210984544Y-111042808D01*
X210924036Y-110896729D01*
X210827782Y-110771288D01*
X210819685Y-110765075D01*
X210706969Y-110678585D01*
X210706968Y-110678584D01*
X210702341Y-110675034D01*
X210690519Y-110670137D01*
X210561652Y-110616758D01*
X210561647Y-110616756D01*
X210556262Y-110614526D01*
X210550483Y-110613765D01*
X210550479Y-110613764D01*
X210416029Y-110596064D01*
X210399500Y-110593888D01*
X210384651Y-110595842D01*
X210248520Y-110613764D01*
X210248514Y-110613765D01*
X210242738Y-110614526D01*
X210237354Y-110616756D01*
X210237347Y-110616758D01*
X210102051Y-110672800D01*
X210102047Y-110672801D01*
X210096659Y-110675034D01*
X210092034Y-110678582D01*
X210092030Y-110678585D01*
X209975843Y-110767738D01*
X209975838Y-110767742D01*
X209971218Y-110771288D01*
X209967672Y-110775908D01*
X209967669Y-110775912D01*
X209960534Y-110785212D01*
X209956983Y-110789840D01*
X209956560Y-110790391D01*
X209912713Y-110821091D01*
X209859187Y-110821090D01*
X209819622Y-110793385D01*
X209819045Y-110793963D01*
X209815769Y-110790687D01*
X209815343Y-110790389D01*
X209811371Y-110785212D01*
X209799256Y-110775916D01*
X209690558Y-110692509D01*
X209690557Y-110692508D01*
X209685930Y-110688958D01*
X209661926Y-110679015D01*
X209545241Y-110630682D01*
X209545236Y-110630680D01*
X209539851Y-110628450D01*
X209534072Y-110627689D01*
X209534068Y-110627688D01*
X209388869Y-110608573D01*
X209383089Y-110607812D01*
X209377309Y-110608573D01*
X209232109Y-110627688D01*
X209232103Y-110627689D01*
X209226327Y-110628450D01*
X209220943Y-110630680D01*
X209220936Y-110630682D01*
X209085640Y-110686724D01*
X209085636Y-110686725D01*
X209080248Y-110688958D01*
X209075623Y-110692506D01*
X209075619Y-110692509D01*
X208959435Y-110781660D01*
X208959433Y-110781662D01*
X208954807Y-110785212D01*
X208951258Y-110789836D01*
X208951255Y-110789840D01*
X208862104Y-110906024D01*
X208862101Y-110906028D01*
X208858553Y-110910653D01*
X208856320Y-110916041D01*
X208856319Y-110916045D01*
X208800277Y-111051341D01*
X208800275Y-111051348D01*
X208798045Y-111056732D01*
X208797284Y-111062508D01*
X208797283Y-111062514D01*
X208780352Y-111191127D01*
X208777407Y-111213494D01*
X201460338Y-111213494D01*
X201428282Y-111171718D01*
X201368898Y-111126151D01*
X201307469Y-111079015D01*
X201307468Y-111079014D01*
X201302841Y-111075464D01*
X201297448Y-111073230D01*
X201162152Y-111017188D01*
X201162147Y-111017186D01*
X201156762Y-111014956D01*
X201150983Y-111014195D01*
X201150979Y-111014194D01*
X201005780Y-110995079D01*
X201000000Y-110994318D01*
X200994220Y-110995079D01*
X200849020Y-111014194D01*
X200849014Y-111014195D01*
X200843238Y-111014956D01*
X200837854Y-111017186D01*
X200837847Y-111017188D01*
X200702551Y-111073230D01*
X200702547Y-111073231D01*
X200697159Y-111075464D01*
X200692534Y-111079012D01*
X200692530Y-111079015D01*
X200576346Y-111168166D01*
X200576342Y-111168169D01*
X200571718Y-111171718D01*
X200568169Y-111176342D01*
X200568166Y-111176346D01*
X200479015Y-111292530D01*
X200479012Y-111292534D01*
X200475464Y-111297159D01*
X200473231Y-111302547D01*
X200473230Y-111302551D01*
X200417188Y-111437847D01*
X200417186Y-111437854D01*
X200414956Y-111443238D01*
X200414195Y-111449014D01*
X200414194Y-111449020D01*
X200400010Y-111556762D01*
X200394318Y-111600000D01*
X198867134Y-111600000D01*
X198885044Y-111556762D01*
X198905682Y-111400000D01*
X198885044Y-111243238D01*
X198824536Y-111097159D01*
X198728282Y-110971718D01*
X198696276Y-110947159D01*
X198607469Y-110879015D01*
X198607468Y-110879014D01*
X198602841Y-110875464D01*
X198597448Y-110873230D01*
X198462152Y-110817188D01*
X198462147Y-110817186D01*
X198456762Y-110814956D01*
X198450983Y-110814195D01*
X198450979Y-110814194D01*
X198305780Y-110795079D01*
X198300000Y-110794318D01*
X198294220Y-110795079D01*
X198149020Y-110814194D01*
X198149014Y-110814195D01*
X198143238Y-110814956D01*
X198137854Y-110817186D01*
X198137847Y-110817188D01*
X198002551Y-110873230D01*
X198002547Y-110873231D01*
X197997159Y-110875464D01*
X197992534Y-110879012D01*
X197992530Y-110879015D01*
X197876346Y-110968166D01*
X197876342Y-110968169D01*
X197871718Y-110971718D01*
X197868169Y-110976342D01*
X197868166Y-110976346D01*
X197779015Y-111092530D01*
X197779012Y-111092534D01*
X197775464Y-111097159D01*
X197773231Y-111102547D01*
X197773230Y-111102551D01*
X197717188Y-111237847D01*
X197717186Y-111237854D01*
X197714956Y-111243238D01*
X197714195Y-111249014D01*
X197714194Y-111249020D01*
X197700067Y-111356332D01*
X197694318Y-111400000D01*
X132767134Y-111400000D01*
X132785044Y-111356762D01*
X132805682Y-111200000D01*
X132785044Y-111043238D01*
X132724536Y-110897159D01*
X132628282Y-110771718D01*
X132572630Y-110729015D01*
X132507469Y-110679015D01*
X132507468Y-110679014D01*
X132502841Y-110675464D01*
X132482861Y-110667188D01*
X132362152Y-110617188D01*
X132362147Y-110617186D01*
X132356762Y-110614956D01*
X132350983Y-110614195D01*
X132350979Y-110614194D01*
X132205780Y-110595079D01*
X132200000Y-110594318D01*
X132194220Y-110595079D01*
X132049020Y-110614194D01*
X132049014Y-110614195D01*
X132043238Y-110614956D01*
X132037854Y-110617186D01*
X132037847Y-110617188D01*
X131902551Y-110673230D01*
X131902547Y-110673231D01*
X131897159Y-110675464D01*
X131892534Y-110679012D01*
X131892530Y-110679015D01*
X131776346Y-110768166D01*
X131776342Y-110768169D01*
X131771718Y-110771718D01*
X131768169Y-110776342D01*
X131768166Y-110776346D01*
X131679015Y-110892530D01*
X131679012Y-110892534D01*
X131675464Y-110897159D01*
X131673231Y-110902547D01*
X131673230Y-110902551D01*
X131617188Y-111037847D01*
X131617186Y-111037854D01*
X131614956Y-111043238D01*
X131614195Y-111049014D01*
X131614194Y-111049020D01*
X131598509Y-111168166D01*
X131594318Y-111200000D01*
X96883155Y-111200000D01*
X96883100Y-111199896D01*
X96763337Y-111058900D01*
X96759493Y-111055977D01*
X96759490Y-111055975D01*
X96619909Y-110949869D01*
X96616064Y-110946946D01*
X96522279Y-110903556D01*
X96452545Y-110871293D01*
X96452541Y-110871291D01*
X96448167Y-110869268D01*
X96443462Y-110868232D01*
X96443455Y-110868230D01*
X96272210Y-110830537D01*
X96272206Y-110830536D01*
X96267497Y-110829500D01*
X95128887Y-110829500D01*
X95126501Y-110829759D01*
X95126491Y-110829760D01*
X94995894Y-110843963D01*
X94995889Y-110843964D01*
X94991090Y-110844486D01*
X94986518Y-110846026D01*
X94986511Y-110846028D01*
X94820349Y-110902015D01*
X94820339Y-110902019D01*
X94815779Y-110903556D01*
X94811651Y-110906039D01*
X94811648Y-110906041D01*
X94661393Y-110996445D01*
X94661388Y-110996448D01*
X94657264Y-110998930D01*
X94653767Y-111002241D01*
X94653761Y-111002247D01*
X94526465Y-111122829D01*
X94526460Y-111122833D01*
X94522959Y-111126151D01*
X94520254Y-111130139D01*
X94520250Y-111130145D01*
X94421849Y-111275276D01*
X94421845Y-111275282D01*
X94419142Y-111279270D01*
X94417358Y-111283746D01*
X94417356Y-111283751D01*
X94352453Y-111446646D01*
X94352451Y-111446650D01*
X94350669Y-111451125D01*
X94349890Y-111455873D01*
X94349889Y-111455879D01*
X94321520Y-111628920D01*
X94321519Y-111628927D01*
X94320740Y-111633683D01*
X93349238Y-111633683D01*
X93344245Y-111541593D01*
X93294754Y-111363341D01*
X93208100Y-111199896D01*
X93088337Y-111058900D01*
X93084493Y-111055977D01*
X93084490Y-111055975D01*
X92944909Y-110949869D01*
X92941064Y-110946946D01*
X92847279Y-110903556D01*
X92777545Y-110871293D01*
X92777541Y-110871291D01*
X92773167Y-110869268D01*
X92768462Y-110868232D01*
X92768455Y-110868230D01*
X92597210Y-110830537D01*
X92597206Y-110830536D01*
X92592497Y-110829500D01*
X91153887Y-110829500D01*
X91151501Y-110829759D01*
X91151491Y-110829760D01*
X91020894Y-110843963D01*
X91020889Y-110843964D01*
X91016090Y-110844486D01*
X91011518Y-110846026D01*
X91011511Y-110846028D01*
X90845349Y-110902015D01*
X90845339Y-110902019D01*
X90840779Y-110903556D01*
X90836651Y-110906039D01*
X90836648Y-110906041D01*
X90686393Y-110996445D01*
X90686388Y-110996448D01*
X90682264Y-110998930D01*
X90678767Y-111002241D01*
X90678761Y-111002247D01*
X90551465Y-111122829D01*
X90551460Y-111122833D01*
X90547959Y-111126151D01*
X90545254Y-111130139D01*
X90545250Y-111130145D01*
X90446849Y-111275276D01*
X90446845Y-111275282D01*
X90444142Y-111279270D01*
X90442358Y-111283746D01*
X90442356Y-111283751D01*
X90377453Y-111446646D01*
X90377451Y-111446650D01*
X90375669Y-111451125D01*
X90374890Y-111455873D01*
X90374889Y-111455879D01*
X90346520Y-111628920D01*
X90346519Y-111628927D01*
X90345740Y-111633683D01*
X90000500Y-111633683D01*
X90000500Y-107900000D01*
X213394318Y-107900000D01*
X213395079Y-107905780D01*
X213414194Y-108050979D01*
X213414195Y-108050983D01*
X213414956Y-108056762D01*
X213417186Y-108062147D01*
X213417188Y-108062152D01*
X213473230Y-108197448D01*
X213475464Y-108202841D01*
X213571718Y-108328282D01*
X213697159Y-108424536D01*
X213842934Y-108484918D01*
X213885951Y-108522642D01*
X213897114Y-108578759D01*
X213895079Y-108594216D01*
X213894318Y-108600000D01*
X213895079Y-108605780D01*
X213914194Y-108750979D01*
X213914195Y-108750983D01*
X213914956Y-108756762D01*
X213917186Y-108762147D01*
X213917188Y-108762152D01*
X213973230Y-108897448D01*
X213975464Y-108902841D01*
X214071718Y-109028282D01*
X214197159Y-109124536D01*
X214343238Y-109185044D01*
X214500000Y-109205682D01*
X214656762Y-109185044D01*
X214802841Y-109124536D01*
X214928282Y-109028282D01*
X215024536Y-108902841D01*
X215085044Y-108756762D01*
X215105682Y-108600000D01*
X215104921Y-108594218D01*
X215104921Y-108594216D01*
X215102886Y-108578763D01*
X215114047Y-108522644D01*
X215157063Y-108484918D01*
X215302841Y-108424536D01*
X215428282Y-108328282D01*
X215524536Y-108202841D01*
X215585044Y-108056762D01*
X215605682Y-107900000D01*
X215585044Y-107743238D01*
X215524536Y-107597159D01*
X215428282Y-107471718D01*
X215423653Y-107468166D01*
X215307469Y-107379015D01*
X215307468Y-107379014D01*
X215302841Y-107375464D01*
X215297448Y-107373230D01*
X215162152Y-107317188D01*
X215162147Y-107317186D01*
X215156762Y-107314956D01*
X215150983Y-107314195D01*
X215150979Y-107314194D01*
X215005780Y-107295079D01*
X215000000Y-107294318D01*
X214994220Y-107295079D01*
X214849020Y-107314194D01*
X214849014Y-107314195D01*
X214843238Y-107314956D01*
X214837854Y-107317186D01*
X214837847Y-107317188D01*
X214702551Y-107373230D01*
X214702547Y-107373231D01*
X214697159Y-107375464D01*
X214692536Y-107379010D01*
X214692526Y-107379017D01*
X214663522Y-107401273D01*
X214609343Y-107419663D01*
X214555163Y-107401271D01*
X214523376Y-107353697D01*
X214527119Y-107296604D01*
X214553949Y-107231833D01*
X214585044Y-107156762D01*
X214605682Y-107000000D01*
X214585044Y-106843238D01*
X214524536Y-106697159D01*
X214520983Y-106692529D01*
X214520981Y-106692525D01*
X214453191Y-106604180D01*
X214434799Y-106550000D01*
X214453191Y-106495820D01*
X214520981Y-106407474D01*
X214520981Y-106407473D01*
X214524536Y-106402841D01*
X214585044Y-106256762D01*
X214605682Y-106100000D01*
X214585044Y-105943238D01*
X214524536Y-105797159D01*
X214520983Y-105792529D01*
X214520981Y-105792525D01*
X214453191Y-105704180D01*
X214434799Y-105650000D01*
X214453191Y-105595820D01*
X214520981Y-105507474D01*
X214520981Y-105507473D01*
X214524536Y-105502841D01*
X214585044Y-105356762D01*
X214605682Y-105200000D01*
X214585044Y-105043238D01*
X214524536Y-104897159D01*
X214428282Y-104771718D01*
X214423653Y-104768166D01*
X214307469Y-104679015D01*
X214307468Y-104679014D01*
X214302841Y-104675464D01*
X214297448Y-104673230D01*
X214162152Y-104617188D01*
X214162147Y-104617186D01*
X214156762Y-104614956D01*
X214150983Y-104614195D01*
X214150979Y-104614194D01*
X214005780Y-104595079D01*
X214000000Y-104594318D01*
X213994220Y-104595079D01*
X213849020Y-104614194D01*
X213849014Y-104614195D01*
X213843238Y-104614956D01*
X213837854Y-104617186D01*
X213837847Y-104617188D01*
X213702551Y-104673230D01*
X213702547Y-104673231D01*
X213697159Y-104675464D01*
X213692534Y-104679012D01*
X213692530Y-104679015D01*
X213576346Y-104768166D01*
X213576342Y-104768169D01*
X213571718Y-104771718D01*
X213568169Y-104776342D01*
X213568166Y-104776346D01*
X213479015Y-104892530D01*
X213479012Y-104892534D01*
X213475464Y-104897159D01*
X213473231Y-104902547D01*
X213473230Y-104902551D01*
X213417188Y-105037847D01*
X213417186Y-105037854D01*
X213414956Y-105043238D01*
X213414195Y-105049014D01*
X213414194Y-105049020D01*
X213398686Y-105166821D01*
X213394318Y-105200000D01*
X213395079Y-105205780D01*
X213414194Y-105350979D01*
X213414195Y-105350983D01*
X213414956Y-105356762D01*
X213417186Y-105362147D01*
X213417188Y-105362152D01*
X213454633Y-105452551D01*
X213475464Y-105502841D01*
X213479014Y-105507468D01*
X213479015Y-105507469D01*
X213546809Y-105595820D01*
X213565200Y-105650000D01*
X213546809Y-105704180D01*
X213479015Y-105792530D01*
X213479012Y-105792534D01*
X213475464Y-105797159D01*
X213473231Y-105802547D01*
X213473230Y-105802551D01*
X213417188Y-105937847D01*
X213417186Y-105937854D01*
X213414956Y-105943238D01*
X213414195Y-105949014D01*
X213414194Y-105949020D01*
X213400010Y-106056762D01*
X213394318Y-106100000D01*
X213395079Y-106105780D01*
X213414194Y-106250979D01*
X213414195Y-106250983D01*
X213414956Y-106256762D01*
X213417186Y-106262147D01*
X213417188Y-106262152D01*
X213472249Y-106395079D01*
X213475464Y-106402841D01*
X213479014Y-106407468D01*
X213479015Y-106407469D01*
X213546809Y-106495820D01*
X213565200Y-106550000D01*
X213546809Y-106604180D01*
X213479015Y-106692530D01*
X213479012Y-106692534D01*
X213475464Y-106697159D01*
X213473231Y-106702547D01*
X213473230Y-106702551D01*
X213417188Y-106837847D01*
X213417186Y-106837854D01*
X213414956Y-106843238D01*
X213414195Y-106849014D01*
X213414194Y-106849020D01*
X213403292Y-106931833D01*
X213394318Y-107000000D01*
X213395079Y-107005780D01*
X213414194Y-107150979D01*
X213414195Y-107150983D01*
X213414956Y-107156762D01*
X213417186Y-107162147D01*
X213417188Y-107162152D01*
X213473230Y-107297448D01*
X213475464Y-107302841D01*
X213479014Y-107307468D01*
X213479015Y-107307469D01*
X213546809Y-107395820D01*
X213565200Y-107450000D01*
X213546809Y-107504180D01*
X213479015Y-107592530D01*
X213479012Y-107592534D01*
X213475464Y-107597159D01*
X213473231Y-107602547D01*
X213473230Y-107602551D01*
X213417188Y-107737847D01*
X213417186Y-107737854D01*
X213414956Y-107743238D01*
X213414195Y-107749014D01*
X213414194Y-107749020D01*
X213396272Y-107885151D01*
X213394318Y-107900000D01*
X90000500Y-107900000D01*
X90000500Y-106800000D01*
X96194318Y-106800000D01*
X96195079Y-106805780D01*
X96214194Y-106950979D01*
X96214195Y-106950983D01*
X96214956Y-106956762D01*
X96217186Y-106962147D01*
X96217188Y-106962152D01*
X96243029Y-107024536D01*
X96275464Y-107102841D01*
X96371718Y-107228282D01*
X96497159Y-107324536D01*
X96643238Y-107385044D01*
X96800000Y-107405682D01*
X96956762Y-107385044D01*
X97102841Y-107324536D01*
X97228282Y-107228282D01*
X97324536Y-107102841D01*
X97385044Y-106956762D01*
X97405682Y-106800000D01*
X97385044Y-106643238D01*
X97324536Y-106497159D01*
X97228282Y-106371718D01*
X97181135Y-106335541D01*
X97107469Y-106279015D01*
X97107468Y-106279014D01*
X97102841Y-106275464D01*
X97097448Y-106273230D01*
X96962152Y-106217188D01*
X96962147Y-106217186D01*
X96956762Y-106214956D01*
X96950983Y-106214195D01*
X96950979Y-106214194D01*
X96805780Y-106195079D01*
X96800000Y-106194318D01*
X96794220Y-106195079D01*
X96649020Y-106214194D01*
X96649014Y-106214195D01*
X96643238Y-106214956D01*
X96637854Y-106217186D01*
X96637847Y-106217188D01*
X96502551Y-106273230D01*
X96502547Y-106273231D01*
X96497159Y-106275464D01*
X96492534Y-106279012D01*
X96492530Y-106279015D01*
X96376346Y-106368166D01*
X96376342Y-106368169D01*
X96371718Y-106371718D01*
X96368169Y-106376342D01*
X96368166Y-106376346D01*
X96279015Y-106492530D01*
X96279012Y-106492534D01*
X96275464Y-106497159D01*
X96273231Y-106502547D01*
X96273230Y-106502551D01*
X96217188Y-106637847D01*
X96217186Y-106637854D01*
X96214956Y-106643238D01*
X96214195Y-106649014D01*
X96214194Y-106649020D01*
X96207857Y-106697159D01*
X96194318Y-106800000D01*
X90000500Y-106800000D01*
X90000500Y-105900000D01*
X97394318Y-105900000D01*
X97395079Y-105905780D01*
X97414194Y-106050979D01*
X97414195Y-106050983D01*
X97414956Y-106056762D01*
X97417186Y-106062147D01*
X97417188Y-106062152D01*
X97472249Y-106195079D01*
X97475464Y-106202841D01*
X97571718Y-106328282D01*
X97697159Y-106424536D01*
X97843238Y-106485044D01*
X98000000Y-106505682D01*
X98043159Y-106500000D01*
X117894318Y-106500000D01*
X117895079Y-106505780D01*
X117914194Y-106650979D01*
X117914195Y-106650983D01*
X117914956Y-106656762D01*
X117917186Y-106662147D01*
X117917188Y-106662152D01*
X117931689Y-106697159D01*
X117975464Y-106802841D01*
X117979014Y-106807468D01*
X117979015Y-106807469D01*
X118009783Y-106847567D01*
X118071718Y-106928282D01*
X118197159Y-107024536D01*
X118343238Y-107085044D01*
X118500000Y-107105682D01*
X118656762Y-107085044D01*
X118802841Y-107024536D01*
X118928282Y-106928282D01*
X118931834Y-106923651D01*
X118935958Y-106919529D01*
X118937554Y-106921125D01*
X118973230Y-106896137D01*
X119026770Y-106896137D01*
X119062445Y-106921125D01*
X119064042Y-106919529D01*
X119068166Y-106923653D01*
X119071718Y-106928282D01*
X119197159Y-107024536D01*
X119343238Y-107085044D01*
X119500000Y-107105682D01*
X119656762Y-107085044D01*
X119802841Y-107024536D01*
X119928282Y-106928282D01*
X120024536Y-106802841D01*
X120085044Y-106656762D01*
X120105682Y-106500000D01*
X120104921Y-106494220D01*
X120104921Y-106494214D01*
X120096533Y-106430507D01*
X120101140Y-106388445D01*
X120124651Y-106353265D01*
X120156967Y-106335541D01*
X120156762Y-106335044D01*
X120156762Y-106335043D01*
X120302841Y-106274536D01*
X120428282Y-106178282D01*
X120524536Y-106052841D01*
X120585044Y-105906762D01*
X120605682Y-105750000D01*
X120585044Y-105593238D01*
X120524536Y-105447159D01*
X120428282Y-105321718D01*
X120302841Y-105225464D01*
X120227411Y-105194220D01*
X120162146Y-105167186D01*
X120162145Y-105167185D01*
X120156762Y-105164956D01*
X120156761Y-105164956D01*
X120156966Y-105164462D01*
X120124637Y-105146721D01*
X120101137Y-105111544D01*
X120096533Y-105069491D01*
X120104921Y-105005786D01*
X120104921Y-105005780D01*
X120105682Y-105000000D01*
X120104921Y-104994220D01*
X120104921Y-104994214D01*
X120096533Y-104930507D01*
X120101140Y-104888445D01*
X120124651Y-104853265D01*
X120156967Y-104835541D01*
X120156762Y-104835044D01*
X120156761Y-104835044D01*
X120302841Y-104774536D01*
X120428282Y-104678282D01*
X120524536Y-104552841D01*
X120585044Y-104406762D01*
X120605682Y-104250000D01*
X120585044Y-104093238D01*
X120524536Y-103947159D01*
X120428282Y-103821718D01*
X120400913Y-103800717D01*
X120307469Y-103729015D01*
X120307468Y-103729014D01*
X120302841Y-103725464D01*
X120283264Y-103717355D01*
X120162146Y-103667186D01*
X120162145Y-103667185D01*
X120156762Y-103664956D01*
X120156966Y-103664462D01*
X120124637Y-103646721D01*
X120101137Y-103611544D01*
X120096533Y-103569491D01*
X120104921Y-103505786D01*
X120104921Y-103505780D01*
X120105682Y-103500000D01*
X120085044Y-103343238D01*
X120024536Y-103197159D01*
X119928282Y-103071718D01*
X119923653Y-103068166D01*
X119807469Y-102979015D01*
X119807468Y-102979014D01*
X119802841Y-102975464D01*
X119729196Y-102944959D01*
X119662152Y-102917188D01*
X119662147Y-102917186D01*
X119656762Y-102914956D01*
X119650983Y-102914195D01*
X119650979Y-102914194D01*
X119505780Y-102895079D01*
X119500000Y-102894318D01*
X119494220Y-102895079D01*
X119349020Y-102914194D01*
X119349014Y-102914195D01*
X119343238Y-102914956D01*
X119337854Y-102917186D01*
X119337847Y-102917188D01*
X119202551Y-102973230D01*
X119202547Y-102973231D01*
X119197159Y-102975464D01*
X119192534Y-102979012D01*
X119192530Y-102979015D01*
X119076343Y-103068168D01*
X119076338Y-103068172D01*
X119071718Y-103071718D01*
X119068168Y-103076344D01*
X119064044Y-103080469D01*
X119062458Y-103078883D01*
X119026719Y-103103878D01*
X118973205Y-103103855D01*
X118937550Y-103078874D01*
X118935956Y-103080469D01*
X118931832Y-103076345D01*
X118928282Y-103071718D01*
X118878523Y-103033537D01*
X118807469Y-102979015D01*
X118807468Y-102979014D01*
X118802841Y-102975464D01*
X118729196Y-102944959D01*
X118662152Y-102917188D01*
X118662147Y-102917186D01*
X118656762Y-102914956D01*
X118650983Y-102914195D01*
X118650979Y-102914194D01*
X118505780Y-102895079D01*
X118500000Y-102894318D01*
X118494220Y-102895079D01*
X118349020Y-102914194D01*
X118349014Y-102914195D01*
X118343238Y-102914956D01*
X118337854Y-102917186D01*
X118337847Y-102917188D01*
X118202551Y-102973230D01*
X118202547Y-102973231D01*
X118197159Y-102975464D01*
X118192534Y-102979012D01*
X118192530Y-102979015D01*
X118076346Y-103068166D01*
X118076344Y-103068168D01*
X118071718Y-103071718D01*
X118068169Y-103076342D01*
X118068166Y-103076346D01*
X117979015Y-103192530D01*
X117979012Y-103192534D01*
X117975464Y-103197159D01*
X117973231Y-103202547D01*
X117973230Y-103202551D01*
X117917188Y-103337847D01*
X117917186Y-103337854D01*
X117914956Y-103343238D01*
X117914195Y-103349014D01*
X117914194Y-103349020D01*
X117901333Y-103446715D01*
X117894318Y-103500000D01*
X117895079Y-103505780D01*
X117914194Y-103650979D01*
X117914195Y-103650983D01*
X117914956Y-103656762D01*
X117917186Y-103662147D01*
X117917188Y-103662152D01*
X117938500Y-103713603D01*
X117975464Y-103802841D01*
X117979014Y-103807468D01*
X117979015Y-103807469D01*
X117997157Y-103831112D01*
X118071718Y-103928282D01*
X118197159Y-104024536D01*
X118343238Y-104085044D01*
X118343032Y-104085540D01*
X118375350Y-104103268D01*
X118398858Y-104138446D01*
X118403466Y-104180504D01*
X118395079Y-104244218D01*
X118394318Y-104250000D01*
X118395079Y-104255780D01*
X118395079Y-104255782D01*
X118403466Y-104319494D01*
X118398860Y-104361549D01*
X118375357Y-104396725D01*
X118343033Y-104414461D01*
X118343238Y-104414956D01*
X118338724Y-104416825D01*
X118338718Y-104416828D01*
X118337852Y-104417186D01*
X118337848Y-104417188D01*
X118202551Y-104473230D01*
X118202547Y-104473231D01*
X118197159Y-104475464D01*
X118192534Y-104479012D01*
X118192530Y-104479015D01*
X118076346Y-104568166D01*
X118076342Y-104568169D01*
X118071718Y-104571718D01*
X118068169Y-104576342D01*
X118068166Y-104576346D01*
X117979015Y-104692530D01*
X117979012Y-104692534D01*
X117975464Y-104697159D01*
X117973231Y-104702547D01*
X117973230Y-104702551D01*
X117917188Y-104837847D01*
X117917186Y-104837854D01*
X117914956Y-104843238D01*
X117914195Y-104849014D01*
X117914194Y-104849020D01*
X117907386Y-104900737D01*
X117894318Y-105000000D01*
X117895079Y-105005780D01*
X117914194Y-105150979D01*
X117914195Y-105150983D01*
X117914956Y-105156762D01*
X117917186Y-105162147D01*
X117917188Y-105162152D01*
X117972249Y-105295079D01*
X117975464Y-105302841D01*
X117979014Y-105307468D01*
X117979015Y-105307469D01*
X118004103Y-105340164D01*
X118071718Y-105428282D01*
X118197159Y-105524536D01*
X118343237Y-105585043D01*
X118343238Y-105585044D01*
X118343032Y-105585540D01*
X118375350Y-105603268D01*
X118398858Y-105638446D01*
X118403466Y-105680504D01*
X118397670Y-105724536D01*
X118394318Y-105750000D01*
X118395079Y-105755780D01*
X118395079Y-105755782D01*
X118403466Y-105819494D01*
X118398860Y-105861549D01*
X118375357Y-105896725D01*
X118343033Y-105914461D01*
X118343238Y-105914956D01*
X118338724Y-105916825D01*
X118338718Y-105916828D01*
X118337852Y-105917186D01*
X118337848Y-105917188D01*
X118202551Y-105973230D01*
X118202547Y-105973231D01*
X118197159Y-105975464D01*
X118192534Y-105979012D01*
X118192530Y-105979015D01*
X118076346Y-106068166D01*
X118076342Y-106068169D01*
X118071718Y-106071718D01*
X118068169Y-106076342D01*
X118068166Y-106076346D01*
X117979015Y-106192530D01*
X117979012Y-106192534D01*
X117975464Y-106197159D01*
X117973231Y-106202547D01*
X117973230Y-106202551D01*
X117917188Y-106337847D01*
X117917186Y-106337854D01*
X117914956Y-106343238D01*
X117914195Y-106349014D01*
X117914194Y-106349020D01*
X117904253Y-106424536D01*
X117894318Y-106500000D01*
X98043159Y-106500000D01*
X98156762Y-106485044D01*
X98302841Y-106424536D01*
X98428282Y-106328282D01*
X98524536Y-106202841D01*
X98585044Y-106056762D01*
X98605682Y-105900000D01*
X98585044Y-105743238D01*
X98524536Y-105597159D01*
X98428282Y-105471718D01*
X98302841Y-105375464D01*
X98297448Y-105373230D01*
X98162152Y-105317188D01*
X98162147Y-105317186D01*
X98156762Y-105314956D01*
X98150983Y-105314195D01*
X98150979Y-105314194D01*
X98005780Y-105295079D01*
X98000000Y-105294318D01*
X97994220Y-105295079D01*
X97849020Y-105314194D01*
X97849014Y-105314195D01*
X97843238Y-105314956D01*
X97837854Y-105317186D01*
X97837847Y-105317188D01*
X97702551Y-105373230D01*
X97702547Y-105373231D01*
X97697159Y-105375464D01*
X97692534Y-105379012D01*
X97692530Y-105379015D01*
X97576346Y-105468166D01*
X97576342Y-105468169D01*
X97571718Y-105471718D01*
X97568169Y-105476342D01*
X97568166Y-105476346D01*
X97479015Y-105592530D01*
X97479012Y-105592534D01*
X97475464Y-105597159D01*
X97473231Y-105602547D01*
X97473230Y-105602551D01*
X97417188Y-105737847D01*
X97417186Y-105737854D01*
X97414956Y-105743238D01*
X97414195Y-105749014D01*
X97414194Y-105749020D01*
X97399380Y-105861549D01*
X97394318Y-105900000D01*
X90000500Y-105900000D01*
X90000500Y-104176988D01*
X90000527Y-104174804D01*
X90002718Y-104085540D01*
X90006235Y-103942306D01*
X92641828Y-103942306D01*
X92641988Y-103946078D01*
X92641988Y-103946085D01*
X92650160Y-104138446D01*
X92651614Y-104172668D01*
X92652412Y-104176370D01*
X92676903Y-104290012D01*
X92700190Y-104398062D01*
X92701596Y-104401562D01*
X92701598Y-104401567D01*
X92768543Y-104568166D01*
X92786159Y-104612006D01*
X92907049Y-104808343D01*
X93059380Y-104981425D01*
X93238772Y-105126274D01*
X93343274Y-105184652D01*
X93436754Y-105236873D01*
X93436758Y-105236875D01*
X93440063Y-105238721D01*
X93657462Y-105315533D01*
X93884715Y-105354500D01*
X94055634Y-105354500D01*
X94057535Y-105354500D01*
X94229739Y-105339843D01*
X94452869Y-105281745D01*
X94662971Y-105186773D01*
X94854000Y-105057659D01*
X95020462Y-104898119D01*
X95157566Y-104712742D01*
X95261370Y-104506860D01*
X95328886Y-104286397D01*
X95358172Y-104057694D01*
X95348386Y-103827332D01*
X95299810Y-103601938D01*
X95213841Y-103387994D01*
X95092951Y-103191657D01*
X94940620Y-103018575D01*
X94815055Y-102917188D01*
X94764170Y-102876101D01*
X94764166Y-102876098D01*
X94761228Y-102873726D01*
X94730985Y-102856831D01*
X94563245Y-102763126D01*
X94563236Y-102763121D01*
X94559937Y-102761279D01*
X94556365Y-102760017D01*
X94556363Y-102760016D01*
X94346106Y-102685727D01*
X94346098Y-102685725D01*
X94342538Y-102684467D01*
X94338815Y-102683828D01*
X94338809Y-102683827D01*
X94119004Y-102646137D01*
X94118995Y-102646136D01*
X94115285Y-102645500D01*
X93942465Y-102645500D01*
X93940580Y-102645660D01*
X93940566Y-102645661D01*
X93774033Y-102659835D01*
X93774022Y-102659836D01*
X93770261Y-102660157D01*
X93766608Y-102661108D01*
X93766597Y-102661110D01*
X93550793Y-102717301D01*
X93550787Y-102717302D01*
X93547131Y-102718255D01*
X93543686Y-102719812D01*
X93543681Y-102719814D01*
X93340480Y-102811666D01*
X93340470Y-102811671D01*
X93337029Y-102813227D01*
X93333894Y-102815345D01*
X93333892Y-102815347D01*
X93149134Y-102940222D01*
X93149128Y-102940226D01*
X93146000Y-102942341D01*
X93143275Y-102944951D01*
X93143267Y-102944959D01*
X92982269Y-103099262D01*
X92982260Y-103099271D01*
X92979538Y-103101881D01*
X92977292Y-103104916D01*
X92977289Y-103104921D01*
X92844679Y-103284221D01*
X92844673Y-103284230D01*
X92842434Y-103287258D01*
X92840736Y-103290624D01*
X92840732Y-103290632D01*
X92740333Y-103489761D01*
X92740330Y-103489767D01*
X92738630Y-103493140D01*
X92737525Y-103496745D01*
X92737522Y-103496755D01*
X92685329Y-103667186D01*
X92671114Y-103713603D01*
X92670634Y-103717348D01*
X92670633Y-103717355D01*
X92642308Y-103938551D01*
X92642307Y-103938560D01*
X92641828Y-103942306D01*
X90006235Y-103942306D01*
X90009551Y-103807220D01*
X90009950Y-103800717D01*
X90047632Y-103418124D01*
X90048908Y-103409520D01*
X90123698Y-103033528D01*
X90125815Y-103025074D01*
X90237098Y-102658224D01*
X90240028Y-102650038D01*
X90386732Y-102295862D01*
X90390455Y-102287991D01*
X90571159Y-101949916D01*
X90575630Y-101942457D01*
X90788617Y-101623699D01*
X90793810Y-101616697D01*
X91036995Y-101320374D01*
X91042842Y-101313922D01*
X91313922Y-101042842D01*
X91320374Y-101036995D01*
X91616697Y-100793810D01*
X91623699Y-100788617D01*
X91942457Y-100575630D01*
X91949916Y-100571159D01*
X92287991Y-100390455D01*
X92295862Y-100386732D01*
X92650038Y-100240028D01*
X92658224Y-100237098D01*
X93025074Y-100125815D01*
X93033528Y-100123698D01*
X93409520Y-100048908D01*
X93418124Y-100047632D01*
X93800717Y-100009950D01*
X93807220Y-100009551D01*
X94174804Y-100000526D01*
X94176988Y-100000500D01*
X135463634Y-100000500D01*
X135497693Y-100007275D01*
G37*
%TD.AperFunction*%
%TD*%
M02*
