%TF.GenerationSoftware,KiCad,Pcbnew,7.0.2*%
%TF.CreationDate,2023-05-28T21:21:49-04:00*%
%TF.ProjectId,AutoTiller,4175746f-5469-46c6-9c65-722e6b696361,rev?*%
%TF.SameCoordinates,Original*%
%TF.FileFunction,Paste,Bot*%
%TF.FilePolarity,Positive*%
%FSLAX46Y46*%
G04 Gerber Fmt 4.6, Leading zero omitted, Abs format (unit mm)*
G04 Created by KiCad (PCBNEW 7.0.2) date 2023-05-28 21:21:49*
%MOMM*%
%LPD*%
G01*
G04 APERTURE LIST*
G04 Aperture macros list*
%AMRoundRect*
0 Rectangle with rounded corners*
0 $1 Rounding radius*
0 $2 $3 $4 $5 $6 $7 $8 $9 X,Y pos of 4 corners*
0 Add a 4 corners polygon primitive as box body*
4,1,4,$2,$3,$4,$5,$6,$7,$8,$9,$2,$3,0*
0 Add four circle primitives for the rounded corners*
1,1,$1+$1,$2,$3*
1,1,$1+$1,$4,$5*
1,1,$1+$1,$6,$7*
1,1,$1+$1,$8,$9*
0 Add four rect primitives between the rounded corners*
20,1,$1+$1,$2,$3,$4,$5,0*
20,1,$1+$1,$4,$5,$6,$7,0*
20,1,$1+$1,$6,$7,$8,$9,0*
20,1,$1+$1,$8,$9,$2,$3,0*%
G04 Aperture macros list end*
%ADD10RoundRect,0.140000X-0.170000X0.140000X-0.170000X-0.140000X0.170000X-0.140000X0.170000X0.140000X0*%
%ADD11RoundRect,0.140000X0.140000X0.170000X-0.140000X0.170000X-0.140000X-0.170000X0.140000X-0.170000X0*%
%ADD12RoundRect,0.225000X0.225000X0.250000X-0.225000X0.250000X-0.225000X-0.250000X0.225000X-0.250000X0*%
%ADD13R,0.350000X0.375000*%
%ADD14R,0.375000X0.350000*%
%ADD15RoundRect,0.175000X0.325000X0.175000X-0.325000X0.175000X-0.325000X-0.175000X0.325000X-0.175000X0*%
%ADD16RoundRect,0.140000X0.170000X-0.140000X0.170000X0.140000X-0.170000X0.140000X-0.170000X-0.140000X0*%
%ADD17R,0.740000X2.400000*%
G04 APERTURE END LIST*
D10*
%TO.C,C37*%
X189637500Y-92670000D03*
X189637500Y-93630000D03*
%TD*%
%TO.C,C7*%
X143200000Y-119440000D03*
X143200000Y-120400000D03*
%TD*%
D11*
%TO.C,C39*%
X188317500Y-91350000D03*
X187357500Y-91350000D03*
%TD*%
D12*
%TO.C,C41*%
X188612500Y-90150000D03*
X187062500Y-90150000D03*
%TD*%
D13*
%TO.C,U2*%
X188587500Y-93912500D03*
X188087500Y-93912500D03*
X187587500Y-93912500D03*
X187087500Y-93912500D03*
D14*
X187075000Y-93400000D03*
X187075000Y-92900000D03*
D13*
X187087500Y-92387500D03*
X187587500Y-92387500D03*
X188087500Y-92387500D03*
X188587500Y-92387500D03*
D14*
X188600000Y-92900000D03*
X188600000Y-93400000D03*
%TD*%
D15*
%TO.C,SW3*%
X162250000Y-95925000D03*
X157750000Y-95925000D03*
X162250000Y-98075000D03*
X157750000Y-98075000D03*
%TD*%
%TO.C,SW2*%
X142250000Y-141925000D03*
X137750000Y-141925000D03*
X142250000Y-144075000D03*
X137750000Y-144075000D03*
%TD*%
%TO.C,SW7*%
X182250000Y-95925000D03*
X177750000Y-95925000D03*
X182250000Y-98075000D03*
X177750000Y-98075000D03*
%TD*%
D16*
%TO.C,C36*%
X186037500Y-93630000D03*
X186037500Y-92670000D03*
%TD*%
D15*
%TO.C,SW1*%
X142250000Y-95925000D03*
X137750000Y-95925000D03*
X142250000Y-98075000D03*
X137750000Y-98075000D03*
%TD*%
D17*
%TO.C,J2*%
X193070000Y-121750000D03*
X193070000Y-117850000D03*
X191800000Y-121750000D03*
X191800000Y-117850000D03*
X190530000Y-121750000D03*
X190530000Y-117850000D03*
%TD*%
D15*
%TO.C,SW6*%
X182250000Y-141925000D03*
X177750000Y-141925000D03*
X182250000Y-144075000D03*
X177750000Y-144075000D03*
%TD*%
D16*
%TO.C,C6*%
X139200000Y-120400000D03*
X139200000Y-119440000D03*
%TD*%
D15*
%TO.C,SW4*%
X162250000Y-141925000D03*
X157750000Y-141925000D03*
X162250000Y-144075000D03*
X157750000Y-144075000D03*
%TD*%
M02*
