M48
; DRILL file {KiCad 7.0.2} date Sun May 28 21:21:44 2023
; FORMAT={-:-/ absolute / metric / decimal}
; #@! TF.CreationDate,2023-05-28T21:21:44-04:00
; #@! TF.GenerationSoftware,Kicad,Pcbnew,7.0.2
; #@! TF.FileFunction,Plated,1,4,PTH
FMAT,2
METRIC
; #@! TA.AperFunction,Plated,PTH,ViaDrill
T1C0.150
; #@! TA.AperFunction,Plated,PTH,ComponentDrill
T2C0.200
; #@! TA.AperFunction,Plated,PTH,ViaDrill
T3C0.400
; #@! TA.AperFunction,Plated,PTH,ComponentDrill
T4C0.600
; #@! TA.AperFunction,Plated,PTH,ComponentDrill
T5C1.000
; #@! TA.AperFunction,Plated,PTH,ComponentDrill
T6C1.850
%
G90
G05
T1
X138.0Y-120.4
X138.004Y-121.696
X138.5Y-118.6
X138.5Y-122.3
X140.2Y-120.2
X140.6Y-119.7
X141.7Y-119.7
X142.1Y-120.1
X142.2Y-121.2
X143.9Y-120.6
X144.2Y-118.6
X144.4Y-120.2
X184.6Y-115.0
X185.4Y-115.0
X186.2Y-115.0
X187.0Y-115.0
X187.8Y-115.0
X188.6Y-115.0
X189.4Y-115.0
T2
X166.8Y-130.49
X166.8Y-132.4
X168.1Y-130.49
X168.1Y-132.4
X169.4Y-130.49
X169.4Y-132.4
T3
X124.45Y-140.11
X124.5Y-120.0
X125.5Y-120.0
X129.0Y-104.0
X129.0Y-109.0
X131.0Y-104.0
X131.0Y-109.0
X131.4Y-127.3
X133.0Y-104.0
X133.0Y-109.0
X133.6Y-127.0
X135.0Y-104.0
X135.0Y-106.0
X135.0Y-107.0
X135.0Y-109.0
X136.8Y-127.4
X139.4Y-123.4
X139.6Y-130.4
X140.4Y-121.1
X140.7Y-112.4
X140.7Y-113.4
X140.7Y-114.4
X140.8Y-125.6
X140.9Y-130.4
X141.382Y-121.098
X141.7Y-112.4
X141.7Y-113.4
X141.7Y-114.4
X142.2Y-125.8
X144.2Y-123.9
X144.4Y-127.4
X145.8Y-125.8
X147.0Y-127.4
X147.6Y-122.0
X149.1Y-122.8
X149.1Y-122.8
X149.1Y-125.1
X155.3Y-107.5
X155.3Y-108.4
X155.3Y-109.3
X155.3Y-110.2
X156.1Y-107.0
X156.1Y-108.0
X156.1Y-108.9
X156.9Y-110.3
X157.1Y-122.8
X158.0Y-123.8
X159.6Y-125.995
X163.85Y-137.6
X166.912Y-115.95
X168.4Y-135.5
X168.4Y-136.7
X169.1Y-136.1
X174.7Y-123.6
X174.701Y-124.6
X177.4Y-105.4
X177.8Y-108.6
X178.4Y-103.8
X180.0Y-108.59
X181.2Y-108.59
X182.4Y-108.61
X182.95Y-115.45
X183.0Y-116.7
X183.6Y-108.59
X184.2Y-111.8
X184.8Y-108.59
X184.95Y-131.1
X185.2Y-92.0
X185.6Y-118.6
X185.6Y-119.8
X185.6Y-121.2
X186.0Y-108.59
X186.8Y-96.4
X186.8Y-118.6
X186.8Y-119.8
X186.8Y-121.2
X186.8Y-130.85
X187.062Y-88.263
X187.062Y-89.138
X187.8Y-127.0
X187.9Y-130.9
X188.0Y-118.6
X188.0Y-119.8
X188.0Y-121.2
X188.6Y-95.4
X188.612Y-85.2
X188.612Y-86.4
X188.8Y-115.8
X188.8Y-127.0
X189.15Y-134.4
X189.2Y-110.6
X190.0Y-109.4
T5
X157.65Y-139.09
X160.19Y-139.09
X162.73Y-139.09
X165.27Y-139.09
X167.81Y-139.09
X170.35Y-139.09
T6
X123.885Y-90.0
X123.885Y-150.0
X139.885Y-90.0
X139.885Y-150.0
X180.115Y-90.0
X180.115Y-150.0
X196.115Y-90.0
X196.115Y-150.0
T4
G00X123.5Y-115.68
M15
G01X122.2Y-115.68
M16
G05
G00X123.5Y-124.32
M15
G01X122.2Y-124.32
M16
G05
G00X127.175Y-115.68
M15
G01X126.175Y-115.68
M16
G05
G00X127.175Y-124.32
M15
G01X126.175Y-124.32
M16
G05
T0
M30
